<svg width="120" height="120" viewBox="0 0 120 120" fill="none" xmlns="http://www.w3.org/2000/svg">
<circle cx="60" cy="60" r="60" fill="url(#paint0_linear_1_403)"/>
<path d="M86.2578 83.9073L65.9691 34.8557C64.8248 32.3196 63.1237 31.0825 60.8815 31.0825H59.0877C56.8454 31.0825 55.1444 32.3196 54 34.8557L45.1701 56.2268H38.4897C36.4949 56.2423 34.8712 57.8506 34.8557 59.8609V59.9073C34.8712 61.9021 36.4949 63.5258 38.4897 63.5413H42.0774L33.6495 83.9073C33.4949 84.3557 33.4021 84.8196 33.4021 85.299C33.4021 86.4433 33.7578 87.3403 34.3918 88.0361C35.0258 88.732 35.9382 89.0722 37.0825 89.0722C37.8402 89.0567 38.567 88.8248 39.1701 88.3763C39.8196 87.9279 40.2681 87.2784 40.6237 86.5361L49.9021 63.5258H56.3351C58.3299 63.5104 59.9536 61.9021 59.9691 59.8918V59.799C59.9536 57.8042 58.3299 56.1805 56.3351 56.165H52.9021L59.9846 38.5207L79.2835 86.5207C79.6392 87.2629 80.0877 87.9124 80.7372 88.3609C81.3402 88.8093 82.0825 89.0413 82.8248 89.0567C83.9691 89.0567 84.866 88.7165 85.5155 88.0207C86.165 87.3248 86.5052 86.4279 86.5052 85.2836C86.5207 84.8196 86.4433 84.3403 86.2578 83.9073Z" fill="white"/>
<defs>
<linearGradient id="paint0_linear_1_403" x1="67.1751" y1="-22.2813" x2="-22.1049" y2="52.8387" gradientUnits="userSpaceOnUse">
<stop stop-color="#B6509E"/>
<stop offset="1" stop-color="#2EBAC6"/>
</linearGradient>
</defs>
</svg>
