<svg width="120" height="120" viewBox="0 0 120 120" fill="none" xmlns="http://www.w3.org/2000/svg">
<circle cx="60" cy="60" r="60" fill="#EDF0F4"/>
<ellipse cx="60.173" cy="59.7854" rx="40.6504" ry="19.4228" transform="rotate(-70.7 60.173 59.7854)" fill="#5FBCD3"/>
<ellipse cx="60.1538" cy="59.7991" rx="40.6504" ry="19.4228" transform="rotate(-37 60.1538 59.7991)" fill="#2C89A0"/>
<ellipse cx="61.9159" cy="58.7368" rx="40.6504" ry="19.4228" transform="rotate(-5.7 61.9159 58.7368)" fill="#164450"/>
<path fill-rule="evenodd" clip-rule="evenodd" d="M64.7891 60.558C65.1172 63.8122 67.4485 65.4325 71.7829 65.4188C74.3402 65.446 76.8662 64.855 79.1459 63.696V68.6184C76.5617 69.7532 73.4374 70.3207 69.773 70.3207C65.3292 70.3207 62.0476 69.0217 59.9282 66.4238H59.8052C57.4807 69.0217 54.4931 70.3207 50.8424 70.3207C48.0941 70.3207 45.9474 69.7191 44.4023 68.5158C42.8573 67.3126 42.0847 65.6444 42.0847 63.5114C42.0847 61.3921 42.8846 59.6898 44.4844 58.4045C46.0841 57.1192 48.3676 56.3809 51.3346 56.1894L57.6927 55.7382C57.6927 52.9626 56.1681 51.5747 53.119 51.5747C50.2476 51.5747 47.4036 52.3541 44.5869 53.9128V48.7649C47.4932 47.5549 50.6068 46.921 53.7548 46.8985C57.6243 46.8985 60.3043 47.8693 61.7946 49.8109H61.8972C64.0959 47.8652 66.8226 46.6161 69.7319 46.2217C73.0955 45.6679 77.3411 45.7089 79.3715 47.6368C80.5159 48.7452 81.2591 50.2027 81.484 51.7798C81.7262 53.6041 81.2057 55.4476 80.0452 56.8759C78.8848 58.3042 77.1869 59.191 75.3516 59.3274L64.7891 60.558ZM57.6722 60.7426V59.7581L53.8163 60.0453C50.7672 60.264 49.2426 61.2212 49.2426 62.9166C49.2544 63.6379 49.6232 64.3064 50.2271 64.701C50.8697 65.1796 51.7107 65.4257 52.7498 65.4393C54.1718 65.4393 55.3477 65.0018 56.2775 64.1267C57.2073 63.2516 57.6722 62.1236 57.6722 60.7426ZM65.4249 56.9483L65.4864 55.9638C65.5684 54.5965 66.1017 53.4958 67.0862 52.6617C68.0706 51.8277 69.2739 51.438 70.6959 51.4927C71.7214 51.5474 72.5418 51.8208 73.1571 52.3131C73.7462 52.7381 74.0785 53.4336 74.039 54.159C73.9433 55.8544 72.3709 56.7432 69.3217 56.8252L65.4249 56.9483Z" fill="white"/>
</svg>
