<svg width="120" height="120" viewBox="0 0 120 120" fill="none" xmlns="http://www.w3.org/2000/svg">
<circle cx="60" cy="60" r="60" fill="#EDF0F4"/>
<path d="M29.0428 92.7055C28.9756 92.034 28.5055 86.9569 33.3676 80.2282C37.7059 74.2242 48.236 70.262 57.7587 67.0116L58.6049 66.7296C65.0115 64.5403 74.0776 60.4438 76.1729 58.456L82.7675 65.4133C78.4696 69.483 66.1129 74.2914 61.7209 75.7956L60.8613 76.0911C56.2678 77.6626 44.0454 81.8263 41.1443 85.8556C38.4581 89.576 38.5924 92.6651 38.5924 92.6919L29.0428 92.7055Z" fill="url(#paint0_linear_1_5856)"/>
<path d="M73.7959 93.0146H64.206C64.206 89.1195 62.8897 85.842 61.8421 83.1961C61.6944 82.8336 61.56 82.4842 61.4257 82.1484C60.8482 80.6578 58.4306 77.0581 56.4965 74.1838C55.4085 72.5587 54.2669 70.8798 53.3401 69.3889C53.0312 68.9054 52.7089 68.4084 52.3865 67.898C49.5122 63.4792 45.5769 57.4217 45.5769 48.3422C45.5769 43.1578 47.605 37.9733 51.1509 34.1051L58.2157 40.5924C56.3084 42.6742 55.1668 45.5754 55.1668 48.3422C55.1668 54.5743 57.8396 58.6977 60.4318 62.6733C60.7945 63.224 61.1437 63.7612 61.466 64.2851C62.3256 65.655 63.3733 67.1996 64.4746 68.8382C67.0131 72.6258 69.4173 76.1985 70.3843 78.6833C70.5052 78.9921 70.6261 79.3147 70.7604 79.6505C71.9558 82.6856 73.7959 87.2795 73.7959 93.0146Z" fill="url(#paint1_linear_1_5856)"/>
<path d="M82.7675 65.3998L76.1727 58.4425C78.7245 56.0249 80.5246 53.9162 80.5246 48.6646C80.5246 41.2102 74.3729 36.6033 68.6781 36.6033C64.1384 36.6033 60.6194 37.9465 58.2018 40.579L51.137 34.0917C54.1053 30.8548 59.5583 27 68.6915 27C74.749 27 80.3231 29.4713 84.3792 33.944C88.0324 37.9867 90.141 43.3458 90.141 48.6511C90.1143 57.2605 86.5818 61.7868 82.7675 65.3998Z" fill="url(#paint2_linear_1_5856)"/>
<defs>
<linearGradient id="paint0_linear_1_5856" x1="29" y1="58.456" x2="29" y2="92.7055" gradientUnits="userSpaceOnUse">
<stop stop-color="#4D4D4D"/>
<stop offset="1" stop-color="#8F8F8F"/>
</linearGradient>
<linearGradient id="paint1_linear_1_5856" x1="45.5769" y1="34.1051" x2="45.5769" y2="93.0146" gradientUnits="userSpaceOnUse">
<stop stop-color="#393939"/>
<stop offset="1" stop-color="#B8B8B8"/>
</linearGradient>
<linearGradient id="paint2_linear_1_5856" x1="51.137" y1="27" x2="51.137" y2="65.3998" gradientUnits="userSpaceOnUse">
<stop stop-color="#FF21B3"/>
<stop offset="1" stop-color="#FF21B3"/>
</linearGradient>
</defs>
</svg>
