<svg width="120" height="120" viewBox="0 0 120 120" fill="none" xmlns="http://www.w3.org/2000/svg">
<circle cx="60" cy="60" r="60" fill="#322A3F"/>
<path d="M59.2706 31.9621L36.1988 80.0677H74.5016C75.6111 80.0673 76.6141 80.7281 77.0516 81.7477L77.0918 81.8407C77.3793 82.51 77.336 83.2756 76.9748 83.9083C76.3246 85.0411 75.1184 85.74 73.8122 85.7407H33.1058C32.4779 85.7405 31.8642 85.5545 31.3418 85.2061L31.127 85.0639C29.8074 84.1805 29.339 82.4606 30.0284 81.0301L57.2516 25.0093C57.5363 24.4245 57.9413 23.9066 58.4402 23.4895C59.4148 22.6767 60.8271 22.6631 61.817 23.4571C62.0325 23.6269 62.2071 23.843 62.3276 24.0895L89.9402 80.4973C90.3146 81.2638 90.3926 82.1416 90.1592 82.9621C89.8958 83.8898 89.0476 84.5291 88.0832 84.5269H87.767C86.4792 84.527 85.3072 83.7831 84.7592 82.6177L60.9452 31.9705C60.7949 31.6447 60.4696 31.4355 60.1109 31.4337C59.7522 31.4319 59.4248 31.6379 59.2712 31.9621H59.2706Z" fill="#F4AE95"/>
</svg>
