<svg width="120" height="120" viewBox="0 0 120 120" fill="none" xmlns="http://www.w3.org/2000/svg">
<circle cx="60" cy="60" r="60" fill="#00688C"/>
<path fill-rule="evenodd" clip-rule="evenodd" d="M101 37.7631V85.2781L100.996 85.2819L59.9385 109L59.9347 108.996L19 85.2931V37.7894L59.9012 14.03L59.9571 14L101 37.7631ZM82.8326 77.6802L75.8349 73.6478L60.2145 82.7623C60.1224 82.8167 60.0082 82.8167 59.9161 82.7623L41.9943 72.3205L41.9869 54.1551L26.2433 45.0818L59.8042 25.3042C59.8317 25.2873 59.8662 25.2873 59.8937 25.3042L91.0638 43.2184L85.5511 46.424L59.9086 31.5918L37.1679 45.0105L45.0565 49.5659L59.9235 40.875L59.931 40.8675L78.0952 51.3094L78.0877 68.5937L93.5702 77.5058L93.5665 77.7683L59.9385 97.5046L28.7647 79.6129L34.2214 76.3998L59.8862 91.1983L82.8326 77.6802Z" fill="white"/>
<path d="M64.8804 57.0609V56.9334L64.8767 56.8509L64.8729 56.8059L64.8655 56.7122V56.6822L64.8543 56.581V56.5547L64.8394 56.4497V56.431L64.8245 56.3223V56.3073L64.8058 56.1948L64.8021 56.1873L64.7797 56.0748L64.776 56.0636L64.7499 55.9511V55.9436C64.7428 55.9057 64.7341 55.8682 64.7238 55.8311V55.8236L64.6902 55.7111V55.7074L64.6566 55.5874C64.6367 55.5108 64.6118 55.4357 64.582 55.3624V55.3587L64.5373 55.2462C64.5236 55.2082 64.5087 55.1707 64.4925 55.1337L64.444 55.0212L64.3955 54.9163L64.3433 54.8038L64.2911 54.6988L64.2314 54.5938C64.2111 54.5604 64.1912 54.5266 64.1717 54.4926V54.4888L64.1121 54.3914L64.1083 54.3876C64.0882 54.3557 64.067 54.3244 64.0449 54.2939V54.2864L63.9815 54.1964C63.9815 54.1964 63.9815 54.1889 63.9741 54.1889L63.9107 54.0989L63.9032 54.0914C63.8808 54.0614 63.8659 54.0314 63.8398 54.0014L63.8361 53.9939L63.7652 53.9077L63.7577 53.9002L63.6906 53.8177L63.6831 53.8102L63.6085 53.7315C63.6054 53.7282 63.6029 53.7244 63.6011 53.7202L63.5302 53.6415C63.5271 53.6382 63.5245 53.6344 63.5228 53.6302L63.4519 53.5553C63.4233 53.5265 63.3947 53.4978 63.3661 53.469L63.3549 53.4578L63.2803 53.3828C63.2517 53.3578 63.2231 53.3328 63.1945 53.3078L63.1833 53.2966C63.1579 53.2721 63.1318 53.2484 63.105 53.2253L63.0938 53.2141C63.0684 53.192 63.0423 53.1708 63.0155 53.1503L63.0043 53.1428L62.9223 53.0754L62.9111 53.0679L62.8253 53.0041L62.8141 52.9966L62.7283 52.9329L62.7171 52.9254L62.6313 52.8654L62.6201 52.8616L62.5306 52.8017L62.5232 52.7942L62.4299 52.7379H62.4225L62.3255 52.6779H62.318L62.2173 52.6179H62.2136C59.74 51.5678 56.8827 52.6668 55.7383 55.1086C54.5938 57.5504 55.5699 60.4649 57.9504 61.7138L55.7871 71.6569H63.9703L61.7884 61.7213C63.6608 60.9339 64.8804 59.0967 64.8804 57.0609Z" fill="white"/>
</svg>
