<svg width="120" height="120" viewBox="0 0 120 120" fill="none" xmlns="http://www.w3.org/2000/svg">
<circle cx="59.9999" cy="60.0001" r="58.0645" fill="#F2E3EE"/>
<circle cx="60" cy="60" r="60" fill="#D9327C"/>
<path fill-rule="evenodd" clip-rule="evenodd" d="M57.6774 31.6452C57.1935 32.0323 56.6129 32.7097 56.2258 33.9678C55.8387 35.2258 53.7097 41.4194 51 49.1613H69.0968C66.3871 41.4194 64.2581 35.2258 63.871 33.9678C63.4839 32.7097 62.9032 32.0323 62.4193 31.6452C61.9355 31.2581 61.2581 30.9678 60 30.9678C58.7419 30.9678 58.1613 31.2581 57.6774 31.6452ZM30.9677 49.1613H43.2581C46.2581 40.3549 48.871 33 49.2581 31.6452C50.0322 29.3226 51.2903 27.2904 53.2258 25.8387C55.1613 24.3871 57.4839 23.7097 59.9032 23.7097C62.3226 23.7097 64.6452 24.2904 66.5806 25.8387C68.5161 27.2904 69.7742 29.3226 70.5484 31.6452C71.0322 33 73.5484 40.2581 76.5484 49.1613H89.0322C91.0645 49.1613 92.7097 50.8065 92.7097 52.8387C92.7097 54.871 91.0645 56.5162 89.0322 56.5162H79.2581H71.6129H48.4839H40.8387H30.9677C28.9355 56.5162 27.3871 54.871 27.3871 52.8387C27.3871 50.8065 29.0322 49.1613 30.9677 49.1613ZM30.9677 63.6775C28.9355 63.6775 27.3871 65.3226 27.3871 67.3549C27.3871 69.3871 29.0322 71.0323 30.9677 71.0323H35.8064L33.871 76.6452L31.9355 82.2581L31.1613 84.3871C30.4839 86.3226 31.5484 88.3549 33.3871 89.0323C35.3226 89.7097 37.3548 88.6452 38.0322 86.8065L38.8064 84.6775L40.7419 79.0646C41.5161 76.742 42.4839 74.0323 43.5484 71.0323H76.6451C77.6129 73.9355 78.5806 76.742 79.4516 79.0646L81.3871 84.6775L82.1613 86.8065C82.8387 88.742 84.871 89.7097 86.8064 89.0323C88.7419 88.3549 89.7097 86.3226 89.0322 84.3871L88.2581 82.2581L86.3226 76.6452L84.3871 71.0323H89.2258C91.2581 71.0323 92.9032 69.3871 92.9032 67.3549C92.9032 65.3226 91.2581 63.6775 89.2258 63.6775H81.871H74.2258H46.1613H38.5161H30.9677ZM85.4516 85.4517L88.8387 84.2904C88.8387 84.2904 88.8387 84.2904 85.4516 85.4517ZM85.4516 85.4517C82.0645 86.6129 82.0645 86.6129 82.0645 86.6129L85.4516 85.4517ZM34.6451 85.4517L38.0322 86.6129C38.0322 86.6129 38.0322 86.6129 34.6451 85.4517ZM34.6451 85.4517C31.2581 84.2904 31.2581 84.2904 31.2581 84.2904L34.6451 85.4517Z" fill="white"/>
</svg>
