<svg width="120" height="120" viewBox="0 0 120 120" fill="none" xmlns="http://www.w3.org/2000/svg">
<path d="M60 120C93.138 120 120 93.138 120 60C120 26.862 93.138 0 60 0C26.862 0 0 26.862 0 60C0 93.138 26.862 120 60 120Z" fill="#EDF0F4"/>
<path fill-rule="evenodd" clip-rule="evenodd" d="M41.9191 44.6541H31.3297C31.3279 44.6799 31.3246 44.7005 31.322 44.7174C31.318 44.7427 31.3152 44.7597 31.3207 44.7735C31.3433 44.8469 31.3705 44.9158 31.4022 44.9801C32.1042 46.3343 33.1097 47.335 34.5863 47.7895C35.1207 47.9547 35.4876 48.2714 35.5148 48.882C35.5178 48.9615 35.5168 49.0411 35.5158 49.1207C35.5153 49.1605 35.5148 49.2002 35.5148 49.24V61.8454C35.5148 63.3832 36.0854 64.641 37.3265 65.5545C38.1508 66.165 39.0974 66.3578 40.1029 66.3533C42.2453 66.3486 44.3831 66.3486 46.5209 66.3486C47.1686 66.3486 47.8027 66.2614 48.4006 65.986C49.7095 65.3801 50.5474 64.384 50.8645 62.9517C50.9907 62.376 50.9753 61.7963 50.96 61.2166C50.9522 60.9226 50.9444 60.6286 50.9551 60.3351C50.9596 60.1745 50.8554 60.1148 50.7105 60.0735C48.8263 59.5181 47.241 58.4439 45.8823 57.0438C44.7907 55.9192 43.9302 54.6108 43.278 53.1694C42.5578 51.5812 42.0867 49.9148 41.9463 48.175C41.8932 47.5224 41.9026 46.8675 41.9121 46.212C41.9163 45.9177 41.9205 45.6233 41.9191 45.329V44.6541ZM38.8393 55.4831C38.0693 55.4693 37.5122 54.8771 37.5167 54.0784C37.4443 53.2475 38.1961 52.6875 38.8483 52.692C39.6183 52.6966 40.2388 53.3347 40.2252 54.1151C40.2117 54.8725 39.5775 55.4968 38.8393 55.4831Z" fill="white"/>
<path d="M49.2429 54.1013C49.2339 54.7806 48.6405 55.3866 47.9838 55.382C47.3044 55.382 46.6884 54.7439 46.7066 54.0645C46.7247 53.3852 47.318 52.7792 47.9747 52.7884C48.6587 52.7975 49.3154 53.4402 49.2429 54.1013Z" fill="white"/>
<path d="M37.5166 54.0783C37.4487 53.2474 38.1961 52.6874 38.8483 52.692C39.6182 52.6966 40.2388 53.3392 40.2251 54.115C40.2116 54.8725 39.5775 55.4968 38.8392 55.483C38.0693 55.4692 37.5076 54.877 37.5166 54.0783Z" fill="black"/>
<path fill-rule="evenodd" clip-rule="evenodd" d="M89.2457 68.5245H89.2184C89.2184 68.5245 89.2166 68.5263 89.213 68.5289L89.2093 68.5312L89.205 68.5337C88.8788 68.5245 88.5749 68.4832 88.2493 68.3225C88.2493 68.3179 88.2493 68.3133 88.2443 68.3088C87.8278 67.8864 87.7508 67.3677 87.7553 66.7985C87.7688 63.9443 87.7645 61.0858 87.7601 58.2314V58.2307V58.2301V58.2294V58.2288L87.7597 57.9802C87.7553 55.5427 85.8305 53.3117 83.4526 52.9858C83.4154 52.9795 83.3783 52.984 83.3252 52.9903C83.3006 52.9933 83.2727 52.9966 83.2397 52.9995C83.2671 53.042 83.2905 53.0804 83.3119 53.1155L83.3119 53.1156L83.312 53.1158C83.3507 53.1793 83.383 53.2323 83.4209 53.2796C84.6256 54.776 85.2958 56.4883 85.269 58.43C85.2563 59.3583 85.2006 60.2888 85.1449 61.2184C85.1199 61.6357 85.095 62.0529 85.0739 62.4697C85.0393 63.1438 85.0072 63.8171 84.9751 64.49C84.9315 65.4024 84.888 66.3139 84.8386 67.2254C84.7929 68.0775 84.7424 68.9279 84.6919 69.7787C84.6572 70.3625 84.6225 70.9465 84.5893 71.5312C84.5668 71.9374 84.5475 72.3447 84.5283 72.752V72.7521V72.7522V72.7523V72.7523C84.509 73.1597 84.4898 73.5671 84.4672 73.9734L84.2364 78.192C84.2175 78.552 84.1981 78.9119 84.1787 79.2719L84.1787 79.2723L84.1787 79.2728L84.1787 79.2732L84.1786 79.2736C84.1375 80.0378 84.0964 80.8019 84.0596 81.566C84.0189 82.4657 83.2352 83.2645 82.3474 83.269C80.1372 83.2782 77.9223 83.2782 75.712 83.269C74.9058 83.2645 74.1766 82.5988 74.0136 81.791C73.842 80.9569 73.6593 80.1252 73.4764 79.2925C73.3986 78.9382 73.3207 78.5837 73.2436 78.2287L73.2065 78.0583C73.0831 77.4915 72.9603 76.9279 72.845 76.3604C72.7997 76.1217 72.7001 76.0069 72.4374 76.0069C67.881 76.0161 63.3245 76.0161 58.7681 76.0161C58.7456 76.0161 58.7255 76.023 58.6851 76.0368L58.685 76.0368L58.6656 76.0434C58.6533 76.0476 58.6392 76.0523 58.6231 76.0575C58.5141 76.5501 58.4028 77.0428 58.2915 77.5355C58.1809 78.0252 58.0702 78.5148 57.9618 79.0045C57.886 79.3513 57.8119 79.6975 57.7378 80.0433C57.6041 80.668 57.4706 81.2914 57.3278 81.9148C57.1466 82.6952 56.4672 83.2645 55.6836 83.269C53.4734 83.2828 51.2585 83.2828 49.0482 83.269C48.0835 83.2598 47.3317 82.4428 47.2999 81.3961C47.2841 80.871 47.2762 80.3447 47.2683 79.8184C47.2604 79.2912 47.2524 78.764 47.2365 78.2379C47.211 77.366 47.1765 76.4922 47.1421 75.6189L47.1421 75.6181L47.1421 75.6177C47.1216 75.0984 47.1011 74.5792 47.0825 74.0606C47.0644 73.6021 47.0475 73.1424 47.0305 72.6828L47.0305 72.6824L47.0305 72.6821L47.0305 72.6818L47.0305 72.6815C47.0135 72.2212 46.9965 71.7609 46.9784 71.3017L46.9784 71.3017C46.9829 71.2695 46.9874 71.2374 46.9829 71.2007C46.9648 70.962 46.9603 70.7187 46.9603 70.48C46.9603 70.4387 46.9512 70.3974 46.9421 70.3607C46.9421 70.0348 46.7972 69.6721 46.6704 69.4059C46.4349 68.9101 46.0453 68.676 45.5155 68.6576H45.4883C45.4249 68.6484 45.366 68.6439 45.3026 68.6439V68.6301H41.2081C41.113 68.6301 41.0224 68.6347 40.9273 68.6439C40.8619 68.6439 40.7963 68.6437 40.7306 68.6435C40.4685 68.6427 40.2042 68.642 39.9399 68.653C39.8856 68.6484 39.8312 68.6484 39.7768 68.6484C39.5821 68.6392 39.3873 68.6301 39.188 68.6255C39.1473 68.6117 39.102 68.6026 39.0476 68.6026C39.0462 68.6026 39.0447 68.6024 39.0433 68.6022L39.0411 68.6019L39.0372 68.601L39.0341 68.6002C39.0316 68.5996 39.0291 68.599 39.0266 68.5985C39.0246 68.5982 39.0225 68.5979 39.0205 68.5979C38.9842 68.5796 38.9435 68.5704 38.8981 68.5658C38.8906 68.5633 38.8827 68.5603 38.8747 68.5574C38.8537 68.5497 38.8317 68.5416 38.8121 68.5383L38.7974 68.5321C38.7811 68.5252 38.7663 68.5189 38.7487 68.5153C38.7034 68.4877 38.6491 68.4694 38.5811 68.4556C35.9722 67.9231 34.301 66.3349 33.5401 63.7688C33.3906 63.2501 33.3408 62.6854 33.3362 62.1438C33.3181 58.2051 33.3226 54.2711 33.3362 50.3371C33.3408 49.9148 33.2366 49.699 32.838 49.497C30.895 48.5147 29.6358 46.9126 28.961 44.8377C28.8251 44.42 28.6983 43.9839 28.6666 43.5478C28.6122 42.8317 29.0742 42.3818 29.7853 42.3772C31.2935 42.3635 32.8018 42.3543 34.31 42.3451H34.7901C34.7936 42.2802 34.7984 42.2193 34.803 42.1609V42.1609V42.1609L34.803 42.1609C34.8104 42.0665 34.8173 41.9786 34.8173 41.8906C34.8218 41.1608 34.8264 40.4309 34.8173 39.7056C34.8037 38.4248 35.5647 37.2589 36.7468 36.8641C38.6898 36.2168 40.5151 37.571 40.5876 39.4944C40.6063 40.0247 40.6014 40.5572 40.5966 41.0889L40.5966 41.0891C40.5943 41.3306 40.5921 41.5718 40.5921 41.8126V42.3176H45.8733C45.8764 42.2614 45.8801 42.2058 45.8838 42.1506C45.8907 42.0478 45.8975 41.9463 45.9004 41.8447C45.9057 41.5856 45.9083 41.3264 45.9109 41.0673L45.9109 41.067L45.9109 41.0667L45.9109 41.0663L45.9109 41.066V41.066C45.9172 40.4353 45.9234 39.8053 45.9684 39.1777C46.0544 38.0301 47.0509 36.9926 48.1696 36.7631C49.7775 36.4372 51.1951 37.4287 51.562 38.7967C51.6481 39.1042 51.6707 39.4393 51.6797 39.7607C51.6895 40.2694 51.6876 40.7805 51.6858 41.2906V41.2911V41.2915V41.292V41.2925C51.685 41.4952 51.6843 41.6977 51.6843 41.8998C51.6843 41.9853 51.6903 42.0728 51.697 42.1704L51.697 42.1705C51.7004 42.2196 51.7039 42.2714 51.707 42.3267C51.7559 42.3295 51.8033 42.3327 51.8494 42.3358C51.9567 42.343 52.0571 42.3497 52.1554 42.3497C52.9095 42.3566 53.6636 42.3612 54.4177 42.3657H54.4178H54.4178H54.4178H54.4179C55.1719 42.3703 55.926 42.3749 56.6801 42.3818C57.4682 42.3864 57.8668 42.7995 57.8396 43.6029C57.8169 44.3006 57.5678 44.9433 57.2961 45.563C56.5397 47.2798 55.3802 48.634 53.7044 49.497C53.6138 49.5429 53.5186 49.5842 53.4235 49.621C53.1835 49.7174 53.0702 49.8735 53.1699 50.1718L53.1774 50.1736C53.253 50.1916 53.3451 50.2136 53.4371 50.2269C53.4824 50.233 53.5317 50.231 53.581 50.229C53.6057 50.2279 53.6304 50.2269 53.6545 50.2269C56.1002 50.2324 58.5458 50.2364 60.9911 50.2405C64.6686 50.2465 68.3455 50.2526 72.0207 50.2637C75.5943 50.2728 79.1679 50.282 82.7415 50.3187C86.0658 50.3509 88.9056 52.5313 89.9114 55.6207C90.1969 56.4929 90.2917 57.388 90.2962 58.2924C90.3049 60.0507 90.3045 61.8108 90.304 63.5705V63.5706V63.5707V63.5707V63.5708C90.3037 64.6179 90.3034 65.6649 90.3051 66.7112L90.3051 66.7394C90.3052 67.3357 90.3054 67.9205 89.7213 68.3317L89.7302 68.3409C89.68 68.3592 89.6349 68.3868 89.5986 68.4281C89.5356 68.4556 89.4632 68.4832 89.3951 68.5015C89.3494 68.5061 89.3042 68.5107 89.2635 68.5199C89.2626 68.5209 89.2614 68.5217 89.2601 68.5223C89.2583 68.5232 89.2562 68.5237 89.2542 68.524C89.251 68.5245 89.2478 68.5245 89.2457 68.5245ZM48.7629 38.9344C48.4323 38.9619 48.1243 39.2511 48.1198 39.6092C48.1082 40.1719 48.1095 40.7345 48.1108 41.309V41.309V41.309V41.3091V41.3091C48.1116 41.6391 48.1124 41.973 48.1107 42.3129H49.4423C49.4423 42.0393 49.4438 41.7678 49.4453 41.498V41.4976V41.4973V41.4969V41.4966C49.449 40.8256 49.4526 40.1646 49.4332 39.5036C49.4242 39.1685 49.0618 38.9114 48.7629 38.9344ZM47.9794 52.7884C48.6633 52.7976 49.3155 53.4403 49.2476 54.1013C49.2385 54.7807 48.6452 55.3866 47.9884 55.382C47.309 55.382 46.693 54.7439 46.7111 54.0645C46.7247 53.3852 47.3226 52.7792 47.9794 52.7884ZM37.1182 39.3246C37.0548 39.4669 37.0321 39.6367 37.0321 39.7974C37.0276 40.5502 37.0276 41.3031 37.0367 42.0605C37.0367 42.12 37.0493 42.1774 37.0631 42.24C37.0695 42.2691 37.0762 42.2993 37.0819 42.3313H38.3275C38.3374 42.2979 38.3467 42.2711 38.3545 42.2486L38.3545 42.2486L38.3545 42.2485C38.3682 42.2094 38.3773 42.1831 38.3773 42.1569C38.3773 41.8752 38.3788 41.594 38.3803 41.313V41.3129V41.3129C38.3834 40.7514 38.3864 40.1905 38.3773 39.6275C38.3728 39.2741 38.1192 39.0032 37.8021 38.939C37.5711 38.8977 37.2314 39.0675 37.1182 39.3246ZM48.4051 65.986C47.8072 66.2614 47.1732 66.3486 46.5255 66.3486C44.3876 66.3486 42.2498 66.3486 40.1075 66.3532C39.102 66.3578 38.1554 66.165 37.3311 65.5545C36.09 64.641 35.5193 63.3832 35.5193 61.8454V49.2399C35.5193 49.2002 35.5198 49.1604 35.5203 49.1206C35.5214 49.041 35.5224 48.9615 35.5193 48.8819C35.4922 48.2714 35.1253 47.9547 34.5908 47.7894C33.1143 47.3349 32.1088 46.3342 31.4068 44.98C31.3751 44.9157 31.3479 44.8469 31.3252 44.7734C31.3198 44.7597 31.3225 44.7426 31.3265 44.7173C31.3292 44.7004 31.3325 44.6798 31.3343 44.6541H41.9237V45.3289C41.9251 45.6231 41.9209 45.9173 41.9167 46.2114V46.2114C41.9072 46.8671 41.8977 47.5221 41.9509 48.175C42.0913 49.9148 42.5623 51.5811 43.2825 53.1694C43.9347 54.6108 44.7953 55.9191 45.8868 57.0437C47.2456 58.4438 48.8308 59.518 50.715 60.0735C50.86 60.1148 50.9641 60.1744 50.9596 60.3351C50.949 60.6286 50.9567 60.9226 50.9645 61.2166C50.9799 61.7963 50.9953 62.376 50.869 62.9517C50.552 64.3839 49.714 65.38 48.4051 65.986ZM82.596 62.0191C82.6439 61.0461 82.6917 60.0732 82.7551 59.1003C82.8773 57.2549 82.2614 55.7034 80.9841 54.3813C80.5946 53.9819 80.2142 53.5688 79.8473 53.1465C79.6616 52.9307 79.4623 52.8343 79.1679 52.8343C78.7353 52.8343 78.3028 52.8354 77.8702 52.8366C77.4377 52.8377 77.0051 52.8389 76.5726 52.8389V52.7563H59.1983V52.7608H53.727H53.419C53.2197 52.7608 53.1291 52.8618 53.1336 53.0638C53.1367 53.1434 53.1357 53.223 53.1347 53.3025C53.1341 53.3423 53.1336 53.3821 53.1336 53.4219C53.1336 54.1772 53.1342 54.9322 53.1348 55.6871C53.1365 57.9464 53.1382 60.2045 53.1246 62.4651C53.1246 62.9792 53.0567 63.5117 52.9027 63.9983C52.4044 65.5866 51.4262 66.8123 50.0084 67.6615C49.7775 67.8038 49.6959 67.9553 49.7005 68.2261C49.7186 69.2099 49.7251 70.1966 49.7316 71.1815C49.7332 71.4283 49.7349 71.6749 49.7367 71.9214C49.7457 73.31 49.7537 74.6974 49.7616 76.0849C49.7695 77.4724 49.7775 78.8599 49.7865 80.2485C49.7865 80.7168 49.8047 80.7305 50.2485 80.7305H54.5106C54.9661 80.7305 54.9681 80.7216 55.0679 80.2636L55.0722 80.2439C55.2987 79.2203 55.5297 78.192 55.7652 77.1683C55.8342 76.8681 55.9036 76.5681 55.973 76.2684C56.1538 75.4866 56.3344 74.7059 56.5079 73.9229C56.6031 73.4914 56.6212 73.4547 57.0424 73.4547H74.4031C74.4985 73.4547 74.5939 73.465 74.695 73.4761C74.7284 73.4797 74.7624 73.4834 74.7972 73.4868C75.0694 74.6163 75.3211 75.7448 75.5717 76.869C75.859 78.1573 76.145 79.4399 76.4594 80.7122H81.582C81.6305 79.9211 81.6747 79.1736 81.7188 78.4272L81.7224 78.3665C81.7949 77.1408 81.8673 75.9105 81.9353 74.6849C82.044 72.6605 82.1527 70.6315 82.2569 68.6026C82.3024 67.7087 82.3491 66.8149 82.3959 65.921C82.442 65.0384 82.4881 64.1557 82.5331 63.273C82.5549 62.855 82.5755 62.4371 82.596 62.0191Z" fill="black"/>
<path fill-rule="evenodd" clip-rule="evenodd" d="M89.2546 69.2178H89.2635L90.7584 68.1896C91.0121 67.6939 91.0121 67.1522 91.0121 66.7023V63.4522C91.0165 61.7308 91.0165 60.0048 91.0076 58.2834C91.0032 57.1955 90.8626 56.2544 90.5861 55.4006C89.4765 51.9807 86.3379 49.6579 82.7777 49.6258C79.3808 49.5937 76.0337 49.5799 72.0524 49.5707C67.7768 49.5615 63.4966 49.5524 59.221 49.5477L54.9726 49.5386C56.2498 48.648 57.2463 47.4086 57.9347 45.8341C58.211 45.2006 58.51 44.4569 58.5371 43.6169C58.5552 43.0247 58.4012 42.5519 58.0751 42.2076C57.749 41.8633 57.2915 41.6843 56.7073 41.6797C55.806 41.6705 54.9092 41.6659 54.0078 41.6614L52.3818 41.6522V41.1793C52.3818 40.6973 52.3818 40.2153 52.3728 39.7333C52.3592 39.2743 52.3184 38.9254 52.2324 38.6041C51.7522 36.8046 49.9179 35.6937 48.0519 36.0747C46.5935 36.3731 45.4113 37.6814 45.3071 39.1136C45.2618 39.7425 45.2528 40.3714 45.2482 40.9774C45.246 41.0852 45.2448 41.192 45.2437 41.2987C45.2426 41.4054 45.2415 41.5122 45.2392 41.62H41.2942C41.2942 41.5305 41.2953 41.441 41.2965 41.3515C41.2976 41.262 41.2987 41.1724 41.2987 41.0829L41.3005 40.891C41.305 40.4222 41.3096 39.9383 41.2896 39.4579C41.2444 38.3149 40.6963 37.2866 39.7814 36.644C38.8529 35.9921 37.6799 35.8314 36.5566 36.2033C35.1027 36.6853 34.1425 38.0945 34.1606 39.7058C34.1651 40.3117 34.1651 40.9131 34.1606 41.5144V41.6476L33.1596 41.6522C32.0364 41.6567 30.9176 41.6659 29.7989 41.6751C29.2463 41.6797 28.7617 41.8817 28.4356 42.2397C28.1186 42.5886 27.9691 43.066 28.0053 43.5847C28.0416 44.0989 28.1865 44.5901 28.3314 45.0399C29.0878 47.3627 30.51 49.0658 32.5527 50.0986C32.5973 50.1225 32.6267 50.1403 32.6444 50.151L32.6444 50.151C32.6573 50.1588 32.664 50.1629 32.6659 50.1629C32.6659 50.1666 32.6666 50.1728 32.6676 50.1818C32.6702 50.2056 32.675 50.249 32.675 50.319C32.6569 54.3907 32.6569 58.3614 32.675 62.1302C32.6795 62.828 32.7565 63.4247 32.9105 63.948C33.753 66.7941 35.6236 68.5293 38.4317 69.0939L38.7351 69.2225L39.1881 69.2959C39.3352 69.2994 39.4823 69.3055 39.645 69.3122L39.8086 69.3189C39.8318 69.3189 39.8526 69.3201 39.8729 69.3212L39.873 69.3213H39.8731H39.8731H39.8732H39.8733H39.8733H39.8734H39.8734C39.8925 69.3224 39.9112 69.3234 39.9309 69.3234H39.9581H39.9852C40.266 69.3142 40.5469 69.3142 40.8277 69.3142H40.9454L41.0134 69.3097C41.0768 69.3051 41.1447 69.3005 41.2262 69.3005H44.6821L45.3026 69.3142C45.3473 69.3142 45.392 69.3188 45.4367 69.3233L45.4368 69.3233L45.4385 69.3234L45.5109 69.328C45.8053 69.3418 45.9593 69.4382 46.0771 69.6861C46.2447 70.0488 46.2809 70.2416 46.2809 70.3425V70.4435L46.2991 70.5078C46.2991 70.7235 46.3036 70.9531 46.3217 71.1964L46.3126 71.2285L46.4711 75.4058C46.4804 75.6504 46.4901 75.8947 46.4997 76.1388C46.5275 76.8429 46.5551 77.5451 46.5753 78.2473C46.5889 78.7798 46.598 79.3077 46.607 79.8402C46.6161 80.3635 46.6251 80.8822 46.6387 81.4056C46.6795 82.8194 47.7439 83.9349 49.0619 83.9441C50.1217 83.9487 51.1997 83.9533 52.3139 83.9533C53.3683 83.9533 54.4523 83.949 55.5863 83.9445L55.7063 83.9441C56.7888 83.9349 57.7535 83.1453 58.0072 82.0574C58.1431 81.4606 58.2744 80.8593 58.4012 80.2625C58.4422 80.0755 58.4832 79.8874 58.5242 79.6992C58.5647 79.5133 58.6053 79.3273 58.6458 79.1424C58.7949 78.4602 58.9485 77.7825 59.1021 77.1048L59.1033 77.0997L59.1938 76.6912H62.1333C65.4986 76.6912 68.8638 76.6912 72.2382 76.6865C72.3287 77.118 72.4193 77.5496 72.5144 77.9811L72.8451 79.5005C72.8799 79.6598 72.9149 79.819 72.9499 79.9783L72.9504 79.9805L72.9509 79.9828L72.9511 79.9839C73.0933 80.6306 73.2354 81.2775 73.3659 81.9243C73.6014 83.0719 74.616 83.9441 75.7257 83.9487C77.936 83.9578 80.1508 83.9578 82.3656 83.9487C83.602 83.9441 84.698 82.8653 84.7571 81.5937C84.7957 80.7851 84.8383 79.9807 84.881 79.1725V79.1724L84.881 79.1719L84.8811 79.1714L84.8811 79.1709L84.8811 79.1704L84.8812 79.1695L84.8812 79.1681L84.8813 79.1667L84.8882 79.0368L85.0287 76.4478L85.0369 76.3004C85.0793 75.5366 85.122 74.7691 85.1603 74.0057L85.1743 73.7157L85.1868 73.4606L85.1873 73.4503L85.1878 73.44C85.1967 73.2586 85.2056 73.0773 85.2143 72.8948C85.2222 72.7428 85.2294 72.5914 85.2366 72.44L85.2366 72.4399L85.2366 72.4396L85.2366 72.4394L85.2366 72.4391L85.2366 72.4388L85.2366 72.4385L85.2367 72.4381L85.2367 72.4377L85.2367 72.4372C85.2506 72.1463 85.2644 71.8559 85.2824 71.5636L85.3911 69.7228C85.4137 69.312 85.4375 68.9011 85.4614 68.4903L85.4616 68.4863L85.4616 68.4861L85.4616 68.4859C85.4854 68.0765 85.5091 67.6671 85.5316 67.2577C85.5857 66.2249 85.6359 65.1874 85.6855 64.1546L85.7669 62.502L85.7738 62.3735C85.7943 61.9894 85.8148 61.6053 85.8394 61.2213C85.894 60.3078 85.9481 59.3714 85.9621 58.4349C85.9799 56.9338 85.6175 55.5108 84.8792 54.1933C86.179 54.9645 87.0895 56.4243 87.0895 57.9713V58.9306L87.0895 58.9358V58.9359V58.936V58.9361V58.9362V58.9363V58.9364V58.9365V58.9366C87.094 61.5558 87.0984 64.1704 87.085 66.7895C87.085 67.3909 87.1531 68.0749 87.651 68.6579L87.6922 68.8047L87.9593 68.9379C88.4165 69.1628 88.8381 69.2041 89.1866 69.2178H89.2457H89.2546ZM47.8118 75.3553L47.6623 71.3295C47.6669 71.2652 47.6714 71.1964 47.6669 71.1229C47.6442 70.9072 47.6442 70.6823 47.6442 70.4665V70.4665C47.6442 70.4022 47.6397 70.3333 47.6261 70.2645C47.608 69.8146 47.4268 69.3831 47.2909 69.0939C47.0192 68.5201 46.5753 68.1529 45.991 68.0152V67.9326H41.2308C41.1221 67.9326 41.0134 67.9371 40.9047 67.9463H40.8186H40.8184C40.5286 67.9463 40.2388 67.9463 39.949 67.9555H39.8131C39.7248 67.9532 39.6365 67.9498 39.5482 67.9463C39.4599 67.9429 39.3715 67.9394 39.2832 67.9371C39.2424 67.9279 39.2017 67.9234 39.161 67.9188L39.1609 67.9188C39.1473 67.9165 39.1337 67.913 39.1202 67.9096C39.1066 67.9062 39.093 67.9027 39.0794 67.9004L39.0386 67.8866L39.0358 67.8853L39.0324 67.8839L39.0273 67.8821L39.0224 67.8803L39.0191 67.879L39.016 67.8775C38.9254 67.8315 38.8212 67.7994 38.717 67.7764C36.3709 67.299 34.8898 65.9219 34.1923 63.567C34.0745 63.1722 34.0202 62.704 34.0157 62.1348C33.9975 58.3706 33.9975 54.4045 34.0157 50.3373C34.0202 49.635 33.7484 49.1851 33.1415 48.8775C31.434 48.0145 30.2428 46.5823 29.6041 44.6222C29.4819 44.2549 29.3686 43.8602 29.3415 43.4975C29.3369 43.4011 29.346 43.268 29.4094 43.1854C29.4819 43.1073 29.6177 43.0614 29.7853 43.0614C30.3447 43.0568 30.9041 43.0534 31.4634 43.05L31.4641 43.05C32.0232 43.0465 32.5824 43.0431 33.1415 43.0385L35.4198 43.0293L35.4741 42.2397L35.4766 42.2054C35.4848 42.0952 35.4922 41.9949 35.4922 41.8909V41.5282L35.4922 41.5207V41.5206C35.4967 40.9126 35.5012 40.3046 35.4922 39.6966C35.4832 38.6913 36.0674 37.8145 36.9552 37.5207C37.6708 37.2866 38.4091 37.383 38.9843 37.787C39.5459 38.1818 39.8811 38.8152 39.9082 39.5222C39.9263 40.0363 39.9218 40.5688 39.9173 41.0829C39.9173 41.2046 39.9162 41.3262 39.915 41.4479C39.9139 41.5695 39.9127 41.6912 39.9127 41.8128V43.0064H46.5074L46.5527 42.2168L46.5527 42.2167C46.5617 42.0974 46.5708 41.978 46.5889 41.8679C46.5949 41.6782 46.597 41.4864 46.599 41.2953V41.2951V41.2951V41.295V41.2949V41.2948V41.2948V41.2947V41.2946V41.2945C46.6 41.1992 46.601 41.1041 46.6025 41.0095C46.607 40.3944 46.6161 39.816 46.6569 39.233C46.7157 38.4205 47.4585 37.6171 48.3145 37.4427C49.619 37.1765 50.6607 38.0165 50.9189 38.9805C50.9914 39.2513 51.0049 39.5681 51.0095 39.7838C51.0203 40.1584 51.0196 40.5329 51.0189 40.9074V40.9076C51.0187 41.0013 51.0185 41.0949 51.0185 41.1885V41.9046C51.0185 42.0056 51.023 42.1066 51.0321 42.2214L51.0729 42.988L51.8338 43.0293C51.8733 43.0309 51.9122 43.033 51.9505 43.0352L51.9507 43.0352C52.0223 43.0392 52.0921 43.043 52.1599 43.043L53.9897 43.0568L54.035 43.0571L54.0351 43.0571L54.0353 43.0571L54.0355 43.0571L54.0357 43.0571L54.0359 43.0571L54.0361 43.0571L54.0362 43.0571L54.0364 43.0571C54.9178 43.0616 55.8034 43.0662 56.6847 43.0752C56.8749 43.0752 57.0243 43.1119 57.0832 43.1762C57.1421 43.2404 57.1738 43.3874 57.1693 43.5847C57.1511 44.1723 56.9202 44.7461 56.6847 45.2832C55.9509 46.9496 54.8775 48.1293 53.4055 48.8867C53.333 48.9235 53.256 48.9556 53.179 48.9877C52.5766 49.231 52.3275 49.7864 52.5358 50.4016L52.6627 50.7688L53.0975 50.8606C53.179 50.879 53.2696 50.8974 53.3601 50.9111C53.4289 50.9221 53.4977 50.9214 53.5664 50.9206H53.5664C53.5837 50.9205 53.601 50.9203 53.6183 50.9203H53.6682L59.2074 50.9295C63.4831 50.934 67.7632 50.9432 72.0389 50.9524C76.0201 50.9616 79.3627 50.9754 82.7551 51.0075C85.7307 51.0351 88.358 52.9768 89.2864 55.8367C89.5217 56.5482 89.6348 57.3561 89.6399 58.2972C89.6443 60.0186 89.6443 61.74 89.6443 63.4614V66.7482C89.6488 67.3496 89.6215 67.5791 89.3544 67.7673L89.3137 67.7948L89.2972 67.8058L89.273 67.8224C89.2656 67.8248 89.2571 67.826 89.248 67.8272C89.2399 67.8282 89.2314 67.8294 89.2228 67.8315L89.0148 67.8178C88.8966 67.804 88.7923 67.7811 88.6842 67.7398C88.5163 67.5332 88.4572 67.2624 88.4572 66.7895C88.4667 64.1684 88.4667 61.5472 88.4617 58.9261V57.9666C88.4572 55.2124 86.2609 52.6647 83.5659 52.2929C83.4526 52.2791 83.353 52.2882 83.285 52.2974L82.0666 52.3846L82.7506 53.4588C82.8049 53.5552 82.8547 53.6287 82.9136 53.7021C84.0596 55.1344 84.63 56.7181 84.6077 58.4119C84.5938 59.3163 84.5397 60.239 84.485 61.1341C84.4583 61.5648 84.4355 61.9955 84.4127 62.4263L84.4126 62.4265L84.4126 62.4268L84.4126 62.427L84.4126 62.4273L84.4126 62.4275L84.4126 62.4278L84.4126 62.4281L84.4126 62.4283L84.4125 62.4286L84.3311 64.0811L84.331 64.0835C84.2814 65.1156 84.2318 66.1476 84.1772 67.1797C84.1365 67.9968 84.0869 68.8185 84.0367 69.6356L83.928 71.481C83.9104 71.7767 83.8964 72.0705 83.8824 72.3649C83.8751 72.5183 83.8678 72.6718 83.86 72.826L83.8328 73.3801L83.8059 73.9277C83.7652 74.7402 83.7199 75.5527 83.6745 76.3652L83.5341 78.9543L83.5324 78.9864L83.5324 78.9869L83.5324 78.9875L83.5324 78.988L83.5323 78.9885L83.5323 78.9891L83.5323 78.9896L83.5323 78.9901L83.5322 78.9906C83.4876 79.8323 83.443 80.6741 83.4028 81.5203C83.3756 82.0666 82.8819 82.5669 82.3656 82.5669C80.1553 82.5761 77.945 82.5761 75.7347 82.5669C75.2682 82.5669 74.8017 82.1492 74.6975 81.6397C74.5299 80.8271 74.3533 80.01 74.1721 79.1975L73.8415 77.6827C73.7328 77.1915 73.6287 76.7049 73.529 76.2138C73.4112 75.6399 73.0217 75.3094 72.4556 75.3094H72.451C69.0088 75.314 65.5711 75.314 62.1288 75.314H58.7817C58.6661 75.314 58.5786 75.3424 58.5191 75.3618L58.4964 75.3691L58.0616 75.5022L57.7672 76.7967C57.7124 77.0398 57.6571 77.2824 57.6018 77.5248L57.6018 77.5249L57.6018 77.5251L57.6017 77.5252L57.6017 77.5253L57.6017 77.5255L57.6016 77.5256L57.6016 77.5258L57.6016 77.5259C57.5014 77.965 57.4014 78.4036 57.3051 78.8441L57.0606 79.9733L57.0589 79.981C56.9326 80.5706 56.8064 81.1602 56.6711 81.7452C56.5623 82.2181 56.1457 82.5623 55.6837 82.5669C53.3058 82.5807 51.1408 82.5807 49.0528 82.5669C48.4595 82.5623 47.9975 82.0482 47.9794 81.3642C47.9659 80.8527 47.9568 80.3366 47.9478 79.8251L47.9477 79.8172C47.9454 79.6822 47.9434 79.5471 47.9414 79.412L47.9414 79.4117V79.4116V79.4116V79.4115V79.4115V79.4115V79.4114V79.4114C47.9355 79.0096 47.9295 78.6078 47.916 78.206C47.8843 77.2558 47.8481 76.3055 47.8118 75.3553ZM50.244 81.4285C49.4288 81.4285 49.1072 81.1026 49.1026 80.2625L49.0528 71.4672C49.0483 70.3931 49.0392 69.3189 49.0211 68.2493C49.0121 67.7306 49.2204 67.345 49.6643 67.0787C50.937 66.3167 51.8111 65.2104 52.2595 63.8011C52.3818 63.4155 52.4498 62.9565 52.4498 62.4745C52.4634 60.216 52.4634 57.9575 52.4634 55.699V53.4359V53.3028V53.1007C52.4498 52.729 52.5993 52.4994 52.7215 52.3663C52.8438 52.2378 53.0612 52.0725 53.4326 52.0863H54.8276H58.7047H59.2029H77.2566V52.1689C77.5759 52.1689 77.8941 52.1678 78.2122 52.1666C78.5304 52.1654 78.8486 52.1643 79.1679 52.1643H79.177C79.6525 52.1643 80.0421 52.3433 80.3591 52.7152C80.6988 53.1054 81.0702 53.5093 81.4688 53.9225C82.9046 55.3914 83.5613 57.1541 83.43 59.1556C83.3665 60.1241 83.3167 61.0928 83.2715 62.0613L82.9317 68.6487C82.8289 70.6518 82.7216 72.6549 82.6143 74.658L82.6143 74.6583L82.6143 74.6585L82.6143 74.6588L82.6143 74.6591L82.6142 74.6594L82.6142 74.6596L82.6139 74.665L82.6102 74.7356C82.5587 75.6961 82.5032 76.6525 82.4474 77.6125L82.438 77.7745L82.2206 81.4193H75.9249L75.7981 80.9006C75.4875 79.6501 75.2022 78.3696 74.926 77.1295L74.9258 77.129L74.8968 76.9987C74.6885 76.0577 74.4756 75.112 74.2536 74.1618C72.3527 74.1618 70.4523 74.1613 68.552 74.1608C64.7519 74.1598 60.9526 74.1588 57.1511 74.1618C57.0064 74.822 56.8526 75.4822 56.6988 76.1424L56.6982 76.1449L56.3767 77.5358L56.3749 77.5434C56.1581 78.5003 55.9413 79.4571 55.729 80.414C55.5568 81.2035 55.2715 81.4377 54.5061 81.4377L50.244 81.4285ZM50.4116 71.458C50.4071 70.4022 50.398 69.3418 50.3799 68.2493C51.9335 67.3082 53.0023 65.954 53.5413 64.2235C53.7044 63.7093 53.7949 63.108 53.7995 62.4882C53.8146 60.6047 53.814 58.721 53.8133 56.8374L53.8131 55.699V53.468H54.8231H59.1984L75.8933 53.4634V53.546H76.5726C77.4378 53.546 78.3029 53.546 79.1679 53.5415C79.2585 53.5415 79.2676 53.5415 79.3355 53.6195C79.6888 54.0326 80.0828 54.4596 80.4995 54.8865C81.6636 56.08 82.1799 57.4434 82.0712 59.0592C82.0204 59.8388 81.9812 60.6214 81.942 61.4045C81.9323 61.5989 81.9226 61.7934 81.9126 61.9879L81.573 68.5706C81.4751 70.4773 81.3732 72.3799 81.2711 74.286L81.2704 74.2978L81.2514 74.653C81.197 75.6675 81.1382 76.6774 81.0793 77.6873L80.9389 80.033H76.9848C76.7176 78.9175 76.464 77.7837 76.2193 76.682L76.1448 76.3493C75.9204 75.3476 75.6945 74.3393 75.4539 73.3309L75.3361 72.8489L74.7293 72.7938C74.616 72.7801 74.5073 72.7709 74.3986 72.7709H57.0379C56.2181 72.7709 55.9871 73.1289 55.8422 73.7808C55.6927 74.4602 55.5387 75.1396 55.3802 75.8189L55.0586 77.2144C54.9988 77.479 54.9386 77.7432 54.8783 78.0077C54.7242 78.6839 54.5698 79.3617 54.42 80.0514H50.4614L50.4116 71.458ZM40.0894 67.042C38.8167 67.042 37.7795 66.739 36.9325 66.1101C35.5466 65.0911 34.8445 63.6542 34.84 61.841V53.0181V49.1346V48.9097C34.831 48.7214 34.7947 48.57 34.3916 48.4461C32.8426 47.9686 31.6333 46.9083 30.8044 45.297C30.7546 45.2006 30.7138 45.095 30.6776 44.9894C30.622 44.8205 30.6431 44.6762 30.6532 44.6064L30.6549 44.5946L30.7501 44.0208L31.3343 43.9612H42.6031V45.3245C42.6031 45.4737 42.602 45.6229 42.6009 45.7721V45.7721V45.7722V45.7722V45.7722V45.7722C42.5997 45.9214 42.5986 46.0705 42.5986 46.2196L42.5984 46.2361C42.5894 46.8865 42.5809 47.5056 42.6303 48.1201C42.7571 49.7038 43.1874 51.3059 43.9031 52.885C44.5417 54.2943 45.3751 55.5337 46.3761 56.5666C47.762 57.9942 49.2431 58.9261 50.9098 59.4172C51.6164 59.6284 51.6481 60.1976 51.6436 60.3675C51.6345 60.6475 51.6391 60.9229 51.6481 61.203C51.6662 61.8134 51.6798 62.447 51.5348 63.108C51.1725 64.733 50.2168 65.9127 48.6859 66.6151C48.0609 66.9043 47.377 67.0374 46.5255 67.0374H44.1929C42.8341 67.0374 41.4708 67.0374 40.1121 67.042H40.0894ZM34.7856 47.1332C33.8119 46.8302 33.0283 46.2426 32.4123 45.3429H41.2489C41.2534 45.6275 41.2489 45.9167 41.2444 46.2013C41.2353 46.8623 41.2262 47.5463 41.2806 48.2303C41.421 49.9747 41.8875 51.7328 42.6711 53.4588C43.3731 55.015 44.2971 56.3875 45.4068 57.5306C46.8652 59.0362 48.5003 60.0829 50.2802 60.6613C50.2802 60.8516 50.2847 61.0418 50.2891 61.2322L50.2892 61.2323L50.2893 61.2396L50.2895 61.2481V61.2482C50.3031 61.7959 50.3159 62.3164 50.2078 62.805C49.9451 64.0031 49.2611 64.8432 48.1243 65.3665C47.6805 65.5685 47.1732 65.6649 46.5255 65.6649H44.1929C42.8296 65.6649 41.4708 65.6649 40.1075 65.6695C39.1156 65.6695 38.3502 65.4629 37.7296 65.0038C36.7015 64.2464 36.1988 63.2135 36.1988 61.8502V53.0273V49.153C36.1988 49.0566 36.1988 48.9556 36.1942 48.8592C36.1761 48.368 35.9632 47.4958 34.7856 47.1332ZM47.9885 56.0754H47.9839C47.4767 56.0754 46.9694 55.8505 46.5935 55.4603C46.222 55.0746 46.0137 54.5605 46.0273 54.051C46.0544 52.9906 46.9376 52.1046 47.9613 52.1046H47.9839C48.5229 52.1138 49.0755 52.3755 49.4514 52.807C49.7956 53.1972 49.9587 53.6746 49.9179 54.1474C49.8953 55.194 49.0166 56.0754 47.9885 56.0754ZM47.3861 54.0831C47.3951 53.7802 47.6805 53.4772 47.9613 53.4772L47.9631 53.4772C47.9642 53.4772 47.9648 53.4774 47.9652 53.4777C47.9655 53.4781 47.9657 53.4786 47.9657 53.4794L47.9658 53.4818C48.1289 53.4818 48.31 53.5782 48.4368 53.7205C48.5274 53.8215 48.5773 53.9408 48.5682 54.0326L48.5637 54.0969C48.5591 54.3953 48.2693 54.6983 47.9885 54.6983C47.8435 54.6983 47.685 54.6202 47.5672 54.4963C47.4495 54.3769 47.3815 54.2208 47.3861 54.0831ZM38.8348 43.0155H36.5113L36.398 42.382C36.3799 42.2994 36.3573 42.1892 36.3573 42.0607V42.0606C36.3528 41.3032 36.3482 40.5458 36.3573 39.7884C36.3618 39.5038 36.4071 39.2559 36.4977 39.0448C36.7332 38.5077 37.3764 38.1542 37.9289 38.2644C38.5812 38.3929 39.0431 38.9484 39.0522 39.6186C39.0613 40.275 39.0567 40.936 39.0522 41.5925L39.0477 42.1571C39.0477 42.2994 39.0114 42.4096 38.9888 42.4739L38.8348 43.0155ZM47.4359 43.0064H50.1263L50.1353 41.5098C50.1398 40.8488 50.1398 40.1648 50.1217 39.49C50.1127 39.1549 49.9632 38.8428 49.7005 38.6041C49.4242 38.3562 49.0573 38.2231 48.7132 38.2506C48.0156 38.3057 47.4585 38.9025 47.4449 39.6002C47.4341 40.1058 47.4348 40.6114 47.4355 41.1263C47.4357 41.2566 47.4359 41.3874 47.4359 41.519V43.0064Z" fill="black"/>
<path d="M80.9886 54.3997C80.5991 54.0003 80.2186 53.5872 79.8517 53.1649C79.6615 52.9491 79.4667 52.8481 79.1723 52.8527C78.5699 52.8573 77.9721 52.8573 77.3697 52.8573V52.793H60.6748C60.5299 52.7884 60.3804 52.7792 60.2355 52.7792C58.0659 52.7747 55.8964 52.7747 53.7314 52.7747C53.6273 52.7747 53.5276 52.7747 53.4235 52.7747C53.2241 52.7747 53.1291 52.8757 53.1381 53.0776C53.1426 53.197 53.1381 53.3164 53.1381 53.4357C53.1381 56.4516 53.1472 59.463 53.1291 62.4789C53.1245 62.993 53.0566 63.5255 52.9071 64.0121C52.4044 65.5958 51.4306 66.826 50.0129 67.6753C49.7774 67.8176 49.7004 67.9691 49.7049 68.2399C49.7275 69.4701 49.7321 70.705 49.7411 71.9353C49.7593 74.7125 49.7729 77.4851 49.791 80.2624C49.7955 80.7306 49.8091 80.7443 50.2529 80.7443C51.6752 80.7443 53.0973 80.7443 54.515 80.7443C54.977 80.7443 54.9724 80.7352 55.0766 80.2578C55.3031 79.2295 55.5341 78.2058 55.7696 77.1822C56.0142 76.0988 56.2724 75.02 56.5124 73.9367C56.6075 73.5052 56.6256 73.4685 57.0468 73.4685C62.8353 73.4685 68.6192 73.4685 74.4075 73.4685C74.5344 73.4685 74.6612 73.4869 74.8016 73.5006C75.3858 75.9289 75.8705 78.3435 76.4638 80.726C78.194 80.726 79.8608 80.726 81.5864 80.726C81.6362 79.9135 81.6815 79.1469 81.7268 78.3802C81.7993 77.1546 81.8718 75.9244 81.9397 74.6987C82.0484 72.6697 82.1571 70.6407 82.2613 68.6163C82.3564 66.8398 82.447 65.0633 82.5375 63.2868C82.61 61.8959 82.6689 60.505 82.7595 59.1141C82.8773 57.2549 82.2613 55.7034 80.9886 54.3997Z" fill="white"/>
<path d="M62.2375 60.3994C64.7739 60.3994 66.8301 58.3154 66.8301 55.7447C66.8301 53.174 64.7739 51.0899 62.2375 51.0899C59.701 51.0899 57.6448 53.174 57.6448 55.7447C57.6448 58.3154 59.701 60.3994 62.2375 60.3994Z" fill="black"/>
<path d="M75.327 69.5941C77.4607 69.5941 79.1905 67.841 79.1905 65.6784C79.1905 63.5159 77.4607 61.7628 75.327 61.7628C73.1933 61.7628 71.4635 63.5159 71.4635 65.6784C71.4635 67.841 73.1933 69.5941 75.327 69.5941Z" fill="black"/>
<path d="M62.3416 74.9374C64.4658 74.8685 66.5538 75.1623 68.6463 75.4653C68.7007 75.4653 68.7551 75.4653 68.8048 75.4653C68.8502 75.1578 68.8773 74.841 68.8773 74.5197C68.8773 71.086 66.1281 68.2996 62.7402 68.2996C59.3523 68.2996 56.603 71.086 56.603 74.5197C56.603 75.1256 56.6891 75.7086 56.8476 76.264C58.2834 74.7997 60.4755 74.9971 62.3416 74.9374Z" fill="black"/>
<path d="M65.2132 50.7732C65.0728 50.7732 64.9415 50.7548 64.8101 50.7181C64.2802 51.3103 63.9677 52.0218 63.9677 52.7838C63.9677 54.8587 66.2595 56.5434 69.0903 56.5434C71.9165 56.5434 74.2129 54.8587 74.2129 52.7838C74.2129 52.0447 73.923 51.3562 73.4203 50.7732H65.2132Z" fill="black"/>
<path d="M46.7111 54.0783C46.6432 53.2474 47.3905 52.6874 48.0427 52.692C48.8127 52.6966 49.4332 53.3392 49.4196 54.115C49.406 54.8725 48.7719 55.4968 48.0337 55.483C47.2637 55.4692 46.7066 54.877 46.7111 54.0783Z" fill="white"/>
<path d="M38.4905 41.7162C37.8609 41.7162 37.2585 41.7162 36.6335 41.7162C36.6063 41.5876 36.5656 41.4775 36.5656 41.3673C36.561 40.3987 36.5565 40.6833 36.5656 39.7148C36.5701 39.5128 36.5972 39.2924 36.6924 39.1088C36.86 38.7783 37.3672 38.558 37.7069 38.613C38.1825 38.6911 38.5539 39.0445 38.5629 39.499C38.581 40.5824 38.5675 40.4125 38.5629 41.4959C38.5629 41.5463 38.5313 41.6014 38.4905 41.7162Z" fill="white"/>
<path d="M49.705 41.7162C49.0754 41.7162 48.473 41.7162 47.8479 41.7162C47.8208 41.5876 47.78 41.4775 47.78 41.3673C47.7755 40.3987 47.7709 40.6833 47.78 39.7148C47.7846 39.5128 47.8117 39.2924 47.9068 39.1088C48.0744 38.7783 48.5817 38.558 48.9214 38.613C49.397 38.6911 49.7684 39.0445 49.7774 39.499C49.7955 40.5824 49.782 40.4125 49.7774 41.4959C49.7774 41.5463 49.7457 41.6014 49.705 41.7162Z" fill="white"/>
</svg>
