<svg width="120" height="120" viewBox="0 0 120 120" fill="none" xmlns="http://www.w3.org/2000/svg">
<circle cx="60" cy="60" r="60" fill="#EDF0F4"/>
<path opacity="0.25" d="M54.9946 57.158L46.8775 43.1148L38.6246 28.9316C38.1527 28.1312 37.4983 27.4537 36.7147 26.9545H36.6464C35.8096 27.439 35.1245 28.1473 34.6682 28.9998L28.5297 39.6359C27.6431 41.1521 27.6431 43.0286 28.5297 44.5449L35.896 57.2942C36.4417 58.1804 36.6464 59.2031 36.6464 60.2257C36.6405 61.2497 36.3828 62.2565 35.896 63.1573L28.5979 75.7694C27.7114 77.2857 27.7114 79.1622 28.5979 80.6784L34.7365 91.3144C35.2139 92.1327 35.896 92.8824 36.7147 93.3598H36.7847C37.6033 92.8824 38.2172 92.2006 38.6946 91.3827L46.8796 77.2016L54.9946 63.0212C56.0174 61.2006 56.0174 58.9786 54.9946 57.158Z" fill="url(#paint0_linear_1_7561)"/>
<path opacity="0.25" d="M94.1458 56.7489L85.9608 42.6356L77.5714 28.1136C77.1842 27.4552 76.675 26.8767 76.0709 26.4091C75.7297 26.1365 75.3884 26 74.9793 26C70.6821 26 67.7491 26.1365 65.5665 26.1365C65.2256 26.1365 65.0209 26.5456 65.0891 26.8865L67.2034 38.7514C67.2034 38.8879 67.2034 39.024 67.1352 39.1605C66.3166 40.6606 66.3848 42.5012 67.2717 44.0013L74.7746 57.0912C75.3202 58.0456 75.5932 59.0683 75.5932 60.091C75.5932 61.1136 75.3202 62.1363 74.7746 63.0908L67.2034 76.1806C66.3169 77.6807 66.3169 79.5213 67.067 81.0214C67.137 81.1579 67.137 81.294 67.137 81.4305L65.0226 93.2254C64.9526 93.5663 65.1591 93.9754 65.5 93.9754C67.4782 93.9754 64.6814 94.1798 75.1854 94.1798C75.3902 94.1798 75.6628 94.1098 75.8676 94.0433C76.618 93.7707 77.0954 92.8841 77.5045 92.1344L85.8943 77.5442L94.011 63.431C95.306 61.3845 95.306 58.8625 94.1475 56.7489" fill="url(#paint1_linear_1_7561)"/>
<path d="M90.8036 57.158L74.5018 28.9316C73.4788 27.1592 71.5689 26 69.4546 26H36.8511C35.7598 26 34.7368 26.3409 33.7816 26.8862V26.9544C34.5652 27.4537 35.2197 28.1312 35.6915 28.9316L43.8765 43.1148C44.6269 42.7739 45.5135 42.5695 46.3321 42.5695H59.837C61.9514 42.5695 63.862 43.6604 64.8843 45.501L71.6368 57.158C72.6598 58.9307 72.6598 61.1805 71.6368 63.0215L64.8843 74.6802C63.8613 76.4529 61.8831 77.6117 59.837 77.6117H46.4C45.5518 77.609 44.7141 77.423 43.9444 77.0664L35.7598 91.2476C35.2879 92.0479 34.6335 92.7254 33.8499 93.2247V93.2947C34.7364 93.84 35.828 94.1809 36.9193 94.1809H69.5893C71.7036 94.1809 73.6143 93.0899 74.6366 91.2493L90.939 63.0211C91.8949 61.1805 91.8949 58.9986 90.8036 57.158Z" fill="url(#paint2_linear_1_7561)"/>
<path d="M51.9933 57.158L43.8766 43.1148L35.6916 28.9316C35.2197 28.1312 34.5653 27.4537 33.7817 26.9545H33.7148C32.878 27.439 32.1929 28.1473 31.7366 28.9998L25.6649 39.5676C24.7784 41.0839 24.7784 42.9604 25.6649 44.4766L33.0313 57.2259C33.5769 58.1121 33.7817 59.1348 33.7817 60.1575C33.7758 61.1814 33.5181 62.1882 33.0313 63.0891L25.6649 75.7694C24.7784 77.2857 24.7784 79.1622 25.6649 80.6784L31.8038 91.3155C32.2812 92.1338 32.9634 92.8835 33.782 93.3609H33.852C34.6707 92.8835 35.2845 92.2017 35.7619 91.3837L43.9452 77.2044L52.0616 63.1594C53.0846 61.1805 53.0846 58.9987 51.9933 57.158Z" fill="url(#paint3_linear_1_7561)"/>
<defs>
<linearGradient id="paint0_linear_1_7561" x1="27.9266" y1="93.2704" x2="55.7485" y2="93.2704" gradientUnits="userSpaceOnUse">
<stop stop-color="#00BA96"/>
<stop offset="0.52" stop-color="#00D9AF"/>
<stop offset="1" stop-color="#00D9AF"/>
</linearGradient>
<linearGradient id="paint1_linear_1_7561" x1="65.0566" y1="94.1804" x2="95.048" y2="94.1804" gradientUnits="userSpaceOnUse">
<stop stop-color="#008D85"/>
<stop offset="1" stop-color="#00FFE0"/>
</linearGradient>
<linearGradient id="paint2_linear_1_7561" x1="33.7816" y1="94.1801" x2="91.6401" y2="94.1801" gradientUnits="userSpaceOnUse">
<stop stop-color="#008D94"/>
<stop offset="1" stop-color="#00FFE0"/>
</linearGradient>
<linearGradient id="paint3_linear_1_7561" x1="24.9999" y1="93.361" x2="52.8207" y2="93.361" gradientUnits="userSpaceOnUse">
<stop stop-color="#00BA96"/>
<stop offset="0.52" stop-color="#00D9AF"/>
<stop offset="1" stop-color="#00FAAF"/>
</linearGradient>
</defs>
</svg>
