<svg width="120" height="120" viewBox="0 0 120 120" fill="none" xmlns="http://www.w3.org/2000/svg">
<circle cx="60" cy="60" r="60" fill="#988430"/>
<circle cx="60" cy="60" r="58.0781" fill="#7A6A2A"/>
<circle cx="59.9999" cy="59.9999" r="56.8544" fill="#BA9F33"/>
<path fill-rule="evenodd" clip-rule="evenodd" d="M26.2329 53.5923C25.8931 53.2819 25.534 52.9709 25.2038 52.6605C24.8736 52.3501 24.5344 52.0391 24.1945 51.7287L23.1846 50.7687C23.0195 50.6035 22.8448 50.4583 22.6796 50.2925C22.5145 50.1472 22.3206 49.9821 22.1555 49.8362C20.8153 48.5645 19.4675 47.2928 18.1459 46.0205C19.5148 47.273 20.855 48.5165 22.224 49.7875L22.6995 50.2637C22.8646 50.4282 23.0393 50.5741 23.2044 50.7392L24.2137 51.6711C24.5536 51.9815 24.8838 52.2925 25.2236 52.6311C25.5635 52.9696 25.8937 53.2813 26.2336 53.5911L26.2329 53.5923ZM8.44668 53.4003C8.44668 53.4003 13.3203 53.9047 15.6992 54.2445C17.9027 54.5555 24.7961 55.6135 24.7961 55.6135L8.44668 53.4003ZM8.44668 53.4003C9.81564 53.5168 11.1846 53.6621 12.5536 53.808C13.2524 53.8759 13.9225 53.9533 14.5926 54.0211L15.6211 54.1383C15.9609 54.1863 16.2912 54.2349 16.631 54.2835L20.7091 54.9338L22.7475 55.2736C23.4176 55.3901 24.0876 55.5168 24.7865 55.6333C24.1164 55.5655 23.4176 55.4682 22.7475 55.3709L20.7091 55.0797L16.631 54.4781C16.2912 54.4295 15.9609 54.361 15.6211 54.313L14.592 54.1946C13.9219 54.1267 13.223 54.0295 12.5529 53.9514C11.184 53.7869 9.815 53.6115 8.44604 53.3984L8.44668 53.4003ZM24.311 56.8832C24.311 56.8832 19.1072 58.2042 17.3497 58.7091C15.6217 59.1847 10.3884 60.777 10.3884 60.777L24.3104 56.8839L24.311 56.8832Z" fill="#CFB66C"/>
<path fill-rule="evenodd" clip-rule="evenodd" d="M24.3104 56.8833C23.1552 57.2231 22.0064 57.5534 20.8345 57.8644L17.3587 58.7963C16.2035 59.1361 15.0547 59.4663 13.9027 59.8062L12.1747 60.2817C11.6019 60.4468 11.0195 60.5921 10.4275 60.7579C10.9997 60.5659 11.5827 60.3694 12.1555 60.2043L13.8835 59.6513C15.0387 59.2916 16.1875 58.9518 17.3395 58.5927C18.5139 58.3015 19.6697 57.9905 20.8441 57.7089C21.9603 57.4273 23.1353 57.1463 24.3104 56.8839V56.8833ZM11.1168 63.9809C11.6889 63.7671 18.2912 60.69 19.8252 59.9713C20.5933 59.6116 22.8256 58.8193 22.8256 58.8193L11.1168 63.9809Z" fill="#CFB66C"/>
<path fill-rule="evenodd" clip-rule="evenodd" d="M11.1169 63.9808C11.6212 63.7888 12.0973 63.5539 12.5825 63.3306L14.0193 62.6605L16.9031 61.2723C17.8631 60.816 18.7962 60.3123 19.7863 59.8835C20.2913 59.6704 20.7962 59.4957 21.3005 59.3306L22.0685 59.088C22.3303 59.0202 22.5735 58.9421 22.8365 58.8743C21.8765 59.3306 20.866 59.7191 19.9047 60.1651C18.9447 60.6413 17.9629 61.0298 16.9722 61.4567L14.0404 62.7475C13.0561 63.1463 12.0961 63.5731 11.1162 63.9808H11.1169ZM11.7569 66.6688C11.7569 66.6688 17.737 63.1642 19.7953 62.0378C20.873 61.4362 24.3585 59.7075 24.3585 59.7075L11.7569 66.6688Z" fill="#CFB66C"/>
<path fill-rule="evenodd" clip-rule="evenodd" d="M11.7573 66.6702C12.7666 66.0487 13.7957 65.4177 14.8248 64.7771L16.3608 63.8446C16.885 63.5342 17.39 63.243 17.9244 62.9326C18.4485 62.6215 18.9535 62.3111 19.4872 62.0199C19.7413 61.863 20.0076 61.7267 20.2834 61.6123L21.0988 61.2046C22.1765 60.6804 23.2543 60.146 24.3903 59.6897C23.3612 60.3406 22.3026 60.8942 21.2447 61.4663C20.7205 61.7575 20.1861 62.0199 19.662 62.3111C19.1378 62.6023 18.6328 62.9134 18.0984 63.195C17.5743 63.5054 17.0693 63.7966 16.5356 64.0782L14.9528 64.9422L11.7586 66.6702H11.7573ZM24.3103 60.4756C24.3103 60.4756 20.5919 63.33 19.388 64.2427C18.1842 65.1553 14.6405 67.7185 14.6405 67.7185L24.3103 60.4756Z" fill="#CFB66C"/>
<path fill-rule="evenodd" clip-rule="evenodd" d="M45.6505 83.4951L43.7478 79.8932L44.8544 75.3882L52.7475 72.3399L49.3881 65.4471L51.0483 58.4858L54.1651 52.2522L63.7964 50.738L70.8736 43.9905L86.1555 45.1457L89.1552 61.4855L83.3785 82.0583L80.0876 92.7092L66.7475 93.2142L60.5536 88.923L53.3011 85.8932L45.6505 83.4951Z" fill="#E2CC85"/>
<path fill-rule="evenodd" clip-rule="evenodd" d="M69.049 83.3784C69.049 83.3784 67.2039 84.2232 64.057 84.0287C63.1463 82.8056 56.7681 82.2328 56.7681 82.2328C56.7681 82.2328 55.9719 81.9903 54.5639 82.5727C53.147 83.1487 51.8068 83.0776 50.5543 83.388C49.3018 83.6984 48.0583 82.0677 47.0983 81.7279C46.1383 81.3688 44.8654 80.5048 44.8654 80.5048L42.1774 80.2424L36.7796 77.9608L28.2042 69.4175L25.874 73.0655L25.1553 77.58L27.7479 82.9298L34.7284 89.2888L48.3399 92.7448L56.4078 90.3679L66.5146 86.0959L69.049 83.3778V83.3784Z" fill="#F1D789"/>
<path fill-rule="evenodd" clip-rule="evenodd" d="M20.6893 53.1847L22.4173 47.9521L24.4762 44.5729L31.1066 44.0193L29.1162 49.8254L23.5732 59.6897L25.874 68.4954L21.7965 70.5338L20.5434 68.6119L19.5341 64.2042L19.4663 59.2526L20.6893 53.1847Z" fill="#F4ECB4"/>
<path fill-rule="evenodd" clip-rule="evenodd" d="M28.1261 83.0195L26.8544 81.2428C26.8544 81.2428 26.5146 80.398 26.7092 79.6601C26.9012 78.9126 26.8736 78.8639 26.777 78.5823C26.6804 78.3008 25.8644 77.3299 25.913 76.4947C25.961 75.6499 25.8452 75.3683 26.466 74.6988C27.1162 74.0486 26.9223 72.9222 26.9223 72.9222L27.7671 73.4464L27.9591 73.1551C27.9591 73.1551 28.2695 73.3977 28.2695 73.7766C28.3373 73.2524 28.0557 70.8249 28.6964 70.2719C29.337 69.719 30.473 72.864 30.473 72.864L29.7741 68.3007L27.9776 63.6217L24.7834 59.3497L24.5914 54.6406V54.2329C24.5914 54.2329 23.1252 56.4857 22.7175 58.2649C22.4263 59.488 23.1252 60.9734 22.9799 62.7308C22.8628 64.4787 22.7175 64.3424 23.1444 65.0348C23.5712 65.7273 24.6106 67.1513 24.2029 68.1804C23.8439 69.0643 22.6202 68.4428 22.6202 68.4428C22.6202 68.4428 22.3776 69.1609 22.0474 69.4233C21.9309 68.9964 21.8048 68.7244 21.5719 68.4633C21.552 68.6284 21.504 68.8518 21.504 68.8518C21.504 68.8518 21.2903 68.1817 21.0765 67.3369C20.786 66.2112 20.4749 64.7257 20.1933 63.9296C20.0768 64.3859 19.7856 65.774 19.7856 65.774L19.9508 67.9103L20.7469 70.8422L21.5149 72.7622L22.2624 75.1116L22.912 76.6899L23.4362 77.8937L23.8925 80.6028L26.096 82.9324L27.2711 83.4572L28.1248 83.0201L28.1261 83.0195Z" fill="#F3E19D"/>
<path fill-rule="evenodd" clip-rule="evenodd" d="M21.8445 48.9127C21.8445 48.9127 20.2618 51.6007 19.8061 54.3104C19.3505 57.0202 18.9421 59.8836 19.2301 63.5725C19.5213 67.2916 20.0749 69.5725 20.5217 71.2039C21.2897 73.913 23.2788 77.68 23.2788 77.68L23.3466 77.5341C23.0123 76.9004 22.7454 76.2332 22.5505 75.5437C22.2881 74.5146 22.1908 73.2916 21.9482 72.738C21.7345 72.185 21.3754 71.7088 21.2007 71.0292C21.0356 70.3789 21.0087 69.3498 20.5018 68.5831C20.2881 68.272 20.0257 67.4567 19.9482 66.6413C19.8509 65.4176 19.9969 64.0487 19.8804 62.9229C19.6666 61.049 19.5213 59.7773 19.7153 58.7962C19.9092 57.8151 20.9197 55.0298 21.5412 52.816C21.9489 51.3984 21.7057 50.2042 22.4532 48.9709C23.2007 47.7479 23.6577 46.6701 23.8221 45.9226C24.0141 45.2429 21.842 48.9127 21.842 48.9127H21.8445Z" fill="#F2E8B0"/>
<path fill-rule="evenodd" clip-rule="evenodd" d="M29.3498 47.835C29.3498 47.835 28.5345 48.0782 28.146 48.505C27.7575 48.9127 27.5924 49.2526 27.0682 49.9418C26.5441 50.6311 26.5146 51.1943 26.0871 52.0583C25.6602 52.9031 24.7181 54.1748 24.6017 54.6311C24.4852 55.0874 24.2913 57.2231 24.0487 58.233C23.8349 59.243 24.2913 60.4858 24.2913 60.4858L24.8442 60.3687C24.8442 60.3687 24.8442 61.0874 25.3978 61.5732C25.9508 62.0487 26.0481 59.961 26.0481 59.961L28.1159 52.9806L31.2321 50.8641L31.5719 49.1553L29.3485 47.835H29.3498Z" fill="#F5EEC0"/>
<path fill-rule="evenodd" clip-rule="evenodd" d="M30.864 51.0003C30.864 51.0003 29.3978 51.0969 28.6797 51.6217C28.3885 51.8349 28.272 52.0096 27.9616 52.272C27.3888 52.7475 26.8058 53.1846 26.5248 53.808C26.2138 54.4288 25.8739 55.3709 25.641 57.1475C25.5437 57.895 25.5437 58.5843 25.4758 59.1865C25.3786 60.0019 25.2333 60.6521 25.3107 61.1065C25.408 62.0384 26.3693 62.5241 26.4627 63.5821L28.4531 62.5728L30.327 55.184L34.3078 52.688L32.055 50.1638L30.8614 50.9958L30.864 51.0003Z" fill="#E6DB9D"/>
<path fill-rule="evenodd" clip-rule="evenodd" d="M20.3634 100.754C20.3718 100.681 20.3801 100.609 20.3884 100.534C20.679 98.0376 20.7282 96.1458 20.9414 94.9612C21.2518 93.2818 21.4655 92.6572 21.4169 92.0287C21.349 91.0194 21.2716 90.2815 21.3689 89.5045C21.5142 88.4754 22.5241 87.2524 22.4953 86.4076C22.4754 85.7375 22.1356 85.301 21.8444 84.8933C21.5532 84.4856 21.3202 84.1458 21.3202 84.1458C21.3202 84.1458 23.3106 82.7768 23.2914 77.262C23.3321 77.2734 23.3712 77.2898 23.4079 77.3106L24.3884 80.0965L25.0585 80.9119L27.6313 85.708L30.942 88.9221L35.8348 92.213L38.903 95.5519L39.2134 104.455L35.2038 109.659L34.5471 110.848C29.3303 108.229 24.5465 104.825 20.3628 100.754L20.3634 100.754Z" fill="#E5CB7A"/>
<path fill-rule="evenodd" clip-rule="evenodd" d="M32.6118 109.272C32.6118 109.272 32.6797 108.165 33.5923 107.446C33.7382 107.689 33.8349 107.923 33.8061 108.097C33.9712 107.806 35.1264 105.942 37.7382 105.456C40.3501 104.981 40.9811 103.078 40.9811 103.078L46.5241 98.0391L52.864 92.2042L60.5728 89.4951L64.1753 88.6112C64.1753 88.6112 64.2432 88.8736 64.1075 89.456C64.7769 89.408 66.2624 89.0682 67.8061 88.5242C68.4275 88.2816 69.0105 88.1844 69.3209 88.505C69.7773 88.9319 69.8451 89.9418 69.8739 90.5434C70.6214 90.3783 71.4854 89.6602 72.1779 89.728C73.2851 89.8445 74.2656 91.1456 75.392 91.1456C76.8774 91.1456 77.5469 90.233 78.5862 89.5143C79.2077 89.0874 80.1005 88.5543 80.6054 88.194C81.8093 87.3101 94.5472 83.417 94.5472 83.417L99.0131 83.7082L99.7318 88.5044L99.3478 101.042C99.3005 101.087 99.2531 101.135 99.2051 101.18L78.8992 111.786L50.752 116.101C44.4469 115.07 38.3624 112.978 32.7577 109.911L32.6137 109.271L32.6118 109.272Z" fill="#D8C173"/>
<path fill-rule="evenodd" clip-rule="evenodd" d="M22.0703 102.349C22.4703 101.513 22.83 100.813 22.8934 100.563C22.9433 101.068 23.0348 102.174 23.2191 103.35C22.8321 103.021 22.4492 102.688 22.0703 102.349V102.349Z" fill="#F1D789"/>
<path fill-rule="evenodd" clip-rule="evenodd" d="M42.6317 114.148L46.272 113.136L46.5824 113.233C46.5824 113.233 46.7475 113.331 46.7475 113.66C47.2038 113.398 47.5923 113.446 47.8739 113.272C48.0192 113.583 48.1645 114.612 48.8058 114.738C49.4752 114.884 50.1939 114.447 50.9222 113.894C51.6403 113.321 52.4582 112.602 53.0771 112.311C53.3042 112.729 53.5053 113.16 53.6794 113.602C54.4947 112.952 55.9123 110.311 57.9315 110.359C58.5151 108.98 59.4901 107.802 60.736 106.971C62.6099 105.699 63.7843 105.602 65.2506 105.718C65.8329 104.962 66.5506 104.32 67.367 103.825C67.6096 103.923 68.2797 104.33 69.1149 103.942C69.9597 103.554 70.9107 102.049 72.1632 101.855C72.8381 101.762 73.5244 101.906 74.105 102.262C74.105 102.262 77.753 98.6406 80.2701 97.4368C80.1728 97.1456 79.9789 96.0486 82.9299 93.6211C83.095 93.767 82.9786 94.1747 83.095 94.1971C83.143 94.1971 83.863 93.8867 84.7744 93.1872C85.9008 92.343 87.2499 91.4592 88.0653 91.2166C89.6013 90.7603 91.2307 91.6921 91.2307 91.6921C91.3693 91.595 91.5237 91.5226 91.687 91.4784C92.0749 91.4105 92.3565 91.3619 92.5702 91.2864C92.551 91.7913 92.8326 92.6553 92.5702 93.4029C92.8742 93.5738 93.1962 93.7105 93.5302 93.8105C93.3658 94.1696 93.0061 95.0822 92.4045 95.5193C92.9088 95.7619 92.9766 96.0435 93.6954 96.2873C93.4042 96.695 92.9274 97.3945 92.7149 97.8233C92.5011 98.2797 91.7338 100.173 91.3939 100.891C91.0349 101.61 90.5498 102.93 90.3162 103.195C90.0826 103.46 89.2384 104.583 88.5882 105.136C89.1642 104.922 91.5206 104.204 92.5203 103.932C92.2227 104.369 90.7142 106.607 89.264 108.759C75.2171 117.178 58.2262 119.145 42.6272 114.158L42.6317 114.148Z" fill="#E0CD81"/>
<path fill-rule="evenodd" clip-rule="evenodd" d="M31.1041 50.738C31.1041 50.738 30.2599 50.738 30.0948 50.8545C29.9297 50.971 30.9396 51.2142 31.25 51.3306C31.5604 51.4471 32.2305 51.9809 32.4052 52.4084C32.5703 52.8161 38.473 55.1943 38.473 55.1943L42.6477 54.9806L44.0871 52.9921L41.3492 50.594L43.2692 44.9338L40.7258 45.3415L34.6093 48.9895L31.5412 50.1646L31.1041 50.738Z" fill="#DFC57C"/>
<path fill-rule="evenodd" clip-rule="evenodd" d="M40.2721 52.6118C40.3949 52.8106 40.6144 52.9289 40.8481 52.9222C41.7121 52.9222 42.5076 53.1359 42.8378 53.5724C43.3914 54.2719 44.9255 56.5049 44.9255 56.5049L48.5953 57.8252L48.8321 53.5039L44.8225 50.718L40.2593 52.3974V52.6111H40.2695L40.2721 52.6118Z" fill="#E5CC7C"/>
<path fill-rule="evenodd" clip-rule="evenodd" d="M39.5521 54.2137C39.5521 54.2137 40.2215 54.2624 41.0663 53.9513C41.9111 53.6403 43.2993 52.9709 43.9015 53.2333C44.7457 53.5923 44.5709 54.7187 45.4842 55.7293C46.0372 56.3507 47.0471 56.3315 47.6199 57.0016C48.1927 57.6717 50.1633 57.3606 50.1633 57.3606L50.9108 61.3926L47.9111 65.2377L46.93 70.0141H42.8737L39.1681 68.544L37.3428 64.128L38.2554 59.6621L39.5521 54.2137Z" fill="#D2C281"/>
<path fill-rule="evenodd" clip-rule="evenodd" d="M47.3985 54.4076C47.4991 54.4386 47.6036 54.455 47.7089 54.4562C47.5924 54.5535 47.3492 54.7666 47.4465 55.3202C47.5438 55.8738 47.8542 56.5727 47.5924 56.9996C47.8014 57.2281 47.9572 57.5 48.0487 57.7958C48.2138 58.2719 48.2625 58.7084 49.3396 58.7769C49.1841 58.8726 49.0408 58.9867 48.9127 59.1167C48.9127 59.1167 49.6602 59.767 50.0391 60.3686C50.427 60.3519 51.4561 60.0319 51.4561 60.0319L51.6698 60.1778L52.1262 59.9858C52.1262 59.9858 51.6993 59.8207 52.0097 58.782C52.3009 57.8694 52.5633 57.918 52.5857 57.8502C52.6081 57.7823 52.7994 56.821 52.7994 56.4326C52.9447 55.9282 53.0612 54.3942 53.0612 54.3942L52.7508 51.006L51.0036 49.9474L49.5828 48.5759L48.2426 51.1001L47.3601 51.9801L47.2922 54.1644L47.3985 54.4076Z" fill="#E2C270"/>
<path fill-rule="evenodd" clip-rule="evenodd" d="M51.6018 51.5731C51.6018 51.5731 51.9122 52.4563 52.0293 53.1359C52.0706 53.0038 52.0934 52.8666 52.0972 52.7283C52.0972 52.7283 52.3397 54.0684 52.3877 54.622C52.485 54.6022 52.5797 54.5734 52.6015 54.67C52.6232 54.7667 52.8447 55.8451 52.7935 56.4467C53.1978 55.7797 53.7572 55.2202 54.4242 54.8159C54.8127 54.5727 55.269 54.311 55.7452 54.2911C56.4927 54.2719 57.036 54.7673 57.9295 54.7673C60.0844 54.7673 62.0364 53.1846 63.4732 52.6995C64.5311 52.3398 65.4437 52.078 66.0844 51.495C66.3954 51.2332 66.949 50.6508 67.4533 49.7862C68.1234 48.6342 68.8223 47.6313 69.5218 47.5052C69.2053 47.5634 68.8833 47.5861 68.5618 47.5731C68.5618 47.5731 68.7756 47.3593 69.1378 47.0681C69.5 46.7769 69.934 46.4179 70.5548 46.4179C71.662 46.4179 72.2149 46.5823 72.8364 46.5823C73.4578 46.5631 73.8168 46.4179 73.8168 46.4179C73.8168 46.4179 74.4677 46.8742 75.9333 46.8742C77.3996 46.8934 78.38 47.0195 79.1474 47.0879C79.9148 47.1564 82.4869 46.8742 83.2248 46.8959C83.7059 46.9145 84.1783 47.0301 84.6136 47.2358L82.2348 40.3238L73.6895 32.855L68.6021 36.4569L60.7762 44.2822L53.2037 47.0879L51.621 48.8646V51.5731H51.6018Z" fill="#CCB360"/>
<path fill-rule="evenodd" clip-rule="evenodd" d="M68.5925 47.6114C68.5925 47.6114 68.8063 47.3983 69.1647 47.1071C69.5231 46.8159 69.9615 46.4562 70.5823 46.4562C71.6889 46.4562 72.2425 46.6213 72.8639 46.6213C73.4853 46.6021 73.8444 46.4562 73.8444 46.4562C73.8444 46.4562 74.4959 46.9119 75.9609 46.9119C77.4271 46.9311 78.4076 47.0572 79.1749 47.125C79.9423 47.1929 82.5145 46.9119 83.2524 46.933C83.7333 46.9511 84.2056 47.0667 84.6405 47.2729L83.5628 44.1561L82.3109 41.7778L78.7378 37.8649C78.7378 37.8649 74.4498 35.3407 74.4172 35.3215C74.398 35.3023 72.9317 34.9138 72.9317 34.9138L69.0482 37.2633L65.5244 46.3801L65.4565 48.3001L67.7375 49.3778C68.3103 48.4178 68.942 47.6498 69.534 47.5525C68.9996 47.6108 68.5919 47.6108 68.5919 47.6108L68.5925 47.6114Z" fill="#D5B457"/>
<path fill-rule="evenodd" clip-rule="evenodd" d="M68.5441 48.2624C68.2042 48.2816 67.9233 48.2137 67.8452 47.9712C67.554 47.1558 67.321 47.0393 67.0772 47.0393C66.8334 47.0393 66.5044 47.5635 66.3092 47.6115C66.114 47.6595 65.8823 47.0099 65.8823 47.0099L65.6686 46.9126C65.6686 46.9126 64.4161 47.728 63.5329 48.6892C62.6497 49.6505 61.2026 51.2819 60.5524 51.5724C59.9022 51.863 57.6686 51.9609 56.9044 52.126C56.1402 52.2912 55.2929 52.8448 55.1764 52.9708C55.0599 53.0969 55.5169 53.2326 55.5847 53.3587C55.6526 53.4752 54.8366 53.4265 54.7687 53.5507C54.7207 53.648 54.9607 54.2009 55.0798 54.4825C55.2881 54.3789 55.5166 54.3226 55.7492 54.3174C56.4967 54.2982 57.0407 54.7936 57.9335 54.7936C60.089 54.7936 62.0404 53.2108 63.4772 52.7251C64.5358 52.366 65.4484 52.1036 66.089 51.5212C66.3994 51.2595 66.953 50.6764 67.458 49.8124C67.8266 49.2204 68.1863 48.6668 68.546 48.2592L68.5441 48.2624Z" fill="#D2B257"/>
<path fill-rule="evenodd" clip-rule="evenodd" d="M37.6319 96.311C37.6319 96.311 37.4399 95.5923 35.6607 93.7382C35.1557 93.214 34.8453 92.7782 34.5055 92.4665C33.6607 91.6697 33.1653 91.4566 32.5637 91.0003C31.2434 90.0198 29.8066 90.0198 28.7001 88.8159C27.5935 87.6121 26.3039 85.3119 25.4079 82.9612C24.5247 80.6118 24.2815 79.8643 24.2815 79.7964C24.2815 79.7286 24.5247 79.2723 24.8351 79.3401C25.1455 79.4079 25.1455 80.0095 25.2236 80.1555C25.3782 80.3936 25.5536 80.6176 25.7477 80.8249C26.2041 81.3497 26.8543 81.9769 27.1845 82.9126C27.1167 82.1164 26.8447 81.2332 26.8447 81.2332C26.8447 81.2332 28.5535 82.311 30.0095 83.4367C31.4757 84.5631 32.0773 84.9516 32.5055 85.6697C32.9337 86.3878 33.9423 88.2815 34.4255 88.8351C34.9087 89.3887 41.5295 91.4758 41.5295 91.4758L44.6789 93.8239L46.2425 97.2511L45.0188 99.1711L42.6693 99.6761L38.8537 97.9673L37.6319 96.3103V96.311Z" fill="#D2B159"/>
<path fill-rule="evenodd" clip-rule="evenodd" d="M29.1553 84.505C29.1553 84.505 29.9514 85.7767 31.8932 86.9805C33.641 88.0391 36.4078 89.0004 38.8743 89.5732C40.2913 89.913 41.7089 90.1748 42.9806 90.1946C46.4078 90.2426 48.7668 89.2628 51.6897 88.9421C53.2724 88.777 55.2142 88.6509 57.2334 88.1741C59.8254 87.5527 61.3594 86.8532 63.4471 85.8701C64.9614 85.1712 66.3502 84.6471 67.4759 83.977C69.0586 83.0452 70.2138 82.0064 71.554 81.696C71.3889 82.1524 71.2142 82.9677 69.8938 83.8125C70.5927 83.7927 71.554 83.7447 71.554 83.7447C71.554 83.7447 70.6222 84.2976 68.9812 85.5405C67.9713 86.3085 66.6318 87.6084 65.2628 88.4724C64.379 89.026 63.4177 89.4324 62.7866 89.7639C61.2506 90.6087 60.6311 91.0356 59.6218 92.0679C59.9809 92.0487 60.0103 92.0679 60.0103 92.0679C60.0103 92.0679 58.738 92.233 57.826 92.7181C57.634 92.7181 57.3012 92.6503 56.7188 92.8154C56.2625 92.9607 55.6602 93.2916 55.0394 93.4656C54.1556 93.728 53.865 93.6116 53.865 93.6116L54.0103 93.9028C54.0103 93.9028 52.8583 93.8829 52.4743 93.922C52.5422 93.9412 52.523 93.9706 52.523 93.9706C52.4555 93.9819 52.3905 94.0049 52.331 94.0384C52.1462 94.1582 51.9429 94.2466 51.7294 94.3002C51.6129 94.3194 51.5156 94.3194 51.3697 94.3488C51.4183 94.4653 51.7972 95.1168 51.9719 95.5008C51.8266 95.5981 49.6417 97.2487 49.6417 97.2487C49.7094 97.3553 49.7648 97.4693 49.8068 97.5885C49.8746 97.8016 49.9041 98.1127 49.9719 98.258C50.1364 98.5492 50.2337 98.5978 50.2337 98.5978C50.2337 98.5978 49.9719 98.6464 49.515 98.7629C49.1271 98.8602 48.651 99.0247 47.979 99.122C47.7728 99.1488 47.5654 99.165 47.3575 99.1706C47.4548 99.3844 47.8817 100.2 47.0951 101.141C46.3086 102.083 46.066 102.22 45.8234 102.821C45.7013 102.729 45.5713 102.647 45.435 102.578C45.1732 102.461 44.8135 102.287 44.6874 102.054C44.6139 102.365 44.5166 102.67 44.3962 102.966C44.1537 103.617 43.7946 104.258 43.7268 104.743C43.4644 104.452 42.9793 103.879 42.3092 103.996C41.6391 104.112 41.1054 105.025 40.9889 105.287C40.9889 105.122 40.8724 104.996 40.8436 105.19C40.8238 105.404 40.4551 107.636 38.3969 109.442C38.3777 108.986 38.3777 107.976 38.329 107.646C38.137 107.838 37.9022 108.122 36.5038 108.724C35.1348 109.325 35.3518 109.928 35.3518 109.928C35.3518 109.928 35.2353 108.968 35.9732 107.957C36.7207 106.947 37.177 106.471 37.177 106.394C37.165 106.315 37.1313 106.241 37.0798 106.18C36.9825 106.083 36.7886 105.966 36.7886 105.889C36.905 105.841 38.0602 105.287 37.9924 104.141C37.9246 103.112 37.4881 102.578 37.177 102.2C37.129 102.151 37.634 101.792 37.5655 101.676C37.5169 101.608 36.8961 101.151 36.818 100.908C36.8363 100.762 36.8689 100.619 36.9153 100.481C36.9831 100.267 37.0318 100.121 37.0126 99.9757C36.9639 99.7332 36.7015 99.0631 36.6241 98.9952C36.6919 99.0144 37.177 98.9952 37.177 98.9952C37.177 98.9952 36.7892 98.3738 36.7207 98.0826C36.6522 97.7914 36.507 97.024 36.4295 96.8788C36.5946 96.898 37.0023 96.9268 37.0023 96.8788C37.0222 96.7328 36.6433 96.4903 36.8103 96.3028C36.9268 96.322 37.1502 96.4192 37.3633 96.6912C37.2468 96.3802 37.0529 95.7786 36.6446 95.536C36.8366 95.4682 37.4894 95.2928 38.0622 95.6327C38.635 95.9725 38.8302 96.448 38.8302 96.448C38.8302 96.448 39.17 96.7104 39.6948 97.0989C40.2964 97.5744 41.0631 98.2509 42.2868 98.7296C42.5492 98.8756 43.2186 98.8756 43.7044 98.7783C43.9159 98.7279 44.1187 98.6461 44.306 98.5357C44.3736 98.4959 44.4453 98.4633 44.5198 98.4384C44.4154 98.229 44.2954 98.0276 44.1607 97.8362C44.3258 97.8362 44.5198 97.856 44.5198 97.856C44.5198 97.856 44.6362 97.5936 44.1121 97.088C44.2286 96.9716 44.3745 96.896 44.3745 96.6996C44.2094 96.6804 43.9182 96.4378 43.8503 96.3405C43.947 96.2727 44.0929 96.0493 44.258 95.9815C44.1121 95.865 43.753 95.3792 43.5879 95.3312C43.7457 95.2727 43.8983 95.2012 44.0442 95.1175C44.0442 95.1175 43.2289 94.9037 42.9665 94.729C42.7041 94.537 42.3162 94.2048 42.0833 94.1076C41.8401 94.0103 41.4132 93.9623 41.2385 93.7677C41.403 93.8164 41.6654 93.7677 41.8599 93.7677C42.0052 93.7677 42.0737 93.7869 42.1217 93.7869C42.1025 93.7191 42.1025 93.5732 42.4814 93.5252C42.6636 93.4977 42.8404 93.442 43.0055 93.36C43.0055 93.36 42.6458 93.3408 42.2375 92.9524C41.8292 92.5639 41.49 92.2535 41.257 92.2048C41.0145 92.1562 40.5582 92.37 40.2766 92.3501C39.8881 92.3021 39.723 92.1076 39.723 92.1076C39.723 92.1076 38.4321 92.224 35.5681 90.4768C33.0919 88.962 32.0142 87.6224 32.0142 87.6224C31.7824 87.5383 31.5584 87.4343 31.3447 87.3114C30.4129 86.8263 29.1214 85.8164 29.1604 84.4954L29.1553 84.505Z" fill="#C2A44D"/>
<path fill-rule="evenodd" clip-rule="evenodd" d="M64.8737 26.2329C65.0983 26.3058 65.2979 26.4404 65.4497 26.6213C65.906 27.1455 66.1972 28.1356 65.1585 29.1941C65.5662 29.3394 65.7345 29.3861 66.0903 29.3394C65.7313 29.7669 64.9159 30.6796 64.8673 31.4757C64.8187 32.126 65.2263 32.3205 65.2263 32.3205C65.2263 32.3205 64.6049 33.0386 64.5761 34.2405C64.8696 33.9096 65.1907 33.6043 65.5361 33.3279C66.2548 32.7551 67.2449 32.1049 67.915 31.6972C67.9059 31.868 67.9289 32.0391 67.9828 32.2015C67.9828 32.2015 69.2347 31.1724 70.2868 31.6293C70.7623 31.8431 70.5486 32.5125 70.5486 32.5125C70.5486 32.5125 71.1995 32.27 71.6558 32.7263C72.1121 33.1826 72.7572 34.3596 73.0881 34.8159C73.2334 35.0297 73.6123 35.4373 74.0001 36.0684C74.53 36.9519 74.9724 37.8849 75.3211 38.8543C75.3403 38.3493 75.4663 37.5634 76.9038 38.0581C78.3406 38.5631 79.9713 39.6217 81.3403 41.7061C82.7092 43.7906 83.0484 46.1439 83.7377 47.0399C84.4366 47.9039 85.1553 49.3407 85.2039 49.9429C85.2526 50.5452 84.9902 52.4863 86.427 57.7388C86.8347 56.1081 87.4561 52.4863 87.4561 52.4863L87.7959 49.2921L88.1844 39.4085L77.8638 30.8345L69.7959 24.9797L64.5435 25.4847L64.8731 26.2322L64.8737 26.2329Z" fill="#CAA13E"/>
<path fill-rule="evenodd" clip-rule="evenodd" d="M84.0487 40.9414C84.0487 40.9414 83.9028 39.9814 81.4759 38.3494C79.0484 36.7378 77.1553 36.7378 75.4081 35.3689C74.0679 34.2911 72.6702 31.815 71.7601 30.9996C70.8762 30.1938 70.731 27.8636 70.731 27.8636L73.7114 25.3676L78.1441 18.9606L81.8913 14.8345L83.6871 17.3305L86.1831 20.2623L87.5713 26.1458L88.0762 34.7577L84.0442 40.942L84.0487 40.9414Z" fill="#B59544"/>
<path fill-rule="evenodd" clip-rule="evenodd" d="M87.0489 51.264C87.1224 49.958 86.9611 48.6494 86.5728 47.4004C85.9328 45.41 84.5344 41.8759 83.8848 40.5524C83.6224 39.0861 83.8169 38.9696 84.0985 38.8045C84.3801 38.6394 85.4387 38.0365 86.0185 35.9213C86.5984 33.8061 88.3974 33.737 88.3974 33.737L89.504 32.9216L91.184 37.1252L92.6496 40.9216L93.1059 43.8247L93.4457 46.3002L92.6496 51.5335L88.7181 55.0868L87.0483 51.264H87.0489Z" fill="#C89D3A"/>
<path fill-rule="evenodd" clip-rule="evenodd" d="M32.1851 109.593V109.486C32.2668 109.434 32.3389 109.369 32.3982 109.294C32.466 109.196 32.5153 109.08 32.5633 109.051C32.6606 109.002 33.1169 108.859 33.3595 108.905C33.602 108.951 34.2433 109.215 34.5831 109.196C35.282 109.177 36.0974 108.643 37.3889 108.886C39.3307 109.245 39.787 110.565 40.9134 111.313C41.6814 111.838 42.4763 111.604 42.5927 111.604H42.8545C42.9031 111.604 43.2622 111.196 43.4567 111.216C43.8452 111.235 43.8836 111.556 44.1262 111.575C44.699 111.643 45.8062 111.284 46.3598 111.43C46.693 111.534 46.954 111.795 47.0587 112.128C47.1751 112.487 47.0779 112.943 46.7963 113.206C46.1947 113.759 45.6219 114.284 45.5054 114.742C45.6535 114.855 45.7958 114.975 45.9316 115.103C41.1279 113.879 36.5061 112.028 32.1851 109.599V109.593Z" fill="#CEB052"/>
<path fill-rule="evenodd" clip-rule="evenodd" d="M83.8835 90.1946C83.8835 90.1946 85.3978 88.1754 85.9226 87.175C86.4467 86.144 84.2624 73.088 84.2624 73.088L88.6509 58.7098L88.5338 54.0301C88.5338 54.0301 88.7475 49.7094 89.2525 47.8355C89.8547 48.9133 91.7287 50.2144 92.1363 50.9037C92.3283 49.5827 92.9805 46.7968 92.8839 43.8259C93.2429 44.3789 94.1069 49.9424 94.1069 49.9424L94.9709 53.6896L96.0973 57.6704L97.3498 61.8746L98.0973 64.7776L98.5242 65.4765L98.8839 66.6995L99.2237 68.0205L100.204 71.1174L100.78 73.6608L101.237 78.2726C101.336 78.6258 101.407 78.9861 101.45 79.3504C101.469 79.8554 101.382 80.1466 101.382 80.2342C101.382 80.3219 101.548 81.3408 101.48 82.1082C101.382 82.8762 101.382 83.4771 100.78 84.0282C100.178 84.5792 99.7997 87.8726 99.7997 87.8726L98.7219 87.1546C98.7219 87.1546 98.9357 86.1734 98.4307 85.2806C97.9258 84.3878 96.9453 84.2029 96.3917 84.3488C95.8387 84.4653 94.7322 84.6394 94.3725 84.9504C94.0327 85.2608 93.1981 86.2221 92.4307 86.6592C91.4707 87.2352 89.9066 87.2806 89.072 87.4746C88.2272 87.6666 87.2954 88.2426 86.3143 88.9114C85.545 89.4094 84.7328 89.8378 83.8874 90.1914L83.8835 90.1946Z" fill="#CCA847"/>
<path fill-rule="evenodd" clip-rule="evenodd" d="M83.8835 111.408C83.8835 111.408 83.9475 111.45 84.0711 111.518C90.9687 108.286 97.149 103.705 102.247 98.0455C102.191 96.0807 102.119 94.0666 102.04 93.3204C101.875 91.7377 101.992 90.1262 101.943 89.1943C101.894 88.2625 101.37 84.466 101.128 83.4855C100.865 82.505 100.36 82.0193 100.283 82.0193C100.215 82.0391 99.8067 83.8644 99.8067 84.3233C99.8067 84.7822 99.7095 85.8868 99.7095 86.1684C99.6416 86.1486 99.6128 85.9764 99.6128 85.906C99.5155 86.1486 99.3991 86.5761 99.3504 86.6247C99.3018 86.6734 99.4183 86.217 99.3504 86.1198C99.2826 86.0225 99.1584 86.0711 99.1853 85.8286C99.1968 85.6847 99.2195 85.542 99.2531 85.4017C99.2531 85.4017 98.9619 85.8286 98.7488 86.9159C98.5351 87.9937 98.5351 88.0231 98.4576 88.1198C98.3898 88.2369 98.0013 88.6247 97.9815 88.7706C97.9623 89.0324 98.3411 89.2948 98.3699 89.4401C98.3891 89.6833 98.0301 90.809 97.9136 91.3601C97.7971 91.9111 97.8458 92.9908 97.7216 93.5444C97.6243 94.0494 97.5296 94.3406 97.1975 94.5537C97.44 94.6023 97.673 94.6702 97.673 94.6702C97.673 94.6702 98.0128 96.107 97.1488 97.3306C96.8384 97.7575 96.761 97.9521 96.4307 98.3406C95.7799 99.0586 95.2749 99.8766 95.2263 100.408C95.1927 100.251 95.17 100.092 95.1584 99.9322C95.1584 99.9322 94.1491 101.107 93.7216 101.777C93.1687 102.641 92.4013 102.593 92.1856 102.806C91.9699 103.02 91.9232 103.408 91.9936 103.719C91.8016 103.767 91.4407 103.836 91.1975 104.583C91.081 104.971 90.7898 105.351 90.3335 105.612C89.8771 105.873 89.3235 105.952 89.0419 106.02C89.2845 106.088 89.3818 106.088 89.4983 106.165C89.353 106.408 88.6829 106.787 87.9354 107.272C87.1879 107.729 86.8282 108.398 86.6439 108.835C86.4519 109.243 86.1683 109.505 85.712 109.554C85.904 109.67 86.1882 109.942 86.3335 110.03C86.1197 110.078 85.7575 110.078 85.1104 110.632C84.4307 111.195 84.1978 111.36 83.8867 111.409L83.8835 111.408Z" fill="#C39D3C"/>
<path fill-rule="evenodd" clip-rule="evenodd" d="M70.3743 115.907C70.7461 115.646 71.1487 115.433 71.573 115.272C73.0873 114.67 74.6892 114.553 75.3202 114.36C75.9225 114.168 76.398 113.903 77.1455 113.757C77.1257 113.928 77.109 114.088 77.0911 114.239C74.8873 114.931 72.6431 115.489 70.3711 115.907H70.3743Z" fill="#D2BA6B"/>
<path fill-rule="evenodd" clip-rule="evenodd" d="M98.304 76.078C98.304 76.078 97.9936 77.7574 97.44 78.816C96.8864 79.8745 96.288 81.3401 96.288 81.3401C96.2917 81.0099 96.3307 80.6809 96.4045 80.359C95.7056 80.7667 94.0064 81.7478 93.5245 82.1843C93.0682 82.592 92.3008 83.3107 92.1069 83.6505C92.5632 82.311 93.0388 81.1072 93.1168 80.5536C92.418 81.0585 89.1552 83.7478 87.4567 85.5244L82.1652 89.806C81.5545 90.1355 80.9257 90.4299 80.2816 90.688C79.3696 91.0758 78.2919 91.406 77.4957 91.7171C77.7095 91.1443 78.0487 90.6387 78.5248 90.1536C79.0298 89.678 80.544 88.0371 80.777 87.2736C80.9908 86.4774 81.0394 86.0019 80.7578 85.3318C80.4954 85.3996 79.8938 85.4291 79.4861 85.5456C79.0784 85.662 78.6413 86.0985 78.6413 86.0985C78.6413 86.0985 78.9517 84.3219 79.6218 82.6425C79.1168 82.6617 78.2528 82.807 78.2528 82.807C78.2528 82.807 79.4567 80.7878 81.5168 79.3804C80.8859 79.5147 80.2685 79.7062 79.6724 79.9526C78.4685 80.4576 77.1482 81.2051 76.1677 81.6128C76.7207 80.8448 80.6042 75.3024 82.9152 70.1369C85.2192 64.9817 86.08 63.6614 86.585 60.8947C86.8468 59.5257 86.777 57.5027 86.8468 55.6908C86.9146 53.8944 87.138 52.2828 86.9927 51.2051C87.5943 51.9526 89.8471 54.0595 89.9245 58.7686C89.9924 63.4771 87.7696 69.8368 85.41 73.2633C85.986 73.4284 87.4784 73.623 89.0119 70.9593C90.5453 68.2956 90.5268 67.552 91.0804 66.4448C91.1482 66.9984 91.1284 67.1923 91.1284 67.1923C91.1284 67.1923 93.362 64.4838 94.4199 61.0758C94.6336 62.542 95.2647 63.8336 94.274 66.5228C93.3908 68.9497 92.2356 69.5424 92.2356 69.5424C92.2356 69.5424 92.8084 69.4451 93.6525 68.9401C93.7984 69.2992 93.7696 69.7081 94.0122 69.8528C94.2548 69.9974 94.585 70.2412 94.6336 70.4742C94.8954 70.0857 95.3031 69.5904 95.4298 69.2217C95.3325 69.9897 95.2647 73.3478 95.6218 75.0566C96.37 74.9888 97.1367 74.9401 97.6608 73.5904C97.3018 74.9113 97.3018 75.7068 97.5444 76.8332C97.9424 76.5619 98.3015 76.0761 98.3015 76.0761L98.304 76.078Z" fill="#C0993A"/>
<path fill-rule="evenodd" clip-rule="evenodd" d="M73.0778 22.5633C73.0778 22.5633 72.3303 22.8737 71.0586 22.8737C69.952 22.8737 70.2624 22.4468 68.5344 22.4468C65.8746 22.4468 56.5831 23.9828 54.9517 23.961C53.8932 23.9418 58.5242 24.4173 58.5242 24.4173L70.3597 24.5825L72.738 24.3905L73.6218 22.5921L73.0778 22.5633Z" fill="#A88F33"/>
<path fill-rule="evenodd" clip-rule="evenodd" d="M42.3885 45.6991C42.3885 45.6991 40.8736 46.8543 40.233 47.7382C39.5923 48.622 39.2525 49.2038 38.5242 49.9225C38.6951 49.929 38.8659 49.9061 39.0291 49.8546C39.0291 49.8546 39.0291 50.0466 38.9126 50.0972C39.1165 50.0744 39.3198 50.145 39.4656 50.2892C39.2518 50.4057 38.6694 50.9887 39.1258 51.678C39.4656 52.2022 40.1843 52.2502 40.1843 52.2502C40.1843 52.2502 40.0192 52.7263 40.7085 52.6777C42.1939 52.6098 43.8541 51.959 44.6208 52.1241C45.3888 52.3161 45.8253 52.3865 46.3686 53.3286C46.9446 54.2604 47.4464 54.4063 47.4464 54.4063C47.4464 54.4063 47.7863 53.5417 47.7088 52.2508C47.9875 51.555 48.1419 50.8157 48.1651 50.0665L47.6602 46.3481L45.4566 43.5615L42.6023 45.1442L42.3885 45.6972V45.6991Z" fill="#E3C571"/>
<path fill-rule="evenodd" clip-rule="evenodd" d="M45.0969 45.1457C45.0969 45.1457 45.3107 45.6507 46.2041 45.6987C46.1068 45.9124 46.1068 45.9419 46.1363 46.1063C46.1555 46.2715 46.1843 46.514 46.1843 46.514C46.2826 46.4664 46.3716 46.4014 46.4467 46.322C46.4953 46.5358 46.398 46.875 46.4467 47.1182C46.4767 47.2661 46.5255 47.4096 46.592 47.5451C46.6061 47.5119 46.6224 47.4796 46.6406 47.4484C46.6598 47.3998 46.8326 47.9726 47.3107 48.4084C47.3103 48.3414 47.3268 48.2754 47.3587 48.2164C47.366 48.3382 47.4063 48.4556 47.4752 48.5563C47.4394 48.5392 47.4067 48.5163 47.3785 48.4884C47.3785 48.4884 47.4265 50.0244 47.6889 50.8187C47.7328 50.7673 47.7718 50.7121 47.8054 50.6535C47.8054 50.6055 47.7862 51.0811 47.7376 51.4215C47.6697 51.7614 47.7184 52.2369 47.7184 52.2369C47.8934 52.0991 48.0858 51.9848 48.2905 51.8971C48.5817 51.7799 49.0585 51.4209 49.3491 50.6247C49.5176 50.1739 49.6476 49.7095 49.7376 49.2366C49.8314 49.4173 49.8962 49.6117 49.9296 49.8126C49.9494 50.0551 50.4057 49.9291 50.4057 49.9291L50.503 48.8705L51.079 46.4724L51.6032 44.987L54.1273 41.0555L58.688 37.5431L62.6688 38.4558L66.0275 33.8926L60.2412 30.4167L54.7654 30.9895L49.7958 37.8727L45.8156 44.1159L45.0969 45.1451L45.0969 45.1457Z" fill="#D8B65B"/>
<path fill-rule="evenodd" clip-rule="evenodd" d="M73.7765 35.1847C73.7765 35.1847 73.4367 35.2525 72.4562 35.7607C71.4757 36.2688 70.7961 36.4301 70.4172 37.1776C70.0383 37.9252 70.0095 38.5178 70.0095 38.5178C70.0095 38.5178 70.6796 38.2266 71.0681 38.1293C71.4757 38.0327 71.9321 38.0615 71.8834 38.2266C71.8367 38.3398 71.7719 38.4447 71.6914 38.537C71.6914 38.537 72.4594 38.5178 72.4389 38.8967C72.4185 39.2756 72.2937 39.6928 72.1484 39.8772C72.0025 40.0692 71.4009 40.3533 71.333 40.5767C71.1679 41.033 71.4009 41.0522 71.3132 41.4208C71.2453 41.7805 70.9253 42.4794 69.8764 43.7024C68.7986 44.9261 68.3404 45.7901 68.3404 45.7901C68.3404 45.7901 67.8162 44.8096 67.5442 43.9648C67.3522 44.0615 66.3212 44.6343 66.3212 44.6343L63.9327 36.3143L63.9807 35.7607C63.9807 35.7607 64.1945 35.4989 64.2431 35.0132C63.8841 34.8967 63.8354 34.7994 63.3593 34.3437C62.8831 33.888 62.4953 33.3338 61.6997 32.9549C61.5833 32.7412 61.4373 32.4506 60.8549 32.3335C60.2725 32.2164 59.9231 32.1204 59.9231 32.1204C59.9231 32.1204 60.2335 32.0032 60.3794 31.7607C60.0197 31.8093 59.7292 31.9258 58.9426 31.9066C58.1465 31.8868 58.0588 31.858 57.6223 31.9258C57.1858 31.9936 56.6623 32.1882 56.4671 31.5181C56.2533 31.353 55.797 31.4989 55.4085 32.0711C55.0201 32.6432 54.8844 33.1002 54.1369 33.3236C54.0843 33.6531 53.9689 33.9694 53.797 34.2554C53.5833 34.6151 53.2434 34.9741 52.7871 35.5079C52.0684 36.3527 52.1849 37.7408 51.0393 38.7994C49.8841 39.8573 51.2313 35.8669 51.2313 35.8669L53.0757 31.4509L58.3282 26.3149L66.4837 25.762L67.2799 29.986L71.2607 31.3549L73.7753 35.1898L73.7765 35.1847Z" fill="#D3AE4D"/>
<path fill-rule="evenodd" clip-rule="evenodd" d="M75.0681 36.1165L71.6409 31.1751L69.2428 29.33C69.2428 29.33 67.534 26.185 67.4175 26.0877C67.3202 26.0199 65.7087 25.8452 64.6796 25.7773L64.8716 26.2529C65.0962 26.3258 65.2958 26.4604 65.4476 26.6413C65.9039 27.1655 66.1951 28.1556 65.1564 29.2141C65.5641 29.3594 65.7324 29.4061 66.0882 29.3594C65.7292 29.7869 64.9138 30.6996 64.8652 31.4957C64.8165 32.146 65.2242 32.3399 65.2242 32.3399C65.2242 32.3399 64.6028 33.0586 64.574 34.2599C64.8674 33.929 65.1886 33.6236 65.534 33.3473C66.2527 32.7713 67.2428 32.1236 67.9129 31.7159C67.9037 31.887 67.9267 32.0583 67.9807 32.2209C67.9807 32.2209 69.2325 31.1917 70.2847 31.6481C70.7602 31.8618 70.5465 32.5319 70.5465 32.5319C70.5465 32.5319 71.1973 32.2893 71.6537 32.7457C72.11 33.202 72.7602 34.3764 73.0905 34.8333C73.2357 35.0471 73.6146 35.4548 74.0025 36.0852C74.5324 36.9688 74.9748 37.9021 75.3234 38.8717C75.3426 38.4833 75.4207 37.9399 76.0914 37.9399L75.0719 36.1146L75.0681 36.1165Z" fill="#CAA13E"/>
<path fill-rule="evenodd" clip-rule="evenodd" d="M23.6896 50.1554C23.6896 50.1554 23.447 49.5532 23.6896 48.3788C23.9322 47.2044 24.311 46.6508 24.4371 44.9228C24.5632 43.1948 25.6896 41.0393 25.6896 41.0393L28.8058 39.6223L31.0099 40.2239L31.6602 43.1756L28.8736 44.7116C28.8736 44.7116 28.7283 45.3618 27.9418 45.886C27.1552 46.4102 26.0678 46.8178 25.8061 47.3522C25.6496 47.6795 25.5354 48.0253 25.4662 48.3814C25.4662 48.3814 24.6701 48.2162 24.1946 48.7404C23.6896 49.2748 23.7088 49.7503 23.6896 50.158V50.1554Z" fill="#F4EFC8"/>
<path fill-rule="evenodd" clip-rule="evenodd" d="M29.9808 49.3691C29.9808 49.3691 29.7184 49.5342 29.5245 49.9451C29.3325 49.6347 28.8736 47.7896 28.8544 46.1294C28.8352 44.4692 28.736 44.0577 29.12 43.4856C29.504 42.9134 31.0099 42.3105 30.7962 41.2801C30.5824 40.2996 29.689 39.892 28.592 40.1736C27.824 40.3656 27.2525 41.9988 26.4563 42.8142C25.8541 43.4356 25.136 43.3384 24.9421 43.6782C24.6797 44.1345 24.9223 44.5908 24.8448 44.882C24.825 44.9793 24.5824 45.5035 24.1453 46.1345C23.2621 47.4062 21.7671 49.2027 21.5725 50.8142C21.6403 49.9016 21.5923 49.8824 21.8349 48.8724L21.689 48.6299L22.649 45.4843L23.2704 42.8923L24.6592 38.5518L27.1053 34.1153L29.4842 31.4548L31.9597 31.62L32.2509 35.3384L33.6685 42.3195L36.649 45.9892L31.872 49.204L29.9789 49.3691H29.9808Z" fill="#EBCC73"/>
<path fill-rule="evenodd" clip-rule="evenodd" d="M31.4662 50.6879C31.4662 50.6879 31.0585 50.7852 30.9126 50.7078C30.7667 50.6303 30.622 50.5427 30.67 50.4454C30.718 50.3481 30.9804 50.1836 30.9804 50.1055C30.9916 49.9589 30.8842 49.8298 30.7379 49.8143C30.5145 49.7855 30.4467 49.9308 30.4467 49.9308C30.4467 49.9308 30.2329 49.7663 30.0588 49.7388C30.1618 49.7262 30.2655 49.7196 30.3692 49.719C30.1009 49.5975 29.8163 49.5157 29.5244 49.4764C29.767 49.3311 30.2431 48.9036 30.5535 48.9036C30.8639 48.9036 31.0585 48.8556 31.0099 48.6905C30.9612 48.5254 30.7187 48.2828 30.4569 48.1855C30.5535 48.0691 30.622 47.8943 30.3891 47.4175C30.1459 46.942 30.2431 46.6214 30.3212 46.5055C30.3891 46.3596 30.6316 46.0979 30.7481 45.9327C30.8646 45.7676 30.9619 45.5443 31.1558 45.4278C31.2531 45.3599 31.5635 45.2358 31.8745 45.1174C32.2143 45.0009 32.4959 44.855 32.6899 45.0009C32.9036 45.1462 32.8063 45.3407 32.8063 45.3407C32.8063 45.3407 33.4764 45.0975 34.078 45.4086C34.6803 45.6991 36.1465 45.8841 36.1465 45.8841L36.6719 46.9427L33.1961 49.9231L31.7593 50.6419L31.4681 50.6899L31.4662 50.6879Z" fill="#E5C66B"/>
<path fill-rule="evenodd" clip-rule="evenodd" d="M36.2913 45.8158C36.2913 45.8158 35.2135 46.5345 34.971 46.7963C35.1162 46.8161 35.3588 46.9134 35.2615 47.0587C35.145 47.204 34.4462 47.7089 34.0577 48.1851C33.65 48.6606 33.2615 49.2628 33.1258 49.554C32.9806 49.8158 31.8734 50.5832 31.4951 50.6798C32.2913 50.6798 33.8932 49.6993 34.4948 49.6993C34.4756 49.9905 34.6599 50.3208 34.9998 50.3496C35.3396 50.3784 36.3201 50.5633 37.6404 49.748C38.9607 48.9518 38.5242 48.3592 39.0772 47.9713C40.1358 47.2718 40.5626 46.6504 41.145 46.2625C41.7274 45.8747 42.0289 45.7864 42.0289 45.7864C42.0289 45.7864 42.0481 45.4952 42.2209 45.5246C42.3173 45.5356 42.3996 45.5992 42.4346 45.6897C42.4346 45.6897 43.4446 44.971 44.7386 44.7771C44.7084 44.7636 44.6843 44.7394 44.6708 44.7092C44.6708 44.7092 44.7674 44.6606 44.7873 44.612C44.7873 44.612 44.8551 44.5147 44.9038 44.5633C44.9524 44.612 45.0202 44.971 45.1175 45.1169C45.3313 45.0196 45.739 44.107 45.739 44.107L46.7201 41.3012V38.738L45.9521 38.884L40.1921 41.33L36.6964 44.9518L36.2887 45.8158H36.2913Z" fill="#E6BD62"/>
<path fill-rule="evenodd" clip-rule="evenodd" d="M52.8735 33.2428C53.1851 33.1672 53.4838 33.046 53.7599 32.8831C53.6434 33.1942 53.6434 33.534 53.1385 34.2719C52.6335 35.0099 52.6143 35.1167 52.2066 35.8835C51.7989 36.6796 51.7503 37.8252 51.3618 38.3295C51.5359 38.2449 51.7227 38.1894 51.9148 38.1651C51.9148 38.1651 51.5269 38.5049 51.3618 38.8639C51.1967 39.223 50.9055 39.9705 50.1874 40.4275C49.4693 40.8844 48.5561 41.175 47.5756 42.2527C46.5945 43.3107 45.5852 44.6508 45.0796 45.1327C45.342 44.6764 45.701 43.7638 45.7983 43.1622C45.8956 42.5606 45.7785 41.8412 45.9436 41.0457C46.1087 40.2502 46.1087 39.6767 46.9036 38.2879C47.6985 36.8991 49.0591 32.0742 49.0591 32.0742L51.9909 31.1423L52.8748 33.2396L52.8735 33.2428Z" fill="#B6933F"/>
<path fill-rule="evenodd" clip-rule="evenodd" d="M50.7572 31.4663C50.7572 31.4663 49.874 32.7379 49.6314 33.8643C49.3889 34.9907 49.6116 34.8935 49.4663 35.4471C49.3794 35.7846 49.3794 36.1387 49.4663 36.4762C49.7722 35.9834 50.191 35.5705 50.6881 35.2717C51.5233 34.7674 52.2029 34.4077 52.6081 33.9808C53.0157 33.5245 53.3556 32.777 54.2388 32.2042C53.8797 32.1555 53.3748 31.9904 53.2788 32.0122C53.6385 31.6045 54.7156 30.9831 55.8029 30.2355C56.8807 29.4675 56.8129 29.1578 58.5607 28.3911C57.9879 28.4883 57.7159 28.3424 57.2397 28.3911C57.4317 27.9834 58.1037 27.7888 58.7757 27.1194C59.4477 26.4499 58.3489 25.4592 58.3489 25.4592L53.2289 28.5562L50.7533 31.4688L50.7572 31.4663Z" fill="#C49937"/>
<path fill-rule="evenodd" clip-rule="evenodd" d="M36.864 29.1553L36.9805 28.2234L38.4467 25.874L39.9808 21.7479V16.1069L39.8643 12.8448L40.1069 10.7085L40.2912 10.0295L40.4858 9.76709L41.7376 10.4173L43.4663 12.7668L43.6314 17.3012L41.9514 24.4564L37.1552 29.6896L36.864 29.1553Z" fill="#DFC068"/>
<path fill-rule="evenodd" clip-rule="evenodd" d="M40.6796 9.50453C40.6796 9.50453 39.9116 9.52437 39.7478 12.7186C39.5839 15.9129 39.5046 17.5922 39.3881 19.1749C39.2716 20.7577 39.0002 21.7183 38.8639 22.6508C38.7276 23.5833 38.6502 24.8543 38.2137 25.6313C38.0217 25.9903 37.6114 27.1167 36.6502 27.9615C35.5724 28.8933 33.9622 29.5442 33.7183 29.5929C33.2908 29.6895 31.1257 29.9033 30.2425 30.389C29.9321 30.5541 29.3977 30.7481 28.8057 31.3017C27.6306 32.3596 26.0678 34.2527 24.9414 36.5343C23.2134 39.9423 21.4854 49.5634 21.4854 49.5634L21.8738 48.9132C21.8738 48.9132 21.9225 48.0492 22.7865 46.5343C23.6313 45.0201 23.3887 43.3209 24.5631 40.4178C25.0194 39.3113 25.5922 37.8745 26.2911 36.6508C27.3983 34.6604 28.7378 32.9516 30.0876 32.0197C32.2911 30.5055 34.7186 30.1753 34.7186 30.1753L37.3305 28.4473C37.3305 28.4473 37.7868 27.5641 38.389 26.5541C39.2332 25.1372 40.309 23.5545 40.5439 21.2537C40.9036 17.8457 40.039 15.6127 40.0876 13.5935C40.1362 11.5743 40.1554 10.0889 40.5638 9.72917C40.9721 9.36949 40.6802 9.50581 40.6802 9.50581L40.6796 9.50453Z" fill="#A88F33"/>
<path fill-rule="evenodd" clip-rule="evenodd" d="M40.6797 24.7475C40.6797 24.7475 41.8317 21.9123 42.3591 19.3978C42.4564 18.8928 42.6503 18.3885 42.6989 17.9808C42.9415 15.6019 43.0093 14.6214 42.6989 13.3203C42.4564 12.3603 41.5245 11.495 41.0388 10.8243C40.5633 10.1248 40.3399 9.86432 40.4372 9.71712C40.5345 9.56992 40.9127 9.32928 41.2813 9.35808C42.0732 9.38113 42.821 9.72817 43.3498 10.3181C44.0973 11.1821 44.6893 14.1146 44.6893 14.1146L45.3121 17.984L46.8948 22.8576L40.681 24.7514L40.6797 24.7475Z" fill="#C99E3D"/>
<path fill-rule="evenodd" clip-rule="evenodd" d="M51.5047 21.7965C51.5047 21.7965 51.291 21.8932 50.9031 21.7965C50.9368 22.1197 50.7868 22.4345 50.5146 22.6119C50.107 22.4468 46.2906 22.777 46.2906 22.777C46.2906 22.777 44.514 22.466 43.9604 20.1165C43.5726 18.553 44.2516 16.3981 44.0282 14.9805C43.6884 12.8929 43.2129 12.4845 43.1642 11.8349C43.1156 11.1853 43.067 11.0196 43.067 10.6119C42.8532 10.5633 42.7271 10.4954 42.514 10.4954C42.4654 10.3034 42.562 10.1357 42.3489 9.7959C42.4654 9.84454 43.2615 9.94182 44.1934 10.825C44.9614 11.5437 44.9614 11.8055 45.0772 11.9514C45.2225 12.0967 46.3975 13.1034 46.9025 14.1069C47.4074 15.1105 48.3879 18.3105 48.6113 18.8346C48.6791 19.0484 48.825 19.2621 49.1873 19.7473C49.7505 20.4468 50.5754 21.6033 51.5073 21.7953L51.5047 21.7965Z" fill="#B58634"/>
<path fill-rule="evenodd" clip-rule="evenodd" d="M45.2141 12C45.8023 12.9501 46.3306 13.9359 46.7962 14.9517C47.369 16.2426 47.7088 17.3011 48.4276 18.1651C48.0391 17.0394 47.3498 14.8256 46.9421 14.039C46.4858 13.207 45.554 12.311 45.2141 12.0006V12Z" fill="#A88F33"/>
<path fill-rule="evenodd" clip-rule="evenodd" d="M38.6119 27.9616C38.6119 27.9616 37.6315 28.2041 35.8062 29.1654C35.2039 29.4758 34.6318 29.7376 34.0782 29.9808C32.6401 30.631 31.0977 31.232 29.874 31.5635C29.9713 31.68 30.0193 31.728 30.0193 31.728C30.0193 31.728 30.0193 32.2041 30.2817 32.4755C30.1364 32.6214 28.194 33.9417 28.7675 38.359C29.1553 38.2137 29.6116 38.0192 29.6795 38.0192C29.7966 38.039 29.8254 38.359 29.9707 38.359C30.1159 38.359 30.5921 38.167 31.0971 37.5142C31.0779 37.7766 30.7867 40.4173 32.3495 42.1939C32.6407 41.8541 33.3787 40.7277 33.3787 40.7277L33.3979 40.3686C33.3979 40.3686 33.4657 39.1161 33.874 37.9705C34.2823 36.8249 35.0779 35.9801 35.0779 35.9801L39.2321 30.048L38.6107 27.9609L38.6119 27.9616Z" fill="#E6C367"/>
<path fill-rule="evenodd" clip-rule="evenodd" d="M34.7282 36.672C34.538 36.8064 34.3285 36.911 34.1068 36.9824C34.0389 36.7398 33.9417 35.9046 34.5145 35.0892C35.1845 34.1081 36.6501 32.8364 37.0578 31.8252C37.3202 31.1744 37.2037 29.5436 39.534 27.456C41.8642 25.3683 42.7762 24.6502 42.7762 24.6502L46.5433 22.7571L51.1743 24.5824L48.8735 33.6L47.0873 37.824L39.9833 36.4844L34.7276 36.672H34.7282Z" fill="#DCBA5A"/>
<path fill-rule="evenodd" clip-rule="evenodd" d="M37.4399 34.2234L38.3238 33.1168V32.3303C38.3238 32.3303 39.3043 32.0679 40.3622 30.9901C41.4201 29.9124 42.8863 27.8445 44.1779 27.9706C45.4694 28.1165 45.5955 30.7764 45.6441 31.5245C45.6927 32.2727 45.8579 33.9706 46.1196 34.8839C46.4108 35.7965 42.974 39.2525 42.974 39.2525L40.6399 41.0292L37.4399 34.2234Z" fill="#E9CE77"/>
<path fill-rule="evenodd" clip-rule="evenodd" d="M40.1748 43.4368C40.1748 43.4368 40.8935 42.3104 40.3668 42.0678C40.6772 41.369 41.25 40.631 41.25 40.631C41.25 40.631 41.6577 39.6218 42.978 38.3789C44.2983 37.136 45.1143 36.3104 45.3281 35.4758C45.4599 34.9319 45.5315 34.3752 45.5418 33.8157C45.6846 33.9323 45.8373 34.0362 45.9982 34.1261C46.2119 34.2234 47.2212 35.0579 47.0759 36.7379C46.9306 38.4179 46.3079 39.1168 46.3079 39.1168C46.3079 39.1168 45.7063 39.7184 45.2794 40.0294C44.8225 40.3398 44.658 40.6989 43.8906 40.7283C43.9695 40.6656 44.0582 40.6163 44.153 40.5824C44.153 40.5824 43.3569 40.4858 42.9294 40.8736C42.5018 41.2614 41.593 42.4563 41.1367 42.816C40.6804 43.1072 40.1767 43.4374 40.1767 43.4374L40.1748 43.4368Z" fill="#CDAE50"/>
<path fill-rule="evenodd" clip-rule="evenodd" d="M72.4563 24.5529C71.3093 24.1349 70.1039 23.8991 68.8839 23.8541C66.8448 23.7862 63.8643 23.9027 60.9421 23.9219C57.7965 23.9411 54.9421 22.8442 50.9811 22.6502C50.3309 22.2617 48.6771 20.5626 43.5149 24.1645C43.8253 24.1453 47.2627 23.3683 48.4563 24.864C49.6602 26.3494 49.3203 28.8736 49.1559 29.4752C48.8448 30.8154 47.8349 32.7667 47.4279 34.1357C47.0208 35.5046 47.1168 36.224 46.8256 37.184C46.5344 38.144 45.8938 38.6208 46.272 39.7274C46.777 39.417 47.04 39.417 47.8835 37.5238C48.7271 35.6307 48.5536 34.281 49.952 32.679C51.321 31.0675 53.6 28.8633 54.4666 28.3098C55.3331 27.7562 62.2138 24.1837 69.4183 27.5917C71.1559 27.4074 72.457 24.5523 72.457 24.5523L72.4563 24.5529Z" fill="#D2A83E"/>
<path fill-rule="evenodd" clip-rule="evenodd" d="M46.4173 23.2321C46.4101 23.1592 46.394 23.0874 46.3693 23.0184C46.3019 22.8764 46.2134 22.7454 46.1069 22.6299C46.1069 22.6299 44.3981 22.3195 43.5341 22.4161C42.0192 22.5812 40.6502 24.4552 40.0096 25.4164C39.3689 26.3777 38.5728 27.8625 37.7088 28.6299C37.7182 28.5551 37.701 28.4794 37.6601 28.4161C37.6601 28.4161 37.7088 28.484 37.6121 28.5812C37.5155 28.6785 37.5149 28.7265 37.5635 28.7732L37.7094 28.9185C37.7574 28.9185 39.0976 28.3163 40.9229 26.6145C42.8646 24.8379 44.3501 23.9265 45.127 23.6142C45.5414 23.4381 45.9745 23.3099 46.4179 23.2321H46.4173Z" fill="#C29637"/>
<path fill-rule="evenodd" clip-rule="evenodd" d="M79.5635 15.9321C79.5635 15.9321 79.2524 16.32 78.864 16.7475C78 17.6601 76.8736 18.6886 75.9123 19.7472C75.0003 20.7571 73.9712 21.5436 72.8153 22.864C71.6595 24.1843 70.3193 25.6499 69.9801 26.0774C69.6697 26.5049 69.4272 27.2038 69.4272 27.5628C69.262 27.4464 69.0681 27.3203 69.0681 27.3203C69.1498 27.4727 69.2474 27.616 69.3593 27.7478C69.6019 28.0876 69.9801 28.5158 70.1747 28.7769C70.4134 29.1093 70.5847 29.4853 70.679 29.8835C70.7955 29.9027 71.543 30.0486 72.4755 28.5145C73.408 26.9804 74.6304 25.3011 74.6304 25.3011L76.5721 22.4172L77.7958 19.9712L79.3318 17.2332L79.5654 15.9321H79.5635Z" fill="#AC8132"/>
<path fill-rule="evenodd" clip-rule="evenodd" d="M81.5538 13.9712C81.5538 13.9712 80.3788 14.9312 79.9225 15.5072C79.4662 16.0832 78.3865 17.5949 78.3865 17.5949L78.775 17.5462L80.7462 15.799L81.5142 14.4301L81.5532 13.9738L81.5538 13.9712Z" fill="#A88F33"/>
<path fill-rule="evenodd" clip-rule="evenodd" d="M81.1943 91.1264C81.1943 91.1264 81.1751 90.3303 81.6218 89.8548C82.0782 89.3786 83.2334 88.6797 84.3598 86.0583C85.4862 83.4368 85.6116 82.8448 85.6116 82.8448C85.6116 82.8448 83.5924 84.5728 82.3476 84.9805C82.6388 84.3783 82.8039 83.9514 82.9498 83.6404C82.7847 83.4951 82.0858 83.33 82.018 83.2525C82.4058 82.864 82.6196 81.9124 83.4062 81.2813C84.4161 80.5133 86.2606 79.1936 87.6942 78.0173C89.1278 76.841 91.9463 74.105 92.306 73.3088C92.5198 73.6192 92.5678 73.8132 92.5678 73.8132C92.5678 73.8132 91.1508 75.6583 90.4129 76.8327C89.762 77.8426 89.8106 78.4154 89.8106 78.4154L91.1508 77.8394C91.1508 77.8394 91.5386 79.2762 89.7818 81.4612C90.5498 81.17 90.8596 81.3447 91.2961 81.1015C90.5774 81.5584 89.5873 82.1799 88.6554 83.888C87.7428 85.5968 86.4999 87.5872 84.4033 88.8295C82.3642 90.1402 81.1892 91.1207 81.1892 91.1207L81.1943 91.1264Z" fill="#A67A2E"/>
<path fill-rule="evenodd" clip-rule="evenodd" d="M75.9322 25.5635C75.9322 25.5635 75.136 27.2231 75.0195 28.5146C75.0003 28.8256 74.9222 29.0682 74.9222 29.4272C74.903 30.5824 74.9901 31.8739 74.7302 32.4755C74.633 32.233 74.5843 32.0679 74.487 31.9712C74.3418 32.3789 74.0794 33.6506 73.8656 34.1261C73.769 33.8157 73.5552 32.7379 73.575 31.4663C73.5949 30.1946 73.623 29.9514 73.623 29.6896C73.575 30.0775 73.3126 30.6023 73.2154 30.9127C73.0701 30.6509 72.905 30.3111 72.7104 30.0295C72.5939 30.2215 72.4486 30.505 72.3226 30.6509C72.3027 30.5344 72.2547 30.2234 72.2253 29.7869C72.2061 29.2819 72.1766 28.6317 72.2061 28.4954C72.2541 28.2336 72.6624 27.2045 73.5264 26.2624C74.5555 25.136 75.6141 22.9715 75.9245 22.3015C76.2349 21.6314 77.5552 18.8455 77.5552 18.8455H78.5651L77.0989 22.185C77.0989 22.185 76.2157 24.0103 75.7594 24.681C75.303 25.3517 74.3418 27.2736 73.9142 28.0211C74.2246 27.6135 74.487 27.3997 74.7981 27.0112C75.0989 26.7392 75.9334 25.5648 75.9334 25.5648L75.9322 25.5635Z" fill="#8C6228"/>
<path fill-rule="evenodd" clip-rule="evenodd" d="M81.573 13.8445C81.408 14.3522 81.1473 14.8236 80.805 15.2333C80.2028 15.952 78.9112 16.9126 78.2808 17.6794C77.7048 18.4269 76.5528 20.4659 77.0764 22.8832C77.2684 22.359 77.63 21.3203 78.5912 20.1453C79.5525 18.9702 80.5816 17.6211 81.0872 16.5728C81.5916 15.5142 81.6594 14.6797 81.6594 14.6797L81.8514 14.4371L81.7349 13.8835L81.5698 13.8445L81.573 13.8445Z" fill="#CBA94C"/>
<path fill-rule="evenodd" clip-rule="evenodd" d="M101.233 78.2425C101.233 78.2425 100.845 77.1846 100.728 76.2233C100.612 75.262 100.92 75.0713 100.563 73.9712C100.349 73.3011 99.9616 73.3952 99.8643 73.3011C99.767 73.207 99.6992 72.1945 99.7184 71.6409C99.7376 71.0873 99.6992 70.3692 99.6019 70.0582C99.4566 69.9417 99.3593 69.8444 99.1456 69.1264C98.903 68.4076 98.7865 68.0486 98.67 67.8355C98.5536 67.6224 98.2131 67.4278 98.2131 67.214C98.2131 66.7865 98.6016 66.5638 98.6016 66.446C98.5824 66.2035 98.2912 66.398 98.2131 66.3296C98.1164 66.2131 98.4563 65.5142 98.3302 65.4169C98.2816 65.3689 97.9417 65.7766 97.854 65.6601C97.7568 65.543 97.6403 64.3878 97.4656 63.6211C97.3011 62.8736 97.1257 62.3302 97.1065 62.1068C97.0873 61.8931 95.7664 58.126 95.4464 57.2134C95.1885 56.4422 94.9714 55.658 94.7961 54.864C94.6988 54.4076 94.631 53.4752 94.5824 53.5724C94.5337 53.6697 94.5632 54.1452 94.4851 54.126C94.4172 54.1062 94.1747 52.4467 94.0972 52.1843C94.0294 51.9219 93.6211 51.0323 93.5212 50.3884C93.424 49.7376 93.2108 48.0384 93.0649 46.8832C92.919 45.728 92.8512 45.2524 92.8512 44.9632C92.875 44.2556 92.836 43.5473 92.7347 42.8467C92.5427 41.623 92.1587 40.1376 91.822 39.2742C91.1718 37.6428 89.4432 33.4681 89.134 32.4294C89.134 32.167 89.4739 32.3129 89.4739 32.3129C89.4739 32.3129 90.318 34.4294 90.9395 36.0601C91.5417 37.6915 92.1145 39.1283 92.2604 39.2742C92.3769 39.4195 93.2896 41.0214 93.6972 43.6428C94.1049 46.2643 94.2502 48.6816 94.4934 50.2931C94.6099 51.0611 94.7072 51.8758 94.9497 52.6912C95.2115 53.575 95.6192 54.4876 96.1536 55.8854C96.6099 57.0604 96.9497 58.0409 97.134 58.8857C97.3478 59.9635 97.3478 60.7788 97.4739 61.3132C97.591 61.7696 97.7651 62.6816 98.1734 64.0012C98.5817 65.3209 99.1827 67.0208 99.5904 68.0787C100.387 70.1952 100.742 71.9622 100.863 72.9043C100.969 73.8752 101.329 77.2345 101.231 78.2438L101.233 78.2425Z" fill="#A88F33"/>
<path fill-rule="evenodd" clip-rule="evenodd" d="M81.6217 13.7281L81.5731 13.8446C81.5731 13.8446 81.7184 13.8932 81.6896 14.0878C81.6916 14.3539 81.6754 14.62 81.6409 14.8839C81.5929 15.2238 81.4956 15.4855 81.4764 15.6993C81.4764 16.1556 81.5443 16.6798 80.9004 17.9809C80.7084 18.3399 80.59 18.6503 80.4928 18.8641C80.2502 19.3882 80.2016 19.4663 79.9878 19.7089C80.3276 19.5169 81.5513 18.7489 82.1721 18.8641C81.7452 19.1066 81.0944 19.5828 80.6867 20.2042C80.784 20.2234 81.1916 20.3015 81.8387 20.2042C82.9164 20.0391 84.1203 19.6506 85.1782 19.7281C86.334 19.7959 85.8777 18.3399 85.8777 18.3399L84.544 15.4081L82.0198 13.6321L81.6217 13.7287V13.7281Z" fill="#BE9C44"/>
<path fill-rule="evenodd" clip-rule="evenodd" d="M88.2041 35.6897C88.2041 35.6897 87.0777 34.5633 86.6214 30.6977C86.1651 26.8142 86.2624 21.0977 86.2624 21.0977L85.3497 18.8647C85.3497 18.8647 85.1577 17.3793 84.6797 16.8263C84.2016 16.2734 83.2627 15.3409 82.8352 14.8846C82.4077 14.4283 81.9225 13.8068 81.6313 13.7095C81.7766 13.467 82.4275 12.098 84.9222 12.0788C87.4169 12.0596 88.1862 13.4478 88.4467 13.9527C88.7072 14.4577 89.8835 16.6407 90.32 20.8007C90.7277 24.9556 90.7475 25.2667 90.6797 26.7035C90.631 27.4996 90.3686 29.3441 89.9117 31.3146C89.4944 32.9851 89.0381 34.8494 88.2029 35.6935L88.2041 35.6897Z" fill="#A17C34"/>
<path fill-rule="evenodd" clip-rule="evenodd" d="M84.6721 39.0003C85.0475 39.0274 85.4225 38.9428 85.7499 38.7571C86.1089 38.7379 87.41 38.903 88.4097 37.6313C88.4775 37.9219 88.6529 38.7091 88.1959 39.408C88.4391 39.1648 88.7982 39.0681 88.8468 39.0003C88.866 39.3593 89.2059 40.4659 87.7691 43.1552C88.1569 42.7283 88.6132 42.7475 89.0209 42.6989C89.0407 43.2038 89.3121 44.9024 88.594 45.8157C88.1185 46.4371 87.3415 46.2425 87.3415 46.2425C87.3529 46.1069 87.3529 45.9705 87.3415 45.8349C87.3223 45.5725 87.2251 45.3107 87.2935 45.136C86.9181 44.9645 86.5761 44.7276 86.2836 44.4365C85.4388 43.6403 84.3419 42.2816 84.2644 41.2717C84.1671 40.1453 85.1771 39.9027 85.1771 39.9027C85.0925 39.827 85.0203 39.7385 84.9633 39.6403C84.9147 39.4758 84.866 39.2134 84.6721 39.0003Z" fill="#8C6228"/>
<path fill-rule="evenodd" clip-rule="evenodd" d="M77.1839 26.7866C77.1839 26.7866 77.1353 26.7188 76.8735 27.0292C76.9222 26.7188 76.9708 26.4269 76.99 26.1453C77.1139 25.8846 77.2742 25.6429 77.4662 25.4273C77.3203 25.7178 77.223 25.9802 77.223 25.9802C77.223 25.9802 77.5827 25.3101 78.1068 24.9025C78.4659 24.6113 78.9222 24.4756 79.1161 24.2036C79.3299 23.9124 79.2812 23.8637 79.3299 23.8151C79.3299 23.8151 79.806 23.5047 80.5343 22.5914C80.631 22.4749 80.7769 22.3489 80.8742 22.2324C81.0387 22.1645 81.4271 21.9898 81.8835 21.7562C82.3596 21.4945 82.8934 21.1354 83.2236 20.9882C83.8739 20.697 84.5638 20.7265 84.8838 20.2695C85.1263 20.2017 85.3881 19.4733 85.3401 18.8525C85.6991 18.9978 87.5436 20.1434 88.1753 22.6484C88.6316 24.425 87.8156 27.1629 87.4758 28.4839C87.1359 29.8049 87.0879 30.7847 86.6118 31.3863C86.0095 32.1831 84.0684 33.3063 83.5923 33.8625C83.1846 34.3188 81.9615 35.474 82.0095 36.3085C82.0582 36.93 82.8249 37.2685 82.9907 37.3863C83.1564 37.5041 83.1551 37.6487 83.4662 37.5783C83.7772 37.5079 83.8931 37.3645 84.0198 37.3645C84.1651 37.3837 84.1651 37.4132 84.2329 37.4132C84.2821 37.4117 84.331 37.4051 84.3788 37.3933C84.3788 37.3933 84.3302 38.2772 82.2623 38.5453C82.1164 38.5652 81.9711 38.6132 81.7862 38.6426C82.0294 38.5261 82.1747 38.5261 82.4371 38.1671C82.1459 38.1185 81.3107 38.0698 81.0969 38.002C81.1647 37.8855 81.3881 37.5745 81.5724 37.4292C81.7375 37.2839 81.5532 37.2372 81.4079 37.3127C81.1578 37.4829 80.9178 37.6675 80.6892 37.8657C80.4467 38.0794 80.2329 38.3706 79.8444 38.6337C79.7279 38.2452 79.7471 37.5073 80.2041 36.9735C80.087 36.9927 79.8636 37.3325 79.6505 37.2647C79.612 36.9106 79.6349 36.5525 79.7183 36.2061C79.8348 35.769 80.4659 35.0023 80.4659 35.0023L83.5142 29.5553L84.1644 25.4292L77.1839 26.7853V26.7866Z" fill="#92723A"/>
<path fill-rule="evenodd" clip-rule="evenodd" d="M77.0196 27.0196C77.0196 27.0196 76.8545 27.1361 77.1847 27.3594C77.1361 27.4273 77.0196 27.6698 76.8737 27.835C76.7092 28.027 76.5338 28.146 76.466 28.3111C76.3207 28.651 76.2042 28.8839 76.2042 29.0298C76.2042 29.1758 76.1556 30.1076 75.7479 30.7092C75.602 30.923 75.4369 31.282 75.3204 31.5246C75.0778 31.9514 74.8641 32.2926 74.8154 32.4846C74.7188 32.8244 74.651 33.7562 74.651 33.7562C74.651 33.7562 74.8647 33.4938 74.9422 33.3972C74.825 33.6398 74.699 33.9015 74.5146 34.0961C74.6311 33.9988 74.971 33.7562 75.5438 33.2513C76.3399 32.5818 77.5828 31.4554 79.0977 30.5633C78.6407 30.7284 78.2529 30.7284 77.9425 30.777C78.185 30.5345 80.3694 27.9713 81.515 27.7287C81.5845 27.6405 81.6192 27.5298 81.6122 27.4177L80.6311 27.321L78.6407 27.7479L78.3502 26.2119L77.0196 27.0177V27.0196Z" fill="#B18E3E"/>
<path fill-rule="evenodd" clip-rule="evenodd" d="M80.1848 35.7575C80.1848 35.7575 79.9224 36.0192 79.6799 36.6701C79.4931 36.4751 79.333 36.2563 79.2037 36.0192C78.8447 35.4176 78.2917 34.6503 77.0002 35.0874C76.981 34.6797 76.9516 34.466 77.0002 34.1748C77.214 34.1268 77.8642 33.6026 78.5144 32.8352C78.9714 32.3111 79.3983 31.7088 79.6895 30.9421C79.8815 30.7962 80.2136 30.5536 80.6495 30.272C81.2709 29.8452 82.0184 29.2621 82.1349 28.6119C81.8437 28.7284 81.2223 29.0196 80.2898 28.9716C80.6495 28.8064 81.2024 28.6317 81.1346 27.913C81.2805 27.8157 81.397 27.7479 81.397 27.7479C81.2876 27.7114 81.1724 27.6949 81.0572 27.6992C81.0373 27.6314 81.0085 27.5348 80.8434 27.5828C80.6783 27.6308 80.6514 27.6314 80.6296 27.6992C80.5618 27.7191 80.3384 27.6992 80.1733 27.8164C80.0082 27.9335 79.5519 28.3207 79.3772 28.3885C79.445 28.272 79.5416 28.098 79.5416 28.098C79.5416 28.098 79.0661 28.146 78.7263 28.29C78.1048 28.5037 77.3868 28.8922 76.6584 29.2704C76.7263 29.154 76.7557 29.0784 76.8037 29.0567C76.8517 29.0349 76.9688 29.0087 76.9688 28.9888C76.9688 28.969 76.9208 28.7968 76.9496 28.7271C77.1674 28.2658 77.4243 27.8241 77.7176 27.4068C78.0575 26.9498 78.1253 26.2996 78.1253 26.2996L79.6108 25.552L83.7855 24.592L86.4946 24.7572L86.1548 26.6311L84.5548 29.9028L83.1858 32.8832L81.6223 34.7092L80.1855 35.7575H80.1848Z" fill="#543E26"/>
<path fill-rule="evenodd" clip-rule="evenodd" d="M86.9516 27.648C86.9516 27.648 85.3202 29.6672 84.8639 29.9783C85.1551 29.3568 86.9516 25.6576 87.6018 24.6285C87.4566 24.512 87.262 24.512 87.7183 22.7085C87.3305 23.6205 87.1942 24.0967 86.8742 24.3392C86.5542 24.5818 86.5145 24.5043 86.2982 24.5043C86.339 24.4304 86.3558 24.3457 86.3462 24.2618C86.3462 24.2618 84.9772 24.0967 84.0422 24.0967C83.1071 24.0967 81.2562 24.6016 80.2265 25.0093C79.4111 25.3491 78.9548 25.3491 78.6636 25.5623C78.3724 25.8048 78.2073 26.0672 78.0614 26.1351C77.9449 26.2029 77.3919 26.3776 77.2652 26.5619C77.1487 26.7539 76.9548 26.9696 76.9548 27.0183C76.9548 27.0669 76.9062 27.1354 77.0521 27.0861C77.1001 27.0669 77.4598 26.8723 77.8674 26.6298C78.4204 26.3194 79.0905 25.9603 79.5762 25.7466C80.9644 25.193 81.4015 25.2903 82.0223 25.1738C82.6726 25.0573 83.605 24.7853 84.2258 24.7853C84.8473 24.7661 86.0223 24.7853 86.2943 24.8339C86.1778 24.9312 86.0806 25.0477 86.1292 25.4554C86.1292 25.5719 86.0319 25.6979 85.9372 25.9795C85.6466 26.7757 85.093 28.096 84.7852 28.7661C84.3583 29.6781 83.8732 30.4455 83.6332 30.921C83.3932 31.3965 82.8652 32.649 82.3423 33.3191C81.8194 33.9891 81.5462 34.3968 81.3823 34.5427C81.2185 34.6887 80.0422 35.552 80.1298 35.8631C80.3436 35.7952 81.6934 35.2871 82.6732 34.1837C83.653 33.0803 83.8482 32.4071 84.615 31.8048C85.3817 31.2026 85.9839 30.1933 86.343 29.3587C86.6438 28.5818 86.5759 28.3392 86.9542 27.6499L86.9516 27.648Z" fill="#806031"/>
<path fill-rule="evenodd" clip-rule="evenodd" d="M51.7964 42.7188C51.7964 42.7188 51.5827 43.602 51.0969 44.0391C50.6214 44.4667 49.7766 44.8353 49.68 45.554C49.5635 46.2721 50.5248 46.6318 50.5248 46.6318C50.5248 46.6318 50 47.4958 50 48.146C50 48.8161 49.9808 48.9422 50.0486 49.5828C49.9716 49.6323 49.9061 49.6978 49.8566 49.7748C49.8566 49.7748 49.9046 50.3963 50.3808 50.7841C50.8569 51.1719 51.264 51.4055 51.5065 51.3083C51.5436 51.3874 51.576 51.4686 51.6038 51.5515C51.6038 51.5515 51.9635 50.6388 52.206 49.8427C52.4486 49.0273 52.6624 49.1431 52.759 48.0462C52.8556 46.9492 53.911 45.0657 53.911 45.0657L54.631 43.4561L53.4566 42.5435L51.7964 42.7182V42.7188Z" fill="#B6903C"/>
<path fill-rule="evenodd" clip-rule="evenodd" d="M53.9808 44.3008C53.7386 44.5494 53.5151 44.8155 53.312 45.0969C53.0016 45.5245 52.759 45.9123 52.3027 46.0781C51.8464 46.2438 51.5552 46.2425 51.584 46.6995C51.6128 47.1565 52.0403 47.3497 52.2829 47.5827C52.5453 47.8253 52.759 48.2329 52.6425 48.6899C52.7878 48.6221 53.0502 48.544 53.2928 48.0198C53.5353 47.4957 55.232 44.3014 55.232 44.3014H53.9808V44.3008Z" fill="#685026"/>
<path fill-rule="evenodd" clip-rule="evenodd" d="M60.672 36.9318C60.672 36.9318 60.8173 36.544 60.672 36.2624C60.5261 35.9712 59.6429 35.8739 59.2058 35.5437C58.7494 35.2038 58.1958 34.9677 57.7395 35.1168C57.8074 34.9517 58.0794 34.592 57.856 34.5145C57.6422 34.4467 56.8467 34.8057 56.633 34.9709C56.4192 35.136 55.9334 35.3299 55.8368 35.447C55.7402 35.5641 55.5744 35.7869 55.4771 35.6896C55.3798 35.6217 55.3318 35.447 55.1667 35.5437C55.0016 35.6403 54.2067 36.2912 54.0602 36.6701C53.9136 37.0489 53.584 37.8937 52.5939 38.8544C51.6038 39.815 51.1763 40.4371 51.4675 40.7961C51.7587 41.1552 51.895 40.8934 51.9437 41.2038C51.9811 41.5085 51.9646 41.8174 51.895 42.1165C51.7786 42.6214 51.5846 43.0969 51.8464 43.1942C52.5165 43.408 53.1674 43.0022 53.3126 43.1264C53.6038 43.3881 53.1475 44.3302 53.8368 44.5145C54.5363 44.7065 55.2256 44.3494 55.2256 44.3494L57.769 42.9805L60.2157 41.6896L61.4675 39.2134L60.7962 37.1456L60.6682 36.9318H60.672Z" fill="#D4B968"/>
<path fill-rule="evenodd" clip-rule="evenodd" d="M58.2721 42.8449C58.2721 42.8449 57.8446 42.1947 58.3694 41.6212C58.8942 41.0478 59.641 40.8059 59.9322 40.4468C59.8768 40.3784 59.8025 40.3279 59.7185 40.3015C59.9118 39.9557 60.2067 39.6775 60.5633 39.5047C60.418 39.3595 60.2234 39.243 60.0103 39.243C59.5342 39.243 59.2423 39.5342 58.8058 39.5342C58.379 39.5342 58.3303 39.3204 58.3303 39.3204C58.3303 39.3204 59.049 39.2526 58.9806 38.9319C58.9127 38.5921 58.7886 38.5921 58.7886 38.5921C58.7886 38.5921 60.1767 38.0161 60.4193 37.7089C60.6618 37.4017 60.633 37.0388 60.6817 36.8935C60.8462 36.8935 61.8074 36.3886 62.1959 36.6023C62.5844 36.8161 62.3124 37.3985 62.3124 37.3985C62.3124 37.3985 63.4881 36.5147 64.0871 35.6481C64.6113 35.6967 64.8551 35.2891 65.2391 35.2891C65.7153 35.2891 66.4628 35.9393 66.6081 37.3275C66.7054 38.1236 66.8506 38.5799 66.7054 39.9879C66.6375 40.7841 66.6567 42.4839 66.8974 43.3275C67.0618 43.9975 67.4503 43.9297 67.4503 43.9297C67.3907 44.1339 67.2726 44.3161 67.1105 44.4539C66.8481 44.6964 66.8193 45.3377 66.8481 45.5803C66.8868 45.7576 66.9355 45.9326 66.994 46.1044C66.994 46.1044 66.6836 46.4635 66.6055 46.7067C66.5377 46.9492 66.2177 47.1143 65.9841 47.1143C65.7505 47.1143 65.8676 47.0945 65.5572 47.1143C65.2468 47.1342 65.1495 47.1822 64.955 47.1143C64.7604 47.0465 64.6151 46.9684 64.6932 46.3463C64.761 45.7249 62.2951 44.2785 62.2951 44.2785L58.2631 42.8417L58.2721 42.8449Z" fill="#CCA849"/>
<path fill-rule="evenodd" clip-rule="evenodd" d="M53.6409 48.9805C53.6409 48.9805 54.5241 50.1555 58.1555 50.1555C59.8835 50.1555 60.4857 49.9904 60.8435 49.8931C61.2319 49.7958 62.6879 49.2237 64.1542 47.495C65.4745 45.9322 65.1833 45.2915 65.1833 45.2915L64.4153 45.175L61.9193 45.5149L54.5337 48.6605L53.6377 48.9805H53.6409Z" fill="#585136"/>
<path fill-rule="evenodd" clip-rule="evenodd" d="M56.3495 49.2718C56.3495 49.2718 53.2039 49.9713 53.2039 47.9809C53.2039 46.0391 55.1456 44.0001 55.6314 43.641C56.1363 43.2814 57.3402 42.873 57.3402 42.873H60.2432L60.7962 44.3393L60.5536 47.5041L56.3495 49.2711V49.2718Z" fill="#252211"/>
<path fill-rule="evenodd" clip-rule="evenodd" d="M59.2524 43.4662C59.2524 43.4662 58.6508 42.9126 57.2818 43.6582C55.9129 44.4038 54.8057 45.9622 54.7378 47.3773C54.67 48.6291 55.767 49.5616 57.4758 49.6102C58.7474 49.6582 59.5148 49.513 59.9033 49.4182C59.806 49.3018 59.301 48.6707 59.301 48.6707L59.253 43.4669L59.2524 43.4662Z" fill="#C3B378"/>
<path fill-rule="evenodd" clip-rule="evenodd" d="M58.6605 43.7759C58.6605 43.7759 58.5152 43.6595 58.0845 43.8924C57.7254 44.0844 57.2013 44.5919 56.7936 44.951C56.5312 45.1647 56.3661 45.2614 56.2176 45.4265C55.6153 46.1452 55.1104 47.3203 55.4022 47.9027C55.6941 48.4851 56.6547 49.1551 59.1014 48.6988L58.6534 43.7766L58.6605 43.7759Z" fill="#E6D89C"/>
<path fill-rule="evenodd" clip-rule="evenodd" d="M57.8642 44.9806C57.8642 44.9806 57.4757 45.5828 57.4757 46.5441C57.4757 47.5246 58.0293 49.0874 60.0684 49.2039C61.6312 49.3012 62.6796 46.9518 63.8156 46.0391C64.6796 45.3402 65.2037 45.3204 65.2037 45.3204C65.2037 45.3204 64.3205 44.3604 61.9615 43.1169C59.6312 41.8644 57.0194 41.6993 55.6018 43.6218C56.2719 43.5732 58.437 43.0196 58.437 43.0196L59.4956 43.3594L57.8642 44.9812V44.9806Z" fill="#252211"/>
<path fill-rule="evenodd" clip-rule="evenodd" d="M60.9126 46.2521C60.8448 46.1068 60.7961 45.9123 61.0777 45.8643C61.3593 45.8163 61.4854 45.8444 61.5827 46.0563C61.68 46.2681 61.7747 46.4447 61.6307 46.5324C61.4854 46.6099 61.1065 46.5324 60.912 46.2508L60.9126 46.2521ZM60.4563 44.8831C60.4563 44.8831 60.359 44.951 60.4077 44.8153C60.4269 44.6508 60.5536 44.359 60.864 44.4275C61.1744 44.4959 61.1072 44.8351 61.056 44.9324C61.0048 45.0297 60.7456 45.1942 60.551 45.1244C60.501 45.1116 60.4601 45.0757 60.4408 45.0278C60.4216 44.9799 60.4264 44.9257 60.4537 44.8819L60.4563 44.8831Z" fill="#6F674D"/>
<path fill-rule="evenodd" clip-rule="evenodd" d="M34.176 45.5039C34.176 45.5039 34.944 46.0799 35.8362 46.0575C36.7194 46.0377 37.8554 45.1257 38.3795 44.5426C38.6899 44.2028 38.9555 43.8438 39.2435 43.5622C39.4867 43.3196 39.6512 43.2031 39.7677 43.038C39.9328 42.846 40.1075 42.485 40.1952 42.3679C39.9815 42.533 39.6711 42.8249 39.3504 43.0188C39.04 43.2108 38.3699 43.5718 38.0979 43.669C37.8362 43.7663 35.1175 45.205 35.1175 45.205L34.176 45.5039Z" fill="#AC924C"/>
<path fill-rule="evenodd" clip-rule="evenodd" d="M35.3499 38.3302C35.3499 38.3302 35.7767 38.039 36.6023 37.854C37.3985 37.662 39.0004 37.5142 39.0004 37.5142L40.3207 38.0902L40.8449 40.0806L39.8849 42.149L38.6619 42.917L37.2731 40.6841L35.3531 38.334L35.3499 38.3302Z" fill="#9F8E57"/>
<path fill-rule="evenodd" clip-rule="evenodd" d="M33.6218 40.1068L33.1648 40.4479C33.1648 40.4479 33.2819 40.2341 33.3786 39.5839C33.4752 38.9337 33.9808 37.3509 34.7187 36.4383C35.4566 35.5257 35.4374 35.5743 35.4374 35.5743C35.3001 35.5492 35.1585 35.5844 35.049 35.6709C35.1462 35.4559 35.7677 34.6879 36.3891 34.3039C37.0106 33.9199 37.2531 33.7989 37.9034 34.1119C38.5536 34.4249 38.7187 34.5874 39.1949 34.5682C39.671 34.549 40.0781 34.0441 40.0781 34.0441C40.0781 34.0441 40.1754 34.3545 39.8163 35.0732C39.4573 35.7919 38.0397 37.2575 38.0397 37.2575L35.088 39.2767L33.6218 40.1087V40.1068Z" fill="#EAC970"/>
<path fill-rule="evenodd" clip-rule="evenodd" d="M35.8055 38.0877C35.8055 38.0877 37.9419 38.3789 38.5921 37.7773C38.6113 37.8451 38.6894 37.8451 38.6894 37.8938C38.6842 37.9304 38.6671 37.9644 38.6407 37.9904C38.7115 37.9791 38.7829 37.9727 38.8545 37.9712C38.94 37.9967 39.028 38.013 39.1169 38.0198C39.1885 38.0183 39.26 38.0117 39.3307 38C39.317 38.0975 39.2644 38.1853 39.1847 38.2432C39.282 38.2432 39.3767 38.2624 39.3767 38.3398C39.3767 38.4173 39.3959 38.6509 39.2795 38.6995C39.183 38.7262 39.0802 38.7192 38.9883 38.6797C38.996 38.8635 39.0459 39.0431 39.1342 39.2045C39.3262 39.5635 39.7358 39.9725 40.2862 39.8547C40.2862 39.8547 40.5767 40.5536 39.3537 42.1069C39.1892 42.3206 39.0139 42.6118 38.8007 42.8544C38.7165 43.038 38.6522 43.23 38.6087 43.4272C38.6087 43.4272 40.6772 42.631 41.2692 40.8154C41.8715 38.9901 41.9879 37.1942 41.8715 35.5149C41.8516 35.0387 41.7742 34.6995 41.6577 34.4563C41.3665 33.8541 40.5505 33.9514 40.2209 34.2912C39.7447 34.7674 38.9486 35.9514 37.842 36.7667C36.7156 37.5821 36.6676 37.7267 35.803 38.0877H35.8055Z" fill="#D7BC6B"/>
<path fill-rule="evenodd" clip-rule="evenodd" d="M33.243 40.7092C33.243 40.7092 32.8353 40.9518 32.6215 41.8612C32.4078 42.7931 32.8135 43.9291 33.0484 44.2881C33.2833 44.6472 33.8164 45.6283 34.9223 45.6769C35.1961 45.6755 35.4668 45.6193 35.7185 45.5118C36.1046 45.3348 36.4667 45.1096 36.7962 44.8417C37.2724 44.4827 37.6602 44.1723 37.6116 44.1428C37.4951 44.0942 34.6798 41.764 34.6798 41.764L33.6212 40.5825L33.2423 40.7105L33.243 40.7092Z" fill="#585136"/>
<path fill-rule="evenodd" clip-rule="evenodd" d="M35.9039 44.5728C35.9039 44.5728 36.4767 44.5248 36.8166 44.311C37.1564 44.0973 34.8262 41.7869 34.8262 41.7869L34.9913 44.2829L35.9039 44.5728Z" fill="#453A25"/>
<path fill-rule="evenodd" clip-rule="evenodd" d="M33.4273 40.5337C33.4273 40.5337 33.1361 41.0873 33.1361 41.2332C33.0874 41.7087 33.2334 43.2038 33.3498 43.6793C33.4663 44.1843 34.0974 44.951 34.9134 44.951C35.4177 44.951 36.1172 44.6406 36.1172 44.5631C36.1172 44.4659 35.3985 44.3711 35.2046 44.0095C35.0881 43.8175 35.0394 43.3401 35.0126 42.8575C34.9934 42.5471 34.9934 42.2073 35.1098 42.0895C35.3722 41.7983 35.4202 40.9631 35.4202 40.9631L36.3521 39.2319H35.1265L33.6602 40.1446L33.4273 40.5337Z" fill="#84754B"/>
<path fill-rule="evenodd" clip-rule="evenodd" d="M33.0681 41.0682C33.0681 41.0682 34.0281 39.7965 34.8934 39.5047C35.7587 39.2128 36.1459 39.3882 36.1459 39.3882L35.6409 40.6797L34.9222 41.4759L34.9708 41.8836C34.9708 41.8836 34.8537 42.9613 35.5724 43.7088C36.2912 44.4564 36.8249 44.4276 37.136 44.4276C37.447 44.4276 38.3398 44.1652 38.7961 43.0874C39.2038 42.0781 39.5436 40.7834 38.7283 39.4855C37.9315 38.194 36.5241 38.144 36.2521 38.144C35.9801 38.144 33.8444 38.2509 33.0681 41.0663V41.0682Z" fill="#252211"/>
<path fill-rule="evenodd" clip-rule="evenodd" d="M57.7185 45.3882C57.3594 45.223 57.6993 44.2138 58.0583 43.9027C58.4173 43.5917 58.8737 43.2333 59.6705 43.184C59.961 43.1648 60.2426 43.3491 60.1946 43.5437C60.1268 43.9027 59.6218 44.4077 59.1655 44.7667C58.5345 45.2621 58.1261 45.5725 57.7185 45.3882Z" fill="#F7F7E7"/>
<path fill-rule="evenodd" clip-rule="evenodd" d="M38.3009 39.8835C38.5633 39.8643 38.9031 40.0755 38.971 40.3597C39.0388 40.6701 38.8058 41.2915 38.3009 41.2915C37.8932 41.2915 37.6794 40.7866 37.6794 40.6413C37.684 40.5218 37.7174 40.4053 37.7767 40.3015C37.7959 40.272 37.8446 39.9322 38.3009 39.8835Z" fill="#F8F6DE"/>
<path fill-rule="evenodd" clip-rule="evenodd" d="M34.5145 40.1069C34.5145 40.1069 33.8444 40.4173 33.534 41.0669C33.3122 41.5466 33.2451 42.0834 33.342 42.6029C33.3906 42.8455 33.6332 43.4471 33.7983 43.6609C33.9634 43.8746 34.1868 44.0205 34.3519 44.0007C34.517 43.9809 34.8562 43.5444 34.8562 43.2826C34.8562 43.0209 34.8761 41.9137 35.1961 41.3114C35.4777 40.7098 34.5164 40.1076 34.5164 40.1076L34.5145 40.1069Z" fill="#D4C38B"/>
<path fill-rule="evenodd" clip-rule="evenodd" d="M34.6119 40.0582C34.4955 40.126 34.3015 40.2233 34.3495 40.3494C34.3982 40.4659 34.8059 40.5414 34.9518 40.8256C35.1169 41.1168 35.1169 41.4272 35.0683 41.5731C35.1951 41.5128 35.3101 41.4305 35.4081 41.3299C35.6219 41.0873 35.8836 40.7577 36.107 40.7577C36.2529 40.7577 36.3982 40.8256 36.5345 40.8256C36.7483 40.8256 36.9614 40.7577 36.9908 40.5344C37.0388 40.2432 36.5831 39.9808 36.3207 40.0294C36.3694 39.8374 36.4372 39.5539 36.2235 39.3593C36.0097 39.1648 35.3403 39.5052 35.1943 39.6025C35.0484 39.6998 34.6119 40.0588 34.6119 40.0588V40.0582Z" fill="#E2D59D"/>
<path fill-rule="evenodd" clip-rule="evenodd" d="M50.0391 60.4563L51.4759 60.032L51.8836 60.3232C51.8836 60.3232 52.1742 60.9446 52.6311 61.0221C52.4852 61.3325 52.1063 61.5981 52.1262 61.8182C52.146 62.0384 52.3399 62.2067 52.3399 62.2067C52.3399 62.2067 51.0484 64.3424 53.5924 66.4947C52.9902 66.7373 52.2235 67.0707 51.8158 67.2627C52.1063 67.3305 52.7278 67.4547 52.9902 67.6902C53.2526 67.9257 53.2526 68.0006 53.4951 68.1465C53.7377 68.2925 53.883 68.4864 53.835 68.5734C53.6699 68.4761 53.1163 68.1856 53.0196 68.4569C52.923 68.7283 50.6215 68.6221 50.6215 68.6221L46.738 69.3696C46.738 69.3696 46.8833 68.9811 46.4756 68.6221C46.0001 68.1952 45.4177 68.6413 44.7963 68.1657C43.9809 67.5443 43.9515 66.8256 43.6897 66.5542C43.9515 66.3891 44.4859 66.1465 45.7575 65.9782C45.7089 65.8809 45.5438 65.5897 45.6411 65.328C45.7575 64.9881 46.2427 64.7744 46.0974 64.368C46.3111 64.3193 46.4078 64.3193 46.9422 63.6493C47.4471 62.9792 47.7575 62.8339 48.146 62.7853C48.5345 62.7366 48.7675 62.7853 49.4862 62.1152C49.9905 61.6397 49.826 61.232 49.826 61.232C49.826 61.232 50.1556 61.1251 50.0398 60.455L50.0391 60.4563Z" fill="#CBAC5A"/>
<path fill-rule="evenodd" clip-rule="evenodd" d="M45.7964 60.6721C45.8156 60.5748 45.8937 60.5262 46.4179 60.5748C46.942 60.6235 50.2624 60.2644 51.1654 60.2158C52.078 60.1479 55.2915 60.1959 56.855 60.5262C58.4185 60.8564 60.0006 61.2449 60.7673 61.4388C61.5353 61.6526 61.7772 61.7294 61.7478 61.8267C61.7286 61.9239 61.5558 62.0187 61.4566 61.9918C61.36 61.9726 58.816 61.1956 58.03 61.0318C57.2441 60.8679 54.5248 60.4295 53.038 60.4558C51.6499 60.4756 51.0963 60.4366 49.9219 60.5723C48.7468 60.7182 46.8051 60.9121 46.2227 60.8347C45.6467 60.7668 45.7657 60.7668 45.7952 60.6695L45.7964 60.6721Z" fill="#D6BC6F"/>
<path fill-rule="evenodd" clip-rule="evenodd" d="M53.6116 68.2817C53.6116 68.2817 55.602 69.3594 56.3207 70.6797C56.8449 71.6602 56.0103 72.146 56.0103 72.146C56.0103 72.146 57.1367 72.146 56.9908 72.7674C56.923 73.1553 55.0491 74.2036 53.7966 74.7572C52.5249 75.3108 52.5735 75.282 51.9521 75.3786C51.3499 75.4759 49.6993 75.1866 49.3595 75.6698C49.0196 76.153 49.1675 76.6509 49.2622 76.7284C49.3595 76.7962 50.146 76.8935 50.146 76.8935C50.146 76.8935 49.9809 77.3498 48.3502 77.3985C46.7195 77.4471 46.3111 77.5629 46.2139 77.7383C46.1166 77.9028 46.5243 77.8061 47.2724 77.9303C48.0199 78.0468 49.0683 78.1223 49.0683 78.1223C49.0683 78.1223 48.7284 78.4135 47.8452 78.6465C46.8353 78.9082 45.2526 79.1514 44.7771 79.4426C45.0196 79.6077 45.3793 79.8503 45.5451 79.8695C45.1374 79.9668 44.5639 80.1805 44.4673 80.258C44.6126 80.3553 44.8071 80.4717 44.8071 80.4717C44.8071 80.4717 43.9911 81.4522 43.5156 81.6954C43.0401 81.9386 40.3022 83.2097 39.3601 82.9671C37.0107 82.3457 36.7195 79.7729 36.1467 79.5789C35.2827 79.2877 34.875 79.8695 34.1076 79.4618C34.4475 79.2193 34.6324 79.074 34.9915 78.9089C34.603 78.7169 32.5934 77.4426 32.5934 77.4426C32.3832 76.9846 32.15 76.5375 31.8945 76.1031C31.506 75.433 30.9345 74.5396 30.5057 73.753C29.5739 72.025 29.5252 71.2289 28.6804 70.2484C28.8263 70.0564 29.3307 70.0833 29.3307 70.0833L36.4091 72.4135L48.9601 72.777L52.2241 68.1172L53.6123 68.2823L53.6116 68.2817Z" fill="#DFC677"/>
<path fill-rule="evenodd" clip-rule="evenodd" d="M35.0195 75.3883C35.0953 75.4726 35.1836 75.5447 35.2813 75.602C35.5245 75.7671 35.8835 75.9617 36.1261 76.2523C36.2234 76.107 36.4659 75.8446 36.8941 76.2523C37.3223 76.6599 37.8541 76.3694 38.185 76.466C38.5248 76.5831 38.544 76.6311 38.544 76.6311C38.544 76.6311 38.736 76.466 39.1655 76.2913C39.4279 76.194 39.7383 76.1262 40.0781 76.0295C40.3885 75.9617 40.7283 75.8644 40.9619 75.8644C41.1757 76.0097 41.9424 76.8244 45.0202 75.6219C47.9232 74.4955 48.5927 74.3694 49.0784 74.5435C49.1271 74.427 49.1757 74.2036 49.9232 74.2331C49.9232 73.9227 49.3018 72.8641 49.3018 72.8641L45.8746 71.6897H44L38.3789 72.7188L35.264 74.4961L35.0215 75.3921L35.0195 75.3883Z" fill="#C4A859"/>
<path fill-rule="evenodd" clip-rule="evenodd" d="M33.1455 73.4177C33.1455 73.4177 33.2133 73.9419 33.9903 74.4955C34.7583 75.0484 34.9996 75.3787 34.9996 75.3787C34.9996 75.3787 35.1455 75.1867 35.262 74.9908C35.3785 74.7771 35.4757 74.5345 35.6697 74.4667C36.0581 74.3016 36.9413 74.612 37.1359 74.5633C37.301 74.5153 37.2524 74.1755 37.4271 74.1755C37.8348 74.1556 38.0965 74.4372 38.2425 74.4372C38.3884 74.4372 38.7468 74.418 38.7954 74.3406C38.8441 74.2632 38.8633 73.4568 39.4169 73.0683C40.0191 72.6414 40.757 72.8257 40.9529 72.923C40.9529 73.0683 40.9721 73.428 41.3605 73.4472C41.749 73.4664 41.7874 73.3985 42.1285 73.515C42.4697 73.6315 42.8761 73.4958 43.0604 74.068C43.2255 74.02 43.614 73.9713 43.5167 73.4177C43.7087 73.2724 43.8764 73.1752 44.2847 72.6024C44.382 72.4571 44.5465 72.292 44.6732 72.0782C45.013 72.0782 45.4207 72.0104 45.9641 72.4859C45.7989 72.6024 45.7017 72.6779 45.6537 72.7963C45.7958 72.937 45.9255 73.0897 46.0415 73.2526C46.1874 73.4446 46.2847 73.6801 46.469 73.7288C46.8767 73.8452 47.5468 73.6801 48.2943 73.7288C49.013 73.7774 49.6146 74.0392 49.877 74.2043C49.9743 74.1563 49.9743 74.1364 50.2169 74.1851C50.4594 74.2337 50.6437 74.2529 50.382 73.9425C50.5273 74.0104 50.6924 74.1563 50.8383 74.0104C50.9842 73.8644 51.1001 73.6513 51.5077 73.6027C51.9154 73.554 52.0613 73.6219 52.2265 73.195C52.4402 72.6708 51.7023 72.6708 51.7023 72.6708C51.7023 72.6708 52.0421 72.3598 52.421 71.9521C52.8773 71.5252 53.4015 70.9716 53.5276 70.292C53.7413 69.0395 52.5183 68.875 52.5183 68.875L46.5861 70.7003L39.3337 70.3406L33.1493 73.4184L33.1455 73.4177Z" fill="#927D49"/>
<path fill-rule="evenodd" clip-rule="evenodd" d="M27.8156 56.2816C27.8156 56.2816 27.6236 56.5242 27.5052 57.097C27.3868 57.6698 27.4373 57.602 27.34 58.0096C27.2428 58.4173 26.0479 62.4756 26.4959 63.8445C26.9439 65.2135 27.7196 65.7184 28.2047 66.825C28.302 67.0676 28.3967 67.2135 28.4472 67.4272C28.6124 68.1453 28.4671 68.6989 28.661 69.4176C28.7288 69.6602 28.9042 69.9418 29.166 70.233C29.742 70.8346 30.6808 71.4074 31.086 71.8151C31.6581 72.4173 32.4741 73.641 33.5128 73.7568C34.0664 73.8247 34.853 73.5917 35.5032 73.2039C36.0792 72.8442 36.4351 72.3399 37.0392 72.0519C37.4661 71.8381 37.9224 71.7607 38.3301 71.6634C39.1749 71.4983 39.9423 71.4714 40.3986 71.5661C41.0975 71.712 42.748 72.217 43.6626 72.217C44.3772 72.2055 45.0879 72.1077 45.7791 71.9258C47.1672 71.5181 48.8466 70.8186 49.9538 70.5082C50.604 70.3162 51.1282 70.2656 51.6626 70.1492C52.5752 69.9354 53.342 69.6442 53.7791 69.0906C53.4879 68.7508 53.1288 68.2266 51.1864 68.2458C48.9829 68.2944 46.4389 69.5175 45.1864 69.712C43.934 69.9066 43.3906 70.0711 41.9922 69.5661C40.6213 69.056 40.5759 68.7188 40.5759 68.7188C40.5759 68.7188 39.1365 67.712 38.5343 65.1456C37.932 62.5792 38.5343 60.7092 40.0978 58.9319C40.5055 58.4756 40.4082 58.0679 40.4082 58.0679C40.4082 58.0679 41.4373 56.6797 41.1557 55.3799C40.8453 54.0884 38.8549 54.3508 38.8549 54.3508L27.8162 56.2816H27.8156Z" fill="#6E6342"/>
<path fill-rule="evenodd" clip-rule="evenodd" d="M29.4757 60.6023C29.3901 60.7632 29.3499 60.9444 29.3592 61.1265C29.3784 61.3882 29.4565 61.7281 30.2424 62.4954C30.9125 63.1649 30.7666 63.9124 30.7666 63.9124C30.7666 63.9124 31.1039 63.9802 32.0191 63.5521C32.7378 63.2122 32.9791 63.8145 32.9791 63.8145C33.1883 63.7047 33.4151 63.6324 33.6492 63.6007C33.8613 63.5812 34.0666 63.5156 34.2508 63.4087C34.2508 63.4087 35.0956 64.2727 35.8335 64.6804C36.5036 65.0401 36.892 65.2826 37.2223 65.0401C37.5327 64.8263 37.5327 64.3892 37.5128 64.1953C37.4358 64.0163 37.3383 63.8468 37.2223 63.6903C37.0085 63.3799 36.6687 63.0202 36.6463 62.7303C36.5976 62.0609 37.1512 61.2641 37.0341 61.0701C36.917 60.8762 36.4812 60.8276 35.4034 61.2161C34.2872 61.5847 29.4712 60.6042 29.4712 60.6042L29.4757 60.6023Z" fill="#39331F"/>
<path fill-rule="evenodd" clip-rule="evenodd" d="M32.0192 64.942C32.0192 64.942 31.4662 64.4179 31.6601 61.8739C31.8949 61.8705 32.1293 61.8932 32.359 61.9417C32.359 61.9417 32.6605 63.9129 32.0192 64.942Z" fill="#292311"/>
<path fill-rule="evenodd" clip-rule="evenodd" d="M28.0781 54.3397C28.1553 54.2826 28.2268 54.2184 28.2919 54.1477C28.0999 54.5068 27.2135 55.9436 27.9322 58.206C28.6509 60.4581 30.4564 62.1375 32.6797 62.2156C34.9031 62.2937 36.0717 61.2057 37.408 59.5749C37.9322 58.9247 38.5344 58.1087 39.0682 57.5557C39.8644 56.6911 40.4858 56.4485 40.4858 55.614C40.4858 53.9052 38.738 53.1378 36.1652 52.3711C33.5924 51.6044 31.2717 51.6991 30.0679 52.2239C28.8935 52.7961 28.3885 53.3983 28.0775 54.3404L28.0781 54.3397Z" fill="#252211"/>
<path fill-rule="evenodd" clip-rule="evenodd" d="M36.3398 65.7087L36.5318 65.6114C36.5318 65.6114 36.5798 64.8434 36.8909 64.8639C37.2013 64.9126 37.3472 65.3209 37.3177 65.4662C37.2985 65.6114 37.2211 65.8546 36.9101 65.8252C36.5024 65.8348 36.3379 65.7087 36.3379 65.7087H36.3398Z" fill="#3F3824"/>
<path fill-rule="evenodd" clip-rule="evenodd" d="M35.4758 62.4467C35.4758 62.4467 35.6678 62.3788 35.9027 62.6118C36.0947 62.6118 36.9318 62.5145 37.1942 62.6796C37.4566 62.8448 37.5341 62.99 37.5341 62.99C37.5341 62.99 36.5536 63.2038 36.0192 62.99C35.4758 62.8057 35.4758 62.4467 35.4758 62.4467H35.4758Z" fill="#2D2815"/>
<path fill-rule="evenodd" clip-rule="evenodd" d="M39.7964 62.592C39.7964 62.5433 39.2722 62.1843 38.7186 62.0672C38.6213 62.048 38.6015 62.1158 38.5266 62.1158C38.478 62.0966 38.4588 61.9507 38.4588 61.9507L38.1439 62.1164C38.1439 62.1164 38.0953 62.1843 38.2604 62.3084C38.4057 62.4249 38.6489 62.5222 38.7167 62.7161C38.7845 62.91 38.7845 62.9779 38.814 63.0073C38.8332 63.0265 39.173 63.0073 39.3381 62.91C39.5033 62.8128 39.8143 62.654 39.7945 62.59L39.7964 62.592Z" fill="#82764F"/>
<path fill-rule="evenodd" clip-rule="evenodd" d="M34.8936 64.5633C34.8936 64.5633 34.9902 63.8939 35.6411 63.8644C36.3105 63.8158 36.4372 64.466 36.4372 64.466L36.0488 64.8545C36.0488 64.8449 35.7576 64.4372 34.8968 64.5633H34.8936Z" fill="#2D2816"/>
<path fill-rule="evenodd" clip-rule="evenodd" d="M39.1168 61.6793C39.1168 61.6793 38.7571 62.0678 37.9616 62.1843C37.8937 62.087 37.7478 61.8931 37.9616 61.5827C38.1753 61.2723 38.4179 61.175 38.6604 61.2717C38.879 61.3071 39.057 61.4662 39.1168 61.6793Z" fill="#574F35"/>
<path fill-rule="evenodd" clip-rule="evenodd" d="M40.5824 62.1554C40.6023 62.0581 40.5344 62.0389 40.5824 61.9903C40.6304 61.9417 40.8935 61.845 40.9421 61.893C40.9613 61.9129 40.9421 61.9903 40.9421 62.085C40.9421 62.1797 40.9421 62.277 40.8935 62.3468C40.8256 62.4441 40.6317 62.4927 40.5344 62.4639C40.4372 62.4351 40.418 62.2988 40.418 62.2719C40.466 62.2527 40.5824 62.2041 40.5824 62.1554ZM42.24 61.1071C42.24 61.0585 42.4052 60.9612 42.5024 60.9612C42.6477 60.9612 42.6477 61.0777 42.6676 61.1071C42.7156 61.1263 42.7156 61.0873 42.7642 61.1749C42.8128 61.2626 42.8813 61.4175 42.832 61.5148C42.7828 61.6121 42.5895 61.6793 42.5415 61.6601C42.4736 61.6114 42.2599 61.1749 42.24 61.1071Z" fill="#82764F"/>
<path fill-rule="evenodd" clip-rule="evenodd" d="M38.9031 62.3788C38.9031 62.3788 39.1168 62.4268 39.408 62.67C39.3108 62.7379 39.1648 62.8153 39.1648 62.8153C39.1648 62.8153 39.1456 62.5919 38.9031 62.3782V62.3788Z" fill="#6E6342"/>
<path fill-rule="evenodd" clip-rule="evenodd" d="M38.4276 60.2424C38.379 60.1944 38.5729 60.078 38.6894 60.0972C38.8058 60.1164 38.8545 60.1944 38.9806 60.2136C39.1066 60.2328 39.1265 60.165 39.1726 60.1164C39.2186 60.0677 39.3863 60.0972 39.4151 60.1164C39.4331 60.1377 39.4493 60.1604 39.4638 60.1842C39.4679 60.1095 39.5029 60.04 39.5604 59.9922C39.6358 59.9368 39.7325 59.9189 39.8228 59.9436C39.842 60.0114 39.9393 60.254 39.9201 60.3026C39.9009 60.3512 39.6097 60.4197 39.5604 60.3704C39.609 60.4876 39.8228 60.7301 39.8516 60.7781C39.8804 60.8261 39.6378 60.9432 39.5412 60.924C39.4055 60.9144 38.5703 60.4287 38.425 60.2444L38.4276 60.2424ZM39.6993 58.6309C39.6813 58.582 39.6469 58.5408 39.602 58.5144C39.5342 58.4952 39.3108 58.5144 39.3108 58.6309C39.3108 58.7474 39.5028 59.3989 39.7185 59.7381C39.9617 60.078 40.1262 60.3589 40.2913 60.437C40.3988 60.486 40.526 60.4435 40.5825 60.3397C40.6017 60.2911 40.6503 59.932 40.6311 59.0872C40.6119 58.2424 40.5825 57.4271 40.5338 57.3784C40.4852 57.3298 40.2913 57.3304 40.2234 57.4271C40.1556 57.5237 39.7185 58.4856 39.6986 58.6309H39.6993Z" fill="#585136"/>
<path fill-rule="evenodd" clip-rule="evenodd" d="M38.8353 63.602C38.8353 63.602 38.4955 63.3882 38.1652 63.5341C37.8548 63.68 37.874 64.2528 37.874 64.2528C38.0158 64.3084 38.1758 64.2902 38.3015 64.2042C38.5153 64.0589 38.7867 63.8164 38.8353 63.6026V63.602Z" fill="#574F35"/>
<path fill-rule="evenodd" clip-rule="evenodd" d="M39.4759 64.3692C39.4567 64.1772 39.2839 64.1772 39.2839 64.078C39.3084 63.9804 39.3964 63.9122 39.4971 63.9128C39.5943 63.9128 39.6891 64.0293 39.8081 64.1048C39.9246 64.1727 40.0993 64.2968 40.1185 64.4447C40.1377 64.5925 39.9265 64.9976 39.6916 64.9976C39.4567 64.9976 39.5265 64.5605 39.4779 64.3666L39.4759 64.3692ZM41.3499 64.1068C41.3499 64.1068 40.9614 64.2232 40.9902 64.1068C41.019 63.9903 41.1073 63.9615 41.2334 63.9615C41.2974 63.8944 41.3836 63.8528 41.4759 63.8444C41.5288 63.8418 41.5806 63.8591 41.6212 63.893C41.6212 63.893 41.8836 63.7765 41.9611 63.8444C42.0385 63.9122 41.9809 63.9122 42.0289 63.9903C42.09 64.0769 42.1301 64.1766 42.146 64.2815C42.146 64.3589 41.8548 64.524 41.6212 64.4952C41.3499 64.437 41.3979 64.1554 41.3499 64.1068ZM43.6116 63.6696C43.6116 63.6696 43.7281 63.7375 43.6315 63.8156C43.5636 63.8834 43.2238 64.0076 42.9319 64.0293C42.6407 64.0293 42.379 64.0773 42.379 63.9807C42.379 63.884 42.6215 63.6895 42.7668 63.6408C42.8258 63.5669 42.9154 63.524 43.01 63.5244C43.1265 63.5244 43.5822 63.4757 43.7089 63.4565C43.8254 63.4367 43.9227 63.5045 43.8542 63.6018C43.8254 63.6696 43.6116 63.6696 43.6116 63.6696ZM44.2817 60.6719C44.2817 60.6719 44.1358 60.9823 43.9713 60.9823C43.8062 60.9631 43.8062 60.9144 43.8062 60.8658C43.8062 60.798 43.9713 60.6232 43.9515 60.5746C43.9035 60.5746 43.7863 60.5746 43.8062 60.4581C43.8062 60.3608 43.9713 60.2444 44.1166 60.2661C44.2264 60.1759 44.363 60.1248 44.5051 60.1208C44.6702 60.1208 44.8155 60.1688 44.8155 60.2661C44.8155 60.3634 44.6235 60.5765 44.5531 60.6258C44.4756 60.7032 44.3783 60.7538 44.2817 60.6738V60.6719ZM42.0679 66.4095C42.0679 66.4095 41.8759 66.4293 41.8759 66.526C41.8759 66.5746 41.9239 66.5746 41.9924 66.5458C42.0319 66.5436 42.0709 66.5369 42.1089 66.526C42.1281 66.5458 42.1281 66.6424 42.274 66.6424C42.3938 66.6263 42.5093 66.5867 42.6139 66.526C42.7303 66.478 42.8276 66.4287 42.8276 66.334C42.779 66.1688 42.6817 66.0908 42.5364 66.0908C42.462 66.0861 42.3877 66.1029 42.3227 66.1394C42.3227 66.1394 42.274 66.0421 42.1089 66.1394C41.9438 66.2367 41.963 66.2367 42.0116 66.2853C42.0987 66.3628 42.0699 66.4133 42.0699 66.4133L42.0679 66.4095ZM40.971 67.4194C40.971 67.3708 41.2135 67.2735 41.2814 67.3029C41.3492 67.3221 41.5431 67.6908 41.5431 67.7298C41.5431 67.7784 41.3006 67.8949 41.2033 67.8949C41.106 67.8949 40.9415 67.7298 40.9415 67.7029C40.9415 67.6837 41.058 67.6549 41.058 67.6351C41.0868 67.5871 40.971 67.47 40.971 67.4213V67.4194ZM40.203 66.0018C40.2516 65.9826 40.2516 65.934 40.3195 65.8853C40.3625 65.8567 40.4164 65.8496 40.4654 65.8661C40.5 65.8043 40.5607 65.7613 40.6305 65.749C40.747 65.7298 40.8443 65.749 40.8225 65.7976C40.8225 65.9436 40.9198 66.0402 40.9198 66.1567C40.9198 66.2732 40.8519 66.4191 40.6094 66.5164C40.3668 66.5842 40.0366 66.5842 39.9879 66.565C39.9393 66.5458 39.8907 66.3512 39.9393 66.254C39.9879 66.1567 40.1236 66.0504 40.2017 66.0018H40.203Z" fill="#82764F"/>
<path fill-rule="evenodd" clip-rule="evenodd" d="M40.512 66.0679C40.512 66.0679 40.3469 66.1652 40.3469 66.2138C40.3323 66.2608 40.3258 66.3099 40.3277 66.3591C40.3277 66.3879 40.5415 66.3399 40.5703 66.3104C40.5799 66.2912 40.512 66.1184 40.512 66.0679Z" fill="#6E6342"/>
<path fill-rule="evenodd" clip-rule="evenodd" d="M39.0682 65.6116C39.1648 65.6314 39.3299 65.6116 39.456 65.6602C39.5533 65.7088 39.6211 65.8061 39.5239 65.9226C39.4266 66.0391 39.3319 66.2138 39.1162 66.1844C38.8736 66.1652 38.6407 66.0391 38.6407 65.9418C38.6324 65.8175 38.6744 65.6951 38.7571 65.602C38.8544 65.5245 38.9024 65.5732 39.0675 65.6116H39.0682Z" fill="#585136"/>
<path fill-rule="evenodd" clip-rule="evenodd" d="M38.9517 65.7087C38.9517 65.7087 38.6413 65.9513 38.5632 66.0684C38.466 66.1849 37.9904 66.7865 37.8452 66.9126C37.8934 66.8275 37.9484 66.7463 38.0096 66.67C37.8176 66.7928 37.6737 66.9779 37.602 67.1942C37.4855 67.5539 38.2528 67.7478 38.7572 67.8937C39.2615 68.0396 39.4567 68.0857 39.4567 68.0857C39.271 67.8067 39.1116 67.511 38.9805 67.2025C38.7885 66.7462 38.6893 66.6975 38.8154 66.4838C38.9127 66.27 39.0586 66.1247 39.0586 65.9596C39.0004 65.806 38.9517 65.7087 38.9517 65.7087Z" fill="#574F35"/>
<path fill-rule="evenodd" clip-rule="evenodd" d="M27.8836 66.4762C27.9543 66.4892 28.0267 66.4892 28.0974 66.4762C28.2426 66.4563 29.7575 65.9002 31.3402 66C32.5251 66.0716 33.6995 66.2646 34.8449 66.576C36.8353 67.1002 39.3108 68.1389 40.9127 68.7315C41.3396 68.896 41.7575 69.1879 42.0647 69.3037C43.2884 69.7799 43.3364 69.7799 44.0551 69.9059C44.8999 70.0224 45.7639 69.7408 46.667 69.5469C47.7735 69.3037 49.6666 69.1872 51.3268 68.9447C51.8636 68.8703 52.3931 68.7501 52.9095 68.5856C52.9095 68.5856 51.5892 69.9059 48.4238 70.3815C47.1443 70.5758 45.8441 70.5921 44.5601 70.4301C43.5502 70.3328 42.8807 70.1869 42.3758 70.0416C41.803 69.8765 40.6279 69.4394 39.1815 69.0816C38.1716 68.8192 37.0452 68.6253 35.7543 68.3827C32.5697 67.7997 29.1137 67.1303 27.8823 66.48L27.8836 66.4762Z" fill="#252211"/>
<path fill-rule="evenodd" clip-rule="evenodd" d="M24.3104 60.4761C23.5424 61.1263 22.7277 61.7478 21.9322 62.3494L19.5341 64.1919C18.7188 64.7935 17.9226 65.415 17.1066 66.0172C16.2906 66.6194 15.4759 67.1916 14.6106 67.7452C15.3786 67.095 16.1933 66.4927 17.0087 65.9007C17.824 65.3087 18.6695 64.7282 19.456 64.1279L21.8541 62.2828C22.6791 61.6812 23.4752 61.0598 24.3104 60.4774V60.4761ZM20.0679 67.2722C20.0679 67.2722 20.9319 66.5535 22.0096 65.5442C23.3492 64.2924 24.9901 62.6898 25.5143 62.3993L20.0672 67.2729L20.0679 67.2722Z" fill="#CFB66C"/>
<path fill-rule="evenodd" clip-rule="evenodd" d="M20.0679 67.2716C20.4954 66.8447 20.9517 66.4275 21.408 66.0191L22.1069 65.4175C22.3207 65.2255 22.5639 65.0099 22.777 64.7961C23.2039 64.3692 23.6218 63.9123 24.0487 63.4758C24.2603 63.2563 24.484 63.0488 24.7188 62.8543C24.8361 62.7505 24.9665 62.6622 25.1066 62.5919C25.2237 62.5241 25.3498 62.3999 25.5143 62.3782C25.4176 62.5241 25.3012 62.5919 25.2039 62.718C25.0874 62.8153 24.9901 62.9318 24.8935 63.0284C24.6797 63.2422 24.4372 63.4361 24.2234 63.6307C23.7671 64.0191 23.2916 64.3987 22.8352 64.8051C22.3789 65.2115 21.952 65.6499 21.4951 66.0575C21.0004 66.4755 20.544 66.8831 20.0679 67.2735V67.2716ZM25.874 63.3881C25.874 63.3881 22.7092 66.4857 22.0583 66.99L25.874 63.3881Z" fill="#CFB66C"/>
<path fill-rule="evenodd" clip-rule="evenodd" d="M25.874 63.3882C25.5893 63.7177 25.2841 64.029 24.9601 64.32L24.0001 65.2327C23.6897 65.5431 23.3979 65.8541 23.0683 66.1645C22.7284 66.4557 22.418 66.7405 22.0583 67.0093L22.9902 66.0967C23.3012 65.7863 23.6411 65.5245 23.9713 65.2135L24.9031 64.3008C25.2231 63.9808 25.5342 63.6698 25.874 63.3882ZM26.0193 65.0675C25.7276 65.8817 25.3838 66.6763 24.9902 67.4464C24.1748 69.0778 22.9518 71.1162 22.4174 72.1555L26.0193 65.0675Z" fill="#CFB66C"/>
<path fill-rule="evenodd" clip-rule="evenodd" d="M26.0191 65.0681C26.0191 65.4272 25.9218 65.7382 25.8053 66.0486C25.6918 66.3593 25.5623 66.6639 25.4175 66.9612C25.2716 67.2524 25.1064 67.5635 24.9413 67.8451C24.7762 68.1267 24.5823 68.4172 24.4364 68.7091L23.4559 70.4371C23.116 71.0131 22.7858 71.5923 22.4268 72.1459C22.6693 71.5244 22.9996 70.942 23.3106 70.3692C23.6504 69.7932 23.9608 69.2172 24.2706 68.6214C24.4218 68.3245 24.5579 68.0201 24.6783 67.7094C24.8236 67.3984 24.9688 67.1072 25.086 66.8256C25.2312 66.5152 25.3477 66.2233 25.4936 65.9424C25.6581 65.6409 25.7944 65.3497 26.0178 65.0681L26.0191 65.0681Z" fill="#CFB66C"/>
<path fill-rule="evenodd" clip-rule="evenodd" d="M29.4757 73.0291C29.4757 73.0291 28.5157 74.3007 28.6117 75.9123C28.8735 75.0681 29.2037 73.7766 29.4757 73.0291ZM30.3884 74.3039C30.3884 74.3039 30.0485 77.7599 29.7669 79.4591C30.165 77.495 30.2424 77.6601 30.3884 74.3039ZM36.7474 79.6633C36.7474 79.6633 35.3106 83.8873 35.2812 85.0611C35.5922 83.854 36.1938 81.3881 36.7474 79.6601V79.6633Z" fill="#DEC270"/>
<path fill-rule="evenodd" clip-rule="evenodd" d="M40.1069 72.7681C40.1069 72.7681 42.4372 76.6125 44.185 79.8938C43.7121 78.2426 42.6241 75.2141 40.1069 72.7681Z" fill="#CBAF59"/>
<path fill-rule="evenodd" clip-rule="evenodd" d="M46.3694 78.4275C47.6488 80.689 48.8026 83.0194 49.8254 85.408C49.6315 83.7574 49.1067 80.9325 46.3694 78.4275Z" fill="#E3C677"/>
<path fill-rule="evenodd" clip-rule="evenodd" d="M64.777 84.0961C65.1648 83.8535 65.9322 82.5326 66.6022 82.203C67.2717 81.8631 67.7766 81.7953 68.3789 81.1252C68.9805 80.4257 69.1469 79.9988 70.4659 79.4459C72.311 78.6491 71.0419 77.6199 71.0419 77.6199C71.2452 77.4203 71.4625 77.2355 71.6922 77.067C72.1683 76.7079 72.7213 76.2708 72.6733 75.5035C72.6054 74.2126 72.3629 72.3387 71.3043 71.2513C72.3334 71.0375 74.304 70.8923 75.5283 70.5819C76.9453 70.2222 77.5962 69.7172 77.5962 69.7172C77.5962 69.7172 76.7808 68.3291 78.1011 66.9313C79.4214 65.5335 80.4992 64.6983 81.2954 63.1348C80.3827 63.0183 78.9914 62.5332 75.4406 63.8823C75.6323 63.9725 75.8173 64.0762 75.9942 64.1927C75.9942 64.1927 73.8099 64.795 73.0138 65.4651C71.625 66.6395 71.4502 67.6007 69.9456 68.3195C68.441 69.0382 66.9261 68.8436 65.6742 69.426C64.4224 70.0084 64.2374 70.5038 63.7805 70.7175C63.8778 70.834 63.7613 71.0279 63.9456 71.1931C63.8291 71.3582 63.1494 72.4647 62.4602 72.4647C62.528 72.7271 63.1104 72.9211 63.1104 72.9211C63.1104 72.9211 62.6835 73.2321 61.5962 73.3095C62.1491 73.8855 62.6739 74.5134 64.1203 75.426C64.0038 75.6686 63.5181 76.0283 63.7126 76.4846C63.9264 76.9409 64.4806 77.5623 66.6931 78.0673C65.5667 78.1153 64.247 78.3777 62.4691 78.1351C60.6925 77.9214 60.4013 77.7953 59.3043 78.0673C59.4208 78.1838 59.7312 78.1838 60.0032 78.4942C59.712 78.5134 57.8867 78.2804 57.2653 79.0964C56.615 79.9406 56.3334 81.3294 56.3821 82.2612C56.0422 82.4263 55.712 82.7175 55.8771 83.3198C56.0422 83.922 56.9062 84.1159 57.4598 84.4942C58.0128 84.9019 58.0614 85.0471 58.5862 84.9505C59.1392 84.834 59.9546 84.2811 60.4307 84.2811C60.9069 84.2811 61.2461 84.6401 61.2461 84.6401C61.2461 84.6401 62.5376 84.0187 62.6637 84.1351C62.7802 84.2516 62.6829 84.9991 62.809 85.1156C62.937 85.2033 64.3917 84.3393 64.7802 84.0961H64.777Z" fill="#ECD592"/>
</svg>
