<svg width="120" height="120" viewBox="0 0 120 120" fill="none" xmlns="http://www.w3.org/2000/svg">
<circle cx="60" cy="60" r="60" fill="#EDF0F4"/>
<path d="M60.0151 60.7808L76.0223 51.5389L60.0151 42.2419V60.7808Z" fill="#2A3D58"/>
<path d="M60.0152 60.7808L44.0073 51.5389L60.0152 42.2419V60.7808Z" fill="#0F2631"/>
<path d="M76.0223 33L60.0151 42.2419L76.0223 51.5389V33Z" fill="#0F2631"/>
<path d="M76.022 33L92.0298 42.2419L76.022 51.5389V33Z" fill="#2A3D58"/>
<path d="M44.0072 33L28 42.2419L44.0072 51.5389V33Z" fill="#0F2631"/>
<path d="M44.0073 33L60.0152 42.2419L44.0073 51.5389V33Z" fill="#2A3D58"/>
<path d="M60.0151 86.2716L76.0223 77.0297L60.0151 67.7333V86.2716Z" fill="#2A3D58"/>
<path d="M60.0152 86.2716L44.0073 77.0297L60.0152 67.7333V86.2716Z" fill="#0F2631"/>
<path d="M76.0223 58.4915L60.0151 67.7333L76.0223 77.0297V58.4915Z" fill="#0F2631"/>
<path d="M76.022 58.4915L92.0298 67.7333L76.022 77.0297V58.4915Z" fill="#2A3D58"/>
<path d="M44.0072 58.4915L28 67.7333L44.0072 77.0297V58.4915Z" fill="#0F2631"/>
<path d="M44.0073 58.4915L60.0152 67.7333L44.0073 77.0297V58.4915Z" fill="#2A3D58"/>
</svg>
