<svg width="120" height="120" viewBox="0 0 120 120" fill="none" xmlns="http://www.w3.org/2000/svg">
<circle cx="60" cy="60" r="60" fill="black"/>
<path fill-rule="evenodd" clip-rule="evenodd" d="M60 117C91.4804 117 117 91.4804 117 60C117 28.5198 91.4804 3 60 3C28.5198 3 3 28.5198 3 60C3 91.4804 28.5198 117 60 117ZM60 120C93.1372 120 120 93.1372 120 60C120 26.8629 93.1372 0 60 0C26.8629 0 0 26.8629 0 60C0 93.1372 26.8629 120 60 120Z" fill="#57D56C"/>
<path fill-rule="evenodd" clip-rule="evenodd" d="M41.9555 54.6968H86.9999V64.248H41.9555V87H32.4045V64.248L32.3999 54.6968L32.4045 32.4H41.9555V54.6968ZM86.9999 41.9512H54.6967V32.4H86.9999V41.9512ZM54.6967 87H86.9999V77.4488H54.6967V87Z" fill="#57D56C"/>
</svg>
