<svg width="120" height="120" viewBox="0 0 120 120" fill="none" xmlns="http://www.w3.org/2000/svg">
<path d="M60 120C93.138 120 120 93.138 120 60C120 26.862 93.138 0 60 0C26.862 0 0 26.862 0 60C0 93.138 26.862 120 60 120Z" fill="#EDF0F4"/>
<path d="M61.5934 69.068V90.8558C61.5934 92.0125 60.8667 92.5663 59.9694 92.078L47.6453 85.3201C46.6476 84.6471 46.04 83.5301 46.012 82.3267V61.0366C46.1919 61.1815 46.3835 61.3077 46.5845 61.4198L61.5934 69.068Z" fill="#425CC7"/>
<mask id="mask0_1_5149" style="mask-type:luminance" maskUnits="userSpaceOnUse" x="46" y="27" width="28" height="32">
<path fill-rule="evenodd" clip-rule="evenodd" d="M46 27H73.477V58.7882H46V27Z" fill="white"/>
</mask>
<g mask="url(#mask0_1_5149)">
<path d="M47.3779 58.6566L72.1194 45.9704C72.9442 45.4493 73.456 44.5473 73.477 43.5706V28.1504C73.477 27.1947 72.8648 26.7553 72.1194 27.1362L49.3197 38.8293C46.9666 40.0912 45.8777 40.6847 46.0109 43.3509V57.6425C46.0109 58.5515 46.6325 59.0399 47.3779 58.6566Z" fill="#005CB9"/>
</g>
<path d="M47.378 41.0088L72.1195 53.695C72.9467 54.2208 73.4561 55.1251 73.4771 56.1042V71.515C73.4771 72.4708 72.8649 72.9194 72.1195 72.5385L47.378 59.85C46.5484 59.3289 46.0344 58.4246 46.011 57.4431V42.03C46.011 41.0859 46.6326 40.6256 47.378 41.0088Z" fill="#3CB4E5"/>
<path d="M47.378 58.6566L64.5858 49.8331L47.378 41.0095C47.0882 40.8179 46.712 40.8179 46.4223 41.0095C46.1722 41.4675 46.032 41.9769 46.011 42.5003V57.4415C46.0203 57.771 46.0881 58.0935 46.2119 58.3996C46.4386 58.7875 46.9363 58.9183 47.3242 58.6917C47.3406 58.68 47.3593 58.6683 47.378 58.6566Z" fill="#00A0DF"/>
</svg>
