<svg width="122" height="122" viewBox="0 0 122 122" fill="none" xmlns="http://www.w3.org/2000/svg">
<circle cx="60.6187" cy="60.6187" r="60" fill="black" stroke="black" stroke-width="1.2373"/>
<path fill-rule="evenodd" clip-rule="evenodd" d="M22.8813 32.1787C22.9024 32.1366 24.9895 29.9019 27.5194 27.2455L32.0942 22.3544L33.0218 23.261C33.5278 23.7669 35.6571 25.7908 37.7442 27.7726C38.7466 28.7344 39.7537 29.6914 40.5813 30.4777C41.477 31.3287 42.1623 31.9798 42.4034 32.2209L43.2678 33.0642L44.0267 32.6004C44.4484 32.3474 45.5236 31.7571 46.4512 31.3144C49.6557 29.7121 52.7969 28.7634 56.6339 28.2153C58.2362 27.9834 63.4224 28.0255 65.1511 28.2785C68.4821 28.7634 71.3493 29.6278 74.4273 31.0403C75.4392 31.5041 77.2523 32.495 77.9691 32.9799C78.2221 33.1696 78.4962 33.2961 78.5383 33.275C78.6016 33.2539 80.9628 30.8084 83.8089 27.8358C86.655 24.8421 89.0373 22.4177 89.1216 22.4177C89.2481 22.4177 98.7351 31.3776 98.8194 31.5884C98.8405 31.6517 96.4161 34.2448 93.4435 37.3439L88.0253 43.015L88.4259 43.7107C89.2481 45.1021 90.6606 48.138 91.1244 49.4872C94.3289 58.7002 93.2959 68.6932 88.3416 76.9363L87.7513 77.9061L89.0373 79.1289C92.9164 82.7761 99.2622 88.8688 99.2832 88.9321C99.3043 89.0586 90.0492 98.7353 89.9649 98.6932C89.8806 98.651 81.4477 90.6397 79.1919 88.4472L78.1589 87.4352L77.1891 88.0256C73.4575 90.2813 68.9038 91.8204 64.3078 92.3474C61.9255 92.6426 57.6669 92.5371 55.4322 92.1366C50.9839 91.3355 46.9572 89.8175 43.5208 87.625L42.8461 87.2033L42.1293 87.9201C41.7499 88.3207 39.2411 90.956 36.5636 93.7599L31.6936 98.8407L31.3774 98.5667C30.5552 97.892 21.9326 89.5646 21.9537 89.5013C21.9607 89.4942 22.037 89.4132 22.1737 89.2681C22.8525 88.5471 25.0203 86.2448 27.5826 83.5772C30.6606 80.3516 33.2116 77.6531 33.2537 77.5688C33.2959 77.4844 33.1061 77.0206 32.6845 76.3038C31.8201 74.8492 30.8082 72.6355 30.2179 70.9068C27.0766 61.7571 28.1097 51.8063 33.1061 43.5421L33.6754 42.5934L33.3591 42.2982C33.2283 42.1838 31.7284 40.7509 29.754 38.8647C29.1822 38.3185 28.5706 37.7343 27.941 37.1331C25.1371 34.4767 22.8602 32.242 22.8813 32.1787ZM72.0239 44.4697C69.2622 42.5301 66.2685 41.3917 62.9164 40.9911C54.8208 40.0213 46.9572 44.2799 43.331 51.5744C42.4245 53.4296 41.9396 54.7578 41.5812 56.613C41.2017 58.4894 41.2017 62.0312 41.5812 63.9286C42.7829 69.8948 46.5355 74.8702 51.8482 77.5899C59.2059 81.3425 67.9551 80.0775 74.0057 74.4275C81.0893 67.7866 82.1645 56.9504 76.5355 48.9813C75.5447 47.5688 73.4364 45.4605 72.0239 44.4697Z" fill="white"/>
</svg>
