<svg width="120" height="120" viewBox="0 0 120 120" fill="none" xmlns="http://www.w3.org/2000/svg">
<rect width="120" height="120" rx="60" fill="#181818"/>
<path d="M30.4625 55.718H22V50.6622H30.4625C30.4625 50.5237 30.4625 50.4089 30.4625 50.2941C30.4842 48.8185 30.4474 47.3417 30.5401 45.8687C30.7183 43.0403 31.4437 40.3752 33.147 38.05C34.9305 35.6153 37.3887 34.2224 40.2823 33.5269C42.64 32.9614 45.0298 32.9036 47.4348 33.1077C49.9248 33.3237 52.3723 33.886 54.7063 34.7781C54.8378 34.828 54.9693 34.8837 55.1292 34.9487L53.6981 39.5138C53.3588 39.3826 53.0405 39.2514 52.7163 39.1319C49.6306 37.9858 46.4457 37.6885 43.2101 38.1911C39.5274 38.7613 37.3039 41.0779 36.6995 44.7619C36.4812 46.0984 36.4989 47.4401 36.4983 48.7844C36.4983 49.3939 36.4983 50.0041 36.4983 50.6464H51.4885V55.6872H36.5233V86.9173H30.4625V55.718Z" fill="white"/>
<path fill-rule="evenodd" clip-rule="evenodd" d="M62.0896 85.6791L62.086 85.682C61.5305 86.1292 60.9782 86.574 60.4507 87C52.0119 79.3434 51.0734 64.6337 60.4171 55.7318C60.9762 56.1797 61.5564 56.6505 62.138 57.1223L62.1381 57.1225C62.5711 57.4738 63.0048 57.8257 63.4311 58.1692L63.3699 58.2393C63.1292 58.5147 62.8996 58.7775 62.6728 59.0431C60.6342 61.432 59.2216 64.0662 58.6257 67.1656C58.2502 69.1194 58.1812 71.0877 58.3193 73.0704C58.4751 75.3012 58.9901 77.4413 59.9496 79.4687C60.7853 81.2126 61.8708 82.826 63.172 84.2582C63.2287 84.3182 63.2824 84.3791 63.3483 84.4538C63.381 84.491 63.4168 84.5315 63.4574 84.577C63.0075 84.9401 62.5475 85.3104 62.0896 85.6791ZM78.9303 71.4171C78.9179 71.3961 78.9074 71.3742 78.8987 71.3515C78.9075 71.3288 78.9181 71.3069 78.9303 71.2859C79.8108 69.7012 80.7115 68.0677 81.6074 66.4429L81.6077 66.4425C82.2106 65.3491 82.8113 64.2596 83.4022 63.1916C83.6694 62.7077 83.9469 62.2193 84.2285 61.7238C84.5428 61.1705 84.8622 60.6084 85.1779 60.0338H79.4564C79.4564 60.0338 76.9258 65.6762 75.7736 68.193H75.6421C74.3696 65.6598 71.6305 60.0338 71.6305 60.0338L65.6099 60.001C65.694 60.1598 69.9799 67.8131 71.9593 71.2859C71.9732 71.3101 71.985 71.3318 71.9955 71.3515L71.9593 71.4171C69.9799 74.8399 65.6283 82.6448 65.5441 82.801L71.6305 82.7688C71.6305 82.7688 74.3696 77.2229 75.6421 74.7297H75.7736C76.9258 77.2097 79.4564 82.7721 79.4564 82.7721H85.2436C85.0728 82.466 84.6083 81.628 83.9969 80.5251L83.9943 80.5205L83.9941 80.5201C82.4538 77.7415 79.9842 73.2866 78.9303 71.4171ZM88.7765 85.7644C88.2838 85.3676 87.7877 84.9681 87.3033 84.577C87.321 84.5567 87.3377 84.5374 87.3537 84.5189C87.4457 84.4127 87.5133 84.3347 87.5861 84.2582C88.8871 82.8258 89.9725 81.2124 90.8085 79.4687C91.768 77.4413 92.2823 75.3012 92.4382 73.0704C92.5763 71.0877 92.5072 69.1194 92.1317 67.1656C91.5366 64.0662 90.1239 61.432 88.0853 59.0431C87.8387 58.7551 87.5901 58.4704 87.327 58.1692C87.8129 57.7784 88.3087 57.3768 88.8016 56.9776C89.324 56.5544 89.8431 56.1339 90.3436 55.7318C99.6873 64.6337 98.7482 79.3434 90.3094 87C89.8143 86.6001 89.2973 86.1838 88.7765 85.7644Z" fill="#F7D509"/>
</svg>
