<svg width="120" height="120" viewBox="0 0 120 120" fill="none" xmlns="http://www.w3.org/2000/svg">
<circle cx="60" cy="60" r="60" fill="#B3B3B3"/>
<path fill-rule="evenodd" clip-rule="evenodd" d="M25.3012 26.2178C30.2152 21.078 39.191 20.8737 44.2716 25.8683C49.5763 31.0529 54.8245 36.2868 60.0162 41.5699C62.6997 39.0208 65.2984 36.3894 67.897 33.758C70.653 30.9672 73.4091 28.1764 76.2662 25.4839C81.5485 20.7151 90.5136 21.2903 95.2152 26.6344C100.024 31.6721 99.9464 40.4651 94.9464 45.3575C91.2481 49.1236 87.5164 52.8478 83.7833 56.5733L83.7821 56.5746L83.7787 56.5779C82.3279 58.0258 80.8769 59.4739 79.4275 60.9248C81.7751 63.345 84.167 65.7225 86.56 68.1009L86.5601 68.101C89.5626 71.0853 92.5667 74.0711 95.4867 77.1452C100.196 82.3092 99.7447 91.0995 94.6453 95.8468C89.6211 100.917 80.6211 100.93 75.6076 95.8468C72.6096 92.9105 69.6488 89.9263 66.6891 86.9431L66.6888 86.9428L66.6879 86.942C64.4997 84.7364 62.3121 82.5314 60.1103 80.3468C57.64 82.7234 55.2212 85.1521 52.8019 87.5813L52.8018 87.5814C49.8057 90.5897 46.8089 93.5988 43.7125 96.5108C38.363 101.258 29.3388 100.543 24.7313 95.1022C20.0915 90.0753 20.2017 81.5081 25.0458 76.6371C29.5942 71.9705 34.2232 67.3817 38.8657 62.8307C39.8375 63.7998 40.8099 64.7722 41.7824 65.7446C42.7548 66.7171 43.7273 67.6895 44.699 68.6586C42.7453 70.6769 40.748 72.6576 38.7499 74.6391L38.7498 74.6393C36.0933 77.2736 33.4354 79.9094 30.8765 82.6371C27.8523 85.7366 30.5162 91.5081 34.7636 91.4409C37.033 91.6401 38.6832 90.0046 40.1903 88.511C40.3916 88.3115 40.5904 88.1145 40.7878 87.9248C43.0268 85.6436 45.2837 83.3831 47.5404 81.1226L47.5407 81.1223C49.757 78.9024 51.9732 76.6825 54.1722 74.4436C50.0137 70.2493 45.8264 66.0793 41.6388 61.909L41.6388 61.909C36.0814 56.3746 30.5237 50.8398 25.0324 45.2473C20.0082 40.1855 20.1668 31.1559 25.3012 26.242V26.2178ZM30.9195 39.3656C34.1598 42.7454 37.4776 46.0434 40.7973 49.3434C42.7267 51.2614 44.6568 53.18 46.5727 55.1156C49.0817 52.5672 51.6139 50.035 54.1695 47.5188C52.9444 46.2846 51.7206 45.0476 50.4965 43.8102C46.6788 39.9512 42.8582 36.0892 38.9867 32.3011C37.3576 30.543 34.57 29.8817 32.4437 31.1506C29.4867 32.5834 28.5566 36.9785 30.9141 39.3683L30.9195 39.3656ZM64.5737 48.8214C70.0302 43.3377 75.486 37.8547 81.0055 32.4355H81.0028C82.5646 30.6774 85.2071 29.8898 87.3765 31.0054C90.5996 32.336 91.613 37.0377 89.0835 39.4946C86.2803 42.4887 83.3586 45.3668 80.4373 48.2445C78.1339 50.5135 75.8308 52.7823 73.5861 55.1076C71.6076 53.2124 69.6748 51.285 67.7421 49.3575C65.8137 51.311 63.8774 53.2572 61.9329 55.1963C70.4275 63.7213 78.9401 72.2285 87.4706 80.7178C89.2824 82.3979 91.199 84.707 90.3576 87.3791C89.5727 91.1533 84.2904 92.8925 81.57 90.0269C77.6502 86.335 73.8754 82.4995 70.1008 78.6642C68.7112 77.2522 67.3216 75.8403 65.9248 74.4355C67.8576 72.5188 69.7689 70.6022 71.6668 68.664C70.3621 67.379 69.0681 66.0832 67.7745 64.7879C67.1278 64.1403 66.4812 63.4928 65.8335 62.8468L65.8314 62.8488C63.91 64.7756 61.9887 66.7023 60.0566 68.6076C57.5404 66.0377 54.9679 63.5242 52.3818 61.0215C56.4638 56.9716 60.519 52.8963 64.5737 48.8214Z" fill="url(#paint0_linear_1_7940)"/>
<defs>
<linearGradient id="paint0_linear_1_7940" x1="98.7613" y1="99.6694" x2="98.7613" y2="22.2393" gradientUnits="userSpaceOnUse">
<stop stop-color="#2F75BB"/>
<stop offset="1" stop-color="#0A4185"/>
</linearGradient>
</defs>
</svg>
