<svg width="120" height="120" viewBox="0 0 120 120" fill="none" xmlns="http://www.w3.org/2000/svg">
<circle cx="60" cy="60" r="60" fill="#EDF0F4"/>
<path d="M79.9064 59.9418C75.9089 59.0969 62.3911 56.7736 48.0284 64.1114C35.8952 70.3149 29.9185 79.9526 27.8064 83.7936C15.8374 67.3735 17.887 44.5856 32.2028 30.9191C45.8458 17.8863 67.3273 16.2826 83.1529 27.391C79.7656 29.597 76.3705 31.7953 72.9832 34.0013C70.8319 32.9061 67.3273 31.4432 62.8135 30.9895C53.8329 30.0821 47.0896 33.7666 44.9383 35.0574C43.1078 36.1604 34.3071 41.7302 31.5613 53.089C29.7073 60.7632 31.577 67.0997 32.5 69.6969C33.5796 68.367 34.9329 66.8885 36.607 65.41C37.8039 64.3539 38.9774 63.4621 40.0569 62.7189C39.7909 60.6302 39.4858 55.8348 42.0439 50.8438C45.2513 44.5934 52.0649 39.7589 60.1068 39.8293C68.9388 39.9075 75.8151 45.8842 78.4905 52.3458C79.7499 55.3733 79.9377 58.1582 79.9064 59.9418Z" fill="#041742"/>
<path fill-rule="evenodd" clip-rule="evenodd" d="M79.5935 94.8942C71.755 99.3297 64.1121 100.073 59.2932 99.9946C47.778 99.8147 39.6266 94.7221 36.5288 92.5473C38.2498 91.4247 39.9708 90.3041 41.6918 89.1835C43.4129 88.0629 45.1339 86.9423 46.8549 85.8197C58.0416 91.5069 71.7081 89.3321 80.5713 80.461C89.4268 71.5978 91.5937 57.9626 85.93 46.7838C87.0291 45.0979 88.1262 43.4102 89.2234 41.7224C90.3205 40.0346 91.4177 38.3468 92.5168 36.661C94.5586 39.5398 100.144 48.1997 99.9641 60.5128C99.7607 74.3671 92.3838 83.5823 90.2325 86.0935C88.1595 88.5264 84.7096 91.9997 79.5935 94.8942ZM57.1107 64.1896C51.134 65.9262 46.5577 68.7816 43.4129 71.2379C44.4142 72.7399 46.7611 75.8065 50.9619 77.9264C54.7012 79.8117 58.1276 80.0386 59.9112 80.0386C61.601 80.0464 67.1708 79.8509 72.3574 75.7752C78.0837 71.277 79.3901 65.1518 79.6717 63.6107C77.1371 63.0787 73.656 62.5468 69.502 62.5546C67.0691 62.5624 62.571 62.6015 57.1107 64.1896Z" fill="url(#paint0_linear_1_1054)"/>
<defs>
<linearGradient id="paint0_linear_1_1054" x1="74.866" y1="125.907" x2="127.345" y2="70.2059" gradientUnits="userSpaceOnUse">
<stop stop-color="#0E9DE5"/>
<stop offset="0.1857" stop-color="#10A3DC"/>
<stop offset="0.4884" stop-color="#17B4C4"/>
<stop offset="0.8684" stop-color="#22D09C"/>
<stop offset="1" stop-color="#26DB8D"/>
</linearGradient>
</defs>
</svg>
