<svg width="120" height="120" viewBox="0 0 120 120" fill="none" xmlns="http://www.w3.org/2000/svg">
<circle cx="60" cy="60" r="60" fill="#EDF0F4"/>
<path fill-rule="evenodd" clip-rule="evenodd" d="M44.2801 77.976L25.9281 80.04L36.7041 55.176L25.6721 40.136L52.4961 37.08L59.7841 20.32L75.7521 42.024L94.1041 39.96L83.3761 64.704L94.3281 79.64L67.6401 82.68L60.2401 99.68L44.2801 77.976ZM51.9041 76.328C51.2001 76.672 50.4481 76.96 49.6721 77.176L48.9681 77.368L59.3121 91.432L62.9841 82.984L62.3201 82.896C58.7041 82.44 55.4161 80.488 53.2961 77.56L52.2641 76.136L51.9041 76.328ZM56.6481 75.12L48.3041 63.576L59.0881 62.224L69.8881 76.52L76.0961 62.496L76.6081 62.92C77.1601 63.384 77.6561 63.912 78.0881 64.496L86.7601 76.328L64.9841 78.808C64.6561 78.848 64.3201 78.864 63.9841 78.864C61.0881 78.864 58.3441 77.464 56.6481 75.12ZM48.6641 49.52C45.4321 49.864 42.6161 51.936 41.3201 54.928L32.5761 75.112L47.1041 73.48C47.8241 73.4 48.5281 73.232 49.2081 72.984L49.8321 72.752L40.8401 60.336L58.5681 58.088L62.7841 48.016L48.6641 49.52ZM68.9521 68.4L62.3841 59.704L69.3121 43.152L54.1201 44.76L54.2321 44.104C54.3601 43.384 54.5681 42.688 54.8561 42.024L60.7121 28.568L73.7281 46.28C75.6641 48.904 76.0401 52.384 74.7201 55.368L72.9601 59.352L68.9521 68.4ZM78.3441 45.912L78.6001 46.528C80.0081 49.896 79.9761 53.736 78.5041 57.056L77.7921 58.656L78.1361 58.888C78.7921 59.328 79.4081 59.84 79.9761 60.408L80.4961 60.92L87.4481 44.88L78.3441 45.912ZM38.7761 51L33.2401 43.448L50.6401 41.464L50.4401 42.184C50.2081 43.032 50.0561 43.904 50.0001 44.776L49.9681 45.2L48.2321 45.384C44.6881 45.76 41.3841 47.616 39.1841 50.472L38.7761 51Z" fill="url(#paint0_linear_1_4698)"/>
<path d="M56.128 100C44.608 98.888 34.256 92.896 27.48 83.4L32.12 82.88C32.888 83.824 33.704 84.728 34.544 85.576C39.576 90.632 45.872 94.04 52.776 95.448L56.128 100Z" fill="url(#paint1_linear_1_4698)"/>
<path d="M65.792 95.704C73.264 94.496 80.056 91 85.456 85.576C85.936 85.088 86.424 84.568 86.912 84.024L92.536 83.384C85.784 92.872 75.448 98.872 63.928 100L65.792 95.704Z" fill="url(#paint2_linear_1_4698)"/>
<path d="M93.6799 72.824C95.2159 68.736 95.9999 64.424 95.9999 60C95.9999 56.096 95.3839 52.256 94.1759 48.592L96.4319 43.392C98.7999 48.616 99.9999 54.2 99.9999 60C99.9999 65.792 98.7999 71.368 96.4399 76.592L93.6799 72.824Z" fill="url(#paint3_linear_1_4698)"/>
<path d="M23.584 76.648C21.208 71.408 20 65.816 20 60C20 54.152 21.216 48.528 23.624 43.272L26.376 47.032C24.8 51.16 24 55.52 24 60C24 63.92 24.616 67.768 25.832 71.448L23.584 76.648Z" fill="url(#paint4_linear_1_4698)"/>
<path d="M27.6479 36.368C34.4159 27.024 44.6879 21.104 56.1039 20L54.2399 24.288C46.7599 25.488 39.9519 28.992 34.5439 34.424C34.1359 34.832 33.7279 35.272 33.3199 35.72L27.6479 36.368Z" fill="url(#paint5_linear_1_4698)"/>
<path d="M87.8881 37.12C87.1201 36.176 86.3041 35.272 85.4561 34.424C80.4321 29.376 74.1441 25.968 67.2561 24.56L63.9041 20C75.4161 21.12 85.7521 27.112 92.5201 36.6L87.8881 37.12Z" fill="url(#paint6_linear_1_4698)"/>
<defs>
<linearGradient id="paint0_linear_1_4698" x1="54.679" y1="128.264" x2="124.608" y2="75.9266" gradientUnits="userSpaceOnUse">
<stop stop-color="#009DDE"/>
<stop offset="0.5" stop-color="#694D9F"/>
<stop offset="1" stop-color="#ED3554"/>
</linearGradient>
<linearGradient id="paint1_linear_1_4698" x1="86.7034" y1="117.653" x2="113.525" y2="42.549" gradientUnits="userSpaceOnUse">
<stop stop-color="#009DDE"/>
<stop offset="0.5" stop-color="#694D9F"/>
<stop offset="1" stop-color="#ED3554"/>
</linearGradient>
<linearGradient id="paint2_linear_1_4698" x1="106.014" y1="134.932" x2="131.289" y2="60.0096" gradientUnits="userSpaceOnUse">
<stop stop-color="#009DDE"/>
<stop offset="0.5" stop-color="#694D9F"/>
<stop offset="1" stop-color="#ED3554"/>
</linearGradient>
<linearGradient id="paint3_linear_1_4698" x1="51.8968" y1="274.365" x2="116.472" y2="272.025" gradientUnits="userSpaceOnUse">
<stop stop-color="#009DDE"/>
<stop offset="0.5" stop-color="#694D9F"/>
<stop offset="1" stop-color="#ED3554"/>
</linearGradient>
<linearGradient id="paint4_linear_1_4698" x1="15.4859" y1="237.354" x2="80.0755" y2="234.997" gradientUnits="userSpaceOnUse">
<stop stop-color="#009DDE"/>
<stop offset="0.5" stop-color="#694D9F"/>
<stop offset="1" stop-color="#ED3554"/>
</linearGradient>
<linearGradient id="paint5_linear_1_4698" x1="57.4388" y1="85.6569" x2="82.2036" y2="10.8071" gradientUnits="userSpaceOnUse">
<stop stop-color="#009DDE"/>
<stop offset="0.5" stop-color="#694D9F"/>
<stop offset="1" stop-color="#ED3554"/>
</linearGradient>
<linearGradient id="paint6_linear_1_4698" x1="73.1491" y1="104.178" x2="100.033" y2="29.0677" gradientUnits="userSpaceOnUse">
<stop stop-color="#009DDE"/>
<stop offset="0.5" stop-color="#694D9F"/>
<stop offset="1" stop-color="#ED3554"/>
</linearGradient>
</defs>
</svg>
