<svg width="120" height="120" viewBox="0 0 120 120" fill="none" xmlns="http://www.w3.org/2000/svg">
<circle cx="60" cy="60" r="60" fill="#EDF0F4"/>
<path opacity="0.2" d="M38.3892 79.99L41.7313 90L64.6725 60L41.7313 30L38.2263 39.7928L53.4652 59.9946L38.3892 79.99Z" fill="#FF564F"/>
<path d="M87.2905 89.9946H76.4036L53.457 59.9946L76.4036 30H87.2905L64.667 59.9946L87.2905 89.9946Z" fill="#F08179"/>
<path d="M33 30H41.7258V89.9946H33V30Z" fill="#FF564F"/>
<path d="M87.2986 89.9946H76.4117L53.4651 59.9946L76.4117 30H87.2986L64.675 59.9946L87.2986 89.9946Z" fill="#FF564F"/>
<path d="M87.2986 89.9946H76.4117L53.4651 59.9946L76.4117 30H87.2986L64.675 59.9946L87.2986 89.9946Z" fill="#FF564F"/>
<path d="M87.2986 89.9946H76.4117L53.4651 59.9946L76.4117 30H87.2986L64.675 59.9946L87.2986 89.9946Z" fill="#FF564F"/>
<path d="M87.2986 89.9946H76.4117L53.4651 59.9946L76.4117 30H87.2986L64.675 59.9946L87.2986 89.9946Z" fill="#FF564F"/>
</svg>
