<svg width="120" height="120" viewBox="0 0 120 120" fill="none" xmlns="http://www.w3.org/2000/svg">
<circle cx="60" cy="60" r="60" fill="#EDF0F4"/>
<path d="M56.0004 59.5213L81.0004 73.8413C81.4094 74.0872 81.9194 74.0931 82.3341 73.8567C82.7487 73.6203 83.0035 73.1785 83.0004 72.7013V46.3213C83.0064 45.843 82.7513 45.3995 82.3349 45.1642C81.9185 44.9289 81.4069 44.9393 81.0004 45.1913L56.0004 59.5213Z" fill="#31CB9E"/>
<path d="M80.4704 38.8513L63.3804 26.2813C63.021 26.0054 62.5479 25.9265 62.1185 26.071C61.6891 26.2155 61.3599 26.5643 61.2404 27.0013L55.0004 55.0013L80.3204 41.0013C80.7122 40.7997 80.9703 40.4081 81.0009 39.9685C81.0316 39.5289 80.8304 39.1053 80.4704 38.8513Z" fill="#31CB9E"/>
<path d="M63.3604 92.7512L80.4704 80.1812C80.8352 79.9248 81.0403 79.497 81.0117 79.052C80.9831 78.6069 80.725 78.2089 80.3304 78.0012L55.0004 64.0012L61.2404 92.0012C61.3455 92.4431 61.6659 92.8025 62.0928 92.9576C62.5198 93.1127 62.9961 93.0427 63.3604 92.7712" fill="#31CB9E"/>
<path d="M49.5004 59.0013L56.0004 28.6013C56.1019 28.086 55.8809 27.5606 55.4416 27.2728C55.0022 26.985 54.4322 26.9923 54.0004 27.2913L37.3504 40.0613C36.4958 40.717 35.9964 41.7342 36.0004 42.8113V75.2113C35.9838 76.3025 36.4845 77.3372 37.3504 78.0013L53.9204 90.7313C54.3522 91.0303 54.9222 91.0376 55.3616 90.7498C55.8009 90.4621 56.0219 89.9366 55.9204 89.4213L49.5004 59.0013Z" fill="#31CB9E"/>
</svg>
