<svg width="120" height="120" viewBox="0 0 120 120" fill="none" xmlns="http://www.w3.org/2000/svg">
<circle cx="60" cy="60" r="60" fill="#EDF0F4"/>
<circle cx="60" cy="60" r="40" fill="white"/>
<path fill-rule="evenodd" clip-rule="evenodd" d="M18.425 60C18.425 37.0388 37.0388 18.425 60 18.425C82.9612 18.425 101.575 37.0388 101.575 60C101.575 82.9612 82.9612 101.575 60 101.575C37.0388 101.575 18.425 82.9612 18.425 60ZM97.1213 60C97.1213 39.4984 80.5016 22.8786 60 22.8786C39.4984 22.8786 22.8786 39.4984 22.8786 60C22.8786 80.5016 39.4984 97.1213 60 97.1213C80.5016 97.1213 97.1213 80.5016 97.1213 60Z" fill="#EB1A6B"/>
<path d="M69.837 67.3679C70.8839 68.1185 71.4172 68.5728 72.0098 68.9481C75.6049 71.3383 79.516 71.5753 82.0641 69.1654C84.7703 66.5383 84.9876 63.2395 83.7234 59.8617C82.3802 56.0296 79.2197 53.7185 75.4073 54.3111C73.6888 54.6074 71.6542 55.8914 70.6863 57.3136C68.2962 60.7704 67.4666 65.1951 63.4962 67.5062C62.9629 67.8025 63.1209 69.521 63.1209 70.5877C63.1999 78.0938 57.7283 83.8617 49.8468 84.6123C43.6246 85.2049 34.3209 80.1877 34.3999 73.2148C37.6987 74.7161 40.8394 76.8099 44.3752 77.5605C47.2987 78.2321 50.8147 77.9358 53.7579 76.9679C57.59 75.684 59.3876 72.0099 58.9332 68.7111C58.4789 65.8667 57.353 65.1161 51.5851 64.1284C51.2098 62.4691 50.8345 60.6716 50.4592 58.6568C51.0518 58.5778 51.5061 58.4395 51.9604 58.4395C54.5876 58.2222 57.432 58.1432 57.6493 54.4691C57.8666 51.5457 55.1011 48.0889 51.8814 48.4049C48.7407 48.7012 45.8172 50.3605 42.2024 51.6247C41.5308 50.5778 40.4049 48.8593 39.3579 47.121C43.9407 41.7284 51.4271 40.6815 56.8987 44.6519C61.916 48.2469 62.3703 54.0346 57.9456 60.7704C59.2295 61.9753 60.4937 63.1605 62.2913 64.8988C62.8839 63.1012 63.1999 61.8173 63.6345 60.6321C64.2271 58.9136 64.6814 57.037 65.6493 55.4568C68.0394 51.3284 71.3579 48.484 76.5135 49.0765C81.5308 49.6691 84.0987 52.6519 86.0147 57.3136C88.1086 62.7654 87.2592 66.8741 86.0147 69.9951C84.7703 73.1161 80.1876 76.2963 76.8888 75.763C72.5431 75.0914 70.074 72.3259 69.837 67.3679Z" fill="black"/>
<path d="M55.3777 38.6469C62.2715 43.4469 68.3555 42.7753 74.4987 38.5679C75.6246 40.3654 76.5925 41.8666 77.5802 43.3679C70.2913 49.0765 58.4394 46.1531 55.3777 38.6469Z" fill="black"/>
<path d="M60.8494 35.8815C62.1926 34.2222 63.2395 33.0371 64.5234 31.5358C66.0247 33.1161 66.9926 34.163 68.1975 35.5062C67.0716 36.7901 66.0247 37.8963 64.6815 39.3383C63.3975 38.2124 62.2716 37.1457 60.8494 35.8815Z" fill="#F01871"/>
</svg>
