<svg width="120" height="120" viewBox="0 0 120 120" fill="none" xmlns="http://www.w3.org/2000/svg">
<path d="M60 120C93.138 120 120 93.138 120 60C120 26.862 93.138 0 60 0C26.862 0 0 26.862 0 60C0 93.138 26.862 120 60 120Z" fill="#EDF0F4"/>
<path fill-rule="evenodd" clip-rule="evenodd" d="M17 60C17 36.2518 36.2518 17 60 17C83.7482 17 103 36.2518 103 60C103 83.7482 83.7482 103 60 103C36.2518 103 17 83.7482 17 60ZM97 60C97 39.5655 80.4345 23 60 23C39.5655 23 23 39.5655 23 60C23 80.4345 39.5655 97 60 97C80.4345 97 97 80.4345 97 60Z" fill="#3740C2"/>
<path d="M65.8542 43.546C65.2417 42.9334 64.4102 42.5901 63.5439 42.5923H63.5355C62.6673 42.5921 61.8354 42.9404 61.2264 43.5592L35.6996 69.2079C35.0856 69.8209 34.7421 70.654 34.7459 71.5217C34.7481 72.3954 35.0913 73.2165 35.7104 73.8332C36.3215 74.4458 37.1518 74.7891 38.0171 74.787C38.8932 74.787 39.719 74.444 40.3382 73.8237L65.8637 48.1738C67.1357 46.8918 67.1314 44.8227 65.8542 43.546H65.8542Z" fill="#2DB8E3"/>
<path d="M80.6745 42.9042C79.4505 42.393 78.0388 42.6763 77.1068 43.6201L51.5777 69.2712C50.3044 70.553 50.3098 72.6238 51.5896 73.899C52.8721 75.172 54.9433 75.1661 56.2186 73.8858L76.1519 53.8569V71.5779C76.1532 73.3847 77.6175 74.849 79.4243 74.8503C81.2311 74.849 82.6954 73.3847 82.6967 71.5779V45.9292C82.7006 44.6034 81.9011 43.4074 80.6745 42.9042H80.6745Z" fill="#3840C7"/>
</svg>
