<svg width="120" height="120" viewBox="0 0 120 120" fill="none" xmlns="http://www.w3.org/2000/svg">
<path d="M118.204 74.5158C110.188 106.657 77.6408 126.219 45.4842 118.204C13.3433 110.188 -6.20374 77.6252 1.81195 45.4842C9.81203 13.3433 42.3748 -6.21936 74.5001 1.79634C106.657 9.81204 126.219 42.3748 118.204 74.5158Z" fill="#0007BC"/>
<path fill-rule="evenodd" clip-rule="evenodd" d="M96.0317 63.6562L95.2817 62.4531L83.2191 43.3435C82.266 41.8591 81.0159 40.5935 79.5472 39.6247C76.8128 37.8903 73.469 37.3434 70.3283 38.1247C67.2189 38.8747 64.5627 40.8591 62.9533 43.6248C62.1408 44.9685 61.1251 46.6404 60.0939 48.281L56.8126 43.2185L56.6876 43.0466V42.9997C55.5782 41.5154 54.1876 40.2653 52.5938 39.3278C50.2032 38.031 47.4375 37.5934 44.7344 38.0622C42.1406 38.5778 39.7656 39.8903 37.9374 41.8279C37.4218 42.406 36.9687 43.031 36.5937 43.7029L27.6873 57.828L23.9529 63.7187C22.2498 66.4375 21.656 69.7187 22.3123 72.8594C22.9217 76.0001 24.8123 78.7501 27.5154 80.4688C29.3592 81.6251 31.4842 82.2345 33.6561 82.2189C37.9218 82.2032 41.875 80.0313 44.1406 76.4219L46.9844 71.9219L49.7344 76.2032C50.4688 77.2657 51.3438 78.2501 52.2969 79.1095C52.5626 79.3438 52.8282 79.5782 53.1094 79.7813H53.1407C53.3282 79.922 53.5157 80.047 53.7344 80.1876C55.5782 81.3751 57.7345 82.0157 59.9376 82.0157C62.2658 82.0001 64.547 81.3282 66.4846 80.047L66.7189 79.8907L66.9377 79.7501C68.0002 79.0001 68.9533 78.0782 69.7346 77.0313L72.969 72L75.7346 76.3751C78.0315 79.9688 81.9847 82.1407 86.2504 82.1407C88.4066 82.1564 90.5317 81.547 92.3754 80.4063C97.9223 76.9376 99.5786 69.2812 96.0317 63.6562ZM38.328 44.7341C38.6562 44.1716 39.0312 43.656 39.4531 43.1716C40.9531 41.5622 42.9375 40.4529 45.0937 39.9841C47.3438 39.5778 49.6406 39.9528 51.6407 41.031C53.0001 41.8435 54.1876 42.9216 55.1251 44.1873L55.2032 44.2966L58.9845 50.1092C58.2837 51.1573 57.6272 52.1315 57.0903 52.9284L57.0873 52.9327L57.0872 52.9329C56.273 54.1412 55.7345 54.9404 55.7345 54.9686C54.3438 57.0936 52.2188 58.6405 49.7656 59.2811H49.6406C47.0781 60.0312 44.3437 59.7343 41.9843 58.4686L41.6093 58.2499L41.2812 58.0311L40.9687 57.8124L40.7031 57.5936L40.4531 57.3905L40.2499 57.2186L40.1093 57.0936L40.0312 57.0155L39.8124 56.7655L39.5468 56.5311L39.4687 56.453L39.3437 56.328L39.2656 56.2499L39.1874 56.1717L38.828 55.8749L38.7499 55.8124L38.6405 55.7342L38.453 55.5936L38.3593 55.5311H38.3124L38.0468 55.3592L37.953 55.3124H37.8749L37.6249 55.1717L37.4999 55.0936L37.1718 54.9374L37.0155 54.828L36.8437 54.7499L36.5312 54.6249H36.5155L36.1249 54.4999L35.9686 54.4686L35.6561 54.3905H35.4999L35.203 54.2811H35.0311H34.9061H34.7499H34.5311H34.0468H33.8905H33.3436H33.2655L32.7342 54.3592H32.6874L32.1249 54.4842L38.328 44.7341ZM36.2343 79.9376C38.8437 79.2813 41.1093 77.6563 42.5625 75.375L45.9687 70.125L38.2499 57.7186L38.1562 57.6093L38.0937 57.5311L38.0468 57.4843L37.8749 57.3124H37.8437L37.5624 57.0624H37.5155L37.3905 56.9843L37.2812 56.9061H37.2343H37.1718L36.9843 56.7811L36.8593 56.703H36.7968L36.6718 56.6249L36.5468 56.5624H36.4687L36.328 56.4842L36.2343 56.453L35.9061 56.328H35.8124L35.6093 56.2499H35.5155H35.453L35.2811 56.2186H35.1874H34.9686H34.8436H34.5936H34.4686H34.0936C32.6874 56.2186 31.328 56.7655 30.3123 57.7343C29.9686 58.078 29.6717 58.4374 29.4061 58.8436L25.6873 64.7343C22.7185 69.4844 24.0779 75.9063 28.6561 78.7813C30.9061 80.2032 33.6561 80.6095 36.2343 79.9376ZM68.2189 75.8438C67.5471 76.7501 66.7658 77.5469 65.8283 78.2032L65.6564 78.3282L65.4377 78.4688C62.2501 80.6095 58.0939 80.6563 54.8438 78.6095L54.3438 78.2657H54.2813C54.2336 78.2282 54.1852 78.1908 54.1363 78.153C53.9611 78.0174 53.7805 77.8777 53.6094 77.7188C52.7813 76.9688 52.0313 76.1251 51.3907 75.2032L47.8438 69.6094L42.375 60.9062L42.5625 60.9843L43.0781 61.1562L43.375 61.2499L43.8906 61.3749L44.2344 61.4687L44.7812 61.5624L45.0781 61.6093L45.7969 61.6874H45.8906H46.7031H47.0312H47.6406H47.9531L48.5469 61.6093H48.8125C49.0938 61.5624 49.375 61.5155 49.625 61.4374C50.5938 61.1874 51.5313 60.828 52.4219 60.3593H52.5157C52.6407 60.2968 52.7579 60.2343 52.8751 60.1718C52.9922 60.1093 53.1094 60.0468 53.2344 59.9843C54.8907 59.0311 56.297 57.703 57.3282 56.0936C57.3282 56.0936 59.0157 53.5467 60.8595 50.6717C62.172 48.6248 63.5783 46.3904 64.5783 44.6716C65.9064 42.3747 68.1408 40.7029 70.719 40.0935C73.3596 39.4528 76.1253 39.8903 78.4222 41.3435C79.6409 42.156 80.6878 43.2341 81.5003 44.4685L90.7817 59.1874C90.516 59.0624 90.2504 58.9686 89.9691 58.8749L89.8285 58.828C89.6118 58.7515 89.3846 58.6854 89.164 58.6212L89.016 58.578H88.9379C88.6921 58.5057 88.4329 58.4602 88.1852 58.4167L88.1254 58.4061H88.0004C87.7945 58.3698 87.5698 58.3429 87.3627 58.318C87.3027 58.3108 87.2441 58.3038 87.1879 58.2968H87.0316C86.7504 58.2968 86.4691 58.2968 86.2191 58.2655H86.1879H85.3754H85.2035C84.9379 58.2655 84.6566 58.2968 84.391 58.3593H84.2191C83.9378 58.4061 83.6566 58.453 83.3597 58.5311C82.9691 58.6249 82.5941 58.7343 82.2034 58.8593C79.6097 59.7499 77.3909 61.5155 75.969 63.8593L72.594 69.1562L68.2189 75.8438ZM77.4847 75.2969C80.4534 80.0313 86.8285 81.5939 91.4067 78.7188C95.9848 75.8438 97.3286 69.4219 94.3286 64.6249L93.6254 63.4999L93.5473 63.4218C93.5004 63.3697 93.4536 63.3159 93.4067 63.2621C93.3129 63.1545 93.2192 63.0468 93.1254 62.9531L93.0473 62.8749C92.7192 62.5468 92.3442 62.2343 91.9535 61.953L91.8285 61.8749C91.766 61.8333 91.7122 61.7968 91.6584 61.7603C91.5508 61.6874 91.4431 61.6145 91.266 61.4999C91.0004 61.328 90.7192 61.1874 90.4535 61.0624H90.3754L90.0941 60.9374L89.9223 60.8593L89.7191 60.7812L89.4535 60.6718H89.3441L88.9691 60.5468C84.8285 59.2811 80.3128 60.8437 77.844 64.4218L77.5784 64.8437L74.2034 70.1406L77.4847 75.2969Z" fill="white"/>
</svg>
