<svg width="120" height="120" viewBox="0 0 120 120" fill="none" xmlns="http://www.w3.org/2000/svg">
<circle opacity="0.98" cx="60" cy="60" r="60" fill="#002D3E"/>
<path d="M63.783 78.4251C63.3946 79.9421 62.0071 81.0705 60.3607 81.0705C58.7143 81.0705 57.3453 79.9421 56.9384 78.4251L46.8933 38.5779C45.3764 32.4732 39.8451 27.9409 33.2779 27.9409C25.5268 27.9409 19.2371 34.2306 19.2371 41.9818V45.1451C19.2371 48.0865 21.6235 50.4544 24.5463 50.4544C27.4877 50.4544 29.8556 48.068 29.8556 45.1451V41.9818C29.8556 40.0949 31.391 38.5779 33.2594 38.5779C34.8504 38.5779 36.2008 39.6879 36.5708 41.1678L46.7823 81.6255C48.3732 87.6377 53.849 92.059 60.3607 92.059C66.8539 92.059 72.3482 87.6192 73.9391 81.6255L84.1506 41.1678C84.5206 39.6879 85.8525 38.5779 87.462 38.5779C89.3489 38.5779 90.8658 40.1134 90.8658 41.9818V86.7498C90.8658 89.6911 93.2522 92.059 96.1751 92.059C99.1164 92.059 101.484 89.6726 101.484 86.7498V41.9818C101.484 34.2306 95.1946 27.9409 87.4435 27.9409C80.8763 27.9409 75.345 32.4732 73.8281 38.5779L63.783 78.4251Z" fill="white"/>
<path d="M29.8741 86.7498C29.8741 89.6911 27.4877 92.059 24.5649 92.059C21.6235 92.059 19.2556 89.6726 19.2556 86.7498V74.8548C19.2556 71.9134 21.642 69.5455 24.5649 69.5455C27.5062 69.5455 29.8741 71.9319 29.8741 74.8548V86.7498Z" fill="white"/>
<path d="M20.9205 56.3741C21.5865 55.7081 22.1415 55.1716 22.6224 54.7461L22.6779 54.7091C23.7509 53.7472 25.3788 53.7472 26.4518 54.6906L26.5073 54.7461C26.9882 55.1901 27.5617 55.7266 28.2092 56.3926C28.8567 57.04 29.4116 57.6135 29.8371 58.0945L29.8926 58.15C30.8546 59.2229 30.8546 60.8509 29.8926 61.9238L29.8556 61.9793C29.4116 62.4603 28.8752 63.0338 28.2277 63.6812L28.2092 63.6997C27.5617 64.3472 26.9882 64.8837 26.5258 65.3277L26.4703 65.3647C25.3973 66.3266 23.7694 66.3266 22.6964 65.3647L22.6409 65.3092C22.16 64.8652 21.605 64.3287 20.939 63.6812V63.6627C20.273 62.9968 19.7366 62.4418 19.2926 61.9608L19.2371 61.9053C18.2751 60.8324 18.2751 59.2044 19.2371 58.1315L19.2741 58.076C19.7366 57.595 20.273 57.04 20.9205 56.3741Z" fill="#F5C117"/>
</svg>
