<svg width="120" height="120" viewBox="0 0 120 120" fill="none" xmlns="http://www.w3.org/2000/svg">
<path d="M60 120C93.138 120 120 93.138 120 60C120 26.862 93.138 0 60 0C26.862 0 0 26.862 0 60C0 93.138 26.862 120 60 120Z" fill="#EDF0F4"/>
<circle cx="60.741" cy="60.13" r="37.741" fill="#09006E"/>
<path d="M60.8503 69.0978C57.9228 67.4077 56.9198 63.6643 58.6099 60.7369L83.6879 17.3006C85.378 14.3732 89.1214 13.3702 92.0488 15.0603C94.9763 16.7505 95.9793 20.4938 94.2891 23.4213L69.2112 66.8575C67.521 69.785 63.7777 70.788 60.8503 69.0978Z" fill="url(#paint0_linear_1_5042)"/>
<path d="M72.8426 80.4988L72.7218 61.3886L63.6168 76.7247H57.3858L48.2808 62.0472V80.4988H35.3998V38.5648H47.0221L60.6806 60.9093L73.9805 38.5648H85.6028L85.7217 80.4988H72.8426Z" fill="#00FFD9"/>
<path d="M60.0239 58.2863L77.7772 27.5388C78.5881 26.1325 79.9246 25.1061 81.4925 24.6856C83.0604 24.2652 84.7312 24.4851 86.1369 25.2969C87.5428 26.1082 88.5688 27.4447 88.9892 29.0124C89.4096 30.5802 89.19 32.2508 88.3787 33.6566L70.6253 64.406C68.9353 67.3339 65.1919 68.3376 62.2638 66.6478C59.3375 64.9565 58.3349 61.214 60.0239 58.2863Z" fill="url(#paint1_linear_1_5042)"/>
<defs>
<linearGradient id="paint0_linear_1_5042" x1="82.5901" y1="36.6709" x2="93.7934" y2="17.2662" gradientUnits="userSpaceOnUse">
<stop stop-color="#00FFD9"/>
<stop offset="0.85" stop-color="#09006E"/>
</linearGradient>
<linearGradient id="paint1_linear_1_5042" x1="76.9297" y1="84.0295" x2="110.995" y2="55.309" gradientUnits="userSpaceOnUse">
<stop offset="0.08" stop-color="#00FFD9"/>
<stop offset="0.68" stop-color="#064E8F"/>
<stop offset="1" stop-color="#09006E"/>
</linearGradient>
</defs>
</svg>
