<svg width="120" height="120" viewBox="0 0 120 120" fill="none" xmlns="http://www.w3.org/2000/svg">
<circle cx="60" cy="60" r="60" fill="#E7EFF3"/>
<path d="M74.276 85.2193C70.616 83.4625 67.7246 80.7053 66.7364 79.5464C66.407 80.4857 65.5652 82.6866 64.8332 83.9749C63.9182 85.5853 62.2713 87.7447 60.7707 89.0623C59.2701 90.3799 54.4389 94.9182 49.1686 94.0398C43.8982 93.1615 40.165 90.4897 38.4082 87.1957C36.6515 83.9017 36.4319 80.6077 37.2736 77.204C37.9471 74.481 39.6038 71.409 40.348 70.2134C39.5062 70.4086 37.054 70.5209 33.9797 69.4082C30.1367 68.0174 27.8309 65.9313 26.5133 63.2595C25.1957 60.5877 24.7199 55.8663 25.1591 51.5476C25.5983 47.2288 28.2335 42.0682 34.3091 42.5074C39.1695 42.8588 44.2886 45.6306 46.2406 46.9726C45.6672 43.276 44.8644 34.8874 46.2406 30.9053C47.9608 25.9278 52.1697 24.8664 57.3303 25.0128C62.4909 25.1592 65.4188 27.7943 67.322 30.8687C68.8446 33.3282 69.0544 38.5547 68.969 40.8604C70.3598 39.494 74.2687 36.6881 78.7777 36.3953C84.4141 36.0293 87.1225 37.0175 89.3917 38.7377C91.6608 40.4578 94.2228 43.7152 94.8084 47.0824C95.394 50.4496 94.5888 52.5724 93.0516 55.2441C91.8219 57.3816 88.7329 59.6239 87.3421 60.4779C88.1839 61.1367 90.2115 62.8496 91.5876 64.4307C93.3078 66.4071 94.9182 69.9572 94.9548 74.3126C94.9914 78.668 93.6738 80.6443 92.5392 82.5475C91.4046 84.4507 89.0623 87.3787 85.1095 87.7081C81.1567 88.0375 78.8509 87.4153 74.276 85.2193Z" fill="#DC8898"/>
<path d="M49.2783 82.1815C47.3165 84.4361 45.3377 84.8533 44.5935 84.7801C44.8985 84.5727 45.6842 84.0408 46.3869 83.5723C47.2653 82.9867 50.3763 78.9608 51.4377 77.3504C52.2868 76.0621 55.0367 71.5432 56.3054 69.4448L57.0374 69.8474C55.2684 73.0194 51.24 79.927 49.2783 82.1815Z" fill="#C57180"/>
<path d="M41.7387 55.6834C44.4617 56.2982 48.9489 58.4283 50.8521 59.4165L50.2299 60.6609C49.4979 60.2949 47.7996 59.4312 46.8627 58.9041C45.6915 58.2453 41.2629 56.6349 38.152 56.4154C35.041 56.1958 34.0894 56.6715 32.8084 57.1473C31.5274 57.6231 30.3562 58.7943 30.6124 57.9525C30.8686 57.1107 31.564 56.2324 33.7234 55.5004C35.8828 54.7684 38.335 54.9148 41.7387 55.6834Z" fill="#C57180"/>
<path d="M58.2087 41.5192C58.4722 43.6859 58.7577 49.0588 58.8675 51.4743H57.9891C57.9769 50.9497 57.9598 49.6297 57.9891 48.5464C58.0257 47.1922 57.3303 41.9584 56.8911 39.067C56.5398 36.7539 55.3783 32.4668 54.8416 30.6125C55.3783 31.4055 56.5398 33.3062 56.8911 34.5653C57.3303 36.139 57.8793 38.8108 58.2087 41.5192Z" fill="#C57180"/>
<path d="M73.6171 50.0103C71.2748 51.6793 68.5664 55.2685 67.505 56.8545L66.8462 55.8297C67.4928 54.9513 69.1007 52.8505 70.3598 51.4743C71.9336 49.7542 74.5321 47.7412 78.5947 45.838C81.8448 44.3154 85.756 44.8864 87.3054 45.3622C86.7564 45.3256 85.4828 45.2743 84.7801 45.3622C83.9017 45.472 82.8403 45.5452 80.6809 46.0576C78.5215 46.57 76.5451 47.9242 73.6171 50.0103Z" fill="#C57180"/>
<path d="M76.472 70.7258C74.071 69.1154 67.7124 66.8096 64.8333 65.858L65.4554 64.9431C66.3338 65.2359 68.3981 65.9386 69.6278 66.407C71.165 66.9926 74.093 68.603 75.191 69.1886C76.289 69.7742 80.0221 72.1166 81.1201 72.812C82.2181 73.5074 86.0977 76.3622 86.8663 77.021C87.6349 77.6798 87.6715 78.668 87.4519 78.9241C87.2323 79.1803 86.5003 78.1922 85.5487 77.204C84.5971 76.2158 79.4731 72.7388 76.472 70.7258Z" fill="#C57180"/>
<ellipse cx="59.1603" cy="60.1119" rx="9.84533" ry="9.95513" fill="#FBECB3"/>
</svg>
