<svg width="120" height="120" viewBox="0 0 120 120" fill="none" xmlns="http://www.w3.org/2000/svg">
<g clip-path="url(#clip0_1_760)">
<circle cx="60" cy="60" r="60" fill="#EDF0F4"/>
<path d="M60.0211 99.8404L59.5627 99.6112C41.6926 89.1516 28.1754 71.8963 22.677 51.2802C21.8002 48.037 21.1494 44.7158 20.6914 41.3562C20.271 37.9865 20.0414 34.5958 20.0038 31.2002C20.0038 30.6274 19.9274 30.7038 20.4622 30.4366C29.6279 25.2178 39.7386 21.8705 50.2079 20.589C54.0977 20.1309 58.0143 19.9396 61.9303 20.0166C64.1451 20.0566 66.3215 20.2074 68.4979 20.4366C79.4579 21.62 89.7422 24.9031 99.3508 30.2858C99.5036 30.3622 99.618 30.4386 99.7708 30.515C99.9236 30.5914 100 30.7058 100 30.8966V31.4694C99.96 33.4546 99.8856 35.4014 99.7328 37.3866C99.5038 40.2053 99.1213 43.0095 98.5872 45.7866C97.4416 51.7802 95.6472 57.5447 93.1652 63.0799C89.2321 71.8983 83.8609 79.7497 77.0515 86.6339C72.1741 91.595 66.6666 95.8946 60.6703 99.4224C60.4411 99.5752 60.2503 99.6896 60.0211 99.8424V99.8404Z" fill="black"/>
<path d="M23.6697 33.1485C28.52 30.3369 33.6851 28.1074 39.0578 26.5061C46.389 24.3301 53.835 23.2993 61.4723 23.4521C65.0235 23.5285 70.9419 24.1009 71.9347 24.4829C71.9747 24.5593 71.8947 24.5973 71.8203 24.5973C71.4767 24.7501 71.0947 24.8645 70.7511 25.0173C64.4507 27.6513 59.9831 33.1869 58.6846 39.9053C58.4947 41.0029 58.3799 42.1121 58.341 43.2253C58.301 44.9053 58.1502 46.5853 57.6538 48.2253C55.9738 54.1425 51.1242 58.7618 45.1294 60.1358C37.2634 61.9326 29.3202 58.0402 25.8842 50.7473C25.6934 50.3273 25.5406 49.9073 25.4642 49.4877C24.8987 47.0184 24.4653 44.5208 24.1657 42.0053C23.8221 39.2185 23.6313 36.4317 23.6313 33.6453C23.6636 33.4819 23.6771 33.3153 23.6713 33.1489L23.6697 33.1485Z" fill="#F7A800"/>
<path d="M79.9915 78.8823C80.0679 78.1571 80.1443 77.5079 80.1823 76.8207C80.3731 73.0415 79.5715 69.453 77.7767 66.1318C76.0567 62.9634 73.6527 60.4438 70.5599 58.535C70.2927 58.3442 69.9871 58.1914 69.7199 58.0006C65.4799 55.3282 62.8847 51.549 61.9683 46.6246C60.3283 37.7682 65.9011 29.2169 74.6455 27.1173C77.7383 26.3921 80.7551 26.4685 83.7715 27.4225C86.2516 28.1861 88.6212 29.2169 90.9884 30.3237C92.6284 31.0873 94.196 31.9269 95.7616 32.8037C95.9524 32.9181 96.1052 32.9945 96.3344 33.1473C96.3344 33.3001 96.3744 33.4145 96.3744 33.5673C96.3744 35.5905 96.26 37.6522 96.1072 39.6754C95.8357 42.6511 95.3895 45.6084 94.7708 48.5318C92.8996 57.1594 89.5776 65.1378 84.7663 72.5439C83.4299 74.6055 81.9787 76.5903 80.4515 78.4991C80.2971 78.6151 80.2207 78.7679 79.9915 78.8823Z" fill="#67B2E8"/>
<path d="M60.0211 95.9464C59.4483 95.7172 57.6919 94.6484 55.8211 93.3888C51.6578 90.6 47.7935 87.389 44.2894 83.8068C40.7765 80.2283 37.6532 76.287 34.9722 72.0492C32.4586 68.1361 30.3477 63.9787 28.6718 59.6403C28.623 59.5166 28.5847 59.3889 28.5574 59.2587C28.7482 59.3731 28.8246 59.4115 28.9394 59.4879C30.2758 60.5187 31.6886 61.3968 33.2162 62.0456C35.1638 62.8856 37.1874 63.458 39.3258 63.6488C43.6406 64.0688 47.6882 63.1908 51.5066 61.0528C53.4791 59.9459 55.6424 59.2207 57.8835 58.9151C65.8639 57.9227 73.8063 62.6564 76.2883 70.902C77.5483 75.1396 77.1683 79.262 75.2191 83.2708C74.9519 83.8052 74.7227 84.3016 74.4555 84.7976C74.3027 85.1032 74.1119 85.4084 73.8447 85.6376C69.7971 89.4552 65.3679 92.8144 60.5567 95.6376C60.3659 95.752 60.1747 95.8668 60.0223 95.9432L60.0211 95.9464Z" fill="#00C4B3"/>
</g>
<defs>
<clipPath id="clip0_1_760">
<rect width="120" height="120" fill="white"/>
</clipPath>
</defs>
</svg>
