<svg width="120" height="120" viewBox="0 0 120 120" fill="none" xmlns="http://www.w3.org/2000/svg">
<circle cx="60" cy="60" r="60" fill="#EDF0F4"/>
<path d="M43.03 30.3931L77.096 50.052V70.104L25 40.026L41.696 30.3931C42.1123 30.1684 42.6137 30.1684 43.03 30.3931Z" fill="#3CA9E5"/>
<path d="M77.096 30L59.726 40.026L77.096 50.052V30Z" fill="#2853C3"/>
<path d="M77.0959 30L93.806 39.6328C94.2144 39.8813 94.4683 40.3204 94.48 40.7983V80.116L77.0959 70.1041V30Z" fill="#1A4199"/>
<path d="M94.466 80.1301L77.77 89.7629C77.3355 90.0137 76.8002 90.0137 76.3658 89.7629L42.3138 70.104V50.0239L94.466 80.1301Z" fill="#2853C3"/>
<path d="M25 40.026V79.3437C24.9972 79.8366 25.253 80.295 25.674 80.5513L42.37 90.1842V50.0239L25 40.026Z" fill="#60BEFF"/>
<path d="M42.37 90.156L59.726 80.13L42.37 70.104V90.156Z" fill="#3CA9E5"/>
</svg>
