<svg width="120" height="120" viewBox="0 0 120 120" fill="none" xmlns="http://www.w3.org/2000/svg">
<path d="M60 0C93.1371 0 120 26.8629 120 60C120 93.1371 93.1371 120 60 120C26.8629 120 0 93.1371 0 60C0 26.8629 26.8629 0 60 0Z" fill="#1A82FF"/>
<path d="M81.936 84.7063C76.7417 91.0697 69.4366 94.2514 60.0206 94.2514C50.6046 94.2514 43.2983 91.0697 38.1017 84.7063C32.904 78.3394 30.3063 70.1097 30.3086 60.0171C30.3109 49.9246 32.9075 41.696 38.0983 35.3314C43.2926 28.9646 50.5989 25.7817 60.0172 25.7828C69.4355 25.784 76.7406 28.9668 81.9326 35.3314C87.1269 41.6948 89.7246 49.9234 89.7257 60.0171C89.7269 70.1108 87.1303 78.3405 81.936 84.7063Z" fill="white"/>
<path d="M59.9108 80.9451C62.3896 80.9451 64.4971 80.2697 66.2331 78.9188C67.9691 77.568 69.2262 75.736 70.0045 73.4228C70.7816 71.1085 71.3302 68.8903 71.6502 66.768C71.9702 64.6457 72.1291 62.3954 72.1268 60.0171C72.1268 57.0891 71.9496 54.4685 71.5953 52.1554L50.2388 74.4103C52.2136 78.7645 55.4376 80.9428 59.9108 80.9451Z" fill="#1A82FF"/>
<path d="M60.1235 39.0891C57.6446 39.0891 55.5372 39.7645 53.8012 41.1154C52.0652 42.4663 50.8081 44.2983 50.0298 46.6114C49.2481 48.9257 48.6995 51.144 48.3841 53.2663C48.0641 55.3885 47.9052 57.6388 47.9075 60.0171C47.9075 61.584 47.9578 63.0628 48.0584 64.4537L68.4275 43.2308C66.4492 40.4708 63.6812 39.0903 60.1235 39.0891Z" fill="#1A82FF"/>
<path fill-rule="evenodd" clip-rule="evenodd" d="M66.8195 57.0823L69.4424 59.5989L89.3315 38.8663L86.7086 36.3497L66.8195 57.0823ZM29.3452 78.7166L31.9681 81.2332L51.8572 60.5006L49.2344 57.984L29.3452 78.7166Z" fill="#1A82FF"/>
</svg>
