<svg width="120" height="120" viewBox="0 0 120 120" fill="none" xmlns="http://www.w3.org/2000/svg">
<circle cx="60" cy="60" r="60" fill="#EDF0F4"/>
<path d="M38.1818 88.0211C39.6363 89.7109 42.1818 92.235 46.0106 94.2671C50.4598 96.62 54.5668 97.1762 56.9197 97.3259C58.3101 97.2617 60.5775 97.0051 63.1229 95.8714C65.6684 94.7377 67.3796 93.2403 68.3636 92.235C69.4331 91.2724 70.9946 89.9035 72.9197 88.2778C77.1764 84.6414 79.3582 82.8018 81.8609 81.112C83.1443 80.235 84.8769 79.1655 87.016 78.0532C88.1497 77.4756 89.3048 76.9623 90.4812 76.4917C92.0641 75.85 94.7165 74.4596 96.8983 71.6361C99.5294 68.1922 99.9144 64.62 99.9999 63.2938C99.893 61.604 99.5721 59.3152 98.6524 56.7698C97.9251 54.7377 97.0481 53.0906 96.2352 51.85C93.0909 57.4756 86.2673 67.85 73.6684 76.235C59.0588 85.9676 44.7058 87.6575 38.1818 88.0211Z" fill="#0293D6"/>
<path d="M46.3744 27.2938C47.2086 26.4382 48.2781 25.4971 49.6685 24.6414C53.2621 22.4168 56.8557 22.0746 58.7808 22.0318C59.6792 21.9676 60.9412 21.9676 62.4172 22.3527C64.5776 22.9088 66.0535 23.9997 66.8664 24.6628C68.7701 25.989 71.2514 27.465 74.353 28.7056C78.7166 30.4596 82.6311 31.0586 85.476 31.2725C86.0535 31.2938 86.8878 31.3366 87.8717 31.5077C89.6257 31.8286 93.5402 32.5131 96.0642 35.7003C98.0321 38.1815 98.246 41.0479 98.2674 42.3954C98.2033 43.7858 98.0107 45.4115 97.6257 47.2083C97.2407 49.0051 96.7487 50.5666 96.2354 51.8714C79.615 43.6789 62.9947 35.4864 46.3744 27.2938H46.3744Z" fill="#EBE638"/>
<path d="M38.1818 88.0211C36.3422 87.7858 33.7112 87.2724 30.7807 86.0104C27.7647 84.7056 23.9572 83.0799 21.7112 79.1227C20.2781 76.5987 20 74.0532 20 72.342C20.0214 70.7591 20.1497 68.8767 20.5775 66.7805C21.1979 63.6361 22.246 61.0692 23.1872 59.1869C23.9786 57.3045 24.7487 55.1655 25.4332 52.8339C26.4171 49.4757 26.9947 46.3954 27.3583 43.6789C27.615 41.8607 27.9572 40.3847 28.2567 39.3366C28.877 37.0906 29.4545 35.0585 30.9733 32.9623C31.8289 31.7644 32.7273 30.9088 33.3262 30.3954C34.7594 29.4757 37.0909 28.2136 40.2353 27.5719C42.738 27.0585 44.8984 27.1227 46.3957 27.2938C42.9947 32.1281 36.984 42.0318 34.9519 56.0639C32.8128 70.7377 36.1711 82.4168 38.1818 88.0211Z" fill="#BAD147"/>
<path d="M46.3743 27.2939C46.0321 27.2725 57.861 28.0426 65.1123 30.5666C67.2727 31.3153 69.2406 32.1709 71.0374 33.0479C68.7059 32.8982 53.8182 32.2351 42.4385 43.6789C28.1711 58.0319 32.8128 78.0319 33.0695 79.1442C31.6791 77.3688 29.5829 74.1602 28.7487 69.6682C28.3636 67.6361 28.3422 65.8393 28.4278 64.3634C28.5775 60.2992 29.2834 54.8661 31.4652 48.834C35.508 37.7324 42.4385 30.7163 46.3743 27.2939Z" fill="#78B650"/>
<path d="M74.9519 80.2136C76.8984 76.727 80.5989 68.9195 80.3423 58.481C80 45.1548 73.4332 36.0425 71.0588 33.0479C72.4064 33.2618 74.353 33.6896 76.5989 34.5238C81.5187 36.3847 84.6417 39.1227 87.4653 41.6468C89.8824 43.8072 93.1337 47.1227 96.2353 51.8714C94.8022 55.6361 92.6631 60.1708 89.4332 64.9195C84.5562 72.1281 79.0802 77.0692 74.9519 80.2136Z" fill="#2F8260"/>
<path fill-rule="evenodd" clip-rule="evenodd" d="M71.4011 33.0479C73.4973 34.0746 78.3102 36.7912 81.8823 42.4596C85.7968 48.6842 85.8823 54.7805 85.7968 57.0692C85.3048 70.9516 75.8075 79.7644 74.9091 80.5345C68.4769 86.0508 61.1752 87.453 57.9241 88.0773L57.8823 88.0853C55.0588 88.6201 52.6631 88.7698 50.9305 88.7912C48.8556 88.9195 46.4813 88.9409 43.8717 88.727C41.9251 88.5773 40.1497 88.3206 38.5241 88.0211C36.9626 86.0318 35.1444 83.2725 33.6684 79.743C31.3369 74.1602 30.9091 69.112 30.8877 65.9035C30.9519 63.4222 31.4866 51.2938 41.3048 41.8821C53.5615 30.1388 69.6898 32.7484 71.4011 33.0479ZM58.3957 80.4703C59.7005 80.4703 68.2353 80.4061 74.1818 73.4757C78.9151 67.9783 78.9726 61.6174 78.9941 59.2416L78.9946 59.1869L78.9945 59.1821C78.972 58.3249 78.6336 45.444 68.7914 40.0853C64.2353 37.604 59.7219 37.8607 58.4171 37.9463C53.1551 38.3099 49.5615 40.7056 48.0428 41.7324C46.246 42.973 38.139 48.8767 37.8396 59.2083C37.6043 66.8874 41.8396 72.1281 42.6096 73.0479C48.5989 80.235 57.1765 80.4489 58.3957 80.4703Z" fill="#085229"/>
</svg>
