<svg width="120" height="120" viewBox="0 0 120 120" fill="none" xmlns="http://www.w3.org/2000/svg">
<circle cx="60" cy="60" r="60" fill="black"/>
<path fill-rule="evenodd" clip-rule="evenodd" d="M56.4304 66.4479C56.1524 66.0881 55.8621 65.7079 55.5759 65.3072C55.257 64.8574 55.1466 64.424 55.2447 63.9702C55.4573 62.9807 56.6389 62.1139 57.0764 61.8645L56.5367 60.8914C56.4549 60.9363 54.5333 62.0444 54.1694 63.7248C54.0017 64.4935 54.1734 65.2458 54.6804 65.9573C54.9748 66.3702 55.2733 66.7587 55.5595 67.1307C56.9865 68.9911 57.6325 69.9397 56.7534 71.1213C56.3773 71.6242 55.9439 71.9513 55.4818 72.2948C54.337 73.1534 53.1513 74.0407 53.552 77.3443L54.6436 77.2094C54.3206 74.5477 55.0811 73.9793 56.136 73.1902C56.6185 72.8304 57.1623 72.4215 57.6366 71.7878C59.0635 69.8743 57.7838 68.2102 56.4304 66.4479Z" fill="#DEC685"/>
<path fill-rule="evenodd" clip-rule="evenodd" d="M56.4672 61.1611C55.9725 61.476 54.6478 62.4327 54.3575 63.7657C54.2021 64.4771 54.3615 65.1763 54.8399 65.8427C55.1343 66.2557 55.4287 66.64 55.7108 67.008C57.1582 68.897 57.8697 69.9396 56.9088 71.2316C56.5163 71.7591 56.0706 72.0903 55.5963 72.446C54.4678 73.2924 53.4007 74.0897 53.7196 77.1235L54.427 77.0335C54.153 74.4249 54.9748 73.8075 56.0134 73.0307C56.4877 72.675 57.0192 72.2784 57.4771 71.6691C58.8182 69.8701 57.6407 68.3368 56.2751 66.5582C55.997 66.1943 55.7026 65.8141 55.4164 65.4093C55.0607 64.9105 54.9421 64.4239 55.0525 63.9169C55.2611 62.9643 56.2791 62.1343 56.8148 61.7867L56.4672 61.1611ZM53.3802 77.561L53.3557 77.3688C52.9387 73.9506 54.2266 72.9898 55.3592 72.1393C55.8089 71.8041 56.2383 71.4811 56.594 71.0027C57.3586 69.9764 56.9006 69.2036 55.4001 67.2492C55.0975 66.8608 54.8031 66.4683 54.5169 66.0717C53.9772 65.3153 53.7932 64.5098 53.9731 63.6839C54.3452 61.9707 56.2178 60.8463 56.4345 60.7236L56.6062 60.6255L57.334 61.938L57.1705 62.032C56.7821 62.2528 55.629 63.091 55.4328 64.011C55.3469 64.4035 55.445 64.7919 55.7313 65.1967C56.0175 65.5974 56.3037 65.9736 56.5817 66.3334C57.9187 68.0752 59.3007 69.8783 57.7879 71.9104C57.2972 72.5646 56.7412 72.9816 56.2505 73.3496C55.212 74.1265 54.5251 74.6416 54.8358 77.1889L54.8604 77.3811L53.3802 77.561ZM43.2402 43.1381C37.5447 42.9132 36.2076 45.0639 36.0891 46.912C36.0359 47.7461 36.0973 48.6742 36.1668 49.6596C36.314 51.8184 36.4652 54.055 35.3367 55.1834C34.6744 55.8458 33.595 56.1075 32.0372 55.9848L31.9513 57.097C32.2252 57.1174 32.4869 57.1297 32.7404 57.1297C34.2287 57.1297 35.3368 56.7494 36.1095 55.9767C37.5978 54.4884 37.422 51.8838 37.2666 49.586C37.2012 48.6415 37.144 47.7502 37.1889 46.9856C37.3157 45.0189 39.3355 44.0948 43.1993 44.2543L43.2402 43.1381Z" fill="#DEC685"/>
<path fill-rule="evenodd" clip-rule="evenodd" d="M32.1558 56.9213C33.8935 57.0276 35.1364 56.6759 35.9705 55.8418C37.3934 54.4149 37.2217 51.8553 37.0704 49.5984C37.005 48.6498 36.9477 47.7544 36.9927 46.9734C37.1235 44.9127 39.1475 43.9314 43.0113 44.0541L43.0399 43.3263C38.7672 43.1913 36.4366 44.4384 36.2813 46.9243C36.2281 47.7544 36.2894 48.6702 36.359 49.6433C36.5062 51.8472 36.6615 54.1287 35.4717 55.3185C34.7971 55.9931 33.734 56.2793 32.2171 56.1894L32.1558 56.9213ZM32.7404 57.3219C32.4829 57.3219 32.2171 57.3138 31.935 57.2892L31.7428 57.2729L31.8573 55.7764L32.0495 55.7928C33.5459 55.9113 34.5763 55.666 35.1937 55.0445C36.2608 53.9774 36.1095 51.7858 35.9705 49.6679C35.9051 48.6825 35.8397 47.7503 35.8928 46.8957C36.0155 44.9618 37.3893 42.713 43.2444 42.9419L43.4365 42.9501L43.3793 44.4507L43.1871 44.4425C39.4541 44.2912 37.4956 45.1498 37.377 46.9939C37.328 47.7462 37.3893 48.6334 37.4547 49.5697C37.6142 51.9085 37.79 54.5621 36.2445 56.1117C35.4308 56.9294 34.2819 57.3219 32.7404 57.3219Z" fill="#DEC685"/>
<path fill-rule="evenodd" clip-rule="evenodd" d="M51.6589 61.8766C51.3808 61.5127 51.0905 61.1366 50.8043 60.7318C50.4486 60.233 50.326 59.7669 50.4282 59.3008C50.604 58.5075 51.3768 57.9065 51.7325 57.6694C52.5012 57.976 53.4334 58.1804 54.57 58.2254V58.2336C54.6477 58.2336 54.7295 58.2336 54.8072 58.2295C54.8849 58.2336 54.9626 58.2336 55.0443 58.2336V58.2254C58.2049 58.1028 59.8036 56.729 60.6132 55.3797C61.3696 55.6863 63.5366 56.7985 63.4385 59.4847C63.3894 60.8095 62.2814 62.0729 61.206 63.2954C59.6809 65.0372 57.9473 67.0121 59.3906 69.3549L60.327 68.7661C59.3865 67.2369 60.3433 65.9572 62.0319 64.0355C63.234 62.6658 64.477 61.247 64.5383 59.5256C64.6242 57.1256 63.2545 55.6127 61.9624 54.8154C63.0419 54.705 64.4116 54.3371 64.7428 53.6501C64.8613 53.4048 65.1721 52.7547 62.1955 45.6731C61.9829 44.6591 61.3818 41.752 61.206 40.3373C63.418 37.2953 62.4286 34.1756 60.4292 32.4011C58.3603 30.5694 54.938 29.8988 52.2967 31.98C51.5403 30.2504 49.6268 29.032 47.0836 28.7172C42.5615 28.1611 39.2619 30.5734 38.113 33.0512C36.6288 36.2527 37.4465 38.5055 38.2315 39.7076C35.7824 39.7322 34.0774 40.3332 33.047 41.523C31.3952 43.4284 31.9472 46.3027 32.3888 48.6169C32.5932 49.6923 32.8508 51.0293 32.5891 51.3564C31.7305 52.4358 30.7574 52.1251 30.3771 51.9411C29.727 51.6262 29.3181 51.0007 29.4326 50.4855L28.3573 50.2483C28.1365 51.2705 28.7866 52.4072 29.9069 52.9469C30.8964 53.4253 32.3479 53.4416 33.4518 52.0515C34.0324 51.3237 33.7871 50.0357 33.4723 48.4043C33.0798 46.3313 32.585 43.7555 33.8811 42.2549C34.8256 41.1632 36.686 40.6971 39.4132 40.8525L39.7852 39.8589C39.7566 39.8385 37.1726 37.7082 39.1147 33.5255C40.5212 30.4917 44.1643 29.4777 46.9569 29.8211C48.8908 30.0583 51.0946 31.0355 51.4953 33.0716L52.4276 33.3538C54.0917 31.6447 57.2073 31.0232 59.7055 33.2393C61.2183 34.5804 62.2527 37.0786 60.2738 39.7363C55.2079 38.9512 51.4176 39.6259 49.0217 41.7602C47.5661 43.0522 46.9364 44.6059 46.6625 45.7794C46.5439 45.6853 46.4171 45.6076 46.2822 45.5422C45.9061 45.3705 45.1456 45.1865 44.246 45.8611C43.3547 46.5317 42.9908 47.5375 43.2198 48.6864C43.4896 50.0562 44.5445 51.4422 45.5912 52.2232C45.0924 52.7097 44.5813 53.3639 44.4096 54.1531C44.2419 54.9217 44.4137 55.6741 44.9207 56.3855C45.2151 56.7985 45.5135 57.1869 45.7997 57.559C47.2267 59.4193 47.8727 60.3679 46.9937 61.5495C46.6175 62.0525 46.18 62.3796 45.718 62.723C44.5731 63.5816 43.3874 64.4689 43.7881 67.7726L44.8798 67.6376C44.5568 64.9759 45.3173 64.4076 46.3722 63.6225C46.8546 63.2627 47.3984 62.8538 47.8727 62.2201C49.2997 60.3066 48.0199 58.6425 46.6666 56.8761C46.3763 56.5 46.09 56.1197 45.812 55.7354C45.4931 55.2856 45.3868 54.8481 45.4808 54.3984C45.6158 53.7687 46.1432 53.1881 46.6216 52.7874C46.6543 52.7997 46.7524 52.6811 46.7524 52.6811C46.9773 52.5053 47.1776 52.3704 47.3126 52.2968L47.0427 51.8102L46.7729 51.3237C46.6747 51.3809 46.5807 51.4382 46.4867 51.5036C45.6403 50.968 44.5322 49.6841 44.291 48.4738C44.1438 47.7379 44.3442 47.1777 44.8961 46.7566C45.2355 46.499 45.5422 46.4336 45.8161 46.5603C46.1432 46.7075 46.4131 47.1368 46.4417 47.5539L46.9609 47.513L47.5415 47.4885C47.5374 47.4598 47.4679 44.6018 49.7454 42.5902C51.9001 40.6848 55.4041 40.1083 60.1552 40.8525C60.4292 42.7374 61.1529 46.1146 61.1856 46.2741L61.2346 46.2618C62.4326 49.1158 63.6633 52.4399 63.7124 53.1922C63.3649 53.4948 61.9011 53.7687 61.2714 53.7646C61.4309 53.1391 61.435 52.6975 61.435 52.6811H60.331C60.331 52.861 60.2656 57.007 54.799 57.1215C49.3692 57.0029 49.2752 52.8569 49.2711 52.677L48.7232 52.6811H48.1712C48.1712 52.722 48.2121 55.4901 50.6449 57.1051C50.146 57.5303 49.545 58.1927 49.3528 59.0554C49.177 59.8405 49.361 60.6255 49.9089 61.3901C50.2033 61.803 50.5018 62.1915 50.788 62.5635C52.2149 64.4239 52.861 65.3684 51.9819 66.55C51.6057 67.053 51.1682 67.3801 50.7103 67.7276C49.5655 68.5862 48.3797 69.4694 48.7804 72.7772L49.8721 72.6422C49.5491 69.9805 50.3096 69.4121 51.3645 68.623C51.847 68.2632 52.3908 67.8543 52.865 67.2206C54.2879 65.303 53.0082 63.6389 51.6589 61.8766Z" fill="#DEC685"/>
<path fill-rule="evenodd" clip-rule="evenodd" d="M48.3757 52.8735C48.4329 53.5195 48.7764 55.6334 50.7553 56.9417L50.9679 57.0849L50.7716 57.2525C50.3096 57.645 49.7249 58.2788 49.545 59.0965C49.3815 59.8284 49.5573 60.5603 50.0684 61.2758C50.3628 61.6887 50.6572 62.0772 50.9434 62.4452C52.3867 64.3301 53.0981 65.3727 52.1373 66.6647C51.7448 67.1881 51.3032 67.5233 50.833 67.875C49.6963 68.7254 48.6292 69.5227 48.9481 72.5606L49.6595 72.4707C49.3856 69.8621 50.2074 69.2406 51.2459 68.4678C51.7202 68.1121 52.2518 67.7155 52.7056 67.1063C54.0426 65.3113 52.8692 63.7781 51.5076 61.9995L51.6589 61.8768L51.5035 61.9954C51.2255 61.6315 50.9352 61.2513 50.6449 60.8465C50.2565 60.3027 50.1215 59.7793 50.2401 59.26C50.4323 58.3892 51.2746 57.7431 51.6262 57.506L51.712 57.4487L51.8061 57.4855C52.6034 57.8045 53.5397 57.9885 54.5782 58.0293L54.7581 58.0375H54.8072H54.9503L55.0403 58.0293C57.5957 57.9271 59.4152 57.0031 60.4537 55.2776L60.5396 55.1386L60.6909 55.2C61.4064 55.4903 63.741 56.6555 63.6388 59.4931C63.5857 60.8833 62.4531 62.1753 61.3614 63.4224C59.914 65.0701 58.2826 66.9305 59.4642 69.0852L60.0735 68.7009C59.2312 67.1349 60.2534 65.7734 61.8929 63.9048C63.0746 62.5596 64.293 61.1695 64.3544 59.5176C64.4484 56.9663 62.8374 55.5761 61.8684 54.9792L61.3859 54.6807L61.9502 54.6234C63.0623 54.509 64.3012 54.1369 64.5751 53.5686C64.8368 53.0248 63.9782 50.3957 62.0238 45.7509C61.8275 44.8228 61.202 41.8053 61.022 40.362L61.0098 40.2884L61.0548 40.223C63.1972 37.2791 62.22 34.2453 60.3024 32.5444C58.3358 30.8026 54.9994 30.0993 52.4194 32.1314L52.2231 32.2868L52.125 32.0578C51.3931 30.3855 49.5001 29.208 47.0673 28.9095C42.6392 28.3657 39.4173 30.7167 38.297 33.1332C36.8864 36.1752 37.5733 38.3299 38.3992 39.6056L38.5914 39.9L38.2397 39.9041C35.8437 39.9286 34.196 40.501 33.2024 41.65C31.6119 43.4858 32.1516 46.3111 32.585 48.5803C32.8672 50.0441 33.043 51.1071 32.7486 51.4751C31.8041 52.6609 30.7206 52.3174 30.2994 52.113C29.6371 51.7941 29.2118 51.193 29.2241 50.6329L28.5168 50.4775C28.4309 51.3606 29.0238 52.3011 29.9887 52.7713C30.9087 53.2169 32.262 53.2292 33.2965 51.9331C33.8198 51.2707 33.5827 50.0236 33.2801 48.4413C32.8753 46.3274 32.3765 43.6984 33.7299 42.1324C34.6948 41.0162 36.5593 40.5174 39.2783 40.6564L39.5563 39.9163C39.0697 39.4461 37.1562 37.2791 38.9389 33.4439C40.3863 30.3201 44.1193 29.2816 46.9773 29.6332C48.9399 29.8745 51.1805 30.8639 51.6589 32.9205L52.3703 33.1372C54.1162 31.4241 57.285 30.8353 59.8322 33.0964C61.3941 34.4824 62.4858 37.0829 60.4251 39.855L60.3556 39.949L60.2411 39.9327C55.2283 39.1558 51.4953 39.8182 49.1484 41.9075C47.7051 43.1914 47.1 44.7451 46.8506 45.8245L46.7811 46.1189L46.5439 45.9308C46.4212 45.8368 46.3109 45.7673 46.2045 45.7141C45.8693 45.5588 45.1824 45.3952 44.3687 46.0126C43.5387 46.6382 43.1993 47.5745 43.412 48.6457C43.6859 50.0318 44.7653 51.3606 45.7098 52.0639L45.8938 52.1988L45.7303 52.3583C45.117 52.9471 44.7408 53.5645 44.6018 54.19C44.4464 54.9015 44.6059 55.6006 45.0842 56.2671C45.3623 56.6555 45.6444 57.0235 45.9142 57.3751L45.9592 57.4365C47.4066 59.3214 48.1181 60.364 47.1572 61.656C46.7647 62.1835 46.3149 62.5188 45.8407 62.8704C44.7122 63.7167 43.645 64.514 43.9639 67.552L44.6754 67.4661C44.4014 64.8534 45.2273 64.236 46.2659 63.4632C46.7443 63.1034 47.2758 62.7068 47.7255 62.1017C49.0666 60.3027 47.8891 58.7694 46.5235 56.9908C46.2373 56.6187 45.951 56.2426 45.6648 55.846C45.3091 55.3512 45.1905 54.8606 45.3009 54.3577C45.4563 53.6462 46.0451 53.0288 46.5071 52.6363L46.5889 52.5668L46.6012 52.5709L46.6175 52.5546C46.7811 52.4196 46.9323 52.3092 47.0673 52.2234L46.7156 51.5896C46.6788 51.6141 46.6461 51.6346 46.6093 51.6591L46.4948 51.7286L46.3885 51.6632C45.4604 51.0785 44.3483 49.7374 44.107 48.5108C43.9476 47.7053 44.1765 47.0634 44.7858 46.6014C45.1865 46.2988 45.5626 46.2211 45.902 46.3806C46.2413 46.536 46.5235 46.9244 46.6134 47.3414L47.3576 47.3006C47.3821 46.6055 47.6192 44.2136 49.6268 42.4432C51.8224 40.501 55.3755 39.9041 60.192 40.6605L60.3351 40.685L60.3556 40.824C60.5886 42.4145 61.1324 45.0477 61.341 46.0453L61.3573 46.0412L61.4187 46.1884C62.588 48.981 63.8596 52.3828 63.9128 53.1801L63.9209 53.2783L63.8474 53.3396C63.4344 53.6953 61.9175 53.957 61.296 53.957H61.2796H61.0343L61.0916 53.7198C61.1611 53.4418 61.2101 53.1597 61.2388 52.8776H60.5273C60.4578 53.7525 59.8609 57.2116 54.8113 57.3179C49.7822 57.2116 49.1648 53.7485 49.0871 52.8776L48.3757 52.8735ZM48.6087 72.9859L48.5842 72.7937C48.1671 69.3755 49.4551 68.4147 50.5917 67.5683C51.0456 67.229 51.4667 66.91 51.8265 66.4317C52.5911 65.4054 52.1373 64.6326 50.6367 62.6782C50.3505 62.3061 50.052 61.9136 49.7536 61.4966C49.177 60.687 48.9808 59.8529 49.1689 59.0065C49.3529 58.197 49.8721 57.5551 50.3382 57.1176C48.0118 55.4248 47.9831 52.7017 47.9831 52.6731V52.481L49.4673 52.4769L49.4714 52.669C49.4714 52.8408 49.5655 56.8068 54.8195 56.9213C60.0939 56.8109 60.1552 52.8449 60.1552 52.6731V52.481H61.6435V52.6731C61.6435 52.6772 61.6394 53.0248 61.5291 53.5563C62.1751 53.5113 63.1686 53.2946 63.5203 53.0943C63.3894 52.2806 62.3795 49.4758 61.1324 46.4787L61.0507 46.4992L61.0098 46.3111C60.8299 45.4688 60.2575 42.7294 59.9999 41.0162C55.3755 40.3129 51.9737 40.8895 49.8885 42.7294C47.6806 44.6756 47.746 47.4477 47.7501 47.4764L47.7542 47.6685L46.2781 47.7544L46.2618 47.5622C46.2332 47.2147 46.0083 46.8508 45.7466 46.7281C45.5422 46.6341 45.305 46.6913 45.0229 46.9039C44.5282 47.2801 44.3564 47.7626 44.4914 48.429C44.704 49.4962 45.673 50.6983 46.4948 51.2625C46.6052 51.193 46.6747 51.1521 46.687 51.1439L46.8547 51.054L47.5784 52.3583L47.4107 52.4523C47.2635 52.5382 47.0591 52.6772 46.8751 52.8244C46.8342 52.8817 46.777 52.9307 46.7115 52.9593C46.364 53.2578 45.8039 53.818 45.6689 54.4313C45.5831 54.8279 45.6812 55.2163 45.9674 55.617C46.2495 56.0136 46.5357 56.3857 46.8097 56.7414C48.1549 58.4955 49.5369 60.2986 48.024 62.3307C47.5416 62.9808 46.9855 63.3937 46.4989 63.7617C45.4481 64.5468 44.7653 65.0578 45.072 67.6092L45.0965 67.8014L43.6205 67.9854L43.5959 67.7932C43.183 64.375 44.4668 63.4142 45.6035 62.5637C46.0533 62.2285 46.4785 61.9095 46.8383 61.4271C47.6029 60.4008 47.145 59.628 45.6444 57.6736L45.5994 57.6123C45.3255 57.2566 45.0434 56.8845 44.7653 56.4961C44.2215 55.7397 44.0416 54.9342 44.2215 54.1083C44.3605 53.4663 44.7244 52.8408 45.3009 52.2397C44.3401 51.4629 43.3056 50.1218 43.0276 48.7234C42.7864 47.4968 43.1748 46.4256 44.1275 45.706C45.1047 44.9659 45.9429 45.1744 46.3599 45.3625C46.4212 45.3911 46.4826 45.4238 46.5398 45.4565C46.9282 43.9723 47.746 42.6353 48.8867 41.6132C51.3114 39.4625 55.1098 38.7633 60.1798 39.5279C61.9911 37.0052 60.9934 34.646 59.5706 33.3826C57.1623 31.2483 54.1612 31.8411 52.5584 33.4889L52.4766 33.5707L51.3195 33.2231L51.2991 33.1086C50.9188 31.1747 48.7886 30.2424 46.9242 30.0135C44.2052 29.6782 40.648 30.6595 39.2824 33.6075C37.4179 37.6267 39.8752 39.6874 39.8997 39.7119L40.0061 39.7978L39.5399 41.0571L39.3968 41.0489C36.731 40.8895 34.9238 41.3433 34.0202 42.3859C32.7854 43.8129 33.2679 46.3397 33.6563 48.3718C33.9793 50.0523 34.2328 51.377 33.595 52.1743C32.4174 53.6503 30.8719 53.634 29.817 53.1188C28.619 52.5423 27.9239 51.3157 28.1651 50.2035L28.206 50.0155L29.6616 50.3344L29.6207 50.5225C29.5308 50.9477 29.8988 51.4956 30.463 51.7654C30.88 51.9658 31.6937 52.1661 32.4378 51.2339C32.6423 50.9763 32.352 49.4635 32.1966 48.6539C31.7469 46.3029 31.1867 43.3754 32.8999 41.4005C33.922 40.2148 35.5575 39.6056 37.8881 39.5279C37.099 38.1459 36.5511 35.9585 37.9372 32.9737C39.1147 30.4346 42.4879 27.9609 47.1041 28.5293C49.5696 28.8318 51.5158 30.0053 52.3662 31.6858C55.0811 29.7068 58.5157 30.4551 60.5518 32.2623C62.5839 34.0654 63.6266 37.275 61.4023 40.3947C61.5945 41.8503 62.1996 44.7696 62.3795 45.6446C65.3806 52.7672 65.0658 53.4254 64.9145 53.7444C64.6038 54.3904 63.5325 54.7747 62.4899 54.9505C63.5121 55.707 64.8164 57.1462 64.7305 59.5463C64.6651 61.3371 63.4017 62.7804 62.1751 64.1747C60.3965 66.2027 59.6482 67.3107 60.4905 68.6804L60.5886 68.844L59.3293 69.6372L59.2271 69.4696C57.7102 67.0041 59.4888 64.972 61.0629 63.1811C62.1137 61.9831 63.1972 60.7443 63.2463 59.4931C63.3322 57.1176 61.5945 56.034 60.6909 55.6374C59.9099 56.8518 58.3439 58.2501 55.2365 58.4219V58.43L55.0443 58.4382H54.3779V58.4219C53.4089 58.3687 52.5298 58.1888 51.757 57.8985C51.4095 58.1438 50.7635 58.6794 50.6163 59.3541C50.5263 59.763 50.6367 60.18 50.9597 60.6339C51.2459 61.0345 51.5362 61.4107 51.8102 61.7705L51.6589 61.8891L51.8143 61.7746C53.1513 63.5164 54.5292 65.3195 53.0163 67.3475C52.5298 68.0017 51.9696 68.4188 51.479 68.7868C50.4364 69.5677 49.7536 70.0788 50.0602 72.6301L50.0847 72.8223L48.6087 72.9859Z" fill="#DEC685"/>
<path fill-rule="evenodd" clip-rule="evenodd" d="M42.5043 37.5612C41.7029 38.5956 41.6906 39.9122 42.4715 40.918C42.9622 41.5477 43.645 41.8911 44.3237 41.8911C44.6059 41.8911 44.888 41.8298 45.1537 41.7072C46.2904 41.1838 46.5603 40.7586 47.2881 39.6096C47.652 39.0413 48.1467 38.2604 48.9481 37.1523C49.5655 36.3019 50.2238 35.8521 50.9147 35.8235C52.0351 35.7826 52.9755 36.8375 52.9836 36.8498L53.4007 36.4859L53.8177 36.122C53.7687 36.0647 52.5952 34.7073 50.9924 34.7073C50.9556 34.7073 50.9188 34.7073 50.8779 34.7114C49.8353 34.7523 48.8867 35.3533 48.0608 36.494C47.468 37.3118 46.9037 38.1541 46.364 39.0086C45.6812 40.0839 45.5381 40.3088 44.6958 40.6972C44.1888 40.9303 43.6491 40.6318 43.3384 40.227C42.9745 39.7609 42.7946 38.9963 43.3752 38.2481L42.5043 37.5612Z" fill="#DEC685"/>
<path fill-rule="evenodd" clip-rule="evenodd" d="M42.5411 37.835C41.9114 38.7714 41.9359 39.9121 42.6228 40.7953C43.2484 41.6008 44.2501 41.9074 45.0679 41.5312C46.1514 41.0324 46.3967 40.6481 47.1204 39.5032C47.4843 38.9349 47.9791 38.154 48.7886 37.0337C49.4387 36.1301 50.1502 35.6599 50.8984 35.6271C51.8592 35.5903 52.6688 36.2772 52.9836 36.5798L53.5315 36.1014C53.1922 35.7539 52.2231 34.8912 50.9802 34.8912C50.9475 34.8912 50.9148 34.8912 50.878 34.8953C49.8926 34.9321 48.9971 35.5045 48.208 36.6003C47.3862 37.741 46.8833 38.5301 46.5194 39.1026C45.8243 40.1942 45.6608 40.4518 44.7694 40.8607C44.1684 41.1346 43.5346 40.7953 43.1789 40.3373C42.7005 39.7445 42.6719 38.9063 43.1012 38.2766L42.5411 37.835ZM44.3197 42.0832C43.5673 42.0832 42.8355 41.6989 42.3162 41.0324C41.478 39.9571 41.4944 38.5465 42.3489 37.4384L42.4675 37.2831L43.6368 38.2112L43.5224 38.3625C43.0113 39.0208 43.1666 39.6954 43.4856 40.1043C43.7472 40.4437 44.2011 40.7012 44.61 40.5132C45.3991 40.1493 45.5176 39.9571 46.1923 38.8981C46.5603 38.3175 47.0673 37.5243 47.8973 36.3754C48.76 35.1815 49.7576 34.5559 50.8616 34.5109C50.8984 34.5068 50.9393 34.5068 50.9802 34.5068C52.6811 34.5068 53.9036 35.9297 53.9527 35.991L54.0753 36.1382L52.9509 37.1154L52.8242 36.9723C52.816 36.9642 51.9615 36.0115 50.9638 36.0115H50.9107C50.2851 36.0401 49.6759 36.4572 49.0953 37.2585C48.5188 38.0558 47.9668 38.8736 47.4434 39.7077C46.7116 40.8566 46.409 41.3309 45.2233 41.8788C44.9452 42.0137 44.6345 42.0832 44.3197 42.0832ZM75.766 82.7537C78.4727 81.9523 79.7811 78.6282 78.947 74.5313L77.8676 74.7561C78.4686 77.6959 77.9084 81.1386 75.2671 81.7397C72.7403 82.3162 70.2993 80.0878 69.3344 76.318C68.7579 74.0611 68.9133 71.9554 69.7678 70.5407C70.283 69.6861 71.019 69.1423 71.9512 68.9297C72.5604 68.7825 73.1942 68.7989 73.7952 68.9747L74.1059 67.9035C73.325 67.6745 72.4991 67.654 71.71 67.838C71.2438 67.9443 70.7982 68.1242 70.3852 68.3737L70.3648 68.3328C67.3391 69.9028 63.9659 70.6838 60.56 70.6102L60.5396 71.7223C60.6868 71.7264 60.8299 71.7264 60.9771 71.7264C63.6102 71.7264 66.2188 71.2398 68.6434 70.3199C67.8093 71.9676 67.6662 74.2205 68.2713 76.592C68.9991 79.4295 70.5038 81.4984 72.3233 82.4143C70.0581 82.8395 67.4332 83.1707 65.6219 83.1707C62.9519 83.1707 60.3188 82.7905 57.8001 82.0341L57.4894 83.1012C60.1307 83.8903 62.8702 84.2869 65.6259 84.2829C68.578 84.2829 73.3454 83.4774 75.7741 82.7578L75.766 82.7537Z" fill="#DEC685"/>
<path fill-rule="evenodd" clip-rule="evenodd" d="M57.7266 82.9826C60.2738 83.7267 62.9274 84.1029 65.6219 84.1029C68.4921 84.1029 73.0797 83.3383 75.5452 82.6351L75.7128 82.5696C78.3092 81.801 79.5358 78.6772 78.7957 74.7602L78.0965 74.9074C78.6526 77.8922 78.0229 81.3103 75.3121 81.9318C72.6749 82.5288 70.144 80.2432 69.1504 76.3671C68.5617 74.0651 68.7252 71.9063 69.6043 70.4466C70.1481 69.543 70.9249 68.9706 71.9103 68.7457C72.4868 68.6108 73.0879 68.6108 73.6644 68.7457L73.8688 68.0465C73.1778 67.8748 72.45 67.8707 71.759 68.0343C71.3134 68.1365 70.884 68.3082 70.4915 68.5453L70.3116 68.6557L70.283 68.6026C67.331 70.0991 64.06 70.8596 60.7522 70.8146L60.7399 71.5424C63.4344 71.571 66.0716 71.1049 68.578 70.1481L69.0441 69.9682L68.8192 70.4139C68.0056 72.0208 67.8748 74.2573 68.4594 76.5511C69.1545 79.2578 70.5938 81.3348 72.4132 82.2507L72.9243 82.5083L72.3601 82.6146C69.821 83.0889 67.3023 83.3751 65.6219 83.3751C63.0174 83.3792 60.4292 83.0112 57.9269 82.2834L57.7266 82.9826ZM65.6219 84.4913C62.8497 84.4954 60.0898 84.0947 57.4322 83.3015L57.2482 83.2484L57.6693 81.8091L57.8574 81.8623C60.3556 82.6105 62.9724 82.9908 65.6219 82.9908C67.1388 82.9908 69.453 82.7414 71.7672 82.3325C70.0704 81.2653 68.7456 79.2332 68.0874 76.6533C67.519 74.4331 67.5885 72.3315 68.2754 70.6756C65.7936 71.5587 63.1727 71.984 60.5355 71.9308L60.3433 71.9267L60.372 70.4262L60.5641 70.4302C60.7031 70.4343 60.8381 70.4343 60.9771 70.4343C64.2317 70.4343 67.4495 69.6534 70.2789 68.1774L70.4506 68.0874L70.4711 68.1242C70.8472 67.9157 71.252 67.7644 71.6732 67.6704C72.495 67.4782 73.3536 67.4986 74.1632 67.7358L74.3472 67.7889L73.9301 69.2282L73.7421 69.1709C73.1737 69.0074 72.5727 68.991 71.9962 69.1259C71.113 69.3304 70.422 69.8415 69.9355 70.651C69.1095 72.0248 68.9583 74.0733 69.5225 76.2771C70.4588 79.9406 72.8098 82.1117 75.2222 81.5597C77.7408 80.9873 78.2601 77.655 77.6795 74.8011L77.6427 74.613L79.0983 74.3063L79.1392 74.4985C79.9774 78.6199 78.718 81.9563 76.0031 82.8845L76.0072 82.9008L75.8273 82.954C73.3863 83.6818 68.5944 84.4913 65.6219 84.4913ZM60.004 45.8816L57.424 44.7817L56.9906 44.7858L52.6688 46.6789L53.1063 47.7011L57.2155 45.9061L59.5788 46.912L60.004 45.8816Z" fill="#DEC685"/>
<path fill-rule="evenodd" clip-rule="evenodd" d="M52.9223 46.7771L53.2085 47.4435L57.2113 45.6936L59.4724 46.6544L59.7504 45.9839L57.3831 44.9739L57.0314 44.978L52.9223 46.7771ZM53.0041 47.9546L52.4153 46.5767L56.9906 44.5937L57.4648 44.5896L57.5016 44.606L60.2574 45.7794L59.6809 47.1614L57.2154 46.1147L53.0041 47.9546Z" fill="#DEC685"/>
<path fill-rule="evenodd" clip-rule="evenodd" d="M56.6553 48.0037C56.6553 48.5107 57.0887 48.9237 57.6202 48.9237C58.1517 48.9237 58.5851 48.5107 58.5851 48.0037C58.5851 47.4967 58.1517 47.0837 57.6202 47.0837C57.0887 47.0837 56.6553 47.5008 56.6553 48.0037Z" fill="#DEC685"/>
<path fill-rule="evenodd" clip-rule="evenodd" d="M57.6202 47.28C57.195 47.28 56.8475 47.6071 56.8475 48.0078C56.8475 48.4085 57.1909 48.7356 57.6202 48.7356C58.0496 48.7356 58.393 48.4085 58.393 48.0078C58.393 47.6071 58.0455 47.28 57.6202 47.28ZM57.6202 49.1159C56.9824 49.1159 56.4631 48.617 56.4631 48.0037C56.4631 47.3904 56.9824 46.8916 57.6202 46.8916C58.2581 46.8916 58.7814 47.3904 58.7814 48.0037C58.7814 48.617 58.2581 49.1159 57.6202 49.1159Z" fill="#DEC685"/>
<path fill-rule="evenodd" clip-rule="evenodd" d="M77.6508 59.5297L68.2222 63.3159L72.0206 51.3564C72.037 51.3564 72.0533 51.3605 72.0697 51.3605C72.1024 51.3605 72.131 51.3523 72.1637 51.3523L77.7898 58.8101C77.6917 58.9859 77.6385 59.1822 77.6385 59.3825C77.6385 59.4316 77.6467 59.4806 77.6508 59.5297ZM48.4778 77.1275C48.7149 77.4015 49.0625 77.5814 49.4591 77.5814C49.4877 77.5814 49.5163 77.5732 49.5449 77.5732L54.7008 86.2863C52.8486 85.9224 51.0373 85.3663 49.2996 84.6222C46.0982 83.2524 43.1911 81.2858 40.7297 78.8244L48.4778 77.1275ZM36.0113 62.8865C36.089 63.3159 36.3916 63.6716 36.8045 63.8269L38.8039 76.7105C37.0948 74.6252 35.7046 72.3151 34.6579 69.8087L33.9179 69.5225L33.509 69.7147C32.6258 67.1265 32.1188 64.4239 32.0084 61.6885L36.0113 62.8865ZM87.7376 87.0427C84.1723 90.6612 79.9405 93.5478 75.2711 95.5431C70.4465 97.612 65.2497 98.671 59.9998 98.6628C54.7049 98.6628 49.5695 97.612 44.7284 95.5431C40.0591 93.5478 35.8232 90.6571 32.2619 87.0427C28.9051 83.6531 26.1902 79.683 24.244 75.3244L33.8688 70.7737C35.2917 73.9997 37.2911 76.9395 39.7729 79.4418C42.3733 82.079 45.4603 84.1888 48.8662 85.6443C52.3825 87.149 56.1728 87.9258 59.9957 87.9177C62.2936 87.9177 64.5751 87.6437 66.7707 87.104L66.509 86.0246C63.1072 86.8546 59.5787 87.0263 56.1155 86.5275L50.5058 77.0417C50.6489 76.8372 50.7307 76.596 50.7307 76.3466C50.7307 75.6638 50.1583 75.1077 49.4509 75.1077C48.854 75.1077 48.3551 75.5084 48.2161 76.044L40.0877 77.8226L37.9085 63.7452C38.2887 63.5326 38.5504 63.136 38.5504 62.678C38.5504 61.9952 37.978 61.4432 37.2706 61.4432C36.9108 61.4432 36.5837 61.5904 36.3507 61.8235L31.9798 60.5192C31.9798 60.4987 31.7795 60.4619 31.7795 60.4619H30.8759C30.8759 63.8065 31.4279 67.0734 32.5073 70.189L28.6434 72.0166C27.3105 68.3123 26.6318 64.3994 26.6359 60.4619C26.6359 59.6319 26.6645 58.8019 26.7217 57.9883L25.6219 57.9065C25.5605 58.7447 25.5319 59.6074 25.5319 60.4619C25.5319 64.6038 26.2393 68.6475 27.6376 72.4909L23.7901 74.3104C22.1342 69.8823 21.2878 65.1926 21.296 60.4619C21.296 55.1752 22.3223 50.048 24.338 45.2192C26.2761 40.5744 29.0891 36.3508 32.6299 32.7732C36.1462 29.2037 40.3249 26.3539 44.9329 24.3831C49.6962 22.3469 54.8194 21.3002 59.9998 21.3084C65.2252 21.3084 70.2952 22.3428 75.0667 24.3872C79.6747 26.358 83.8534 29.2078 87.3697 32.7772C90.9105 36.3508 93.7276 40.5785 95.6616 45.2192C97.6814 50.048 98.7117 55.2284 98.7036 60.4619C98.7036 65.0985 97.9022 69.6288 96.3403 73.9424L92.362 72.4868C93.7603 68.6312 94.4717 64.5629 94.4677 60.4619C94.4677 41.2368 79.0082 25.5975 60.0039 25.5975C57.3176 25.5975 54.6436 25.9082 52.0513 26.5297L52.3048 27.6132C54.8153 27.0162 57.4035 26.7096 60.0039 26.7096C68.4593 26.7096 76.1829 29.9151 82.0666 35.1732L83.146 44.0785C82.7167 44.2788 82.4387 44.7081 82.4346 45.1824V45.1906L72.7484 49.079C72.544 48.9522 72.3109 48.8868 72.0697 48.8868C72.0247 48.8868 71.9838 48.895 71.9429 48.8991L67.7193 39.8548C67.9115 39.6381 68.0178 39.356 68.0219 39.0657C68.0219 38.7345 67.8828 38.4156 67.6416 38.1866L69.2362 33.6931C69.7964 33.8894 70.3565 34.1061 70.9044 34.3391C74.2408 35.7661 77.2664 37.8309 79.8137 40.4191L80.5906 39.6299C77.9452 36.9436 74.8009 34.7971 71.3337 33.3129C69.2607 32.4256 67.0896 31.7878 64.8695 31.4075L64.6895 32.5074C65.8753 32.7077 67.0446 32.994 68.1936 33.3538L66.599 37.8473C65.9652 37.9209 65.4705 38.436 65.4705 39.0698C65.4705 39.7403 66.0266 40.2841 66.7135 40.3005L70.9943 49.4715C70.8676 49.6636 70.7981 49.8926 70.794 50.1257C70.794 50.3914 70.8839 50.6368 71.0311 50.8412L67.151 63.0542C66.5376 63.1441 66.0634 63.6511 66.0634 64.2726C66.0634 64.9554 66.6358 65.5074 67.3431 65.5074C68.0178 65.5074 68.5616 65.0004 68.6106 64.3585L78.1251 60.5396L76.3506 69.5798C75.7986 69.7147 75.4061 70.2013 75.3979 70.7696C75.3979 71.4524 75.9703 72.0044 76.6777 72.0044C77.3727 72.0044 77.9329 71.4688 77.9533 70.7982L90.3626 65.168C90.5793 65.3398 90.8532 65.442 91.1558 65.442C91.8591 65.442 92.4356 64.8859 92.4356 64.2072C92.4356 63.5244 91.8631 62.9683 91.1558 62.9683C90.4648 62.9683 89.9006 63.5039 89.8801 64.1663L77.4668 69.8006L77.4382 69.776L79.2454 60.5764C79.7973 60.4415 80.1899 59.9508 80.198 59.3866C80.198 58.7038 79.6256 58.1518 78.9183 58.1518C78.8406 58.1518 78.767 58.16 78.6934 58.1723L73.1368 50.8085C73.2718 50.6122 73.3494 50.3833 73.3494 50.1298C73.3494 50.1011 73.3413 50.0766 73.3413 50.048L82.962 46.1841C83.1746 46.3313 83.4322 46.4254 83.7143 46.4254C84.4176 46.4254 84.9941 45.8693 84.9941 45.1906C84.9941 44.6959 84.6874 44.2706 84.254 44.0744L83.3177 36.3549C89.7575 42.721 93.376 51.4054 93.3637 60.4619C93.3637 64.4689 92.6809 68.3818 91.3275 72.1066L86.8177 70.4548L86.6296 70.9781L86.8177 70.4548L85.7914 70.0786L85.1004 70.373C84.0373 72.7731 82.6349 75.0137 80.9422 77.0212L81.7804 77.7449C83.4322 75.7905 84.8142 73.6235 85.8936 71.3011L86.4415 71.5015L95.911 74.9728C93.9566 79.4663 91.1844 83.5591 87.7376 87.0427ZM99.8075 60.4619C99.8075 55.028 98.7526 49.7536 96.6796 44.7858C94.6884 40.0102 91.7895 35.6639 88.1506 31.9881C84.5321 28.3165 80.2348 25.3889 75.5001 23.3609C70.6018 21.2634 65.3315 20.184 60.0039 20.1922C54.6354 20.1922 49.4182 21.2593 44.5077 23.3609C39.7688 25.3889 35.4716 28.3165 31.8572 31.9881C28.2182 35.6639 25.3193 40.0102 23.3281 44.7858C21.247 49.7495 20.1839 55.0812 20.1921 60.4619C20.1921 65.4829 21.1202 70.3934 22.9029 75.0382L23.0215 75.2794C25.0331 79.9569 27.9034 84.2133 31.4851 87.8318C35.1486 91.5484 39.5031 94.5168 44.2991 96.5694C49.2587 98.6955 54.6027 99.7872 59.9998 99.779C65.4419 99.779 70.7245 98.6996 75.7005 96.5694C80.5006 94.5168 84.851 91.5484 88.5145 87.8318C92.2025 84.107 95.1382 79.7034 97.1539 74.8665L97.1867 74.797C98.9244 70.2176 99.8116 65.3602 99.8075 60.4619Z" fill="#DEC685"/>
<path fill-rule="evenodd" clip-rule="evenodd" d="M72.1352 51.6344L68.529 62.9847L77.4424 59.403V59.3825C77.4424 59.1945 77.4832 59.0105 77.5609 58.8306L72.1352 51.6344ZM67.9156 63.6471L71.8858 51.1561L72.1025 51.1642L72.2579 51.152L78.023 58.7938L77.9616 58.9042C77.8798 59.0514 77.8349 59.2149 77.8308 59.3866C77.8308 59.4153 77.8349 59.4398 77.839 59.4643L77.8594 59.6115L77.7245 59.7096L67.9156 63.6471ZM33.9098 69.314L34.8052 69.6616L34.8379 69.7352C35.7783 71.984 37.0091 74.0978 38.5055 76.0236L36.6329 63.966C36.2486 63.7861 35.9623 63.4467 35.8519 63.0379L32.213 61.9543C32.3438 64.5139 32.8181 67.0325 33.6236 69.449L33.9098 69.314ZM39.1066 77.3811L38.6568 76.8332C36.9518 74.752 35.5535 72.4378 34.5108 69.96L33.9262 69.7311L33.3946 69.9805L33.3251 69.7761C32.4379 67.1675 31.9268 64.4485 31.8123 61.6968L31.8 61.4228L36.1831 62.7271L36.2036 62.8457C36.2649 63.2014 36.5225 63.5081 36.8741 63.643L36.9804 63.6839L39.1066 77.3811ZM41.1182 78.9348C43.5101 81.2613 46.3068 83.1298 49.3733 84.4423C50.9557 85.121 52.6157 85.6444 54.3084 86.0083L49.4347 77.7695C49.0503 77.7654 48.6823 77.61 48.4084 77.3361L41.1182 78.9348ZM55.0853 86.5602L54.66 86.4744C52.7956 86.1064 50.972 85.5462 49.222 84.798C46.0001 83.4201 43.0685 81.4371 40.5908 78.9593L40.3414 78.7099L48.5474 76.915L48.6251 77.0008C48.8336 77.2461 49.1403 77.3852 49.4592 77.3852L49.6514 77.3729L55.0853 86.5602ZM24.5017 75.4226C26.4315 79.6912 29.1056 83.5796 32.4011 86.9078C35.946 90.5058 40.1615 93.3802 44.8062 95.3673C49.6064 97.424 54.7786 98.4829 59.9999 98.4707C65.2662 98.4707 70.3811 97.424 75.1936 95.3673C79.8383 93.3802 84.0538 90.5058 87.5987 86.9078L87.7337 87.0427L87.5987 86.9078C90.9842 83.4896 93.7113 79.4827 95.6494 75.0832L85.9878 71.5424C84.9124 73.8198 83.5468 75.9459 81.9236 77.8676L81.7968 78.0189L80.6684 77.0417L80.791 76.8945C82.4715 74.8992 83.8616 72.679 84.9206 70.2953L84.9533 70.2258L85.7833 69.8701L91.2091 71.8572C92.5134 68.1978 93.1757 64.3462 93.1675 60.462C93.1675 51.569 89.7657 43.2199 83.5754 36.8905L84.43 43.9395C84.892 44.193 85.1864 44.6673 85.1864 45.1824C85.1864 45.9716 84.524 46.6135 83.7144 46.6135C83.4405 46.6135 83.1747 46.5399 82.9417 46.3968L73.5458 50.1707C73.5376 50.3915 73.4804 50.6041 73.3741 50.7962L78.7794 57.9638C78.8243 57.9597 78.8693 57.9556 78.9184 57.9556C79.7279 57.9556 80.3903 58.5975 80.3903 59.3825C80.3903 59.9877 79.9937 60.5233 79.4131 60.7236L77.6918 69.4858L89.6962 64.0355C89.7903 63.3036 90.4199 62.7639 91.1559 62.7721C91.9696 62.7721 92.6278 63.414 92.6278 64.2031C92.6278 64.9923 91.9655 65.6301 91.1559 65.6301C90.8656 65.6301 90.5876 65.5483 90.3422 65.3889L78.1415 70.925C78.0597 71.6364 77.4301 72.1925 76.6819 72.1925C75.8723 72.1925 75.2099 71.5506 75.2099 70.7614C75.2099 70.1563 75.6065 69.6207 76.1871 69.4203L77.8717 60.8422L68.7906 64.4894C68.6802 65.1722 68.0628 65.6914 67.3432 65.6914C66.5337 65.6914 65.8713 65.0495 65.8713 64.2645C65.8713 63.6062 66.3497 63.0297 66.9998 62.8784L70.8186 50.8658C70.5488 50.4405 70.5283 49.9008 70.7737 49.4551L66.5868 40.4845C65.8549 40.4068 65.2743 39.7935 65.2743 39.0657C65.2743 38.3829 65.7732 37.8064 66.4519 37.6715L67.9402 33.4764C66.8608 33.1494 65.765 32.8877 64.6529 32.6955L64.4648 32.6628L64.7101 31.1827L64.9023 31.2154C67.1388 31.5956 69.3222 32.2417 71.4115 33.133C74.9033 34.6254 78.0679 36.7842 80.7297 39.4909L80.8646 39.6259L79.8138 40.6889L79.6748 40.5499C77.1439 37.9822 74.1387 35.9297 70.8268 34.515C70.3403 34.3105 69.8496 34.1184 69.3508 33.9385L67.8625 38.1376C68.2959 38.6282 68.3327 39.3519 67.9443 39.8794L72.0575 48.6906C72.3028 48.7069 72.5441 48.7478 72.7608 48.8623L82.2466 45.0557C82.2875 44.6059 82.541 44.2093 82.9376 43.9722L81.8827 35.2714C75.8191 29.8743 68.0506 26.9018 59.9999 26.9018C57.4117 26.9018 54.8358 27.2044 52.3458 27.7972L52.1577 27.8422L51.8143 26.3825L52.0024 26.3376C54.6232 25.712 57.3054 25.3971 59.9999 25.3971C79.1105 25.3971 94.6558 41.1264 94.6558 60.4538C94.6558 64.5466 93.9648 68.5494 92.6033 72.3601L96.2177 73.6849C97.7346 69.4367 98.5115 64.9636 98.5074 60.4538C98.5074 55.1957 97.4893 50.093 95.4818 45.2847C93.5519 40.6644 90.7511 36.4571 87.2307 32.8999C83.7308 29.3468 79.5726 26.5134 74.9891 24.5508C70.2544 22.535 65.1517 21.4924 59.9999 21.5006C54.8031 21.5006 49.7618 22.531 45.0066 24.5631C40.4231 26.5256 36.2649 29.3591 32.765 32.9081C25.5239 40.2474 21.4678 50.1502 21.4883 60.462C21.4883 65.1231 22.3019 69.6943 23.9006 74.0447L27.4006 72.3887C26.0309 68.5617 25.3358 64.5261 25.3399 60.4579C25.3399 59.5992 25.3685 58.7365 25.4298 57.8902L25.4421 57.698L26.9263 57.8084L26.914 58.0006C26.8568 58.8183 26.8282 59.6401 26.8282 60.462C26.8282 64.3422 27.4742 68.1406 28.7539 71.7509L32.2702 70.0868C31.2194 66.9876 30.6797 63.7329 30.6838 60.462V60.2698H31.7837C31.8777 60.2821 31.9718 60.3066 32.0576 60.3434L36.3017 61.6109C36.5716 61.3819 36.9109 61.2552 37.2748 61.2552C38.0844 61.2552 38.7468 61.8971 38.7468 62.6862C38.7468 63.1483 38.5096 63.5817 38.1212 63.8474L40.2555 77.5937L48.0731 75.8805C48.2857 75.2958 48.8418 74.9115 49.4633 74.9156C50.2769 74.9156 50.9352 75.5575 50.9352 76.3466C50.9352 76.5919 50.8698 76.8332 50.743 77.0499L56.2465 86.3558C59.726 86.8383 63.1932 86.6461 66.4723 85.8406L66.6604 85.7956L67.012 87.2512L66.824 87.2962C64.5915 87.8441 62.3018 88.118 59.9999 88.1139C56.1115 88.1139 52.3417 87.3453 48.7927 85.8284C45.3623 84.3605 42.2549 82.2426 39.6381 79.5849C37.1849 77.1112 35.2018 74.2164 33.7749 71.0395L24.5017 75.4226ZM59.9999 98.8591C54.6805 98.8591 49.5164 97.8042 44.655 95.723C39.9652 93.7155 35.7088 90.8125 32.1271 87.1776C28.7539 83.7717 26.0268 79.7852 24.0724 75.4062L23.9947 75.2345L33.9711 70.5161L34.0488 70.696C35.4594 73.9016 37.4506 76.8168 39.912 79.3069C42.492 81.9277 45.5626 84.0211 48.944 85.4685C52.4358 86.965 56.1974 87.7337 59.9999 87.7255C62.216 87.7255 64.4198 87.4679 66.5418 86.9609L66.3701 86.2536C63.0051 87.0509 59.5174 87.2063 56.0952 86.7156L56.0052 86.7033L50.281 77.0294L50.3546 76.9272C50.4773 76.7555 50.5427 76.5511 50.5427 76.3425C50.5427 75.766 50.0561 75.2958 49.4551 75.2958C48.9645 75.2917 48.5351 75.6147 48.4043 76.089L48.3757 76.2035L39.9284 78.0516L37.6919 63.6389L37.8104 63.5735C38.1416 63.3977 38.3502 63.0542 38.3542 62.6781C38.3542 62.1015 37.8677 61.6354 37.2707 61.6354C36.9763 61.6354 36.6942 61.7499 36.4857 61.9584L36.4039 62.0402L31.7837 60.6582L31.7428 60.65L31.0682 60.6541C31.0845 63.8801 31.6324 67.0775 32.6873 70.1236L32.7445 70.2872L28.5331 72.2784L28.4596 72.078C27.1185 68.3491 26.4356 64.4198 26.4438 60.4579C26.4438 59.6933 26.4683 58.9205 26.5174 58.16L25.806 58.1069C25.7528 58.8878 25.7283 59.6728 25.7283 60.4538C25.7283 64.567 26.4356 68.5944 27.8258 72.4174L27.8871 72.5809L23.688 74.568L23.6144 74.3718C21.9462 69.9314 21.0958 65.2171 21.104 60.462C21.104 55.1507 22.1343 49.9989 24.1623 45.1456C26.1085 40.4804 28.9379 36.2322 32.4951 32.6383C36.0278 29.0525 40.2269 26.1904 44.8553 24.2114C49.6391 22.163 54.7909 21.1081 59.9999 21.1163C65.2498 21.1163 70.3443 22.1548 75.1445 24.2114C79.7729 26.1904 83.9761 29.0525 87.5088 32.6424C91.066 36.2363 93.8953 40.4804 95.8457 45.1497C97.8737 50.003 98.9122 55.208 98.8999 60.4661C98.904 65.0863 98.0985 69.6698 96.5244 74.012L96.459 74.196L92.1168 72.6054L92.1822 72.4255C93.5723 68.5944 94.2797 64.5466 94.2756 60.4701C94.2756 41.3513 78.902 25.7978 60.004 25.7978C57.3954 25.7978 54.7991 26.0963 52.2845 26.681L52.448 27.3884C54.9258 26.8118 57.4608 26.5256 60.004 26.5256C68.1773 26.5256 76.0563 29.5513 82.1975 35.0383L82.2507 35.0874L83.3546 44.2011L83.232 44.2625C82.8681 44.4301 82.635 44.7899 82.6309 45.1906V45.3215L82.5083 45.3787L72.7322 49.3039L72.6504 49.2548C72.4541 49.1362 72.2252 49.0626 72.0084 49.0953L71.8694 49.1158L71.7713 48.9931L67.4945 39.8344L67.5763 39.7404C67.7398 39.5564 67.8298 39.3233 67.8339 39.078C67.8339 38.7959 67.7153 38.5301 67.515 38.3379L67.425 38.2521L69.1259 33.456L69.3099 33.5214C69.9191 33.7381 70.4711 33.9467 70.9863 34.1715C74.2859 35.5821 77.2829 37.6142 79.8179 40.1533L80.3249 39.6422C77.7245 37.0336 74.6498 34.9525 71.2643 33.5051C69.2649 32.6505 67.1756 32.025 65.0331 31.6447L64.9145 32.3643C66.0021 32.5565 67.1224 32.8345 68.2509 33.1821L68.4431 33.2434L66.7422 38.0395L66.6195 38.0517C66.0757 38.1171 65.6628 38.5587 65.6628 39.0821C65.6628 39.6422 66.1371 40.1083 66.7177 40.1206L66.8362 40.1247L71.2112 49.5001L71.1539 49.5901C71.0476 49.7536 70.9863 49.9458 70.9863 50.138C70.9863 50.3506 71.0558 50.5591 71.1866 50.7349L71.2439 50.8167L67.2942 63.2382L67.1756 63.2546C66.6522 63.3322 66.2556 63.7738 66.2556 64.2808C66.2556 64.8573 66.7422 65.3234 67.3432 65.3234C67.9034 65.3234 68.3777 64.8982 68.4186 64.3544L68.4267 64.2359L68.5371 64.1909L78.3828 60.2371L76.5142 69.7474L76.3956 69.7761C75.9295 69.8865 75.5983 70.2994 75.5902 70.7778C75.5902 71.3543 76.0767 71.8204 76.6778 71.8204C77.2584 71.8204 77.7449 71.3625 77.7572 70.8023L77.7613 70.6797L90.3831 64.9514L90.4772 65.0209C90.6693 65.1722 90.9065 65.2539 91.1477 65.2539C91.7447 65.2539 92.2353 64.7878 92.2353 64.2113C92.2353 63.6348 91.7488 63.1687 91.1477 63.1687C90.559 63.1687 90.0847 63.6103 90.0683 64.1786L90.0642 64.2972L89.9538 64.3462L77.4342 70.0296L77.2297 69.8824L77.242 69.7434L79.0737 60.4211L79.1923 60.3925C79.6584 60.2821 79.9896 59.8691 79.9978 59.3907C79.9978 58.8183 79.5112 58.3481 78.9143 58.3481C78.8489 58.3481 78.7875 58.3563 78.7221 58.3645L78.6076 58.3849L72.8998 50.8167L72.9775 50.7022C73.092 50.5346 73.1574 50.3342 73.1574 50.1298C73.1533 50.1053 73.1492 50.0807 73.1492 50.0562L73.141 49.9172L73.2678 49.864L82.9866 45.9634L83.0725 46.0247C83.2606 46.1596 83.4814 46.2292 83.7144 46.2292C84.3114 46.2292 84.802 45.7589 84.802 45.1865C84.7939 44.7777 84.5485 44.4097 84.1765 44.2461L84.0783 44.2011L83.0562 35.8234L83.4528 36.2159C89.9702 42.6638 93.556 51.2787 93.556 60.462C93.556 64.4893 92.865 68.4309 91.5075 72.172L91.4421 72.356L86.9323 70.7001L86.8096 71.0395L86.4457 70.9086L86.5684 70.5652L85.7956 70.279L85.2477 70.5161C84.2051 72.8508 82.8476 75.0301 81.2121 76.9926L81.7559 77.4628C83.3383 75.5575 84.6712 73.4559 85.7138 71.2112L85.7915 71.0517L96.1687 74.8542L96.0869 75.0423C94.1243 79.5604 91.3399 83.6736 87.8727 87.1735C84.2909 90.8084 80.0387 93.7114 75.3448 95.719C70.4956 97.8001 65.2743 98.8673 59.9999 98.8591ZM59.9999 20.3885C54.6559 20.3885 49.4674 21.4475 44.5814 23.5409C39.8671 25.5566 35.5903 28.476 31.9922 32.1272C28.3655 35.7825 25.483 40.1083 23.504 44.8594C21.4351 49.8027 20.3762 55.1058 20.3843 60.462C20.3843 65.4257 21.292 70.3035 23.0829 74.9687L23.1933 75.1936C25.1968 79.8507 28.0548 84.0907 31.6201 87.6969C35.2673 91.3972 39.5972 94.3533 44.3728 96.3936C49.3079 98.5075 54.6232 99.5951 59.9958 99.5869C65.4134 99.5869 70.6674 98.5115 75.6188 96.3936C80.3944 94.3492 84.7284 91.3972 88.3715 87.6969C92.0432 83.9884 94.9625 79.6094 96.9701 74.7929L97.0069 74.7152C98.7282 70.1604 99.6114 65.3316 99.6073 60.4661C99.6155 55.1098 98.5565 49.8068 96.4917 44.8635C94.5087 40.1124 91.6261 35.7866 88.0035 32.1272C84.4054 28.476 80.1286 25.5566 75.4144 23.5409C70.5488 21.4515 65.303 20.3803 59.9999 20.3885ZM59.9999 99.9712C54.5333 99.9712 49.222 98.8877 44.2256 96.7452C39.405 94.6845 35.0301 91.6997 31.3462 87.9668C27.7481 84.3319 24.8615 80.051 22.8417 75.3531L22.7272 75.12C20.924 70.4466 20 65.4747 20 60.462C20 54.9994 21.059 49.7005 23.1483 44.7081C25.1477 39.9121 28.0548 35.5453 31.7142 31.8532C35.349 28.1652 39.6667 25.2213 44.426 23.1852C49.3488 21.0754 54.6478 19.9919 59.9999 20C65.3929 20 70.6346 21.0713 75.5738 23.1811C80.3331 25.2172 84.6508 28.1611 88.2856 31.8491C91.945 35.5453 94.8521 39.908 96.8556 44.7081C98.9408 49.6964 100.012 55.0526 99.9998 60.462C99.9998 65.4011 99.1166 70.2463 97.3708 74.8624L97.3299 74.9483C95.306 79.8057 92.358 84.2256 88.6536 87.9668C84.9738 91.7038 80.5988 94.6845 75.7742 96.7452C70.79 98.8836 65.4215 99.9835 59.9999 99.9712Z" fill="#DEC685"/>
<path fill-rule="evenodd" clip-rule="evenodd" d="M85.8242 49.4307C87.2839 52.9225 88.0321 56.6759 88.0239 60.4621H89.1279C89.1279 56.4838 88.3592 52.6281 86.8423 48.9973L85.8242 49.4307Z" fill="#DEC685"/>
<path fill-rule="evenodd" clip-rule="evenodd" d="M88.2161 60.2697H88.9316C88.9152 56.4877 88.1711 52.7465 86.736 49.2507L86.0777 49.5328C87.4719 52.9387 88.1997 56.5858 88.2161 60.2697ZM89.3159 60.6541H87.8276V60.4619C87.8358 56.7003 87.0917 52.9755 85.6443 49.5042L85.5707 49.3283L86.9404 48.7437L87.014 48.9236C88.5432 52.5789 89.3241 56.504 89.3159 60.466V60.6541ZM34.1142 78.7712L34.5476 79.2945C34.5926 79.3477 34.9687 79.8302 34.519 80.2104C34.4209 80.3044 34.29 80.3576 34.1551 80.3617C33.8607 80.3617 33.6236 80.0796 33.6195 80.0796L33.1861 79.5562L34.1142 78.7712ZM34.2246 76.9599L29.8456 80.6642L30.6797 81.6742L32.2375 80.3576L32.6709 80.881C32.6995 80.9137 33.3373 81.6742 34.2246 81.6742C34.6212 81.6742 35.0015 81.5229 35.3531 81.2244C36.4693 80.2799 35.9296 79.0247 35.4921 78.4972L34.2246 76.9599Z" fill="#DEC685"/>
<path fill-rule="evenodd" clip-rule="evenodd" d="M33.4559 79.5808L33.7667 79.957C33.8157 80.0142 33.9875 80.1696 34.151 80.1696C34.2001 80.1696 34.2778 80.1574 34.3923 80.0633C34.6744 79.8221 34.4904 79.5318 34.3963 79.4132L34.0897 79.0411L33.4559 79.5808ZM34.1551 80.558C33.7708 80.558 33.4846 80.2187 33.4723 80.2064L32.9162 79.5359L34.1387 78.5014L34.6948 79.1761C34.9688 79.5113 35.0587 80.0102 34.6417 80.3618C34.5067 80.4804 34.335 80.554 34.1551 80.558ZM32.262 80.0797L32.8181 80.7543C32.8263 80.7625 33.415 81.478 34.2205 81.478C34.5681 81.478 34.9074 81.3431 35.2223 81.0732C36.224 80.2269 35.7333 79.0943 35.3367 78.6118L34.1919 77.2257L30.1114 80.6807L30.7001 81.3921L32.262 80.0797ZM30.6552 81.9482L29.5717 80.6398L34.2451 76.686L35.6393 78.3747C36.1218 78.9553 36.7065 80.3291 35.4758 81.3717C35.0873 81.7029 34.6662 81.8664 34.2246 81.8664C33.2311 81.8664 32.5278 81.0078 32.5237 81.0037L32.2171 80.6316L30.6552 81.9482ZM41.0364 83.7513L37.8227 88.5351L40.4435 90.3342L41.1345 89.2997L39.5972 88.2407L42.1158 84.4914L41.0364 83.7513Z" fill="#DEC685"/>
<path fill-rule="evenodd" clip-rule="evenodd" d="M38.0925 88.4819L40.3945 90.0643L40.8728 89.3528L39.3314 88.2939L41.85 84.5445L41.0895 84.0212L38.0925 88.4819ZM40.4967 90.604L37.5569 88.5842L40.9832 83.4814L42.3816 84.4382L39.8629 88.1916L41.4003 89.2506L40.4967 90.604ZM49.7249 92.4848C49.7208 92.4889 49.5859 92.9018 49.1688 92.9018C49.0748 92.9018 48.9808 92.8855 48.8908 92.8528C48.2857 92.6524 48.4083 92.1536 48.437 92.0596L49.6431 88.3388L48.4042 87.9259L47.2022 91.6466C47.1981 91.663 46.6543 93.4211 48.5106 94.0344C48.7722 94.1203 49.0216 94.1653 49.2588 94.1653C50.281 94.1653 50.8207 93.3312 50.9638 92.8896L52.1659 89.1688L50.927 88.76L49.7249 92.4848Z" fill="#DEC685"/>
<path fill-rule="evenodd" clip-rule="evenodd" d="M48.5269 88.1752L47.3862 91.7079C47.3657 91.7733 46.9119 93.3025 48.5719 93.8544C48.8131 93.9321 49.0462 93.9771 49.2588 93.9771C50.1665 93.9771 50.649 93.2289 50.7798 92.8364L51.9246 89.2996L51.0537 89.0093L49.9089 92.5501C49.7535 92.9754 49.2833 93.1962 48.854 93.0408C48.8499 93.0367 48.8418 93.0367 48.8377 93.0326C48.1916 92.82 48.1712 92.2803 48.2571 91.9982L49.4019 88.4573L48.5269 88.1752ZM49.2588 94.3614C49.0012 94.3614 48.7273 94.3124 48.4492 94.2224C46.4049 93.5478 47.01 91.6097 47.0182 91.5893L48.2816 87.6846L49.8885 88.2161L48.6251 92.1167C48.5883 92.2353 48.5433 92.5297 48.9562 92.6687C49.0257 92.6932 49.0993 92.7055 49.1729 92.7096C49.4305 92.7096 49.5287 92.4602 49.545 92.4234L50.8084 88.5228L52.4153 89.0543L51.1519 92.9549C50.9883 93.4415 50.3914 94.3614 49.2588 94.3614ZM57.3381 91.3481L58.6588 91.3889L58.5197 95.9111L59.824 95.952L59.9631 91.4257L61.2919 91.4666L61.3328 90.2196L57.3749 90.0969L57.3381 91.3481Z" fill="#DEC685"/>
<path fill-rule="evenodd" clip-rule="evenodd" d="M58.7201 95.7271L59.636 95.7557L59.775 91.2295L61.1038 91.2704L61.1324 90.4118L57.563 90.2973L57.5385 91.16L58.8591 91.2009L58.7201 95.7271ZM60.0121 96.1564L58.3235 96.1033L58.4625 91.5811L57.1418 91.5403L57.1909 89.9089L61.5372 90.0438L61.4841 91.6752L60.1552 91.6343L60.0121 96.1564ZM69.5511 93.5356C69.4734 93.556 69.3916 93.5683 69.3139 93.5724C68.8846 93.5724 68.7579 93.1676 68.7456 93.1226L68.2223 91.1314C68.2223 91.1273 68.1855 90.976 68.2264 90.8084C68.2795 90.5835 68.4431 90.4363 68.7211 90.3627C68.7988 90.3423 68.8805 90.33 68.9623 90.33C69.3916 90.33 69.5184 90.7348 69.5307 90.7798L70.054 92.771C70.0704 92.865 70.1644 93.372 69.5511 93.5356ZM70.7859 90.4363C70.6632 89.962 70.1358 89.0625 69.04 89.0625C68.8233 89.0666 68.6107 89.0952 68.4022 89.1525C67.4168 89.4141 67.0774 90.0356 66.9629 90.5058C66.8403 91.0087 66.9548 91.4462 66.9588 91.4626L67.4822 93.4579C67.6049 93.9322 68.1323 94.8317 69.2281 94.8317C69.4284 94.8317 69.641 94.8031 69.8659 94.7417C71.759 94.2347 71.3133 92.448 71.3092 92.4316L70.7859 90.4363Z" fill="#DEC685"/>
<path fill-rule="evenodd" clip-rule="evenodd" d="M68.9582 90.5182C68.8928 90.5182 68.8315 90.5264 68.766 90.5469C68.4962 90.6205 68.4349 90.7472 68.4103 90.8494C68.3817 90.968 68.4062 91.0825 68.4062 91.0825L68.9296 93.0737C68.9459 93.1309 69.0645 93.4621 69.502 93.3517C69.9027 93.2454 69.8986 92.9715 69.8618 92.8161L69.3426 90.8249C69.3303 90.7922 69.2485 90.5182 68.9582 90.5182ZM69.3098 93.7647C68.8723 93.7647 68.6311 93.4458 68.5534 93.1718L68.0301 91.1765C68.026 91.1643 67.981 90.9721 68.0342 90.7595C68.1078 90.4651 68.3204 90.2688 68.6679 90.1748C68.762 90.1503 68.8601 90.1339 68.9582 90.1339C69.4284 90.1339 69.6533 90.506 69.7146 90.7268L70.2339 92.718C70.3238 93.0819 70.2094 93.5603 69.6001 93.7197C69.5061 93.7483 69.408 93.7606 69.3098 93.7647ZM69.04 89.2548C68.856 89.2548 68.6556 89.2835 68.4512 89.3366C67.5599 89.5778 67.2532 90.1257 67.151 90.5469C67.0406 91.0048 67.1428 91.4055 67.1428 91.4096L67.6662 93.4049C67.7766 93.8301 68.2468 94.6356 69.224 94.6356C69.408 94.6356 69.6083 94.607 69.8128 94.5497C71.5014 94.0959 71.1375 92.5381 71.1171 92.4727L70.5937 90.4814C70.4874 90.0603 70.0172 89.2548 69.04 89.2548ZM69.224 95.024C68.0137 95.024 67.4331 94.0305 67.2941 93.5071L66.7708 91.5118C66.689 91.1643 66.6931 90.8045 66.7748 90.461C66.9016 89.9376 67.2737 89.2548 68.3531 88.9686C68.5902 88.9032 68.8233 88.8705 69.0441 88.8705C70.2584 88.8705 70.839 89.8641 70.9739 90.3874L71.4973 92.3827C71.669 93.0696 71.5627 94.4884 69.915 94.93C69.6778 94.9913 69.4448 95.024 69.224 95.024ZM77.9984 84.9576L79.4539 87.3618L76.7758 85.714L75.7332 86.36L78.718 91.2869L79.8301 90.6L78.3745 88.1959L81.0526 89.8436L82.0953 89.1976L79.1105 84.2666L77.9984 84.9576Z" fill="#DEC685"/>
<path fill-rule="evenodd" clip-rule="evenodd" d="M75.999 86.4212L78.7834 91.021L79.5684 90.5385L77.798 87.6151L81.0527 89.6186L81.8295 89.1361L79.0451 84.5363L78.2601 85.0188L80.0305 87.9422L76.7759 85.9387L75.999 86.4212ZM78.6567 91.5566L75.4716 86.2945L76.7759 85.4849L78.8734 86.7769L77.7326 84.892L79.1718 84.0007L82.357 89.2629L81.0527 90.0724L78.9551 88.7804L80.0959 90.6653L78.6567 91.5566ZM84.7734 79.0697C83.9883 79.9651 83.9434 80.9996 84.6589 81.6415C84.8756 81.8378 85.17 81.9359 85.5257 81.9359C86.0164 81.9359 86.5724 81.756 87.0631 81.5924C87.4556 81.4657 87.8236 81.343 88.0648 81.343C88.122 81.343 88.2038 81.3512 88.2447 81.3839C88.5146 81.6251 88.1507 82.0586 88.1384 82.0749L87.1162 83.2402L88.0321 84.062L89.0543 82.8926C89.4836 82.402 89.7044 81.85 89.6717 81.3389C89.6471 80.9464 89.4672 80.5784 89.1688 80.3208C88.9521 80.1246 88.6618 80.0265 88.306 80.0265C87.8154 80.0265 87.2552 80.2105 86.7646 80.3699C86.3721 80.5008 86 80.6193 85.7588 80.6193C85.7015 80.6193 85.6197 80.6111 85.5789 80.5743C85.3131 80.3331 85.6811 79.9038 85.6974 79.8834L86.7114 78.7222L85.7874 77.8962L84.7734 79.0697Z" fill="#DEC685"/>
<path fill-rule="evenodd" clip-rule="evenodd" d="M87.3861 83.232L88.0158 83.7962L88.9071 82.774C89.3037 82.3202 89.5081 81.8214 89.4795 81.3593C89.4591 81.0159 89.2996 80.697 89.042 80.4721C88.8621 80.3085 88.6127 80.2268 88.3061 80.2268C87.8481 80.2268 87.3043 80.4067 86.8259 80.562C86.2167 80.7624 85.6607 80.9178 85.448 80.7297C85.1537 80.4639 85.3049 80.0591 85.5462 79.7688L86.4416 78.7467L85.8038 78.1783L84.9165 79.1923C84.2092 80.0019 84.1519 80.9259 84.7816 81.4902C84.9656 81.6537 85.2109 81.7355 85.5216 81.7355C85.9796 81.7355 86.5193 81.5597 86.9936 81.4043C87.6028 81.204 88.1548 81.0486 88.3674 81.2367C88.6659 81.5024 88.5064 81.9195 88.2815 82.1934L87.3861 83.232ZM88.0526 84.3441L86.8464 83.2647L87.9953 81.9522C88.0566 81.8786 88.2161 81.6374 88.1262 81.5392C88.1262 81.5433 88.1057 81.5392 88.0689 81.5392C87.8563 81.5392 87.4842 81.6578 87.1244 81.7764C86.6174 81.944 86.0491 82.128 85.5298 82.128C85.125 82.128 84.7898 82.0135 84.5322 81.7846C83.7308 81.065 83.7717 79.9242 84.6303 78.9429L85.7751 77.6345L86.9854 78.718L85.8447 80.0223C85.7792 80.1 85.6157 80.3413 85.7015 80.4394C85.7056 80.4353 85.7261 80.4394 85.7588 80.4394C85.9755 80.4394 86.3435 80.3167 86.7074 80.1981C87.2144 80.0305 87.7868 79.8424 88.3101 79.8424C88.7149 79.8424 89.0502 79.9569 89.3037 80.1859C89.6472 80.4925 89.8434 80.8932 89.8679 81.3348C89.9007 81.895 89.6635 82.496 89.2015 83.0234L88.0526 84.3441Z" fill="#DEC685"/>
</svg>
