<svg width="120" height="120" viewBox="0 0 120 120" fill="none" xmlns="http://www.w3.org/2000/svg">
<circle cx="60" cy="60" r="60" fill="#EDF0F4"/>
<path d="M105 60C105 84.8562 84.8562 105 60 105C35.1438 105 15 84.8562 15 60C15 35.1438 35.1438 15 60 15C84.8562 15 105 35.1438 105 60Z" fill="#393534"/>
<path d="M99.7661 60.3862C99.7661 82.133 82.133 99.766 60.3862 99.766C38.6395 99.766 21.0064 82.133 21.0064 60.3862C21.0064 38.6394 38.6395 21.0063 60.3862 21.0063C82.133 21.0063 99.7661 38.6394 99.7661 60.3862Z" fill="#F2F2F2"/>
<path d="M75.2845 49.0464L47.0099 77.9584L46.3918 66.3125L63.4455 49.0464L70.5142 41.7074L75.0914 40.2009L78.4133 41.07L81.5227 43.658L77.776 47.9649L75.2845 49.0464Z" fill="white"/>
<path d="M77.8515 49.8552L72.1927 55.6879H80.7678L81.7335 54.7029C82.4094 54.0076 82.9502 53.1578 83.3172 52.2501C83.6841 51.3231 83.8579 50.3381 83.8579 49.3531C83.8579 47.3831 83.124 45.5098 81.8107 44.0806L77.9094 48.1364C78.1219 48.3681 78.2184 48.6964 78.2184 49.0055C78.1991 49.3145 78.0639 49.6235 77.8515 49.8552Z" fill="#E1DED9"/>
<path d="M54.5996 74.4014L49.9838 79.1911H58.5589L63.2134 74.4014H54.5996Z" fill="#E1DED9"/>
<path d="M56.9184 71.9723H65.4935L70.6115 66.6611H62.0364L56.9184 71.9723Z" fill="#E1DED9"/>
<path d="M78.4305 58.5496H69.8554L64.3704 64.2084H72.9455L78.4305 58.5496Z" fill="#E1DED9"/>
<path fill-rule="evenodd" clip-rule="evenodd" d="M78.1545 39.8177C79.3133 40.3198 80.3755 41.0537 81.2639 41.9808C82.1523 42.9078 82.8669 43.9893 83.3111 45.2447C83.794 46.4421 84.045 47.7361 84.0257 49.0494C84.045 51.676 83.0408 54.2061 81.2446 56.0795L81.206 56.1181L59.1309 78.9851C59.0343 79.1009 58.8991 79.2168 58.7639 79.2748C58.6094 79.352 58.4549 79.3713 58.3004 79.3713H46.9442L42.4056 84.0645H39.045L45.1674 77.6717V65.852C45.148 65.5237 45.2832 65.1954 45.4957 64.9443L67.706 42.0001C68.5944 41.073 69.6566 40.3198 70.8154 39.8177C71.9742 39.3155 73.2296 39.0645 74.485 39.0645C75.7403 39.0645 76.9957 39.3155 78.1545 39.8177ZM69.3283 43.661L68.3626 44.646V53.6653L74.0601 47.7554C74.2725 47.543 74.5815 47.4078 74.8905 47.4078C75.1996 47.4078 75.5086 47.5237 75.721 47.7554C75.721 47.7941 75.721 47.7941 75.7596 47.8327C75.9721 48.0645 76.0686 48.3735 76.0686 48.6825C76.0686 48.9915 75.9335 49.3005 75.721 49.513L70.1008 55.3456H78.6759L79.6416 54.3606C80.9935 52.9507 81.7468 51.058 81.7661 49.0687C81.7661 47.0795 81.0322 45.1675 79.7189 43.7383C79.695 43.7383 79.6859 43.7235 79.6733 43.7031C79.6655 43.6905 79.6564 43.6758 79.6416 43.661C78.2704 42.2511 76.4163 41.4593 74.485 41.4593C72.5536 41.4593 70.6996 42.2511 69.3283 43.661ZM49.2811 76.9185L53.897 72.1288H62.4721L57.8562 76.9185H49.2811ZM68.2274 57.2576L62.7425 62.955H71.3176L76.8026 57.2576H68.2274ZM69.4442 64.8863L64.3262 70.1975H55.7511L60.8691 64.8863H69.4442ZM66.4893 46.558L61.0043 52.2554V61.2748L66.4893 55.5773V46.558ZM54.0129 59.4979L59.1309 54.1868V63.2061L54.0129 68.5172V59.4979ZM52.1781 61.4486L47.485 66.2769V75.2962L52.1781 70.4679V61.4486Z" fill="#393534"/>
</svg>
