<svg width="120" height="120" viewBox="0 0 120 120" fill="none" xmlns="http://www.w3.org/2000/svg">
<path d="M17.5906 17.5906C-5.86353 41.0447 -5.86353 79.0153 17.5906 102.409L102.409 17.5906C79.0153 -5.86353 40.9848 -5.86353 17.5906 17.5906Z" fill="#FF6666"/>
<path d="M102.409 102.409C79.0152 78.9552 40.9847 78.9552 17.5906 102.409L102.409 17.5906C125.864 40.9847 125.864 79.0152 102.409 102.409Z" fill="#DA5F5A"/>
<ellipse cx="60" cy="59.9999" rx="38.3304" ry="38.4504" fill="#FFF4C7"/>
<path d="M102.409 102.409C79.0152 125.864 40.9847 125.864 17.5906 102.409C40.9847 79.0152 79.0152 79.0152 102.409 102.409Z" fill="#FFF4C7"/>
<circle cx="60" cy="60.0001" r="32.7518" fill="#F7931A"/>
<path fill-rule="evenodd" clip-rule="evenodd" d="M68.3979 47.643C72.8967 49.2026 76.2559 51.542 75.5961 55.9209C75.1162 59.1002 73.3766 60.6598 71.0972 61.1396C74.3364 62.8192 75.956 65.3986 74.3964 69.8375C72.4169 75.4161 67.798 75.836 61.6795 74.6963L60.1799 80.6348L56.5808 79.735L58.0804 73.8565C57.4406 73.7365 56.8008 73.5632 56.1609 73.3899C55.841 73.3033 55.5211 73.2166 55.2012 73.1366L53.7015 79.0752L50.1024 78.1754L51.6021 72.1769C51.1235 72.0402 50.645 71.9229 50.1554 71.803C49.7858 71.7124 49.4098 71.6203 49.0227 71.517L44.3439 70.3773L46.1434 66.2384C46.1434 66.2384 48.8427 66.9582 48.7828 66.8982C49.7425 67.1381 50.2224 66.4783 50.4024 66.0584L52.7418 56.6408L52.7418 56.6408C52.8618 56.7008 52.9817 56.7607 53.1017 56.7607L53.1017 56.7607C52.9817 56.7008 52.8617 56.6408 52.7418 56.6408L54.4214 49.9224C54.4813 49.1426 54.1814 48.1829 52.7418 47.823C52.8018 47.763 50.1024 47.1631 50.1024 47.1631L51.0622 43.3241L56.0409 44.5838C56.7608 44.7637 57.5406 44.9437 58.3204 45.1236L59.82 39.2451L63.4191 40.1449L61.9795 45.9634C62.9392 46.1434 63.899 46.3833 64.8587 46.6233L66.2984 40.8647L69.8975 41.7645L68.3979 47.643ZM68.5178 55.861C67.5983 59.539 62.4357 58.1935 59.9344 57.5417C59.6617 57.4706 59.4206 57.4078 59.2202 57.3606L61.0197 50.1624C61.2563 50.2269 61.5579 50.2966 61.904 50.3765C64.454 50.9653 69.4157 52.111 68.5178 55.861ZM67.3781 67.4381C66.336 71.4967 59.9784 69.8385 57.0168 69.0661L57.0166 69.066C56.7392 68.9937 56.4916 68.9291 56.2809 68.8777L58.2604 60.9597C58.5448 61.036 58.9015 61.1195 59.308 61.2147C62.4163 61.9428 68.4391 63.3534 67.3781 67.4381Z" fill="white"/>
</svg>
