<svg width="120" height="120" viewBox="0 0 120 120" fill="none" xmlns="http://www.w3.org/2000/svg">
<path d="M60 120C93.048 120 120 93.048 120 60C120 26.958 93.048 0 60 0C26.958 0 1.00136e-06 26.958 1.00136e-06 60C-0.005999 93.048 26.952 120 60 120Z" fill="black"/>
<path fill-rule="evenodd" clip-rule="evenodd" d="M44.6101 28.902H53.2501C53.5801 28.902 53.8441 29.172 53.8441 29.502V42.126C53.8441 42.462 54.1141 42.726 54.4441 42.726H65.5381C65.8681 42.726 66.1381 42.462 66.1381 42.126V29.502C66.1381 29.172 66.4021 28.902 66.7381 28.902H75.3721C75.7021 28.902 75.9721 29.172 75.9721 29.502V42.126C75.9721 42.462 76.2361 42.726 76.5721 42.726H87.1321C87.4681 42.726 87.7321 42.996 87.7321 43.326V51.942C87.7321 52.278 87.4681 52.542 87.1321 52.542H76.5721C76.2361 52.542 75.9721 52.812 75.9721 53.142V66.552C75.9721 66.882 76.2361 67.152 76.5721 67.152H87.1321C87.4681 67.152 87.7321 67.416 87.7321 67.752V76.368C87.7321 76.698 87.4681 76.968 87.1321 76.968H76.5721C76.2361 76.968 75.9721 77.238 75.9721 77.568V90.192C75.9721 90.522 75.7021 90.792 75.3721 90.792H66.7381C66.4021 90.792 66.1381 90.522 66.1381 90.192V77.568C66.1381 77.232 65.8681 76.968 65.5381 76.968H54.4501C54.1201 76.968 53.8501 77.238 53.8501 77.568V90.192C53.8501 90.522 53.5861 90.792 53.2561 90.792H44.6161C44.2861 90.792 44.0161 90.522 44.0161 90.192V77.568C44.0161 77.232 43.7521 76.968 43.4161 76.968H32.8561C32.5201 76.968 32.2561 76.698 32.2561 76.368V67.752C32.2561 67.416 32.5201 67.152 32.8561 67.152H43.4161C43.7521 67.152 44.0161 66.882 44.0161 66.552V53.142C44.0161 52.812 43.7521 52.542 43.4161 52.542H32.8561C32.5201 52.542 32.2561 52.278 32.2561 51.942V43.326C32.2561 42.996 32.5201 42.726 32.8561 42.726H43.4161C43.7521 42.726 44.0161 42.462 44.0161 42.126V29.502C44.0041 29.172 44.2801 28.902 44.6101 28.902ZM66.1441 66.558V53.142C66.1441 52.812 65.8741 52.542 65.5441 52.542H54.4501C54.1201 52.542 53.8501 52.812 53.8501 53.142V66.552C53.8501 66.882 54.1201 67.152 54.4501 67.152H65.5441C65.8741 67.158 66.1441 66.882 66.1441 66.558Z" fill="white"/>
</svg>
