<svg width="120" height="120" viewBox="0 0 120 120" fill="none" xmlns="http://www.w3.org/2000/svg">
<circle cx="60" cy="60" r="60" fill="#EDF0F4"/>
<path d="M25.6786 74.0687C25.5936 74.2613 25.4942 74.4475 25.3812 74.6259C24.7924 75.5913 24.438 76.6751 24.3451 77.7946C25.2876 79.6497 26.375 81.4315 27.5975 83.1243C27.6634 82.4628 27.8134 81.8118 28.044 81.1862C28.3077 80.3873 28.2977 79.5265 28.0157 78.7335C27.1282 77.2325 26.3473 75.6739 25.6786 74.0687V74.0687Z" fill="black"/>
<path d="M22.7278 49.8216C23.4889 49.4833 24.113 48.9079 24.5019 48.1859C25.0251 46.5017 25.6674 44.8548 26.4241 43.2571C26.2173 43.3261 26.0053 43.3792 25.79 43.4159C24.6824 43.621 23.6416 44.0825 22.7553 44.7617C21.9861 46.7354 21.3749 48.7642 20.9272 50.8299C21.4786 50.4171 22.0842 50.078 22.7278 49.8216Z" fill="black"/>
<path d="M49.9913 21.8462C50.6587 22.3422 51.482 22.597 52.3206 22.5671C54.0274 22.191 55.7596 21.9338 57.5039 21.7977C57.3196 21.6386 57.1496 21.4645 56.9957 21.2773C56.3383 20.4953 55.5123 19.8641 54.5763 19.4286C52.4657 19.7369 50.3843 20.2118 48.3527 20.8487C48.9392 21.1137 49.4896 21.4487 49.9913 21.8462Z" fill="black"/>
<path d="M42.4161 24.8611C43.163 25.2012 44.007 25.2811 44.8071 25.0875C46.4044 24.3532 48.0542 23.7329 49.7436 23.2312C49.5367 23.1166 49.34 22.9852 49.1556 22.8386C48.3353 22.202 47.3783 21.7537 46.3558 21.527C44.3565 22.2699 42.4225 23.1698 40.5726 24.2178C41.2127 24.3547 41.8323 24.5709 42.4161 24.8611Z" fill="black"/>
<path d="M25.5629 42.1519C26.3724 41.9805 27.0994 41.5493 27.6275 40.9272C28.4958 39.3868 29.4735 37.9074 30.5533 36.4997C30.3259 36.5266 30.0966 36.5353 29.8677 36.5256C28.769 36.4956 27.6787 36.7204 26.6865 37.1814C25.509 38.9609 24.4768 40.8279 23.5995 42.7651C24.2229 42.476 24.8832 42.2697 25.5629 42.1519Z" fill="black"/>
<path d="M35.6294 29.3939C36.45 29.5722 37.3088 29.4665 38.0582 29.0948C39.4572 28.052 40.9301 27.1067 42.4658 26.2662C42.2414 26.1974 42.0232 26.1105 41.8136 26.0064C40.8675 25.5481 39.8259 25.3083 38.7695 25.3055C36.9728 26.4538 35.2721 27.7387 33.6831 29.1483C34.34 29.1479 34.9942 29.2305 35.6294 29.3939Z" fill="black"/>
<path d="M29.9277 35.2424C30.7872 35.2447 31.62 34.9512 32.2793 34.4137C32.7775 33.8518 33.2934 33.3018 33.8271 32.7638C34.5247 32.0638 35.2449 31.3955 35.9876 30.7589C35.7517 30.738 35.5181 30.6978 35.2891 30.6386C34.2556 30.3856 33.1759 30.3705 32.1353 30.5943C32.0265 30.7013 31.9168 30.8057 31.8097 30.9143C30.4045 32.3247 29.1059 33.8323 27.924 35.4254C28.5806 35.2783 29.2544 35.2168 29.9277 35.2424Z" fill="black"/>
<path d="M21.5392 57.9148C22.2344 57.4071 22.7348 56.6867 22.9601 55.869C23.1234 54.1377 23.4057 52.4191 23.8052 50.7247C23.6181 50.8341 23.4227 50.9293 23.2207 51.0095C22.1733 51.4448 21.2476 52.1172 20.5202 52.971C20.1854 55.0527 20.0115 57.156 20 59.2632C20.4504 58.7501 20.9679 58.2968 21.5392 57.9148Z" fill="black"/>
<path d="M85.3706 89.6044C84.55 89.4258 83.6913 89.5313 82.9418 89.9027C81.5433 90.9452 80.071 91.8901 78.5359 92.7305C78.7597 92.7996 78.9773 92.8868 79.1864 92.9911C80.1325 93.4492 81.1741 93.689 82.2305 93.692C84.0273 92.5438 85.728 91.2589 87.3169 89.8492C86.66 89.8496 86.0058 89.7673 85.3706 89.6044Z" fill="black"/>
<path d="M99.4599 61.0843C98.7657 61.5906 98.2657 62.3092 98.0398 63.1252C97.8765 64.8567 97.5942 66.5756 97.1948 68.2703C97.3815 68.1608 97.5767 68.0656 97.7785 67.9855C98.8265 67.5482 99.7527 66.8741 100.481 66.0189C100.815 63.9386 100.989 61.8367 101 59.731C100.55 60.246 100.032 60.701 99.4599 61.0843Z" fill="black"/>
<path d="M71.0078 97.153C70.3407 96.6576 69.5183 96.4026 68.6802 96.4313C66.9728 96.8078 65.2401 97.0652 63.4952 97.2015C63.6793 97.3604 63.8493 97.5343 64.0034 97.7211C64.6608 98.5033 65.4868 99.1347 66.4228 99.5706C68.5337 99.2623 70.6153 98.7873 72.6473 98.1505C72.0604 97.8857 71.5097 97.5506 71.0078 97.153Z" fill="black"/>
<path d="M54.8334 98.1931C54.4241 97.4634 53.7717 96.8917 52.984 96.5724C51.2842 96.229 49.6117 95.768 47.979 95.1932C48.0742 95.4016 48.1527 95.617 48.2138 95.8373C48.5032 96.8366 49.012 97.7628 49.705 98.5514C51.7327 99.1073 53.8027 99.5043 55.8953 99.7385C55.4796 99.2663 55.1231 98.7475 54.8334 98.1931Z" fill="black"/>
<path fill-rule="evenodd" clip-rule="evenodd" d="M95.3283 70.4047C95.3189 70.4164 95.2332 70.4281 95.2332 70.4281C90.595 85.2513 76.7799 96.0336 60.4992 96.0328C44.5013 96.0328 30.8867 85.6163 26.0206 71.1842C26.0189 71.1733 26.0257 71.1616 26.0257 71.1616H26.0634C25.3129 68.7251 24.7779 66.2304 24.4642 63.7049V63.6515H24.3442C24.1765 62.2653 24.0958 60.8703 24.1026 59.4745C24.0991 55.7854 24.6574 52.1163 25.7592 48.5869C25.7643 48.5761 25.7703 48.5686 25.7703 48.5686C30.4093 33.7454 44.227 22.9639 60.5026 22.9639C76.5039 22.9639 90.1305 33.3804 94.9949 47.815C94.9966 47.8267 95.0146 47.8401 95.0146 47.8401H95.0249C95.808 50.2739 96.3757 52.7685 96.7218 55.2968V55.3502H96.6472C96.842 56.7351 96.9545 58.1297 96.9841 59.5272C96.9841 60.11 96.9667 60.6831 96.9495 61.2528C96.9324 61.8156 96.9155 62.3751 96.9155 62.9372C96.9155 65.3423 96.1823 67.6805 95.4774 69.9284C95.4275 70.0876 95.3777 70.2464 95.3283 70.4047ZM60.5 28.6437C43.6211 28.6437 29.8891 42.4853 29.8891 59.4996C29.8891 76.5139 43.6211 90.3555 60.5 90.3555C77.379 90.3555 91.1109 76.5131 91.1109 59.4996C91.1109 42.4861 77.379 28.6437 60.5 28.6437Z" fill="black"/>
<path d="M46.9394 96.1714C46.6927 95.3825 46.1849 94.6954 45.4953 94.2174C43.8926 93.52 42.3429 92.7121 40.858 91.7998C40.9073 92.0199 40.9391 92.2433 40.9532 92.4681C41.0314 93.5238 41.3449 94.5501 41.8719 95.4755C43.735 96.4438 45.675 97.2645 47.673 97.9299C47.3574 97.3743 47.1111 96.784 46.9394 96.1714Z" fill="black"/>
<path d="M39.6342 92.5483C39.5525 91.7036 39.1836 90.9097 38.5861 90.2928C37.1797 89.2814 35.846 88.1775 34.5941 86.9888C34.5969 87.2163 34.5814 87.4437 34.5478 87.6688C34.4041 88.7347 34.5021 89.8184 34.8349 90.8433C36.4549 92.1747 38.1796 93.38 39.9933 94.448C39.7958 93.8311 39.6752 93.1933 39.6342 92.5483Z" fill="black"/>
<path d="M74.0597 22.8277C74.3055 23.6169 74.8131 24.3041 75.5029 24.7817C77.1056 25.4792 78.6553 26.2871 80.1402 27.1993C80.0912 26.9792 80.0594 26.7558 80.0451 26.531C79.9669 25.4752 79.653 24.4488 79.1255 23.5236C77.2617 22.5529 75.3209 21.7299 73.3218 21.0626C73.6394 21.62 73.8872 22.2126 74.0597 22.8277Z" fill="black"/>
<path d="M98.2747 69.1776C97.5138 69.5151 96.8899 70.09 96.5015 70.8116C95.9783 72.4959 95.3357 74.1428 94.5784 75.7404C94.7852 75.6718 94.9973 75.619 95.2126 75.5825C96.3215 75.375 97.3633 74.9115 98.2507 74.2308C99.0189 72.2586 99.6295 70.2315 100.077 68.1676C99.5251 68.581 98.9189 68.9207 98.2747 69.1776Z" fill="black"/>
<path d="M91.0714 83.7567C90.2121 83.753 89.3792 84.0464 88.7206 84.5846C88.2219 85.1471 87.7056 85.6973 87.172 86.2353C86.4744 86.9354 85.7542 87.6037 85.0115 88.2403C85.247 88.2609 85.4804 88.3008 85.7091 88.3597C86.7425 88.6132 87.8224 88.6284 88.8629 88.404C88.9717 88.2979 89.0814 88.1926 89.1894 88.0849C90.5948 86.6744 91.8937 85.1668 93.076 83.5738C92.419 83.7206 91.745 83.7821 91.0714 83.7567Z" fill="black"/>
<path d="M87.7539 31.5191C87.6587 32.381 87.863 33.2491 88.3341 33.9843C89.492 35.2522 90.5614 36.5943 91.5351 38.0017C91.5792 37.7877 91.6396 37.5771 91.7159 37.3718C92.0826 36.3352 92.2082 35.232 92.0836 34.1422C91.1778 33.0173 90.212 31.9396 89.1903 30.9135C88.7332 30.4557 88.2678 30.0101 87.7942 29.5768C87.8616 30.2235 87.8481 30.8757 87.7539 31.5191Z" fill="black"/>
<path d="M95.4362 76.8464C94.6254 77.0173 93.8971 77.4489 93.3682 78.0719C92.4997 79.6123 91.5221 81.0917 90.4424 82.4995C90.6698 82.4729 90.8991 82.4645 91.128 82.4744C92.2259 82.5049 93.3156 82.281 94.3075 81.8211C95.4871 80.0418 96.5212 78.1748 97.4005 76.2374C96.7766 76.5251 96.116 76.73 95.4362 76.8464Z" fill="black"/>
<path d="M58.0257 20.4736C58.5952 21.1186 59.3802 21.5467 60.242 21.6824C60.3277 21.6824 60.4134 21.6824 60.4991 21.6824C62.1281 21.6827 63.7554 21.7871 65.3704 21.9949C65.2264 21.8038 65.0989 21.6015 64.989 21.39C64.5103 20.4916 63.8379 19.7048 63.0179 19.0835C62.1831 19.0326 61.3441 19 60.5008 19C59.2113 19 57.9323 19.0599 56.6639 19.1796C57.1697 19.5558 57.627 19.9903 58.0257 20.4736Z" fill="black"/>
<path d="M62.9741 98.5247C62.4046 97.8794 61.6192 97.4515 60.757 97.3167C60.6713 97.3167 60.5856 97.3167 60.4999 97.3167C58.8706 97.3166 57.2431 97.2122 55.6278 97.0043C55.7721 97.1955 55.9 97.3981 56.01 97.6099C56.4885 98.5085 57.161 99.2953 57.9812 99.9164C58.8159 99.9674 59.6558 100 60.4991 100C61.788 100 63.0667 99.9401 64.3351 99.8204C63.8294 99.4437 63.3724 99.0086 62.9741 98.5247Z" fill="black"/>
<path d="M22.0594 66.0757C22.6357 65.4351 22.9768 64.6256 23.0287 63.7751C22.8694 62.3552 22.7893 60.9279 22.7887 59.4996C22.7887 59.1899 22.7924 58.8808 22.7999 58.5723C22.6393 58.72 22.4674 58.8554 22.2856 58.9775C21.3501 59.6251 20.5837 60.4778 20.048 61.4669C20.1476 63.5692 20.4103 65.6612 20.8339 67.7248C21.1672 67.1256 21.5792 66.5713 22.0594 66.0757Z" fill="black"/>
<path d="M33.2452 87.48C33.3403 86.6178 33.1357 85.7494 32.6642 85.014C31.5062 83.7464 30.4368 82.4046 29.4632 80.9974C29.4194 81.2117 29.3592 81.4226 29.2833 81.6282C28.9153 82.6628 28.7888 83.7644 28.913 84.8527C29.8198 85.9794 30.7867 87.0588 31.8097 88.0865C32.2668 88.5443 32.7319 88.9899 33.205 89.4232C33.1378 88.7762 33.1513 88.1238 33.2452 87.48Z" fill="black"/>
<path d="M81.3615 26.4517C81.444 27.2962 81.8128 28.0898 82.4097 28.7072C83.816 29.7188 85.1498 30.823 86.4016 32.012C86.399 31.7845 86.4145 31.5572 86.4479 31.332C86.5919 30.2661 86.4939 29.1824 86.1608 28.1575C84.5409 26.8261 82.8161 25.6208 81.0024 24.5528C81.2002 25.1693 81.3208 25.8069 81.3615 26.4517Z" fill="black"/>
<path d="M66.1666 20.8061C66.576 21.5353 67.228 22.1069 68.0152 22.4267C69.7156 22.7699 71.3887 23.2308 73.0218 23.806C72.9265 23.5976 72.848 23.3822 72.787 23.1619C72.4977 22.1622 71.9888 21.2359 71.2958 20.4469C69.2682 19.891 67.1982 19.4941 65.1056 19.2598C65.5213 19.7321 65.8775 20.2512 66.1666 20.8061Z" fill="black"/>
<path d="M24.2593 73.9493C24.6787 73.2272 24.8479 72.3925 24.7418 71.5693C24.1845 69.9019 23.745 68.1993 23.4263 66.4734C23.3012 66.6476 23.1629 66.8123 23.0124 66.9663C22.2286 67.7953 21.6538 68.791 21.3335 69.8743C21.8664 71.9001 22.5584 73.883 23.4032 75.8055C23.6059 75.1536 23.8936 74.5297 24.2593 73.9493Z" fill="black"/>
<path d="M98.7178 60.0225C99.6539 59.3747 100.421 58.5217 100.957 57.5323C100.857 55.4297 100.594 53.3375 100.17 51.2735C99.8361 51.873 99.4229 52.4273 98.9415 52.9226C98.3648 53.5633 98.024 54.3732 97.973 55.2241C98.1317 56.644 98.2115 58.0713 98.2121 59.4996C98.2121 59.8092 98.2084 60.1183 98.201 60.4269C98.3624 60.2795 98.5352 60.1443 98.7178 60.0225Z" fill="black"/>
<path d="M95.3214 44.9304C95.4065 44.7382 95.5059 44.5522 95.6188 44.3741C96.2086 43.4102 96.5636 42.3274 96.6566 41.2088C95.713 39.3509 94.6243 37.5666 93.4 35.8715C93.3339 36.5333 93.184 37.1846 92.9535 37.8104C92.6891 38.6089 92.6987 39.4696 92.9809 40.2623C93.8699 41.7642 94.6519 43.3239 95.3214 44.9304Z" fill="black"/>
<path d="M96.7406 45.0499C96.3213 45.7717 96.1521 46.606 96.2581 47.4291C96.8153 49.0964 97.2549 50.799 97.5736 52.5249C97.6987 52.351 97.8371 52.1865 97.9876 52.0329C98.7717 51.2036 99.3468 50.2077 99.6673 49.1241C99.1346 47.0981 98.4427 45.1152 97.5976 43.1928C97.3947 43.845 97.1066 44.4692 96.7406 45.0499Z" fill="black"/>
<path d="M78.584 94.1356C77.837 93.7955 76.993 93.7155 76.1929 93.9092C74.5958 94.643 72.9463 95.2631 71.2573 95.7646C71.4635 95.8799 71.6595 96.0115 71.8435 96.1581C72.6638 96.7949 73.6208 97.2432 74.6434 97.4696C76.643 96.7268 78.5773 95.827 80.4274 94.7788C79.7873 94.6419 79.1678 94.4258 78.584 94.1356Z" fill="black"/>
<path d="M75.8012 72.0521L68.6683 62.6239C69.8421 62.1711 70.9267 61.5239 71.8743 60.7109C73.6038 59.2181 75.6666 56.4062 75.6666 51.4841C75.7856 48.4742 74.5705 45.5599 72.3311 43.4844C68.8045 40.3291 64.1569 40.4294 62.6657 40.4294H48.4932C46.2287 40.4455 44.4034 42.2426 44.4096 44.4501C44.4096 44.5336 44.4224 44.6614 44.4224 44.7475V48.3597H64.3909C66.2073 48.4145 67.6536 49.8605 67.6638 51.6319V52.3905C67.6431 54.1366 66.1823 55.54 64.3909 55.5348H61.2405C59.6988 55.536 58.2889 56.3824 57.5939 57.7238C56.8989 59.0653 57.0371 60.6737 57.9513 61.8838L69.2193 76.7788C70.0854 77.9241 71.5124 78.532 72.963 78.3736C74.4136 78.2152 75.6673 77.3145 76.2518 76.0107C76.8364 74.707 76.6629 73.1983 75.7969 72.053L75.8012 72.0521Z" fill="#FF0000"/>
<path d="M44.4224 55.534V74.2275H44.4712C44.7359 76.6464 46.8418 78.474 49.3373 78.4504C51.8161 78.4507 53.9049 76.647 54.2035 74.2484L54.2566 55.5357L44.4224 55.534Z" fill="black"/>
</svg>
