<svg width="120" height="120" viewBox="0 0 120 120" fill="none" xmlns="http://www.w3.org/2000/svg">
<circle cx="60" cy="60" r="60" fill="#EDF0F4"/>
<path fill-rule="evenodd" clip-rule="evenodd" d="M38.3574 63.9012C38.3574 76.0469 48.2204 85.9099 60.3661 85.9099C72.5117 85.9099 82.3748 76.0469 82.3748 63.8731C82.3748 52.0656 62.1133 31.2123 61.2397 30.3387L60.1688 29.2678L59.1262 30.3668C58.2808 31.2404 38.3574 52.0938 38.3574 63.9012ZM51.1512 44.2878C54.7864 39.4972 58.4498 35.4111 60.197 33.523C61.9724 35.4111 65.7203 39.5254 69.4119 44.2878C75.9779 52.7983 79.4441 59.5615 79.4441 63.8731C79.4441 74.3843 70.8773 82.951 60.3661 82.951C49.8549 82.951 41.2881 74.3843 41.2881 63.8731C41.2881 59.5615 44.6979 52.7983 51.1512 44.2878Z" fill="url(#paint0_linear_1_3496)"/>
<path d="M60.3661 92.955C44.3316 92.955 31.3123 79.9076 31.3123 63.9012C31.3123 48.2331 53.1801 26.3653 54.1101 25.4635C54.6737 24.8999 55.6318 24.8999 56.1954 25.4635C56.759 26.0271 56.759 26.9852 56.1954 27.5488C55.97 27.7743 34.2713 49.473 34.2713 63.9012C34.2713 78.3013 45.9942 90.0243 60.3943 90.0243C74.7943 90.0243 86.5173 78.3013 86.5173 63.9012C86.5173 57.9834 82.6848 49.8112 75.4143 40.2017C69.8346 32.8467 64.2268 27.267 64.1704 27.2107C63.5786 26.6471 63.5786 25.7171 64.1704 25.1254C64.734 24.5336 65.664 24.5336 66.2557 25.1254C67.2139 26.0553 89.4762 48.2049 89.4762 63.9012C89.4198 79.9076 76.4006 92.955 60.3661 92.955Z" fill="url(#paint1_linear_1_3496)"/>
<path d="M60.3661 100C40.8654 100 25 84.1346 25 64.6339C25 56.5744 29.0579 46.655 37.0329 35.1856C42.9226 26.7316 48.6995 20.701 48.9531 20.4474C49.5167 19.8556 50.4467 19.8556 51.0385 20.4192C51.6302 20.9828 51.6302 21.9128 51.0666 22.5046C51.0103 22.5609 45.177 28.6478 39.4282 36.9046C31.9041 47.6976 27.9307 57.2789 27.9307 64.6339C27.9307 82.5001 42.4717 97.0693 60.3661 97.0693C78.2605 97.0693 92.8015 82.5283 92.8015 64.6339C92.8015 57.2789 88.7999 47.6976 81.2194 36.9046C75.4143 28.6478 69.5246 22.5609 69.4683 22.5046C68.9047 21.9128 68.9047 20.9828 69.4965 20.4192C70.0882 19.8556 71.0182 19.8556 71.5818 20.4474C72.5681 21.4619 95.7322 45.5278 95.7322 64.6339C95.7322 84.1346 79.8668 100 60.3661 100Z" fill="url(#paint2_linear_1_3496)"/>
<defs>
<linearGradient id="paint0_linear_1_3496" x1="82.3748" y1="85.9065" x2="82.3748" y2="29.2644" gradientUnits="userSpaceOnUse">
<stop stop-color="#05AAC5"/>
<stop offset="1" stop-color="#71E0EC"/>
</linearGradient>
<linearGradient id="paint1_linear_1_3496" x1="89.4762" y1="92.9515" x2="89.4762" y2="24.6781" gradientUnits="userSpaceOnUse">
<stop stop-color="#05AAC5"/>
<stop offset="1" stop-color="#71E0EC"/>
</linearGradient>
<linearGradient id="paint2_linear_1_3496" x1="95.7322" y1="99.9966" x2="95.7322" y2="19.9965" gradientUnits="userSpaceOnUse">
<stop stop-color="#05AAC5"/>
<stop offset="1" stop-color="#71E0EC"/>
</linearGradient>
</defs>
</svg>
