<svg width="120" height="120" viewBox="0 0 120 120" fill="none" xmlns="http://www.w3.org/2000/svg">
<path fill-rule="evenodd" clip-rule="evenodd" d="M60 120C27 120 0 93.0006 0 59.7012C0.3 26.7019 27 -0.297518 60.3 0.00247602C93.3 0.30247 120 27.0019 120 60.6012C119.7 93.3006 93 120 60 120Z" fill="#EDF0F4"/>
<path fill-rule="evenodd" clip-rule="evenodd" d="M99.1702 52.369C95.7516 33.6142 79.3482 19.7917 60.0682 19.7917C40.7882 19.7917 24.3849 33.6142 20.9662 52.369L20.5857 54.4567L56.2685 77.9547L71.4852 61.9264L71.5542 61.8515C72.7027 60.5636 72.6277 58.5872 71.3674 57.3907L71.2925 57.3217C70.0046 56.1732 68.0282 56.2482 66.8317 57.5085L55.312 69.6419L27.7194 51.4717L27.7893 51.1938C31.5258 36.6712 44.7101 26.2083 60.0682 26.2083C76.2347 26.2083 89.9925 37.8015 92.8576 53.5197C93.1753 55.2629 94.846 56.4184 96.5892 56.1007C98.3324 55.7829 99.488 54.1122 99.1702 52.369ZM63.8974 41.5244L48.1602 57.4633L48.0884 57.5384C46.9163 58.8036 46.953 60.78 48.1891 62.0005L48.2642 62.0723C49.5294 63.2444 51.5058 63.2078 52.7263 61.9716L64.7944 49.7485L92.412 67.6246L92.3472 67.8847C88.6107 82.4073 75.4264 92.8701 60.0682 92.8701C43.6588 92.8701 29.76 80.9319 27.167 64.9086L27.1506 64.8155C26.8251 63.1175 25.2053 61.976 23.4874 62.254C21.7382 62.5371 20.5497 64.1845 20.8328 65.9337C23.9268 85.0527 40.4984 99.2868 60.0682 99.2868C79.3483 99.2868 95.7516 85.4643 99.1702 66.7094L99.554 64.6038L63.8974 41.5244Z" fill="url(#paint0_linear_1_5673)"/>
<defs>
<linearGradient id="paint0_linear_1_5673" x1="-2.71861" y1="38.7925" x2="23.7851" y2="112.359" gradientUnits="userSpaceOnUse">
<stop offset="0.119792" stop-color="#053F92"/>
<stop offset="1" stop-color="#4CDADF"/>
</linearGradient>
</defs>
</svg>
