<svg width="120" height="120" viewBox="0 0 120 120" fill="none" xmlns="http://www.w3.org/2000/svg">
<circle cx="60" cy="60" r="60" fill="#EDF0F4"/>
<path fill-rule="evenodd" clip-rule="evenodd" d="M60 15C61.5192 15 63.0204 15.0753 64.5009 15.2223V71.3733L31.0332 33.3854V94.438C21.2295 86.1837 15.0002 73.8191 15.0002 60.0001C15.0002 35.1471 35.1474 15 60 15ZM105 60.0001C105 39.1532 90.8245 21.6174 71.5866 16.5058V89.8174L38.6066 52.1959V99.599C44.9695 103.044 52.2564 105 60 105C84.853 105 105 84.8526 105 60.0001ZM77.932 57.3103C77.6971 58.8599 78.1557 60.2017 79.1601 61.0693C80.1231 61.9009 81.4204 62.1497 82.6075 61.9121C83.7667 61.6795 84.5767 60.9658 85.1568 60.2327C85.6738 59.5797 86.0941 58.7974 86.4438 58.1467C86.4744 58.0897 86.5045 58.0336 86.5338 57.9788C86.9356 57.2338 87.2529 56.6829 87.6007 56.3046C87.9081 55.9703 88.1425 55.8754 88.4053 55.8754C89.5852 55.8754 90.0685 56.2475 90.289 56.5384C90.5495 56.882 90.6742 57.4185 90.6062 58.0622C90.5072 59.0045 89.5537 59.7458 88.5781 59.7458V62.4458C90.6341 62.4458 93.0182 60.9415 93.2914 58.3449C93.4039 57.2777 93.25 55.9751 92.4409 54.9073C91.5913 53.7869 90.213 53.1754 88.4053 53.1754C87.1746 53.1754 86.2678 53.7654 85.6135 54.4767C84.9997 55.144 84.534 55.9994 84.1578 56.6971L84.0957 56.8119C83.7132 57.5216 83.4018 58.0998 83.04 58.5569C82.6773 59.0151 82.3744 59.205 82.077 59.2646C81.5842 59.3634 81.168 59.2356 80.925 59.0259C80.7238 58.8521 80.4844 58.4878 80.6019 57.7152C80.7081 57.0128 81.0501 56.6646 81.4272 56.4504C81.8614 56.2039 82.3704 56.1317 82.6431 56.1317V53.4317C82.045 53.4317 81.0424 53.564 80.0938 54.1025C79.089 54.6733 78.1777 55.6907 77.932 57.3103ZM79.4139 41.2957C78.3991 42.6381 78.0531 44.2164 77.9365 45.5424C77.8528 46.4936 77.8839 47.4722 77.905 48.1448V48.145C77.9127 48.3758 77.9185 48.5706 77.9185 48.7159V50.0659H79.2685H91.8212H92.9503L93.1501 48.9545C93.371 47.7237 93.3643 46.0278 93.0106 44.4104C92.6632 42.8218 91.9229 41.0515 90.4532 39.9774C88.8751 38.8241 86.581 38.5729 84.6222 38.8062C82.6867 39.0367 80.5402 39.8066 79.4139 41.2957ZM90.5964 47.3659H80.5857C80.5744 46.8771 80.5753 46.3557 80.6262 45.7789C80.722 44.6918 80.9871 43.6918 81.5676 42.9242C82.0369 42.3034 83.2861 41.6844 84.9412 41.4873C86.5729 41.2929 88.0638 41.5754 88.8603 42.1573C89.5551 42.665 90.0852 43.671 90.3732 44.9872C90.5518 45.8045 90.6143 46.6419 90.5964 47.3659ZM90.3718 66.4836C91.7704 67.3004 92.7964 68.7939 92.7964 71.075C92.7964 73.3529 91.7749 74.8586 90.3988 75.7059C89.1406 76.4808 87.6957 76.6446 86.7151 76.5758H78.6129V73.8758H86.766H86.8204L86.8744 73.8803C87.4536 73.9271 88.3167 73.8177 88.9831 73.4069C89.5573 73.0532 90.0964 72.42 90.0964 71.075C90.0964 69.7322 89.5618 69.1368 89.0101 68.8151C88.3563 68.433 87.5004 68.3489 86.9172 68.4146L86.8416 68.4231H86.766H78.6129V65.7231H86.6953C87.6718 65.6277 89.1109 65.747 90.3718 66.4836Z" fill="url(#paint0_radial_1_4058)"/>
<defs>
<radialGradient id="paint0_radial_1_4058" cx="0" cy="0" r="1" gradientUnits="userSpaceOnUse" gradientTransform="translate(60.0001 60.0001) scale(44.9999 45)">
<stop stop-color="#6573AB"/>
<stop offset="1" stop-color="#57628F"/>
</radialGradient>
</defs>
</svg>
