<svg width="120" height="120" viewBox="0 0 120 120" fill="none" xmlns="http://www.w3.org/2000/svg">
<circle cx="60" cy="60" r="60" fill="#EDF0F4"/>
<path fill-rule="evenodd" clip-rule="evenodd" d="M88.6197 50.0845C85.007 48.1577 80.6718 48.1577 77.3 50.0845L60.2 59.9592L77.3 69.8338C80.9126 71.7606 85.2478 71.7606 88.6197 69.8338C92.2323 67.907 94.4 64.0535 94.4 59.9592C94.4 55.8648 92.2323 52.0113 88.6197 50.0845Z" fill="#050505"/>
<path fill-rule="evenodd" clip-rule="evenodd" d="M31.7803 50.0845C28.1676 52.0113 26 55.8648 26 59.9592C26 64.0535 28.1676 67.6662 31.7803 69.8338C35.393 71.7606 39.7282 71.7606 43.1 69.8338L60.2 59.9592L43.1 50.0845C39.4873 48.1577 35.1521 48.1577 31.7803 50.0845Z" fill="#050505"/>
<path fill-rule="evenodd" clip-rule="evenodd" d="M50.3254 88.138C52.2522 91.7507 56.1057 93.6775 60.2001 93.6775C64.2945 93.6775 68.148 91.5099 70.0747 88.138C72.0015 84.5254 72.0015 80.431 70.0747 76.8183L60.2001 59.9592L50.3254 76.8183C48.3987 80.431 48.3987 84.5254 50.3254 88.138Z" fill="#050505"/>
<path fill-rule="evenodd" clip-rule="evenodd" d="M70.0747 31.5394C68.148 28.1676 64.2945 26 60.2001 26C56.1057 26 52.2522 28.1676 50.3254 31.5394C48.3987 35.1521 48.3987 39.2465 50.3254 42.8592L60.2001 59.7183L70.0747 42.8592C72.0015 39.4873 72.0015 35.1521 70.0747 31.5394Z" fill="#050505"/>
</svg>
