<svg width="120" height="120" viewBox="0 0 120 120" fill="none" xmlns="http://www.w3.org/2000/svg">
<path d="M60 120C93.138 120 120 93.138 120 60C120 26.862 93.138 0 60 0C26.862 0 0 26.862 0 60C0 93.138 26.862 120 60 120Z" fill="#EDF0F4"/>
<path d="M56.717 81.9066C53.3236 76.9296 55.6801 72.1035 57.2826 70.3125C58.8661 68.5027 62.8439 66.165 64.6349 65.2224C71.9873 66.9191 86.7485 70.765 86.9747 72.5748C87.2575 74.837 85.5608 76.7472 82.4502 79.6443C79.3396 82.5415 70.5733 89.2587 67.4627 89.8243C64.3521 90.3898 60.9587 88.1276 56.717 81.9066Z" fill="#2D46A9"/>
<path d="M47.1024 48.821C43.0303 46.785 40.8812 41.1859 40.3156 38.6409C39.373 38.9236 37.9402 38.6974 39.75 35.5302C42.0123 31.5713 60.1104 26.1984 71.4217 30.7229C80.4708 34.3426 83.2986 38.8294 83.5814 40.6203C73.1184 44.2022 51.1745 50.8571 47.1024 48.821Z" fill="#2D46A9"/>
<path d="M38.8813 63.2168C36.1666 59.5972 30.9634 52.2825 28.7011 49.0776C28.1355 50.5858 27.0044 54.4505 27.0044 57.8439C27.0044 62.0856 26.7216 70.2863 30.6806 77.3559C33.8478 83.0116 42.1804 88.1961 45.9509 90.0811C46.3279 88.8555 46.9123 85.3304 46.2336 81.0321C45.3853 75.6592 42.2747 67.7413 38.8813 63.2168Z" fill="#6294F1"/>
<path d="M45.9508 55.8645C42.5574 48.5121 49.627 42.5737 54.7171 39.7459C57.922 38.0492 65.9718 34.6558 72.5324 34.6558C80.7331 34.6558 85.8232 39.7458 88.9338 47.0982C92.0444 54.4506 93.7411 65.7619 89.7821 70.5692C85.8232 75.3765 75.0774 71.7003 70.5529 69.7208C66.0284 67.7413 49.3442 63.2168 45.9508 55.8645Z" fill="#6294F1"/>
<path d="M41.7091 42.2908C37.6371 44.3268 32.4716 45.5899 30.3978 45.967C31.529 43.8932 34.3568 39.1802 36.619 36.9179C39.4469 34.0901 44.8197 30.9795 48.2131 30.9795C51.6065 30.9795 50.7582 34.0901 49.6271 35.7868C48.4959 37.4835 46.7992 39.7458 41.7091 42.2908Z" fill="#6294F1"/>
<path d="M70.553 88.9498C68.9694 87.14 71.9669 83.6712 73.6636 82.163C76.1521 80.3532 84.1266 77.45 87.8027 76.2246C86.3888 78.3926 82.8823 83.2942 80.1676 85.5564C76.7742 88.3843 72.5325 91.2121 70.553 88.9498Z" fill="#6294F1"/>
</svg>
