<svg width="120" height="120" viewBox="0 0 120 120" fill="none" xmlns="http://www.w3.org/2000/svg">
<path fill-rule="evenodd" clip-rule="evenodd" d="M60 0C93.132 0 120 26.868 120 60C120 93.132 93.132 120 60 120C26.868 120 0 93.132 0 60C0 26.868 26.868 0 60 0Z" fill="#070510"/>
<path fill-rule="evenodd" clip-rule="evenodd" d="M105.6 42.96C104.436 47.4 99.6479 53.508 93.2039 57.444C93.228 57.996 93.2399 58.548 93.2399 59.1C93.2399 77.424 78.3839 92.28 60.0599 92.28C50.5919 92.28 42.0599 88.32 36.0119 81.96C32.4359 82.824 9.81595 87.768 13.6799 72.84C15.7559 66.624 22.7519 61.884 26.8799 59.556C26.8799 59.4 26.8799 59.244 26.8799 59.1C26.8799 40.776 41.7359 25.92 60.0599 25.92C69.3599 25.92 77.7719 29.748 83.7959 35.928C89.1839 34.848 107.34 32.004 105.6 42.96ZM60.1799 34.44C46.5599 34.44 35.5199 45.48 35.5199 59.1C35.5199 60.828 35.6999 62.508 36.0359 64.14L35.9999 64.2C35.9999 64.2 30.2759 67.728 26.3759 70.932C25.2719 71.892 24.2159 72.912 23.3039 73.98C23.2319 74.088 23.1719 74.184 23.1119 74.28C24.0239 74.292 25.0199 74.292 26.1239 74.232C31.5239 73.704 41.8799 71.748 57.3839 65.448C57.3719 65.256 57.3719 65.064 57.3719 64.86C57.3719 59.064 62.0759 54.36 67.8719 54.36C70.7039 54.36 73.2839 55.488 75.1679 57.312C77.9279 55.92 80.7959 54.42 83.7719 52.8C83.8559 52.764 83.9399 52.74 84.0119 52.716C81.1919 42.192 71.5919 34.44 60.1799 34.44ZM62.6399 64.86C62.6399 67.74 64.9799 70.08 67.8599 70.08C70.7399 70.08 73.0799 67.74 73.0799 64.86C73.0799 61.98 70.7399 59.64 67.8599 59.64C64.9799 59.64 62.6399 61.98 62.6399 64.86ZM78.2879 66.072C77.688 71.304 73.2479 75.36 67.8599 75.36C65.5559 75.36 63.4319 74.616 61.7039 73.368C55.8959 75.732 50.0519 77.868 45.5759 78.972C49.6679 81.984 54.7199 83.772 60.1799 83.772C72.4319 83.772 82.6079 74.832 84.5159 63.108C83.6039 63.54 81.3479 64.644 78.2879 66.072ZM89.7599 43.8C89.7599 43.8 90.9959 45.72 91.4399 47.64C93.7079 45.468 95.6399 43.56 95.6399 43.56L89.7599 43.8Z" fill="url(#paint0_linear_1_3998)"/>
<defs>
<linearGradient id="paint0_linear_1_3998" x1="13.2362" y1="92.2804" x2="105.717" y2="92.2804" gradientUnits="userSpaceOnUse">
<stop stop-color="#06D6FE"/>
<stop offset="1" stop-color="#7A61FB"/>
</linearGradient>
</defs>
</svg>
