<svg width="120" height="120" viewBox="0 0 120 120" fill="none" xmlns="http://www.w3.org/2000/svg">
<path d="M60 120C93.138 120 120 93.138 120 60C120 26.862 93.138 0 60 0C26.862 0 0 26.862 0 60C0 93.138 26.862 120 60 120Z" fill="#EDF0F4"/>
<path fill-rule="evenodd" clip-rule="evenodd" d="M72.7439 29V40.433V44.1554V61.9697C72.478 68.8827 66.6285 74.4663 59.7155 74.4663C52.8025 74.4663 46.9531 68.8827 46.6872 61.9697V44.1554V40.433V29H31V62.2356C31 77.9228 43.7625 90.9511 59.7155 90.9511C75.4027 90.9511 88.4311 78.1886 88.4311 62.2356V29H72.7439Z" fill="url(#paint0_linear_1_5737)"/>
<path fill-rule="evenodd" clip-rule="evenodd" d="M72.7439 40.433V44.1554V61.9697C72.478 68.8827 66.6286 74.4663 59.7156 74.4663C53.8661 74.4663 49.0802 70.7439 47.219 65.4262C49.0802 76.3275 55.9932 85.3675 65.565 89.8876C78.5934 87.2287 88.4311 75.7957 88.4311 61.9697V29H73.0098V40.433H72.7439Z" fill="url(#paint1_linear_1_5737)"/>
<path fill-rule="evenodd" clip-rule="evenodd" d="M72.7439 44.1554V61.9697C72.478 68.8827 66.6286 74.4663 59.7156 74.4663C53.8661 74.4663 49.0802 70.7439 47.219 65.4262C47.219 65.6921 47.219 65.958 47.219 65.958C52.0049 75.5298 62.1085 82.1769 73.8075 82.1769C75.9345 82.1769 78.3275 81.911 80.4546 81.3793C85.2405 76.3275 88.4311 69.4145 88.4311 61.7038V29H72.7439V40.433V44.1554Z" fill="url(#paint2_linear_1_5737)"/>
<defs>
<linearGradient id="paint0_linear_1_5737" x1="21.7817" y1="61.8915" x2="62.0853" y2="78.5102" gradientUnits="userSpaceOnUse">
<stop stop-color="#7FEBFF"/>
<stop offset="0.1844" stop-color="#5DCFE2"/>
<stop offset="0.4326" stop-color="#35AEC0"/>
<stop offset="0.6598" stop-color="#1896A8"/>
<stop offset="0.8564" stop-color="#068799"/>
<stop offset="1" stop-color="#008294"/>
</linearGradient>
<linearGradient id="paint1_linear_1_5737" x1="47.1246" y1="89.8823" x2="88.1708" y2="89.8823" gradientUnits="userSpaceOnUse">
<stop stop-color="#7FEBFF"/>
<stop offset="1" stop-color="#008FAA"/>
</linearGradient>
<linearGradient id="paint2_linear_1_5737" x1="36.0371" y1="57.5711" x2="84.1646" y2="108.155" gradientUnits="userSpaceOnUse">
<stop stop-color="#7FEBFF"/>
<stop offset="0.1633" stop-color="#6ADCF1"/>
<stop offset="0.6493" stop-color="#008FAA"/>
</linearGradient>
</defs>
</svg>
