<svg width="120" height="120" viewBox="0 0 120 120" fill="none" xmlns="http://www.w3.org/2000/svg">
<circle cx="60" cy="60" r="60" fill="#F8D948"/>
<path d="M46.1196 29H28.5371C28.1417 29 27.8821 29.4133 28.0539 29.7695L60.184 96.3808C60.3807 96.7885 60.9627 96.7845 61.1537 96.3741L69.5557 78.3155C69.6231 78.1712 69.6225 78.0041 69.5544 77.86L46.6046 29.3072C46.5159 29.1196 46.3271 29 46.1196 29Z" fill="black"/>
<path d="M72.126 71.0361L63.6024 53.2366C63.5327 53.0915 63.5322 52.9228 63.6006 52.777L74.6136 29.3086C74.7021 29.1203 74.8912 29 75.0994 29H92.151C92.5447 29 92.8044 29.4102 92.6359 29.7661L73.0946 71.0339C72.9014 71.4422 72.321 71.4435 72.126 71.0361Z" fill="black"/>
</svg>
