<svg width="120" height="120" viewBox="0 0 120 120" fill="none" xmlns="http://www.w3.org/2000/svg">
<path d="M60 120C93.1364 120 120 93.1364 120 60C120 26.8636 93.1364 0 60 0C26.8636 0 0 26.8636 0 60C0 93.1364 26.8636 120 60 120Z" fill="url(#paint0_linear_1_3937)"/>
<path fill-rule="evenodd" clip-rule="evenodd" d="M90.6191 56.4272H29.3836V56.4259C27.3407 56.4199 25.686 54.7652 25.68 52.7223C25.686 50.6793 27.3407 49.0246 29.3836 49.0186H36.5386L28.9036 28.8573C28.1856 26.9445 29.1469 24.811 31.0554 24.0818C32.9685 23.3647 35.1017 24.3265 35.8309 26.235L44.4586 49.0186H73.23L81.8591 26.235C82.5877 24.3259 84.7214 23.3639 86.6345 24.0818C88.543 24.811 89.5044 26.9445 88.7864 28.8573L81.1527 49.0186H90.6191C92.6621 49.0246 94.3167 50.6793 94.3227 52.7223C94.3175 54.7658 92.6626 56.4213 90.6191 56.4272ZM90.6177 63.3409H29.3836C27.3412 63.3469 25.6867 65.0007 25.68 67.0432C25.6852 69.0867 27.3401 70.7422 29.3836 70.7482H44.7682L55.1932 98.2786C55.7669 99.78 57.241 100.742 58.8464 100.664C60.4517 100.742 61.9258 99.78 62.4995 98.2786L72.9245 70.7468H90.6191C92.6621 70.7408 94.3167 69.0861 94.3227 67.0432C94.3167 65.0002 92.6621 63.3455 90.6191 63.3395L90.6177 63.3409ZM58.845 87.0082L52.6868 70.7454H65.0032L58.845 87.0068V87.0082Z" fill="white"/>
<defs>
<linearGradient id="paint0_linear_1_3937" x1="49.8334" y1="144.45" x2="143.27" y2="70.0323" gradientUnits="userSpaceOnUse">
<stop stop-color="#F8B342"/>
<stop offset="1" stop-color="#F2C35E"/>
</linearGradient>
</defs>
</svg>
