<svg width="120" height="120" viewBox="0 0 120 120" fill="none" xmlns="http://www.w3.org/2000/svg">
<circle cx="60" cy="60" r="60" fill="#EDF0F4"/>
<path fill-rule="evenodd" clip-rule="evenodd" d="M20 60C20 82.0576 37.9424 100 60 100C82.0576 100 100 82.0576 100 60C100 37.9424 82.0576 20 60 20C37.9424 20 20 37.9424 20 60ZM26.4768 60C26.4768 41.5072 41.5072 26.4768 60 26.4768C78.4928 26.4768 93.5232 41.5072 93.5232 60C93.5232 78.4928 78.4928 93.5232 60 93.5232C41.5072 93.5232 26.4768 78.4928 26.4768 60Z" fill="#E6201A"/>
<path d="M78.6879 46.592C77.2639 43.2896 74.1535 41.216 70.5599 41.216L49.3759 41.0208H49.3119C45.8143 41.0208 42.7359 42.9952 41.3439 46.2016C39.8879 49.472 40.5023 53.1648 42.9631 55.7888L45.8783 58.9312L50.2847 54.1696L47.7247 51.3856C46.7199 50.2848 47.1103 49.152 47.2703 48.7936C47.4335 48.4064 48.0159 47.4656 49.3119 47.4656H49.3439L70.5247 47.6608C71.9807 47.6608 72.5983 48.7936 72.7583 49.152C72.9535 49.5744 73.2767 50.6752 72.3711 51.6448L61.8783 63.0464C61.2959 63.6608 60.5823 63.76 60.2271 63.76C59.5455 63.76 58.8991 63.4688 58.4447 62.9504L56.6623 61.04L52.2559 65.8016L53.6799 67.3248C55.3631 69.1392 57.7599 70.208 60.2239 70.208C62.6527 70.208 65.0175 69.1712 66.6367 67.3888L77.1295 55.9872C79.4975 53.456 80.0799 49.8304 78.6879 46.592Z" fill="#E6201A"/>
<path d="M77.4561 63.6288L74.4769 60.3904L69.3921 65.8976L71.9521 68.6816C72.6337 69.4272 72.4385 70.2368 72.2433 70.656C72.1153 70.9472 71.6289 71.8528 70.4609 71.8528L49.2801 72.048C48.2113 72.048 47.7889 71.3344 47.6609 71.0112C47.4977 70.688 47.2385 69.8144 48.0161 68.9696L58.7041 57.408C59.0913 56.9856 59.5777 56.7616 60.1281 56.7616C60.4193 56.7616 60.9697 56.8256 61.4241 57.312L63.6257 59.7088L68.7105 54.2016L66.9281 52.2592C65.1777 50.3808 62.7169 49.28 60.1601 49.28C57.5361 49.28 55.0433 50.3808 53.2609 52.3232L42.5729 63.8848C39.9809 66.6688 39.3345 70.5568 40.8577 74.0224C42.3489 77.392 45.5873 79.4976 49.2801 79.4976L70.5281 79.3024C74.2849 79.2704 77.5873 77.1008 79.0785 73.6032C80.5985 70.1696 79.9841 66.3488 77.4561 63.6288Z" fill="#E6201A"/>
</svg>
