<svg width="1288" height="80" viewBox="0 0 1288 80" fill="none" xmlns="http://www.w3.org/2000/svg">
<rect width="1288" height="80" rx="20" fill="#FCFCFD"/>
<rect x="25" y="26" width="110" height="28" rx="14" fill="#353945"/>
<path d="M37.308 45L40.892 35.2H43.034L46.604 45H44.602L41.956 37.356L39.296 45H37.308ZM38.89 42.774L39.394 41.304H44.378L44.868 42.774H38.89ZM47.8498 45V34.92H49.7398V45H47.8498ZM51.5822 45V34.92H53.4722V45H51.5822ZM58.6515 45V35.2H60.5415L65.0495 41.962V35.2H66.9395V45H65.0495L60.5415 38.252V45H58.6515ZM72.1968 45.168C71.4874 45.168 70.8574 45.0187 70.3068 44.72C69.7654 44.412 69.3408 43.9873 69.0328 43.446C68.7341 42.8953 68.5848 42.2607 68.5848 41.542C68.5848 40.8047 68.7341 40.156 69.0328 39.596C69.3408 39.0267 69.7654 38.5833 70.3068 38.266C70.8481 37.9393 71.4781 37.776 72.1968 37.776C72.8968 37.776 73.5081 37.93 74.0308 38.238C74.5534 38.546 74.9594 38.9613 75.2488 39.484C75.5381 40.0067 75.6828 40.5993 75.6828 41.262C75.6828 41.3553 75.6828 41.4627 75.6828 41.584C75.6828 41.696 75.6734 41.8127 75.6548 41.934H69.9288V40.786H73.7788C73.7508 40.3287 73.5874 39.9693 73.2888 39.708C72.9994 39.4467 72.6354 39.316 72.1968 39.316C71.8794 39.316 71.5854 39.3907 71.3148 39.54C71.0441 39.68 70.8294 39.8993 70.6708 40.198C70.5214 40.4967 70.4468 40.8747 70.4468 41.332V41.738C70.4468 42.1207 70.5168 42.4567 70.6568 42.746C70.8061 43.026 71.0114 43.2453 71.2728 43.404C71.5341 43.5533 71.8374 43.628 72.1828 43.628C72.5281 43.628 72.8128 43.5533 73.0368 43.404C73.2701 43.2547 73.4428 43.0633 73.5548 42.83H75.4868C75.3561 43.2687 75.1368 43.6653 74.8288 44.02C74.5208 44.3747 74.1428 44.6547 73.6948 44.86C73.2468 45.0653 72.7474 45.168 72.1968 45.168ZM80.3129 45C79.8183 45 79.3843 44.9253 79.0109 44.776C78.6469 44.6173 78.3623 44.3607 78.1569 44.006C77.9516 43.642 77.8489 43.1473 77.8489 42.522V39.526H76.6449V37.944H77.8489L78.0589 36.026H79.7389V37.944H81.6009V39.526H79.7389V42.55C79.7389 42.8673 79.8089 43.0867 79.9489 43.208C80.0889 43.3293 80.3269 43.39 80.6629 43.39H81.5869V45H80.3129ZM84.5776 45L82.5056 37.944H84.3676L85.7396 43.67L85.3896 43.656L86.9576 37.944H89.0576L90.6256 43.656L90.2616 43.67L91.6476 37.944H93.5096L91.4376 45H89.4776L87.8116 39.12H88.2036L86.5376 45H84.5776ZM97.7755 45.168C97.1035 45.168 96.4969 45.014 95.9555 44.706C95.4235 44.3887 94.9989 43.9547 94.6815 43.404C94.3735 42.844 94.2195 42.2047 94.2195 41.486C94.2195 40.7487 94.3735 40.1047 94.6815 39.554C94.9989 38.994 95.4282 38.56 95.9695 38.252C96.5109 37.9347 97.1175 37.776 97.7895 37.776C98.4709 37.776 99.0775 37.9347 99.6095 38.252C100.151 38.56 100.576 38.994 100.884 39.554C101.201 40.1047 101.36 40.744 101.36 41.472C101.36 42.2 101.201 42.844 100.884 43.404C100.576 43.9547 100.151 44.3887 99.6095 44.706C99.0682 45.014 98.4569 45.168 97.7755 45.168ZM97.7755 43.53C98.0929 43.53 98.3729 43.4553 98.6155 43.306C98.8675 43.1567 99.0635 42.928 99.2035 42.62C99.3529 42.312 99.4275 41.9293 99.4275 41.472C99.4275 41.0147 99.3529 40.6367 99.2035 40.338C99.0635 40.03 98.8675 39.8013 98.6155 39.652C98.3729 39.4933 98.0975 39.414 97.7895 39.414C97.4909 39.414 97.2155 39.4933 96.9635 39.652C96.7115 39.8013 96.5109 40.03 96.3615 40.338C96.2215 40.6367 96.1515 41.0147 96.1515 41.472C96.1515 41.9293 96.2215 42.312 96.3615 42.62C96.5109 42.928 96.7069 43.1567 96.9495 43.306C97.2015 43.4553 97.4769 43.53 97.7755 43.53ZM102.988 45V37.944H104.668L104.85 39.246C105.018 38.938 105.228 38.6767 105.48 38.462C105.742 38.2473 106.036 38.0793 106.362 37.958C106.698 37.8367 107.067 37.776 107.468 37.776V39.778H106.824C106.544 39.778 106.283 39.8107 106.04 39.876C105.807 39.9413 105.602 40.0487 105.424 40.198C105.247 40.338 105.112 40.534 105.018 40.786C104.925 41.038 104.878 41.3553 104.878 41.738V45H102.988ZM113.337 45L110.327 41.136L113.029 37.944H115.255L111.769 41.934V40.436L115.689 45H113.337ZM108.717 45V34.92H110.607V45H108.717ZM119.353 45.168C118.709 45.168 118.149 45.0653 117.673 44.86C117.197 44.6547 116.824 44.37 116.553 44.006C116.282 43.642 116.128 43.2313 116.091 42.774H117.967C118.014 42.9513 118.093 43.1147 118.205 43.264C118.317 43.404 118.466 43.516 118.653 43.6C118.84 43.684 119.064 43.726 119.325 43.726C119.577 43.726 119.782 43.6933 119.941 43.628C120.1 43.5533 120.216 43.4553 120.291 43.334C120.375 43.2127 120.417 43.0867 120.417 42.956C120.417 42.76 120.361 42.6107 120.249 42.508C120.137 42.396 119.974 42.3073 119.759 42.242C119.544 42.1767 119.283 42.1113 118.975 42.046C118.639 41.9807 118.308 41.9013 117.981 41.808C117.664 41.7053 117.379 41.5793 117.127 41.43C116.875 41.2807 116.674 41.0893 116.525 40.856C116.376 40.6227 116.301 40.3333 116.301 39.988C116.301 39.568 116.413 39.1947 116.637 38.868C116.861 38.532 117.188 38.266 117.617 38.07C118.046 37.874 118.564 37.776 119.171 37.776C120.02 37.776 120.692 37.9673 121.187 38.35C121.682 38.7327 121.976 39.26 122.069 39.932H120.291C120.235 39.7173 120.109 39.5493 119.913 39.428C119.726 39.2973 119.474 39.232 119.157 39.232C118.821 39.232 118.564 39.2927 118.387 39.414C118.21 39.5353 118.121 39.694 118.121 39.89C118.121 40.0207 118.177 40.1373 118.289 40.24C118.41 40.3427 118.578 40.4313 118.793 40.506C119.008 40.5713 119.269 40.6367 119.577 40.702C120.118 40.814 120.594 40.9447 121.005 41.094C121.416 41.234 121.738 41.4393 121.971 41.71C122.204 41.9713 122.321 42.354 122.321 42.858C122.321 43.306 122.2 43.7073 121.957 44.062C121.714 44.4073 121.369 44.678 120.921 44.874C120.482 45.07 119.96 45.168 119.353 45.168Z" fill="#FCFCFD"/>
<path d="M159.966 45V35.2H163.984C164.665 35.2 165.239 35.3073 165.706 35.522C166.173 35.7367 166.523 36.0353 166.756 36.418C166.999 36.7913 167.12 37.2253 167.12 37.72C167.12 38.2147 167.013 38.63 166.798 38.966C166.583 39.302 166.299 39.5633 165.944 39.75C165.599 39.9273 165.216 40.03 164.796 40.058L165.02 39.904C165.468 39.9227 165.865 40.044 166.21 40.268C166.565 40.4827 166.84 40.772 167.036 41.136C167.241 41.5 167.344 41.8967 167.344 42.326C167.344 42.8487 167.218 43.3107 166.966 43.712C166.714 44.1133 166.35 44.4307 165.874 44.664C165.398 44.888 164.815 45 164.124 45H159.966ZM161.856 43.46H163.816C164.329 43.46 164.726 43.3433 165.006 43.11C165.286 42.8767 165.426 42.5407 165.426 42.102C165.426 41.6633 165.281 41.3227 164.992 41.08C164.703 40.828 164.301 40.702 163.788 40.702H161.856V43.46ZM161.856 39.288H163.676C164.171 39.288 164.544 39.176 164.796 38.952C165.057 38.728 165.188 38.4107 165.188 38C165.188 37.5987 165.057 37.286 164.796 37.062C164.544 36.8287 164.166 36.712 163.662 36.712H161.856V39.288ZM168.894 45V35.2H170.784L175.292 41.962V35.2H177.182V45H175.292L170.784 38.252V45H168.894ZM179.093 45V35.2H183.111C183.792 35.2 184.366 35.3073 184.833 35.522C185.3 35.7367 185.65 36.0353 185.883 36.418C186.126 36.7913 186.247 37.2253 186.247 37.72C186.247 38.2147 186.14 38.63 185.925 38.966C185.71 39.302 185.426 39.5633 185.071 39.75C184.726 39.9273 184.343 40.03 183.923 40.058L184.147 39.904C184.595 39.9227 184.992 40.044 185.337 40.268C185.692 40.4827 185.967 40.772 186.163 41.136C186.368 41.5 186.471 41.8967 186.471 42.326C186.471 42.8487 186.345 43.3107 186.093 43.712C185.841 44.1133 185.477 44.4307 185.001 44.664C184.525 44.888 183.942 45 183.251 45H179.093ZM180.983 43.46H182.943C183.456 43.46 183.853 43.3433 184.133 43.11C184.413 42.8767 184.553 42.5407 184.553 42.102C184.553 41.6633 184.408 41.3227 184.119 41.08C183.83 40.828 183.428 40.702 182.915 40.702H180.983V43.46ZM180.983 39.288H182.803C183.298 39.288 183.671 39.176 183.923 38.952C184.184 38.728 184.315 38.4107 184.315 38C184.315 37.5987 184.184 37.286 183.923 37.062C183.671 36.8287 183.293 36.712 182.789 36.712H180.983V39.288ZM195.712 45.168C194.732 45.168 193.887 44.958 193.178 44.538C192.478 44.1087 191.936 43.516 191.554 42.76C191.18 41.9947 190.994 41.1127 190.994 40.114C190.994 39.1153 191.18 38.2333 191.554 37.468C191.936 36.7027 192.478 36.1053 193.178 35.676C193.887 35.2467 194.732 35.032 195.712 35.032C196.897 35.032 197.868 35.326 198.624 35.914C199.38 36.502 199.851 37.3327 200.038 38.406H197.98C197.858 37.8833 197.602 37.4773 197.21 37.188C196.827 36.8893 196.323 36.74 195.698 36.74C195.119 36.74 194.62 36.88 194.2 37.16C193.789 37.4307 193.472 37.818 193.248 38.322C193.024 38.8167 192.912 39.414 192.912 40.114C192.912 40.8047 193.024 41.402 193.248 41.906C193.472 42.41 193.789 42.7973 194.2 43.068C194.62 43.3387 195.119 43.474 195.698 43.474C196.323 43.474 196.827 43.3387 197.21 43.068C197.592 42.788 197.844 42.4007 197.966 41.906H200.038C199.851 42.9233 199.38 43.7213 198.624 44.3C197.868 44.8787 196.897 45.168 195.712 45.168ZM201.61 45V34.92H203.5V38.994C203.733 38.6207 204.041 38.3267 204.424 38.112C204.816 37.888 205.268 37.776 205.782 37.776C206.37 37.776 206.864 37.902 207.266 38.154C207.667 38.3967 207.97 38.7513 208.176 39.218C208.381 39.6847 208.484 40.2633 208.484 40.954V45H206.608V41.122C206.608 40.562 206.491 40.1327 206.258 39.834C206.024 39.526 205.656 39.372 205.152 39.372C204.844 39.372 204.564 39.4467 204.312 39.596C204.06 39.7453 203.859 39.9647 203.71 40.254C203.57 40.534 203.5 40.87 203.5 41.262V45H201.61ZM212.644 45.168C212.056 45.168 211.571 45.0747 211.188 44.888C210.805 44.692 210.521 44.4353 210.334 44.118C210.157 43.7913 210.068 43.432 210.068 43.04C210.068 42.6107 210.175 42.2327 210.39 41.906C210.614 41.5793 210.945 41.3227 211.384 41.136C211.832 40.9493 212.392 40.856 213.064 40.856H214.814C214.814 40.5107 214.767 40.226 214.674 40.002C214.581 39.7687 214.436 39.596 214.24 39.484C214.044 39.372 213.783 39.316 213.456 39.316C213.101 39.316 212.798 39.3953 212.546 39.554C212.303 39.7033 212.154 39.9367 212.098 40.254H210.264C210.311 39.75 210.474 39.316 210.754 38.952C211.043 38.5787 211.421 38.2893 211.888 38.084C212.364 37.8787 212.891 37.776 213.47 37.776C214.133 37.776 214.707 37.888 215.192 38.112C215.677 38.336 216.051 38.658 216.312 39.078C216.573 39.498 216.704 40.016 216.704 40.632V45H215.108L214.898 43.922C214.795 44.1087 214.674 44.2767 214.534 44.426C214.394 44.5753 214.231 44.706 214.044 44.818C213.857 44.93 213.647 45.014 213.414 45.07C213.181 45.1353 212.924 45.168 212.644 45.168ZM213.092 43.712C213.335 43.712 213.549 43.67 213.736 43.586C213.932 43.4927 214.1 43.3713 214.24 43.222C214.38 43.0633 214.487 42.886 214.562 42.69C214.646 42.4847 214.702 42.2653 214.73 42.032V42.018H213.288C212.999 42.018 212.761 42.0553 212.574 42.13C212.397 42.1953 212.266 42.2933 212.182 42.424C212.098 42.5547 212.056 42.704 212.056 42.872C212.056 43.0587 212.098 43.2127 212.182 43.334C212.266 43.4553 212.387 43.5487 212.546 43.614C212.705 43.6793 212.887 43.712 213.092 43.712ZM218.509 45V37.944H220.399V45H218.509ZM219.461 36.978C219.125 36.978 218.845 36.88 218.621 36.684C218.406 36.4787 218.299 36.222 218.299 35.914C218.299 35.606 218.406 35.354 218.621 35.158C218.845 34.9527 219.125 34.85 219.461 34.85C219.806 34.85 220.086 34.9527 220.301 35.158C220.525 35.354 220.637 35.606 220.637 35.914C220.637 36.222 220.525 36.4787 220.301 36.684C220.086 36.88 219.806 36.978 219.461 36.978ZM222.309 45V37.944H223.975L224.115 39.092C224.329 38.7 224.633 38.3827 225.025 38.14C225.426 37.8973 225.902 37.776 226.453 37.776C227.041 37.776 227.535 37.8973 227.937 38.14C228.338 38.3827 228.641 38.7373 228.847 39.204C229.061 39.6707 229.169 40.2447 229.169 40.926V45H227.293V41.108C227.293 40.548 227.171 40.1187 226.929 39.82C226.695 39.5213 226.331 39.372 225.837 39.372C225.519 39.372 225.235 39.4467 224.983 39.596C224.74 39.7453 224.549 39.96 224.409 40.24C224.269 40.5107 224.199 40.842 224.199 41.234V45H222.309ZM234.286 45V35.2H240.726V36.726H236.176V39.288H240.306V40.758H236.176V43.474H240.726V45H234.286ZM245.822 45.168C245.113 45.168 244.483 45.0093 243.932 44.692C243.382 44.3747 242.952 43.9407 242.644 43.39C242.336 42.8393 242.182 42.2093 242.182 41.5C242.182 40.772 242.336 40.1327 242.644 39.582C242.952 39.022 243.382 38.5833 243.932 38.266C244.483 37.9393 245.113 37.776 245.822 37.776C246.728 37.776 247.488 38.014 248.104 38.49C248.72 38.966 249.112 39.6193 249.28 40.45H247.278C247.194 40.1233 247.017 39.8667 246.746 39.68C246.485 39.4933 246.172 39.4 245.808 39.4C245.482 39.4 245.188 39.484 244.926 39.652C244.674 39.8107 244.474 40.0487 244.324 40.366C244.184 40.674 244.114 41.0427 244.114 41.472C244.114 41.7987 244.156 42.0927 244.24 42.354C244.324 42.606 244.441 42.8253 244.59 43.012C244.74 43.1893 244.917 43.3247 245.122 43.418C245.337 43.5113 245.566 43.558 245.808 43.558C246.051 43.558 246.27 43.516 246.466 43.432C246.672 43.348 246.844 43.2313 246.984 43.082C247.124 42.9233 247.222 42.732 247.278 42.508H249.28C249.112 43.32 248.716 43.9687 248.09 44.454C247.474 44.93 246.718 45.168 245.822 45.168ZM254.242 45.168C253.57 45.168 252.964 45.014 252.422 44.706C251.89 44.3887 251.466 43.9547 251.148 43.404C250.84 42.844 250.686 42.2047 250.686 41.486C250.686 40.7487 250.84 40.1047 251.148 39.554C251.466 38.994 251.895 38.56 252.436 38.252C252.978 37.9347 253.584 37.776 254.256 37.776C254.938 37.776 255.544 37.9347 256.076 38.252C256.618 38.56 257.042 38.994 257.35 39.554C257.668 40.1047 257.826 40.744 257.826 41.472C257.826 42.2 257.668 42.844 257.35 43.404C257.042 43.9547 256.618 44.3887 256.076 44.706C255.535 45.014 254.924 45.168 254.242 45.168ZM254.242 43.53C254.56 43.53 254.84 43.4553 255.082 43.306C255.334 43.1567 255.53 42.928 255.67 42.62C255.82 42.312 255.894 41.9293 255.894 41.472C255.894 41.0147 255.82 40.6367 255.67 40.338C255.53 40.03 255.334 39.8013 255.082 39.652C254.84 39.4933 254.564 39.414 254.256 39.414C253.958 39.414 253.682 39.4933 253.43 39.652C253.178 39.8013 252.978 40.03 252.828 40.338C252.688 40.6367 252.618 41.0147 252.618 41.472C252.618 41.9293 252.688 42.312 252.828 42.62C252.978 42.928 253.174 43.1567 253.416 43.306C253.668 43.4553 253.944 43.53 254.242 43.53ZM262.339 45.168C261.695 45.168 261.135 45.0653 260.659 44.86C260.183 44.6547 259.81 44.37 259.539 44.006C259.269 43.642 259.115 43.2313 259.077 42.774H260.953C261 42.9513 261.079 43.1147 261.191 43.264C261.303 43.404 261.453 43.516 261.639 43.6C261.826 43.684 262.05 43.726 262.311 43.726C262.563 43.726 262.769 43.6933 262.927 43.628C263.086 43.5533 263.203 43.4553 263.277 43.334C263.361 43.2127 263.403 43.0867 263.403 42.956C263.403 42.76 263.347 42.6107 263.235 42.508C263.123 42.396 262.96 42.3073 262.745 42.242C262.531 42.1767 262.269 42.1113 261.961 42.046C261.625 41.9807 261.294 41.9013 260.967 41.808C260.65 41.7053 260.365 41.5793 260.113 41.43C259.861 41.2807 259.661 41.0893 259.511 40.856C259.362 40.6227 259.287 40.3333 259.287 39.988C259.287 39.568 259.399 39.1947 259.623 38.868C259.847 38.532 260.174 38.266 260.603 38.07C261.033 37.874 261.551 37.776 262.157 37.776C263.007 37.776 263.679 37.9673 264.173 38.35C264.668 38.7327 264.962 39.26 265.055 39.932H263.277C263.221 39.7173 263.095 39.5493 262.899 39.428C262.713 39.2973 262.461 39.232 262.143 39.232C261.807 39.232 261.551 39.2927 261.373 39.414C261.196 39.5353 261.107 39.694 261.107 39.89C261.107 40.0207 261.163 40.1373 261.275 40.24C261.397 40.3427 261.565 40.4313 261.779 40.506C261.994 40.5713 262.255 40.6367 262.563 40.702C263.105 40.814 263.581 40.9447 263.991 41.094C264.402 41.234 264.724 41.4393 264.957 41.71C265.191 41.9713 265.307 42.354 265.307 42.858C265.307 43.306 265.186 43.7073 264.943 44.062C264.701 44.4073 264.355 44.678 263.907 44.874C263.469 45.07 262.946 45.168 262.339 45.168ZM267.433 48.08L269.141 44.216H268.721L265.893 37.944H267.951L269.967 42.494L271.787 37.944H273.789L269.435 48.08H267.433ZM277.529 45.168C276.885 45.168 276.325 45.0653 275.849 44.86C275.373 44.6547 274.999 44.37 274.729 44.006C274.458 43.642 274.304 43.2313 274.267 42.774H276.143C276.189 42.9513 276.269 43.1147 276.381 43.264C276.493 43.404 276.642 43.516 276.829 43.6C277.015 43.684 277.239 43.726 277.501 43.726C277.753 43.726 277.958 43.6933 278.117 43.628C278.275 43.5533 278.392 43.4553 278.467 43.334C278.551 43.2127 278.593 43.0867 278.593 42.956C278.593 42.76 278.537 42.6107 278.425 42.508C278.313 42.396 278.149 42.3073 277.935 42.242C277.72 42.1767 277.459 42.1113 277.151 42.046C276.815 41.9807 276.483 41.9013 276.157 41.808C275.839 41.7053 275.555 41.5793 275.303 41.43C275.051 41.2807 274.85 41.0893 274.701 40.856C274.551 40.6227 274.477 40.3333 274.477 39.988C274.477 39.568 274.589 39.1947 274.813 38.868C275.037 38.532 275.363 38.266 275.793 38.07C276.222 37.874 276.74 37.776 277.347 37.776C278.196 37.776 278.868 37.9673 279.363 38.35C279.857 38.7327 280.151 39.26 280.245 39.932H278.467C278.411 39.7173 278.285 39.5493 278.089 39.428C277.902 39.2973 277.65 39.232 277.333 39.232C276.997 39.232 276.74 39.2927 276.563 39.414C276.385 39.5353 276.297 39.694 276.297 39.89C276.297 40.0207 276.353 40.1373 276.465 40.24C276.586 40.3427 276.754 40.4313 276.969 40.506C277.183 40.5713 277.445 40.6367 277.753 40.702C278.294 40.814 278.77 40.9447 279.181 41.094C279.591 41.234 279.913 41.4393 280.147 41.71C280.38 41.9713 280.497 42.354 280.497 42.858C280.497 43.306 280.375 43.7073 280.133 44.062C279.89 44.4073 279.545 44.678 279.097 44.874C278.658 45.07 278.135 45.168 277.529 45.168ZM285.055 45C284.56 45 284.126 44.9253 283.753 44.776C283.389 44.6173 283.104 44.3607 282.899 44.006C282.694 43.642 282.591 43.1473 282.591 42.522V39.526H281.387V37.944H282.591L282.801 36.026H284.481V37.944H286.343V39.526H284.481V42.55C284.481 42.8673 284.551 43.0867 284.691 43.208C284.831 43.3293 285.069 43.39 285.405 43.39H286.329V45H285.055ZM291.144 45.168C290.435 45.168 289.805 45.0187 289.254 44.72C288.713 44.412 288.288 43.9873 287.98 43.446C287.681 42.8953 287.532 42.2607 287.532 41.542C287.532 40.8047 287.681 40.156 287.98 39.596C288.288 39.0267 288.713 38.5833 289.254 38.266C289.795 37.9393 290.425 37.776 291.144 37.776C291.844 37.776 292.455 37.93 292.978 38.238C293.501 38.546 293.907 38.9613 294.196 39.484C294.485 40.0067 294.63 40.5993 294.63 41.262C294.63 41.3553 294.63 41.4627 294.63 41.584C294.63 41.696 294.621 41.8127 294.602 41.934H288.876V40.786H292.726C292.698 40.3287 292.535 39.9693 292.236 39.708C291.947 39.4467 291.583 39.316 291.144 39.316C290.827 39.316 290.533 39.3907 290.262 39.54C289.991 39.68 289.777 39.8993 289.618 40.198C289.469 40.4967 289.394 40.8747 289.394 41.332V41.738C289.394 42.1207 289.464 42.4567 289.604 42.746C289.753 43.026 289.959 43.2453 290.22 43.404C290.481 43.5533 290.785 43.628 291.13 43.628C291.475 43.628 291.76 43.5533 291.984 43.404C292.217 43.2547 292.39 43.0633 292.502 42.83H294.434C294.303 43.2687 294.084 43.6653 293.776 44.02C293.468 44.3747 293.09 44.6547 292.642 44.86C292.194 45.0653 291.695 45.168 291.144 45.168ZM296.178 45V37.944H297.844L297.998 38.882C298.222 38.546 298.516 38.28 298.88 38.084C299.253 37.8787 299.678 37.776 300.154 37.776C300.509 37.776 300.826 37.8227 301.106 37.916C301.386 38.0093 301.633 38.1447 301.848 38.322C302.072 38.4993 302.254 38.7233 302.394 38.994C302.655 38.6113 302.996 38.3127 303.416 38.098C303.836 37.8833 304.293 37.776 304.788 37.776C305.404 37.776 305.917 37.902 306.328 38.154C306.739 38.3967 307.047 38.7513 307.252 39.218C307.467 39.6847 307.574 40.2587 307.574 40.94V45H305.698V41.108C305.698 40.548 305.586 40.1187 305.362 39.82C305.147 39.5213 304.811 39.372 304.354 39.372C304.055 39.372 303.789 39.4467 303.556 39.596C303.323 39.7453 303.141 39.96 303.01 40.24C302.889 40.52 302.828 40.856 302.828 41.248V45H300.938V41.108C300.938 40.548 300.826 40.1187 300.602 39.82C300.378 39.5213 300.033 39.372 299.566 39.372C299.277 39.372 299.015 39.4467 298.782 39.596C298.558 39.7453 298.381 39.96 298.25 40.24C298.129 40.52 298.068 40.856 298.068 41.248V45H296.178Z" fill="#353945"/>
<path d="M349.34 45.168C348.631 45.168 347.996 45.0467 347.436 44.804C346.885 44.5613 346.447 44.2067 346.12 43.74C345.803 43.2733 345.639 42.7087 345.63 42.046H347.632C347.641 42.3353 347.716 42.5967 347.856 42.83C347.996 43.0633 348.187 43.25 348.43 43.39C348.682 43.5207 348.981 43.586 349.326 43.586C349.625 43.586 349.881 43.5393 350.096 43.446C350.32 43.3433 350.493 43.2033 350.614 43.026C350.735 42.8487 350.796 42.6387 350.796 42.396C350.796 42.116 350.726 41.8827 350.586 41.696C350.455 41.5093 350.269 41.3507 350.026 41.22C349.793 41.0893 349.517 40.9727 349.2 40.87C348.892 40.758 348.565 40.6413 348.22 40.52C347.445 40.268 346.853 39.932 346.442 39.512C346.041 39.092 345.84 38.5367 345.84 37.846C345.84 37.258 345.98 36.754 346.26 36.334C346.549 35.914 346.946 35.592 347.45 35.368C347.954 35.144 348.528 35.032 349.172 35.032C349.835 35.032 350.413 35.1487 350.908 35.382C351.412 35.606 351.809 35.9327 352.098 36.362C352.397 36.7913 352.551 37.2953 352.56 37.874H350.544C350.535 37.6593 350.469 37.4587 350.348 37.272C350.236 37.076 350.077 36.922 349.872 36.81C349.667 36.6887 349.424 36.628 349.144 36.628C348.901 36.6187 348.677 36.656 348.472 36.74C348.276 36.824 348.117 36.95 347.996 37.118C347.884 37.2767 347.828 37.4773 347.828 37.72C347.828 37.9533 347.884 38.1493 347.996 38.308C348.117 38.4667 348.281 38.6067 348.486 38.728C348.691 38.84 348.934 38.9473 349.214 39.05C349.494 39.1433 349.797 39.2413 350.124 39.344C350.609 39.512 351.057 39.7127 351.468 39.946C351.879 40.17 352.205 40.464 352.448 40.828C352.691 41.192 352.812 41.6727 352.812 42.27C352.812 42.7833 352.677 43.2593 352.406 43.698C352.135 44.1367 351.743 44.4913 351.23 44.762C350.726 45.0327 350.096 45.168 349.34 45.168ZM357.705 45.168C357.033 45.168 356.427 45.014 355.885 44.706C355.353 44.3887 354.929 43.9547 354.611 43.404C354.303 42.844 354.149 42.2047 354.149 41.486C354.149 40.7487 354.303 40.1047 354.611 39.554C354.929 38.994 355.358 38.56 355.899 38.252C356.441 37.9347 357.047 37.776 357.719 37.776C358.401 37.776 359.007 37.9347 359.539 38.252C360.081 38.56 360.505 38.994 360.813 39.554C361.131 40.1047 361.289 40.744 361.289 41.472C361.289 42.2 361.131 42.844 360.813 43.404C360.505 43.9547 360.081 44.3887 359.539 44.706C358.998 45.014 358.387 45.168 357.705 45.168ZM357.705 43.53C358.023 43.53 358.303 43.4553 358.545 43.306C358.797 43.1567 358.993 42.928 359.133 42.62C359.283 42.312 359.357 41.9293 359.357 41.472C359.357 41.0147 359.283 40.6367 359.133 40.338C358.993 40.03 358.797 39.8013 358.545 39.652C358.303 39.4933 358.027 39.414 357.719 39.414C357.421 39.414 357.145 39.4933 356.893 39.652C356.641 39.8013 356.441 40.03 356.291 40.338C356.151 40.6367 356.081 41.0147 356.081 41.472C356.081 41.9293 356.151 42.312 356.291 42.62C356.441 42.928 356.637 43.1567 356.879 43.306C357.131 43.4553 357.407 43.53 357.705 43.53ZM362.918 45V34.92H364.808V45H362.918ZM369.031 45.168C368.443 45.168 367.957 45.0747 367.575 44.888C367.192 44.692 366.907 44.4353 366.721 44.118C366.543 43.7913 366.455 43.432 366.455 43.04C366.455 42.6107 366.562 42.2327 366.777 41.906C367.001 41.5793 367.332 41.3227 367.771 41.136C368.219 40.9493 368.779 40.856 369.451 40.856H371.201C371.201 40.5107 371.154 40.226 371.061 40.002C370.967 39.7687 370.823 39.596 370.627 39.484C370.431 39.372 370.169 39.316 369.843 39.316C369.488 39.316 369.185 39.3953 368.933 39.554C368.69 39.7033 368.541 39.9367 368.485 40.254H366.651C366.697 39.75 366.861 39.316 367.141 38.952C367.43 38.5787 367.808 38.2893 368.275 38.084C368.751 37.8787 369.278 37.776 369.857 37.776C370.519 37.776 371.093 37.888 371.579 38.112C372.064 38.336 372.437 38.658 372.699 39.078C372.96 39.498 373.091 40.016 373.091 40.632V45H371.495L371.285 43.922C371.182 44.1087 371.061 44.2767 370.921 44.426C370.781 44.5753 370.617 44.706 370.431 44.818C370.244 44.93 370.034 45.014 369.801 45.07C369.567 45.1353 369.311 45.168 369.031 45.168ZM369.479 43.712C369.721 43.712 369.936 43.67 370.123 43.586C370.319 43.4927 370.487 43.3713 370.627 43.222C370.767 43.0633 370.874 42.886 370.949 42.69C371.033 42.4847 371.089 42.2653 371.117 42.032V42.018H369.675C369.385 42.018 369.147 42.0553 368.961 42.13C368.783 42.1953 368.653 42.2933 368.569 42.424C368.485 42.5547 368.443 42.704 368.443 42.872C368.443 43.0587 368.485 43.2127 368.569 43.334C368.653 43.4553 368.774 43.5487 368.933 43.614C369.091 43.6793 369.273 43.712 369.479 43.712ZM374.854 45V37.944H376.52L376.66 39.092C376.874 38.7 377.178 38.3827 377.57 38.14C377.971 37.8973 378.447 37.776 378.998 37.776C379.586 37.776 380.08 37.8973 380.482 38.14C380.883 38.3827 381.186 38.7373 381.392 39.204C381.606 39.6707 381.714 40.2447 381.714 40.926V45H379.838V41.108C379.838 40.548 379.716 40.1187 379.474 39.82C379.24 39.5213 378.876 39.372 378.382 39.372C378.064 39.372 377.78 39.4467 377.528 39.596C377.285 39.7453 377.094 39.96 376.954 40.24C376.814 40.5107 376.744 40.842 376.744 41.234V45H374.854ZM385.874 45.168C385.286 45.168 384.801 45.0747 384.418 44.888C384.036 44.692 383.751 44.4353 383.564 44.118C383.387 43.7913 383.298 43.432 383.298 43.04C383.298 42.6107 383.406 42.2327 383.62 41.906C383.844 41.5793 384.176 41.3227 384.614 41.136C385.062 40.9493 385.622 40.856 386.294 40.856H388.044C388.044 40.5107 387.998 40.226 387.904 40.002C387.811 39.7687 387.666 39.596 387.47 39.484C387.274 39.372 387.013 39.316 386.686 39.316C386.332 39.316 386.028 39.3953 385.776 39.554C385.534 39.7033 385.384 39.9367 385.328 40.254H383.494C383.541 39.75 383.704 39.316 383.984 38.952C384.274 38.5787 384.652 38.2893 385.118 38.084C385.594 37.8787 386.122 37.776 386.7 37.776C387.363 37.776 387.937 37.888 388.422 38.112C388.908 38.336 389.281 38.658 389.542 39.078C389.804 39.498 389.934 40.016 389.934 40.632V45H388.338L388.128 43.922C388.026 44.1087 387.904 44.2767 387.764 44.426C387.624 44.5753 387.461 44.706 387.274 44.818C387.088 44.93 386.878 45.014 386.644 45.07C386.411 45.1353 386.154 45.168 385.874 45.168ZM386.322 43.712C386.565 43.712 386.78 43.67 386.966 43.586C387.162 43.4927 387.33 43.3713 387.47 43.222C387.61 43.0633 387.718 42.886 387.792 42.69C387.876 42.4847 387.932 42.2653 387.96 42.032V42.018H386.518C386.229 42.018 385.991 42.0553 385.804 42.13C385.627 42.1953 385.496 42.2933 385.412 42.424C385.328 42.5547 385.286 42.704 385.286 42.872C385.286 43.0587 385.328 43.2127 385.412 43.334C385.496 43.4553 385.618 43.5487 385.776 43.614C385.935 43.6793 386.117 43.712 386.322 43.712ZM395.034 45V35.2H401.474V36.726H396.924V39.288H401.054V40.758H396.924V43.474H401.474V45H395.034ZM406.57 45.168C405.861 45.168 405.231 45.0093 404.68 44.692C404.13 44.3747 403.7 43.9407 403.392 43.39C403.084 42.8393 402.93 42.2093 402.93 41.5C402.93 40.772 403.084 40.1327 403.392 39.582C403.7 39.022 404.13 38.5833 404.68 38.266C405.231 37.9393 405.861 37.776 406.57 37.776C407.476 37.776 408.236 38.014 408.852 38.49C409.468 38.966 409.86 39.6193 410.028 40.45H408.026C407.942 40.1233 407.765 39.8667 407.494 39.68C407.233 39.4933 406.92 39.4 406.556 39.4C406.23 39.4 405.936 39.484 405.674 39.652C405.422 39.8107 405.222 40.0487 405.072 40.366C404.932 40.674 404.862 41.0427 404.862 41.472C404.862 41.7987 404.904 42.0927 404.988 42.354C405.072 42.606 405.189 42.8253 405.338 43.012C405.488 43.1893 405.665 43.3247 405.87 43.418C406.085 43.5113 406.314 43.558 406.556 43.558C406.799 43.558 407.018 43.516 407.214 43.432C407.42 43.348 407.592 43.2313 407.732 43.082C407.872 42.9233 407.97 42.732 408.026 42.508H410.028C409.86 43.32 409.464 43.9687 408.838 44.454C408.222 44.93 407.466 45.168 406.57 45.168ZM414.99 45.168C414.318 45.168 413.712 45.014 413.17 44.706C412.638 44.3887 412.214 43.9547 411.896 43.404C411.588 42.844 411.434 42.2047 411.434 41.486C411.434 40.7487 411.588 40.1047 411.896 39.554C412.214 38.994 412.643 38.56 413.184 38.252C413.726 37.9347 414.332 37.776 415.004 37.776C415.686 37.776 416.292 37.9347 416.824 38.252C417.366 38.56 417.79 38.994 418.098 39.554C418.416 40.1047 418.574 40.744 418.574 41.472C418.574 42.2 418.416 42.844 418.098 43.404C417.79 43.9547 417.366 44.3887 416.824 44.706C416.283 45.014 415.672 45.168 414.99 45.168ZM414.99 43.53C415.308 43.53 415.588 43.4553 415.83 43.306C416.082 43.1567 416.278 42.928 416.418 42.62C416.568 42.312 416.642 41.9293 416.642 41.472C416.642 41.0147 416.568 40.6367 416.418 40.338C416.278 40.03 416.082 39.8013 415.83 39.652C415.588 39.4933 415.312 39.414 415.004 39.414C414.706 39.414 414.43 39.4933 414.178 39.652C413.926 39.8013 413.726 40.03 413.576 40.338C413.436 40.6367 413.366 41.0147 413.366 41.472C413.366 41.9293 413.436 42.312 413.576 42.62C413.726 42.928 413.922 43.1567 414.164 43.306C414.416 43.4553 414.692 43.53 414.99 43.53ZM423.087 45.168C422.443 45.168 421.883 45.0653 421.407 44.86C420.931 44.6547 420.558 44.37 420.287 44.006C420.017 43.642 419.863 43.2313 419.825 42.774H421.701C421.748 42.9513 421.827 43.1147 421.939 43.264C422.051 43.404 422.201 43.516 422.387 43.6C422.574 43.684 422.798 43.726 423.059 43.726C423.311 43.726 423.517 43.6933 423.675 43.628C423.834 43.5533 423.951 43.4553 424.025 43.334C424.109 43.2127 424.151 43.0867 424.151 42.956C424.151 42.76 424.095 42.6107 423.983 42.508C423.871 42.396 423.708 42.3073 423.493 42.242C423.279 42.1767 423.017 42.1113 422.709 42.046C422.373 41.9807 422.042 41.9013 421.715 41.808C421.398 41.7053 421.113 41.5793 420.861 41.43C420.609 41.2807 420.409 41.0893 420.259 40.856C420.11 40.6227 420.035 40.3333 420.035 39.988C420.035 39.568 420.147 39.1947 420.371 38.868C420.595 38.532 420.922 38.266 421.351 38.07C421.781 37.874 422.299 37.776 422.905 37.776C423.755 37.776 424.427 37.9673 424.921 38.35C425.416 38.7327 425.71 39.26 425.803 39.932H424.025C423.969 39.7173 423.843 39.5493 423.647 39.428C423.461 39.2973 423.209 39.232 422.891 39.232C422.555 39.232 422.299 39.2927 422.121 39.414C421.944 39.5353 421.855 39.694 421.855 39.89C421.855 40.0207 421.911 40.1373 422.023 40.24C422.145 40.3427 422.313 40.4313 422.527 40.506C422.742 40.5713 423.003 40.6367 423.311 40.702C423.853 40.814 424.329 40.9447 424.739 41.094C425.15 41.234 425.472 41.4393 425.705 41.71C425.939 41.9713 426.055 42.354 426.055 42.858C426.055 43.306 425.934 43.7073 425.691 44.062C425.449 44.4073 425.103 44.678 424.655 44.874C424.217 45.07 423.694 45.168 423.087 45.168ZM428.181 48.08L429.889 44.216H429.469L426.641 37.944H428.699L430.715 42.494L432.535 37.944H434.537L430.183 48.08H428.181ZM438.277 45.168C437.633 45.168 437.073 45.0653 436.597 44.86C436.121 44.6547 435.747 44.37 435.477 44.006C435.206 43.642 435.052 43.2313 435.015 42.774H436.891C436.937 42.9513 437.017 43.1147 437.129 43.264C437.241 43.404 437.39 43.516 437.577 43.6C437.763 43.684 437.987 43.726 438.249 43.726C438.501 43.726 438.706 43.6933 438.865 43.628C439.023 43.5533 439.14 43.4553 439.215 43.334C439.299 43.2127 439.341 43.0867 439.341 42.956C439.341 42.76 439.285 42.6107 439.173 42.508C439.061 42.396 438.897 42.3073 438.683 42.242C438.468 42.1767 438.207 42.1113 437.899 42.046C437.563 41.9807 437.231 41.9013 436.905 41.808C436.587 41.7053 436.303 41.5793 436.051 41.43C435.799 41.2807 435.598 41.0893 435.449 40.856C435.299 40.6227 435.225 40.3333 435.225 39.988C435.225 39.568 435.337 39.1947 435.561 38.868C435.785 38.532 436.111 38.266 436.541 38.07C436.97 37.874 437.488 37.776 438.095 37.776C438.944 37.776 439.616 37.9673 440.111 38.35C440.605 38.7327 440.899 39.26 440.993 39.932H439.215C439.159 39.7173 439.033 39.5493 438.837 39.428C438.65 39.2973 438.398 39.232 438.081 39.232C437.745 39.232 437.488 39.2927 437.311 39.414C437.133 39.5353 437.045 39.694 437.045 39.89C437.045 40.0207 437.101 40.1373 437.213 40.24C437.334 40.3427 437.502 40.4313 437.717 40.506C437.931 40.5713 438.193 40.6367 438.501 40.702C439.042 40.814 439.518 40.9447 439.929 41.094C440.339 41.234 440.661 41.4393 440.895 41.71C441.128 41.9713 441.245 42.354 441.245 42.858C441.245 43.306 441.123 43.7073 440.881 44.062C440.638 44.4073 440.293 44.678 439.845 44.874C439.406 45.07 438.883 45.168 438.277 45.168ZM445.803 45C445.309 45 444.875 44.9253 444.501 44.776C444.137 44.6173 443.853 44.3607 443.647 44.006C443.442 43.642 443.339 43.1473 443.339 42.522V39.526H442.135V37.944H443.339L443.549 36.026H445.229V37.944H447.091V39.526H445.229V42.55C445.229 42.8673 445.299 43.0867 445.439 43.208C445.579 43.3293 445.817 43.39 446.153 43.39H447.077V45H445.803ZM451.892 45.168C451.183 45.168 450.553 45.0187 450.002 44.72C449.461 44.412 449.036 43.9873 448.728 43.446C448.429 42.8953 448.28 42.2607 448.28 41.542C448.28 40.8047 448.429 40.156 448.728 39.596C449.036 39.0267 449.461 38.5833 450.002 38.266C450.543 37.9393 451.173 37.776 451.892 37.776C452.592 37.776 453.203 37.93 453.726 38.238C454.249 38.546 454.655 38.9613 454.944 39.484C455.233 40.0067 455.378 40.5993 455.378 41.262C455.378 41.3553 455.378 41.4627 455.378 41.584C455.378 41.696 455.369 41.8127 455.35 41.934H449.624V40.786H453.474C453.446 40.3287 453.283 39.9693 452.984 39.708C452.695 39.4467 452.331 39.316 451.892 39.316C451.575 39.316 451.281 39.3907 451.01 39.54C450.739 39.68 450.525 39.8993 450.366 40.198C450.217 40.4967 450.142 40.8747 450.142 41.332V41.738C450.142 42.1207 450.212 42.4567 450.352 42.746C450.501 43.026 450.707 43.2453 450.968 43.404C451.229 43.5533 451.533 43.628 451.878 43.628C452.223 43.628 452.508 43.5533 452.732 43.404C452.965 43.2547 453.138 43.0633 453.25 42.83H455.182C455.051 43.2687 454.832 43.6653 454.524 44.02C454.216 44.3747 453.838 44.6547 453.39 44.86C452.942 45.0653 452.443 45.168 451.892 45.168ZM456.926 45V37.944H458.592L458.746 38.882C458.97 38.546 459.264 38.28 459.628 38.084C460.001 37.8787 460.426 37.776 460.902 37.776C461.257 37.776 461.574 37.8227 461.854 37.916C462.134 38.0093 462.381 38.1447 462.596 38.322C462.82 38.4993 463.002 38.7233 463.142 38.994C463.403 38.6113 463.744 38.3127 464.164 38.098C464.584 37.8833 465.041 37.776 465.536 37.776C466.152 37.776 466.665 37.902 467.076 38.154C467.487 38.3967 467.795 38.7513 468 39.218C468.215 39.6847 468.322 40.2587 468.322 40.94V45H466.446V41.108C466.446 40.548 466.334 40.1187 466.11 39.82C465.895 39.5213 465.559 39.372 465.102 39.372C464.803 39.372 464.537 39.4467 464.304 39.596C464.071 39.7453 463.889 39.96 463.758 40.24C463.637 40.52 463.576 40.856 463.576 41.248V45H461.686V41.108C461.686 40.548 461.574 40.1187 461.35 39.82C461.126 39.5213 460.781 39.372 460.314 39.372C460.025 39.372 459.763 39.4467 459.53 39.596C459.306 39.7453 459.129 39.96 458.998 40.24C458.877 40.52 458.816 40.856 458.816 41.248V45H456.926Z" fill="#353945"/>
<path d="M506.966 45V35.2H509.22L512.216 41.318L515.184 35.2H517.438V45H515.548V38.42L512.958 43.628H511.46L508.856 38.42V45H506.966ZM522.712 45.168C522.003 45.168 521.373 45.0187 520.822 44.72C520.281 44.412 519.856 43.9873 519.548 43.446C519.25 42.8953 519.1 42.2607 519.1 41.542C519.1 40.8047 519.25 40.156 519.548 39.596C519.856 39.0267 520.281 38.5833 520.822 38.266C521.364 37.9393 521.994 37.776 522.712 37.776C523.412 37.776 524.024 37.93 524.546 38.238C525.069 38.546 525.475 38.9613 525.764 39.484C526.054 40.0067 526.198 40.5993 526.198 41.262C526.198 41.3553 526.198 41.4627 526.198 41.584C526.198 41.696 526.189 41.8127 526.17 41.934H520.444V40.786H524.294C524.266 40.3287 524.103 39.9693 523.804 39.708C523.515 39.4467 523.151 39.316 522.712 39.316C522.395 39.316 522.101 39.3907 521.83 39.54C521.56 39.68 521.345 39.8993 521.186 40.198C521.037 40.4967 520.962 40.8747 520.962 41.332V41.738C520.962 42.1207 521.032 42.4567 521.172 42.746C521.322 43.026 521.527 43.2453 521.788 43.404C522.05 43.5533 522.353 43.628 522.698 43.628C523.044 43.628 523.328 43.5533 523.552 43.404C523.786 43.2547 523.958 43.0633 524.07 42.83H526.002C525.872 43.2687 525.652 43.6653 525.344 44.02C525.036 44.3747 524.658 44.6547 524.21 44.86C523.762 45.0653 523.263 45.168 522.712 45.168ZM527.746 45V37.944H529.412L529.566 38.882C529.79 38.546 530.084 38.28 530.448 38.084C530.822 37.8787 531.246 37.776 531.722 37.776C532.077 37.776 532.394 37.8227 532.674 37.916C532.954 38.0093 533.202 38.1447 533.416 38.322C533.64 38.4993 533.822 38.7233 533.962 38.994C534.224 38.6113 534.564 38.3127 534.984 38.098C535.404 37.8833 535.862 37.776 536.356 37.776C536.972 37.776 537.486 37.902 537.896 38.154C538.307 38.3967 538.615 38.7513 538.82 39.218C539.035 39.6847 539.142 40.2587 539.142 40.94V45H537.266V41.108C537.266 40.548 537.154 40.1187 536.93 39.82C536.716 39.5213 536.38 39.372 535.922 39.372C535.624 39.372 535.358 39.4467 535.124 39.596C534.891 39.7453 534.709 39.96 534.578 40.24C534.457 40.52 534.396 40.856 534.396 41.248V45H532.506V41.108C532.506 40.548 532.394 40.1187 532.17 39.82C531.946 39.5213 531.601 39.372 531.134 39.372C530.845 39.372 530.584 39.4467 530.35 39.596C530.126 39.7453 529.949 39.96 529.818 40.24C529.697 40.52 529.636 40.856 529.636 41.248V45H527.746ZM544.314 45.168C543.605 45.168 542.975 45.0187 542.424 44.72C541.883 44.412 541.458 43.9873 541.15 43.446C540.851 42.8953 540.702 42.2607 540.702 41.542C540.702 40.8047 540.851 40.156 541.15 39.596C541.458 39.0267 541.883 38.5833 542.424 38.266C542.965 37.9393 543.595 37.776 544.314 37.776C545.014 37.776 545.625 37.93 546.148 38.238C546.671 38.546 547.077 38.9613 547.366 39.484C547.655 40.0067 547.8 40.5993 547.8 41.262C547.8 41.3553 547.8 41.4627 547.8 41.584C547.8 41.696 547.791 41.8127 547.772 41.934H542.046V40.786H545.896C545.868 40.3287 545.705 39.9693 545.406 39.708C545.117 39.4467 544.753 39.316 544.314 39.316C543.997 39.316 543.703 39.3907 543.432 39.54C543.161 39.68 542.947 39.8993 542.788 40.198C542.639 40.4967 542.564 40.8747 542.564 41.332V41.738C542.564 42.1207 542.634 42.4567 542.774 42.746C542.923 43.026 543.129 43.2453 543.39 43.404C543.651 43.5533 543.955 43.628 544.3 43.628C544.645 43.628 544.93 43.5533 545.154 43.404C545.387 43.2547 545.56 43.0633 545.672 42.83H547.604C547.473 43.2687 547.254 43.6653 546.946 44.02C546.638 44.3747 546.26 44.6547 545.812 44.86C545.364 45.0653 544.865 45.168 544.314 45.168ZM552.232 45.168C551.588 45.168 551.028 45.0653 550.552 44.86C550.076 44.6547 549.702 44.37 549.432 44.006C549.161 43.642 549.007 43.2313 548.97 42.774H550.846C550.892 42.9513 550.972 43.1147 551.084 43.264C551.196 43.404 551.345 43.516 551.532 43.6C551.718 43.684 551.942 43.726 552.204 43.726C552.456 43.726 552.661 43.6933 552.82 43.628C552.978 43.5533 553.095 43.4553 553.17 43.334C553.254 43.2127 553.296 43.0867 553.296 42.956C553.296 42.76 553.24 42.6107 553.128 42.508C553.016 42.396 552.852 42.3073 552.638 42.242C552.423 42.1767 552.162 42.1113 551.854 42.046C551.518 41.9807 551.186 41.9013 550.86 41.808C550.542 41.7053 550.258 41.5793 550.006 41.43C549.754 41.2807 549.553 41.0893 549.404 40.856C549.254 40.6227 549.18 40.3333 549.18 39.988C549.18 39.568 549.292 39.1947 549.516 38.868C549.74 38.532 550.066 38.266 550.496 38.07C550.925 37.874 551.443 37.776 552.05 37.776C552.899 37.776 553.571 37.9673 554.066 38.35C554.56 38.7327 554.854 39.26 554.948 39.932H553.17C553.114 39.7173 552.988 39.5493 552.792 39.428C552.605 39.2973 552.353 39.232 552.036 39.232C551.7 39.232 551.443 39.2927 551.266 39.414C551.088 39.5353 551 39.694 551 39.89C551 40.0207 551.056 40.1373 551.168 40.24C551.289 40.3427 551.457 40.4313 551.672 40.506C551.886 40.5713 552.148 40.6367 552.456 40.702C552.997 40.814 553.473 40.9447 553.884 41.094C554.294 41.234 554.616 41.4393 554.85 41.71C555.083 41.9713 555.2 42.354 555.2 42.858C555.2 43.306 555.078 43.7073 554.836 44.062C554.593 44.4073 554.248 44.678 553.8 44.874C553.361 45.07 552.838 45.168 552.232 45.168Z" fill="#353945"/>
<path d="M592.308 45L595.892 35.2H598.034L601.604 45H599.602L596.956 37.356L594.296 45H592.308ZM593.89 42.774L594.394 41.304H599.378L599.868 42.774H593.89ZM602.892 45V35.2H604.782V45H602.892ZM609.343 45L612.927 35.2H615.069L618.639 45H616.637L613.991 37.356L611.331 45H609.343ZM610.925 42.774L611.429 41.304H616.413L616.903 42.774H610.925ZM622.923 48.248C622.251 48.248 621.663 48.164 621.159 47.996C620.655 47.8373 620.263 47.59 619.983 47.254C619.712 46.9273 619.577 46.5213 619.577 46.036C619.577 45.7093 619.661 45.4013 619.829 45.112C619.997 44.8227 620.24 44.5613 620.557 44.328C620.884 44.0853 621.29 43.88 621.775 43.712L622.489 44.636C622.06 44.776 621.747 44.9487 621.551 45.154C621.364 45.3687 621.271 45.5973 621.271 45.84C621.271 46.0547 621.341 46.2367 621.481 46.386C621.63 46.5353 621.826 46.6427 622.069 46.708C622.321 46.7827 622.601 46.82 622.909 46.82C623.208 46.82 623.464 46.7827 623.679 46.708C623.903 46.6333 624.076 46.5213 624.197 46.372C624.328 46.232 624.393 46.064 624.393 45.868C624.393 45.616 624.304 45.4107 624.127 45.252C623.95 45.0933 623.595 44.9953 623.063 44.958C622.587 44.9207 622.162 44.8693 621.789 44.804C621.425 44.7293 621.103 44.6453 620.823 44.552C620.543 44.4493 620.305 44.3373 620.109 44.216C619.922 44.0947 619.768 43.9733 619.647 43.852V43.53L621.145 41.92L622.503 42.354L620.739 44.09L621.271 43.166C621.374 43.222 621.472 43.278 621.565 43.334C621.668 43.3807 621.794 43.4273 621.943 43.474C622.092 43.5113 622.288 43.5487 622.531 43.586C622.774 43.6233 623.082 43.656 623.455 43.684C624.071 43.74 624.575 43.8567 624.967 44.034C625.368 44.2113 625.662 44.4493 625.849 44.748C626.036 45.0373 626.129 45.3967 626.129 45.826C626.129 46.246 626.012 46.638 625.779 47.002C625.555 47.3753 625.205 47.674 624.729 47.898C624.253 48.1313 623.651 48.248 622.923 48.248ZM622.923 42.914C622.335 42.914 621.826 42.802 621.397 42.578C620.977 42.3447 620.65 42.0367 620.417 41.654C620.193 41.262 620.081 40.828 620.081 40.352C620.081 39.876 620.193 39.4467 620.417 39.064C620.65 38.672 620.977 38.3593 621.397 38.126C621.826 37.8927 622.335 37.776 622.923 37.776C623.52 37.776 624.029 37.8927 624.449 38.126C624.878 38.3593 625.205 38.672 625.429 39.064C625.653 39.4467 625.765 39.876 625.765 40.352C625.765 40.828 625.653 41.262 625.429 41.654C625.205 42.0367 624.878 42.3447 624.449 42.578C624.029 42.802 623.52 42.914 622.923 42.914ZM622.923 41.472C623.287 41.472 623.581 41.3787 623.805 41.192C624.029 41.0053 624.141 40.73 624.141 40.366C624.141 40.002 624.029 39.7267 623.805 39.54C623.581 39.344 623.287 39.246 622.923 39.246C622.568 39.246 622.274 39.344 622.041 39.54C621.817 39.7267 621.705 40.002 621.705 40.366C621.705 40.73 621.817 41.0053 622.041 41.192C622.274 41.3787 622.568 41.472 622.923 41.472ZM624.099 39.288L623.791 37.944H626.689V39.064L624.099 39.288ZM631.339 45.168C630.63 45.168 630 45.0187 629.449 44.72C628.908 44.412 628.483 43.9873 628.175 43.446C627.877 42.8953 627.727 42.2607 627.727 41.542C627.727 40.8047 627.877 40.156 628.175 39.596C628.483 39.0267 628.908 38.5833 629.449 38.266C629.991 37.9393 630.621 37.776 631.339 37.776C632.039 37.776 632.651 37.93 633.173 38.238C633.696 38.546 634.102 38.9613 634.391 39.484C634.681 40.0067 634.825 40.5993 634.825 41.262C634.825 41.3553 634.825 41.4627 634.825 41.584C634.825 41.696 634.816 41.8127 634.797 41.934H629.071V40.786H632.921C632.893 40.3287 632.73 39.9693 632.431 39.708C632.142 39.4467 631.778 39.316 631.339 39.316C631.022 39.316 630.728 39.3907 630.457 39.54C630.187 39.68 629.972 39.8993 629.813 40.198C629.664 40.4967 629.589 40.8747 629.589 41.332V41.738C629.589 42.1207 629.659 42.4567 629.799 42.746C629.949 43.026 630.154 43.2453 630.415 43.404C630.677 43.5533 630.98 43.628 631.325 43.628C631.671 43.628 631.955 43.5533 632.179 43.404C632.413 43.2547 632.585 43.0633 632.697 42.83H634.629C634.499 43.2687 634.279 43.6653 633.971 44.02C633.663 44.3747 633.285 44.6547 632.837 44.86C632.389 45.0653 631.89 45.168 631.339 45.168ZM636.373 45V37.944H638.039L638.179 39.092C638.394 38.7 638.697 38.3827 639.089 38.14C639.491 37.8973 639.967 37.776 640.517 37.776C641.105 37.776 641.6 37.8973 642.001 38.14C642.403 38.3827 642.706 38.7373 642.911 39.204C643.126 39.6707 643.233 40.2447 643.233 40.926V45H641.357V41.108C641.357 40.548 641.236 40.1187 640.993 39.82C640.76 39.5213 640.396 39.372 639.901 39.372C639.584 39.372 639.299 39.4467 639.047 39.596C638.805 39.7453 638.613 39.96 638.473 40.24C638.333 40.5107 638.263 40.842 638.263 41.234V45H636.373ZM648.192 45C647.697 45 647.263 44.9253 646.89 44.776C646.526 44.6173 646.241 44.3607 646.036 44.006C645.831 43.642 645.728 43.1473 645.728 42.522V39.526H644.524V37.944H645.728L645.938 36.026H647.618V37.944H649.48V39.526H647.618V42.55C647.618 42.8673 647.688 43.0867 647.828 43.208C647.968 43.3293 648.206 43.39 648.542 43.39H649.466V45H648.192ZM653.954 45.168C653.31 45.168 652.75 45.0653 652.274 44.86C651.798 44.6547 651.425 44.37 651.154 44.006C650.884 43.642 650.73 43.2313 650.692 42.774H652.568C652.615 42.9513 652.694 43.1147 652.806 43.264C652.918 43.404 653.068 43.516 653.254 43.6C653.441 43.684 653.665 43.726 653.926 43.726C654.178 43.726 654.384 43.6933 654.542 43.628C654.701 43.5533 654.818 43.4553 654.892 43.334C654.976 43.2127 655.018 43.0867 655.018 42.956C655.018 42.76 654.962 42.6107 654.85 42.508C654.738 42.396 654.575 42.3073 654.36 42.242C654.146 42.1767 653.884 42.1113 653.576 42.046C653.24 41.9807 652.909 41.9013 652.582 41.808C652.265 41.7053 651.98 41.5793 651.728 41.43C651.476 41.2807 651.276 41.0893 651.126 40.856C650.977 40.6227 650.902 40.3333 650.902 39.988C650.902 39.568 651.014 39.1947 651.238 38.868C651.462 38.532 651.789 38.266 652.218 38.07C652.648 37.874 653.166 37.776 653.772 37.776C654.622 37.776 655.294 37.9673 655.788 38.35C656.283 38.7327 656.577 39.26 656.67 39.932H654.892C654.836 39.7173 654.71 39.5493 654.514 39.428C654.328 39.2973 654.076 39.232 653.758 39.232C653.422 39.232 653.166 39.2927 652.988 39.414C652.811 39.5353 652.722 39.694 652.722 39.89C652.722 40.0207 652.778 40.1373 652.89 40.24C653.012 40.3427 653.18 40.4313 653.394 40.506C653.609 40.5713 653.87 40.6367 654.178 40.702C654.72 40.814 655.196 40.9447 655.606 41.094C656.017 41.234 656.339 41.4393 656.572 41.71C656.806 41.9713 656.922 42.354 656.922 42.858C656.922 43.306 656.801 43.7073 656.558 44.062C656.316 44.4073 655.97 44.678 655.522 44.874C655.084 45.07 654.561 45.168 653.954 45.168Z" fill="#353945"/>
<path d="M694.462 45L697.556 40.03L694.42 35.2H696.604L698.76 38.546L700.734 35.2H702.862L699.796 40.114L702.946 45H700.762L698.592 41.598L696.604 45H694.462ZM707.64 45V35.2H709.53V43.53H713.828V45H707.64ZM717.784 45.168C717.196 45.168 716.711 45.0747 716.328 44.888C715.946 44.692 715.661 44.4353 715.474 44.118C715.297 43.7913 715.208 43.432 715.208 43.04C715.208 42.6107 715.316 42.2327 715.53 41.906C715.754 41.5793 716.086 41.3227 716.524 41.136C716.972 40.9493 717.532 40.856 718.204 40.856H719.954C719.954 40.5107 719.908 40.226 719.814 40.002C719.721 39.7687 719.576 39.596 719.38 39.484C719.184 39.372 718.923 39.316 718.596 39.316C718.242 39.316 717.938 39.3953 717.686 39.554C717.444 39.7033 717.294 39.9367 717.238 40.254H715.404C715.451 39.75 715.614 39.316 715.894 38.952C716.184 38.5787 716.562 38.2893 717.028 38.084C717.504 37.8787 718.032 37.776 718.61 37.776C719.273 37.776 719.847 37.888 720.332 38.112C720.818 38.336 721.191 38.658 721.452 39.078C721.714 39.498 721.844 40.016 721.844 40.632V45H720.248L720.038 43.922C719.936 44.1087 719.814 44.2767 719.674 44.426C719.534 44.5753 719.371 44.706 719.184 44.818C718.998 44.93 718.788 45.014 718.554 45.07C718.321 45.1353 718.064 45.168 717.784 45.168ZM718.232 43.712C718.475 43.712 718.69 43.67 718.876 43.586C719.072 43.4927 719.24 43.3713 719.38 43.222C719.52 43.0633 719.628 42.886 719.702 42.69C719.786 42.4847 719.842 42.2653 719.87 42.032V42.018H718.428C718.139 42.018 717.901 42.0553 717.714 42.13C717.537 42.1953 717.406 42.2933 717.322 42.424C717.238 42.5547 717.196 42.704 717.196 42.872C717.196 43.0587 717.238 43.2127 717.322 43.334C717.406 43.4553 717.528 43.5487 717.686 43.614C717.845 43.6793 718.027 43.712 718.232 43.712ZM724.258 48.08L725.966 44.216H725.546L722.718 37.944H724.776L726.792 42.494L728.612 37.944H730.614L726.26 48.08H724.258ZM734.597 45.168C733.888 45.168 733.258 45.0187 732.707 44.72C732.166 44.412 731.741 43.9873 731.433 43.446C731.134 42.8953 730.985 42.2607 730.985 41.542C730.985 40.8047 731.134 40.156 731.433 39.596C731.741 39.0267 732.166 38.5833 732.707 38.266C733.248 37.9393 733.878 37.776 734.597 37.776C735.297 37.776 735.908 37.93 736.431 38.238C736.954 38.546 737.36 38.9613 737.649 39.484C737.938 40.0067 738.083 40.5993 738.083 41.262C738.083 41.3553 738.083 41.4627 738.083 41.584C738.083 41.696 738.074 41.8127 738.055 41.934H732.329V40.786H736.179C736.151 40.3287 735.988 39.9693 735.689 39.708C735.4 39.4467 735.036 39.316 734.597 39.316C734.28 39.316 733.986 39.3907 733.715 39.54C733.444 39.68 733.23 39.8993 733.071 40.198C732.922 40.4967 732.847 40.8747 732.847 41.332V41.738C732.847 42.1207 732.917 42.4567 733.057 42.746C733.206 43.026 733.412 43.2453 733.673 43.404C733.934 43.5533 734.238 43.628 734.583 43.628C734.928 43.628 735.213 43.5533 735.437 43.404C735.67 43.2547 735.843 43.0633 735.955 42.83H737.887C737.756 43.2687 737.537 43.6653 737.229 44.02C736.921 44.3747 736.543 44.6547 736.095 44.86C735.647 45.0653 735.148 45.168 734.597 45.168ZM739.631 45V37.944H741.311L741.493 39.246C741.661 38.938 741.871 38.6767 742.123 38.462C742.384 38.2473 742.678 38.0793 743.005 37.958C743.341 37.8367 743.71 37.776 744.111 37.776V39.778H743.467C743.187 39.778 742.926 39.8107 742.683 39.876C742.45 39.9413 742.244 40.0487 742.067 40.198C741.89 40.338 741.754 40.534 741.661 40.786C741.568 41.038 741.521 41.3553 741.521 41.738V45H739.631ZM748.696 45V35.2H755.136V36.726H750.586V39.288H754.716V40.758H750.586V43.474H755.136V45H748.696ZM760.233 45.168C759.523 45.168 758.893 45.0093 758.343 44.692C757.792 44.3747 757.363 43.9407 757.055 43.39C756.747 42.8393 756.593 42.2093 756.593 41.5C756.593 40.772 756.747 40.1327 757.055 39.582C757.363 39.022 757.792 38.5833 758.343 38.266C758.893 37.9393 759.523 37.776 760.233 37.776C761.138 37.776 761.899 38.014 762.515 38.49C763.131 38.966 763.523 39.6193 763.691 40.45H761.689C761.605 40.1233 761.427 39.8667 761.157 39.68C760.895 39.4933 760.583 39.4 760.219 39.4C759.892 39.4 759.598 39.484 759.337 39.652C759.085 39.8107 758.884 40.0487 758.735 40.366C758.595 40.674 758.525 41.0427 758.525 41.472C758.525 41.7987 758.567 42.0927 758.651 42.354C758.735 42.606 758.851 42.8253 759.001 43.012C759.15 43.1893 759.327 43.3247 759.533 43.418C759.747 43.5113 759.976 43.558 760.219 43.558C760.461 43.558 760.681 43.516 760.877 43.432C761.082 43.348 761.255 43.2313 761.395 43.082C761.535 42.9233 761.633 42.732 761.689 42.508H763.691C763.523 43.32 763.126 43.9687 762.501 44.454C761.885 44.93 761.129 45.168 760.233 45.168ZM768.652 45.168C767.98 45.168 767.374 45.014 766.832 44.706C766.3 44.3887 765.876 43.9547 765.558 43.404C765.25 42.844 765.096 42.2047 765.096 41.486C765.096 40.7487 765.25 40.1047 765.558 39.554C765.876 38.994 766.305 38.56 766.846 38.252C767.388 37.9347 767.994 37.776 768.666 37.776C769.348 37.776 769.954 37.9347 770.486 38.252C771.028 38.56 771.452 38.994 771.76 39.554C772.078 40.1047 772.236 40.744 772.236 41.472C772.236 42.2 772.078 42.844 771.76 43.404C771.452 43.9547 771.028 44.3887 770.486 44.706C769.945 45.014 769.334 45.168 768.652 45.168ZM768.652 43.53C768.97 43.53 769.25 43.4553 769.492 43.306C769.744 43.1567 769.94 42.928 770.08 42.62C770.23 42.312 770.304 41.9293 770.304 41.472C770.304 41.0147 770.23 40.6367 770.08 40.338C769.94 40.03 769.744 39.8013 769.492 39.652C769.25 39.4933 768.974 39.414 768.666 39.414C768.368 39.414 768.092 39.4933 767.84 39.652C767.588 39.8013 767.388 40.03 767.238 40.338C767.098 40.6367 767.028 41.0147 767.028 41.472C767.028 41.9293 767.098 42.312 767.238 42.62C767.388 42.928 767.584 43.1567 767.826 43.306C768.078 43.4553 768.354 43.53 768.652 43.53ZM776.749 45.168C776.105 45.168 775.545 45.0653 775.069 44.86C774.593 44.6547 774.22 44.37 773.949 44.006C773.679 43.642 773.525 43.2313 773.487 42.774H775.363C775.41 42.9513 775.489 43.1147 775.601 43.264C775.713 43.404 775.863 43.516 776.049 43.6C776.236 43.684 776.46 43.726 776.721 43.726C776.973 43.726 777.179 43.6933 777.337 43.628C777.496 43.5533 777.613 43.4553 777.687 43.334C777.771 43.2127 777.813 43.0867 777.813 42.956C777.813 42.76 777.757 42.6107 777.645 42.508C777.533 42.396 777.37 42.3073 777.155 42.242C776.941 42.1767 776.679 42.1113 776.371 42.046C776.035 41.9807 775.704 41.9013 775.377 41.808C775.06 41.7053 774.775 41.5793 774.523 41.43C774.271 41.2807 774.071 41.0893 773.921 40.856C773.772 40.6227 773.697 40.3333 773.697 39.988C773.697 39.568 773.809 39.1947 774.033 38.868C774.257 38.532 774.584 38.266 775.013 38.07C775.443 37.874 775.961 37.776 776.567 37.776C777.417 37.776 778.089 37.9673 778.583 38.35C779.078 38.7327 779.372 39.26 779.465 39.932H777.687C777.631 39.7173 777.505 39.5493 777.309 39.428C777.123 39.2973 776.871 39.232 776.553 39.232C776.217 39.232 775.961 39.2927 775.783 39.414C775.606 39.5353 775.517 39.694 775.517 39.89C775.517 40.0207 775.573 40.1373 775.685 40.24C775.807 40.3427 775.975 40.4313 776.189 40.506C776.404 40.5713 776.665 40.6367 776.973 40.702C777.515 40.814 777.991 40.9447 778.401 41.094C778.812 41.234 779.134 41.4393 779.367 41.71C779.601 41.9713 779.717 42.354 779.717 42.858C779.717 43.306 779.596 43.7073 779.353 44.062C779.111 44.4073 778.765 44.678 778.317 44.874C777.879 45.07 777.356 45.168 776.749 45.168ZM781.843 48.08L783.551 44.216H783.131L780.303 37.944H782.361L784.377 42.494L786.197 37.944H788.199L783.845 48.08H781.843ZM791.939 45.168C791.295 45.168 790.735 45.0653 790.259 44.86C789.783 44.6547 789.41 44.37 789.139 44.006C788.868 43.642 788.714 43.2313 788.677 42.774H790.553C790.6 42.9513 790.679 43.1147 790.791 43.264C790.903 43.404 791.052 43.516 791.239 43.6C791.426 43.684 791.65 43.726 791.911 43.726C792.163 43.726 792.368 43.6933 792.527 43.628C792.686 43.5533 792.802 43.4553 792.877 43.334C792.961 43.2127 793.003 43.0867 793.003 42.956C793.003 42.76 792.947 42.6107 792.835 42.508C792.723 42.396 792.56 42.3073 792.345 42.242C792.13 42.1767 791.869 42.1113 791.561 42.046C791.225 41.9807 790.894 41.9013 790.567 41.808C790.25 41.7053 789.965 41.5793 789.713 41.43C789.461 41.2807 789.26 41.0893 789.111 40.856C788.962 40.6227 788.887 40.3333 788.887 39.988C788.887 39.568 788.999 39.1947 789.223 38.868C789.447 38.532 789.774 38.266 790.203 38.07C790.632 37.874 791.15 37.776 791.757 37.776C792.606 37.776 793.278 37.9673 793.773 38.35C794.268 38.7327 794.562 39.26 794.655 39.932H792.877C792.821 39.7173 792.695 39.5493 792.499 39.428C792.312 39.2973 792.06 39.232 791.743 39.232C791.407 39.232 791.15 39.2927 790.973 39.414C790.796 39.5353 790.707 39.694 790.707 39.89C790.707 40.0207 790.763 40.1373 790.875 40.24C790.996 40.3427 791.164 40.4313 791.379 40.506C791.594 40.5713 791.855 40.6367 792.163 40.702C792.704 40.814 793.18 40.9447 793.591 41.094C794.002 41.234 794.324 41.4393 794.557 41.71C794.79 41.9713 794.907 42.354 794.907 42.858C794.907 43.306 794.786 43.7073 794.543 44.062C794.3 44.4073 793.955 44.678 793.507 44.874C793.068 45.07 792.546 45.168 791.939 45.168ZM799.465 45C798.971 45 798.537 44.9253 798.163 44.776C797.799 44.6173 797.515 44.3607 797.309 44.006C797.104 43.642 797.001 43.1473 797.001 42.522V39.526H795.797V37.944H797.001L797.211 36.026H798.891V37.944H800.753V39.526H798.891V42.55C798.891 42.8673 798.961 43.0867 799.101 43.208C799.241 43.3293 799.479 43.39 799.815 43.39H800.739V45H799.465ZM805.554 45.168C804.845 45.168 804.215 45.0187 803.664 44.72C803.123 44.412 802.698 43.9873 802.39 43.446C802.092 42.8953 801.942 42.2607 801.942 41.542C801.942 40.8047 802.092 40.156 802.39 39.596C802.698 39.0267 803.123 38.5833 803.664 38.266C804.206 37.9393 804.836 37.776 805.554 37.776C806.254 37.776 806.866 37.93 807.388 38.238C807.911 38.546 808.317 38.9613 808.606 39.484C808.896 40.0067 809.04 40.5993 809.04 41.262C809.04 41.3553 809.04 41.4627 809.04 41.584C809.04 41.696 809.031 41.8127 809.012 41.934H803.286V40.786H807.136C807.108 40.3287 806.945 39.9693 806.646 39.708C806.357 39.4467 805.993 39.316 805.554 39.316C805.237 39.316 804.943 39.3907 804.672 39.54C804.402 39.68 804.187 39.8993 804.028 40.198C803.879 40.4967 803.804 40.8747 803.804 41.332V41.738C803.804 42.1207 803.874 42.4567 804.014 42.746C804.164 43.026 804.369 43.2453 804.63 43.404C804.892 43.5533 805.195 43.628 805.54 43.628C805.886 43.628 806.17 43.5533 806.394 43.404C806.628 43.2547 806.8 43.0633 806.912 42.83H808.844C808.714 43.2687 808.494 43.6653 808.186 44.02C807.878 44.3747 807.5 44.6547 807.052 44.86C806.604 45.0653 806.105 45.168 805.554 45.168ZM810.588 45V37.944H812.254L812.408 38.882C812.632 38.546 812.926 38.28 813.29 38.084C813.663 37.8787 814.088 37.776 814.564 37.776C814.919 37.776 815.236 37.8227 815.516 37.916C815.796 38.0093 816.043 38.1447 816.258 38.322C816.482 38.4993 816.664 38.7233 816.804 38.994C817.065 38.6113 817.406 38.3127 817.826 38.098C818.246 37.8833 818.703 37.776 819.198 37.776C819.814 37.776 820.327 37.902 820.738 38.154C821.149 38.3967 821.457 38.7513 821.662 39.218C821.877 39.6847 821.984 40.2587 821.984 40.94V45H820.108V41.108C820.108 40.548 819.996 40.1187 819.772 39.82C819.557 39.5213 819.221 39.372 818.764 39.372C818.465 39.372 818.199 39.4467 817.966 39.596C817.733 39.7453 817.551 39.96 817.42 40.24C817.299 40.52 817.238 40.856 817.238 41.248V45H815.348V41.108C815.348 40.548 815.236 40.1187 815.012 39.82C814.788 39.5213 814.443 39.372 813.976 39.372C813.687 39.372 813.425 39.4467 813.192 39.596C812.968 39.7453 812.791 39.96 812.66 40.24C812.539 40.52 812.478 40.856 812.478 41.248V45H810.588Z" fill="#353945"/>
<path d="M859.966 45V35.2H861.856V43.53H866.154V45H859.966ZM870.111 45.168C869.523 45.168 869.037 45.0747 868.655 44.888C868.272 44.692 867.987 44.4353 867.801 44.118C867.623 43.7913 867.535 43.432 867.535 43.04C867.535 42.6107 867.642 42.2327 867.857 41.906C868.081 41.5793 868.412 41.3227 868.851 41.136C869.299 40.9493 869.859 40.856 870.531 40.856H872.281C872.281 40.5107 872.234 40.226 872.141 40.002C872.047 39.7687 871.903 39.596 871.707 39.484C871.511 39.372 871.249 39.316 870.923 39.316C870.568 39.316 870.265 39.3953 870.013 39.554C869.77 39.7033 869.621 39.9367 869.565 40.254H867.731C867.777 39.75 867.941 39.316 868.221 38.952C868.51 38.5787 868.888 38.2893 869.355 38.084C869.831 37.8787 870.358 37.776 870.937 37.776C871.599 37.776 872.173 37.888 872.659 38.112C873.144 38.336 873.517 38.658 873.779 39.078C874.04 39.498 874.171 40.016 874.171 40.632V45H872.575L872.365 43.922C872.262 44.1087 872.141 44.2767 872.001 44.426C871.861 44.5753 871.697 44.706 871.511 44.818C871.324 44.93 871.114 45.014 870.881 45.07C870.647 45.1353 870.391 45.168 870.111 45.168ZM870.559 43.712C870.801 43.712 871.016 43.67 871.203 43.586C871.399 43.4927 871.567 43.3713 871.707 43.222C871.847 43.0633 871.954 42.886 872.029 42.69C872.113 42.4847 872.169 42.2653 872.197 42.032V42.018H870.755C870.465 42.018 870.227 42.0553 870.041 42.13C869.863 42.1953 869.733 42.2933 869.649 42.424C869.565 42.5547 869.523 42.704 869.523 42.872C869.523 43.0587 869.565 43.2127 869.649 43.334C869.733 43.4553 869.854 43.5487 870.013 43.614C870.171 43.6793 870.353 43.712 870.559 43.712ZM876.584 48.08L878.292 44.216H877.872L875.044 37.944H877.102L879.118 42.494L880.938 37.944H882.94L878.586 48.08H876.584ZM886.923 45.168C886.214 45.168 885.584 45.0187 885.033 44.72C884.492 44.412 884.067 43.9873 883.759 43.446C883.461 42.8953 883.311 42.2607 883.311 41.542C883.311 40.8047 883.461 40.156 883.759 39.596C884.067 39.0267 884.492 38.5833 885.033 38.266C885.575 37.9393 886.205 37.776 886.923 37.776C887.623 37.776 888.235 37.93 888.757 38.238C889.28 38.546 889.686 38.9613 889.975 39.484C890.265 40.0067 890.409 40.5993 890.409 41.262C890.409 41.3553 890.409 41.4627 890.409 41.584C890.409 41.696 890.4 41.8127 890.381 41.934H884.655V40.786H888.505C888.477 40.3287 888.314 39.9693 888.015 39.708C887.726 39.4467 887.362 39.316 886.923 39.316C886.606 39.316 886.312 39.3907 886.041 39.54C885.771 39.68 885.556 39.8993 885.397 40.198C885.248 40.4967 885.173 40.8747 885.173 41.332V41.738C885.173 42.1207 885.243 42.4567 885.383 42.746C885.533 43.026 885.738 43.2453 885.999 43.404C886.261 43.5533 886.564 43.628 886.909 43.628C887.255 43.628 887.539 43.5533 887.763 43.404C887.997 43.2547 888.169 43.0633 888.281 42.83H890.213C890.083 43.2687 889.863 43.6653 889.555 44.02C889.247 44.3747 888.869 44.6547 888.421 44.86C887.973 45.0653 887.474 45.168 886.923 45.168ZM891.957 45V37.944H893.637L893.819 39.246C893.987 38.938 894.197 38.6767 894.449 38.462C894.711 38.2473 895.005 38.0793 895.331 37.958C895.667 37.8367 896.036 37.776 896.437 37.776V39.778H895.793C895.513 39.778 895.252 39.8107 895.009 39.876C894.776 39.9413 894.571 40.0487 894.393 40.198C894.216 40.338 894.081 40.534 893.987 40.786C893.894 41.038 893.847 41.3553 893.847 41.738V45H891.957ZM900.757 45V43.614C901.354 43.138 901.933 42.662 902.493 42.186C903.062 41.71 903.571 41.2387 904.019 40.772C904.467 40.296 904.821 39.834 905.083 39.386C905.344 38.938 905.475 38.504 905.475 38.084C905.475 37.8227 905.428 37.5847 905.335 37.37C905.241 37.146 905.092 36.9687 904.887 36.838C904.691 36.698 904.429 36.628 904.103 36.628C903.776 36.628 903.501 36.7027 903.277 36.852C903.053 37.0013 902.885 37.202 902.773 37.454C902.661 37.6967 902.605 37.972 902.605 38.28H900.771C900.799 37.5613 900.962 36.9593 901.261 36.474C901.559 35.9887 901.961 35.6293 902.465 35.396C902.969 35.1533 903.533 35.032 904.159 35.032C904.849 35.032 905.433 35.1627 905.909 35.424C906.385 35.676 906.744 36.0213 906.987 36.46C907.239 36.8987 907.365 37.4027 907.365 37.972C907.365 38.4013 907.285 38.8213 907.127 39.232C906.977 39.6427 906.763 40.044 906.483 40.436C906.212 40.8187 905.904 41.1873 905.559 41.542C905.213 41.8967 904.854 42.2373 904.481 42.564C904.107 42.8813 903.743 43.18 903.389 43.46H907.603V45H900.757Z" fill="#353945"/>
<rect x="1131" y="21" width="131" height="38" rx="19" stroke="#E6E8EC" stroke-width="2"/>
<path d="M1147.35 45V35.2H1149.61L1152.6 41.318L1155.57 35.2H1157.82V45H1155.93V38.42L1153.34 43.628H1151.85L1149.24 38.42V45H1147.35ZM1162.09 45.168C1161.5 45.168 1161.02 45.0747 1160.63 44.888C1160.25 44.692 1159.97 44.4353 1159.78 44.118C1159.6 43.7913 1159.51 43.432 1159.51 43.04C1159.51 42.6107 1159.62 42.2327 1159.84 41.906C1160.06 41.5793 1160.39 41.3227 1160.83 41.136C1161.28 40.9493 1161.84 40.856 1162.51 40.856H1164.26C1164.26 40.5107 1164.21 40.226 1164.12 40.002C1164.03 39.7687 1163.88 39.596 1163.69 39.484C1163.49 39.372 1163.23 39.316 1162.9 39.316C1162.55 39.316 1162.24 39.3953 1161.99 39.554C1161.75 39.7033 1161.6 39.9367 1161.54 40.254H1159.71C1159.76 39.75 1159.92 39.316 1160.2 38.952C1160.49 38.5787 1160.87 38.2893 1161.33 38.084C1161.81 37.8787 1162.34 37.776 1162.92 37.776C1163.58 37.776 1164.15 37.888 1164.64 38.112C1165.12 38.336 1165.5 38.658 1165.76 39.078C1166.02 39.498 1166.15 40.016 1166.15 40.632V45H1164.55L1164.34 43.922C1164.24 44.1087 1164.12 44.2767 1163.98 44.426C1163.84 44.5753 1163.68 44.706 1163.49 44.818C1163.3 44.93 1163.09 45.014 1162.86 45.07C1162.63 45.1353 1162.37 45.168 1162.09 45.168ZM1162.54 43.712C1162.78 43.712 1163 43.67 1163.18 43.586C1163.38 43.4927 1163.55 43.3713 1163.69 43.222C1163.83 43.0633 1163.93 42.886 1164.01 42.69C1164.09 42.4847 1164.15 42.2653 1164.18 42.032V42.018H1162.73C1162.44 42.018 1162.21 42.0553 1162.02 42.13C1161.84 42.1953 1161.71 42.2933 1161.63 42.424C1161.54 42.5547 1161.5 42.704 1161.5 42.872C1161.5 43.0587 1161.54 43.2127 1161.63 43.334C1161.71 43.4553 1161.83 43.5487 1161.99 43.614C1162.15 43.6793 1162.33 43.712 1162.54 43.712ZM1167.91 45V37.944H1169.59L1169.78 39.246C1169.94 38.938 1170.15 38.6767 1170.41 38.462C1170.67 38.2473 1170.96 38.0793 1171.29 37.958C1171.62 37.8367 1171.99 37.776 1172.39 37.776V39.778H1171.75C1171.47 39.778 1171.21 39.8107 1170.97 39.876C1170.73 39.9413 1170.53 40.0487 1170.35 40.198C1170.17 40.338 1170.04 40.534 1169.94 40.786C1169.85 41.038 1169.8 41.3553 1169.8 41.738V45H1167.91ZM1178.26 45L1175.25 41.136L1177.95 37.944H1180.18L1176.69 41.934V40.436L1180.61 45H1178.26ZM1173.64 45V34.92H1175.53V45H1173.64ZM1184.54 45.168C1183.83 45.168 1183.2 45.0187 1182.65 44.72C1182.1 44.412 1181.68 43.9873 1181.37 43.446C1181.07 42.8953 1180.92 42.2607 1180.92 41.542C1180.92 40.8047 1181.07 40.156 1181.37 39.596C1181.68 39.0267 1182.1 38.5833 1182.65 38.266C1183.19 37.9393 1183.82 37.776 1184.54 37.776C1185.24 37.776 1185.85 37.93 1186.37 38.238C1186.89 38.546 1187.3 38.9613 1187.59 39.484C1187.88 40.0067 1188.02 40.5993 1188.02 41.262C1188.02 41.3553 1188.02 41.4627 1188.02 41.584C1188.02 41.696 1188.01 41.8127 1187.99 41.934H1182.27V40.786H1186.12C1186.09 40.3287 1185.93 39.9693 1185.63 39.708C1185.34 39.4467 1184.97 39.316 1184.54 39.316C1184.22 39.316 1183.92 39.3907 1183.65 39.54C1183.38 39.68 1183.17 39.8993 1183.01 40.198C1182.86 40.4967 1182.79 40.8747 1182.79 41.332V41.738C1182.79 42.1207 1182.86 42.4567 1183 42.746C1183.14 43.026 1183.35 43.2453 1183.61 43.404C1183.87 43.5533 1184.18 43.628 1184.52 43.628C1184.87 43.628 1185.15 43.5533 1185.38 43.404C1185.61 43.2547 1185.78 43.0633 1185.89 42.83H1187.83C1187.69 43.2687 1187.48 43.6653 1187.17 44.02C1186.86 44.3747 1186.48 44.6547 1186.03 44.86C1185.59 45.0653 1185.09 45.168 1184.54 45.168ZM1192.65 45C1192.16 45 1191.72 44.9253 1191.35 44.776C1190.99 44.6173 1190.7 44.3607 1190.5 44.006C1190.29 43.642 1190.19 43.1473 1190.19 42.522V39.526H1188.98V37.944H1190.19L1190.4 36.026H1192.08V37.944H1193.94V39.526H1192.08V42.55C1192.08 42.8673 1192.15 43.0867 1192.29 43.208C1192.43 43.3293 1192.67 43.39 1193 43.39H1193.93V45H1192.65ZM1203.26 45.168C1202.28 45.168 1201.44 44.958 1200.73 44.538C1200.03 44.1087 1199.49 43.516 1199.11 42.76C1198.73 41.9947 1198.55 41.1127 1198.55 40.114C1198.55 39.1153 1198.73 38.2333 1199.11 37.468C1199.49 36.7027 1200.03 36.1053 1200.73 35.676C1201.44 35.2467 1202.28 35.032 1203.26 35.032C1204.45 35.032 1205.42 35.326 1206.18 35.914C1206.93 36.502 1207.4 37.3327 1207.59 38.406H1205.53C1205.41 37.8833 1205.15 37.4773 1204.76 37.188C1204.38 36.8893 1203.87 36.74 1203.25 36.74C1202.67 36.74 1202.17 36.88 1201.75 37.16C1201.34 37.4307 1201.02 37.818 1200.8 38.322C1200.58 38.8167 1200.46 39.414 1200.46 40.114C1200.46 40.8047 1200.58 41.402 1200.8 41.906C1201.02 42.41 1201.34 42.7973 1201.75 43.068C1202.17 43.3387 1202.67 43.474 1203.25 43.474C1203.87 43.474 1204.38 43.3387 1204.76 43.068C1205.14 42.788 1205.4 42.4007 1205.52 41.906H1207.59C1207.4 42.9233 1206.93 43.7213 1206.18 44.3C1205.42 44.8787 1204.45 45.168 1203.26 45.168ZM1211.54 45.168C1210.95 45.168 1210.47 45.0747 1210.09 44.888C1209.7 44.692 1209.42 44.4353 1209.23 44.118C1209.05 43.7913 1208.97 43.432 1208.97 43.04C1208.97 42.6107 1209.07 42.2327 1209.29 41.906C1209.51 41.5793 1209.84 41.3227 1210.28 41.136C1210.73 40.9493 1211.29 40.856 1211.96 40.856H1213.71C1213.71 40.5107 1213.66 40.226 1213.57 40.002C1213.48 39.7687 1213.33 39.596 1213.14 39.484C1212.94 39.372 1212.68 39.316 1212.35 39.316C1212 39.316 1211.7 39.3953 1211.44 39.554C1211.2 39.7033 1211.05 39.9367 1211 40.254H1209.16C1209.21 39.75 1209.37 39.316 1209.65 38.952C1209.94 38.5787 1210.32 38.2893 1210.79 38.084C1211.26 37.8787 1211.79 37.776 1212.37 37.776C1213.03 37.776 1213.6 37.888 1214.09 38.112C1214.57 38.336 1214.95 38.658 1215.21 39.078C1215.47 39.498 1215.6 40.016 1215.6 40.632V45H1214.01L1213.8 43.922C1213.69 44.1087 1213.57 44.2767 1213.43 44.426C1213.29 44.5753 1213.13 44.706 1212.94 44.818C1212.75 44.93 1212.54 45.014 1212.31 45.07C1212.08 45.1353 1211.82 45.168 1211.54 45.168ZM1211.99 43.712C1212.23 43.712 1212.45 43.67 1212.63 43.586C1212.83 43.4927 1213 43.3713 1213.14 43.222C1213.28 43.0633 1213.38 42.886 1213.46 42.69C1213.54 42.4847 1213.6 42.2653 1213.63 42.032V42.018H1212.19C1211.9 42.018 1211.66 42.0553 1211.47 42.13C1211.29 42.1953 1211.16 42.2933 1211.08 42.424C1211 42.5547 1210.95 42.704 1210.95 42.872C1210.95 43.0587 1211 43.2127 1211.08 43.334C1211.16 43.4553 1211.28 43.5487 1211.44 43.614C1211.6 43.6793 1211.78 43.712 1211.99 43.712ZM1217.36 48.08V37.944H1219.04L1219.25 38.924C1219.4 38.7187 1219.58 38.532 1219.79 38.364C1219.99 38.1867 1220.23 38.0467 1220.51 37.944C1220.8 37.832 1221.14 37.776 1221.52 37.776C1222.19 37.776 1222.77 37.9393 1223.27 38.266C1223.78 38.5927 1224.17 39.036 1224.46 39.596C1224.76 40.1467 1224.91 40.7767 1224.91 41.486C1224.91 42.1953 1224.76 42.83 1224.46 43.39C1224.16 43.9407 1223.76 44.3747 1223.26 44.692C1222.75 45.0093 1222.18 45.168 1221.54 45.168C1221.01 45.168 1220.56 45.0747 1220.18 44.888C1219.81 44.692 1219.5 44.426 1219.25 44.09V48.08H1217.36ZM1221.09 43.516C1221.46 43.516 1221.79 43.432 1222.07 43.264C1222.36 43.096 1222.58 42.858 1222.74 42.55C1222.9 42.242 1222.98 41.8873 1222.98 41.486C1222.98 41.0847 1222.9 40.73 1222.74 40.422C1222.58 40.1047 1222.36 39.862 1222.07 39.694C1221.79 39.5167 1221.46 39.428 1221.09 39.428C1220.72 39.428 1220.4 39.5167 1220.11 39.694C1219.83 39.862 1219.6 40.1 1219.44 40.408C1219.28 40.716 1219.2 41.0707 1219.2 41.472C1219.2 41.8733 1219.28 42.2327 1219.44 42.55C1219.6 42.858 1219.83 43.096 1220.11 43.264C1220.4 43.432 1220.72 43.516 1221.09 43.516Z" fill="#23262F"/>
<path fill-rule="evenodd" clip-rule="evenodd" d="M1246.71 37.5429C1246.32 37.1524 1245.68 37.1524 1245.29 37.5429L1242.5 40.3358L1239.71 37.5429C1239.32 37.1524 1238.68 37.1524 1238.29 37.5429C1237.9 37.9334 1237.9 38.5666 1238.29 38.9571L1241.79 42.4571C1242.18 42.8476 1242.82 42.8476 1243.21 42.4571L1246.71 38.9571C1247.1 38.5666 1247.1 37.9334 1246.71 37.5429Z" fill="#353945"/>
</svg>
