<svg width="366" height="132" viewBox="0 0 366 132" fill="none" xmlns="http://www.w3.org/2000/svg">
<rect width="365.4" height="132" rx="20" fill="white"/>
<g clip-path="url(#clip0_20_262)">
<path d="M44 60C52.8366 60 60 52.8366 60 44C60 35.1634 52.8366 28 44 28C35.1634 28 28 35.1634 28 44C28 52.8366 35.1634 60 44 60Z" fill="#F7931A"/>
<path d="M51.032 42.02C51.346 39.924 49.749 38.797 47.567 38.045L48.275 35.205L46.547 34.775L45.857 37.54C45.403 37.426 44.937 37.32 44.472 37.214L45.167 34.431L43.439 34L42.731 36.839C42.355 36.753 41.985 36.669 41.627 36.579L41.629 36.57L39.245 35.975L38.785 37.821C38.785 37.821 40.068 38.115 40.041 38.133C40.741 38.308 40.867 38.771 40.846 39.139L40.04 42.374C40.088 42.386 40.15 42.404 40.22 42.431L40.037 42.386L38.907 46.918C38.821 47.13 38.604 47.449 38.114 47.328C38.132 47.353 36.858 47.015 36.858 47.015L36 48.993L38.25 49.554C38.668 49.659 39.078 49.769 39.481 49.872L38.766 52.744L40.493 53.174L41.201 50.334C41.673 50.461 42.131 50.579 42.579 50.691L41.873 53.519L43.601 53.949L44.316 51.083C47.264 51.641 49.48 51.416 50.413 48.75C51.165 46.604 50.376 45.365 48.825 44.558C49.955 44.298 50.805 43.555 51.032 42.02V42.02ZM47.082 47.558C46.549 49.705 42.934 48.544 41.762 48.253L42.712 44.448C43.884 44.741 47.641 45.32 47.082 47.558ZM47.617 41.989C47.13 43.942 44.122 42.949 43.147 42.706L44.007 39.256C44.982 39.499 48.125 39.952 47.617 41.989Z" fill="white"/>
</g>
<path d="M85.496 37.528C85.496 36.808 84.98 36.376 84.164 36.376H82.508V38.632H84.2C85.016 38.632 85.496 38.236 85.496 37.528ZM85.292 34.036C85.292 33.364 84.836 32.98 84.044 32.98H82.508V35.08H84.044C84.836 35.08 85.292 34.72 85.292 34.036ZM87.2 37.732C87.2 39.064 86.18 40 84.44 40H80.828V31.624H84.284C86.036 31.624 87.008 32.536 87.008 33.784C87.008 34.804 86.396 35.44 85.58 35.704C86.528 35.872 87.2 36.748 87.2 37.732ZM88.0949 32.98V31.624H94.2389V32.98H92.0069V40H90.3269V32.98H88.0949ZM95.0567 35.8C95.0567 33.292 96.8927 31.516 99.3047 31.516C101.165 31.516 102.677 32.512 103.241 34.228H101.309C100.913 33.424 100.193 33.028 99.2927 33.028C97.8287 33.028 96.7847 34.096 96.7847 35.8C96.7847 37.492 97.8287 38.572 99.2927 38.572C100.193 38.572 100.913 38.176 101.309 37.36H103.241C102.677 39.088 101.165 40.072 99.3047 40.072C96.8927 40.072 95.0567 38.308 95.0567 35.8ZM104.292 42.172L107.532 28.636H109.176L105.936 42.172H104.292ZM110.488 36.796V31.624H112.168V36.808C112.168 37.96 112.792 38.56 113.86 38.56C114.94 38.56 115.564 37.96 115.564 36.808V31.624H117.256V36.796C117.256 39.004 115.672 40.084 113.836 40.084C112 40.084 110.488 39.004 110.488 36.796ZM124.735 37.576C124.735 38.896 123.679 40.084 121.771 40.084C120.031 40.084 118.687 39.172 118.663 37.588H120.463C120.511 38.26 120.955 38.704 121.735 38.704C122.527 38.704 122.995 38.284 122.995 37.684C122.995 35.872 118.675 36.964 118.687 33.928C118.687 32.416 119.911 31.504 121.639 31.504C123.355 31.504 124.531 32.38 124.639 33.892H122.791C122.755 33.34 122.311 32.908 121.591 32.896C120.931 32.872 120.439 33.196 120.439 33.88C120.439 35.56 124.735 34.624 124.735 37.576ZM129.119 31.624C131.795 31.624 133.535 33.28 133.535 35.824C133.535 38.356 131.795 40 129.119 40H126.191V31.624H129.119ZM127.871 38.572H129.059C130.823 38.572 131.819 37.564 131.819 35.824C131.819 34.084 130.823 33.04 129.059 33.04H127.871V38.572ZM134.349 32.98V31.624H140.493V32.98H138.261V40H136.581V32.98H134.349Z" fill="#777E91"/>
<rect x="153" y="24" width="63" height="24" rx="12" fill="#58BD7D"/>
<path d="M164.252 32.668H165.836V34.996H168.104V36.46H165.836V38.788H164.252V36.46H161.984V34.996H164.252V32.668ZM169.746 33.556C169.83 31.936 170.982 31.048 172.662 31.048C174.462 31.048 175.422 32.068 175.422 33.364C175.422 34.456 174.738 35.128 174.102 35.344V35.392C174.99 35.668 175.578 36.388 175.578 37.576C175.578 39.004 174.57 40.06 172.734 40.06C171.006 40.06 169.698 39.196 169.626 37.36H171.258C171.294 38.116 171.798 38.656 172.698 38.656C173.538 38.656 173.97 38.128 173.97 37.432C173.97 36.448 173.346 36.088 172.098 36.088H171.75V34.708H172.098C173.082 34.708 173.802 34.432 173.802 33.568C173.802 32.884 173.382 32.476 172.614 32.476C171.798 32.476 171.45 33.004 171.39 33.556H169.746ZM178.862 39.1C178.862 39.652 178.43 40.084 177.842 40.084C177.23 40.084 176.798 39.652 176.798 39.1C176.798 38.548 177.23 38.116 177.842 38.116C178.43 38.116 178.862 38.548 178.862 39.1ZM180.047 33.556C180.131 31.936 181.283 31.048 182.963 31.048C184.763 31.048 185.723 32.068 185.723 33.364C185.723 34.456 185.039 35.128 184.403 35.344V35.392C185.291 35.668 185.879 36.388 185.879 37.576C185.879 39.004 184.871 40.06 183.035 40.06C181.307 40.06 179.999 39.196 179.927 37.36H181.559C181.595 38.116 182.099 38.656 182.999 38.656C183.839 38.656 184.271 38.128 184.271 37.432C184.271 36.448 183.647 36.088 182.399 36.088H182.051V34.708H182.399C183.383 34.708 184.103 34.432 184.103 33.568C184.103 32.884 183.683 32.476 182.915 32.476C182.099 32.476 181.751 33.004 181.691 33.556H180.047ZM193.302 33.436H191.742C191.586 32.788 191.238 32.428 190.482 32.428C189.39 32.428 188.886 33.244 188.862 35.26C189.258 34.6 190.05 34.24 190.902 34.24C192.462 34.24 193.554 35.272 193.554 37.096C193.554 38.788 192.51 40.024 190.638 40.024C188.046 40.024 187.398 38.2 187.398 35.488C187.398 32.632 188.322 31.048 190.542 31.048C192.33 31.048 193.17 32.2 193.302 33.436ZM190.518 35.62C189.738 35.62 189.018 36.076 189.018 37.072C189.018 38.008 189.57 38.596 190.554 38.596C191.418 38.596 191.958 38.032 191.958 37.132C191.958 36.232 191.49 35.62 190.518 35.62ZM194.69 33.4C194.69 32.152 195.506 31.456 196.598 31.456C197.69 31.456 198.506 32.152 198.506 33.4C198.506 34.66 197.69 35.356 196.598 35.356C195.506 35.356 194.69 34.66 194.69 33.4ZM196.586 32.464C196.178 32.464 195.926 32.74 195.926 33.4C195.926 34.06 196.178 34.348 196.586 34.348C197.006 34.348 197.27 34.06 197.27 33.4C197.27 32.74 197.006 32.464 196.586 32.464ZM196.046 40L200.75 31.6H202.394L197.678 40H196.046ZM199.958 38.188C199.958 36.928 200.774 36.244 201.866 36.244C202.946 36.244 203.75 36.928 203.75 38.188C203.75 39.46 202.946 40.144 201.866 40.144C200.774 40.144 199.958 39.46 199.958 38.188ZM201.854 37.252C201.434 37.252 201.17 37.528 201.17 38.188C201.17 38.86 201.434 39.136 201.854 39.136C202.262 39.136 202.526 38.86 202.526 38.188C202.526 37.528 202.262 37.252 201.854 37.252Z" fill="#FCFCFD"/>
<path d="M86.648 78.088V76.12C83.552 75.856 81.344 74.2 81.272 71.32H84.872C84.968 72.424 85.544 73.168 86.648 73.408V68.824C84.176 68.2 81.272 67.504 81.272 63.952C81.272 61.12 83.528 59.272 86.648 59.032V57.088H88.184V59.032C91.184 59.272 93.2 60.88 93.416 63.736H89.792C89.696 62.8 89.12 62.08 88.184 61.792V66.328C90.68 66.976 93.608 67.624 93.608 71.176C93.608 73.624 91.688 75.904 88.184 76.144V78.088H86.648ZM90.128 71.32C90.128 70.192 89.312 69.64 88.184 69.256V73.456C89.408 73.24 90.128 72.4 90.128 71.32ZM84.776 63.784C84.776 64.912 85.544 65.488 86.648 65.872V61.72C85.544 61.888 84.776 62.56 84.776 63.784ZM109.167 62.872H106.047C105.735 61.576 105.039 60.856 103.527 60.856C101.343 60.856 100.335 62.488 100.287 66.52C101.079 65.2 102.663 64.48 104.367 64.48C107.487 64.48 109.671 66.544 109.671 70.192C109.671 73.576 107.583 76.048 103.839 76.048C98.6551 76.048 97.3591 72.4 97.3591 66.976C97.3591 61.264 99.2071 58.096 103.647 58.096C107.223 58.096 108.903 60.4 109.167 62.872ZM103.599 67.24C102.039 67.24 100.599 68.152 100.599 70.144C100.599 72.016 101.703 73.192 103.671 73.192C105.399 73.192 106.479 72.064 106.479 70.264C106.479 68.464 105.543 67.24 103.599 67.24ZM124.519 62.872H121.399C121.087 61.576 120.391 60.856 118.879 60.856C116.695 60.856 115.687 62.488 115.639 66.52C116.431 65.2 118.015 64.48 119.719 64.48C122.839 64.48 125.023 66.544 125.023 70.192C125.023 73.576 122.935 76.048 119.191 76.048C114.007 76.048 112.711 72.4 112.711 66.976C112.711 61.264 114.559 58.096 118.999 58.096C122.575 58.096 124.255 60.4 124.519 62.872ZM118.951 67.24C117.391 67.24 115.951 68.152 115.951 70.144C115.951 72.016 117.055 73.192 119.023 73.192C120.751 73.192 121.831 72.064 121.831 70.264C121.831 68.464 120.895 67.24 118.951 67.24ZM126.694 79.456L128.302 72.304H131.854L128.878 79.456H126.694ZM133.795 67.024C133.795 61.96 135.331 58.168 140.275 58.168C145.219 58.168 146.755 61.96 146.755 67.024C146.755 72.136 145.219 75.952 140.275 75.952C135.331 75.952 133.795 72.136 133.795 67.024ZM143.443 67.024C143.443 64.024 143.107 61.288 140.275 61.288C137.443 61.288 137.107 64.024 137.107 67.024C137.107 70.144 137.443 72.832 140.275 72.832C143.107 72.832 143.443 70.144 143.443 67.024ZM149.359 63.112C149.527 59.872 151.831 58.096 155.191 58.096C158.791 58.096 160.711 60.136 160.711 62.728C160.711 64.912 159.343 66.256 158.071 66.688V66.784C159.847 67.336 161.023 68.776 161.023 71.152C161.023 74.008 159.007 76.12 155.335 76.12C151.879 76.12 149.263 74.392 149.119 70.72H152.383C152.455 72.232 153.463 73.312 155.263 73.312C156.943 73.312 157.807 72.256 157.807 70.864C157.807 68.896 156.559 68.176 154.063 68.176H153.367V65.416H154.063C156.031 65.416 157.471 64.864 157.471 63.136C157.471 61.768 156.631 60.952 155.095 60.952C153.463 60.952 152.767 62.008 152.647 63.112H149.359ZM164.59 58.456H175.438V61.408H167.662V65.512C168.31 64.72 169.63 64.096 171.094 64.096C175.174 64.096 176.566 67.168 176.566 69.88C176.566 73.456 174.502 76 170.518 76C166.75 76 164.59 73.912 164.302 71.056H167.566C167.854 72.28 168.838 73.168 170.47 73.168C172.438 73.168 173.326 71.776 173.326 69.928C173.326 67.96 172.342 66.88 170.446 66.88C169.054 66.88 168.166 67.648 167.806 68.728H164.59V58.456ZM183.036 74.2C183.036 75.304 182.172 76.168 180.996 76.168C179.772 76.168 178.908 75.304 178.908 74.2C178.908 73.096 179.772 72.232 180.996 72.232C182.172 72.232 183.036 73.096 183.036 74.2ZM186.27 58.456H197.118V61.408H189.342V65.512C189.99 64.72 191.31 64.096 192.774 64.096C196.854 64.096 198.246 67.168 198.246 69.88C198.246 73.456 196.182 76 192.198 76C188.43 76 186.27 73.912 185.982 71.056H189.246C189.534 72.28 190.518 73.168 192.15 73.168C194.118 73.168 195.006 71.776 195.006 69.928C195.006 67.96 194.022 66.88 192.126 66.88C190.734 66.88 189.846 67.648 189.486 68.728H186.27V58.456ZM200.851 63.112C201.019 59.872 203.323 58.096 206.683 58.096C210.283 58.096 212.203 60.136 212.203 62.728C212.203 64.912 210.835 66.256 209.563 66.688V66.784C211.339 67.336 212.515 68.776 212.515 71.152C212.515 74.008 210.499 76.12 206.827 76.12C203.371 76.12 200.755 74.392 200.611 70.72H203.875C203.947 72.232 204.955 73.312 206.755 73.312C208.435 73.312 209.299 72.256 209.299 70.864C209.299 68.896 208.051 68.176 205.555 68.176H204.859V65.416H205.555C207.523 65.416 208.963 64.864 208.963 63.136C208.963 61.768 208.123 60.952 206.587 60.952C204.955 60.952 204.259 62.008 204.139 63.112H200.851Z" fill="#23262F"/>
<path d="M83.204 103.044V102.072C81.764 101.94 80.756 101.1 80.732 99.828H81.896C81.956 100.452 82.352 101.04 83.204 101.172V98.172C82.004 97.86 80.72 97.512 80.72 95.856C80.72 94.56 81.704 93.636 83.204 93.54V92.544H83.852V93.54C85.22 93.66 86.096 94.464 86.216 95.676H85.052C84.98 95.16 84.584 94.62 83.852 94.464V97.392C85.04 97.692 86.324 98.04 86.324 99.708C86.324 100.824 85.484 101.964 83.852 102.072V103.044H83.204ZM85.232 99.768C85.232 98.916 84.62 98.58 83.852 98.352V101.184C84.74 101.088 85.232 100.488 85.232 99.768ZM81.836 95.796C81.836 96.648 82.436 96.972 83.204 97.212V94.44C82.4 94.512 81.836 94.944 81.836 95.796ZM88.1848 95.508C88.2928 94.02 89.4208 93.156 91.0288 93.156C92.7208 93.156 93.6448 94.14 93.6448 95.388C93.6448 96.384 93.0208 97.164 92.1088 97.368V97.428C93.1168 97.668 93.8008 98.412 93.8008 99.66C93.8008 101.004 92.8648 102.06 91.0528 102.06C89.4088 102.06 88.1848 101.184 88.0528 99.504H89.1088C89.2168 100.428 89.8888 101.136 91.0408 101.136C92.2048 101.136 92.7568 100.452 92.7568 99.564C92.7568 98.34 91.9048 97.872 90.3448 97.872H90.0688V96.96H90.3568C91.8088 96.948 92.5888 96.504 92.5888 95.496C92.5888 94.668 92.0368 94.092 90.9928 94.092C89.9728 94.092 89.3608 94.668 89.2528 95.508H88.1848ZM101.119 95.388H100.111C99.9433 94.548 99.4513 94.056 98.4673 94.056C97.0873 94.056 96.3433 95.004 96.3553 97.584C96.7273 96.732 97.6753 96.252 98.7073 96.252C100.327 96.252 101.419 97.32 101.419 99.144C101.419 100.728 100.483 102.024 98.5873 102.024C96.0193 102.024 95.4073 100.176 95.4073 97.548C95.4073 94.824 96.2833 93.144 98.4793 93.144C100.135 93.144 100.975 94.176 101.119 95.388ZM98.4793 97.176C97.4833 97.176 96.4873 97.764 96.4873 99.06C96.4873 100.212 97.1593 101.112 98.5273 101.112C99.6553 101.112 100.363 100.356 100.363 99.18C100.363 97.956 99.7273 97.176 98.4793 97.176ZM104.14 101.328C104.14 101.748 103.816 102.072 103.42 102.072C103 102.072 102.676 101.748 102.676 101.328C102.676 100.908 103 100.584 103.42 100.584C103.816 100.584 104.14 100.908 104.14 101.328ZM106.996 97.488C106.108 97.14 105.604 96.468 105.604 95.496C105.604 94.224 106.564 93.192 108.448 93.192C110.332 93.192 111.304 94.236 111.304 95.496C111.304 96.432 110.764 97.152 109.912 97.488C110.896 97.788 111.532 98.58 111.532 99.66C111.532 101.232 110.284 102.24 108.448 102.24C106.624 102.24 105.388 101.232 105.388 99.66C105.388 98.568 106.024 97.776 106.996 97.488ZM108.448 97.128C109.516 97.128 110.248 96.528 110.248 95.628C110.248 94.632 109.54 94.104 108.448 94.104C107.38 94.104 106.66 94.62 106.66 95.64C106.66 96.54 107.392 97.128 108.448 97.128ZM108.448 97.968C107.332 97.968 106.432 98.472 106.432 99.624C106.432 100.644 107.212 101.328 108.448 101.328C109.684 101.328 110.452 100.632 110.452 99.624C110.452 98.508 109.588 97.968 108.448 97.968ZM114.566 97.488C113.678 97.14 113.174 96.468 113.174 95.496C113.174 94.224 114.134 93.192 116.018 93.192C117.902 93.192 118.874 94.236 118.874 95.496C118.874 96.432 118.334 97.152 117.482 97.488C118.466 97.788 119.102 98.58 119.102 99.66C119.102 101.232 117.854 102.24 116.018 102.24C114.194 102.24 112.958 101.232 112.958 99.66C112.958 98.568 113.594 97.776 114.566 97.488ZM116.018 97.128C117.086 97.128 117.818 96.528 117.818 95.628C117.818 94.632 117.11 94.104 116.018 94.104C114.95 94.104 114.23 94.62 114.23 95.64C114.23 96.54 114.962 97.128 116.018 97.128ZM116.018 97.968C114.902 97.968 114.002 98.472 114.002 99.624C114.002 100.644 114.782 101.328 116.018 101.328C117.254 101.328 118.022 100.632 118.022 99.624C118.022 98.508 117.158 97.968 116.018 97.968ZM125.485 99.648C125.485 98.724 124.789 98.148 123.721 98.148H121.825V101.1H123.757C124.837 101.1 125.485 100.56 125.485 99.648ZM125.269 95.892C125.269 95.064 124.705 94.536 123.637 94.536H121.825V97.248H123.661C124.681 97.248 125.269 96.744 125.269 95.892ZM126.577 99.756C126.577 101.016 125.581 102 123.853 102H120.733V93.636H123.733C125.497 93.636 126.385 94.596 126.385 95.76C126.385 96.816 125.725 97.428 124.921 97.692C125.833 97.848 126.577 98.724 126.577 99.756ZM131.063 98.064V97.14H135.851V98.064H131.063ZM144.232 100.848L146.86 93.636H148.012L144.856 102H143.596L140.44 93.636H141.604L144.232 100.848ZM155.449 98.7C155.449 100.788 153.949 102.108 152.077 102.108C150.217 102.108 148.801 100.788 148.801 98.7C148.801 96.624 150.265 95.316 152.125 95.316C153.997 95.316 155.449 96.624 155.449 98.7ZM149.917 98.7C149.917 100.368 150.937 101.148 152.077 101.148C153.217 101.148 154.333 100.368 154.333 98.7C154.333 97.044 153.241 96.264 152.113 96.264C150.961 96.264 149.917 97.044 149.917 98.7ZM156.885 102V93.12H157.977V102H156.885ZM165.67 95.424V102H164.578V101.028C164.158 101.712 163.354 102.096 162.478 102.096C160.966 102.096 159.778 101.16 159.778 99.276V95.424H160.858V99.132C160.858 100.464 161.59 101.148 162.694 101.148C163.822 101.148 164.578 100.452 164.578 99.036V95.424H165.67ZM177.006 102V98.28C177.006 96.936 176.286 96.252 175.206 96.252C174.102 96.252 173.346 96.96 173.346 98.376V102H172.266V98.28C172.266 96.936 171.546 96.252 170.466 96.252C169.362 96.252 168.606 96.96 168.606 98.376V102H167.514V95.424H168.606V96.372C169.038 95.676 169.818 95.304 170.682 95.304C171.762 95.304 172.662 95.784 173.094 96.768C173.478 95.82 174.414 95.304 175.422 95.304C176.922 95.304 178.086 96.24 178.086 98.124V102H177.006ZM182.673 96.24C181.605 96.24 180.717 96.948 180.597 98.232H184.749C184.761 96.948 183.801 96.24 182.673 96.24ZM185.745 99.972C185.409 101.172 184.353 102.108 182.721 102.108C180.849 102.108 179.469 100.788 179.469 98.7C179.469 96.624 180.801 95.316 182.721 95.316C184.629 95.316 185.877 96.66 185.877 98.46C185.877 98.7 185.865 98.892 185.841 99.12H180.585C180.669 100.452 181.605 101.184 182.721 101.184C183.705 101.184 184.329 100.68 184.569 99.972H185.745ZM194.466 104.232H193.326C191.802 102.732 190.89 100.308 190.89 97.608C190.89 94.896 191.802 92.364 193.506 90.792H194.646V90.9C192.798 92.64 191.946 95.16 191.946 97.608C191.946 100.044 192.798 102.408 194.466 104.124V104.232ZM195.655 101.904V101.124C197.935 99.288 200.095 97.56 200.095 95.784C200.095 94.824 199.675 94.104 198.499 94.104C197.371 94.104 196.795 94.884 196.747 95.976H195.691C195.763 94.128 196.927 93.168 198.487 93.168C200.119 93.168 201.175 94.128 201.175 95.736C201.175 97.896 198.847 99.732 197.299 100.992H201.427V101.904H195.655ZM206.865 102V100.068H202.425V99.24L206.637 93.408H207.945V99.12H209.145V100.068H207.945V102H206.865ZM203.685 99.12H206.913V94.548L203.685 99.12ZM210.416 102V93.12H211.508V96.372C211.94 95.676 212.756 95.304 213.68 95.304C215.144 95.304 216.308 96.24 216.308 98.124V102H215.228V98.28C215.228 96.936 214.496 96.252 213.392 96.252C212.276 96.252 211.508 96.948 211.508 98.364V102H210.416ZM217.744 104.232V104.124C219.412 102.408 220.264 100.044 220.264 97.608C220.264 95.16 219.412 92.64 217.564 90.9V90.792H218.704C220.408 92.364 221.32 94.896 221.32 97.608C221.32 100.308 220.408 102.732 218.884 104.232H217.744Z" fill="#23262F"/>
<path d="M239 55.9999H241.853C242.326 55.9999 242.776 55.7901 243.08 55.4269L248.872 48.5057C248.931 48.4353 248.984 48.36 249.03 48.2806L253.143 41.1772C253.607 40.3766 254.651 40.1349 255.419 40.6503L263.704 46.2081C264.34 46.635 265.19 46.5508 265.73 46.0072L268.616 43.1036C269.18 42.5362 270.076 42.4724 270.715 42.9543L273.713 45.2176C274.142 45.5412 274.705 45.6281 275.211 45.4489L280.438 43.5999L285.408 41.2971C285.547 41.2327 285.676 41.1486 285.791 41.0474L290.947 36.518C291.546 35.9916 292.442 35.987 293.047 36.5073L297.178 40.0621C297.433 40.2817 297.751 40.4152 298.086 40.4436L303.547 40.9056H310.201C310.704 40.9056 311.178 40.6691 311.48 40.2671L317.014 32.9066C317.067 32.8356 317.126 32.7692 317.191 32.708L325.313 24.9923C326.178 24.1709 327.605 24.5503 327.948 25.6927L330.767 35.0938C330.935 35.6527 331.394 36.076 331.964 36.1985L335.844 37.0315C336.539 37.1806 337.052 37.7694 337.104 38.4776L337.89 49.0842C337.952 49.9197 338.648 50.566 339.486 50.566H341" stroke="#58BD7D" stroke-width="1.6" stroke-linecap="round" stroke-linejoin="round"/>
<path d="M241.853 56H239L339.394 56.3937C340.28 56.3971 341 55.6798 341 54.7937V52.1215C341 51.2624 340.304 50.566 339.444 50.566C338.63 50.566 337.953 49.9377 337.893 49.1254L337.104 38.4776C337.052 37.7694 336.539 37.1806 335.844 37.0315L331.964 36.1985C331.394 36.076 330.935 35.6527 330.767 35.0938L327.948 25.6927C327.605 24.5503 326.178 24.1709 325.313 24.9923L317.191 32.708C317.126 32.7692 317.067 32.8356 317.014 32.9066L311.48 40.2671C311.178 40.6691 310.704 40.9056 310.201 40.9056H303.547L298.086 40.4436C297.751 40.4152 297.433 40.2817 297.178 40.0621L293.047 36.5073C292.442 35.987 291.546 35.9916 290.947 36.518L285.791 41.0474C285.676 41.1486 285.547 41.2327 285.408 41.2971L280.438 43.6L275.211 45.4489C274.705 45.6281 274.142 45.5412 273.713 45.2176L270.715 42.9543C270.076 42.4724 269.18 42.5362 268.616 43.1036L265.73 46.0072C265.19 46.5508 264.34 46.635 263.704 46.2081L255.419 40.6503C254.651 40.1349 253.607 40.3766 253.143 41.1772L249.03 48.2806C248.984 48.36 248.931 48.4353 248.872 48.5057L243.08 55.4269C242.776 55.7901 242.326 56 241.853 56Z" fill="url(#paint0_linear_20_262)"/>
<defs>
<linearGradient id="paint0_linear_20_262" x1="290.6" y1="-36.8302" x2="289.962" y2="55.9997" gradientUnits="userSpaceOnUse">
<stop stop-color="#45B36B"/>
<stop offset="1" stop-color="#45B36B" stop-opacity="0"/>
</linearGradient>
<clipPath id="clip0_20_262">
<rect width="32" height="32" fill="white" transform="translate(28 28)"/>
</clipPath>
</defs>
</svg>
