<svg width="864" height="72" viewBox="0 0 864 72" fill="none" xmlns="http://www.w3.org/2000/svg">
<rect width="864" height="72" rx="10" fill="white"/>
<path d="M33.9231 32V30.336H37.2511V42H35.4111V32H33.9231Z" fill="#777E91"/>
<g clip-path="url(#clip0_18_201)">
<path d="M109.25 52C118.087 52 125.25 44.8366 125.25 36C125.25 27.1634 118.087 20 109.25 20C100.413 20 93.25 27.1634 93.25 36C93.25 44.8366 100.413 52 109.25 52Z" fill="#F7931A"/>
<path d="M116.282 34.02C116.596 31.924 114.999 30.797 112.817 30.045L113.525 27.205L111.797 26.775L111.107 29.54C110.653 29.426 110.187 29.32 109.722 29.214L110.417 26.431L108.689 26L107.981 28.839C107.605 28.753 107.235 28.669 106.877 28.579L106.879 28.57L104.495 27.975L104.035 29.821C104.035 29.821 105.318 30.115 105.291 30.133C105.991 30.308 106.117 30.771 106.096 31.139L105.29 34.374C105.338 34.386 105.4 34.404 105.47 34.431L105.287 34.386L104.157 38.918C104.071 39.13 103.854 39.449 103.364 39.328C103.382 39.353 102.108 39.015 102.108 39.015L101.25 40.993L103.5 41.554C103.918 41.659 104.328 41.769 104.731 41.872L104.016 44.744L105.743 45.174L106.451 42.334C106.923 42.461 107.381 42.579 107.829 42.691L107.123 45.519L108.851 45.949L109.566 43.083C112.514 43.641 114.73 43.416 115.663 40.75C116.415 38.604 115.626 37.365 114.075 36.558C115.205 36.298 116.055 35.555 116.282 34.02V34.02ZM112.332 39.558C111.799 41.705 108.184 40.544 107.012 40.253L107.962 36.448C109.134 36.741 112.891 37.32 112.332 39.558ZM112.867 33.989C112.38 35.942 109.372 34.949 108.397 34.706L109.257 31.256C110.232 31.499 113.375 31.952 112.867 33.989Z" fill="white"/>
</g>
<path d="M152.402 36.288C152.999 36.3947 153.506 36.7093 153.922 37.232C154.338 37.7547 154.546 38.3467 154.546 39.008C154.546 39.5733 154.397 40.0853 154.098 40.544C153.81 40.992 153.389 41.3493 152.834 41.616C152.279 41.872 151.634 42 150.898 42H146.45V30.88H150.69C151.447 30.88 152.098 31.008 152.642 31.264C153.186 31.52 153.597 31.8667 153.874 32.304C154.151 32.7307 154.29 33.2107 154.29 33.744C154.29 34.384 154.119 34.9173 153.778 35.344C153.437 35.7707 152.978 36.0853 152.402 36.288ZM148.274 35.552H150.53C151.127 35.552 151.591 35.4187 151.922 35.152C152.263 34.8747 152.434 34.48 152.434 33.968C152.434 33.4667 152.263 33.0773 151.922 32.8C151.591 32.512 151.127 32.368 150.53 32.368H148.274V35.552ZM150.738 40.512C151.357 40.512 151.842 40.3627 152.194 40.064C152.546 39.7653 152.722 39.3493 152.722 38.816C152.722 38.272 152.535 37.84 152.162 37.52C151.789 37.2 151.293 37.04 150.674 37.04H148.274V40.512H150.738ZM157.456 32.016C157.125 32.016 156.848 31.904 156.624 31.68C156.4 31.456 156.288 31.1787 156.288 30.848C156.288 30.5173 156.4 30.24 156.624 30.016C156.848 29.792 157.125 29.68 157.456 29.68C157.776 29.68 158.048 29.792 158.272 30.016C158.496 30.24 158.608 30.5173 158.608 30.848C158.608 31.1787 158.496 31.456 158.272 31.68C158.048 31.904 157.776 32.016 157.456 32.016ZM158.352 33.184V42H156.528V33.184H158.352ZM162.875 34.672V39.552C162.875 39.8827 162.95 40.1227 163.099 40.272C163.259 40.4107 163.526 40.48 163.899 40.48H165.019V42H163.579C162.758 42 162.128 41.808 161.691 41.424C161.254 41.04 161.035 40.416 161.035 39.552V34.672H159.995V33.184H161.035V30.992H162.875V33.184H165.019V34.672H162.875ZM166.092 37.584C166.092 36.6773 166.273 35.8827 166.636 35.2C167.009 34.5067 167.521 33.9733 168.172 33.6C168.823 33.2267 169.569 33.04 170.412 33.04C171.479 33.04 172.359 33.296 173.052 33.808C173.756 34.3093 174.231 35.0293 174.476 35.968H172.508C172.348 35.5307 172.092 35.1893 171.74 34.944C171.388 34.6987 170.945 34.576 170.412 34.576C169.665 34.576 169.068 34.8427 168.62 35.376C168.183 35.8987 167.964 36.6347 167.964 37.584C167.964 38.5333 168.183 39.2747 168.62 39.808C169.068 40.3413 169.665 40.608 170.412 40.608C171.468 40.608 172.167 40.144 172.508 39.216H174.476C174.22 40.112 173.74 40.8267 173.036 41.36C172.332 41.8827 171.457 42.144 170.412 42.144C169.569 42.144 168.823 41.9573 168.172 41.584C167.521 41.2 167.009 40.6667 166.636 39.984C166.273 39.2907 166.092 38.4907 166.092 37.584ZM180.118 42.144C179.286 42.144 178.534 41.9573 177.862 41.584C177.19 41.2 176.662 40.6667 176.278 39.984C175.894 39.2907 175.702 38.4907 175.702 37.584C175.702 36.688 175.899 35.8933 176.294 35.2C176.688 34.5067 177.227 33.9733 177.91 33.6C178.592 33.2267 179.355 33.04 180.198 33.04C181.04 33.04 181.803 33.2267 182.486 33.6C183.168 33.9733 183.707 34.5067 184.102 35.2C184.496 35.8933 184.694 36.688 184.694 37.584C184.694 38.48 184.491 39.2747 184.086 39.968C183.68 40.6613 183.126 41.2 182.422 41.584C181.728 41.9573 180.96 42.144 180.118 42.144ZM180.118 40.56C180.587 40.56 181.024 40.448 181.43 40.224C181.846 40 182.182 39.664 182.438 39.216C182.694 38.768 182.822 38.224 182.822 37.584C182.822 36.944 182.699 36.4053 182.454 35.968C182.208 35.52 181.883 35.184 181.478 34.96C181.072 34.736 180.635 34.624 180.166 34.624C179.696 34.624 179.259 34.736 178.854 34.96C178.459 35.184 178.144 35.52 177.91 35.968C177.675 36.4053 177.558 36.944 177.558 37.584C177.558 38.5333 177.798 39.2693 178.278 39.792C178.768 40.304 179.382 40.56 180.118 40.56ZM187.425 32.016C187.094 32.016 186.817 31.904 186.593 31.68C186.369 31.456 186.257 31.1787 186.257 30.848C186.257 30.5173 186.369 30.24 186.593 30.016C186.817 29.792 187.094 29.68 187.425 29.68C187.745 29.68 188.017 29.792 188.241 30.016C188.465 30.24 188.577 30.5173 188.577 30.848C188.577 31.1787 188.465 31.456 188.241 31.68C188.017 31.904 187.745 32.016 187.425 32.016ZM188.321 33.184V42H186.497V33.184H188.321ZM195.164 33.04C195.857 33.04 196.476 33.184 197.02 33.472C197.574 33.76 198.006 34.1867 198.316 34.752C198.625 35.3173 198.78 36 198.78 36.8V42H196.972V37.072C196.972 36.2827 196.774 35.68 196.38 35.264C195.985 34.8373 195.446 34.624 194.764 34.624C194.081 34.624 193.537 34.8373 193.132 35.264C192.737 35.68 192.54 36.2827 192.54 37.072V42H190.716V33.184H192.54V34.192C192.838 33.8293 193.217 33.5467 193.676 33.344C194.145 33.1413 194.641 33.04 195.164 33.04Z" fill="#23262F"/>
<path d="M219.402 36.288C219.999 36.3947 220.506 36.7093 220.922 37.232C221.338 37.7547 221.546 38.3467 221.546 39.008C221.546 39.5733 221.397 40.0853 221.098 40.544C220.81 40.992 220.389 41.3493 219.834 41.616C219.279 41.872 218.634 42 217.898 42H213.45V30.88H217.69C218.447 30.88 219.098 31.008 219.642 31.264C220.186 31.52 220.597 31.8667 220.874 32.304C221.151 32.7307 221.29 33.2107 221.29 33.744C221.29 34.384 221.119 34.9173 220.778 35.344C220.437 35.7707 219.978 36.0853 219.402 36.288ZM215.274 35.552H217.53C218.127 35.552 218.591 35.4187 218.922 35.152C219.263 34.8747 219.434 34.48 219.434 33.968C219.434 33.4667 219.263 33.0773 218.922 32.8C218.591 32.512 218.127 32.368 217.53 32.368H215.274V35.552ZM217.738 40.512C218.357 40.512 218.842 40.3627 219.194 40.064C219.546 39.7653 219.722 39.3493 219.722 38.816C219.722 38.272 219.535 37.84 219.162 37.52C218.789 37.2 218.293 37.04 217.674 37.04H215.274V40.512H217.738ZM230.712 30.88V32.368H227.752V42H225.928V32.368H222.952V30.88H230.712ZM231.951 36.416C231.951 35.328 232.202 34.352 232.703 33.488C233.215 32.624 233.903 31.952 234.767 31.472C235.642 30.9813 236.597 30.736 237.631 30.736C238.815 30.736 239.866 31.0293 240.783 31.616C241.711 32.192 242.383 33.0133 242.799 34.08H240.607C240.319 33.4933 239.919 33.056 239.407 32.768C238.895 32.48 238.303 32.336 237.631 32.336C236.895 32.336 236.239 32.5013 235.663 32.832C235.087 33.1627 234.634 33.6373 234.303 34.256C233.983 34.8747 233.823 35.5947 233.823 36.416C233.823 37.2373 233.983 37.9573 234.303 38.576C234.634 39.1947 235.087 39.6747 235.663 40.016C236.239 40.3467 236.895 40.512 237.631 40.512C238.303 40.512 238.895 40.368 239.407 40.08C239.919 39.792 240.319 39.3547 240.607 38.768H242.799C242.383 39.8347 241.711 40.656 240.783 41.232C239.866 41.808 238.815 42.096 237.631 42.096C236.586 42.096 235.631 41.856 234.767 41.376C233.903 40.8853 233.215 40.208 232.703 39.344C232.202 38.48 231.951 37.504 231.951 36.416Z" fill="#B1B5C4"/>
<path d="M351.204 38.832C351.204 39.3653 351.071 39.8667 350.804 40.336C350.548 40.8053 350.164 41.2 349.652 41.52C349.151 41.84 348.553 42.032 347.86 42.096V43.392H346.82V42.096C345.817 42 345.007 41.6853 344.388 41.152C343.769 40.6187 343.46 39.9147 343.46 39.04H345.412C345.444 39.456 345.577 39.8027 345.812 40.08C346.047 40.3467 346.383 40.5173 346.82 40.592V37.072C346.105 36.8907 345.524 36.7093 345.076 36.528C344.628 36.336 344.244 36.0373 343.924 35.632C343.615 35.2267 343.46 34.672 343.46 33.968C343.46 33.0827 343.769 32.352 344.388 31.776C345.007 31.1893 345.817 30.848 346.82 30.752V29.456H347.86V30.752C348.799 30.8373 349.551 31.136 350.116 31.648C350.692 32.1493 351.017 32.8427 351.092 33.728H349.14C349.108 33.3973 348.98 33.104 348.756 32.848C348.532 32.5813 348.233 32.4 347.86 32.304V35.76C348.575 35.9307 349.156 36.112 349.604 36.304C350.052 36.4853 350.431 36.7787 350.74 37.184C351.049 37.5787 351.204 38.128 351.204 38.832ZM345.316 33.872C345.316 34.3093 345.444 34.6507 345.7 34.896C345.967 35.1413 346.34 35.3387 346.82 35.488V32.256C346.361 32.3093 345.993 32.4747 345.716 32.752C345.449 33.0293 345.316 33.4027 345.316 33.872ZM347.86 40.592C348.329 40.5173 348.697 40.3307 348.964 40.032C349.231 39.7227 349.364 39.3547 349.364 38.928C349.364 38.5013 349.231 38.1707 348.964 37.936C348.708 37.6907 348.34 37.4933 347.86 37.344V40.592ZM361.258 31.744L356.81 42H354.97L359.466 31.936H353.546V30.384H361.258V31.744ZM362.819 36.016C362.819 34.1707 363.129 32.7307 363.747 31.696C364.377 30.6507 365.454 30.128 366.979 30.128C368.505 30.128 369.577 30.6507 370.195 31.696C370.825 32.7307 371.139 34.1707 371.139 36.016C371.139 37.8827 370.825 39.344 370.195 40.4C369.577 41.4453 368.505 41.968 366.979 41.968C365.454 41.968 364.377 41.4453 363.747 40.4C363.129 39.344 362.819 37.8827 362.819 36.016ZM369.347 36.016C369.347 35.152 369.289 34.4213 369.171 33.824C369.065 33.2267 368.841 32.7413 368.499 32.368C368.158 31.984 367.651 31.792 366.979 31.792C366.307 31.792 365.801 31.984 365.459 32.368C365.118 32.7413 364.889 33.2267 364.771 33.824C364.665 34.4213 364.611 35.152 364.611 36.016C364.611 36.912 364.665 37.664 364.771 38.272C364.878 38.88 365.102 39.3707 365.443 39.744C365.795 40.1173 366.307 40.304 366.979 40.304C367.651 40.304 368.158 40.1173 368.499 39.744C368.851 39.3707 369.081 38.88 369.187 38.272C369.294 37.664 369.347 36.912 369.347 36.016ZM375.309 39.808L373.373 44.224H372.189L373.325 39.808H375.309ZM378.631 35.904C377.522 35.3493 376.967 34.4747 376.967 33.28C376.967 32.704 377.111 32.176 377.399 31.696C377.687 31.216 378.119 30.8373 378.695 30.56C379.271 30.272 379.975 30.128 380.807 30.128C381.628 30.128 382.327 30.272 382.903 30.56C383.49 30.8373 383.927 31.216 384.215 31.696C384.503 32.176 384.647 32.704 384.647 33.28C384.647 33.8773 384.492 34.4053 384.183 34.864C383.884 35.312 383.484 35.6587 382.983 35.904C383.591 36.128 384.071 36.496 384.423 37.008C384.775 37.5093 384.951 38.1013 384.951 38.784C384.951 39.4773 384.775 40.0907 384.423 40.624C384.071 41.1573 383.58 41.568 382.951 41.856C382.322 42.144 381.607 42.288 380.807 42.288C380.007 42.288 379.292 42.144 378.663 41.856C378.044 41.568 377.559 41.1573 377.207 40.624C376.855 40.0907 376.679 39.4773 376.679 38.784C376.679 38.0907 376.855 37.4933 377.207 36.992C377.559 36.4907 378.034 36.128 378.631 35.904ZM382.903 33.504C382.903 32.9067 382.716 32.448 382.343 32.128C381.97 31.808 381.458 31.648 380.807 31.648C380.167 31.648 379.66 31.808 379.287 32.128C378.914 32.448 378.727 32.912 378.727 33.52C378.727 34.0533 378.919 34.4907 379.303 34.832C379.698 35.1627 380.199 35.328 380.807 35.328C381.415 35.328 381.916 35.1573 382.311 34.816C382.706 34.4747 382.903 34.0373 382.903 33.504ZM380.807 36.704C380.103 36.704 379.527 36.88 379.079 37.232C378.642 37.5733 378.423 38.0693 378.423 38.72C378.423 39.328 378.636 39.824 379.063 40.208C379.49 40.5813 380.071 40.768 380.807 40.768C381.532 40.768 382.103 40.576 382.519 40.192C382.946 39.808 383.159 39.3173 383.159 38.72C383.159 38.08 382.94 37.584 382.503 37.232C382.076 36.88 381.511 36.704 380.807 36.704ZM393.138 33.04C393.021 32.5493 392.808 32.1813 392.498 31.936C392.189 31.6907 391.757 31.568 391.202 31.568C390.36 31.568 389.73 31.8933 389.314 32.544C388.898 33.184 388.68 34.2507 388.658 35.744C388.936 35.2747 389.341 34.912 389.874 34.656C390.408 34.4 390.984 34.272 391.602 34.272C392.306 34.272 392.925 34.4267 393.458 34.736C394.002 35.0347 394.424 35.472 394.722 36.048C395.032 36.624 395.186 37.312 395.186 38.112C395.186 38.8587 395.037 39.5253 394.738 40.112C394.45 40.6987 394.018 41.1627 393.442 41.504C392.866 41.8347 392.173 42 391.362 42C390.264 42 389.4 41.76 388.77 41.28C388.152 40.7893 387.714 40.1013 387.458 39.216C387.213 38.3307 387.09 37.2267 387.09 35.904C387.09 32 388.466 30.048 391.218 30.048C392.285 30.048 393.122 30.336 393.73 30.912C394.349 31.488 394.712 32.1973 394.818 33.04H393.138ZM391.202 35.808C390.552 35.808 389.997 36.0053 389.538 36.4C389.09 36.784 388.866 37.344 388.866 38.08C388.866 38.816 389.074 39.4027 389.49 39.84C389.917 40.2667 390.509 40.48 391.266 40.48C391.938 40.48 392.466 40.272 392.85 39.856C393.245 39.44 393.442 38.8853 393.442 38.192C393.442 37.4667 393.25 36.8907 392.866 36.464C392.493 36.0267 391.938 35.808 391.202 35.808ZM398.14 39.52C399.164 38.6347 399.969 37.9093 400.556 37.344C401.153 36.768 401.649 36.1707 402.044 35.552C402.439 34.9333 402.636 34.3147 402.636 33.696C402.636 33.056 402.481 32.5547 402.172 32.192C401.873 31.8293 401.399 31.648 400.748 31.648C400.119 31.648 399.628 31.8507 399.276 32.256C398.935 32.6507 398.753 33.184 398.732 33.856H396.972C397.004 32.64 397.367 31.712 398.06 31.072C398.764 30.4213 399.655 30.096 400.732 30.096C401.895 30.096 402.801 30.416 403.452 31.056C404.113 31.696 404.444 32.5493 404.444 33.616C404.444 34.384 404.247 35.1253 403.852 35.84C403.468 36.544 403.004 37.1787 402.46 37.744C401.927 38.2987 401.244 38.944 400.412 39.68L399.692 40.32H404.764V41.84H396.988V40.512L398.14 39.52ZM407.342 42.112C407.012 42.112 406.734 42 406.51 41.776C406.286 41.552 406.174 41.2747 406.174 40.944C406.174 40.6133 406.286 40.336 406.51 40.112C406.734 39.888 407.012 39.776 407.342 39.776C407.662 39.776 407.934 39.888 408.158 40.112C408.382 40.336 408.494 40.6133 408.494 40.944C408.494 41.2747 408.382 41.552 408.158 41.776C407.934 42 407.662 42.112 407.342 42.112ZM411.234 39.52C412.258 38.6347 413.063 37.9093 413.65 37.344C414.247 36.768 414.743 36.1707 415.138 35.552C415.532 34.9333 415.73 34.3147 415.73 33.696C415.73 33.056 415.575 32.5547 415.266 32.192C414.967 31.8293 414.492 31.648 413.842 31.648C413.212 31.648 412.722 31.8507 412.37 32.256C412.028 32.6507 411.847 33.184 411.826 33.856H410.066C410.098 32.64 410.46 31.712 411.154 31.072C411.858 30.4213 412.748 30.096 413.826 30.096C414.988 30.096 415.895 30.416 416.546 31.056C417.207 31.696 417.538 32.5493 417.538 33.616C417.538 34.384 417.34 35.1253 416.946 35.84C416.562 36.544 416.098 37.1787 415.554 37.744C415.02 38.2987 414.338 38.944 413.506 39.68L412.786 40.32H417.858V41.84H410.082V40.512L411.234 39.52ZM419.236 39.568V38.192L424.612 30.48H426.82V37.984H428.308V39.568H426.82V42H425.028V39.568H419.236ZM425.108 32.336L421.332 37.984H425.108V32.336Z" fill="#23262F"/>
<path d="M488.542 36.992H485.31V40.304H483.614V36.992H480.382V35.456H483.614V32.144H485.31V35.456H488.542V36.992ZM492.14 39.52C493.164 38.6347 493.969 37.9093 494.556 37.344C495.153 36.768 495.649 36.1707 496.044 35.552C496.439 34.9333 496.636 34.3147 496.636 33.696C496.636 33.056 496.481 32.5547 496.172 32.192C495.873 31.8293 495.399 31.648 494.748 31.648C494.119 31.648 493.628 31.8507 493.276 32.256C492.935 32.6507 492.753 33.184 492.732 33.856H490.972C491.004 32.64 491.367 31.712 492.06 31.072C492.764 30.4213 493.655 30.096 494.732 30.096C495.895 30.096 496.801 30.416 497.452 31.056C498.113 31.696 498.444 32.5493 498.444 33.616C498.444 34.384 498.247 35.1253 497.852 35.84C497.468 36.544 497.004 37.1787 496.46 37.744C495.927 38.2987 495.244 38.944 494.412 39.68L493.692 40.32H498.764V41.84H490.988V40.512L492.14 39.52ZM501.342 42.112C501.012 42.112 500.734 42 500.51 41.776C500.286 41.552 500.174 41.2747 500.174 40.944C500.174 40.6133 500.286 40.336 500.51 40.112C500.734 39.888 501.012 39.776 501.342 39.776C501.662 39.776 501.934 39.888 502.158 40.112C502.382 40.336 502.494 40.6133 502.494 40.944C502.494 41.2747 502.382 41.552 502.158 41.776C501.934 42 501.662 42.112 501.342 42.112ZM504.194 33.216C504.258 32.224 504.636 31.4507 505.33 30.896C506.034 30.3413 506.93 30.064 508.018 30.064C508.764 30.064 509.41 30.1973 509.954 30.464C510.498 30.7307 510.908 31.0933 511.186 31.552C511.463 32.0107 511.602 32.528 511.602 33.104C511.602 33.7653 511.426 34.3307 511.074 34.8C510.722 35.2693 510.3 35.584 509.81 35.744V35.808C510.439 36 510.93 36.352 511.282 36.864C511.634 37.3653 511.81 38.0107 511.81 38.8C511.81 39.4293 511.666 39.9893 511.378 40.48C511.09 40.9707 510.663 41.36 510.098 41.648C509.532 41.9253 508.855 42.064 508.066 42.064C506.914 42.064 505.964 41.7707 505.218 41.184C504.482 40.5867 504.087 39.7333 504.034 38.624H505.794C505.836 39.1893 506.055 39.6533 506.45 40.016C506.844 40.368 507.378 40.544 508.05 40.544C508.7 40.544 509.202 40.368 509.554 40.016C509.906 39.6533 510.082 39.1893 510.082 38.624C510.082 37.8773 509.842 37.3493 509.362 37.04C508.892 36.72 508.167 36.56 507.186 36.56H506.77V35.056H507.202C508.066 35.0453 508.722 34.9013 509.17 34.624C509.628 34.3467 509.858 33.9093 509.858 33.312C509.858 32.8 509.692 32.3947 509.362 32.096C509.031 31.7867 508.562 31.632 507.954 31.632C507.356 31.632 506.892 31.7867 506.562 32.096C506.231 32.3947 506.034 32.768 505.97 33.216H504.194ZM513.438 33.152C513.438 32.3733 513.662 31.7653 514.11 31.328C514.568 30.88 515.155 30.656 515.87 30.656C516.584 30.656 517.166 30.88 517.614 31.328C518.072 31.7653 518.302 32.3733 518.302 33.152C518.302 33.9307 518.072 34.544 517.614 34.992C517.166 35.44 516.584 35.664 515.87 35.664C515.155 35.664 514.568 35.44 514.11 34.992C513.662 34.544 513.438 33.9307 513.438 33.152ZM523.198 30.864L516.814 42H515.022L521.406 30.864H523.198ZM515.87 31.76C515.198 31.76 514.862 32.224 514.862 33.152C514.862 34.0907 515.198 34.56 515.87 34.56C516.19 34.56 516.435 34.448 516.606 34.224C516.787 33.9893 516.878 33.632 516.878 33.152C516.878 32.224 516.542 31.76 515.87 31.76ZM519.95 39.696C519.95 38.9173 520.174 38.3093 520.622 37.872C521.08 37.424 521.667 37.2 522.382 37.2C523.086 37.2 523.662 37.424 524.11 37.872C524.568 38.3093 524.798 38.9173 524.798 39.696C524.798 40.4747 524.568 41.088 524.11 41.536C523.662 41.984 523.086 42.208 522.382 42.208C521.667 42.208 521.08 41.984 520.622 41.536C520.174 41.088 519.95 40.4747 519.95 39.696ZM522.366 38.304C521.694 38.304 521.358 38.768 521.358 39.696C521.358 40.624 521.694 41.088 522.366 41.088C523.038 41.088 523.374 40.624 523.374 39.696C523.374 38.768 523.038 38.304 522.366 38.304Z" fill="#58BD7D"/>
<path d="M605.079 36.8297L597.321 54.7929C597.005 55.5256 596.283 56 595.485 56H726C727.105 56 728 55.1046 728 54V51.2075C728 50.103 727.105 49.2075 726 49.2075H725.313C724.516 49.2075 723.795 48.7344 723.478 48.0032L717.212 33.5532C716.953 32.9577 716.422 32.5246 715.787 32.3914L710.412 31.2645C709.892 31.1556 709.437 30.8444 709.147 30.3997L705.101 24.1974C704.258 22.905 702.331 23.0137 701.639 24.3927L696.444 34.7382C696.164 35.2956 695.64 35.6905 695.028 35.8061L688.637 37.0118C688.223 37.09 687.795 37.0352 687.413 36.8554L675.845 31.3985C675.428 31.2018 675.092 30.867 674.893 30.4507L668.857 17.7974C668.383 16.8034 667.195 16.3798 666.199 16.8496L660.72 19.4339C660.258 19.652 659.896 20.039 659.71 20.5152L654.708 33.3239C654.511 33.8284 654.118 34.2314 653.619 34.4408L647.431 37.0351C647.278 37.0995 647.133 37.1828 647 37.2832L640.367 42.2893C639.672 42.8137 638.717 42.8284 638.007 42.3255L634.137 39.5872C633.359 39.0372 632.302 39.1116 631.609 39.7651L627.526 43.6166C626.863 44.2422 625.861 44.3402 625.089 43.8548L612.488 35.9296C612.169 35.7291 611.8 35.6226 611.423 35.6226H606.915C606.117 35.6226 605.395 36.0971 605.079 36.8297Z" fill="url(#paint0_linear_18_201)"/>
<path d="M592 56H595.485C596.283 56 597.005 55.5256 597.321 54.7929L605.079 36.8297C605.395 36.0971 606.117 35.6226 606.915 35.6226H611.423C611.8 35.6226 612.169 35.7291 612.488 35.9296L625.089 43.8548C625.861 44.3402 626.863 44.2422 627.526 43.6166L631.609 39.7651C632.302 39.1116 633.359 39.0372 634.137 39.5872L638.007 42.3255C638.717 42.8284 639.672 42.8137 640.367 42.2893L647 37.2832C647.133 37.1828 647.278 37.0995 647.431 37.0351L653.619 34.4408C654.118 34.2314 654.511 33.8284 654.708 33.3239L659.71 20.5152C659.896 20.039 660.258 19.652 660.72 19.4339L666.199 16.8496C667.195 16.3798 668.383 16.8034 668.857 17.7974L674.893 30.4507C675.092 30.867 675.428 31.2018 675.845 31.3985L687.413 36.8554C687.795 37.0352 688.223 37.09 688.637 37.0118L695.028 35.8061C695.64 35.6905 696.164 35.2956 696.444 34.7382L701.639 24.3927C702.331 23.0137 704.258 22.905 705.101 24.1974L709.147 30.3997C709.437 30.8445 709.892 31.1556 710.412 31.2645L715.787 32.3914C716.422 32.5246 716.953 32.9577 717.212 33.5532L723.478 48.0032C723.795 48.7344 724.516 49.2075 725.313 49.2075H728" stroke="#58BD7D" stroke-width="2" stroke-linecap="round" stroke-linejoin="round"/>
<rect x="777" y="17" width="70" height="38" rx="19" stroke="#E6E8EC" stroke-width="2"/>
<path d="M795.248 41V32.726H792.378V31.2H799.98V32.726H797.124V41H795.248ZM800.621 41V33.944H802.301L802.483 35.246C802.651 34.938 802.861 34.6767 803.113 34.462C803.375 34.2473 803.669 34.0793 803.995 33.958C804.331 33.8367 804.7 33.776 805.101 33.776V35.778H804.457C804.177 35.778 803.916 35.8107 803.673 35.876C803.44 35.9413 803.235 36.0487 803.057 36.198C802.88 36.338 802.745 36.534 802.651 36.786C802.558 37.038 802.511 37.3553 802.511 37.738V41H800.621ZM808.73 41.168C808.142 41.168 807.656 41.0747 807.274 40.888C806.891 40.692 806.606 40.4353 806.42 40.118C806.242 39.7913 806.154 39.432 806.154 39.04C806.154 38.6107 806.261 38.2327 806.476 37.906C806.7 37.5793 807.031 37.3227 807.47 37.136C807.918 36.9493 808.478 36.856 809.15 36.856H810.9C810.9 36.5107 810.853 36.226 810.76 36.002C810.666 35.7687 810.522 35.596 810.326 35.484C810.13 35.372 809.868 35.316 809.542 35.316C809.187 35.316 808.884 35.3953 808.632 35.554C808.389 35.7033 808.24 35.9367 808.184 36.254H806.35C806.396 35.75 806.56 35.316 806.84 34.952C807.129 34.5787 807.507 34.2893 807.974 34.084C808.45 33.8787 808.977 33.776 809.556 33.776C810.218 33.776 810.792 33.888 811.278 34.112C811.763 34.336 812.136 34.658 812.398 35.078C812.659 35.498 812.79 36.016 812.79 36.632V41H811.194L810.984 39.922C810.881 40.1087 810.76 40.2767 810.62 40.426C810.48 40.5753 810.316 40.706 810.13 40.818C809.943 40.93 809.733 41.014 809.5 41.07C809.266 41.1353 809.01 41.168 808.73 41.168ZM809.178 39.712C809.42 39.712 809.635 39.67 809.822 39.586C810.018 39.4927 810.186 39.3713 810.326 39.222C810.466 39.0633 810.573 38.886 810.648 38.69C810.732 38.4847 810.788 38.2653 810.816 38.032V38.018H809.374C809.084 38.018 808.846 38.0553 808.66 38.13C808.482 38.1953 808.352 38.2933 808.268 38.424C808.184 38.5547 808.142 38.704 808.142 38.872C808.142 39.0587 808.184 39.2127 808.268 39.334C808.352 39.4553 808.473 39.5487 808.632 39.614C808.79 39.6793 808.972 39.712 809.178 39.712ZM817.689 41.168C817.045 41.168 816.466 41.0093 815.953 40.692C815.449 40.3747 815.052 39.936 814.763 39.376C814.474 38.816 814.329 38.186 814.329 37.486C814.329 36.7673 814.474 36.1327 814.763 35.582C815.062 35.022 815.468 34.5833 815.981 34.266C816.504 33.9393 817.087 33.776 817.731 33.776C818.235 33.776 818.678 33.8693 819.061 34.056C819.444 34.2427 819.752 34.5087 819.985 34.854V30.92H821.875V41H820.195L819.985 40.034C819.845 40.23 819.668 40.4167 819.453 40.594C819.248 40.7713 819 40.9113 818.711 41.014C818.422 41.1167 818.081 41.168 817.689 41.168ZM818.137 39.516C818.51 39.516 818.837 39.432 819.117 39.264C819.406 39.0867 819.63 38.844 819.789 38.536C819.948 38.228 820.027 37.8733 820.027 37.472C820.027 37.0707 819.948 36.716 819.789 36.408C819.63 36.1 819.406 35.862 819.117 35.694C818.837 35.5167 818.51 35.428 818.137 35.428C817.782 35.428 817.46 35.5167 817.171 35.694C816.882 35.862 816.653 36.1 816.485 36.408C816.326 36.716 816.247 37.066 816.247 37.458C816.247 37.8687 816.326 38.228 816.485 38.536C816.653 38.844 816.877 39.0867 817.157 39.264C817.446 39.432 817.773 39.516 818.137 39.516ZM827.115 41.168C826.405 41.168 825.775 41.0187 825.225 40.72C824.683 40.412 824.259 39.9873 823.951 39.446C823.652 38.8953 823.503 38.2607 823.503 37.542C823.503 36.8047 823.652 36.156 823.951 35.596C824.259 35.0267 824.683 34.5833 825.225 34.266C825.766 33.9393 826.396 33.776 827.115 33.776C827.815 33.776 828.426 33.93 828.949 34.238C829.471 34.546 829.877 34.9613 830.167 35.484C830.456 36.0067 830.601 36.5993 830.601 37.262C830.601 37.3553 830.601 37.4627 830.601 37.584C830.601 37.696 830.591 37.8127 830.573 37.934H824.847V36.786H828.697C828.669 36.3287 828.505 35.9693 828.207 35.708C827.917 35.4467 827.553 35.316 827.115 35.316C826.797 35.316 826.503 35.3907 826.233 35.54C825.962 35.68 825.747 35.8993 825.589 36.198C825.439 36.4967 825.365 36.8747 825.365 37.332V37.738C825.365 38.1207 825.435 38.4567 825.575 38.746C825.724 39.026 825.929 39.2453 826.191 39.404C826.452 39.5533 826.755 39.628 827.101 39.628C827.446 39.628 827.731 39.5533 827.955 39.404C828.188 39.2547 828.361 39.0633 828.473 38.83H830.405C830.274 39.2687 830.055 39.6653 829.747 40.02C829.439 40.3747 829.061 40.6547 828.613 40.86C828.165 41.0653 827.665 41.168 827.115 41.168Z" fill="#23262F"/>
<defs>
<linearGradient id="paint0_linear_18_201" x1="660.8" y1="-57.2076" x2="660.088" y2="56.0006" gradientUnits="userSpaceOnUse">
<stop stop-color="#45B36B"/>
<stop offset="1" stop-color="#45B36B" stop-opacity="0"/>
</linearGradient>
<clipPath id="clip0_18_201">
<rect width="32" height="32" fill="white" transform="translate(93.25 20)"/>
</clipPath>
</defs>
</svg>
