<svg width="372" height="319" viewBox="0 0 372 319" fill="none" xmlns="http://www.w3.org/2000/svg">
<rect width="372" height="319" rx="10" fill="white"/>
<g filter="url(#filter0_d_2_139)">
<rect x="18" y="18.5" width="26" height="26" rx="3" fill="white" shape-rendering="crispEdges"/>
<rect x="18.135" y="18.635" width="25.73" height="25.73" rx="2.865" stroke="#DCE4E8" stroke-width="0.27" shape-rendering="crispEdges"/>
<path d="M36.9067 29.08L32.2867 25.3867C31.5733 24.8133 30.42 24.8133 29.7133 25.38L25.0933 29.08C24.5733 29.4933 24.24 30.3667 24.3533 31.02L25.24 36.3267C25.4 37.2733 26.3067 38.04 27.2667 38.04H34.7333C35.6867 38.04 36.6 37.2667 36.76 36.3267L37.6467 31.02C37.7533 30.3667 37.42 29.4933 36.9067 29.08ZM31 33.8333C30.08 33.8333 29.3333 33.0867 29.3333 32.1667C29.3333 31.2467 30.08 30.5 31 30.5C31.92 30.5 32.6667 31.2467 32.6667 32.1667C32.6667 33.0867 31.92 33.8333 31 33.8333Z" fill="#D27219"/>
</g>
<path d="M55.0043 36.5V26.3182H56.8487V30.6286H61.5668V26.3182H63.4162V36.5H61.5668V32.1747H56.8487V36.5H55.0043ZM68.3937 36.6491C67.6479 36.6491 67.0016 36.4851 66.4547 36.157C65.9079 35.8288 65.4836 35.3698 65.182 34.7798C64.8837 34.1899 64.7346 33.5005 64.7346 32.7116C64.7346 31.9228 64.8837 31.2318 65.182 30.6385C65.4836 30.0452 65.9079 29.5845 66.4547 29.2564C67.0016 28.9283 67.6479 28.7642 68.3937 28.7642C69.1394 28.7642 69.7857 28.9283 70.3326 29.2564C70.8794 29.5845 71.302 30.0452 71.6003 30.6385C71.9019 31.2318 72.0527 31.9228 72.0527 32.7116C72.0527 33.5005 71.9019 34.1899 71.6003 34.7798C71.302 35.3698 70.8794 35.8288 70.3326 36.157C69.7857 36.4851 69.1394 36.6491 68.3937 36.6491ZM68.4036 35.2074C68.808 35.2074 69.146 35.0964 69.4178 34.8743C69.6896 34.6489 69.8918 34.3473 70.0243 33.9695C70.1602 33.5916 70.2282 33.1707 70.2282 32.7067C70.2282 32.2393 70.1602 31.8168 70.0243 31.4389C69.8918 31.0578 69.6896 30.7545 69.4178 30.5291C69.146 30.3037 68.808 30.1911 68.4036 30.1911C67.9893 30.1911 67.6446 30.3037 67.3695 30.5291C67.0977 30.7545 66.8939 31.0578 66.758 31.4389C66.6254 31.8168 66.5591 32.2393 66.5591 32.7067C66.5591 33.1707 66.6254 33.5916 66.758 33.9695C66.8939 34.3473 67.0977 34.6489 67.3695 34.8743C67.6446 35.0964 67.9893 35.2074 68.4036 35.2074ZM73.3003 36.5V28.8636H75.0453V30.1364H75.1248C75.264 29.6955 75.5027 29.3558 75.8407 29.1172C76.1821 28.8752 76.5716 28.7543 77.0091 28.7543C77.1085 28.7543 77.2195 28.7592 77.3422 28.7692C77.4681 28.7758 77.5725 28.7874 77.6554 28.804V30.4595C77.5791 30.433 77.4582 30.4098 77.2925 30.3899C77.13 30.3667 76.9726 30.3551 76.8201 30.3551C76.492 30.3551 76.197 30.4264 75.9352 30.5689C75.6767 30.7081 75.4728 30.902 75.3237 31.1506C75.1746 31.3991 75.1 31.6858 75.1 32.0107V36.5H73.3003ZM78.571 36.5V28.8636H80.3708V36.5H78.571ZM79.4759 27.7798C79.1908 27.7798 78.9456 27.6854 78.7401 27.4964C78.5346 27.3042 78.4318 27.0739 78.4318 26.8054C78.4318 26.5336 78.5346 26.3033 78.7401 26.1143C78.9456 25.9221 79.1908 25.826 79.4759 25.826C79.7642 25.826 80.0095 25.9221 80.2117 26.1143C80.4172 26.3033 80.5199 26.5336 80.5199 26.8054C80.5199 27.0739 80.4172 27.3042 80.2117 27.4964C80.0095 27.6854 79.7642 27.7798 79.4759 27.7798ZM81.842 36.5V35.3565L85.7795 30.4197V30.3551H81.9713V28.8636H87.9819V30.0916L84.2333 34.9439V35.0085H88.1112V36.5H81.842ZM92.635 36.6491C91.8892 36.6491 91.2429 36.4851 90.6961 36.157C90.1492 35.8288 89.7249 35.3698 89.4233 34.7798C89.125 34.1899 88.9759 33.5005 88.9759 32.7116C88.9759 31.9228 89.125 31.2318 89.4233 30.6385C89.7249 30.0452 90.1492 29.5845 90.6961 29.2564C91.2429 28.9283 91.8892 28.7642 92.635 28.7642C93.3807 28.7642 94.027 28.9283 94.5739 29.2564C95.1208 29.5845 95.5434 30.0452 95.8417 30.6385C96.1433 31.2318 96.2941 31.9228 96.2941 32.7116C96.2941 33.5005 96.1433 34.1899 95.8417 34.7798C95.5434 35.3698 95.1208 35.8288 94.5739 36.157C94.027 36.4851 93.3807 36.6491 92.635 36.6491ZM92.6449 35.2074C93.0493 35.2074 93.3873 35.0964 93.6591 34.8743C93.9309 34.6489 94.1331 34.3473 94.2657 33.9695C94.4015 33.5916 94.4695 33.1707 94.4695 32.7067C94.4695 32.2393 94.4015 31.8168 94.2657 31.4389C94.1331 31.0578 93.9309 30.7545 93.6591 30.5291C93.3873 30.3037 93.0493 30.1911 92.6449 30.1911C92.2306 30.1911 91.8859 30.3037 91.6108 30.5291C91.339 30.7545 91.1352 31.0578 90.9993 31.4389C90.8667 31.8168 90.8005 32.2393 90.8005 32.7067C90.8005 33.1707 90.8667 33.5916 90.9993 33.9695C91.1352 34.3473 91.339 34.6489 91.6108 34.8743C91.8859 35.0964 92.2306 35.2074 92.6449 35.2074ZM99.3413 32.0256V36.5H97.5416V28.8636H99.2618V30.1612H99.3512C99.5269 29.7337 99.807 29.3939 100.191 29.142C100.579 28.8902 101.058 28.7642 101.628 28.7642C102.155 28.7642 102.614 28.8769 103.005 29.1023C103.4 29.3277 103.705 29.6541 103.92 30.0817C104.139 30.5092 104.247 31.0279 104.243 31.6378V36.5H102.444V31.9162C102.444 31.4058 102.311 31.0064 102.046 30.718C101.784 30.4297 101.421 30.2855 100.957 30.2855C100.642 30.2855 100.362 30.3551 100.117 30.4943C99.8749 30.6302 99.6843 30.8274 99.5451 31.0859C99.4093 31.3445 99.3413 31.6577 99.3413 32.0256ZM109.606 28.8636V30.2557H105.216V28.8636H109.606ZM106.3 27.0341H108.1V34.2031C108.1 34.4451 108.136 34.6307 108.209 34.7599C108.285 34.8859 108.385 34.9721 108.507 35.0185C108.63 35.0649 108.766 35.0881 108.915 35.0881C109.028 35.0881 109.13 35.0798 109.223 35.0632C109.319 35.0466 109.392 35.0317 109.442 35.0185L109.745 36.4254C109.649 36.4586 109.512 36.495 109.333 36.5348C109.157 36.5746 108.942 36.5978 108.686 36.6044C108.236 36.6177 107.83 36.5497 107.468 36.4006C107.107 36.2481 106.82 36.0128 106.608 35.6946C106.399 35.3764 106.297 34.9787 106.3 34.5014V27.0341ZM113.029 36.6541C112.545 36.6541 112.109 36.5679 111.721 36.3956C111.337 36.2199 111.032 35.9614 110.806 35.62C110.584 35.2786 110.473 34.8577 110.473 34.3572C110.473 33.9264 110.553 33.5701 110.712 33.2884C110.871 33.0066 111.088 32.7812 111.363 32.6122C111.638 32.4432 111.948 32.3156 112.293 32.2294C112.641 32.1399 113 32.0753 113.372 32.0355C113.819 31.9891 114.182 31.9477 114.46 31.9112C114.739 31.8714 114.941 31.8118 115.067 31.7322C115.196 31.6494 115.261 31.5218 115.261 31.3494V31.3196C115.261 30.9451 115.15 30.6551 114.928 30.4496C114.706 30.2441 114.386 30.1413 113.968 30.1413C113.527 30.1413 113.178 30.2375 112.919 30.4297C112.664 30.6219 112.492 30.849 112.402 31.1108L110.722 30.8722C110.854 30.4081 111.073 30.0204 111.378 29.7088C111.683 29.3939 112.056 29.1586 112.497 29.0028C112.937 28.8438 113.425 28.7642 113.958 28.7642C114.326 28.7642 114.692 28.8073 115.057 28.8935C115.422 28.9796 115.755 29.1222 116.056 29.321C116.358 29.5166 116.6 29.7834 116.782 30.1214C116.968 30.4595 117.061 30.8821 117.061 31.3892V36.5H115.33V35.451H115.271C115.161 35.6631 115.007 35.862 114.808 36.0476C114.613 36.2299 114.366 36.3774 114.068 36.4901C113.773 36.5994 113.426 36.6541 113.029 36.6541ZM113.496 35.3317C113.857 35.3317 114.17 35.2604 114.436 35.1179C114.701 34.9721 114.905 34.7798 115.047 34.5412C115.193 34.3026 115.266 34.0424 115.266 33.7607V32.8608C115.21 32.9072 115.113 32.9503 114.978 32.9901C114.845 33.0298 114.696 33.0646 114.53 33.0945C114.364 33.1243 114.2 33.1508 114.038 33.174C113.875 33.1972 113.735 33.2171 113.615 33.2337C113.347 33.2701 113.107 33.3298 112.894 33.4126C112.682 33.4955 112.515 33.6115 112.392 33.7607C112.27 33.9065 112.208 34.0954 112.208 34.3274C112.208 34.6589 112.329 34.9091 112.571 35.0781C112.813 35.2472 113.121 35.3317 113.496 35.3317ZM120.39 26.3182V36.5H118.59V26.3182H120.39ZM125.233 36.5V26.3182H129.131C129.866 26.3182 130.478 26.4342 130.965 26.6662C131.456 26.8949 131.822 27.2081 132.064 27.6058C132.309 28.0036 132.432 28.4543 132.432 28.9581C132.432 29.3724 132.352 29.727 132.193 30.022C132.034 30.3137 131.82 30.5507 131.552 30.733C131.283 30.9152 130.983 31.0462 130.652 31.1257V31.2251C131.013 31.245 131.36 31.3561 131.691 31.5582C132.026 31.7571 132.299 32.0388 132.511 32.4034C132.723 32.768 132.829 33.2088 132.829 33.7259C132.829 34.2528 132.702 34.7268 132.447 35.1477C132.191 35.5653 131.807 35.8951 131.293 36.1371C130.779 36.379 130.133 36.5 129.354 36.5H125.233ZM127.077 34.9588H129.061C129.73 34.9588 130.213 34.8312 130.508 34.576C130.806 34.3175 130.955 33.986 130.955 33.5817C130.955 33.2801 130.881 33.0083 130.731 32.7663C130.582 32.5211 130.37 32.3288 130.095 32.1896C129.82 32.0471 129.492 31.9759 129.111 31.9759H127.077V34.9588ZM127.077 30.6484H128.902C129.22 30.6484 129.507 30.5904 129.762 30.4744C130.017 30.3551 130.218 30.1877 130.364 29.9723C130.513 29.7536 130.587 29.495 130.587 29.1967C130.587 28.8023 130.448 28.4775 130.17 28.2223C129.895 27.9671 129.485 27.8395 128.942 27.8395H127.077V30.6484ZM136.272 36.6541C135.788 36.6541 135.352 36.5679 134.964 36.3956C134.58 36.2199 134.275 35.9614 134.05 35.62C133.828 35.2786 133.717 34.8577 133.717 34.3572C133.717 33.9264 133.796 33.5701 133.955 33.2884C134.114 33.0066 134.331 32.7812 134.606 32.6122C134.882 32.4432 135.191 32.3156 135.536 32.2294C135.884 32.1399 136.244 32.0753 136.615 32.0355C137.062 31.9891 137.425 31.9477 137.704 31.9112C137.982 31.8714 138.184 31.8118 138.31 31.7322C138.44 31.6494 138.504 31.5218 138.504 31.3494V31.3196C138.504 30.9451 138.393 30.6551 138.171 30.4496C137.949 30.2441 137.629 30.1413 137.212 30.1413C136.771 30.1413 136.421 30.2375 136.163 30.4297C135.907 30.6219 135.735 30.849 135.646 31.1108L133.965 30.8722C134.098 30.4081 134.316 30.0204 134.621 29.7088C134.926 29.3939 135.299 29.1586 135.74 29.0028C136.181 28.8438 136.668 28.7642 137.202 28.7642C137.57 28.7642 137.936 28.8073 138.3 28.8935C138.665 28.9796 138.998 29.1222 139.3 29.321C139.601 29.5166 139.843 29.7834 140.025 30.1214C140.211 30.4595 140.304 30.8821 140.304 31.3892V36.5H138.574V35.451H138.514C138.405 35.6631 138.251 35.862 138.052 36.0476C137.856 36.2299 137.609 36.3774 137.311 36.4901C137.016 36.5994 136.67 36.6541 136.272 36.6541ZM136.739 35.3317C137.101 35.3317 137.414 35.2604 137.679 35.1179C137.944 34.9721 138.148 34.7798 138.29 34.5412C138.436 34.3026 138.509 34.0424 138.509 33.7607V32.8608C138.453 32.9072 138.357 32.9503 138.221 32.9901C138.088 33.0298 137.939 33.0646 137.773 33.0945C137.608 33.1243 137.444 33.1508 137.281 33.174C137.119 33.1972 136.978 33.2171 136.859 33.2337C136.59 33.2701 136.35 33.3298 136.138 33.4126C135.926 33.4955 135.758 33.6115 135.636 33.7607C135.513 33.9065 135.452 34.0954 135.452 34.3274C135.452 34.6589 135.573 34.9091 135.815 35.0781C136.056 35.2472 136.365 35.3317 136.739 35.3317ZM141.834 36.5V28.8636H143.579V30.1364H143.658C143.797 29.6955 144.036 29.3558 144.374 29.1172C144.715 28.8752 145.105 28.7543 145.542 28.7543C145.642 28.7543 145.753 28.7592 145.875 28.7692C146.001 28.7758 146.106 28.7874 146.189 28.804V30.4595C146.112 30.433 145.991 30.4098 145.826 30.3899C145.663 30.3667 145.506 30.3551 145.353 30.3551C145.025 30.3551 144.73 30.4264 144.468 30.5689C144.21 30.7081 144.006 30.902 143.857 31.1506C143.708 31.3991 143.633 31.6858 143.633 32.0107V36.5H141.834ZM159.092 29.7536H157.232C157.179 29.4486 157.082 29.1785 156.939 28.9432C156.797 28.7045 156.619 28.5024 156.407 28.3366C156.195 28.1709 155.953 28.0466 155.681 27.9638C155.413 27.8776 155.123 27.8345 154.811 27.8345C154.258 27.8345 153.767 27.9737 153.34 28.2521C152.912 28.5272 152.577 28.9316 152.335 29.4652C152.093 29.9955 151.972 30.6435 151.972 31.4091C151.972 32.188 152.093 32.8442 152.335 33.3778C152.581 33.9081 152.915 34.3092 153.34 34.581C153.767 34.8494 154.256 34.9837 154.806 34.9837C155.111 34.9837 155.396 34.9439 155.661 34.8643C155.93 34.7815 156.17 34.6605 156.382 34.5014C156.598 34.3423 156.778 34.1468 156.924 33.9148C157.073 33.6828 157.176 33.4176 157.232 33.1193L159.092 33.1293C159.022 33.6132 158.871 34.0672 158.639 34.4915C158.411 34.9157 158.111 35.2902 157.739 35.6151C157.368 35.9366 156.934 36.1884 156.437 36.3707C155.94 36.5497 155.388 36.6392 154.781 36.6392C153.886 36.6392 153.088 36.4321 152.385 36.0178C151.682 35.6035 151.129 35.0052 150.725 34.223C150.32 33.4408 150.118 32.5028 150.118 31.4091C150.118 30.312 150.322 29.3741 150.73 28.5952C151.137 27.813 151.692 27.2147 152.395 26.8004C153.098 26.3861 153.893 26.179 154.781 26.179C155.348 26.179 155.875 26.2585 156.362 26.4176C156.85 26.5767 157.284 26.8104 157.665 27.1186C158.046 27.4235 158.359 27.7981 158.605 28.2422C158.853 28.683 159.015 29.1868 159.092 29.7536ZM162.221 32.0256V36.5H160.421V26.3182H162.181V30.1612H162.271C162.45 29.7304 162.726 29.3906 163.101 29.142C163.479 28.8902 163.959 28.7642 164.543 28.7642C165.073 28.7642 165.535 28.8752 165.93 29.0973C166.324 29.3194 166.629 29.6442 166.845 30.0717C167.063 30.4993 167.173 31.0213 167.173 31.6378V36.5H165.373V31.9162C165.373 31.4025 165.24 31.0031 164.975 30.718C164.713 30.4297 164.346 30.2855 163.872 30.2855C163.553 30.2855 163.268 30.3551 163.016 30.4943C162.768 30.6302 162.572 30.8274 162.43 31.0859C162.291 31.3445 162.221 31.6577 162.221 32.0256ZM170.925 36.6541C170.441 36.6541 170.005 36.5679 169.617 36.3956C169.233 36.2199 168.928 35.9614 168.702 35.62C168.48 35.2786 168.369 34.8577 168.369 34.3572C168.369 33.9264 168.449 33.5701 168.608 33.2884C168.767 33.0066 168.984 32.7812 169.259 32.6122C169.534 32.4432 169.844 32.3156 170.189 32.2294C170.537 32.1399 170.896 32.0753 171.268 32.0355C171.715 31.9891 172.078 31.9477 172.356 31.9112C172.635 31.8714 172.837 31.8118 172.963 31.7322C173.092 31.6494 173.157 31.5218 173.157 31.3494V31.3196C173.157 30.9451 173.046 30.6551 172.824 30.4496C172.602 30.2441 172.282 30.1413 171.864 30.1413C171.423 30.1413 171.074 30.2375 170.815 30.4297C170.56 30.6219 170.388 30.849 170.298 31.1108L168.618 30.8722C168.75 30.4081 168.969 30.0204 169.274 29.7088C169.579 29.3939 169.952 29.1586 170.393 29.0028C170.834 28.8438 171.321 28.7642 171.854 28.7642C172.222 28.7642 172.588 28.8073 172.953 28.8935C173.318 28.9796 173.651 29.1222 173.952 29.321C174.254 29.5166 174.496 29.7834 174.678 30.1214C174.864 30.4595 174.957 30.8821 174.957 31.3892V36.5H173.227V35.451H173.167C173.057 35.6631 172.903 35.862 172.704 36.0476C172.509 36.2299 172.262 36.3774 171.964 36.4901C171.669 36.5994 171.322 36.6541 170.925 36.6541ZM171.392 35.3317C171.753 35.3317 172.066 35.2604 172.332 35.1179C172.597 34.9721 172.801 34.7798 172.943 34.5412C173.089 34.3026 173.162 34.0424 173.162 33.7607V32.8608C173.106 32.9072 173.009 32.9503 172.874 32.9901C172.741 33.0298 172.592 33.0646 172.426 33.0945C172.26 33.1243 172.096 33.1508 171.934 33.174C171.771 33.1972 171.631 33.2171 171.511 33.2337C171.243 33.2701 171.003 33.3298 170.79 33.4126C170.578 33.4955 170.411 33.6115 170.288 33.7607C170.166 33.9065 170.104 34.0954 170.104 34.3274C170.104 34.6589 170.225 34.9091 170.467 35.0781C170.709 35.2472 171.017 35.3317 171.392 35.3317ZM176.486 36.5V28.8636H178.231V30.1364H178.311C178.45 29.6955 178.689 29.3558 179.027 29.1172C179.368 28.8752 179.758 28.7543 180.195 28.7543C180.295 28.7543 180.406 28.7592 180.528 28.7692C180.654 28.7758 180.759 28.7874 180.841 28.804V30.4595C180.765 30.433 180.644 30.4098 180.478 30.3899C180.316 30.3667 180.159 30.3551 180.006 30.3551C179.678 30.3551 179.383 30.4264 179.121 30.5689C178.863 30.7081 178.659 30.902 178.51 31.1506C178.361 31.3991 178.286 31.6858 178.286 32.0107V36.5H176.486ZM185.98 28.8636V30.2557H181.591V28.8636H185.98ZM182.674 27.0341H184.474V34.2031C184.474 34.4451 184.51 34.6307 184.583 34.7599C184.66 34.8859 184.759 34.9721 184.882 35.0185C185.004 35.0649 185.14 35.0881 185.289 35.0881C185.402 35.0881 185.505 35.0798 185.598 35.0632C185.694 35.0466 185.767 35.0317 185.816 35.0185L186.12 36.4254C186.024 36.4586 185.886 36.495 185.707 36.5348C185.531 36.5746 185.316 36.5978 185.061 36.6044C184.61 36.6177 184.204 36.5497 183.843 36.4006C183.481 36.2481 183.195 36.0128 182.983 35.6946C182.774 35.3764 182.671 34.9787 182.674 34.5014V27.0341Z" fill="#6C7278"/>
<path d="M338.167 29.8333C337.25 29.8333 336.5 30.5833 336.5 31.5C336.5 32.4167 337.25 33.1667 338.167 33.1667C339.083 33.1667 339.833 32.4167 339.833 31.5C339.833 30.5833 339.083 29.8333 338.167 29.8333Z" stroke="#6C7278" stroke-width="1.5"/>
<path d="M349.833 29.8333C348.917 29.8333 348.167 30.5833 348.167 31.5C348.167 32.4167 348.917 33.1667 349.833 33.1667C350.75 33.1667 351.5 32.4167 351.5 31.5C351.5 30.5833 350.75 29.8333 349.833 29.8333Z" stroke="#6C7278" stroke-width="1.5"/>
<path d="M344 29.8333C343.083 29.8333 342.333 30.5833 342.333 31.5C342.333 32.4167 343.083 33.1667 344 33.1667C344.917 33.1667 345.667 32.4167 345.667 31.5C345.667 30.5833 344.917 29.8333 344 29.8333Z" stroke="#6C7278" stroke-width="1.5"/>
<path d="M29.723 100.358C27.8821 100.358 26.2457 100.043 24.8139 99.4119C23.3906 98.7812 22.2656 97.9034 21.4389 96.7784C20.6122 95.6534 20.1733 94.3537 20.1222 92.8793H24.929C24.9716 93.5866 25.206 94.2045 25.6321 94.733C26.0582 95.2528 26.625 95.6577 27.3324 95.9474C28.0398 96.2372 28.8324 96.3821 29.7102 96.3821C30.6477 96.3821 31.4787 96.2202 32.2031 95.8963C32.9276 95.5639 33.4943 95.1037 33.9034 94.5156C34.3125 93.9276 34.5128 93.25 34.5043 92.483C34.5128 91.6903 34.3082 90.9915 33.8906 90.3864C33.473 89.7812 32.8679 89.3082 32.0753 88.9673C31.2912 88.6264 30.3452 88.456 29.2372 88.456H26.9233V84.7997H29.2372C30.1491 84.7997 30.946 84.642 31.6278 84.3267C32.3182 84.0114 32.8594 83.5682 33.2514 82.9972C33.6435 82.4176 33.8352 81.7486 33.8267 80.9901C33.8352 80.2486 33.669 79.6051 33.3281 79.0597C32.9957 78.5057 32.5227 78.0753 31.9091 77.7685C31.304 77.4616 30.5923 77.3082 29.7741 77.3082C28.973 77.3082 28.2315 77.4531 27.5497 77.7429C26.8679 78.0327 26.3182 78.446 25.9006 78.983C25.483 79.5114 25.2614 80.142 25.2358 80.875H20.6719C20.706 79.4091 21.1278 78.1222 21.9375 77.0142C22.7557 75.8977 23.8466 75.0284 25.2102 74.4062C26.5739 73.7756 28.1037 73.4602 29.7997 73.4602C31.5469 73.4602 33.0639 73.7884 34.3509 74.4446C35.6463 75.0923 36.6477 75.9659 37.3551 77.0653C38.0625 78.1648 38.4162 79.3793 38.4162 80.7088C38.4247 82.1832 37.9901 83.419 37.1122 84.4162C36.2429 85.4134 35.1009 86.0653 33.6861 86.3722V86.5767C35.527 86.8324 36.9375 87.5142 37.9176 88.6222C38.9063 89.7216 39.3963 91.0895 39.3878 92.7259C39.3878 94.1918 38.9702 95.5043 38.1349 96.6634C37.3082 97.8139 36.1662 98.7173 34.7088 99.3736C33.2599 100.03 31.598 100.358 29.723 100.358ZM52.3735 100.499C50.2684 100.499 48.4615 99.9659 46.953 98.9006C45.453 97.8267 44.2982 96.2798 43.4885 94.2599C42.6874 92.2315 42.2868 89.7898 42.2868 86.9347C42.2954 84.0795 42.7002 81.6506 43.5013 79.6477C44.311 77.6364 45.4658 76.1023 46.9658 75.0455C48.4743 73.9886 50.2769 73.4602 52.3735 73.4602C54.4701 73.4602 56.2726 73.9886 57.7812 75.0455C59.2897 76.1023 60.4445 77.6364 61.2456 79.6477C62.0553 81.6591 62.4601 84.0881 62.4601 86.9347C62.4601 89.7983 62.0553 92.2443 61.2456 94.2727C60.4445 96.2926 59.2897 97.8352 57.7812 98.9006C56.2812 99.9659 54.4786 100.499 52.3735 100.499ZM52.3735 96.4972C54.0098 96.4972 55.301 95.6918 56.2471 94.081C57.2016 92.4616 57.6789 90.0795 57.6789 86.9347C57.6789 84.8551 57.4615 83.108 57.0269 81.6932C56.5922 80.2784 55.9786 79.2131 55.186 78.4972C54.3934 77.7727 53.4559 77.4105 52.3735 77.4105C50.7456 77.4105 49.4587 78.2202 48.5127 79.8395C47.5667 81.4503 47.0894 83.8153 47.0809 86.9347C47.0723 89.0227 47.2812 90.7784 47.7073 92.2017C48.1419 93.625 48.7556 94.6989 49.5482 95.4233C50.3408 96.1392 51.2826 96.4972 52.3735 96.4972ZM76.2768 73.8182V100H71.5339V78.4332H71.3805L65.2569 82.3452V77.9986L71.764 73.8182H76.2768Z" fill="#1A1C1E"/>
<rect x="18" y="114" width="60" height="25" rx="12.5" fill="#FFE7D1"/>
<path d="M33.3622 122.273V128.669L35.7784 126.244L36.6648 127.122L32.7273 131.051L28.7983 127.122L29.6676 126.244L32.0923 128.669V122.273H33.3622ZM44.8535 131.119C44.2398 131.119 43.6944 131.014 43.2171 130.804C42.7427 130.594 42.3677 130.301 42.0921 129.926C41.8165 129.551 41.6702 129.118 41.6532 128.626H43.2554C43.2696 128.862 43.3478 129.068 43.4898 129.244C43.6319 129.418 43.8208 129.553 44.0566 129.649C44.2924 129.746 44.5566 129.794 44.8492 129.794C45.1617 129.794 45.4387 129.74 45.6802 129.632C45.9216 129.521 46.1106 129.368 46.2469 129.172C46.3833 128.976 46.45 128.75 46.4472 128.494C46.45 128.23 46.3819 127.997 46.2427 127.795C46.1035 127.594 45.9017 127.436 45.6375 127.322C45.3762 127.209 45.0608 127.152 44.6915 127.152H43.9202V125.933H44.6915C44.9955 125.933 45.2611 125.881 45.4884 125.776C45.7185 125.67 45.8989 125.523 46.0296 125.332C46.1603 125.139 46.2242 124.916 46.2213 124.663C46.2242 124.416 46.1688 124.202 46.0552 124.02C45.9444 123.835 45.7867 123.692 45.5821 123.589C45.3804 123.487 45.1432 123.436 44.8705 123.436C44.6035 123.436 44.3563 123.484 44.129 123.581C43.9017 123.678 43.7185 123.815 43.5793 123.994C43.4401 124.17 43.3662 124.381 43.3577 124.625H41.8364C41.8478 124.136 41.9884 123.707 42.2583 123.338C42.531 122.966 42.8946 122.676 43.3492 122.469C43.8037 122.259 44.3137 122.153 44.879 122.153C45.4614 122.153 45.9671 122.263 46.3961 122.482C46.8279 122.697 47.1617 122.989 47.3975 123.355C47.6333 123.722 47.7512 124.126 47.7512 124.57C47.754 125.061 47.6091 125.473 47.3165 125.805C47.0267 126.138 46.6461 126.355 46.1745 126.457V126.526C46.7881 126.611 47.2583 126.838 47.585 127.207C47.9145 127.574 48.0779 128.03 48.075 128.575C48.075 129.064 47.9358 129.501 47.6574 129.888C47.3819 130.271 47.0012 130.572 46.5154 130.791C46.0324 131.01 45.4785 131.119 44.8535 131.119ZM50.0073 131.094C49.7488 131.094 49.5272 131.003 49.3425 130.821C49.1578 130.639 49.0669 130.418 49.0698 130.156C49.0669 129.901 49.1578 129.682 49.3425 129.5C49.5272 129.318 49.7488 129.227 50.0073 129.227C50.2573 129.227 50.4746 129.318 50.6593 129.5C50.8468 129.682 50.9419 129.901 50.9448 130.156C50.9419 130.33 50.8965 130.487 50.8084 130.629C50.7232 130.771 50.6095 130.885 50.4675 130.97C50.3283 131.053 50.1749 131.094 50.0073 131.094ZM55.1195 131.119C54.5059 131.119 53.9605 131.014 53.4832 130.804C53.0088 130.594 52.6338 130.301 52.3582 129.926C52.0826 129.551 51.9363 129.118 51.9193 128.626H53.5215C53.5357 128.862 53.6139 129.068 53.7559 129.244C53.898 129.418 54.0869 129.553 54.3227 129.649C54.5585 129.746 54.8227 129.794 55.1153 129.794C55.4278 129.794 55.7048 129.74 55.9463 129.632C56.1877 129.521 56.3766 129.368 56.513 129.172C56.6494 128.976 56.7161 128.75 56.7133 128.494C56.7161 128.23 56.648 127.997 56.5088 127.795C56.3695 127.594 56.1678 127.436 55.9036 127.322C55.6423 127.209 55.3269 127.152 54.9576 127.152H54.1863V125.933H54.9576C55.2616 125.933 55.5272 125.881 55.7545 125.776C55.9846 125.67 56.165 125.523 56.2957 125.332C56.4264 125.139 56.4903 124.916 56.4874 124.663C56.4903 124.416 56.4349 124.202 56.3213 124.02C56.2105 123.835 56.0528 123.692 55.8482 123.589C55.6465 123.487 55.4093 123.436 55.1366 123.436C54.8695 123.436 54.6224 123.484 54.3951 123.581C54.1678 123.678 53.9846 123.815 53.8454 123.994C53.7062 124.17 53.6323 124.381 53.6238 124.625H52.1025C52.1139 124.136 52.2545 123.707 52.5244 123.338C52.7971 122.966 53.1607 122.676 53.6153 122.469C54.0698 122.259 54.5798 122.153 55.1451 122.153C55.7275 122.153 56.2332 122.263 56.6622 122.482C57.094 122.697 57.4278 122.989 57.6636 123.355C57.8994 123.722 58.0173 124.126 58.0173 124.57C58.0201 125.061 57.8752 125.473 57.5826 125.805C57.2928 126.138 56.9122 126.355 56.4406 126.457V126.526C57.0542 126.611 57.5244 126.838 57.8511 127.207C58.1806 127.574 58.344 128.03 58.3411 128.575C58.3411 129.064 58.2019 129.501 57.9235 129.888C57.648 130.271 57.2673 130.572 56.7815 130.791C56.2985 131.01 55.7445 131.119 55.1195 131.119ZM64.23 129.364V128.903C64.23 128.565 64.3011 128.254 64.4431 127.97C64.588 127.686 64.7982 127.457 65.0738 127.284C65.3494 127.111 65.6832 127.024 66.0752 127.024C66.4786 127.024 66.8167 127.111 67.0894 127.284C67.3621 127.455 67.5681 127.682 67.7073 127.966C67.8494 128.25 67.9204 128.562 67.9204 128.903V129.364C67.9204 129.702 67.8494 130.013 67.7073 130.297C67.5653 130.581 67.3565 130.81 67.0809 130.983C66.8082 131.156 66.4729 131.243 66.0752 131.243C65.6775 131.243 65.3408 131.156 65.0653 130.983C64.7897 130.81 64.5809 130.581 64.4388 130.297C64.2996 130.013 64.23 129.702 64.23 129.364ZM65.3423 128.903V129.364C65.3423 129.588 65.3962 129.794 65.5042 129.982C65.6121 130.169 65.8025 130.263 66.0752 130.263C66.3508 130.263 66.5397 130.17 66.642 129.986C66.7471 129.798 66.7996 129.591 66.7996 129.364V128.903C66.7996 128.676 66.7499 128.469 66.6505 128.281C66.5511 128.091 66.3593 127.996 66.0752 127.996C65.8082 127.996 65.6192 128.091 65.5085 128.281C65.3977 128.469 65.3423 128.676 65.3423 128.903ZM59.794 124.369V123.909C59.794 123.568 59.8664 123.256 60.0113 122.972C60.1562 122.687 60.3664 122.46 60.642 122.29C60.9175 122.116 61.2513 122.03 61.6434 122.03C62.044 122.03 62.3806 122.116 62.6533 122.29C62.9289 122.46 63.1363 122.687 63.2755 122.972C63.4147 123.256 63.4843 123.568 63.4843 123.909V124.369C63.4843 124.71 63.4133 125.023 63.2712 125.307C63.132 125.588 62.9246 125.814 62.6491 125.984C62.3735 126.155 62.0383 126.24 61.6434 126.24C61.2428 126.24 60.9048 126.155 60.6292 125.984C60.3565 125.814 60.1491 125.587 60.007 125.303C59.865 125.018 59.794 124.707 59.794 124.369ZM60.9147 123.909V124.369C60.9147 124.597 60.9673 124.804 61.0724 124.991C61.1803 125.176 61.3707 125.268 61.6434 125.268C61.9161 125.268 62.1036 125.176 62.2059 124.991C62.311 124.804 62.3636 124.597 62.3636 124.369V123.909C62.3636 123.682 62.3138 123.474 62.2144 123.287C62.115 123.097 61.9246 123.001 61.6434 123.001C61.3735 123.001 61.1846 123.097 61.0766 123.287C60.9687 123.477 60.9147 123.685 60.9147 123.909ZM60.2798 131L66.2798 122.273H67.3451L61.3451 131H60.2798Z" fill="#D27219"/>
<g filter="url(#filter1_d_2_139)">
<path d="M90.6392 124.455L88.3082 131H86.6037L84.2727 124.455H85.9176L87.4219 129.317H87.4901L88.9986 124.455H90.6392ZM96.64 126.185L95.2337 126.338C95.1939 126.196 95.1243 126.062 95.0249 125.938C94.9283 125.812 94.7976 125.712 94.6329 125.635C94.4681 125.558 94.2664 125.52 94.0278 125.52C93.7067 125.52 93.4368 125.589 93.2181 125.729C93.0022 125.868 92.8957 126.048 92.8985 126.27C92.8957 126.46 92.9653 126.615 93.1073 126.734C93.2522 126.854 93.4908 126.952 93.8232 127.028L94.9397 127.267C95.559 127.401 96.0192 127.612 96.3204 127.902C96.6243 128.192 96.7778 128.571 96.7806 129.04C96.7778 129.452 96.657 129.815 96.4184 130.131C96.1826 130.443 95.8545 130.687 95.434 130.864C95.0136 131.04 94.5306 131.128 93.9851 131.128C93.184 131.128 92.5391 130.96 92.0505 130.625C91.5618 130.287 91.2707 129.817 91.1769 129.214L92.6812 129.07C92.7493 129.365 92.8942 129.588 93.1158 129.739C93.3374 129.889 93.6258 129.964 93.9809 129.964C94.3474 129.964 94.6414 129.889 94.863 129.739C95.0874 129.588 95.1996 129.402 95.1996 129.18C95.1996 128.993 95.1272 128.838 94.9823 128.716C94.8403 128.594 94.6187 128.5 94.3175 128.435L93.2011 128.2C92.5732 128.07 92.1087 127.849 91.8076 127.54C91.5064 127.227 91.3573 126.832 91.3601 126.355C91.3573 125.952 91.4667 125.602 91.6883 125.307C91.9127 125.009 92.2238 124.778 92.6215 124.616C93.0221 124.452 93.4837 124.369 94.0064 124.369C94.7735 124.369 95.3772 124.533 95.8175 124.859C96.2607 125.186 96.5349 125.628 96.64 126.185ZM104.828 122.273V131H103.286V122.273H104.828ZM108.058 131.132C107.643 131.132 107.27 131.058 106.937 130.911C106.608 130.76 106.347 130.538 106.153 130.246C105.963 129.953 105.868 129.592 105.868 129.163C105.868 128.794 105.936 128.489 106.072 128.247C106.209 128.006 106.395 127.812 106.631 127.668C106.866 127.523 107.132 127.413 107.427 127.339C107.726 127.263 108.034 127.207 108.352 127.173C108.736 127.134 109.047 127.098 109.285 127.067C109.524 127.033 109.697 126.982 109.805 126.913C109.916 126.842 109.972 126.733 109.972 126.585V126.56C109.972 126.239 109.876 125.99 109.686 125.814C109.496 125.638 109.222 125.55 108.864 125.55C108.486 125.55 108.186 125.632 107.964 125.797C107.746 125.962 107.598 126.156 107.521 126.381L106.081 126.176C106.195 125.778 106.382 125.446 106.643 125.179C106.905 124.909 107.224 124.707 107.602 124.574C107.98 124.438 108.398 124.369 108.855 124.369C109.17 124.369 109.484 124.406 109.797 124.48C110.109 124.554 110.395 124.676 110.653 124.847C110.912 125.014 111.119 125.243 111.275 125.533C111.435 125.822 111.514 126.185 111.514 126.619V131H110.031V130.101H109.98C109.886 130.283 109.754 130.453 109.584 130.612C109.416 130.768 109.204 130.895 108.949 130.991C108.696 131.085 108.399 131.132 108.058 131.132ZM108.459 129.999C108.768 129.999 109.037 129.937 109.264 129.815C109.491 129.69 109.666 129.526 109.788 129.321C109.913 129.116 109.976 128.893 109.976 128.652V127.881C109.927 127.92 109.845 127.957 109.729 127.991C109.615 128.026 109.487 128.055 109.345 128.081C109.203 128.107 109.062 128.129 108.923 128.149C108.784 128.169 108.663 128.186 108.561 128.2C108.331 128.232 108.125 128.283 107.943 128.354C107.761 128.425 107.618 128.524 107.513 128.652C107.408 128.777 107.355 128.939 107.355 129.138C107.355 129.422 107.459 129.636 107.666 129.781C107.874 129.926 108.138 129.999 108.459 129.999ZM117.999 126.185L116.592 126.338C116.553 126.196 116.483 126.062 116.384 125.938C116.287 125.812 116.156 125.712 115.991 125.635C115.827 125.558 115.625 125.52 115.386 125.52C115.065 125.52 114.795 125.589 114.577 125.729C114.361 125.868 114.254 126.048 114.257 126.27C114.254 126.46 114.324 126.615 114.466 126.734C114.611 126.854 114.849 126.952 115.182 127.028L116.298 127.267C116.918 127.401 117.378 127.612 117.679 127.902C117.983 128.192 118.136 128.571 118.139 129.04C118.136 129.452 118.016 129.815 117.777 130.131C117.541 130.443 117.213 130.687 116.793 130.864C116.372 131.04 115.889 131.128 115.344 131.128C114.543 131.128 113.898 130.96 113.409 130.625C112.92 130.287 112.629 129.817 112.535 129.214L114.04 129.07C114.108 129.365 114.253 129.588 114.474 129.739C114.696 129.889 114.984 129.964 115.339 129.964C115.706 129.964 116 129.889 116.222 129.739C116.446 129.588 116.558 129.402 116.558 129.18C116.558 128.993 116.486 128.838 116.341 128.716C116.199 128.594 115.977 128.5 115.676 128.435L114.56 128.2C113.932 128.07 113.467 127.849 113.166 127.54C112.865 127.227 112.716 126.832 112.719 126.355C112.716 125.952 112.825 125.602 113.047 125.307C113.271 125.009 113.582 124.778 113.98 124.616C114.381 124.452 114.842 124.369 115.365 124.369C116.132 124.369 116.736 124.533 117.176 124.859C117.619 125.186 117.893 125.628 117.999 126.185ZM122.44 124.455V125.648H118.677V124.455H122.44ZM119.606 122.886H121.148V129.031C121.148 129.239 121.18 129.398 121.242 129.509C121.308 129.616 121.393 129.69 121.498 129.73C121.603 129.77 121.72 129.79 121.847 129.79C121.944 129.79 122.032 129.783 122.112 129.768C122.194 129.754 122.256 129.741 122.299 129.73L122.559 130.936C122.477 130.964 122.359 130.996 122.205 131.03C122.055 131.064 121.87 131.084 121.651 131.089C121.265 131.101 120.917 131.043 120.607 130.915C120.298 130.784 120.052 130.582 119.87 130.31C119.691 130.037 119.603 129.696 119.606 129.287V122.886ZM126.226 131V124.455H127.701V125.567H127.778C127.914 125.192 128.14 124.899 128.455 124.689C128.77 124.476 129.147 124.369 129.584 124.369C130.028 124.369 130.401 124.477 130.705 124.693C131.012 124.906 131.228 125.197 131.353 125.567H131.421C131.566 125.203 131.81 124.913 132.154 124.697C132.501 124.479 132.911 124.369 133.385 124.369C133.988 124.369 134.479 124.56 134.86 124.94C135.241 125.321 135.431 125.876 135.431 126.607V131H133.884V126.845C133.884 126.439 133.776 126.142 133.56 125.955C133.344 125.764 133.08 125.669 132.768 125.669C132.395 125.669 132.104 125.786 131.894 126.018C131.687 126.249 131.583 126.548 131.583 126.918V131H130.07V126.781C130.07 126.443 129.968 126.173 129.763 125.972C129.562 125.77 129.297 125.669 128.971 125.669C128.749 125.669 128.547 125.726 128.366 125.839C128.184 125.95 128.039 126.108 127.931 126.312C127.823 126.514 127.769 126.75 127.769 127.02V131H126.226ZM139.611 131.128C138.972 131.128 138.418 130.987 137.949 130.706C137.48 130.425 137.117 130.031 136.858 129.526C136.602 129.02 136.475 128.429 136.475 127.753C136.475 127.077 136.602 126.484 136.858 125.976C137.117 125.467 137.48 125.072 137.949 124.791C138.418 124.51 138.972 124.369 139.611 124.369C140.25 124.369 140.804 124.51 141.273 124.791C141.742 125.072 142.104 125.467 142.36 125.976C142.618 126.484 142.747 127.077 142.747 127.753C142.747 128.429 142.618 129.02 142.36 129.526C142.104 130.031 141.742 130.425 141.273 130.706C140.804 130.987 140.25 131.128 139.611 131.128ZM139.62 129.892C139.966 129.892 140.256 129.797 140.489 129.607C140.722 129.413 140.895 129.155 141.009 128.831C141.125 128.507 141.183 128.146 141.183 127.749C141.183 127.348 141.125 126.986 141.009 126.662C140.895 126.335 140.722 126.075 140.489 125.882C140.256 125.689 139.966 125.592 139.62 125.592C139.264 125.592 138.969 125.689 138.733 125.882C138.5 126.075 138.325 126.335 138.209 126.662C138.095 126.986 138.039 127.348 138.039 127.749C138.039 128.146 138.095 128.507 138.209 128.831C138.325 129.155 138.5 129.413 138.733 129.607C138.969 129.797 139.264 129.892 139.62 129.892ZM145.359 127.165V131H143.817V124.455H145.291V125.567H145.368C145.518 125.2 145.758 124.909 146.088 124.693C146.42 124.477 146.831 124.369 147.32 124.369C147.771 124.369 148.165 124.466 148.5 124.659C148.838 124.852 149.099 125.132 149.284 125.499C149.472 125.865 149.564 126.31 149.561 126.832V131H148.018V127.071C148.018 126.634 147.905 126.291 147.677 126.044C147.453 125.797 147.142 125.673 146.744 125.673C146.474 125.673 146.234 125.733 146.024 125.852C145.817 125.969 145.653 126.138 145.534 126.359C145.418 126.581 145.359 126.849 145.359 127.165ZM154.158 124.455V125.648H150.395V124.455H154.158ZM151.324 122.886H152.866V129.031C152.866 129.239 152.898 129.398 152.96 129.509C153.026 129.616 153.111 129.69 153.216 129.73C153.321 129.77 153.437 129.79 153.565 129.79C153.662 129.79 153.75 129.783 153.83 129.768C153.912 129.754 153.974 129.741 154.017 129.73L154.277 130.936C154.195 130.964 154.077 130.996 153.923 131.03C153.773 131.064 153.588 131.084 153.369 131.089C152.983 131.101 152.635 131.043 152.325 130.915C152.016 130.784 151.77 130.582 151.588 130.31C151.409 130.037 151.321 129.696 151.324 129.287V122.886ZM156.891 127.165V131H155.348V122.273H156.857V125.567H156.934C157.087 125.197 157.324 124.906 157.645 124.693C157.969 124.477 158.381 124.369 158.881 124.369C159.336 124.369 159.732 124.464 160.07 124.655C160.408 124.845 160.669 125.124 160.854 125.49C161.042 125.857 161.135 126.304 161.135 126.832V131H159.593V127.071C159.593 126.631 159.479 126.288 159.252 126.044C159.027 125.797 158.712 125.673 158.306 125.673C158.033 125.673 157.789 125.733 157.573 125.852C157.36 125.969 157.192 126.138 157.07 126.359C156.951 126.581 156.891 126.849 156.891 127.165Z" fill="#6C7278"/>
</g>
<path d="M20.0284 159.773L22.2997 166.642H22.3892L24.6562 159.773H26.3949L23.3182 168.5H21.3665L18.294 159.773H20.0284ZM28.68 168.632C28.2653 168.632 27.8917 168.558 27.5593 168.411C27.2298 168.26 26.9684 168.038 26.7752 167.746C26.5849 167.453 26.4897 167.092 26.4897 166.663C26.4897 166.294 26.5579 165.989 26.6942 165.747C26.8306 165.506 27.0167 165.312 27.2525 165.168C27.4883 165.023 27.7539 164.913 28.0494 164.839C28.3477 164.763 28.6559 164.707 28.9741 164.673C29.3576 164.634 29.6687 164.598 29.9073 164.567C30.146 164.533 30.3192 164.482 30.4272 164.413C30.538 164.342 30.5934 164.233 30.5934 164.085V164.06C30.5934 163.739 30.4982 163.49 30.3079 163.314C30.1175 163.138 29.8434 163.05 29.4854 163.05C29.1076 163.05 28.8079 163.132 28.5863 163.297C28.3675 163.462 28.2198 163.656 28.1431 163.881L26.7028 163.676C26.8164 163.278 27.0039 162.946 27.2653 162.679C27.5266 162.409 27.8462 162.207 28.2241 162.074C28.6019 161.938 29.0195 161.869 29.4769 161.869C29.7923 161.869 30.1062 161.906 30.4187 161.98C30.7312 162.054 31.0167 162.176 31.2752 162.347C31.5337 162.514 31.7411 162.743 31.8974 163.033C32.0565 163.322 32.136 163.685 32.136 164.119V168.5H30.6531V167.601H30.6019C30.5082 167.783 30.3761 167.953 30.2056 168.112C30.038 168.268 29.8263 168.395 29.5707 168.491C29.3178 168.585 29.021 168.632 28.68 168.632ZM29.0806 167.499C29.3903 167.499 29.6587 167.437 29.886 167.315C30.1133 167.19 30.288 167.026 30.4102 166.821C30.5352 166.616 30.5977 166.393 30.5977 166.152V165.381C30.5494 165.42 30.467 165.457 30.3505 165.491C30.2369 165.526 30.109 165.555 29.967 165.581C29.8249 165.607 29.6843 165.629 29.5451 165.649C29.4059 165.669 29.2852 165.686 29.1829 165.7C28.9528 165.732 28.7468 165.783 28.565 165.854C28.3832 165.925 28.2397 166.024 28.1346 166.152C28.0295 166.277 27.9769 166.439 27.9769 166.638C27.9769 166.922 28.0806 167.136 28.288 167.281C28.4954 167.426 28.7596 167.499 29.0806 167.499ZM35.2298 159.773V168.5H33.6871V159.773H35.2298ZM40.9879 165.747V161.955H42.5305V168.5H41.0348V167.337H40.9666C40.8189 167.703 40.576 168.003 40.2379 168.236C39.9027 168.469 39.4893 168.585 38.9979 168.585C38.5689 168.585 38.1896 168.49 37.8601 168.3C37.5334 168.107 37.2777 167.827 37.093 167.46C36.9084 167.091 36.8161 166.645 36.8161 166.122V161.955H38.3587V165.884C38.3587 166.298 38.4723 166.628 38.6996 166.872C38.9268 167.116 39.2251 167.239 39.5945 167.239C39.8217 167.239 40.0419 167.183 40.255 167.072C40.468 166.962 40.6428 166.797 40.7791 166.578C40.9183 166.357 40.9879 166.08 40.9879 165.747ZM47.0146 168.628C46.3583 168.628 45.7915 168.491 45.3143 168.219C44.8398 167.943 44.4748 167.554 44.2191 167.051C43.9634 166.545 43.8356 165.95 43.8356 165.266C43.8356 164.592 43.9634 164.001 44.2191 163.493C44.4776 162.982 44.8384 162.584 45.3015 162.3C45.7646 162.013 46.3086 161.869 46.9336 161.869C47.337 161.869 47.7177 161.935 48.0756 162.065C48.4364 162.193 48.7546 162.392 49.0302 162.662C49.3086 162.932 49.5273 163.276 49.6864 163.693C49.8455 164.108 49.9251 164.602 49.9251 165.176V165.649H44.56V164.609H48.4464C48.4435 164.314 48.3796 164.051 48.2546 163.821C48.1296 163.588 47.9549 163.405 47.7305 163.271C47.5089 163.138 47.2504 163.071 46.9549 163.071C46.6396 163.071 46.3626 163.148 46.1239 163.301C45.8853 163.452 45.6992 163.651 45.5657 163.898C45.435 164.142 45.3683 164.411 45.3654 164.703V165.611C45.3654 165.991 45.435 166.318 45.5742 166.591C45.7134 166.861 45.908 167.068 46.158 167.213C46.408 167.355 46.7006 167.426 47.0359 167.426C47.2603 167.426 47.4634 167.395 47.6452 167.332C47.8271 167.267 47.9847 167.172 48.1183 167.047C48.2518 166.922 48.3526 166.767 48.4208 166.582L49.8612 166.744C49.7702 167.125 49.5969 167.457 49.3413 167.741C49.0884 168.023 48.7646 168.241 48.3697 168.398C47.9748 168.551 47.5231 168.628 47.0146 168.628ZM57.7393 159.773V168.5H56.1584V161.311H56.1072L54.0661 162.615V161.166L56.2351 159.773H57.7393Z" fill="#6C7278"/>
<path d="M109 164C109 159.029 113.029 155 118 155H300C304.971 155 309 159.029 309 164V164C309 168.971 304.971 173 300 173H118C113.029 173 109 168.971 109 164V164Z" fill="#D27219"/>
<path d="M339.27 159.773V168.5H337.689V161.311H337.638L335.597 162.615V161.166L337.766 159.773H339.27ZM344.796 159.773V168.5H343.215V161.311H343.164L341.122 162.615V161.166L343.291 159.773H344.796ZM349.998 168.666C349.296 168.666 348.694 168.489 348.191 168.134C347.691 167.776 347.306 167.26 347.036 166.587C346.769 165.911 346.635 165.097 346.635 164.145C346.638 163.193 346.773 162.384 347.04 161.716C347.31 161.045 347.695 160.534 348.195 160.182C348.698 159.83 349.299 159.653 349.998 159.653C350.696 159.653 351.297 159.83 351.8 160.182C352.303 160.534 352.688 161.045 352.955 161.716C353.225 162.386 353.36 163.196 353.36 164.145C353.36 165.099 353.225 165.915 352.955 166.591C352.688 167.264 352.303 167.778 351.8 168.134C351.3 168.489 350.699 168.666 349.998 168.666ZM349.998 167.332C350.543 167.332 350.973 167.064 351.289 166.527C351.607 165.987 351.766 165.193 351.766 164.145C351.766 163.452 351.694 162.869 351.549 162.398C351.404 161.926 351.199 161.571 350.935 161.332C350.671 161.091 350.358 160.97 349.998 160.97C349.455 160.97 349.026 161.24 348.711 161.78C348.395 162.317 348.236 163.105 348.233 164.145C348.23 164.841 348.3 165.426 348.442 165.901C348.587 166.375 348.792 166.733 349.056 166.974C349.32 167.213 349.634 167.332 349.998 167.332Z" fill="#6C7278"/>
<path d="M20.0284 191.773L22.2997 198.642H22.3892L24.6562 191.773H26.3949L23.3182 200.5H21.3665L18.294 191.773H20.0284ZM28.68 200.632C28.2653 200.632 27.8917 200.558 27.5593 200.411C27.2298 200.26 26.9684 200.038 26.7752 199.746C26.5849 199.453 26.4897 199.092 26.4897 198.663C26.4897 198.294 26.5579 197.989 26.6942 197.747C26.8306 197.506 27.0167 197.312 27.2525 197.168C27.4883 197.023 27.7539 196.913 28.0494 196.839C28.3477 196.763 28.6559 196.707 28.9741 196.673C29.3576 196.634 29.6687 196.598 29.9073 196.567C30.146 196.533 30.3192 196.482 30.4272 196.413C30.538 196.342 30.5934 196.233 30.5934 196.085V196.06C30.5934 195.739 30.4982 195.49 30.3079 195.314C30.1175 195.138 29.8434 195.05 29.4854 195.05C29.1076 195.05 28.8079 195.132 28.5863 195.297C28.3675 195.462 28.2198 195.656 28.1431 195.881L26.7028 195.676C26.8164 195.278 27.0039 194.946 27.2653 194.679C27.5266 194.409 27.8462 194.207 28.2241 194.074C28.6019 193.938 29.0195 193.869 29.4769 193.869C29.7923 193.869 30.1062 193.906 30.4187 193.98C30.7312 194.054 31.0167 194.176 31.2752 194.347C31.5337 194.514 31.7411 194.743 31.8974 195.033C32.0565 195.322 32.136 195.685 32.136 196.119V200.5H30.6531V199.601H30.6019C30.5082 199.783 30.3761 199.953 30.2056 200.112C30.038 200.268 29.8263 200.395 29.5707 200.491C29.3178 200.585 29.021 200.632 28.68 200.632ZM29.0806 199.499C29.3903 199.499 29.6587 199.437 29.886 199.315C30.1133 199.19 30.288 199.026 30.4102 198.821C30.5352 198.616 30.5977 198.393 30.5977 198.152V197.381C30.5494 197.42 30.467 197.457 30.3505 197.491C30.2369 197.526 30.109 197.555 29.967 197.581C29.8249 197.607 29.6843 197.629 29.5451 197.649C29.4059 197.669 29.2852 197.686 29.1829 197.7C28.9528 197.732 28.7468 197.783 28.565 197.854C28.3832 197.925 28.2397 198.024 28.1346 198.152C28.0295 198.277 27.9769 198.439 27.9769 198.638C27.9769 198.922 28.0806 199.136 28.288 199.281C28.4954 199.426 28.7596 199.499 29.0806 199.499ZM35.2298 191.773V200.5H33.6871V191.773H35.2298ZM40.9879 197.747V193.955H42.5305V200.5H41.0348V199.337H40.9666C40.8189 199.703 40.576 200.003 40.2379 200.236C39.9027 200.469 39.4893 200.585 38.9979 200.585C38.5689 200.585 38.1896 200.49 37.8601 200.3C37.5334 200.107 37.2777 199.827 37.093 199.46C36.9084 199.091 36.8161 198.645 36.8161 198.122V193.955H38.3587V197.884C38.3587 198.298 38.4723 198.628 38.6996 198.872C38.9268 199.116 39.2251 199.239 39.5945 199.239C39.8217 199.239 40.0419 199.183 40.255 199.072C40.468 198.962 40.6428 198.797 40.7791 198.578C40.9183 198.357 40.9879 198.08 40.9879 197.747ZM47.0146 200.628C46.3583 200.628 45.7915 200.491 45.3143 200.219C44.8398 199.943 44.4748 199.554 44.2191 199.051C43.9634 198.545 43.8356 197.95 43.8356 197.266C43.8356 196.592 43.9634 196.001 44.2191 195.493C44.4776 194.982 44.8384 194.584 45.3015 194.3C45.7646 194.013 46.3086 193.869 46.9336 193.869C47.337 193.869 47.7177 193.935 48.0756 194.065C48.4364 194.193 48.7546 194.392 49.0302 194.662C49.3086 194.932 49.5273 195.276 49.6864 195.693C49.8455 196.108 49.9251 196.602 49.9251 197.176V197.649H44.56V196.609H48.4464C48.4435 196.314 48.3796 196.051 48.2546 195.821C48.1296 195.588 47.9549 195.405 47.7305 195.271C47.5089 195.138 47.2504 195.071 46.9549 195.071C46.6396 195.071 46.3626 195.148 46.1239 195.301C45.8853 195.452 45.6992 195.651 45.5657 195.898C45.435 196.142 45.3683 196.411 45.3654 196.703V197.611C45.3654 197.991 45.435 198.318 45.5742 198.591C45.7134 198.861 45.908 199.068 46.158 199.213C46.408 199.355 46.7006 199.426 47.0359 199.426C47.2603 199.426 47.4634 199.395 47.6452 199.332C47.8271 199.267 47.9847 199.172 48.1183 199.047C48.2518 198.922 48.3526 198.767 48.4208 198.582L49.8612 198.744C49.7702 199.125 49.5969 199.457 49.3413 199.741C49.0884 200.023 48.7646 200.241 48.3697 200.398C47.9748 200.551 47.5231 200.628 47.0146 200.628ZM54.1896 200.5V199.358L57.2195 196.388C57.5092 196.095 57.7507 195.835 57.9439 195.608C58.1371 195.381 58.282 195.161 58.3786 194.947C58.4751 194.734 58.5234 194.507 58.5234 194.266C58.5234 193.99 58.4609 193.754 58.3359 193.558C58.2109 193.359 58.0391 193.206 57.8203 193.098C57.6016 192.99 57.353 192.936 57.0746 192.936C56.7876 192.936 56.5362 192.996 56.3203 193.115C56.1044 193.232 55.9368 193.398 55.8175 193.614C55.701 193.83 55.6428 194.087 55.6428 194.385H54.1385C54.1385 193.831 54.2649 193.349 54.5178 192.94C54.7706 192.531 55.1186 192.214 55.5618 191.99C56.0078 191.766 56.5192 191.653 57.0959 191.653C57.6811 191.653 58.1953 191.763 58.6385 191.982C59.0817 192.2 59.4254 192.5 59.6697 192.881C59.9169 193.261 60.0405 193.696 60.0405 194.185C60.0405 194.511 59.978 194.832 59.853 195.148C59.728 195.463 59.5078 195.812 59.1925 196.196C58.88 196.58 58.4411 197.044 57.8757 197.589L56.3714 199.119V199.179H60.1726V200.5H54.1896Z" fill="#6C7278"/>
<path d="M109 196C109 191.029 113.029 187 118 187H264C268.971 187 273 191.029 273 196V196C273 200.971 268.971 205 264 205H118C113.029 205 109 200.971 109 196V196Z" fill="#FCA555"/>
<path d="M342.26 191.653C342.678 191.656 343.084 191.73 343.479 191.875C343.877 192.017 344.235 192.25 344.553 192.574C344.871 192.895 345.124 193.325 345.311 193.865C345.499 194.405 345.593 195.072 345.593 195.868C345.595 196.618 345.516 197.288 345.354 197.879C345.195 198.467 344.966 198.964 344.668 199.371C344.37 199.777 344.01 200.087 343.59 200.3C343.169 200.513 342.696 200.619 342.171 200.619C341.62 200.619 341.131 200.511 340.705 200.295C340.282 200.08 339.939 199.784 339.678 199.409C339.416 199.034 339.256 198.605 339.196 198.122H340.752C340.831 198.469 340.993 198.744 341.238 198.949C341.485 199.151 341.796 199.251 342.171 199.251C342.776 199.251 343.242 198.989 343.568 198.463C343.895 197.937 344.059 197.207 344.059 196.273H343.999C343.86 196.523 343.679 196.739 343.458 196.92C343.236 197.099 342.985 197.237 342.703 197.334C342.425 197.43 342.13 197.479 341.817 197.479C341.306 197.479 340.845 197.357 340.436 197.112C340.03 196.868 339.708 196.533 339.469 196.107C339.233 195.68 339.114 195.193 339.111 194.645C339.111 194.077 339.242 193.567 339.503 193.115C339.767 192.661 340.135 192.303 340.607 192.041C341.078 191.777 341.63 191.648 342.26 191.653ZM342.265 192.932C341.958 192.932 341.681 193.007 341.434 193.158C341.189 193.305 340.996 193.507 340.854 193.763C340.715 194.016 340.645 194.298 340.645 194.611C340.648 194.92 340.718 195.202 340.854 195.455C340.993 195.707 341.182 195.908 341.421 196.055C341.662 196.203 341.938 196.277 342.247 196.277C342.478 196.277 342.692 196.233 342.891 196.145C343.09 196.057 343.263 195.935 343.411 195.778C343.561 195.619 343.678 195.439 343.76 195.237C343.845 195.036 343.887 194.822 343.884 194.598C343.884 194.3 343.813 194.024 343.671 193.771C343.532 193.518 343.34 193.315 343.095 193.162C342.854 193.009 342.577 192.932 342.265 192.932ZM349.998 200.666C349.296 200.666 348.694 200.489 348.191 200.134C347.691 199.776 347.306 199.26 347.036 198.587C346.769 197.911 346.635 197.097 346.635 196.145C346.638 195.193 346.773 194.384 347.04 193.716C347.31 193.045 347.695 192.534 348.195 192.182C348.698 191.83 349.299 191.653 349.998 191.653C350.696 191.653 351.297 191.83 351.8 192.182C352.303 192.534 352.688 193.045 352.955 193.716C353.225 194.386 353.36 195.196 353.36 196.145C353.36 197.099 353.225 197.915 352.955 198.591C352.688 199.264 352.303 199.778 351.8 200.134C351.3 200.489 350.699 200.666 349.998 200.666ZM349.998 199.332C350.543 199.332 350.973 199.064 351.289 198.527C351.607 197.987 351.766 197.193 351.766 196.145C351.766 195.452 351.694 194.869 351.549 194.398C351.404 193.926 351.199 193.571 350.935 193.332C350.671 193.091 350.358 192.97 349.998 192.97C349.455 192.97 349.026 193.24 348.711 193.78C348.395 194.317 348.236 195.105 348.233 196.145C348.23 196.841 348.3 197.426 348.442 197.901C348.587 198.375 348.792 198.733 349.056 198.974C349.32 199.213 349.634 199.332 349.998 199.332Z" fill="#6C7278"/>
<path d="M20.0284 223.773L22.2997 230.642H22.3892L24.6562 223.773H26.3949L23.3182 232.5H21.3665L18.294 223.773H20.0284ZM28.68 232.632C28.2653 232.632 27.8917 232.558 27.5593 232.411C27.2298 232.26 26.9684 232.038 26.7752 231.746C26.5849 231.453 26.4897 231.092 26.4897 230.663C26.4897 230.294 26.5579 229.989 26.6942 229.747C26.8306 229.506 27.0167 229.312 27.2525 229.168C27.4883 229.023 27.7539 228.913 28.0494 228.839C28.3477 228.763 28.6559 228.707 28.9741 228.673C29.3576 228.634 29.6687 228.598 29.9073 228.567C30.146 228.533 30.3192 228.482 30.4272 228.413C30.538 228.342 30.5934 228.233 30.5934 228.085V228.06C30.5934 227.739 30.4982 227.49 30.3079 227.314C30.1175 227.138 29.8434 227.05 29.4854 227.05C29.1076 227.05 28.8079 227.132 28.5863 227.297C28.3675 227.462 28.2198 227.656 28.1431 227.881L26.7028 227.676C26.8164 227.278 27.0039 226.946 27.2653 226.679C27.5266 226.409 27.8462 226.207 28.2241 226.074C28.6019 225.938 29.0195 225.869 29.4769 225.869C29.7923 225.869 30.1062 225.906 30.4187 225.98C30.7312 226.054 31.0167 226.176 31.2752 226.347C31.5337 226.514 31.7411 226.743 31.8974 227.033C32.0565 227.322 32.136 227.685 32.136 228.119V232.5H30.6531V231.601H30.6019C30.5082 231.783 30.3761 231.953 30.2056 232.112C30.038 232.268 29.8263 232.395 29.5707 232.491C29.3178 232.585 29.021 232.632 28.68 232.632ZM29.0806 231.499C29.3903 231.499 29.6587 231.437 29.886 231.315C30.1133 231.19 30.288 231.026 30.4102 230.821C30.5352 230.616 30.5977 230.393 30.5977 230.152V229.381C30.5494 229.42 30.467 229.457 30.3505 229.491C30.2369 229.526 30.109 229.555 29.967 229.581C29.8249 229.607 29.6843 229.629 29.5451 229.649C29.4059 229.669 29.2852 229.686 29.1829 229.7C28.9528 229.732 28.7468 229.783 28.565 229.854C28.3832 229.925 28.2397 230.024 28.1346 230.152C28.0295 230.277 27.9769 230.439 27.9769 230.638C27.9769 230.922 28.0806 231.136 28.288 231.281C28.4954 231.426 28.7596 231.499 29.0806 231.499ZM35.2298 223.773V232.5H33.6871V223.773H35.2298ZM40.9879 229.747V225.955H42.5305V232.5H41.0348V231.337H40.9666C40.8189 231.703 40.576 232.003 40.2379 232.236C39.9027 232.469 39.4893 232.585 38.9979 232.585C38.5689 232.585 38.1896 232.49 37.8601 232.3C37.5334 232.107 37.2777 231.827 37.093 231.46C36.9084 231.091 36.8161 230.645 36.8161 230.122V225.955H38.3587V229.884C38.3587 230.298 38.4723 230.628 38.6996 230.872C38.9268 231.116 39.2251 231.239 39.5945 231.239C39.8217 231.239 40.0419 231.183 40.255 231.072C40.468 230.962 40.6428 230.797 40.7791 230.578C40.9183 230.357 40.9879 230.08 40.9879 229.747ZM47.0146 232.628C46.3583 232.628 45.7915 232.491 45.3143 232.219C44.8398 231.943 44.4748 231.554 44.2191 231.051C43.9634 230.545 43.8356 229.95 43.8356 229.266C43.8356 228.592 43.9634 228.001 44.2191 227.493C44.4776 226.982 44.8384 226.584 45.3015 226.3C45.7646 226.013 46.3086 225.869 46.9336 225.869C47.337 225.869 47.7177 225.935 48.0756 226.065C48.4364 226.193 48.7546 226.392 49.0302 226.662C49.3086 226.932 49.5273 227.276 49.6864 227.693C49.8455 228.108 49.9251 228.602 49.9251 229.176V229.649H44.56V228.609H48.4464C48.4435 228.314 48.3796 228.051 48.2546 227.821C48.1296 227.588 47.9549 227.405 47.7305 227.271C47.5089 227.138 47.2504 227.071 46.9549 227.071C46.6396 227.071 46.3626 227.148 46.1239 227.301C45.8853 227.452 45.6992 227.651 45.5657 227.898C45.435 228.142 45.3683 228.411 45.3654 228.703V229.611C45.3654 229.991 45.435 230.318 45.5742 230.591C45.7134 230.861 45.908 231.068 46.158 231.213C46.408 231.355 46.7006 231.426 47.0359 231.426C47.2603 231.426 47.4634 231.395 47.6452 231.332C47.8271 231.267 47.9847 231.172 48.1183 231.047C48.2518 230.922 48.3526 230.767 48.4208 230.582L49.8612 230.744C49.7702 231.125 49.5969 231.457 49.3413 231.741C49.0884 232.023 48.7646 232.241 48.3697 232.398C47.9748 232.551 47.5231 232.628 47.0146 232.628ZM57.3217 232.619C56.7081 232.619 56.1626 232.514 55.6854 232.304C55.2109 232.094 54.8359 231.801 54.5604 231.426C54.2848 231.051 54.1385 230.618 54.1214 230.126H55.7237C55.7379 230.362 55.8161 230.568 55.9581 230.744C56.1001 230.918 56.2891 231.053 56.5249 231.149C56.7607 231.246 57.0249 231.294 57.3175 231.294C57.63 231.294 57.907 231.24 58.1484 231.132C58.3899 231.021 58.5788 230.868 58.7152 230.672C58.8516 230.476 58.9183 230.25 58.9155 229.994C58.9183 229.73 58.8501 229.497 58.7109 229.295C58.5717 229.094 58.37 228.936 58.1058 228.822C57.8445 228.709 57.5291 228.652 57.1598 228.652H56.3885V227.433H57.1598C57.4638 227.433 57.7294 227.381 57.9567 227.276C58.1868 227.17 58.3672 227.023 58.4979 226.832C58.6286 226.639 58.6925 226.416 58.6896 226.163C58.6925 225.916 58.6371 225.702 58.5234 225.52C58.4126 225.335 58.255 225.192 58.0504 225.089C57.8487 224.987 57.6115 224.936 57.3388 224.936C57.0717 224.936 56.8246 224.984 56.5973 225.081C56.37 225.178 56.1868 225.315 56.0476 225.494C55.9084 225.67 55.8345 225.881 55.826 226.125H54.3047C54.3161 225.636 54.4567 225.207 54.7266 224.838C54.9993 224.466 55.3629 224.176 55.8175 223.969C56.272 223.759 56.782 223.653 57.3473 223.653C57.9297 223.653 58.4354 223.763 58.8643 223.982C59.2962 224.197 59.63 224.489 59.8658 224.855C60.1016 225.222 60.2195 225.626 60.2195 226.07C60.2223 226.561 60.0774 226.973 59.7848 227.305C59.495 227.638 59.1143 227.855 58.6428 227.957V228.026C59.2564 228.111 59.7266 228.338 60.0533 228.707C60.3828 229.074 60.5462 229.53 60.5433 230.075C60.5433 230.564 60.4041 231.001 60.1257 231.388C59.8501 231.771 59.4695 232.072 58.9837 232.291C58.5007 232.51 57.9467 232.619 57.3217 232.619Z" fill="#6C7278"/>
<path d="M109 228C109 223.029 113.029 219 118 219H237C241.971 219 246 223.029 246 228V228C246 232.971 241.971 237 237 237H118C113.029 237 109 232.971 109 228V228Z" fill="#FFB876"/>
<path d="M340.839 232.5L344.551 225.153V225.094H340.242V223.773H346.187V225.124L342.48 232.5H340.839ZM347.322 232.5V231.358L350.352 228.388C350.642 228.095 350.884 227.835 351.077 227.608C351.27 227.381 351.415 227.161 351.511 226.947C351.608 226.734 351.656 226.507 351.656 226.266C351.656 225.99 351.594 225.754 351.469 225.558C351.344 225.359 351.172 225.206 350.953 225.098C350.734 224.99 350.486 224.936 350.207 224.936C349.92 224.936 349.669 224.996 349.453 225.115C349.237 225.232 349.07 225.398 348.95 225.614C348.834 225.83 348.776 226.087 348.776 226.385H347.271C347.271 225.831 347.398 225.349 347.651 224.94C347.903 224.531 348.251 224.214 348.695 223.99C349.141 223.766 349.652 223.653 350.229 223.653C350.814 223.653 351.328 223.763 351.771 223.982C352.214 224.2 352.558 224.5 352.803 224.881C353.05 225.261 353.173 225.696 353.173 226.185C353.173 226.511 353.111 226.832 352.986 227.148C352.861 227.463 352.641 227.812 352.325 228.196C352.013 228.58 351.574 229.044 351.009 229.589L349.504 231.119V231.179H353.305V232.5H347.322Z" fill="#6C7278"/>
<path d="M20.0284 255.773L22.2997 262.642H22.3892L24.6562 255.773H26.3949L23.3182 264.5H21.3665L18.294 255.773H20.0284ZM28.68 264.632C28.2653 264.632 27.8917 264.558 27.5593 264.411C27.2298 264.26 26.9684 264.038 26.7752 263.746C26.5849 263.453 26.4897 263.092 26.4897 262.663C26.4897 262.294 26.5579 261.989 26.6942 261.747C26.8306 261.506 27.0167 261.312 27.2525 261.168C27.4883 261.023 27.7539 260.913 28.0494 260.839C28.3477 260.763 28.6559 260.707 28.9741 260.673C29.3576 260.634 29.6687 260.598 29.9073 260.567C30.146 260.533 30.3192 260.482 30.4272 260.413C30.538 260.342 30.5934 260.233 30.5934 260.085V260.06C30.5934 259.739 30.4982 259.49 30.3079 259.314C30.1175 259.138 29.8434 259.05 29.4854 259.05C29.1076 259.05 28.8079 259.132 28.5863 259.297C28.3675 259.462 28.2198 259.656 28.1431 259.881L26.7028 259.676C26.8164 259.278 27.0039 258.946 27.2653 258.679C27.5266 258.409 27.8462 258.207 28.2241 258.074C28.6019 257.938 29.0195 257.869 29.4769 257.869C29.7923 257.869 30.1062 257.906 30.4187 257.98C30.7312 258.054 31.0167 258.176 31.2752 258.347C31.5337 258.514 31.7411 258.743 31.8974 259.033C32.0565 259.322 32.136 259.685 32.136 260.119V264.5H30.6531V263.601H30.6019C30.5082 263.783 30.3761 263.953 30.2056 264.112C30.038 264.268 29.8263 264.395 29.5707 264.491C29.3178 264.585 29.021 264.632 28.68 264.632ZM29.0806 263.499C29.3903 263.499 29.6587 263.437 29.886 263.315C30.1133 263.19 30.288 263.026 30.4102 262.821C30.5352 262.616 30.5977 262.393 30.5977 262.152V261.381C30.5494 261.42 30.467 261.457 30.3505 261.491C30.2369 261.526 30.109 261.555 29.967 261.581C29.8249 261.607 29.6843 261.629 29.5451 261.649C29.4059 261.669 29.2852 261.686 29.1829 261.7C28.9528 261.732 28.7468 261.783 28.565 261.854C28.3832 261.925 28.2397 262.024 28.1346 262.152C28.0295 262.277 27.9769 262.439 27.9769 262.638C27.9769 262.922 28.0806 263.136 28.288 263.281C28.4954 263.426 28.7596 263.499 29.0806 263.499ZM35.2298 255.773V264.5H33.6871V255.773H35.2298ZM40.9879 261.747V257.955H42.5305V264.5H41.0348V263.337H40.9666C40.8189 263.703 40.576 264.003 40.2379 264.236C39.9027 264.469 39.4893 264.585 38.9979 264.585C38.5689 264.585 38.1896 264.49 37.8601 264.3C37.5334 264.107 37.2777 263.827 37.093 263.46C36.9084 263.091 36.8161 262.645 36.8161 262.122V257.955H38.3587V261.884C38.3587 262.298 38.4723 262.628 38.6996 262.872C38.9268 263.116 39.2251 263.239 39.5945 263.239C39.8217 263.239 40.0419 263.183 40.255 263.072C40.468 262.962 40.6428 262.797 40.7791 262.578C40.9183 262.357 40.9879 262.08 40.9879 261.747ZM47.0146 264.628C46.3583 264.628 45.7915 264.491 45.3143 264.219C44.8398 263.943 44.4748 263.554 44.2191 263.051C43.9634 262.545 43.8356 261.95 43.8356 261.266C43.8356 260.592 43.9634 260.001 44.2191 259.493C44.4776 258.982 44.8384 258.584 45.3015 258.3C45.7646 258.013 46.3086 257.869 46.9336 257.869C47.337 257.869 47.7177 257.935 48.0756 258.065C48.4364 258.193 48.7546 258.392 49.0302 258.662C49.3086 258.932 49.5273 259.276 49.6864 259.693C49.8455 260.108 49.9251 260.602 49.9251 261.176V261.649H44.56V260.609H48.4464C48.4435 260.314 48.3796 260.051 48.2546 259.821C48.1296 259.588 47.9549 259.405 47.7305 259.271C47.5089 259.138 47.2504 259.071 46.9549 259.071C46.6396 259.071 46.3626 259.148 46.1239 259.301C45.8853 259.452 45.6992 259.651 45.5657 259.898C45.435 260.142 45.3683 260.411 45.3654 260.703V261.611C45.3654 261.991 45.435 262.318 45.5742 262.591C45.7134 262.861 45.908 263.068 46.158 263.213C46.408 263.355 46.7006 263.426 47.0359 263.426C47.2603 263.426 47.4634 263.395 47.6452 263.332C47.8271 263.267 47.9847 263.172 48.1183 263.047C48.2518 262.922 48.3526 262.767 48.4208 262.582L49.8612 262.744C49.7702 263.125 49.5969 263.457 49.3413 263.741C49.0884 264.023 48.7646 264.241 48.3697 264.398C47.9748 264.551 47.5231 264.628 47.0146 264.628ZM54.032 262.881V261.624L57.7351 255.773H58.7834V257.562H58.1442L55.6513 261.513V261.581H60.8203V262.881H54.032ZM58.1953 264.5V262.497L58.2124 261.935V255.773H59.7038V264.5H58.1953Z" fill="#6C7278"/>
<path d="M109 260C109 255.029 113.029 251 118 251H192C196.971 251 201 255.029 201 260V260C201 264.971 196.971 269 192 269H118C113.029 269 109 264.971 109 260V260Z" fill="#FFD2A9"/>
<path d="M338.88 262.881V261.624L342.583 255.773H343.631V257.562H342.992L340.499 261.513V261.581H345.668V262.881H338.88ZM343.043 264.5V262.497L343.06 261.935V255.773H344.551V264.5H343.043ZM350.132 264.619C349.498 264.619 348.936 264.513 348.444 264.3C347.956 264.087 347.572 263.795 347.294 263.426C347.018 263.054 346.882 262.632 346.885 262.161C346.882 261.794 346.961 261.457 347.123 261.151C347.285 260.844 347.504 260.588 347.779 260.384C348.058 260.176 348.368 260.044 348.708 259.987V259.928C348.26 259.828 347.896 259.599 347.618 259.241C347.342 258.881 347.206 258.464 347.208 257.993C347.206 257.544 347.331 257.143 347.583 256.791C347.836 256.439 348.183 256.162 348.623 255.96C349.064 255.756 349.566 255.653 350.132 255.653C350.691 255.653 351.19 255.756 351.627 255.96C352.068 256.162 352.414 256.439 352.667 256.791C352.923 257.143 353.051 257.544 353.051 257.993C353.051 258.464 352.91 258.881 352.629 259.241C352.35 259.599 351.991 259.828 351.551 259.928V259.987C351.892 260.044 352.199 260.176 352.471 260.384C352.747 260.588 352.966 260.844 353.127 261.151C353.292 261.457 353.375 261.794 353.375 262.161C353.375 262.632 353.235 263.054 352.957 263.426C352.679 263.795 352.295 264.087 351.806 264.3C351.321 264.513 350.762 264.619 350.132 264.619ZM350.132 263.401C350.458 263.401 350.743 263.345 350.984 263.234C351.225 263.121 351.413 262.962 351.547 262.757C351.68 262.553 351.748 262.317 351.751 262.05C351.748 261.771 351.676 261.526 351.534 261.312C351.395 261.097 351.203 260.928 350.958 260.805C350.717 260.683 350.441 260.622 350.132 260.622C349.819 260.622 349.541 260.683 349.297 260.805C349.052 260.928 348.859 261.097 348.717 261.312C348.578 261.526 348.51 261.771 348.512 262.05C348.51 262.317 348.575 262.553 348.708 262.757C348.842 262.959 349.029 263.116 349.271 263.23C349.515 263.344 349.802 263.401 350.132 263.401ZM350.132 259.425C350.399 259.425 350.635 259.371 350.839 259.263C351.047 259.155 351.21 259.004 351.329 258.811C351.449 258.618 351.51 258.395 351.512 258.142C351.51 257.892 351.45 257.673 351.333 257.486C351.217 257.295 351.055 257.149 350.848 257.047C350.64 256.942 350.402 256.889 350.132 256.889C349.856 256.889 349.613 256.942 349.403 257.047C349.196 257.149 349.034 257.295 348.917 257.486C348.804 257.673 348.748 257.892 348.751 258.142C348.748 258.395 348.805 258.618 348.922 258.811C349.041 259.001 349.204 259.152 349.412 259.263C349.622 259.371 349.862 259.425 350.132 259.425Z" fill="#6C7278"/>
<path d="M20.0284 287.773L22.2997 294.642H22.3892L24.6562 287.773H26.3949L23.3182 296.5H21.3665L18.294 287.773H20.0284ZM28.68 296.632C28.2653 296.632 27.8917 296.558 27.5593 296.411C27.2298 296.26 26.9684 296.038 26.7752 295.746C26.5849 295.453 26.4897 295.092 26.4897 294.663C26.4897 294.294 26.5579 293.989 26.6942 293.747C26.8306 293.506 27.0167 293.312 27.2525 293.168C27.4883 293.023 27.7539 292.913 28.0494 292.839C28.3477 292.763 28.6559 292.707 28.9741 292.673C29.3576 292.634 29.6687 292.598 29.9073 292.567C30.146 292.533 30.3192 292.482 30.4272 292.413C30.538 292.342 30.5934 292.233 30.5934 292.085V292.06C30.5934 291.739 30.4982 291.49 30.3079 291.314C30.1175 291.138 29.8434 291.05 29.4854 291.05C29.1076 291.05 28.8079 291.132 28.5863 291.297C28.3675 291.462 28.2198 291.656 28.1431 291.881L26.7028 291.676C26.8164 291.278 27.0039 290.946 27.2653 290.679C27.5266 290.409 27.8462 290.207 28.2241 290.074C28.6019 289.938 29.0195 289.869 29.4769 289.869C29.7923 289.869 30.1062 289.906 30.4187 289.98C30.7312 290.054 31.0167 290.176 31.2752 290.347C31.5337 290.514 31.7411 290.743 31.8974 291.033C32.0565 291.322 32.136 291.685 32.136 292.119V296.5H30.6531V295.601H30.6019C30.5082 295.783 30.3761 295.953 30.2056 296.112C30.038 296.268 29.8263 296.395 29.5707 296.491C29.3178 296.585 29.021 296.632 28.68 296.632ZM29.0806 295.499C29.3903 295.499 29.6587 295.437 29.886 295.315C30.1133 295.19 30.288 295.026 30.4102 294.821C30.5352 294.616 30.5977 294.393 30.5977 294.152V293.381C30.5494 293.42 30.467 293.457 30.3505 293.491C30.2369 293.526 30.109 293.555 29.967 293.581C29.8249 293.607 29.6843 293.629 29.5451 293.649C29.4059 293.669 29.2852 293.686 29.1829 293.7C28.9528 293.732 28.7468 293.783 28.565 293.854C28.3832 293.925 28.2397 294.024 28.1346 294.152C28.0295 294.277 27.9769 294.439 27.9769 294.638C27.9769 294.922 28.0806 295.136 28.288 295.281C28.4954 295.426 28.7596 295.499 29.0806 295.499ZM35.2298 287.773V296.5H33.6871V287.773H35.2298ZM40.9879 293.747V289.955H42.5305V296.5H41.0348V295.337H40.9666C40.8189 295.703 40.576 296.003 40.2379 296.236C39.9027 296.469 39.4893 296.585 38.9979 296.585C38.5689 296.585 38.1896 296.49 37.8601 296.3C37.5334 296.107 37.2777 295.827 37.093 295.46C36.9084 295.091 36.8161 294.645 36.8161 294.122V289.955H38.3587V293.884C38.3587 294.298 38.4723 294.628 38.6996 294.872C38.9268 295.116 39.2251 295.239 39.5945 295.239C39.8217 295.239 40.0419 295.183 40.255 295.072C40.468 294.962 40.6428 294.797 40.7791 294.578C40.9183 294.357 40.9879 294.08 40.9879 293.747ZM47.0146 296.628C46.3583 296.628 45.7915 296.491 45.3143 296.219C44.8398 295.943 44.4748 295.554 44.2191 295.051C43.9634 294.545 43.8356 293.95 43.8356 293.266C43.8356 292.592 43.9634 292.001 44.2191 291.493C44.4776 290.982 44.8384 290.584 45.3015 290.3C45.7646 290.013 46.3086 289.869 46.9336 289.869C47.337 289.869 47.7177 289.935 48.0756 290.065C48.4364 290.193 48.7546 290.392 49.0302 290.662C49.3086 290.932 49.5273 291.276 49.6864 291.693C49.8455 292.108 49.9251 292.602 49.9251 293.176V293.649H44.56V292.609H48.4464C48.4435 292.314 48.3796 292.051 48.2546 291.821C48.1296 291.588 47.9549 291.405 47.7305 291.271C47.5089 291.138 47.2504 291.071 46.9549 291.071C46.6396 291.071 46.3626 291.148 46.1239 291.301C45.8853 291.452 45.6992 291.651 45.5657 291.898C45.435 292.142 45.3683 292.411 45.3654 292.703V293.611C45.3654 293.991 45.435 294.318 45.5742 294.591C45.7134 294.861 45.908 295.068 46.158 295.213C46.408 295.355 46.7006 295.426 47.0359 295.426C47.2603 295.426 47.4634 295.395 47.6452 295.332C47.8271 295.267 47.9847 295.172 48.1183 295.047C48.2518 294.922 48.3526 294.767 48.4208 294.582L49.8612 294.744C49.7702 295.125 49.5969 295.457 49.3413 295.741C49.0884 296.023 48.7646 296.241 48.3697 296.398C47.9748 296.551 47.5231 296.628 47.0146 296.628ZM57.2237 296.619C56.6555 296.619 56.147 296.513 55.6982 296.3C55.2493 296.084 54.8928 295.788 54.6286 295.413C54.3672 295.038 54.228 294.609 54.2109 294.126H55.745C55.7734 294.484 55.9283 294.777 56.2095 295.004C56.4908 295.229 56.8288 295.341 57.2237 295.341C57.5334 295.341 57.8089 295.27 58.0504 295.128C58.2919 294.986 58.4822 294.788 58.6214 294.536C58.7607 294.283 58.8288 293.994 58.826 293.67C58.8288 293.341 58.7592 293.048 58.6172 292.793C58.4751 292.537 58.2805 292.337 58.0334 292.192C57.7862 292.044 57.5021 291.97 57.1811 291.97C56.9197 291.967 56.6626 292.016 56.4098 292.115C56.157 292.214 55.9567 292.345 55.8089 292.507L54.3814 292.273L54.8374 287.773H59.8999V289.094H56.1456L55.8942 291.408H55.9453C56.1072 291.217 56.3359 291.06 56.6314 290.935C56.9268 290.807 57.2507 290.743 57.603 290.743C58.1314 290.743 58.603 290.868 59.0178 291.118C59.4325 291.365 59.7592 291.706 59.9979 292.141C60.2365 292.575 60.3558 293.072 60.3558 293.632C60.3558 294.209 60.2223 294.723 59.9553 295.175C59.6911 295.624 59.3232 295.977 58.8516 296.236C58.3828 296.491 57.8402 296.619 57.2237 296.619Z" fill="#6C7278"/>
<path d="M109 292C109 287.029 113.029 283 118 283H157C161.971 283 166 287.029 166 292V292C166 296.971 161.971 301 157 301H118C113.029 301 109 296.971 109 292V292Z" fill="#FFE7D1"/>
<path d="M341.557 296.5V295.358L344.587 292.388C344.876 292.095 345.118 291.835 345.311 291.608C345.504 291.381 345.649 291.161 345.746 290.947C345.842 290.734 345.891 290.507 345.891 290.266C345.891 289.99 345.828 289.754 345.703 289.558C345.578 289.359 345.406 289.206 345.188 289.098C344.969 288.99 344.72 288.936 344.442 288.936C344.155 288.936 343.903 288.996 343.688 289.115C343.472 289.232 343.304 289.398 343.185 289.614C343.068 289.83 343.01 290.087 343.01 290.385H341.506C341.506 289.831 341.632 289.349 341.885 288.94C342.138 288.531 342.486 288.214 342.929 287.99C343.375 287.766 343.886 287.653 344.463 287.653C345.048 287.653 345.563 287.763 346.006 287.982C346.449 288.2 346.793 288.5 347.037 288.881C347.284 289.261 347.408 289.696 347.408 290.185C347.408 290.511 347.345 290.832 347.22 291.148C347.095 291.463 346.875 291.812 346.56 292.196C346.247 292.58 345.808 293.044 345.243 293.589L343.739 295.119V295.179H347.54V296.5H341.557ZM352.56 287.773V296.5H350.979V289.311H350.928L348.886 290.615V289.166L351.055 287.773H352.56Z" fill="#6C7278"/>
<defs>
<filter id="filter0_d_2_139" x="14" y="18.5" width="34" height="34" filterUnits="userSpaceOnUse" color-interpolation-filters="sRGB">
<feFlood flood-opacity="0" result="BackgroundImageFix"/>
<feColorMatrix in="SourceAlpha" type="matrix" values="0 0 0 0 0 0 0 0 0 0 0 0 0 0 0 0 0 0 127 0" result="hardAlpha"/>
<feOffset dy="4"/>
<feGaussianBlur stdDeviation="2"/>
<feComposite in2="hardAlpha" operator="out"/>
<feColorMatrix type="matrix" values="0 0 0 0 0 0 0 0 0 0 0 0 0 0 0 0 0 0 0.05 0"/>
<feBlend mode="normal" in2="BackgroundImageFix" result="effect1_dropShadow_2_139"/>
<feBlend mode="normal" in="SourceGraphic" in2="effect1_dropShadow_2_139" result="shape"/>
</filter>
<filter id="filter1_d_2_139" x="74.2727" y="116.273" width="96.8626" height="28.8594" filterUnits="userSpaceOnUse" color-interpolation-filters="sRGB">
<feFlood flood-opacity="0" result="BackgroundImageFix"/>
<feColorMatrix in="SourceAlpha" type="matrix" values="0 0 0 0 0 0 0 0 0 0 0 0 0 0 0 0 0 0 127 0" result="hardAlpha"/>
<feOffset dy="4"/>
<feGaussianBlur stdDeviation="5"/>
<feComposite in2="hardAlpha" operator="out"/>
<feColorMatrix type="matrix" values="0 0 0 0 0 0 0 0 0 0 0 0 0 0 0 0 0 0 0.03 0"/>
<feBlend mode="normal" in2="BackgroundImageFix" result="effect1_dropShadow_2_139"/>
<feBlend mode="normal" in="SourceGraphic" in2="effect1_dropShadow_2_139" result="shape"/>
</filter>
</defs>
</svg>
