<svg width="910" height="132" viewBox="0 0 910 132" fill="none" xmlns="http://www.w3.org/2000/svg">
<rect width="910" height="132" rx="20" fill="white"/>
<g clip-path="url(#clip0_10_10081)">
<path d="M44 60C52.8366 60 60 52.8366 60 44C60 35.1634 52.8366 28 44 28C35.1634 28 28 35.1634 28 44C28 52.8366 35.1634 60 44 60Z" fill="#F7931A"/>
<path d="M51.032 42.02C51.346 39.924 49.749 38.797 47.567 38.045L48.275 35.205L46.547 34.775L45.857 37.54C45.403 37.426 44.937 37.32 44.472 37.214L45.167 34.431L43.439 34L42.731 36.839C42.355 36.753 41.985 36.669 41.627 36.579L41.629 36.57L39.245 35.975L38.785 37.821C38.785 37.821 40.068 38.115 40.041 38.133C40.741 38.308 40.867 38.771 40.846 39.139L40.04 42.374C40.088 42.386 40.15 42.404 40.22 42.431L40.037 42.386L38.907 46.918C38.821 47.13 38.604 47.449 38.114 47.328C38.132 47.353 36.858 47.015 36.858 47.015L36 48.993L38.25 49.554C38.668 49.659 39.078 49.769 39.481 49.872L38.766 52.744L40.493 53.174L41.201 50.334C41.673 50.461 42.131 50.579 42.579 50.691L41.873 53.519L43.601 53.949L44.316 51.083C47.264 51.641 49.48 51.416 50.413 48.75C51.165 46.604 50.376 45.365 48.825 44.558C49.955 44.298 50.805 43.555 51.032 42.02V42.02ZM47.082 47.558C46.549 49.705 42.934 48.544 41.762 48.253L42.712 44.448C43.884 44.741 47.641 45.32 47.082 47.558ZM47.617 41.989C47.13 43.942 44.122 42.949 43.147 42.706L44.007 39.256C44.982 39.499 48.125 39.952 47.617 41.989Z" fill="white"/>
</g>
<path d="M85.496 37.528C85.496 36.808 84.98 36.376 84.164 36.376H82.508V38.632H84.2C85.016 38.632 85.496 38.236 85.496 37.528ZM85.292 34.036C85.292 33.364 84.836 32.98 84.044 32.98H82.508V35.08H84.044C84.836 35.08 85.292 34.72 85.292 34.036ZM87.2 37.732C87.2 39.064 86.18 40 84.44 40H80.828V31.624H84.284C86.036 31.624 87.008 32.536 87.008 33.784C87.008 34.804 86.396 35.44 85.58 35.704C86.528 35.872 87.2 36.748 87.2 37.732ZM88.0949 32.98V31.624H94.2389V32.98H92.0069V40H90.3269V32.98H88.0949ZM95.0567 35.8C95.0567 33.292 96.8927 31.516 99.3047 31.516C101.165 31.516 102.677 32.512 103.241 34.228H101.309C100.913 33.424 100.193 33.028 99.2927 33.028C97.8287 33.028 96.7847 34.096 96.7847 35.8C96.7847 37.492 97.8287 38.572 99.2927 38.572C100.193 38.572 100.913 38.176 101.309 37.36H103.241C102.677 39.088 101.165 40.072 99.3047 40.072C96.8927 40.072 95.0567 38.308 95.0567 35.8ZM104.292 42.172L107.532 28.636H109.176L105.936 42.172H104.292ZM110.488 36.796V31.624H112.168V36.808C112.168 37.96 112.792 38.56 113.86 38.56C114.94 38.56 115.564 37.96 115.564 36.808V31.624H117.256V36.796C117.256 39.004 115.672 40.084 113.836 40.084C112 40.084 110.488 39.004 110.488 36.796ZM124.735 37.576C124.735 38.896 123.679 40.084 121.771 40.084C120.031 40.084 118.687 39.172 118.663 37.588H120.463C120.511 38.26 120.955 38.704 121.735 38.704C122.527 38.704 122.995 38.284 122.995 37.684C122.995 35.872 118.675 36.964 118.687 33.928C118.687 32.416 119.911 31.504 121.639 31.504C123.355 31.504 124.531 32.38 124.639 33.892H122.791C122.755 33.34 122.311 32.908 121.591 32.896C120.931 32.872 120.439 33.196 120.439 33.88C120.439 35.56 124.735 34.624 124.735 37.576ZM129.119 31.624C131.795 31.624 133.535 33.28 133.535 35.824C133.535 38.356 131.795 40 129.119 40H126.191V31.624H129.119ZM127.871 38.572H129.059C130.823 38.572 131.819 37.564 131.819 35.824C131.819 34.084 130.823 33.04 129.059 33.04H127.871V38.572ZM134.349 32.98V31.624H140.493V32.98H138.261V40H136.581V32.98H134.349Z" fill="#777E91"/>
<rect x="153" y="24" width="63" height="24" rx="12" fill="#58BD7D"/>
<path d="M164.252 32.668H165.836V34.996H168.104V36.46H165.836V38.788H164.252V36.46H161.984V34.996H164.252V32.668ZM169.746 33.556C169.83 31.936 170.982 31.048 172.662 31.048C174.462 31.048 175.422 32.068 175.422 33.364C175.422 34.456 174.738 35.128 174.102 35.344V35.392C174.99 35.668 175.578 36.388 175.578 37.576C175.578 39.004 174.57 40.06 172.734 40.06C171.006 40.06 169.698 39.196 169.626 37.36H171.258C171.294 38.116 171.798 38.656 172.698 38.656C173.538 38.656 173.97 38.128 173.97 37.432C173.97 36.448 173.346 36.088 172.098 36.088H171.75V34.708H172.098C173.082 34.708 173.802 34.432 173.802 33.568C173.802 32.884 173.382 32.476 172.614 32.476C171.798 32.476 171.45 33.004 171.39 33.556H169.746ZM178.862 39.1C178.862 39.652 178.43 40.084 177.842 40.084C177.23 40.084 176.798 39.652 176.798 39.1C176.798 38.548 177.23 38.116 177.842 38.116C178.43 38.116 178.862 38.548 178.862 39.1ZM180.047 33.556C180.131 31.936 181.283 31.048 182.963 31.048C184.763 31.048 185.723 32.068 185.723 33.364C185.723 34.456 185.039 35.128 184.403 35.344V35.392C185.291 35.668 185.879 36.388 185.879 37.576C185.879 39.004 184.871 40.06 183.035 40.06C181.307 40.06 179.999 39.196 179.927 37.36H181.559C181.595 38.116 182.099 38.656 182.999 38.656C183.839 38.656 184.271 38.128 184.271 37.432C184.271 36.448 183.647 36.088 182.399 36.088H182.051V34.708H182.399C183.383 34.708 184.103 34.432 184.103 33.568C184.103 32.884 183.683 32.476 182.915 32.476C182.099 32.476 181.751 33.004 181.691 33.556H180.047ZM193.302 33.436H191.742C191.586 32.788 191.238 32.428 190.482 32.428C189.39 32.428 188.886 33.244 188.862 35.26C189.258 34.6 190.05 34.24 190.902 34.24C192.462 34.24 193.554 35.272 193.554 37.096C193.554 38.788 192.51 40.024 190.638 40.024C188.046 40.024 187.398 38.2 187.398 35.488C187.398 32.632 188.322 31.048 190.542 31.048C192.33 31.048 193.17 32.2 193.302 33.436ZM190.518 35.62C189.738 35.62 189.018 36.076 189.018 37.072C189.018 38.008 189.57 38.596 190.554 38.596C191.418 38.596 191.958 38.032 191.958 37.132C191.958 36.232 191.49 35.62 190.518 35.62ZM194.69 33.4C194.69 32.152 195.506 31.456 196.598 31.456C197.69 31.456 198.506 32.152 198.506 33.4C198.506 34.66 197.69 35.356 196.598 35.356C195.506 35.356 194.69 34.66 194.69 33.4ZM196.586 32.464C196.178 32.464 195.926 32.74 195.926 33.4C195.926 34.06 196.178 34.348 196.586 34.348C197.006 34.348 197.27 34.06 197.27 33.4C197.27 32.74 197.006 32.464 196.586 32.464ZM196.046 40L200.75 31.6H202.394L197.678 40H196.046ZM199.958 38.188C199.958 36.928 200.774 36.244 201.866 36.244C202.946 36.244 203.75 36.928 203.75 38.188C203.75 39.46 202.946 40.144 201.866 40.144C200.774 40.144 199.958 39.46 199.958 38.188ZM201.854 37.252C201.434 37.252 201.17 37.528 201.17 38.188C201.17 38.86 201.434 39.136 201.854 39.136C202.262 39.136 202.526 38.86 202.526 38.188C202.526 37.528 202.262 37.252 201.854 37.252Z" fill="#FCFCFD"/>
<path d="M86.648 78.088V76.12C83.552 75.856 81.344 74.2 81.272 71.32H84.872C84.968 72.424 85.544 73.168 86.648 73.408V68.824C84.176 68.2 81.272 67.504 81.272 63.952C81.272 61.12 83.528 59.272 86.648 59.032V57.088H88.184V59.032C91.184 59.272 93.2 60.88 93.416 63.736H89.792C89.696 62.8 89.12 62.08 88.184 61.792V66.328C90.68 66.976 93.608 67.624 93.608 71.176C93.608 73.624 91.688 75.904 88.184 76.144V78.088H86.648ZM90.128 71.32C90.128 70.192 89.312 69.64 88.184 69.256V73.456C89.408 73.24 90.128 72.4 90.128 71.32ZM84.776 63.784C84.776 64.912 85.544 65.488 86.648 65.872V61.72C85.544 61.888 84.776 62.56 84.776 63.784ZM109.167 62.872H106.047C105.735 61.576 105.039 60.856 103.527 60.856C101.343 60.856 100.335 62.488 100.287 66.52C101.079 65.2 102.663 64.48 104.367 64.48C107.487 64.48 109.671 66.544 109.671 70.192C109.671 73.576 107.583 76.048 103.839 76.048C98.6551 76.048 97.3591 72.4 97.3591 66.976C97.3591 61.264 99.2071 58.096 103.647 58.096C107.223 58.096 108.903 60.4 109.167 62.872ZM103.599 67.24C102.039 67.24 100.599 68.152 100.599 70.144C100.599 72.016 101.703 73.192 103.671 73.192C105.399 73.192 106.479 72.064 106.479 70.264C106.479 68.464 105.543 67.24 103.599 67.24ZM124.519 62.872H121.399C121.087 61.576 120.391 60.856 118.879 60.856C116.695 60.856 115.687 62.488 115.639 66.52C116.431 65.2 118.015 64.48 119.719 64.48C122.839 64.48 125.023 66.544 125.023 70.192C125.023 73.576 122.935 76.048 119.191 76.048C114.007 76.048 112.711 72.4 112.711 66.976C112.711 61.264 114.559 58.096 118.999 58.096C122.575 58.096 124.255 60.4 124.519 62.872ZM118.951 67.24C117.391 67.24 115.951 68.152 115.951 70.144C115.951 72.016 117.055 73.192 119.023 73.192C120.751 73.192 121.831 72.064 121.831 70.264C121.831 68.464 120.895 67.24 118.951 67.24ZM126.694 79.456L128.302 72.304H131.854L128.878 79.456H126.694ZM133.795 67.024C133.795 61.96 135.331 58.168 140.275 58.168C145.219 58.168 146.755 61.96 146.755 67.024C146.755 72.136 145.219 75.952 140.275 75.952C135.331 75.952 133.795 72.136 133.795 67.024ZM143.443 67.024C143.443 64.024 143.107 61.288 140.275 61.288C137.443 61.288 137.107 64.024 137.107 67.024C137.107 70.144 137.443 72.832 140.275 72.832C143.107 72.832 143.443 70.144 143.443 67.024ZM149.359 63.112C149.527 59.872 151.831 58.096 155.191 58.096C158.791 58.096 160.711 60.136 160.711 62.728C160.711 64.912 159.343 66.256 158.071 66.688V66.784C159.847 67.336 161.023 68.776 161.023 71.152C161.023 74.008 159.007 76.12 155.335 76.12C151.879 76.12 149.263 74.392 149.119 70.72H152.383C152.455 72.232 153.463 73.312 155.263 73.312C156.943 73.312 157.807 72.256 157.807 70.864C157.807 68.896 156.559 68.176 154.063 68.176H153.367V65.416H154.063C156.031 65.416 157.471 64.864 157.471 63.136C157.471 61.768 156.631 60.952 155.095 60.952C153.463 60.952 152.767 62.008 152.647 63.112H149.359ZM164.59 58.456H175.438V61.408H167.662V65.512C168.31 64.72 169.63 64.096 171.094 64.096C175.174 64.096 176.566 67.168 176.566 69.88C176.566 73.456 174.502 76 170.518 76C166.75 76 164.59 73.912 164.302 71.056H167.566C167.854 72.28 168.838 73.168 170.47 73.168C172.438 73.168 173.326 71.776 173.326 69.928C173.326 67.96 172.342 66.88 170.446 66.88C169.054 66.88 168.166 67.648 167.806 68.728H164.59V58.456ZM183.036 74.2C183.036 75.304 182.172 76.168 180.996 76.168C179.772 76.168 178.908 75.304 178.908 74.2C178.908 73.096 179.772 72.232 180.996 72.232C182.172 72.232 183.036 73.096 183.036 74.2ZM186.27 58.456H197.118V61.408H189.342V65.512C189.99 64.72 191.31 64.096 192.774 64.096C196.854 64.096 198.246 67.168 198.246 69.88C198.246 73.456 196.182 76 192.198 76C188.43 76 186.27 73.912 185.982 71.056H189.246C189.534 72.28 190.518 73.168 192.15 73.168C194.118 73.168 195.006 71.776 195.006 69.928C195.006 67.96 194.022 66.88 192.126 66.88C190.734 66.88 189.846 67.648 189.486 68.728H186.27V58.456ZM200.851 63.112C201.019 59.872 203.323 58.096 206.683 58.096C210.283 58.096 212.203 60.136 212.203 62.728C212.203 64.912 210.835 66.256 209.563 66.688V66.784C211.339 67.336 212.515 68.776 212.515 71.152C212.515 74.008 210.499 76.12 206.827 76.12C203.371 76.12 200.755 74.392 200.611 70.72H203.875C203.947 72.232 204.955 73.312 206.755 73.312C208.435 73.312 209.299 72.256 209.299 70.864C209.299 68.896 208.051 68.176 205.555 68.176H204.859V65.416H205.555C207.523 65.416 208.963 64.864 208.963 63.136C208.963 61.768 208.123 60.952 206.587 60.952C204.955 60.952 204.259 62.008 204.139 63.112H200.851Z" fill="#23262F"/>
<path d="M83.204 103.044V102.072C81.764 101.94 80.756 101.1 80.732 99.828H81.896C81.956 100.452 82.352 101.04 83.204 101.172V98.172C82.004 97.86 80.72 97.512 80.72 95.856C80.72 94.56 81.704 93.636 83.204 93.54V92.544H83.852V93.54C85.22 93.66 86.096 94.464 86.216 95.676H85.052C84.98 95.16 84.584 94.62 83.852 94.464V97.392C85.04 97.692 86.324 98.04 86.324 99.708C86.324 100.824 85.484 101.964 83.852 102.072V103.044H83.204ZM85.232 99.768C85.232 98.916 84.62 98.58 83.852 98.352V101.184C84.74 101.088 85.232 100.488 85.232 99.768ZM81.836 95.796C81.836 96.648 82.436 96.972 83.204 97.212V94.44C82.4 94.512 81.836 94.944 81.836 95.796ZM88.1848 95.508C88.2928 94.02 89.4208 93.156 91.0288 93.156C92.7208 93.156 93.6448 94.14 93.6448 95.388C93.6448 96.384 93.0208 97.164 92.1088 97.368V97.428C93.1168 97.668 93.8008 98.412 93.8008 99.66C93.8008 101.004 92.8648 102.06 91.0528 102.06C89.4088 102.06 88.1848 101.184 88.0528 99.504H89.1088C89.2168 100.428 89.8888 101.136 91.0408 101.136C92.2048 101.136 92.7568 100.452 92.7568 99.564C92.7568 98.34 91.9048 97.872 90.3448 97.872H90.0688V96.96H90.3568C91.8088 96.948 92.5888 96.504 92.5888 95.496C92.5888 94.668 92.0368 94.092 90.9928 94.092C89.9728 94.092 89.3608 94.668 89.2528 95.508H88.1848ZM101.119 95.388H100.111C99.9433 94.548 99.4513 94.056 98.4673 94.056C97.0873 94.056 96.3433 95.004 96.3553 97.584C96.7273 96.732 97.6753 96.252 98.7073 96.252C100.327 96.252 101.419 97.32 101.419 99.144C101.419 100.728 100.483 102.024 98.5873 102.024C96.0193 102.024 95.4073 100.176 95.4073 97.548C95.4073 94.824 96.2833 93.144 98.4793 93.144C100.135 93.144 100.975 94.176 101.119 95.388ZM98.4793 97.176C97.4833 97.176 96.4873 97.764 96.4873 99.06C96.4873 100.212 97.1593 101.112 98.5273 101.112C99.6553 101.112 100.363 100.356 100.363 99.18C100.363 97.956 99.7273 97.176 98.4793 97.176ZM104.14 101.328C104.14 101.748 103.816 102.072 103.42 102.072C103 102.072 102.676 101.748 102.676 101.328C102.676 100.908 103 100.584 103.42 100.584C103.816 100.584 104.14 100.908 104.14 101.328ZM106.996 97.488C106.108 97.14 105.604 96.468 105.604 95.496C105.604 94.224 106.564 93.192 108.448 93.192C110.332 93.192 111.304 94.236 111.304 95.496C111.304 96.432 110.764 97.152 109.912 97.488C110.896 97.788 111.532 98.58 111.532 99.66C111.532 101.232 110.284 102.24 108.448 102.24C106.624 102.24 105.388 101.232 105.388 99.66C105.388 98.568 106.024 97.776 106.996 97.488ZM108.448 97.128C109.516 97.128 110.248 96.528 110.248 95.628C110.248 94.632 109.54 94.104 108.448 94.104C107.38 94.104 106.66 94.62 106.66 95.64C106.66 96.54 107.392 97.128 108.448 97.128ZM108.448 97.968C107.332 97.968 106.432 98.472 106.432 99.624C106.432 100.644 107.212 101.328 108.448 101.328C109.684 101.328 110.452 100.632 110.452 99.624C110.452 98.508 109.588 97.968 108.448 97.968ZM114.566 97.488C113.678 97.14 113.174 96.468 113.174 95.496C113.174 94.224 114.134 93.192 116.018 93.192C117.902 93.192 118.874 94.236 118.874 95.496C118.874 96.432 118.334 97.152 117.482 97.488C118.466 97.788 119.102 98.58 119.102 99.66C119.102 101.232 117.854 102.24 116.018 102.24C114.194 102.24 112.958 101.232 112.958 99.66C112.958 98.568 113.594 97.776 114.566 97.488ZM116.018 97.128C117.086 97.128 117.818 96.528 117.818 95.628C117.818 94.632 117.11 94.104 116.018 94.104C114.95 94.104 114.23 94.62 114.23 95.64C114.23 96.54 114.962 97.128 116.018 97.128ZM116.018 97.968C114.902 97.968 114.002 98.472 114.002 99.624C114.002 100.644 114.782 101.328 116.018 101.328C117.254 101.328 118.022 100.632 118.022 99.624C118.022 98.508 117.158 97.968 116.018 97.968ZM125.485 99.648C125.485 98.724 124.789 98.148 123.721 98.148H121.825V101.1H123.757C124.837 101.1 125.485 100.56 125.485 99.648ZM125.269 95.892C125.269 95.064 124.705 94.536 123.637 94.536H121.825V97.248H123.661C124.681 97.248 125.269 96.744 125.269 95.892ZM126.577 99.756C126.577 101.016 125.581 102 123.853 102H120.733V93.636H123.733C125.497 93.636 126.385 94.596 126.385 95.76C126.385 96.816 125.725 97.428 124.921 97.692C125.833 97.848 126.577 98.724 126.577 99.756ZM131.063 98.064V97.14H135.851V98.064H131.063ZM144.232 100.848L146.86 93.636H148.012L144.856 102H143.596L140.44 93.636H141.604L144.232 100.848ZM155.449 98.7C155.449 100.788 153.949 102.108 152.077 102.108C150.217 102.108 148.801 100.788 148.801 98.7C148.801 96.624 150.265 95.316 152.125 95.316C153.997 95.316 155.449 96.624 155.449 98.7ZM149.917 98.7C149.917 100.368 150.937 101.148 152.077 101.148C153.217 101.148 154.333 100.368 154.333 98.7C154.333 97.044 153.241 96.264 152.113 96.264C150.961 96.264 149.917 97.044 149.917 98.7ZM156.885 102V93.12H157.977V102H156.885ZM165.67 95.424V102H164.578V101.028C164.158 101.712 163.354 102.096 162.478 102.096C160.966 102.096 159.778 101.16 159.778 99.276V95.424H160.858V99.132C160.858 100.464 161.59 101.148 162.694 101.148C163.822 101.148 164.578 100.452 164.578 99.036V95.424H165.67ZM177.006 102V98.28C177.006 96.936 176.286 96.252 175.206 96.252C174.102 96.252 173.346 96.96 173.346 98.376V102H172.266V98.28C172.266 96.936 171.546 96.252 170.466 96.252C169.362 96.252 168.606 96.96 168.606 98.376V102H167.514V95.424H168.606V96.372C169.038 95.676 169.818 95.304 170.682 95.304C171.762 95.304 172.662 95.784 173.094 96.768C173.478 95.82 174.414 95.304 175.422 95.304C176.922 95.304 178.086 96.24 178.086 98.124V102H177.006ZM182.673 96.24C181.605 96.24 180.717 96.948 180.597 98.232H184.749C184.761 96.948 183.801 96.24 182.673 96.24ZM185.745 99.972C185.409 101.172 184.353 102.108 182.721 102.108C180.849 102.108 179.469 100.788 179.469 98.7C179.469 96.624 180.801 95.316 182.721 95.316C184.629 95.316 185.877 96.66 185.877 98.46C185.877 98.7 185.865 98.892 185.841 99.12H180.585C180.669 100.452 181.605 101.184 182.721 101.184C183.705 101.184 184.329 100.68 184.569 99.972H185.745ZM194.466 104.232H193.326C191.802 102.732 190.89 100.308 190.89 97.608C190.89 94.896 191.802 92.364 193.506 90.792H194.646V90.9C192.798 92.64 191.946 95.16 191.946 97.608C191.946 100.044 192.798 102.408 194.466 104.124V104.232ZM195.655 101.904V101.124C197.935 99.288 200.095 97.56 200.095 95.784C200.095 94.824 199.675 94.104 198.499 94.104C197.371 94.104 196.795 94.884 196.747 95.976H195.691C195.763 94.128 196.927 93.168 198.487 93.168C200.119 93.168 201.175 94.128 201.175 95.736C201.175 97.896 198.847 99.732 197.299 100.992H201.427V101.904H195.655ZM206.865 102V100.068H202.425V99.24L206.637 93.408H207.945V99.12H209.145V100.068H207.945V102H206.865ZM203.685 99.12H206.913V94.548L203.685 99.12ZM210.416 102V93.12H211.508V96.372C211.94 95.676 212.756 95.304 213.68 95.304C215.144 95.304 216.308 96.24 216.308 98.124V102H215.228V98.28C215.228 96.936 214.496 96.252 213.392 96.252C212.276 96.252 211.508 96.948 211.508 98.364V102H210.416ZM217.744 104.232V104.124C219.412 102.408 220.264 100.044 220.264 97.608C220.264 95.16 219.412 92.64 217.564 90.9V90.792H218.704C220.408 92.364 221.32 94.896 221.32 97.608C221.32 100.308 220.408 102.732 218.884 104.232H217.744Z" fill="#23262F"/>
<g clip-path="url(#clip1_10_10081)">
<path d="M387 60C395.837 60 403 52.8366 403 44C403 35.1634 395.837 28 387 28C378.163 28 371 35.1634 371 44C371 52.8366 378.163 60 387 60Z" fill="#627EEA"/>
<path d="M387 32V40.87L394.497 44.22L387 32Z" fill="white" fill-opacity="0.602"/>
<path d="M387.498 32L380 44.22L387.498 40.87V32Z" fill="white"/>
<path d="M387 50.352V56.379L394.502 46L387 50.352Z" fill="white" fill-opacity="0.602"/>
<path d="M387.498 56.379V50.351L380 46L387.498 56.379Z" fill="white"/>
<path d="M387 48.701L394.497 44.348L387 41V48.701Z" fill="white" fill-opacity="0.2"/>
<path d="M380 44.348L387.498 48.701V41L380 44.348Z" fill="white" fill-opacity="0.602"/>
</g>
<path d="M428.688 31.612V32.98H425.508V35.08H428.328V36.412H425.508V38.632H428.688V40H423.828V31.612H428.688ZM429.771 32.98V31.624H435.915V32.98H433.683V40H432.003V32.98H429.771ZM442.409 40V36.436H438.821V40H437.141V31.624H438.821V35.068H442.409V31.624H444.089V40H442.409ZM445.358 42.172L448.598 28.636H450.242L447.002 42.172H445.358ZM451.554 36.796V31.624H453.234V36.808C453.234 37.96 453.858 38.56 454.926 38.56C456.006 38.56 456.63 37.96 456.63 36.808V31.624H458.322V36.796C458.322 39.004 456.738 40.084 454.902 40.084C453.066 40.084 451.554 39.004 451.554 36.796ZM465.801 37.576C465.801 38.896 464.745 40.084 462.837 40.084C461.097 40.084 459.753 39.172 459.729 37.588H461.529C461.577 38.26 462.021 38.704 462.801 38.704C463.593 38.704 464.061 38.284 464.061 37.684C464.061 35.872 459.741 36.964 459.753 33.928C459.753 32.416 460.977 31.504 462.705 31.504C464.421 31.504 465.597 32.38 465.705 33.892H463.857C463.821 33.34 463.377 32.908 462.657 32.896C461.997 32.872 461.505 33.196 461.505 33.88C461.505 35.56 465.801 34.624 465.801 37.576ZM470.186 31.624C472.862 31.624 474.602 33.28 474.602 35.824C474.602 38.356 472.862 40 470.186 40H467.258V31.624H470.186ZM468.938 38.572H470.126C471.89 38.572 472.886 37.564 472.886 35.824C472.886 34.084 471.89 33.04 470.126 33.04H468.938V38.572ZM475.415 32.98V31.624H481.559V32.98H479.327V40H477.647V32.98H475.415Z" fill="#777E91"/>
<rect x="494" y="24" width="57" height="24" rx="12" fill="#FC5454"/>
<path d="M502.852 36.424V35.008H507.94V36.424H502.852ZM513.76 40V38.296H509.56V36.976L513.484 31.36H515.44V36.832H516.496V38.296H515.44V40H513.76ZM511.408 36.832H513.868V33.16L511.408 36.832ZM519.522 39.1C519.522 39.652 519.09 40.084 518.502 40.084C517.89 40.084 517.458 39.652 517.458 39.1C517.458 38.548 517.89 38.116 518.502 38.116C519.09 38.116 519.522 38.548 519.522 39.1ZM521.139 31.228H526.563V32.704H522.675V34.756C522.999 34.36 523.659 34.048 524.391 34.048C526.431 34.048 527.127 35.584 527.127 36.94C527.127 38.728 526.095 40 524.103 40C522.219 40 521.139 38.956 520.995 37.528H522.627C522.771 38.14 523.263 38.584 524.079 38.584C525.063 38.584 525.507 37.888 525.507 36.964C525.507 35.98 525.015 35.44 524.067 35.44C523.371 35.44 522.927 35.824 522.747 36.364H521.139V31.228ZM529.366 40V32.8H528.202V31.252H531.094V40H529.366ZM532.561 33.4C532.561 32.152 533.377 31.456 534.469 31.456C535.561 31.456 536.377 32.152 536.377 33.4C536.377 34.66 535.561 35.356 534.469 35.356C533.377 35.356 532.561 34.66 532.561 33.4ZM534.457 32.464C534.049 32.464 533.797 32.74 533.797 33.4C533.797 34.06 534.049 34.348 534.457 34.348C534.877 34.348 535.141 34.06 535.141 33.4C535.141 32.74 534.877 32.464 534.457 32.464ZM533.917 40L538.621 31.6H540.265L535.549 40H533.917ZM537.829 38.188C537.829 36.928 538.645 36.244 539.737 36.244C540.817 36.244 541.621 36.928 541.621 38.188C541.621 39.46 540.817 40.144 539.737 40.144C538.645 40.144 537.829 39.46 537.829 38.188ZM539.725 37.252C539.305 37.252 539.041 37.528 539.041 38.188C539.041 38.86 539.305 39.136 539.725 39.136C540.133 39.136 540.397 38.86 540.397 38.188C540.397 37.528 540.133 37.252 539.725 37.252Z" fill="#FCFCFD"/>
<path d="M429.648 78.088V76.12C426.552 75.856 424.344 74.2 424.272 71.32H427.872C427.968 72.424 428.544 73.168 429.648 73.408V68.824C427.176 68.2 424.272 67.504 424.272 63.952C424.272 61.12 426.528 59.272 429.648 59.032V57.088H431.184V59.032C434.184 59.272 436.2 60.88 436.416 63.736H432.792C432.696 62.8 432.12 62.08 431.184 61.792V66.328C433.68 66.976 436.608 67.624 436.608 71.176C436.608 73.624 434.688 75.904 431.184 76.144V78.088H429.648ZM433.128 71.32C433.128 70.192 432.312 69.64 431.184 69.256V73.456C432.408 73.24 433.128 72.4 433.128 71.32ZM427.776 63.784C427.776 64.912 428.544 65.488 429.648 65.872V61.72C428.544 61.888 427.776 62.56 427.776 63.784ZM439.783 75.76V73.264C443.743 69.904 447.895 66.808 447.895 63.592C447.895 62.032 447.199 60.976 445.543 60.976C443.935 60.976 443.047 62.128 443.023 63.976H439.759C439.879 59.968 442.447 58.12 445.591 58.12C449.359 58.12 451.255 60.352 451.255 63.4C451.255 67.456 447.343 70.624 444.559 72.976H451.639V75.76H439.783ZM452.772 79.456L454.38 72.304H457.932L454.956 79.456H452.772ZM459.874 67.024C459.874 61.96 461.41 58.168 466.354 58.168C471.298 58.168 472.834 61.96 472.834 67.024C472.834 72.136 471.298 75.952 466.354 75.952C461.41 75.952 459.874 72.136 459.874 67.024ZM469.522 67.024C469.522 64.024 469.186 61.288 466.354 61.288C463.522 61.288 463.186 64.024 463.186 67.024C463.186 70.144 463.522 72.832 466.354 72.832C469.186 72.832 469.522 70.144 469.522 67.024ZM475.197 75.76V73.264C479.157 69.904 483.309 66.808 483.309 63.592C483.309 62.032 482.613 60.976 480.957 60.976C479.349 60.976 478.461 62.128 478.437 63.976H475.173C475.293 59.968 477.861 58.12 481.005 58.12C484.773 58.12 486.669 60.352 486.669 63.4C486.669 67.456 482.757 70.624 479.973 72.976H487.053V75.76H475.197ZM488.738 58.552H500.306V61.048L493.922 76H490.514L496.946 61.432H488.738V58.552ZM506.231 74.2C506.231 75.304 505.367 76.168 504.191 76.168C502.967 76.168 502.103 75.304 502.103 74.2C502.103 73.096 502.967 72.232 504.191 72.232C505.367 72.232 506.231 73.096 506.231 74.2ZM508.361 75.76V73.264C512.321 69.904 516.473 66.808 516.473 63.592C516.473 62.032 515.777 60.976 514.121 60.976C512.513 60.976 511.625 62.128 511.601 63.976H508.337C508.457 59.968 511.025 58.12 514.169 58.12C517.937 58.12 519.833 60.352 519.833 63.4C519.833 67.456 515.921 70.624 513.137 72.976H520.217V75.76H508.361ZM522.335 67.024C522.335 61.96 523.871 58.168 528.815 58.168C533.759 58.168 535.295 61.96 535.295 67.024C535.295 72.136 533.759 75.952 528.815 75.952C523.871 75.952 522.335 72.136 522.335 67.024ZM531.983 67.024C531.983 64.024 531.647 61.288 528.815 61.288C525.983 61.288 525.647 64.024 525.647 67.024C525.647 70.144 525.983 72.832 528.815 72.832C531.647 72.832 531.983 70.144 531.983 67.024Z" fill="#23262F"/>
<path d="M426.204 103.044V102.072C424.764 101.94 423.756 101.1 423.732 99.828H424.896C424.956 100.452 425.352 101.04 426.204 101.172V98.172C425.004 97.86 423.72 97.512 423.72 95.856C423.72 94.56 424.704 93.636 426.204 93.54V92.544H426.852V93.54C428.22 93.66 429.096 94.464 429.216 95.676H428.052C427.98 95.16 427.584 94.62 426.852 94.464V97.392C428.04 97.692 429.324 98.04 429.324 99.708C429.324 100.824 428.484 101.964 426.852 102.072V103.044H426.204ZM428.232 99.768C428.232 98.916 427.62 98.58 426.852 98.352V101.184C427.74 101.088 428.232 100.488 428.232 99.768ZM424.836 95.796C424.836 96.648 425.436 96.972 426.204 97.212V94.44C425.4 94.512 424.836 94.944 424.836 95.796ZM431.185 95.508C431.293 94.02 432.421 93.156 434.029 93.156C435.721 93.156 436.645 94.14 436.645 95.388C436.645 96.384 436.021 97.164 435.109 97.368V97.428C436.117 97.668 436.801 98.412 436.801 99.66C436.801 101.004 435.865 102.06 434.053 102.06C432.409 102.06 431.185 101.184 431.053 99.504H432.109C432.217 100.428 432.889 101.136 434.041 101.136C435.205 101.136 435.757 100.452 435.757 99.564C435.757 98.34 434.905 97.872 433.345 97.872H433.069V96.96H433.357C434.809 96.948 435.589 96.504 435.589 95.496C435.589 94.668 435.037 94.092 433.993 94.092C432.973 94.092 432.361 94.668 432.253 95.508H431.185ZM439.139 102V94.32H437.987V93.324H440.243V102H439.139ZM443.367 101.328C443.367 101.748 443.043 102.072 442.647 102.072C442.227 102.072 441.903 101.748 441.903 101.328C441.903 100.908 442.227 100.584 442.647 100.584C443.043 100.584 443.367 100.908 443.367 101.328ZM445.503 102V94.32H444.351V93.324H446.607V102H445.503ZM448.794 93.312H454.014V94.272H449.802V97.008C450.162 96.516 450.93 96.132 451.782 96.132C453.894 96.132 454.566 97.656 454.566 99C454.566 100.68 453.63 102.024 451.602 102.024C449.874 102.024 448.83 101.052 448.614 99.648H449.682C449.886 100.56 450.594 101.1 451.614 101.1C452.934 101.1 453.522 100.212 453.522 99.024C453.522 97.788 452.886 97.068 451.626 97.068C450.75 97.068 450.114 97.524 449.826 98.208H448.794V93.312ZM460.949 99.648C460.949 98.724 460.253 98.148 459.185 98.148H457.289V101.1H459.221C460.301 101.1 460.949 100.56 460.949 99.648ZM460.733 95.892C460.733 95.064 460.169 94.536 459.101 94.536H457.289V97.248H459.125C460.145 97.248 460.733 96.744 460.733 95.892ZM462.041 99.756C462.041 101.016 461.045 102 459.317 102H456.197V93.636H459.197C460.961 93.636 461.849 94.596 461.849 95.76C461.849 96.816 461.189 97.428 460.385 97.692C461.297 97.848 462.041 98.724 462.041 99.756ZM466.528 98.064V97.14H471.316V98.064H466.528ZM479.697 100.848L482.325 93.636H483.477L480.321 102H479.061L475.905 93.636H477.069L479.697 100.848ZM490.914 98.7C490.914 100.788 489.414 102.108 487.542 102.108C485.682 102.108 484.266 100.788 484.266 98.7C484.266 96.624 485.73 95.316 487.59 95.316C489.462 95.316 490.914 96.624 490.914 98.7ZM485.382 98.7C485.382 100.368 486.402 101.148 487.542 101.148C488.682 101.148 489.798 100.368 489.798 98.7C489.798 97.044 488.706 96.264 487.578 96.264C486.426 96.264 485.382 97.044 485.382 98.7ZM492.35 102V93.12H493.442V102H492.35ZM501.135 95.424V102H500.043V101.028C499.623 101.712 498.819 102.096 497.943 102.096C496.431 102.096 495.243 101.16 495.243 99.276V95.424H496.323V99.132C496.323 100.464 497.055 101.148 498.159 101.148C499.287 101.148 500.043 100.452 500.043 99.036V95.424H501.135ZM512.471 102V98.28C512.471 96.936 511.751 96.252 510.671 96.252C509.567 96.252 508.811 96.96 508.811 98.376V102H507.731V98.28C507.731 96.936 507.011 96.252 505.931 96.252C504.827 96.252 504.071 96.96 504.071 98.376V102H502.979V95.424H504.071V96.372C504.503 95.676 505.283 95.304 506.147 95.304C507.227 95.304 508.127 95.784 508.559 96.768C508.943 95.82 509.879 95.304 510.887 95.304C512.387 95.304 513.551 96.24 513.551 98.124V102H512.471ZM518.138 96.24C517.07 96.24 516.182 96.948 516.062 98.232H520.214C520.226 96.948 519.266 96.24 518.138 96.24ZM521.21 99.972C520.874 101.172 519.818 102.108 518.186 102.108C516.314 102.108 514.934 100.788 514.934 98.7C514.934 96.624 516.266 95.316 518.186 95.316C520.094 95.316 521.342 96.66 521.342 98.46C521.342 98.7 521.33 98.892 521.306 99.12H516.05C516.134 100.452 517.07 101.184 518.186 101.184C519.17 101.184 519.794 100.68 520.034 99.972H521.21ZM529.931 104.232H528.791C527.267 102.732 526.355 100.308 526.355 97.608C526.355 94.896 527.267 92.364 528.971 90.792H530.111V90.9C528.263 92.64 527.411 95.16 527.411 97.608C527.411 100.044 528.263 102.408 529.931 104.124V104.232ZM531.12 101.904V101.124C533.4 99.288 535.56 97.56 535.56 95.784C535.56 94.824 535.14 94.104 533.964 94.104C532.836 94.104 532.26 94.884 532.212 95.976H531.156C531.228 94.128 532.392 93.168 533.952 93.168C535.584 93.168 536.64 94.128 536.64 95.736C536.64 97.896 534.312 99.732 532.764 100.992H536.892V101.904H531.12ZM542.33 102V100.068H537.89V99.24L542.102 93.408H543.41V99.12H544.61V100.068H543.41V102H542.33ZM539.15 99.12H542.378V94.548L539.15 99.12ZM545.881 102V93.12H546.973V96.372C547.405 95.676 548.221 95.304 549.145 95.304C550.609 95.304 551.773 96.24 551.773 98.124V102H550.693V98.28C550.693 96.936 549.961 96.252 548.857 96.252C547.741 96.252 546.973 96.948 546.973 98.364V102H545.881ZM553.209 104.232V104.124C554.877 102.408 555.729 100.044 555.729 97.608C555.729 95.16 554.877 92.64 553.029 90.9V90.792H554.169C555.873 92.364 556.785 94.896 556.785 97.608C556.785 100.308 555.873 102.732 554.349 104.232H553.209Z" fill="#23262F"/>
<g clip-path="url(#clip2_10_10081)">
<path d="M719 56C727.837 56 735 48.8366 735 40C735 31.1634 727.837 24 719 24C710.163 24 703 31.1634 703 40C703 48.8366 710.163 56 719 56Z" fill="#23292F"/>
<path d="M726.07 32H728.96L722.945 37.957C721.893 38.9931 720.476 39.5739 719 39.5739C717.524 39.5739 716.107 38.9931 715.055 37.957L709.035 32H711.93L716.5 36.523C717.165 37.1799 718.063 37.5482 718.998 37.5482C719.933 37.5482 720.831 37.1799 721.496 36.523L726.07 32ZM711.895 48.563H709L715.055 42.57C716.107 41.5339 717.524 40.9531 719 40.9531C720.476 40.9531 721.893 41.5339 722.945 42.57L729 48.562H726.105L721.5 44C720.835 43.3431 719.937 42.9748 719.002 42.9748C718.067 42.9748 717.169 43.3431 716.504 44L711.894 48.563H711.895Z" fill="white"/>
</g>
<path d="M756.844 40L755.032 37.18L753.388 40H751.492L754.132 35.776L751.456 31.624H753.388L755.2 34.432L756.832 31.624H758.728L756.1 35.836L758.776 40H756.844ZM764.495 34.228C764.495 33.484 764.075 33.016 763.139 33.016H761.735V35.476H763.139C764.075 35.476 764.495 34.984 764.495 34.228ZM760.055 31.624H763.199C765.215 31.624 766.223 32.788 766.223 34.192C766.223 35.212 765.659 36.244 764.315 36.604L766.319 40H764.375L762.527 36.736H761.735V40H760.055V31.624ZM769.422 35.428H770.754C771.702 35.428 772.122 34.96 772.122 34.216C772.122 33.448 771.702 32.992 770.754 32.992H769.422V35.428ZM773.85 34.216C773.85 35.488 772.986 36.784 770.826 36.784H769.422V40H767.742V31.624H770.826C772.842 31.624 773.85 32.764 773.85 34.216ZM774.659 42.172L777.899 28.636H779.543L776.303 42.172H774.659ZM780.855 36.796V31.624H782.535V36.808C782.535 37.96 783.159 38.56 784.227 38.56C785.307 38.56 785.931 37.96 785.931 36.808V31.624H787.623V36.796C787.623 39.004 786.039 40.084 784.203 40.084C782.367 40.084 780.855 39.004 780.855 36.796ZM795.102 37.576C795.102 38.896 794.046 40.084 792.138 40.084C790.398 40.084 789.054 39.172 789.03 37.588H790.83C790.878 38.26 791.322 38.704 792.102 38.704C792.894 38.704 793.362 38.284 793.362 37.684C793.362 35.872 789.042 36.964 789.054 33.928C789.054 32.416 790.278 31.504 792.006 31.504C793.722 31.504 794.898 32.38 795.006 33.892H793.158C793.122 33.34 792.678 32.908 791.958 32.896C791.298 32.872 790.806 33.196 790.806 33.88C790.806 35.56 795.102 34.624 795.102 37.576ZM799.486 31.624C802.162 31.624 803.902 33.28 803.902 35.824C803.902 38.356 802.162 40 799.486 40H796.558V31.624H799.486ZM798.238 38.572H799.426C801.19 38.572 802.186 37.564 802.186 35.824C802.186 34.084 801.19 33.04 799.426 33.04H798.238V38.572ZM804.716 32.98V31.624H810.86V32.98H808.628V40H806.948V32.98H804.716Z" fill="#777E91"/>
<rect x="824" y="24" width="58" height="24" rx="12" fill="#58BD7D"/>
<path d="M835.252 32.668H836.836V34.996H839.104V36.46H836.836V38.788H835.252V36.46H832.984V34.996H835.252V32.668ZM844.85 40V38.296H840.65V36.976L844.574 31.36H846.53V36.832H847.586V38.296H846.53V40H844.85ZM842.498 36.832H844.958V33.16L842.498 36.832ZM850.612 39.1C850.612 39.652 850.18 40.084 849.592 40.084C848.98 40.084 848.548 39.652 848.548 39.1C848.548 38.548 848.98 38.116 849.592 38.116C850.18 38.116 850.612 38.548 850.612 39.1ZM857.869 33.436H856.309C856.153 32.788 855.805 32.428 855.049 32.428C853.957 32.428 853.453 33.244 853.429 35.26C853.825 34.6 854.617 34.24 855.469 34.24C857.029 34.24 858.121 35.272 858.121 37.096C858.121 38.788 857.077 40.024 855.205 40.024C852.613 40.024 851.965 38.2 851.965 35.488C851.965 32.632 852.889 31.048 855.109 31.048C856.897 31.048 857.737 32.2 857.869 33.436ZM855.085 35.62C854.305 35.62 853.585 36.076 853.585 37.072C853.585 38.008 854.137 38.596 855.121 38.596C855.985 38.596 856.525 38.032 856.525 37.132C856.525 36.232 856.057 35.62 855.085 35.62ZM860.409 40V32.8H859.245V31.252H862.137V40H860.409ZM863.604 33.4C863.604 32.152 864.42 31.456 865.512 31.456C866.604 31.456 867.42 32.152 867.42 33.4C867.42 34.66 866.604 35.356 865.512 35.356C864.42 35.356 863.604 34.66 863.604 33.4ZM865.5 32.464C865.092 32.464 864.84 32.74 864.84 33.4C864.84 34.06 865.092 34.348 865.5 34.348C865.92 34.348 866.184 34.06 866.184 33.4C866.184 32.74 865.92 32.464 865.5 32.464ZM864.96 40L869.664 31.6H871.308L866.592 40H864.96ZM868.872 38.188C868.872 36.928 869.688 36.244 870.78 36.244C871.86 36.244 872.664 36.928 872.664 38.188C872.664 39.46 871.86 40.144 870.78 40.144C869.688 40.144 868.872 39.46 868.872 38.188ZM870.768 37.252C870.348 37.252 870.084 37.528 870.084 38.188C870.084 38.86 870.348 39.136 870.768 39.136C871.176 39.136 871.44 38.86 871.44 38.188C871.44 37.528 871.176 37.252 870.768 37.252Z" fill="#FCFCFD"/>
<path d="M757.648 78.088V76.12C754.552 75.856 752.344 74.2 752.272 71.32H755.872C755.968 72.424 756.544 73.168 757.648 73.408V68.824C755.176 68.2 752.272 67.504 752.272 63.952C752.272 61.12 754.528 59.272 757.648 59.032V57.088H759.184V59.032C762.184 59.272 764.2 60.88 764.416 63.736H760.792C760.696 62.8 760.12 62.08 759.184 61.792V66.328C761.68 66.976 764.608 67.624 764.608 71.176C764.608 73.624 762.688 75.904 759.184 76.144V78.088H757.648ZM761.128 71.32C761.128 70.192 760.312 69.64 759.184 69.256V73.456C760.408 73.24 761.128 72.4 761.128 71.32ZM755.776 63.784C755.776 64.912 756.544 65.488 757.648 65.872V61.72C756.544 61.888 755.776 62.56 755.776 63.784ZM769.895 76V61.6H767.567V58.504H773.351V76H769.895ZM780.582 74.2C780.582 75.304 779.718 76.168 778.542 76.168C777.318 76.168 776.454 75.304 776.454 74.2C776.454 73.096 777.318 72.232 778.542 72.232C779.718 72.232 780.582 73.096 780.582 74.2ZM782.713 75.76V73.264C786.673 69.904 790.825 66.808 790.825 63.592C790.825 62.032 790.129 60.976 788.473 60.976C786.865 60.976 785.977 62.128 785.953 63.976H782.689C782.809 59.968 785.377 58.12 788.521 58.12C792.289 58.12 794.185 60.352 794.185 63.4C794.185 67.456 790.273 70.624 787.489 72.976H794.569V75.76H782.713ZM799.614 66.736C798.174 65.992 797.214 64.768 797.214 62.872C797.214 60.352 799.134 58.168 803.118 58.168C807.102 58.168 809.022 60.376 809.022 62.872C809.022 64.72 808.014 66.04 806.646 66.736C808.374 67.48 809.454 68.992 809.454 71.032C809.454 74.368 806.718 76.384 803.118 76.384C799.542 76.384 796.806 74.368 796.806 71.032C796.806 68.968 797.886 67.456 799.614 66.736ZM803.118 65.752C804.654 65.752 805.758 64.792 805.758 63.352C805.758 61.768 804.726 60.88 803.118 60.88C801.558 60.88 800.502 61.744 800.502 63.376C800.502 64.816 801.606 65.752 803.118 65.752ZM803.118 68.2C801.366 68.2 800.046 69.112 800.046 70.888C800.046 72.448 801.198 73.6 803.118 73.6C805.038 73.6 806.166 72.424 806.166 70.888C806.166 69.16 804.918 68.2 803.118 68.2Z" fill="#23262F"/>
<path d="M754.204 103.044V102.072C752.764 101.94 751.756 101.1 751.732 99.828H752.896C752.956 100.452 753.352 101.04 754.204 101.172V98.172C753.004 97.86 751.72 97.512 751.72 95.856C751.72 94.56 752.704 93.636 754.204 93.54V92.544H754.852V93.54C756.22 93.66 757.096 94.464 757.216 95.676H756.052C755.98 95.16 755.584 94.62 754.852 94.464V97.392C756.04 97.692 757.324 98.04 757.324 99.708C757.324 100.824 756.484 101.964 754.852 102.072V103.044H754.204ZM756.232 99.768C756.232 98.916 755.62 98.58 754.852 98.352V101.184C755.74 101.088 756.232 100.488 756.232 99.768ZM752.836 95.796C752.836 96.648 753.436 96.972 754.204 97.212V94.44C753.4 94.512 752.836 94.944 752.836 95.796ZM759.077 101.904V101.124C761.357 99.288 763.517 97.56 763.517 95.784C763.517 94.824 763.097 94.104 761.921 94.104C760.793 94.104 760.217 94.884 760.169 95.976H759.113C759.185 94.128 760.349 93.168 761.909 93.168C763.541 93.168 764.597 94.128 764.597 95.736C764.597 97.896 762.269 99.732 760.721 100.992H764.849V101.904H759.077ZM767.359 101.328C767.359 101.748 767.035 102.072 766.639 102.072C766.219 102.072 765.895 101.748 765.895 101.328C765.895 100.908 766.219 100.584 766.639 100.584C767.035 100.584 767.359 100.908 767.359 101.328ZM768.631 97.572C768.631 95.088 769.255 93.192 771.655 93.192C774.043 93.192 774.667 95.088 774.667 97.572C774.667 100.092 774.043 102 771.655 102C769.255 102 768.631 100.092 768.631 97.572ZM773.587 97.572C773.587 95.772 773.359 94.188 771.655 94.188C769.939 94.188 769.711 95.772 769.711 97.572C769.711 99.444 769.939 101.004 771.655 101.004C773.359 101.004 773.587 99.444 773.587 97.572ZM776.562 99.672H777.57C777.726 100.572 778.302 101.1 779.31 101.1C780.582 101.1 781.266 100.236 781.23 97.692C780.882 98.424 780.018 98.844 779.082 98.844C777.486 98.844 776.298 97.848 776.298 96.012C776.298 94.356 777.282 93.156 779.154 93.156C781.506 93.156 782.19 94.812 782.19 97.5C782.19 100.392 781.53 102.012 779.25 102.012C777.522 102.012 776.682 100.944 776.562 99.672ZM779.262 97.92C780.306 97.92 781.098 97.236 781.098 96.072C781.098 94.896 780.426 94.068 779.178 94.068C778.05 94.068 777.342 94.836 777.342 95.988C777.342 97.104 777.966 97.92 779.262 97.92ZM788.656 99.648C788.656 98.724 787.96 98.148 786.892 98.148H784.996V101.1H786.928C788.008 101.1 788.656 100.56 788.656 99.648ZM788.44 95.892C788.44 95.064 787.876 94.536 786.808 94.536H784.996V97.248H786.832C787.852 97.248 788.44 96.744 788.44 95.892ZM789.748 99.756C789.748 101.016 788.752 102 787.024 102H783.904V93.636H786.904C788.668 93.636 789.556 94.596 789.556 95.76C789.556 96.816 788.896 97.428 788.092 97.692C789.004 97.848 789.748 98.724 789.748 99.756ZM794.235 98.064V97.14H799.023V98.064H794.235ZM807.404 100.848L810.032 93.636H811.184L808.028 102H806.768L803.612 93.636H804.776L807.404 100.848ZM818.621 98.7C818.621 100.788 817.121 102.108 815.249 102.108C813.389 102.108 811.973 100.788 811.973 98.7C811.973 96.624 813.437 95.316 815.297 95.316C817.169 95.316 818.621 96.624 818.621 98.7ZM813.089 98.7C813.089 100.368 814.109 101.148 815.249 101.148C816.389 101.148 817.505 100.368 817.505 98.7C817.505 97.044 816.413 96.264 815.285 96.264C814.133 96.264 813.089 97.044 813.089 98.7ZM820.057 102V93.12H821.149V102H820.057ZM828.842 95.424V102H827.75V101.028C827.33 101.712 826.526 102.096 825.65 102.096C824.138 102.096 822.95 101.16 822.95 99.276V95.424H824.03V99.132C824.03 100.464 824.762 101.148 825.866 101.148C826.994 101.148 827.75 100.452 827.75 99.036V95.424H828.842ZM840.178 102V98.28C840.178 96.936 839.458 96.252 838.378 96.252C837.274 96.252 836.518 96.96 836.518 98.376V102H835.438V98.28C835.438 96.936 834.718 96.252 833.638 96.252C832.534 96.252 831.778 96.96 831.778 98.376V102H830.686V95.424H831.778V96.372C832.21 95.676 832.99 95.304 833.854 95.304C834.934 95.304 835.834 95.784 836.266 96.768C836.65 95.82 837.586 95.304 838.594 95.304C840.094 95.304 841.258 96.24 841.258 98.124V102H840.178ZM845.845 96.24C844.777 96.24 843.889 96.948 843.769 98.232H847.921C847.933 96.948 846.973 96.24 845.845 96.24ZM848.917 99.972C848.581 101.172 847.525 102.108 845.893 102.108C844.021 102.108 842.641 100.788 842.641 98.7C842.641 96.624 843.973 95.316 845.893 95.316C847.801 95.316 849.049 96.66 849.049 98.46C849.049 98.7 849.037 98.892 849.013 99.12H843.757C843.841 100.452 844.777 101.184 845.893 101.184C846.877 101.184 847.501 100.68 847.741 99.972H848.917ZM857.638 104.232H856.498C854.974 102.732 854.062 100.308 854.062 97.608C854.062 94.896 854.974 92.364 856.678 90.792H857.818V90.9C855.97 92.64 855.118 95.16 855.118 97.608C855.118 100.044 855.97 102.408 857.638 104.124V104.232ZM858.827 101.904V101.124C861.107 99.288 863.267 97.56 863.267 95.784C863.267 94.824 862.847 94.104 861.671 94.104C860.543 94.104 859.967 94.884 859.919 95.976H858.863C858.935 94.128 860.099 93.168 861.659 93.168C863.291 93.168 864.347 94.128 864.347 95.736C864.347 97.896 862.019 99.732 860.471 100.992H864.599V101.904H858.827ZM870.037 102V100.068H865.597V99.24L869.809 93.408H871.117V99.12H872.317V100.068H871.117V102H870.037ZM866.857 99.12H870.085V94.548L866.857 99.12ZM873.588 102V93.12H874.68V96.372C875.112 95.676 875.928 95.304 876.852 95.304C878.316 95.304 879.48 96.24 879.48 98.124V102H878.4V98.28C878.4 96.936 877.668 96.252 876.564 96.252C875.448 96.252 874.68 96.948 874.68 98.364V102H873.588ZM880.916 104.232V104.124C882.584 102.408 883.436 100.044 883.436 97.608C883.436 95.16 882.584 92.64 880.736 90.9V90.792H881.876C883.58 92.364 884.492 94.896 884.492 97.608C884.492 100.308 883.58 102.732 882.056 104.232H880.916Z" fill="#23262F"/>
<defs>
<clipPath id="clip0_10_10081">
<rect width="32" height="32" fill="white" transform="translate(28 28)"/>
</clipPath>
<clipPath id="clip1_10_10081">
<rect width="32" height="32" fill="white" transform="translate(371 28)"/>
</clipPath>
<clipPath id="clip2_10_10081">
<rect width="32" height="32" fill="white" transform="translate(703 24)"/>
</clipPath>
</defs>
</svg>
