<svg width="978" height="260" viewBox="0 0 978 260" fill="none" xmlns="http://www.w3.org/2000/svg">
<g filter="url(#filter0_d_5_620)">
<path d="M894 0H84C72.9543 0 64 8.9543 64 20V112C64 123.046 72.9543 132 84 132H894C905.046 132 914 123.046 914 112V20C914 8.9543 905.046 0 894 0Z" fill="#FCFCFD"/>
<path d="M894 0.5H84C73.2304 0.5 64.5 9.23045 64.5 20V112C64.5 122.77 73.2304 131.5 84 131.5H894C904.77 131.5 913.5 122.77 913.5 112V20C913.5 9.23045 904.77 0.5 894 0.5Z" stroke="#F4F5F6"/>
<mask id="mask0_5_620" style="mask-type:luminance" maskUnits="userSpaceOnUse" x="92" y="28" width="32" height="32">
<path d="M124 28H92V60H124V28Z" fill="white"/>
</mask>
<g mask="url(#mask0_5_620)">
<path d="M108 60C116.837 60 124 52.8366 124 44C124 35.1634 116.837 28 108 28C99.1634 28 92 35.1634 92 44C92 52.8366 99.1634 60 108 60Z" fill="#F7931A"/>
<path d="M115.032 42.02C115.346 39.924 113.749 38.797 111.567 38.045L112.275 35.205L110.547 34.775L109.857 37.54C109.403 37.426 108.937 37.32 108.472 37.214L109.167 34.431L107.439 34L106.731 36.839C106.355 36.753 105.985 36.669 105.627 36.579L105.629 36.57L103.245 35.975L102.785 37.821C102.785 37.821 104.068 38.115 104.041 38.133C104.741 38.308 104.867 38.771 104.846 39.139L104.04 42.374C104.088 42.386 104.15 42.404 104.22 42.431L104.037 42.386L102.907 46.918C102.821 47.13 102.604 47.449 102.114 47.328C102.132 47.353 100.858 47.015 100.858 47.015L100 48.993L102.25 49.554C102.668 49.659 103.078 49.769 103.481 49.872L102.766 52.744L104.493 53.174L105.201 50.334C105.673 50.461 106.131 50.579 106.579 50.691L105.873 53.519L107.601 53.949L108.316 51.083C111.264 51.641 113.48 51.416 114.413 48.75C115.165 46.604 114.376 45.365 112.825 44.558C113.955 44.298 114.805 43.555 115.032 42.02ZM111.082 47.558C110.549 49.705 106.934 48.544 105.762 48.253L106.712 44.448C107.884 44.741 111.641 45.32 111.082 47.558ZM111.617 41.989C111.13 43.942 108.122 42.949 107.147 42.706L108.007 39.256C108.982 39.499 112.125 39.952 111.617 41.989Z" fill="white"/>
</g>
<path d="M149.496 37.528C149.496 36.808 148.98 36.376 148.164 36.376H146.508V38.632H148.2C149.016 38.632 149.496 38.236 149.496 37.528ZM149.292 34.036C149.292 33.364 148.836 32.98 148.044 32.98H146.508V35.08H148.044C148.836 35.08 149.292 34.72 149.292 34.036ZM151.2 37.732C151.2 39.064 150.18 40 148.44 40H144.828V31.624H148.284C150.036 31.624 151.008 32.536 151.008 33.784C151.008 34.804 150.396 35.44 149.58 35.704C150.528 35.872 151.2 36.748 151.2 37.732ZM152.095 32.98V31.624H158.239V32.98H156.007V40H154.327V32.98H152.095ZM159.057 35.8C159.057 33.292 160.893 31.516 163.305 31.516C165.165 31.516 166.677 32.512 167.241 34.228H165.309C164.913 33.424 164.193 33.028 163.293 33.028C161.829 33.028 160.785 34.096 160.785 35.8C160.785 37.492 161.829 38.572 163.293 38.572C164.193 38.572 164.913 38.176 165.309 37.36H167.241C166.677 39.088 165.165 40.072 163.305 40.072C160.893 40.072 159.057 38.308 159.057 35.8ZM168.292 42.172L171.532 28.636H173.176L169.936 42.172H168.292ZM174.488 36.796V31.624H176.168V36.808C176.168 37.96 176.792 38.56 177.86 38.56C178.94 38.56 179.564 37.96 179.564 36.808V31.624H181.256V36.796C181.256 39.004 179.672 40.084 177.836 40.084C176 40.084 174.488 39.004 174.488 36.796ZM188.735 37.576C188.735 38.896 187.679 40.084 185.771 40.084C184.031 40.084 182.687 39.172 182.663 37.588H184.463C184.511 38.26 184.955 38.704 185.735 38.704C186.527 38.704 186.995 38.284 186.995 37.684C186.995 35.872 182.675 36.964 182.687 33.928C182.687 32.416 183.911 31.504 185.639 31.504C187.355 31.504 188.531 32.38 188.639 33.892H186.791C186.755 33.34 186.311 32.908 185.591 32.896C184.931 32.872 184.439 33.196 184.439 33.88C184.439 35.56 188.735 34.624 188.735 37.576ZM193.119 31.624C195.795 31.624 197.535 33.28 197.535 35.824C197.535 38.356 195.795 40 193.119 40H190.191V31.624H193.119ZM191.871 38.572H193.059C194.823 38.572 195.819 37.564 195.819 35.824C195.819 34.084 194.823 33.04 193.059 33.04H191.871V38.572ZM198.349 32.98V31.624H204.493V32.98H202.261V40H200.581V32.98H198.349Z" fill="#777E91"/>
<path d="M268 24H229C222.373 24 217 29.3726 217 36C217 42.6274 222.373 48 229 48H268C274.627 48 280 42.6274 280 36C280 29.3726 274.627 24 268 24Z" fill="#58BD7D"/>
<path d="M228.252 32.668H229.836V34.996H232.104V36.46H229.836V38.788H228.252V36.46H225.984V34.996H228.252V32.668ZM233.746 33.556C233.83 31.936 234.982 31.048 236.662 31.048C238.462 31.048 239.422 32.068 239.422 33.364C239.422 34.456 238.738 35.128 238.102 35.344V35.392C238.99 35.668 239.578 36.388 239.578 37.576C239.578 39.004 238.57 40.06 236.734 40.06C235.006 40.06 233.698 39.196 233.626 37.36H235.258C235.294 38.116 235.798 38.656 236.698 38.656C237.538 38.656 237.97 38.128 237.97 37.432C237.97 36.448 237.346 36.088 236.098 36.088H235.75V34.708H236.098C237.082 34.708 237.802 34.432 237.802 33.568C237.802 32.884 237.382 32.476 236.614 32.476C235.798 32.476 235.45 33.004 235.39 33.556H233.746ZM242.862 39.1C242.862 39.652 242.43 40.084 241.842 40.084C241.23 40.084 240.798 39.652 240.798 39.1C240.798 38.548 241.23 38.116 241.842 38.116C242.43 38.116 242.862 38.548 242.862 39.1ZM244.047 33.556C244.131 31.936 245.283 31.048 246.963 31.048C248.763 31.048 249.723 32.068 249.723 33.364C249.723 34.456 249.039 35.128 248.403 35.344V35.392C249.291 35.668 249.879 36.388 249.879 37.576C249.879 39.004 248.871 40.06 247.035 40.06C245.307 40.06 243.999 39.196 243.927 37.36H245.559C245.595 38.116 246.099 38.656 246.999 38.656C247.839 38.656 248.271 38.128 248.271 37.432C248.271 36.448 247.647 36.088 246.399 36.088H246.051V34.708H246.399C247.383 34.708 248.103 34.432 248.103 33.568C248.103 32.884 247.683 32.476 246.915 32.476C246.099 32.476 245.751 33.004 245.691 33.556H244.047ZM257.302 33.436H255.742C255.586 32.788 255.238 32.428 254.482 32.428C253.39 32.428 252.886 33.244 252.862 35.26C253.258 34.6 254.05 34.24 254.902 34.24C256.462 34.24 257.554 35.272 257.554 37.096C257.554 38.788 256.51 40.024 254.638 40.024C252.046 40.024 251.398 38.2 251.398 35.488C251.398 32.632 252.322 31.048 254.542 31.048C256.33 31.048 257.17 32.2 257.302 33.436ZM254.518 35.62C253.738 35.62 253.018 36.076 253.018 37.072C253.018 38.008 253.57 38.596 254.554 38.596C255.418 38.596 255.958 38.032 255.958 37.132C255.958 36.232 255.49 35.62 254.518 35.62ZM258.69 33.4C258.69 32.152 259.506 31.456 260.598 31.456C261.69 31.456 262.506 32.152 262.506 33.4C262.506 34.66 261.69 35.356 260.598 35.356C259.506 35.356 258.69 34.66 258.69 33.4ZM260.586 32.464C260.178 32.464 259.926 32.74 259.926 33.4C259.926 34.06 260.178 34.348 260.586 34.348C261.006 34.348 261.27 34.06 261.27 33.4C261.27 32.74 261.006 32.464 260.586 32.464ZM260.046 40L264.75 31.6H266.394L261.678 40H260.046ZM263.958 38.188C263.958 36.928 264.774 36.244 265.866 36.244C266.946 36.244 267.75 36.928 267.75 38.188C267.75 39.46 266.946 40.144 265.866 40.144C264.774 40.144 263.958 39.46 263.958 38.188ZM265.854 37.252C265.434 37.252 265.17 37.528 265.17 38.188C265.17 38.86 265.434 39.136 265.854 39.136C266.262 39.136 266.526 38.86 266.526 38.188C266.526 37.528 266.262 37.252 265.854 37.252Z" fill="#FCFCFD"/>
<path d="M150.648 78.088V76.12C147.552 75.856 145.344 74.2 145.272 71.32H148.872C148.968 72.424 149.544 73.168 150.648 73.408V68.824C148.176 68.2 145.272 67.504 145.272 63.952C145.272 61.12 147.528 59.272 150.648 59.032V57.088H152.184V59.032C155.184 59.272 157.2 60.88 157.416 63.736H153.792C153.696 62.8 153.12 62.08 152.184 61.792V66.328C154.68 66.976 157.608 67.624 157.608 71.176C157.608 73.624 155.688 75.904 152.184 76.144V78.088H150.648ZM154.128 71.32C154.128 70.192 153.312 69.64 152.184 69.256V73.456C153.408 73.24 154.128 72.4 154.128 71.32ZM148.776 63.784C148.776 64.912 149.544 65.488 150.648 65.872V61.72C149.544 61.888 148.776 62.56 148.776 63.784ZM173.167 62.872H170.047C169.735 61.576 169.039 60.856 167.527 60.856C165.343 60.856 164.335 62.488 164.287 66.52C165.079 65.2 166.663 64.48 168.367 64.48C171.487 64.48 173.671 66.544 173.671 70.192C173.671 73.576 171.583 76.048 167.839 76.048C162.655 76.048 161.359 72.4 161.359 66.976C161.359 61.264 163.207 58.096 167.647 58.096C171.223 58.096 172.903 60.4 173.167 62.872ZM167.599 67.24C166.039 67.24 164.599 68.152 164.599 70.144C164.599 72.016 165.703 73.192 167.671 73.192C169.399 73.192 170.479 72.064 170.479 70.264C170.479 68.464 169.543 67.24 167.599 67.24ZM188.519 62.872H185.399C185.087 61.576 184.391 60.856 182.879 60.856C180.695 60.856 179.687 62.488 179.639 66.52C180.431 65.2 182.015 64.48 183.719 64.48C186.839 64.48 189.023 66.544 189.023 70.192C189.023 73.576 186.935 76.048 183.191 76.048C178.007 76.048 176.711 72.4 176.711 66.976C176.711 61.264 178.559 58.096 182.999 58.096C186.575 58.096 188.255 60.4 188.519 62.872ZM182.951 67.24C181.391 67.24 179.951 68.152 179.951 70.144C179.951 72.016 181.055 73.192 183.023 73.192C184.751 73.192 185.831 72.064 185.831 70.264C185.831 68.464 184.895 67.24 182.951 67.24ZM190.694 79.456L192.302 72.304H195.854L192.878 79.456H190.694ZM197.795 67.024C197.795 61.96 199.331 58.168 204.275 58.168C209.219 58.168 210.755 61.96 210.755 67.024C210.755 72.136 209.219 75.952 204.275 75.952C199.331 75.952 197.795 72.136 197.795 67.024ZM207.443 67.024C207.443 64.024 207.107 61.288 204.275 61.288C201.443 61.288 201.107 64.024 201.107 67.024C201.107 70.144 201.443 72.832 204.275 72.832C207.107 72.832 207.443 70.144 207.443 67.024ZM213.359 63.112C213.527 59.872 215.831 58.096 219.191 58.096C222.791 58.096 224.711 60.136 224.711 62.728C224.711 64.912 223.343 66.256 222.071 66.688V66.784C223.847 67.336 225.023 68.776 225.023 71.152C225.023 74.008 223.007 76.12 219.335 76.12C215.879 76.12 213.263 74.392 213.119 70.72H216.383C216.455 72.232 217.463 73.312 219.263 73.312C220.943 73.312 221.807 72.256 221.807 70.864C221.807 68.896 220.559 68.176 218.063 68.176H217.367V65.416H218.063C220.031 65.416 221.471 64.864 221.471 63.136C221.471 61.768 220.631 60.952 219.095 60.952C217.463 60.952 216.767 62.008 216.647 63.112H213.359ZM228.59 58.456H239.438V61.408H231.662V65.512C232.31 64.72 233.63 64.096 235.094 64.096C239.174 64.096 240.566 67.168 240.566 69.88C240.566 73.456 238.502 76 234.518 76C230.75 76 228.59 73.912 228.302 71.056H231.566C231.854 72.28 232.838 73.168 234.47 73.168C236.438 73.168 237.326 71.776 237.326 69.928C237.326 67.96 236.342 66.88 234.446 66.88C233.054 66.88 232.166 67.648 231.806 68.728H228.59V58.456ZM247.036 74.2C247.036 75.304 246.172 76.168 244.996 76.168C243.772 76.168 242.908 75.304 242.908 74.2C242.908 73.096 243.772 72.232 244.996 72.232C246.172 72.232 247.036 73.096 247.036 74.2ZM250.27 58.456H261.118V61.408H253.342V65.512C253.99 64.72 255.31 64.096 256.774 64.096C260.854 64.096 262.246 67.168 262.246 69.88C262.246 73.456 260.182 76 256.198 76C252.43 76 250.27 73.912 249.982 71.056H253.246C253.534 72.28 254.518 73.168 256.15 73.168C258.118 73.168 259.006 71.776 259.006 69.928C259.006 67.96 258.022 66.88 256.126 66.88C254.734 66.88 253.846 67.648 253.486 68.728H250.27V58.456ZM264.851 63.112C265.019 59.872 267.323 58.096 270.683 58.096C274.283 58.096 276.203 60.136 276.203 62.728C276.203 64.912 274.835 66.256 273.563 66.688V66.784C275.339 67.336 276.515 68.776 276.515 71.152C276.515 74.008 274.499 76.12 270.827 76.12C267.371 76.12 264.755 74.392 264.611 70.72H267.875C267.947 72.232 268.955 73.312 270.755 73.312C272.435 73.312 273.299 72.256 273.299 70.864C273.299 68.896 272.051 68.176 269.555 68.176H268.859V65.416H269.555C271.523 65.416 272.963 64.864 272.963 63.136C272.963 61.768 272.123 60.952 270.587 60.952C268.955 60.952 268.259 62.008 268.139 63.112H264.851Z" fill="#23262F"/>
<path d="M147.204 103.044V102.072C145.764 101.94 144.756 101.1 144.732 99.828H145.896C145.956 100.452 146.352 101.04 147.204 101.172V98.172C146.004 97.86 144.72 97.512 144.72 95.856C144.72 94.56 145.704 93.636 147.204 93.54V92.544H147.852V93.54C149.22 93.66 150.096 94.464 150.216 95.676H149.052C148.98 95.16 148.584 94.62 147.852 94.464V97.392C149.04 97.692 150.324 98.04 150.324 99.708C150.324 100.824 149.484 101.964 147.852 102.072V103.044H147.204ZM149.232 99.768C149.232 98.916 148.62 98.58 147.852 98.352V101.184C148.74 101.088 149.232 100.488 149.232 99.768ZM145.836 95.796C145.836 96.648 146.436 96.972 147.204 97.212V94.44C146.4 94.512 145.836 94.944 145.836 95.796ZM152.185 95.508C152.293 94.02 153.421 93.156 155.029 93.156C156.721 93.156 157.645 94.14 157.645 95.388C157.645 96.384 157.021 97.164 156.109 97.368V97.428C157.117 97.668 157.801 98.412 157.801 99.66C157.801 101.004 156.865 102.06 155.053 102.06C153.409 102.06 152.185 101.184 152.053 99.504H153.109C153.217 100.428 153.889 101.136 155.041 101.136C156.205 101.136 156.757 100.452 156.757 99.564C156.757 98.34 155.905 97.872 154.345 97.872H154.069V96.96H154.357C155.809 96.948 156.589 96.504 156.589 95.496C156.589 94.668 156.037 94.092 154.993 94.092C153.973 94.092 153.361 94.668 153.253 95.508H152.185ZM165.119 95.388H164.111C163.943 94.548 163.451 94.056 162.467 94.056C161.087 94.056 160.343 95.004 160.355 97.584C160.727 96.732 161.675 96.252 162.707 96.252C164.327 96.252 165.419 97.32 165.419 99.144C165.419 100.728 164.483 102.024 162.587 102.024C160.019 102.024 159.407 100.176 159.407 97.548C159.407 94.824 160.283 93.144 162.479 93.144C164.135 93.144 164.975 94.176 165.119 95.388ZM162.479 97.176C161.483 97.176 160.487 97.764 160.487 99.06C160.487 100.212 161.159 101.112 162.527 101.112C163.655 101.112 164.363 100.356 164.363 99.18C164.363 97.956 163.727 97.176 162.479 97.176ZM168.14 101.328C168.14 101.748 167.816 102.072 167.42 102.072C167 102.072 166.676 101.748 166.676 101.328C166.676 100.908 167 100.584 167.42 100.584C167.816 100.584 168.14 100.908 168.14 101.328ZM170.996 97.488C170.108 97.14 169.604 96.468 169.604 95.496C169.604 94.224 170.564 93.192 172.448 93.192C174.332 93.192 175.304 94.236 175.304 95.496C175.304 96.432 174.764 97.152 173.912 97.488C174.896 97.788 175.532 98.58 175.532 99.66C175.532 101.232 174.284 102.24 172.448 102.24C170.624 102.24 169.388 101.232 169.388 99.66C169.388 98.568 170.024 97.776 170.996 97.488ZM172.448 97.128C173.516 97.128 174.248 96.528 174.248 95.628C174.248 94.632 173.54 94.104 172.448 94.104C171.38 94.104 170.66 94.62 170.66 95.64C170.66 96.54 171.392 97.128 172.448 97.128ZM172.448 97.968C171.332 97.968 170.432 98.472 170.432 99.624C170.432 100.644 171.212 101.328 172.448 101.328C173.684 101.328 174.452 100.632 174.452 99.624C174.452 98.508 173.588 97.968 172.448 97.968ZM178.566 97.488C177.678 97.14 177.174 96.468 177.174 95.496C177.174 94.224 178.134 93.192 180.018 93.192C181.902 93.192 182.874 94.236 182.874 95.496C182.874 96.432 182.334 97.152 181.482 97.488C182.466 97.788 183.102 98.58 183.102 99.66C183.102 101.232 181.854 102.24 180.018 102.24C178.194 102.24 176.958 101.232 176.958 99.66C176.958 98.568 177.594 97.776 178.566 97.488ZM180.018 97.128C181.086 97.128 181.818 96.528 181.818 95.628C181.818 94.632 181.11 94.104 180.018 94.104C178.95 94.104 178.23 94.62 178.23 95.64C178.23 96.54 178.962 97.128 180.018 97.128ZM180.018 97.968C178.902 97.968 178.002 98.472 178.002 99.624C178.002 100.644 178.782 101.328 180.018 101.328C181.254 101.328 182.022 100.632 182.022 99.624C182.022 98.508 181.158 97.968 180.018 97.968ZM189.485 99.648C189.485 98.724 188.789 98.148 187.721 98.148H185.825V101.1H187.757C188.837 101.1 189.485 100.56 189.485 99.648ZM189.269 95.892C189.269 95.064 188.705 94.536 187.637 94.536H185.825V97.248H187.661C188.681 97.248 189.269 96.744 189.269 95.892ZM190.577 99.756C190.577 101.016 189.581 102 187.853 102H184.733V93.636H187.733C189.497 93.636 190.385 94.596 190.385 95.76C190.385 96.816 189.725 97.428 188.921 97.692C189.833 97.848 190.577 98.724 190.577 99.756ZM195.063 98.064V97.14H199.851V98.064H195.063ZM208.232 100.848L210.86 93.636H212.012L208.856 102H207.596L204.44 93.636H205.604L208.232 100.848ZM219.449 98.7C219.449 100.788 217.949 102.108 216.077 102.108C214.217 102.108 212.801 100.788 212.801 98.7C212.801 96.624 214.265 95.316 216.125 95.316C217.997 95.316 219.449 96.624 219.449 98.7ZM213.917 98.7C213.917 100.368 214.937 101.148 216.077 101.148C217.217 101.148 218.333 100.368 218.333 98.7C218.333 97.044 217.241 96.264 216.113 96.264C214.961 96.264 213.917 97.044 213.917 98.7ZM220.885 102V93.12H221.977V102H220.885ZM229.67 95.424V102H228.578V101.028C228.158 101.712 227.354 102.096 226.478 102.096C224.966 102.096 223.778 101.16 223.778 99.276V95.424H224.858V99.132C224.858 100.464 225.59 101.148 226.694 101.148C227.822 101.148 228.578 100.452 228.578 99.036V95.424H229.67ZM241.006 102V98.28C241.006 96.936 240.286 96.252 239.206 96.252C238.102 96.252 237.346 96.96 237.346 98.376V102H236.266V98.28C236.266 96.936 235.546 96.252 234.466 96.252C233.362 96.252 232.606 96.96 232.606 98.376V102H231.514V95.424H232.606V96.372C233.038 95.676 233.818 95.304 234.682 95.304C235.762 95.304 236.662 95.784 237.094 96.768C237.478 95.82 238.414 95.304 239.422 95.304C240.922 95.304 242.086 96.24 242.086 98.124V102H241.006ZM246.673 96.24C245.605 96.24 244.717 96.948 244.597 98.232H248.749C248.761 96.948 247.801 96.24 246.673 96.24ZM249.745 99.972C249.409 101.172 248.353 102.108 246.721 102.108C244.849 102.108 243.469 100.788 243.469 98.7C243.469 96.624 244.801 95.316 246.721 95.316C248.629 95.316 249.877 96.66 249.877 98.46C249.877 98.7 249.865 98.892 249.841 99.12H244.585C244.669 100.452 245.605 101.184 246.721 101.184C247.705 101.184 248.329 100.68 248.569 99.972H249.745ZM258.466 104.232H257.326C255.802 102.732 254.89 100.308 254.89 97.608C254.89 94.896 255.802 92.364 257.506 90.792H258.646V90.9C256.798 92.64 255.946 95.16 255.946 97.608C255.946 100.044 256.798 102.408 258.466 104.124V104.232ZM259.655 101.904V101.124C261.935 99.288 264.095 97.56 264.095 95.784C264.095 94.824 263.675 94.104 262.499 94.104C261.371 94.104 260.795 94.884 260.747 95.976H259.691C259.763 94.128 260.927 93.168 262.487 93.168C264.119 93.168 265.175 94.128 265.175 95.736C265.175 97.896 262.847 99.732 261.299 100.992H265.427V101.904H259.655ZM270.865 102V100.068H266.425V99.24L270.637 93.408H271.945V99.12H273.145V100.068H271.945V102H270.865ZM267.685 99.12H270.913V94.548L267.685 99.12ZM274.416 102V93.12H275.508V96.372C275.94 95.676 276.756 95.304 277.68 95.304C279.144 95.304 280.308 96.24 280.308 98.124V102H279.228V98.28C279.228 96.936 278.496 96.252 277.392 96.252C276.276 96.252 275.508 96.948 275.508 98.364V102H274.416ZM281.744 104.232V104.124C283.412 102.408 284.264 100.044 284.264 97.608C284.264 95.16 283.412 92.64 281.564 90.9V90.792H282.704C284.408 92.364 285.32 94.896 285.32 97.608C285.32 100.308 284.408 102.732 282.884 104.232H281.744Z" fill="#23262F"/>
<mask id="mask1_5_620" style="mask-type:luminance" maskUnits="userSpaceOnUse" x="405" y="28" width="32" height="32">
<path d="M437 28H405V60H437V28Z" fill="white"/>
</mask>
<g mask="url(#mask1_5_620)">
<path d="M421 60C429.837 60 437 52.8366 437 44C437 35.1634 429.837 28 421 28C412.163 28 405 35.1634 405 44C405 52.8366 412.163 60 421 60Z" fill="#627EEA"/>
<path d="M421 32V40.87L428.497 44.22L421 32Z" fill="white" fill-opacity="0.602"/>
<path d="M421.498 32L414 44.22L421.498 40.87V32Z" fill="white"/>
<path d="M421 50.352V56.379L428.502 46L421 50.352Z" fill="white" fill-opacity="0.602"/>
<path d="M421.498 56.379V50.351L414 46L421.498 56.379Z" fill="white"/>
<path d="M421 48.701L428.497 44.348L421 41V48.701Z" fill="white" fill-opacity="0.2"/>
<path d="M414 44.348L421.498 48.701V41L414 44.348Z" fill="white" fill-opacity="0.602"/>
</g>
<path d="M462.688 31.612V32.98H459.508V35.08H462.328V36.412H459.508V38.632H462.688V40H457.828V31.612H462.688ZM463.771 32.98V31.624H469.915V32.98H467.683V40H466.003V32.98H463.771ZM476.409 40V36.436H472.821V40H471.141V31.624H472.821V35.068H476.409V31.624H478.089V40H476.409ZM479.358 42.172L482.598 28.636H484.242L481.002 42.172H479.358ZM485.554 36.796V31.624H487.234V36.808C487.234 37.96 487.858 38.56 488.926 38.56C490.006 38.56 490.63 37.96 490.63 36.808V31.624H492.322V36.796C492.322 39.004 490.738 40.084 488.902 40.084C487.066 40.084 485.554 39.004 485.554 36.796ZM499.801 37.576C499.801 38.896 498.745 40.084 496.837 40.084C495.097 40.084 493.753 39.172 493.729 37.588H495.529C495.577 38.26 496.021 38.704 496.801 38.704C497.593 38.704 498.061 38.284 498.061 37.684C498.061 35.872 493.741 36.964 493.753 33.928C493.753 32.416 494.977 31.504 496.705 31.504C498.421 31.504 499.597 32.38 499.705 33.892H497.857C497.821 33.34 497.377 32.908 496.657 32.896C495.997 32.872 495.505 33.196 495.505 33.88C495.505 35.56 499.801 34.624 499.801 37.576ZM504.186 31.624C506.862 31.624 508.602 33.28 508.602 35.824C508.602 38.356 506.862 40 504.186 40H501.258V31.624H504.186ZM502.938 38.572H504.126C505.89 38.572 506.886 37.564 506.886 35.824C506.886 34.084 505.89 33.04 504.126 33.04H502.938V38.572ZM509.415 32.98V31.624H515.559V32.98H513.327V40H511.647V32.98H509.415Z" fill="#777E91"/>
<path d="M573 24H540C533.373 24 528 29.3726 528 36C528 42.6274 533.373 48 540 48H573C579.627 48 585 42.6274 585 36C585 29.3726 579.627 24 573 24Z" fill="#FC5454"/>
<path d="M536.852 36.424V35.008H541.94V36.424H536.852ZM547.76 40V38.296H543.56V36.976L547.484 31.36H549.44V36.832H550.496V38.296H549.44V40H547.76ZM545.408 36.832H547.868V33.16L545.408 36.832ZM553.522 39.1C553.522 39.652 553.09 40.084 552.502 40.084C551.89 40.084 551.458 39.652 551.458 39.1C551.458 38.548 551.89 38.116 552.502 38.116C553.09 38.116 553.522 38.548 553.522 39.1ZM555.139 31.228H560.563V32.704H556.675V34.756C556.999 34.36 557.659 34.048 558.391 34.048C560.431 34.048 561.127 35.584 561.127 36.94C561.127 38.728 560.095 40 558.103 40C556.219 40 555.139 38.956 554.995 37.528H556.627C556.771 38.14 557.263 38.584 558.079 38.584C559.063 38.584 559.507 37.888 559.507 36.964C559.507 35.98 559.015 35.44 558.067 35.44C557.371 35.44 556.927 35.824 556.747 36.364H555.139V31.228ZM563.366 40V32.8H562.202V31.252H565.094V40H563.366ZM566.561 33.4C566.561 32.152 567.377 31.456 568.469 31.456C569.561 31.456 570.377 32.152 570.377 33.4C570.377 34.66 569.561 35.356 568.469 35.356C567.377 35.356 566.561 34.66 566.561 33.4ZM568.457 32.464C568.049 32.464 567.797 32.74 567.797 33.4C567.797 34.06 568.049 34.348 568.457 34.348C568.877 34.348 569.141 34.06 569.141 33.4C569.141 32.74 568.877 32.464 568.457 32.464ZM567.917 40L572.621 31.6H574.265L569.549 40H567.917ZM571.829 38.188C571.829 36.928 572.645 36.244 573.737 36.244C574.817 36.244 575.621 36.928 575.621 38.188C575.621 39.46 574.817 40.144 573.737 40.144C572.645 40.144 571.829 39.46 571.829 38.188ZM573.725 37.252C573.305 37.252 573.041 37.528 573.041 38.188C573.041 38.86 573.305 39.136 573.725 39.136C574.133 39.136 574.397 38.86 574.397 38.188C574.397 37.528 574.133 37.252 573.725 37.252Z" fill="#FCFCFD"/>
<path d="M463.648 78.088V76.12C460.552 75.856 458.344 74.2 458.272 71.32H461.872C461.968 72.424 462.544 73.168 463.648 73.408V68.824C461.176 68.2 458.272 67.504 458.272 63.952C458.272 61.12 460.528 59.272 463.648 59.032V57.088H465.184V59.032C468.184 59.272 470.2 60.88 470.416 63.736H466.792C466.696 62.8 466.12 62.08 465.184 61.792V66.328C467.68 66.976 470.608 67.624 470.608 71.176C470.608 73.624 468.688 75.904 465.184 76.144V78.088H463.648ZM467.128 71.32C467.128 70.192 466.312 69.64 465.184 69.256V73.456C466.408 73.24 467.128 72.4 467.128 71.32ZM461.776 63.784C461.776 64.912 462.544 65.488 463.648 65.872V61.72C462.544 61.888 461.776 62.56 461.776 63.784ZM473.783 75.76V73.264C477.743 69.904 481.895 66.808 481.895 63.592C481.895 62.032 481.199 60.976 479.543 60.976C477.935 60.976 477.047 62.128 477.023 63.976H473.759C473.879 59.968 476.447 58.12 479.591 58.12C483.359 58.12 485.255 60.352 485.255 63.4C485.255 67.456 481.343 70.624 478.559 72.976H485.639V75.76H473.783ZM486.772 79.456L488.38 72.304H491.932L488.956 79.456H486.772ZM493.874 67.024C493.874 61.96 495.41 58.168 500.354 58.168C505.298 58.168 506.834 61.96 506.834 67.024C506.834 72.136 505.298 75.952 500.354 75.952C495.41 75.952 493.874 72.136 493.874 67.024ZM503.522 67.024C503.522 64.024 503.186 61.288 500.354 61.288C497.522 61.288 497.186 64.024 497.186 67.024C497.186 70.144 497.522 72.832 500.354 72.832C503.186 72.832 503.522 70.144 503.522 67.024ZM509.197 75.76V73.264C513.157 69.904 517.309 66.808 517.309 63.592C517.309 62.032 516.613 60.976 514.957 60.976C513.349 60.976 512.461 62.128 512.437 63.976H509.173C509.293 59.968 511.861 58.12 515.005 58.12C518.773 58.12 520.669 60.352 520.669 63.4C520.669 67.456 516.757 70.624 513.973 72.976H521.053V75.76H509.197ZM522.738 58.552H534.306V61.048L527.922 76H524.514L530.946 61.432H522.738V58.552ZM540.231 74.2C540.231 75.304 539.367 76.168 538.191 76.168C536.967 76.168 536.103 75.304 536.103 74.2C536.103 73.096 536.967 72.232 538.191 72.232C539.367 72.232 540.231 73.096 540.231 74.2ZM542.361 75.76V73.264C546.321 69.904 550.473 66.808 550.473 63.592C550.473 62.032 549.777 60.976 548.121 60.976C546.513 60.976 545.625 62.128 545.601 63.976H542.337C542.457 59.968 545.025 58.12 548.169 58.12C551.937 58.12 553.833 60.352 553.833 63.4C553.833 67.456 549.921 70.624 547.137 72.976H554.217V75.76H542.361ZM556.335 67.024C556.335 61.96 557.871 58.168 562.815 58.168C567.759 58.168 569.295 61.96 569.295 67.024C569.295 72.136 567.759 75.952 562.815 75.952C557.871 75.952 556.335 72.136 556.335 67.024ZM565.983 67.024C565.983 64.024 565.647 61.288 562.815 61.288C559.983 61.288 559.647 64.024 559.647 67.024C559.647 70.144 559.983 72.832 562.815 72.832C565.647 72.832 565.983 70.144 565.983 67.024Z" fill="#23262F"/>
<path d="M460.204 103.044V102.072C458.764 101.94 457.756 101.1 457.732 99.828H458.896C458.956 100.452 459.352 101.04 460.204 101.172V98.172C459.004 97.86 457.72 97.512 457.72 95.856C457.72 94.56 458.704 93.636 460.204 93.54V92.544H460.852V93.54C462.22 93.66 463.096 94.464 463.216 95.676H462.052C461.98 95.16 461.584 94.62 460.852 94.464V97.392C462.04 97.692 463.324 98.04 463.324 99.708C463.324 100.824 462.484 101.964 460.852 102.072V103.044H460.204ZM462.232 99.768C462.232 98.916 461.62 98.58 460.852 98.352V101.184C461.74 101.088 462.232 100.488 462.232 99.768ZM458.836 95.796C458.836 96.648 459.436 96.972 460.204 97.212V94.44C459.4 94.512 458.836 94.944 458.836 95.796ZM465.185 95.508C465.293 94.02 466.421 93.156 468.029 93.156C469.721 93.156 470.645 94.14 470.645 95.388C470.645 96.384 470.021 97.164 469.109 97.368V97.428C470.117 97.668 470.801 98.412 470.801 99.66C470.801 101.004 469.865 102.06 468.053 102.06C466.409 102.06 465.185 101.184 465.053 99.504H466.109C466.217 100.428 466.889 101.136 468.041 101.136C469.205 101.136 469.757 100.452 469.757 99.564C469.757 98.34 468.905 97.872 467.345 97.872H467.069V96.96H467.357C468.809 96.948 469.589 96.504 469.589 95.496C469.589 94.668 469.037 94.092 467.993 94.092C466.973 94.092 466.361 94.668 466.253 95.508H465.185ZM473.139 102V94.32H471.987V93.324H474.243V102H473.139ZM477.367 101.328C477.367 101.748 477.043 102.072 476.647 102.072C476.227 102.072 475.903 101.748 475.903 101.328C475.903 100.908 476.227 100.584 476.647 100.584C477.043 100.584 477.367 100.908 477.367 101.328ZM479.503 102V94.32H478.351V93.324H480.607V102H479.503ZM482.794 93.312H488.014V94.272H483.802V97.008C484.162 96.516 484.93 96.132 485.782 96.132C487.894 96.132 488.566 97.656 488.566 99C488.566 100.68 487.63 102.024 485.602 102.024C483.874 102.024 482.83 101.052 482.614 99.648H483.682C483.886 100.56 484.594 101.1 485.614 101.1C486.934 101.1 487.522 100.212 487.522 99.024C487.522 97.788 486.886 97.068 485.626 97.068C484.75 97.068 484.114 97.524 483.826 98.208H482.794V93.312ZM494.949 99.648C494.949 98.724 494.253 98.148 493.185 98.148H491.289V101.1H493.221C494.301 101.1 494.949 100.56 494.949 99.648ZM494.733 95.892C494.733 95.064 494.169 94.536 493.101 94.536H491.289V97.248H493.125C494.145 97.248 494.733 96.744 494.733 95.892ZM496.041 99.756C496.041 101.016 495.045 102 493.317 102H490.197V93.636H493.197C494.961 93.636 495.849 94.596 495.849 95.76C495.849 96.816 495.189 97.428 494.385 97.692C495.297 97.848 496.041 98.724 496.041 99.756ZM500.528 98.064V97.14H505.316V98.064H500.528ZM513.697 100.848L516.325 93.636H517.477L514.321 102H513.061L509.905 93.636H511.069L513.697 100.848ZM524.914 98.7C524.914 100.788 523.414 102.108 521.542 102.108C519.682 102.108 518.266 100.788 518.266 98.7C518.266 96.624 519.73 95.316 521.59 95.316C523.462 95.316 524.914 96.624 524.914 98.7ZM519.382 98.7C519.382 100.368 520.402 101.148 521.542 101.148C522.682 101.148 523.798 100.368 523.798 98.7C523.798 97.044 522.706 96.264 521.578 96.264C520.426 96.264 519.382 97.044 519.382 98.7ZM526.35 102V93.12H527.442V102H526.35ZM535.135 95.424V102H534.043V101.028C533.623 101.712 532.819 102.096 531.943 102.096C530.431 102.096 529.243 101.16 529.243 99.276V95.424H530.323V99.132C530.323 100.464 531.055 101.148 532.159 101.148C533.287 101.148 534.043 100.452 534.043 99.036V95.424H535.135ZM546.471 102V98.28C546.471 96.936 545.751 96.252 544.671 96.252C543.567 96.252 542.811 96.96 542.811 98.376V102H541.731V98.28C541.731 96.936 541.011 96.252 539.931 96.252C538.827 96.252 538.071 96.96 538.071 98.376V102H536.979V95.424H538.071V96.372C538.503 95.676 539.283 95.304 540.147 95.304C541.227 95.304 542.127 95.784 542.559 96.768C542.943 95.82 543.879 95.304 544.887 95.304C546.387 95.304 547.551 96.24 547.551 98.124V102H546.471ZM552.138 96.24C551.07 96.24 550.182 96.948 550.062 98.232H554.214C554.226 96.948 553.266 96.24 552.138 96.24ZM555.21 99.972C554.874 101.172 553.818 102.108 552.186 102.108C550.314 102.108 548.934 100.788 548.934 98.7C548.934 96.624 550.266 95.316 552.186 95.316C554.094 95.316 555.342 96.66 555.342 98.46C555.342 98.7 555.33 98.892 555.306 99.12H550.05C550.134 100.452 551.07 101.184 552.186 101.184C553.17 101.184 553.794 100.68 554.034 99.972H555.21ZM563.931 104.232H562.791C561.267 102.732 560.355 100.308 560.355 97.608C560.355 94.896 561.267 92.364 562.971 90.792H564.111V90.9C562.263 92.64 561.411 95.16 561.411 97.608C561.411 100.044 562.263 102.408 563.931 104.124V104.232ZM565.12 101.904V101.124C567.4 99.288 569.56 97.56 569.56 95.784C569.56 94.824 569.14 94.104 567.964 94.104C566.836 94.104 566.26 94.884 566.212 95.976H565.156C565.228 94.128 566.392 93.168 567.952 93.168C569.584 93.168 570.64 94.128 570.64 95.736C570.64 97.896 568.312 99.732 566.764 100.992H570.892V101.904H565.12ZM576.33 102V100.068H571.89V99.24L576.102 93.408H577.41V99.12H578.61V100.068H577.41V102H576.33ZM573.15 99.12H576.378V94.548L573.15 99.12ZM579.881 102V93.12H580.973V96.372C581.405 95.676 582.221 95.304 583.145 95.304C584.609 95.304 585.773 96.24 585.773 98.124V102H584.693V98.28C584.693 96.936 583.961 96.252 582.857 96.252C581.741 96.252 580.973 96.948 580.973 98.364V102H579.881ZM587.209 104.232V104.124C588.877 102.408 589.729 100.044 589.729 97.608C589.729 95.16 588.877 92.64 587.029 90.9V90.792H588.169C589.873 92.364 590.785 94.896 590.785 97.608C590.785 100.308 589.873 102.732 588.349 104.232H587.209Z" fill="#23262F"/>
<mask id="mask2_5_620" style="mask-type:luminance" maskUnits="userSpaceOnUse" x="707" y="24" width="32" height="32">
<path d="M739 24H707V56H739V24Z" fill="white"/>
</mask>
<g mask="url(#mask2_5_620)">
<path d="M723 56C731.837 56 739 48.8366 739 40C739 31.1634 731.837 24 723 24C714.163 24 707 31.1634 707 40C707 48.8366 714.163 56 723 56Z" fill="#23292F"/>
<path d="M730.07 32H732.96L726.945 37.957C725.893 38.9931 724.476 39.5739 723 39.5739C721.524 39.5739 720.107 38.9931 719.055 37.957L713.035 32H715.93L720.5 36.523C721.165 37.1799 722.063 37.5482 722.998 37.5482C723.933 37.5482 724.831 37.1799 725.496 36.523L730.07 32ZM715.895 48.563H713L719.055 42.57C720.107 41.5339 721.524 40.9531 723 40.9531C724.476 40.9531 725.893 41.5339 726.945 42.57L733 48.562H730.105L725.5 44C724.835 43.3431 723.937 42.9748 723.002 42.9748C722.067 42.9748 721.169 43.3431 720.504 44L715.894 48.563H715.895Z" fill="white"/>
</g>
<path d="M760.844 40L759.032 37.18L757.388 40H755.492L758.132 35.776L755.456 31.624H757.388L759.2 34.432L760.832 31.624H762.728L760.1 35.836L762.776 40H760.844ZM768.495 34.228C768.495 33.484 768.075 33.016 767.139 33.016H765.735V35.476H767.139C768.075 35.476 768.495 34.984 768.495 34.228ZM764.055 31.624H767.199C769.215 31.624 770.223 32.788 770.223 34.192C770.223 35.212 769.659 36.244 768.315 36.604L770.319 40H768.375L766.527 36.736H765.735V40H764.055V31.624ZM773.422 35.428H774.754C775.702 35.428 776.122 34.96 776.122 34.216C776.122 33.448 775.702 32.992 774.754 32.992H773.422V35.428ZM777.85 34.216C777.85 35.488 776.986 36.784 774.826 36.784H773.422V40H771.742V31.624H774.826C776.842 31.624 777.85 32.764 777.85 34.216ZM778.659 42.172L781.899 28.636H783.543L780.303 42.172H778.659ZM784.855 36.796V31.624H786.535V36.808C786.535 37.96 787.159 38.56 788.227 38.56C789.307 38.56 789.931 37.96 789.931 36.808V31.624H791.623V36.796C791.623 39.004 790.039 40.084 788.203 40.084C786.367 40.084 784.855 39.004 784.855 36.796ZM799.102 37.576C799.102 38.896 798.046 40.084 796.138 40.084C794.398 40.084 793.054 39.172 793.03 37.588H794.83C794.878 38.26 795.322 38.704 796.102 38.704C796.894 38.704 797.362 38.284 797.362 37.684C797.362 35.872 793.042 36.964 793.054 33.928C793.054 32.416 794.278 31.504 796.006 31.504C797.722 31.504 798.898 32.38 799.006 33.892H797.158C797.122 33.34 796.678 32.908 795.958 32.896C795.298 32.872 794.806 33.196 794.806 33.88C794.806 35.56 799.102 34.624 799.102 37.576ZM803.486 31.624C806.162 31.624 807.902 33.28 807.902 35.824C807.902 38.356 806.162 40 803.486 40H800.558V31.624H803.486ZM802.238 38.572H803.426C805.19 38.572 806.186 37.564 806.186 35.824C806.186 34.084 805.19 33.04 803.426 33.04H802.238V38.572ZM808.716 32.98V31.624H814.86V32.98H812.628V40H810.948V32.98H808.716Z" fill="#777E91"/>
<path d="M874 24H840C833.373 24 828 29.3726 828 36C828 42.6274 833.373 48 840 48H874C880.627 48 886 42.6274 886 36C886 29.3726 880.627 24 874 24Z" fill="#58BD7D"/>
<path d="M839.252 32.668H840.836V34.996H843.104V36.46H840.836V38.788H839.252V36.46H836.984V34.996H839.252V32.668ZM848.85 40V38.296H844.65V36.976L848.574 31.36H850.53V36.832H851.586V38.296H850.53V40H848.85ZM846.498 36.832H848.958V33.16L846.498 36.832ZM854.612 39.1C854.612 39.652 854.18 40.084 853.592 40.084C852.98 40.084 852.548 39.652 852.548 39.1C852.548 38.548 852.98 38.116 853.592 38.116C854.18 38.116 854.612 38.548 854.612 39.1ZM861.869 33.436H860.309C860.153 32.788 859.805 32.428 859.049 32.428C857.957 32.428 857.453 33.244 857.429 35.26C857.825 34.6 858.617 34.24 859.469 34.24C861.029 34.24 862.121 35.272 862.121 37.096C862.121 38.788 861.077 40.024 859.205 40.024C856.613 40.024 855.965 38.2 855.965 35.488C855.965 32.632 856.889 31.048 859.109 31.048C860.897 31.048 861.737 32.2 861.869 33.436ZM859.085 35.62C858.305 35.62 857.585 36.076 857.585 37.072C857.585 38.008 858.137 38.596 859.121 38.596C859.985 38.596 860.525 38.032 860.525 37.132C860.525 36.232 860.057 35.62 859.085 35.62ZM864.409 40V32.8H863.245V31.252H866.137V40H864.409ZM867.604 33.4C867.604 32.152 868.42 31.456 869.512 31.456C870.604 31.456 871.42 32.152 871.42 33.4C871.42 34.66 870.604 35.356 869.512 35.356C868.42 35.356 867.604 34.66 867.604 33.4ZM869.5 32.464C869.092 32.464 868.84 32.74 868.84 33.4C868.84 34.06 869.092 34.348 869.5 34.348C869.92 34.348 870.184 34.06 870.184 33.4C870.184 32.74 869.92 32.464 869.5 32.464ZM868.96 40L873.664 31.6H875.308L870.592 40H868.96ZM872.872 38.188C872.872 36.928 873.688 36.244 874.78 36.244C875.86 36.244 876.664 36.928 876.664 38.188C876.664 39.46 875.86 40.144 874.78 40.144C873.688 40.144 872.872 39.46 872.872 38.188ZM874.768 37.252C874.348 37.252 874.084 37.528 874.084 38.188C874.084 38.86 874.348 39.136 874.768 39.136C875.176 39.136 875.44 38.86 875.44 38.188C875.44 37.528 875.176 37.252 874.768 37.252Z" fill="#FCFCFD"/>
<path d="M761.648 78.088V76.12C758.552 75.856 756.344 74.2 756.272 71.32H759.872C759.968 72.424 760.544 73.168 761.648 73.408V68.824C759.176 68.2 756.272 67.504 756.272 63.952C756.272 61.12 758.528 59.272 761.648 59.032V57.088H763.184V59.032C766.184 59.272 768.2 60.88 768.416 63.736H764.792C764.696 62.8 764.12 62.08 763.184 61.792V66.328C765.68 66.976 768.608 67.624 768.608 71.176C768.608 73.624 766.688 75.904 763.184 76.144V78.088H761.648ZM765.128 71.32C765.128 70.192 764.312 69.64 763.184 69.256V73.456C764.408 73.24 765.128 72.4 765.128 71.32ZM759.776 63.784C759.776 64.912 760.544 65.488 761.648 65.872V61.72C760.544 61.888 759.776 62.56 759.776 63.784ZM773.895 76V61.6H771.567V58.504H777.351V76H773.895ZM784.582 74.2C784.582 75.304 783.718 76.168 782.542 76.168C781.318 76.168 780.454 75.304 780.454 74.2C780.454 73.096 781.318 72.232 782.542 72.232C783.718 72.232 784.582 73.096 784.582 74.2ZM786.713 75.76V73.264C790.673 69.904 794.825 66.808 794.825 63.592C794.825 62.032 794.129 60.976 792.473 60.976C790.865 60.976 789.977 62.128 789.953 63.976H786.689C786.809 59.968 789.377 58.12 792.521 58.12C796.289 58.12 798.185 60.352 798.185 63.4C798.185 67.456 794.273 70.624 791.489 72.976H798.569V75.76H786.713ZM803.614 66.736C802.174 65.992 801.214 64.768 801.214 62.872C801.214 60.352 803.134 58.168 807.118 58.168C811.102 58.168 813.022 60.376 813.022 62.872C813.022 64.72 812.014 66.04 810.646 66.736C812.374 67.48 813.454 68.992 813.454 71.032C813.454 74.368 810.718 76.384 807.118 76.384C803.542 76.384 800.806 74.368 800.806 71.032C800.806 68.968 801.886 67.456 803.614 66.736ZM807.118 65.752C808.654 65.752 809.758 64.792 809.758 63.352C809.758 61.768 808.726 60.88 807.118 60.88C805.558 60.88 804.502 61.744 804.502 63.376C804.502 64.816 805.606 65.752 807.118 65.752ZM807.118 68.2C805.366 68.2 804.046 69.112 804.046 70.888C804.046 72.448 805.198 73.6 807.118 73.6C809.038 73.6 810.166 72.424 810.166 70.888C810.166 69.16 808.918 68.2 807.118 68.2Z" fill="#23262F"/>
<path d="M758.204 103.044V102.072C756.764 101.94 755.756 101.1 755.732 99.828H756.896C756.956 100.452 757.352 101.04 758.204 101.172V98.172C757.004 97.86 755.72 97.512 755.72 95.856C755.72 94.56 756.704 93.636 758.204 93.54V92.544H758.852V93.54C760.22 93.66 761.096 94.464 761.216 95.676H760.052C759.98 95.16 759.584 94.62 758.852 94.464V97.392C760.04 97.692 761.324 98.04 761.324 99.708C761.324 100.824 760.484 101.964 758.852 102.072V103.044H758.204ZM760.232 99.768C760.232 98.916 759.62 98.58 758.852 98.352V101.184C759.74 101.088 760.232 100.488 760.232 99.768ZM756.836 95.796C756.836 96.648 757.436 96.972 758.204 97.212V94.44C757.4 94.512 756.836 94.944 756.836 95.796ZM763.077 101.904V101.124C765.357 99.288 767.517 97.56 767.517 95.784C767.517 94.824 767.097 94.104 765.921 94.104C764.793 94.104 764.217 94.884 764.169 95.976H763.113C763.185 94.128 764.349 93.168 765.909 93.168C767.541 93.168 768.597 94.128 768.597 95.736C768.597 97.896 766.269 99.732 764.721 100.992H768.849V101.904H763.077ZM771.359 101.328C771.359 101.748 771.035 102.072 770.639 102.072C770.219 102.072 769.895 101.748 769.895 101.328C769.895 100.908 770.219 100.584 770.639 100.584C771.035 100.584 771.359 100.908 771.359 101.328ZM772.631 97.572C772.631 95.088 773.255 93.192 775.655 93.192C778.043 93.192 778.667 95.088 778.667 97.572C778.667 100.092 778.043 102 775.655 102C773.255 102 772.631 100.092 772.631 97.572ZM777.587 97.572C777.587 95.772 777.359 94.188 775.655 94.188C773.939 94.188 773.711 95.772 773.711 97.572C773.711 99.444 773.939 101.004 775.655 101.004C777.359 101.004 777.587 99.444 777.587 97.572ZM780.562 99.672H781.57C781.726 100.572 782.302 101.1 783.31 101.1C784.582 101.1 785.266 100.236 785.23 97.692C784.882 98.424 784.018 98.844 783.082 98.844C781.486 98.844 780.298 97.848 780.298 96.012C780.298 94.356 781.282 93.156 783.154 93.156C785.506 93.156 786.19 94.812 786.19 97.5C786.19 100.392 785.53 102.012 783.25 102.012C781.522 102.012 780.682 100.944 780.562 99.672ZM783.262 97.92C784.306 97.92 785.098 97.236 785.098 96.072C785.098 94.896 784.426 94.068 783.178 94.068C782.05 94.068 781.342 94.836 781.342 95.988C781.342 97.104 781.966 97.92 783.262 97.92ZM792.656 99.648C792.656 98.724 791.96 98.148 790.892 98.148H788.996V101.1H790.928C792.008 101.1 792.656 100.56 792.656 99.648ZM792.44 95.892C792.44 95.064 791.876 94.536 790.808 94.536H788.996V97.248H790.832C791.852 97.248 792.44 96.744 792.44 95.892ZM793.748 99.756C793.748 101.016 792.752 102 791.024 102H787.904V93.636H790.904C792.668 93.636 793.556 94.596 793.556 95.76C793.556 96.816 792.896 97.428 792.092 97.692C793.004 97.848 793.748 98.724 793.748 99.756ZM798.235 98.064V97.14H803.023V98.064H798.235ZM811.404 100.848L814.032 93.636H815.184L812.028 102H810.768L807.612 93.636H808.776L811.404 100.848ZM822.621 98.7C822.621 100.788 821.121 102.108 819.249 102.108C817.389 102.108 815.973 100.788 815.973 98.7C815.973 96.624 817.437 95.316 819.297 95.316C821.169 95.316 822.621 96.624 822.621 98.7ZM817.089 98.7C817.089 100.368 818.109 101.148 819.249 101.148C820.389 101.148 821.505 100.368 821.505 98.7C821.505 97.044 820.413 96.264 819.285 96.264C818.133 96.264 817.089 97.044 817.089 98.7ZM824.057 102V93.12H825.149V102H824.057ZM832.842 95.424V102H831.75V101.028C831.33 101.712 830.526 102.096 829.65 102.096C828.138 102.096 826.95 101.16 826.95 99.276V95.424H828.03V99.132C828.03 100.464 828.762 101.148 829.866 101.148C830.994 101.148 831.75 100.452 831.75 99.036V95.424H832.842ZM844.178 102V98.28C844.178 96.936 843.458 96.252 842.378 96.252C841.274 96.252 840.518 96.96 840.518 98.376V102H839.438V98.28C839.438 96.936 838.718 96.252 837.638 96.252C836.534 96.252 835.778 96.96 835.778 98.376V102H834.686V95.424H835.778V96.372C836.21 95.676 836.99 95.304 837.854 95.304C838.934 95.304 839.834 95.784 840.266 96.768C840.65 95.82 841.586 95.304 842.594 95.304C844.094 95.304 845.258 96.24 845.258 98.124V102H844.178ZM849.845 96.24C848.777 96.24 847.889 96.948 847.769 98.232H851.921C851.933 96.948 850.973 96.24 849.845 96.24ZM852.917 99.972C852.581 101.172 851.525 102.108 849.893 102.108C848.021 102.108 846.641 100.788 846.641 98.7C846.641 96.624 847.973 95.316 849.893 95.316C851.801 95.316 853.049 96.66 853.049 98.46C853.049 98.7 853.037 98.892 853.013 99.12H847.757C847.841 100.452 848.777 101.184 849.893 101.184C850.877 101.184 851.501 100.68 851.741 99.972H852.917ZM861.638 104.232H860.498C858.974 102.732 858.062 100.308 858.062 97.608C858.062 94.896 858.974 92.364 860.678 90.792H861.818V90.9C859.97 92.64 859.118 95.16 859.118 97.608C859.118 100.044 859.97 102.408 861.638 104.124V104.232ZM862.827 101.904V101.124C865.107 99.288 867.267 97.56 867.267 95.784C867.267 94.824 866.847 94.104 865.671 94.104C864.543 94.104 863.967 94.884 863.919 95.976H862.863C862.935 94.128 864.099 93.168 865.659 93.168C867.291 93.168 868.347 94.128 868.347 95.736C868.347 97.896 866.019 99.732 864.471 100.992H868.599V101.904H862.827ZM874.037 102V100.068H869.597V99.24L873.809 93.408H875.117V99.12H876.317V100.068H875.117V102H874.037ZM870.857 99.12H874.085V94.548L870.857 99.12ZM877.588 102V93.12H878.68V96.372C879.112 95.676 879.928 95.304 880.852 95.304C882.316 95.304 883.48 96.24 883.48 98.124V102H882.4V98.28C882.4 96.936 881.668 96.252 880.564 96.252C879.448 96.252 878.68 96.948 878.68 98.364V102H877.588ZM884.916 104.232V104.124C886.584 102.408 887.436 100.044 887.436 97.608C887.436 95.16 886.584 92.64 884.736 90.9V90.792H885.876C887.58 92.364 888.492 94.896 888.492 97.608C888.492 100.308 887.58 102.732 886.056 104.232H884.916Z" fill="#23262F"/>
</g>
<defs>
<filter id="filter0_d_5_620" x="0" y="0" width="978" height="260" filterUnits="userSpaceOnUse" color-interpolation-filters="sRGB">
<feFlood flood-opacity="0" result="BackgroundImageFix"/>
<feColorMatrix in="SourceAlpha" type="matrix" values="0 0 0 0 0 0 0 0 0 0 0 0 0 0 0 0 0 0 127 0" result="hardAlpha"/>
<feOffset dy="64"/>
<feGaussianBlur stdDeviation="32"/>
<feColorMatrix type="matrix" values="0 0 0 0 0.0583333 0 0 0 0 0.0583333 0 0 0 0 0.0583333 0 0 0 0.1 0"/>
<feBlend mode="normal" in2="BackgroundImageFix" result="effect1_dropShadow_5_620"/>
<feBlend mode="normal" in="SourceGraphic" in2="effect1_dropShadow_5_620" result="shape"/>
</filter>
</defs>
</svg>
