<svg width="882" height="212" viewBox="0 0 882 212" fill="none" xmlns="http://www.w3.org/2000/svg">
<g filter="url(#filter0_d_4_539)">
<rect x="16" width="850" height="132" rx="20" fill="#FCFCFD"/>
<rect x="16.5" y="0.5" width="849" height="131" rx="19.5" stroke="#F4F5F6"/>
<g clip-path="url(#clip0_4_539)">
<path d="M60 60C68.8366 60 76 52.8366 76 44C76 35.1634 68.8366 28 60 28C51.1634 28 44 35.1634 44 44C44 52.8366 51.1634 60 60 60Z" fill="#F7931A"/>
<path d="M67.032 42.02C67.346 39.924 65.749 38.797 63.567 38.045L64.275 35.205L62.547 34.775L61.857 37.54C61.403 37.426 60.937 37.32 60.472 37.214L61.167 34.431L59.439 34L58.731 36.839C58.355 36.753 57.985 36.669 57.627 36.579L57.629 36.57L55.245 35.975L54.785 37.821C54.785 37.821 56.068 38.115 56.041 38.133C56.741 38.308 56.867 38.771 56.846 39.139L56.04 42.374C56.088 42.386 56.15 42.404 56.22 42.431L56.037 42.386L54.907 46.918C54.821 47.13 54.604 47.449 54.114 47.328C54.132 47.353 52.858 47.015 52.858 47.015L52 48.993L54.25 49.554C54.668 49.659 55.078 49.769 55.481 49.872L54.766 52.744L56.493 53.174L57.201 50.334C57.673 50.461 58.131 50.579 58.579 50.691L57.873 53.519L59.601 53.949L60.316 51.083C63.264 51.641 65.48 51.416 66.413 48.75C67.165 46.604 66.376 45.365 64.825 44.558C65.955 44.298 66.805 43.555 67.032 42.02V42.02ZM63.082 47.558C62.549 49.705 58.934 48.544 57.762 48.253L58.712 44.448C59.884 44.741 63.641 45.32 63.082 47.558ZM63.617 41.989C63.13 43.942 60.122 42.949 59.147 42.706L60.007 39.256C60.982 39.499 64.125 39.952 63.617 41.989Z" fill="white"/>
</g>
<path d="M101.496 37.528C101.496 36.808 100.98 36.376 100.164 36.376H98.508V38.632H100.2C101.016 38.632 101.496 38.236 101.496 37.528ZM101.292 34.036C101.292 33.364 100.836 32.98 100.044 32.98H98.508V35.08H100.044C100.836 35.08 101.292 34.72 101.292 34.036ZM103.2 37.732C103.2 39.064 102.18 40 100.44 40H96.828V31.624H100.284C102.036 31.624 103.008 32.536 103.008 33.784C103.008 34.804 102.396 35.44 101.58 35.704C102.528 35.872 103.2 36.748 103.2 37.732ZM104.095 32.98V31.624H110.239V32.98H108.007V40H106.327V32.98H104.095ZM111.057 35.8C111.057 33.292 112.893 31.516 115.305 31.516C117.165 31.516 118.677 32.512 119.241 34.228H117.309C116.913 33.424 116.193 33.028 115.293 33.028C113.829 33.028 112.785 34.096 112.785 35.8C112.785 37.492 113.829 38.572 115.293 38.572C116.193 38.572 116.913 38.176 117.309 37.36H119.241C118.677 39.088 117.165 40.072 115.305 40.072C112.893 40.072 111.057 38.308 111.057 35.8ZM120.292 42.172L123.532 28.636H125.176L121.936 42.172H120.292ZM126.488 36.796V31.624H128.168V36.808C128.168 37.96 128.792 38.56 129.86 38.56C130.94 38.56 131.564 37.96 131.564 36.808V31.624H133.256V36.796C133.256 39.004 131.672 40.084 129.836 40.084C128 40.084 126.488 39.004 126.488 36.796ZM140.735 37.576C140.735 38.896 139.679 40.084 137.771 40.084C136.031 40.084 134.687 39.172 134.663 37.588H136.463C136.511 38.26 136.955 38.704 137.735 38.704C138.527 38.704 138.995 38.284 138.995 37.684C138.995 35.872 134.675 36.964 134.687 33.928C134.687 32.416 135.911 31.504 137.639 31.504C139.355 31.504 140.531 32.38 140.639 33.892H138.791C138.755 33.34 138.311 32.908 137.591 32.896C136.931 32.872 136.439 33.196 136.439 33.88C136.439 35.56 140.735 34.624 140.735 37.576ZM145.119 31.624C147.795 31.624 149.535 33.28 149.535 35.824C149.535 38.356 147.795 40 145.119 40H142.191V31.624H145.119ZM143.871 38.572H145.059C146.823 38.572 147.819 37.564 147.819 35.824C147.819 34.084 146.823 33.04 145.059 33.04H143.871V38.572ZM150.349 32.98V31.624H156.493V32.98H154.261V40H152.581V32.98H150.349Z" fill="#777E91"/>
<rect x="169" y="24" width="63" height="24" rx="12" fill="#58BD7D"/>
<path d="M180.252 32.668H181.836V34.996H184.104V36.46H181.836V38.788H180.252V36.46H177.984V34.996H180.252V32.668ZM185.746 33.556C185.83 31.936 186.982 31.048 188.662 31.048C190.462 31.048 191.422 32.068 191.422 33.364C191.422 34.456 190.738 35.128 190.102 35.344V35.392C190.99 35.668 191.578 36.388 191.578 37.576C191.578 39.004 190.57 40.06 188.734 40.06C187.006 40.06 185.698 39.196 185.626 37.36H187.258C187.294 38.116 187.798 38.656 188.698 38.656C189.538 38.656 189.97 38.128 189.97 37.432C189.97 36.448 189.346 36.088 188.098 36.088H187.75V34.708H188.098C189.082 34.708 189.802 34.432 189.802 33.568C189.802 32.884 189.382 32.476 188.614 32.476C187.798 32.476 187.45 33.004 187.39 33.556H185.746ZM194.862 39.1C194.862 39.652 194.43 40.084 193.842 40.084C193.23 40.084 192.798 39.652 192.798 39.1C192.798 38.548 193.23 38.116 193.842 38.116C194.43 38.116 194.862 38.548 194.862 39.1ZM196.047 33.556C196.131 31.936 197.283 31.048 198.963 31.048C200.763 31.048 201.723 32.068 201.723 33.364C201.723 34.456 201.039 35.128 200.403 35.344V35.392C201.291 35.668 201.879 36.388 201.879 37.576C201.879 39.004 200.871 40.06 199.035 40.06C197.307 40.06 195.999 39.196 195.927 37.36H197.559C197.595 38.116 198.099 38.656 198.999 38.656C199.839 38.656 200.271 38.128 200.271 37.432C200.271 36.448 199.647 36.088 198.399 36.088H198.051V34.708H198.399C199.383 34.708 200.103 34.432 200.103 33.568C200.103 32.884 199.683 32.476 198.915 32.476C198.099 32.476 197.751 33.004 197.691 33.556H196.047ZM209.302 33.436H207.742C207.586 32.788 207.238 32.428 206.482 32.428C205.39 32.428 204.886 33.244 204.862 35.26C205.258 34.6 206.05 34.24 206.902 34.24C208.462 34.24 209.554 35.272 209.554 37.096C209.554 38.788 208.51 40.024 206.638 40.024C204.046 40.024 203.398 38.2 203.398 35.488C203.398 32.632 204.322 31.048 206.542 31.048C208.33 31.048 209.17 32.2 209.302 33.436ZM206.518 35.62C205.738 35.62 205.018 36.076 205.018 37.072C205.018 38.008 205.57 38.596 206.554 38.596C207.418 38.596 207.958 38.032 207.958 37.132C207.958 36.232 207.49 35.62 206.518 35.62ZM210.69 33.4C210.69 32.152 211.506 31.456 212.598 31.456C213.69 31.456 214.506 32.152 214.506 33.4C214.506 34.66 213.69 35.356 212.598 35.356C211.506 35.356 210.69 34.66 210.69 33.4ZM212.586 32.464C212.178 32.464 211.926 32.74 211.926 33.4C211.926 34.06 212.178 34.348 212.586 34.348C213.006 34.348 213.27 34.06 213.27 33.4C213.27 32.74 213.006 32.464 212.586 32.464ZM212.046 40L216.75 31.6H218.394L213.678 40H212.046ZM215.958 38.188C215.958 36.928 216.774 36.244 217.866 36.244C218.946 36.244 219.75 36.928 219.75 38.188C219.75 39.46 218.946 40.144 217.866 40.144C216.774 40.144 215.958 39.46 215.958 38.188ZM217.854 37.252C217.434 37.252 217.17 37.528 217.17 38.188C217.17 38.86 217.434 39.136 217.854 39.136C218.262 39.136 218.526 38.86 218.526 38.188C218.526 37.528 218.262 37.252 217.854 37.252Z" fill="#FCFCFD"/>
<path d="M102.648 78.088V76.12C99.552 75.856 97.344 74.2 97.272 71.32H100.872C100.968 72.424 101.544 73.168 102.648 73.408V68.824C100.176 68.2 97.272 67.504 97.272 63.952C97.272 61.12 99.528 59.272 102.648 59.032V57.088H104.184V59.032C107.184 59.272 109.2 60.88 109.416 63.736H105.792C105.696 62.8 105.12 62.08 104.184 61.792V66.328C106.68 66.976 109.608 67.624 109.608 71.176C109.608 73.624 107.688 75.904 104.184 76.144V78.088H102.648ZM106.128 71.32C106.128 70.192 105.312 69.64 104.184 69.256V73.456C105.408 73.24 106.128 72.4 106.128 71.32ZM100.776 63.784C100.776 64.912 101.544 65.488 102.648 65.872V61.72C101.544 61.888 100.776 62.56 100.776 63.784ZM125.167 62.872H122.047C121.735 61.576 121.039 60.856 119.527 60.856C117.343 60.856 116.335 62.488 116.287 66.52C117.079 65.2 118.663 64.48 120.367 64.48C123.487 64.48 125.671 66.544 125.671 70.192C125.671 73.576 123.583 76.048 119.839 76.048C114.655 76.048 113.359 72.4 113.359 66.976C113.359 61.264 115.207 58.096 119.647 58.096C123.223 58.096 124.903 60.4 125.167 62.872ZM119.599 67.24C118.039 67.24 116.599 68.152 116.599 70.144C116.599 72.016 117.703 73.192 119.671 73.192C121.399 73.192 122.479 72.064 122.479 70.264C122.479 68.464 121.543 67.24 119.599 67.24ZM140.519 62.872H137.399C137.087 61.576 136.391 60.856 134.879 60.856C132.695 60.856 131.687 62.488 131.639 66.52C132.431 65.2 134.015 64.48 135.719 64.48C138.839 64.48 141.023 66.544 141.023 70.192C141.023 73.576 138.935 76.048 135.191 76.048C130.007 76.048 128.711 72.4 128.711 66.976C128.711 61.264 130.559 58.096 134.999 58.096C138.575 58.096 140.255 60.4 140.519 62.872ZM134.951 67.24C133.391 67.24 131.951 68.152 131.951 70.144C131.951 72.016 133.055 73.192 135.023 73.192C136.751 73.192 137.831 72.064 137.831 70.264C137.831 68.464 136.895 67.24 134.951 67.24ZM142.694 79.456L144.302 72.304H147.854L144.878 79.456H142.694ZM149.795 67.024C149.795 61.96 151.331 58.168 156.275 58.168C161.219 58.168 162.755 61.96 162.755 67.024C162.755 72.136 161.219 75.952 156.275 75.952C151.331 75.952 149.795 72.136 149.795 67.024ZM159.443 67.024C159.443 64.024 159.107 61.288 156.275 61.288C153.443 61.288 153.107 64.024 153.107 67.024C153.107 70.144 153.443 72.832 156.275 72.832C159.107 72.832 159.443 70.144 159.443 67.024ZM165.359 63.112C165.527 59.872 167.831 58.096 171.191 58.096C174.791 58.096 176.711 60.136 176.711 62.728C176.711 64.912 175.343 66.256 174.071 66.688V66.784C175.847 67.336 177.023 68.776 177.023 71.152C177.023 74.008 175.007 76.12 171.335 76.12C167.879 76.12 165.263 74.392 165.119 70.72H168.383C168.455 72.232 169.463 73.312 171.263 73.312C172.943 73.312 173.807 72.256 173.807 70.864C173.807 68.896 172.559 68.176 170.063 68.176H169.367V65.416H170.063C172.031 65.416 173.471 64.864 173.471 63.136C173.471 61.768 172.631 60.952 171.095 60.952C169.463 60.952 168.767 62.008 168.647 63.112H165.359ZM180.59 58.456H191.438V61.408H183.662V65.512C184.31 64.72 185.63 64.096 187.094 64.096C191.174 64.096 192.566 67.168 192.566 69.88C192.566 73.456 190.502 76 186.518 76C182.75 76 180.59 73.912 180.302 71.056H183.566C183.854 72.28 184.838 73.168 186.47 73.168C188.438 73.168 189.326 71.776 189.326 69.928C189.326 67.96 188.342 66.88 186.446 66.88C185.054 66.88 184.166 67.648 183.806 68.728H180.59V58.456ZM199.036 74.2C199.036 75.304 198.172 76.168 196.996 76.168C195.772 76.168 194.908 75.304 194.908 74.2C194.908 73.096 195.772 72.232 196.996 72.232C198.172 72.232 199.036 73.096 199.036 74.2ZM202.27 58.456H213.118V61.408H205.342V65.512C205.99 64.72 207.31 64.096 208.774 64.096C212.854 64.096 214.246 67.168 214.246 69.88C214.246 73.456 212.182 76 208.198 76C204.43 76 202.27 73.912 201.982 71.056H205.246C205.534 72.28 206.518 73.168 208.15 73.168C210.118 73.168 211.006 71.776 211.006 69.928C211.006 67.96 210.022 66.88 208.126 66.88C206.734 66.88 205.846 67.648 205.486 68.728H202.27V58.456ZM216.851 63.112C217.019 59.872 219.323 58.096 222.683 58.096C226.283 58.096 228.203 60.136 228.203 62.728C228.203 64.912 226.835 66.256 225.563 66.688V66.784C227.339 67.336 228.515 68.776 228.515 71.152C228.515 74.008 226.499 76.12 222.827 76.12C219.371 76.12 216.755 74.392 216.611 70.72H219.875C219.947 72.232 220.955 73.312 222.755 73.312C224.435 73.312 225.299 72.256 225.299 70.864C225.299 68.896 224.051 68.176 221.555 68.176H220.859V65.416H221.555C223.523 65.416 224.963 64.864 224.963 63.136C224.963 61.768 224.123 60.952 222.587 60.952C220.955 60.952 220.259 62.008 220.139 63.112H216.851Z" fill="#23262F"/>
<path d="M99.204 103.044V102.072C97.764 101.94 96.756 101.1 96.732 99.828H97.896C97.956 100.452 98.352 101.04 99.204 101.172V98.172C98.004 97.86 96.72 97.512 96.72 95.856C96.72 94.56 97.704 93.636 99.204 93.54V92.544H99.852V93.54C101.22 93.66 102.096 94.464 102.216 95.676H101.052C100.98 95.16 100.584 94.62 99.852 94.464V97.392C101.04 97.692 102.324 98.04 102.324 99.708C102.324 100.824 101.484 101.964 99.852 102.072V103.044H99.204ZM101.232 99.768C101.232 98.916 100.62 98.58 99.852 98.352V101.184C100.74 101.088 101.232 100.488 101.232 99.768ZM97.836 95.796C97.836 96.648 98.436 96.972 99.204 97.212V94.44C98.4 94.512 97.836 94.944 97.836 95.796ZM104.185 95.508C104.293 94.02 105.421 93.156 107.029 93.156C108.721 93.156 109.645 94.14 109.645 95.388C109.645 96.384 109.021 97.164 108.109 97.368V97.428C109.117 97.668 109.801 98.412 109.801 99.66C109.801 101.004 108.865 102.06 107.053 102.06C105.409 102.06 104.185 101.184 104.053 99.504H105.109C105.217 100.428 105.889 101.136 107.041 101.136C108.205 101.136 108.757 100.452 108.757 99.564C108.757 98.34 107.905 97.872 106.345 97.872H106.069V96.96H106.357C107.809 96.948 108.589 96.504 108.589 95.496C108.589 94.668 108.037 94.092 106.993 94.092C105.973 94.092 105.361 94.668 105.253 95.508H104.185ZM117.119 95.388H116.111C115.943 94.548 115.451 94.056 114.467 94.056C113.087 94.056 112.343 95.004 112.355 97.584C112.727 96.732 113.675 96.252 114.707 96.252C116.327 96.252 117.419 97.32 117.419 99.144C117.419 100.728 116.483 102.024 114.587 102.024C112.019 102.024 111.407 100.176 111.407 97.548C111.407 94.824 112.283 93.144 114.479 93.144C116.135 93.144 116.975 94.176 117.119 95.388ZM114.479 97.176C113.483 97.176 112.487 97.764 112.487 99.06C112.487 100.212 113.159 101.112 114.527 101.112C115.655 101.112 116.363 100.356 116.363 99.18C116.363 97.956 115.727 97.176 114.479 97.176ZM120.14 101.328C120.14 101.748 119.816 102.072 119.42 102.072C119 102.072 118.676 101.748 118.676 101.328C118.676 100.908 119 100.584 119.42 100.584C119.816 100.584 120.14 100.908 120.14 101.328ZM122.996 97.488C122.108 97.14 121.604 96.468 121.604 95.496C121.604 94.224 122.564 93.192 124.448 93.192C126.332 93.192 127.304 94.236 127.304 95.496C127.304 96.432 126.764 97.152 125.912 97.488C126.896 97.788 127.532 98.58 127.532 99.66C127.532 101.232 126.284 102.24 124.448 102.24C122.624 102.24 121.388 101.232 121.388 99.66C121.388 98.568 122.024 97.776 122.996 97.488ZM124.448 97.128C125.516 97.128 126.248 96.528 126.248 95.628C126.248 94.632 125.54 94.104 124.448 94.104C123.38 94.104 122.66 94.62 122.66 95.64C122.66 96.54 123.392 97.128 124.448 97.128ZM124.448 97.968C123.332 97.968 122.432 98.472 122.432 99.624C122.432 100.644 123.212 101.328 124.448 101.328C125.684 101.328 126.452 100.632 126.452 99.624C126.452 98.508 125.588 97.968 124.448 97.968ZM130.566 97.488C129.678 97.14 129.174 96.468 129.174 95.496C129.174 94.224 130.134 93.192 132.018 93.192C133.902 93.192 134.874 94.236 134.874 95.496C134.874 96.432 134.334 97.152 133.482 97.488C134.466 97.788 135.102 98.58 135.102 99.66C135.102 101.232 133.854 102.24 132.018 102.24C130.194 102.24 128.958 101.232 128.958 99.66C128.958 98.568 129.594 97.776 130.566 97.488ZM132.018 97.128C133.086 97.128 133.818 96.528 133.818 95.628C133.818 94.632 133.11 94.104 132.018 94.104C130.95 94.104 130.23 94.62 130.23 95.64C130.23 96.54 130.962 97.128 132.018 97.128ZM132.018 97.968C130.902 97.968 130.002 98.472 130.002 99.624C130.002 100.644 130.782 101.328 132.018 101.328C133.254 101.328 134.022 100.632 134.022 99.624C134.022 98.508 133.158 97.968 132.018 97.968ZM141.485 99.648C141.485 98.724 140.789 98.148 139.721 98.148H137.825V101.1H139.757C140.837 101.1 141.485 100.56 141.485 99.648ZM141.269 95.892C141.269 95.064 140.705 94.536 139.637 94.536H137.825V97.248H139.661C140.681 97.248 141.269 96.744 141.269 95.892ZM142.577 99.756C142.577 101.016 141.581 102 139.853 102H136.733V93.636H139.733C141.497 93.636 142.385 94.596 142.385 95.76C142.385 96.816 141.725 97.428 140.921 97.692C141.833 97.848 142.577 98.724 142.577 99.756ZM147.063 98.064V97.14H151.851V98.064H147.063ZM160.232 100.848L162.86 93.636H164.012L160.856 102H159.596L156.44 93.636H157.604L160.232 100.848ZM171.449 98.7C171.449 100.788 169.949 102.108 168.077 102.108C166.217 102.108 164.801 100.788 164.801 98.7C164.801 96.624 166.265 95.316 168.125 95.316C169.997 95.316 171.449 96.624 171.449 98.7ZM165.917 98.7C165.917 100.368 166.937 101.148 168.077 101.148C169.217 101.148 170.333 100.368 170.333 98.7C170.333 97.044 169.241 96.264 168.113 96.264C166.961 96.264 165.917 97.044 165.917 98.7ZM172.885 102V93.12H173.977V102H172.885ZM181.67 95.424V102H180.578V101.028C180.158 101.712 179.354 102.096 178.478 102.096C176.966 102.096 175.778 101.16 175.778 99.276V95.424H176.858V99.132C176.858 100.464 177.59 101.148 178.694 101.148C179.822 101.148 180.578 100.452 180.578 99.036V95.424H181.67ZM193.006 102V98.28C193.006 96.936 192.286 96.252 191.206 96.252C190.102 96.252 189.346 96.96 189.346 98.376V102H188.266V98.28C188.266 96.936 187.546 96.252 186.466 96.252C185.362 96.252 184.606 96.96 184.606 98.376V102H183.514V95.424H184.606V96.372C185.038 95.676 185.818 95.304 186.682 95.304C187.762 95.304 188.662 95.784 189.094 96.768C189.478 95.82 190.414 95.304 191.422 95.304C192.922 95.304 194.086 96.24 194.086 98.124V102H193.006ZM198.673 96.24C197.605 96.24 196.717 96.948 196.597 98.232H200.749C200.761 96.948 199.801 96.24 198.673 96.24ZM201.745 99.972C201.409 101.172 200.353 102.108 198.721 102.108C196.849 102.108 195.469 100.788 195.469 98.7C195.469 96.624 196.801 95.316 198.721 95.316C200.629 95.316 201.877 96.66 201.877 98.46C201.877 98.7 201.865 98.892 201.841 99.12H196.585C196.669 100.452 197.605 101.184 198.721 101.184C199.705 101.184 200.329 100.68 200.569 99.972H201.745ZM210.466 104.232H209.326C207.802 102.732 206.89 100.308 206.89 97.608C206.89 94.896 207.802 92.364 209.506 90.792H210.646V90.9C208.798 92.64 207.946 95.16 207.946 97.608C207.946 100.044 208.798 102.408 210.466 104.124V104.232ZM211.655 101.904V101.124C213.935 99.288 216.095 97.56 216.095 95.784C216.095 94.824 215.675 94.104 214.499 94.104C213.371 94.104 212.795 94.884 212.747 95.976H211.691C211.763 94.128 212.927 93.168 214.487 93.168C216.119 93.168 217.175 94.128 217.175 95.736C217.175 97.896 214.847 99.732 213.299 100.992H217.427V101.904H211.655ZM222.865 102V100.068H218.425V99.24L222.637 93.408H223.945V99.12H225.145V100.068H223.945V102H222.865ZM219.685 99.12H222.913V94.548L219.685 99.12ZM226.416 102V93.12H227.508V96.372C227.94 95.676 228.756 95.304 229.68 95.304C231.144 95.304 232.308 96.24 232.308 98.124V102H231.228V98.28C231.228 96.936 230.496 96.252 229.392 96.252C228.276 96.252 227.508 96.948 227.508 98.364V102H226.416ZM233.744 104.232V104.124C235.412 102.408 236.264 100.044 236.264 97.608C236.264 95.16 235.412 92.64 233.564 90.9V90.792H234.704C236.408 92.364 237.32 94.896 237.32 97.608C237.32 100.308 236.408 102.732 234.884 104.232H233.744Z" fill="#23262F"/>
<g clip-path="url(#clip1_4_539)">
<path d="M373 60C381.837 60 389 52.8366 389 44C389 35.1634 381.837 28 373 28C364.163 28 357 35.1634 357 44C357 52.8366 364.163 60 373 60Z" fill="#627EEA"/>
<path d="M373 32V40.87L380.497 44.22L373 32Z" fill="white" fill-opacity="0.602"/>
<path d="M373.498 32L366 44.22L373.498 40.87V32Z" fill="white"/>
<path d="M373 50.352V56.379L380.502 46L373 50.352Z" fill="white" fill-opacity="0.602"/>
<path d="M373.498 56.379V50.351L366 46L373.498 56.379Z" fill="white"/>
<path d="M373 48.701L380.497 44.348L373 41V48.701Z" fill="white" fill-opacity="0.2"/>
<path d="M366 44.348L373.498 48.701V41L366 44.348Z" fill="white" fill-opacity="0.602"/>
</g>
<path d="M414.688 31.612V32.98H411.508V35.08H414.328V36.412H411.508V38.632H414.688V40H409.828V31.612H414.688ZM415.771 32.98V31.624H421.915V32.98H419.683V40H418.003V32.98H415.771ZM428.409 40V36.436H424.821V40H423.141V31.624H424.821V35.068H428.409V31.624H430.089V40H428.409ZM431.358 42.172L434.598 28.636H436.242L433.002 42.172H431.358ZM437.554 36.796V31.624H439.234V36.808C439.234 37.96 439.858 38.56 440.926 38.56C442.006 38.56 442.63 37.96 442.63 36.808V31.624H444.322V36.796C444.322 39.004 442.738 40.084 440.902 40.084C439.066 40.084 437.554 39.004 437.554 36.796ZM451.801 37.576C451.801 38.896 450.745 40.084 448.837 40.084C447.097 40.084 445.753 39.172 445.729 37.588H447.529C447.577 38.26 448.021 38.704 448.801 38.704C449.593 38.704 450.061 38.284 450.061 37.684C450.061 35.872 445.741 36.964 445.753 33.928C445.753 32.416 446.977 31.504 448.705 31.504C450.421 31.504 451.597 32.38 451.705 33.892H449.857C449.821 33.34 449.377 32.908 448.657 32.896C447.997 32.872 447.505 33.196 447.505 33.88C447.505 35.56 451.801 34.624 451.801 37.576ZM456.186 31.624C458.862 31.624 460.602 33.28 460.602 35.824C460.602 38.356 458.862 40 456.186 40H453.258V31.624H456.186ZM454.938 38.572H456.126C457.89 38.572 458.886 37.564 458.886 35.824C458.886 34.084 457.89 33.04 456.126 33.04H454.938V38.572ZM461.415 32.98V31.624H467.559V32.98H465.327V40H463.647V32.98H461.415Z" fill="#777E91"/>
<rect x="480" y="24" width="57" height="24" rx="12" fill="#FC5454"/>
<path d="M488.852 36.424V35.008H493.94V36.424H488.852ZM499.76 40V38.296H495.56V36.976L499.484 31.36H501.44V36.832H502.496V38.296H501.44V40H499.76ZM497.408 36.832H499.868V33.16L497.408 36.832ZM505.522 39.1C505.522 39.652 505.09 40.084 504.502 40.084C503.89 40.084 503.458 39.652 503.458 39.1C503.458 38.548 503.89 38.116 504.502 38.116C505.09 38.116 505.522 38.548 505.522 39.1ZM507.139 31.228H512.563V32.704H508.675V34.756C508.999 34.36 509.659 34.048 510.391 34.048C512.431 34.048 513.127 35.584 513.127 36.94C513.127 38.728 512.095 40 510.103 40C508.219 40 507.139 38.956 506.995 37.528H508.627C508.771 38.14 509.263 38.584 510.079 38.584C511.063 38.584 511.507 37.888 511.507 36.964C511.507 35.98 511.015 35.44 510.067 35.44C509.371 35.44 508.927 35.824 508.747 36.364H507.139V31.228ZM515.366 40V32.8H514.202V31.252H517.094V40H515.366ZM518.561 33.4C518.561 32.152 519.377 31.456 520.469 31.456C521.561 31.456 522.377 32.152 522.377 33.4C522.377 34.66 521.561 35.356 520.469 35.356C519.377 35.356 518.561 34.66 518.561 33.4ZM520.457 32.464C520.049 32.464 519.797 32.74 519.797 33.4C519.797 34.06 520.049 34.348 520.457 34.348C520.877 34.348 521.141 34.06 521.141 33.4C521.141 32.74 520.877 32.464 520.457 32.464ZM519.917 40L524.621 31.6H526.265L521.549 40H519.917ZM523.829 38.188C523.829 36.928 524.645 36.244 525.737 36.244C526.817 36.244 527.621 36.928 527.621 38.188C527.621 39.46 526.817 40.144 525.737 40.144C524.645 40.144 523.829 39.46 523.829 38.188ZM525.725 37.252C525.305 37.252 525.041 37.528 525.041 38.188C525.041 38.86 525.305 39.136 525.725 39.136C526.133 39.136 526.397 38.86 526.397 38.188C526.397 37.528 526.133 37.252 525.725 37.252Z" fill="#FCFCFD"/>
<path d="M415.648 78.088V76.12C412.552 75.856 410.344 74.2 410.272 71.32H413.872C413.968 72.424 414.544 73.168 415.648 73.408V68.824C413.176 68.2 410.272 67.504 410.272 63.952C410.272 61.12 412.528 59.272 415.648 59.032V57.088H417.184V59.032C420.184 59.272 422.2 60.88 422.416 63.736H418.792C418.696 62.8 418.12 62.08 417.184 61.792V66.328C419.68 66.976 422.608 67.624 422.608 71.176C422.608 73.624 420.688 75.904 417.184 76.144V78.088H415.648ZM419.128 71.32C419.128 70.192 418.312 69.64 417.184 69.256V73.456C418.408 73.24 419.128 72.4 419.128 71.32ZM413.776 63.784C413.776 64.912 414.544 65.488 415.648 65.872V61.72C414.544 61.888 413.776 62.56 413.776 63.784ZM425.783 75.76V73.264C429.743 69.904 433.895 66.808 433.895 63.592C433.895 62.032 433.199 60.976 431.543 60.976C429.935 60.976 429.047 62.128 429.023 63.976H425.759C425.879 59.968 428.447 58.12 431.591 58.12C435.359 58.12 437.255 60.352 437.255 63.4C437.255 67.456 433.343 70.624 430.559 72.976H437.639V75.76H425.783ZM438.772 79.456L440.38 72.304H443.932L440.956 79.456H438.772ZM445.874 67.024C445.874 61.96 447.41 58.168 452.354 58.168C457.298 58.168 458.834 61.96 458.834 67.024C458.834 72.136 457.298 75.952 452.354 75.952C447.41 75.952 445.874 72.136 445.874 67.024ZM455.522 67.024C455.522 64.024 455.186 61.288 452.354 61.288C449.522 61.288 449.186 64.024 449.186 67.024C449.186 70.144 449.522 72.832 452.354 72.832C455.186 72.832 455.522 70.144 455.522 67.024ZM461.197 75.76V73.264C465.157 69.904 469.309 66.808 469.309 63.592C469.309 62.032 468.613 60.976 466.957 60.976C465.349 60.976 464.461 62.128 464.437 63.976H461.173C461.293 59.968 463.861 58.12 467.005 58.12C470.773 58.12 472.669 60.352 472.669 63.4C472.669 67.456 468.757 70.624 465.973 72.976H473.053V75.76H461.197ZM474.738 58.552H486.306V61.048L479.922 76H476.514L482.946 61.432H474.738V58.552ZM492.231 74.2C492.231 75.304 491.367 76.168 490.191 76.168C488.967 76.168 488.103 75.304 488.103 74.2C488.103 73.096 488.967 72.232 490.191 72.232C491.367 72.232 492.231 73.096 492.231 74.2ZM494.361 75.76V73.264C498.321 69.904 502.473 66.808 502.473 63.592C502.473 62.032 501.777 60.976 500.121 60.976C498.513 60.976 497.625 62.128 497.601 63.976H494.337C494.457 59.968 497.025 58.12 500.169 58.12C503.937 58.12 505.833 60.352 505.833 63.4C505.833 67.456 501.921 70.624 499.137 72.976H506.217V75.76H494.361ZM508.335 67.024C508.335 61.96 509.871 58.168 514.815 58.168C519.759 58.168 521.295 61.96 521.295 67.024C521.295 72.136 519.759 75.952 514.815 75.952C509.871 75.952 508.335 72.136 508.335 67.024ZM517.983 67.024C517.983 64.024 517.647 61.288 514.815 61.288C511.983 61.288 511.647 64.024 511.647 67.024C511.647 70.144 511.983 72.832 514.815 72.832C517.647 72.832 517.983 70.144 517.983 67.024Z" fill="#23262F"/>
<path d="M412.204 103.044V102.072C410.764 101.94 409.756 101.1 409.732 99.828H410.896C410.956 100.452 411.352 101.04 412.204 101.172V98.172C411.004 97.86 409.72 97.512 409.72 95.856C409.72 94.56 410.704 93.636 412.204 93.54V92.544H412.852V93.54C414.22 93.66 415.096 94.464 415.216 95.676H414.052C413.98 95.16 413.584 94.62 412.852 94.464V97.392C414.04 97.692 415.324 98.04 415.324 99.708C415.324 100.824 414.484 101.964 412.852 102.072V103.044H412.204ZM414.232 99.768C414.232 98.916 413.62 98.58 412.852 98.352V101.184C413.74 101.088 414.232 100.488 414.232 99.768ZM410.836 95.796C410.836 96.648 411.436 96.972 412.204 97.212V94.44C411.4 94.512 410.836 94.944 410.836 95.796ZM417.185 95.508C417.293 94.02 418.421 93.156 420.029 93.156C421.721 93.156 422.645 94.14 422.645 95.388C422.645 96.384 422.021 97.164 421.109 97.368V97.428C422.117 97.668 422.801 98.412 422.801 99.66C422.801 101.004 421.865 102.06 420.053 102.06C418.409 102.06 417.185 101.184 417.053 99.504H418.109C418.217 100.428 418.889 101.136 420.041 101.136C421.205 101.136 421.757 100.452 421.757 99.564C421.757 98.34 420.905 97.872 419.345 97.872H419.069V96.96H419.357C420.809 96.948 421.589 96.504 421.589 95.496C421.589 94.668 421.037 94.092 419.993 94.092C418.973 94.092 418.361 94.668 418.253 95.508H417.185ZM425.139 102V94.32H423.987V93.324H426.243V102H425.139ZM429.367 101.328C429.367 101.748 429.043 102.072 428.647 102.072C428.227 102.072 427.903 101.748 427.903 101.328C427.903 100.908 428.227 100.584 428.647 100.584C429.043 100.584 429.367 100.908 429.367 101.328ZM431.503 102V94.32H430.351V93.324H432.607V102H431.503ZM434.794 93.312H440.014V94.272H435.802V97.008C436.162 96.516 436.93 96.132 437.782 96.132C439.894 96.132 440.566 97.656 440.566 99C440.566 100.68 439.63 102.024 437.602 102.024C435.874 102.024 434.83 101.052 434.614 99.648H435.682C435.886 100.56 436.594 101.1 437.614 101.1C438.934 101.1 439.522 100.212 439.522 99.024C439.522 97.788 438.886 97.068 437.626 97.068C436.75 97.068 436.114 97.524 435.826 98.208H434.794V93.312ZM446.949 99.648C446.949 98.724 446.253 98.148 445.185 98.148H443.289V101.1H445.221C446.301 101.1 446.949 100.56 446.949 99.648ZM446.733 95.892C446.733 95.064 446.169 94.536 445.101 94.536H443.289V97.248H445.125C446.145 97.248 446.733 96.744 446.733 95.892ZM448.041 99.756C448.041 101.016 447.045 102 445.317 102H442.197V93.636H445.197C446.961 93.636 447.849 94.596 447.849 95.76C447.849 96.816 447.189 97.428 446.385 97.692C447.297 97.848 448.041 98.724 448.041 99.756ZM452.528 98.064V97.14H457.316V98.064H452.528ZM465.697 100.848L468.325 93.636H469.477L466.321 102H465.061L461.905 93.636H463.069L465.697 100.848ZM476.914 98.7C476.914 100.788 475.414 102.108 473.542 102.108C471.682 102.108 470.266 100.788 470.266 98.7C470.266 96.624 471.73 95.316 473.59 95.316C475.462 95.316 476.914 96.624 476.914 98.7ZM471.382 98.7C471.382 100.368 472.402 101.148 473.542 101.148C474.682 101.148 475.798 100.368 475.798 98.7C475.798 97.044 474.706 96.264 473.578 96.264C472.426 96.264 471.382 97.044 471.382 98.7ZM478.35 102V93.12H479.442V102H478.35ZM487.135 95.424V102H486.043V101.028C485.623 101.712 484.819 102.096 483.943 102.096C482.431 102.096 481.243 101.16 481.243 99.276V95.424H482.323V99.132C482.323 100.464 483.055 101.148 484.159 101.148C485.287 101.148 486.043 100.452 486.043 99.036V95.424H487.135ZM498.471 102V98.28C498.471 96.936 497.751 96.252 496.671 96.252C495.567 96.252 494.811 96.96 494.811 98.376V102H493.731V98.28C493.731 96.936 493.011 96.252 491.931 96.252C490.827 96.252 490.071 96.96 490.071 98.376V102H488.979V95.424H490.071V96.372C490.503 95.676 491.283 95.304 492.147 95.304C493.227 95.304 494.127 95.784 494.559 96.768C494.943 95.82 495.879 95.304 496.887 95.304C498.387 95.304 499.551 96.24 499.551 98.124V102H498.471ZM504.138 96.24C503.07 96.24 502.182 96.948 502.062 98.232H506.214C506.226 96.948 505.266 96.24 504.138 96.24ZM507.21 99.972C506.874 101.172 505.818 102.108 504.186 102.108C502.314 102.108 500.934 100.788 500.934 98.7C500.934 96.624 502.266 95.316 504.186 95.316C506.094 95.316 507.342 96.66 507.342 98.46C507.342 98.7 507.33 98.892 507.306 99.12H502.05C502.134 100.452 503.07 101.184 504.186 101.184C505.17 101.184 505.794 100.68 506.034 99.972H507.21ZM515.931 104.232H514.791C513.267 102.732 512.355 100.308 512.355 97.608C512.355 94.896 513.267 92.364 514.971 90.792H516.111V90.9C514.263 92.64 513.411 95.16 513.411 97.608C513.411 100.044 514.263 102.408 515.931 104.124V104.232ZM517.12 101.904V101.124C519.4 99.288 521.56 97.56 521.56 95.784C521.56 94.824 521.14 94.104 519.964 94.104C518.836 94.104 518.26 94.884 518.212 95.976H517.156C517.228 94.128 518.392 93.168 519.952 93.168C521.584 93.168 522.64 94.128 522.64 95.736C522.64 97.896 520.312 99.732 518.764 100.992H522.892V101.904H517.12ZM528.33 102V100.068H523.89V99.24L528.102 93.408H529.41V99.12H530.61V100.068H529.41V102H528.33ZM525.15 99.12H528.378V94.548L525.15 99.12ZM531.881 102V93.12H532.973V96.372C533.405 95.676 534.221 95.304 535.145 95.304C536.609 95.304 537.773 96.24 537.773 98.124V102H536.693V98.28C536.693 96.936 535.961 96.252 534.857 96.252C533.741 96.252 532.973 96.948 532.973 98.364V102H531.881ZM539.209 104.232V104.124C540.877 102.408 541.729 100.044 541.729 97.608C541.729 95.16 540.877 92.64 539.029 90.9V90.792H540.169C541.873 92.364 542.785 94.896 542.785 97.608C542.785 100.308 541.873 102.732 540.349 104.232H539.209Z" fill="#23262F"/>
<g clip-path="url(#clip2_4_539)">
<path d="M675 56C683.837 56 691 48.8366 691 40C691 31.1634 683.837 24 675 24C666.163 24 659 31.1634 659 40C659 48.8366 666.163 56 675 56Z" fill="#23292F"/>
<path d="M682.07 32H684.96L678.945 37.957C677.893 38.9931 676.476 39.5739 675 39.5739C673.524 39.5739 672.107 38.9931 671.055 37.957L665.035 32H667.93L672.5 36.523C673.165 37.1799 674.063 37.5482 674.998 37.5482C675.933 37.5482 676.831 37.1799 677.496 36.523L682.07 32ZM667.895 48.563H665L671.055 42.57C672.107 41.5339 673.524 40.9531 675 40.9531C676.476 40.9531 677.893 41.5339 678.945 42.57L685 48.562H682.105L677.5 44C676.835 43.3431 675.937 42.9748 675.002 42.9748C674.067 42.9748 673.169 43.3431 672.504 44L667.894 48.563H667.895Z" fill="white"/>
</g>
<path d="M712.844 40L711.032 37.18L709.388 40H707.492L710.132 35.776L707.456 31.624H709.388L711.2 34.432L712.832 31.624H714.728L712.1 35.836L714.776 40H712.844ZM720.495 34.228C720.495 33.484 720.075 33.016 719.139 33.016H717.735V35.476H719.139C720.075 35.476 720.495 34.984 720.495 34.228ZM716.055 31.624H719.199C721.215 31.624 722.223 32.788 722.223 34.192C722.223 35.212 721.659 36.244 720.315 36.604L722.319 40H720.375L718.527 36.736H717.735V40H716.055V31.624ZM725.422 35.428H726.754C727.702 35.428 728.122 34.96 728.122 34.216C728.122 33.448 727.702 32.992 726.754 32.992H725.422V35.428ZM729.85 34.216C729.85 35.488 728.986 36.784 726.826 36.784H725.422V40H723.742V31.624H726.826C728.842 31.624 729.85 32.764 729.85 34.216ZM730.659 42.172L733.899 28.636H735.543L732.303 42.172H730.659ZM736.855 36.796V31.624H738.535V36.808C738.535 37.96 739.159 38.56 740.227 38.56C741.307 38.56 741.931 37.96 741.931 36.808V31.624H743.623V36.796C743.623 39.004 742.039 40.084 740.203 40.084C738.367 40.084 736.855 39.004 736.855 36.796ZM751.102 37.576C751.102 38.896 750.046 40.084 748.138 40.084C746.398 40.084 745.054 39.172 745.03 37.588H746.83C746.878 38.26 747.322 38.704 748.102 38.704C748.894 38.704 749.362 38.284 749.362 37.684C749.362 35.872 745.042 36.964 745.054 33.928C745.054 32.416 746.278 31.504 748.006 31.504C749.722 31.504 750.898 32.38 751.006 33.892H749.158C749.122 33.34 748.678 32.908 747.958 32.896C747.298 32.872 746.806 33.196 746.806 33.88C746.806 35.56 751.102 34.624 751.102 37.576ZM755.486 31.624C758.162 31.624 759.902 33.28 759.902 35.824C759.902 38.356 758.162 40 755.486 40H752.558V31.624H755.486ZM754.238 38.572H755.426C757.19 38.572 758.186 37.564 758.186 35.824C758.186 34.084 757.19 33.04 755.426 33.04H754.238V38.572ZM760.716 32.98V31.624H766.86V32.98H764.628V40H762.948V32.98H760.716Z" fill="#777E91"/>
<rect x="780" y="24" width="58" height="24" rx="12" fill="#58BD7D"/>
<path d="M791.252 32.668H792.836V34.996H795.104V36.46H792.836V38.788H791.252V36.46H788.984V34.996H791.252V32.668ZM800.85 40V38.296H796.65V36.976L800.574 31.36H802.53V36.832H803.586V38.296H802.53V40H800.85ZM798.498 36.832H800.958V33.16L798.498 36.832ZM806.612 39.1C806.612 39.652 806.18 40.084 805.592 40.084C804.98 40.084 804.548 39.652 804.548 39.1C804.548 38.548 804.98 38.116 805.592 38.116C806.18 38.116 806.612 38.548 806.612 39.1ZM813.869 33.436H812.309C812.153 32.788 811.805 32.428 811.049 32.428C809.957 32.428 809.453 33.244 809.429 35.26C809.825 34.6 810.617 34.24 811.469 34.24C813.029 34.24 814.121 35.272 814.121 37.096C814.121 38.788 813.077 40.024 811.205 40.024C808.613 40.024 807.965 38.2 807.965 35.488C807.965 32.632 808.889 31.048 811.109 31.048C812.897 31.048 813.737 32.2 813.869 33.436ZM811.085 35.62C810.305 35.62 809.585 36.076 809.585 37.072C809.585 38.008 810.137 38.596 811.121 38.596C811.985 38.596 812.525 38.032 812.525 37.132C812.525 36.232 812.057 35.62 811.085 35.62ZM816.409 40V32.8H815.245V31.252H818.137V40H816.409ZM819.604 33.4C819.604 32.152 820.42 31.456 821.512 31.456C822.604 31.456 823.42 32.152 823.42 33.4C823.42 34.66 822.604 35.356 821.512 35.356C820.42 35.356 819.604 34.66 819.604 33.4ZM821.5 32.464C821.092 32.464 820.84 32.74 820.84 33.4C820.84 34.06 821.092 34.348 821.5 34.348C821.92 34.348 822.184 34.06 822.184 33.4C822.184 32.74 821.92 32.464 821.5 32.464ZM820.96 40L825.664 31.6H827.308L822.592 40H820.96ZM824.872 38.188C824.872 36.928 825.688 36.244 826.78 36.244C827.86 36.244 828.664 36.928 828.664 38.188C828.664 39.46 827.86 40.144 826.78 40.144C825.688 40.144 824.872 39.46 824.872 38.188ZM826.768 37.252C826.348 37.252 826.084 37.528 826.084 38.188C826.084 38.86 826.348 39.136 826.768 39.136C827.176 39.136 827.44 38.86 827.44 38.188C827.44 37.528 827.176 37.252 826.768 37.252Z" fill="#FCFCFD"/>
<path d="M713.648 78.088V76.12C710.552 75.856 708.344 74.2 708.272 71.32H711.872C711.968 72.424 712.544 73.168 713.648 73.408V68.824C711.176 68.2 708.272 67.504 708.272 63.952C708.272 61.12 710.528 59.272 713.648 59.032V57.088H715.184V59.032C718.184 59.272 720.2 60.88 720.416 63.736H716.792C716.696 62.8 716.12 62.08 715.184 61.792V66.328C717.68 66.976 720.608 67.624 720.608 71.176C720.608 73.624 718.688 75.904 715.184 76.144V78.088H713.648ZM717.128 71.32C717.128 70.192 716.312 69.64 715.184 69.256V73.456C716.408 73.24 717.128 72.4 717.128 71.32ZM711.776 63.784C711.776 64.912 712.544 65.488 713.648 65.872V61.72C712.544 61.888 711.776 62.56 711.776 63.784ZM725.895 76V61.6H723.567V58.504H729.351V76H725.895ZM736.582 74.2C736.582 75.304 735.718 76.168 734.542 76.168C733.318 76.168 732.454 75.304 732.454 74.2C732.454 73.096 733.318 72.232 734.542 72.232C735.718 72.232 736.582 73.096 736.582 74.2ZM738.713 75.76V73.264C742.673 69.904 746.825 66.808 746.825 63.592C746.825 62.032 746.129 60.976 744.473 60.976C742.865 60.976 741.977 62.128 741.953 63.976H738.689C738.809 59.968 741.377 58.12 744.521 58.12C748.289 58.12 750.185 60.352 750.185 63.4C750.185 67.456 746.273 70.624 743.489 72.976H750.569V75.76H738.713ZM755.614 66.736C754.174 65.992 753.214 64.768 753.214 62.872C753.214 60.352 755.134 58.168 759.118 58.168C763.102 58.168 765.022 60.376 765.022 62.872C765.022 64.72 764.014 66.04 762.646 66.736C764.374 67.48 765.454 68.992 765.454 71.032C765.454 74.368 762.718 76.384 759.118 76.384C755.542 76.384 752.806 74.368 752.806 71.032C752.806 68.968 753.886 67.456 755.614 66.736ZM759.118 65.752C760.654 65.752 761.758 64.792 761.758 63.352C761.758 61.768 760.726 60.88 759.118 60.88C757.558 60.88 756.502 61.744 756.502 63.376C756.502 64.816 757.606 65.752 759.118 65.752ZM759.118 68.2C757.366 68.2 756.046 69.112 756.046 70.888C756.046 72.448 757.198 73.6 759.118 73.6C761.038 73.6 762.166 72.424 762.166 70.888C762.166 69.16 760.918 68.2 759.118 68.2Z" fill="#23262F"/>
<path d="M710.204 103.044V102.072C708.764 101.94 707.756 101.1 707.732 99.828H708.896C708.956 100.452 709.352 101.04 710.204 101.172V98.172C709.004 97.86 707.72 97.512 707.72 95.856C707.72 94.56 708.704 93.636 710.204 93.54V92.544H710.852V93.54C712.22 93.66 713.096 94.464 713.216 95.676H712.052C711.98 95.16 711.584 94.62 710.852 94.464V97.392C712.04 97.692 713.324 98.04 713.324 99.708C713.324 100.824 712.484 101.964 710.852 102.072V103.044H710.204ZM712.232 99.768C712.232 98.916 711.62 98.58 710.852 98.352V101.184C711.74 101.088 712.232 100.488 712.232 99.768ZM708.836 95.796C708.836 96.648 709.436 96.972 710.204 97.212V94.44C709.4 94.512 708.836 94.944 708.836 95.796ZM715.077 101.904V101.124C717.357 99.288 719.517 97.56 719.517 95.784C719.517 94.824 719.097 94.104 717.921 94.104C716.793 94.104 716.217 94.884 716.169 95.976H715.113C715.185 94.128 716.349 93.168 717.909 93.168C719.541 93.168 720.597 94.128 720.597 95.736C720.597 97.896 718.269 99.732 716.721 100.992H720.849V101.904H715.077ZM723.359 101.328C723.359 101.748 723.035 102.072 722.639 102.072C722.219 102.072 721.895 101.748 721.895 101.328C721.895 100.908 722.219 100.584 722.639 100.584C723.035 100.584 723.359 100.908 723.359 101.328ZM724.631 97.572C724.631 95.088 725.255 93.192 727.655 93.192C730.043 93.192 730.667 95.088 730.667 97.572C730.667 100.092 730.043 102 727.655 102C725.255 102 724.631 100.092 724.631 97.572ZM729.587 97.572C729.587 95.772 729.359 94.188 727.655 94.188C725.939 94.188 725.711 95.772 725.711 97.572C725.711 99.444 725.939 101.004 727.655 101.004C729.359 101.004 729.587 99.444 729.587 97.572ZM732.562 99.672H733.57C733.726 100.572 734.302 101.1 735.31 101.1C736.582 101.1 737.266 100.236 737.23 97.692C736.882 98.424 736.018 98.844 735.082 98.844C733.486 98.844 732.298 97.848 732.298 96.012C732.298 94.356 733.282 93.156 735.154 93.156C737.506 93.156 738.19 94.812 738.19 97.5C738.19 100.392 737.53 102.012 735.25 102.012C733.522 102.012 732.682 100.944 732.562 99.672ZM735.262 97.92C736.306 97.92 737.098 97.236 737.098 96.072C737.098 94.896 736.426 94.068 735.178 94.068C734.05 94.068 733.342 94.836 733.342 95.988C733.342 97.104 733.966 97.92 735.262 97.92ZM744.656 99.648C744.656 98.724 743.96 98.148 742.892 98.148H740.996V101.1H742.928C744.008 101.1 744.656 100.56 744.656 99.648ZM744.44 95.892C744.44 95.064 743.876 94.536 742.808 94.536H740.996V97.248H742.832C743.852 97.248 744.44 96.744 744.44 95.892ZM745.748 99.756C745.748 101.016 744.752 102 743.024 102H739.904V93.636H742.904C744.668 93.636 745.556 94.596 745.556 95.76C745.556 96.816 744.896 97.428 744.092 97.692C745.004 97.848 745.748 98.724 745.748 99.756ZM750.235 98.064V97.14H755.023V98.064H750.235ZM763.404 100.848L766.032 93.636H767.184L764.028 102H762.768L759.612 93.636H760.776L763.404 100.848ZM774.621 98.7C774.621 100.788 773.121 102.108 771.249 102.108C769.389 102.108 767.973 100.788 767.973 98.7C767.973 96.624 769.437 95.316 771.297 95.316C773.169 95.316 774.621 96.624 774.621 98.7ZM769.089 98.7C769.089 100.368 770.109 101.148 771.249 101.148C772.389 101.148 773.505 100.368 773.505 98.7C773.505 97.044 772.413 96.264 771.285 96.264C770.133 96.264 769.089 97.044 769.089 98.7ZM776.057 102V93.12H777.149V102H776.057ZM784.842 95.424V102H783.75V101.028C783.33 101.712 782.526 102.096 781.65 102.096C780.138 102.096 778.95 101.16 778.95 99.276V95.424H780.03V99.132C780.03 100.464 780.762 101.148 781.866 101.148C782.994 101.148 783.75 100.452 783.75 99.036V95.424H784.842ZM796.178 102V98.28C796.178 96.936 795.458 96.252 794.378 96.252C793.274 96.252 792.518 96.96 792.518 98.376V102H791.438V98.28C791.438 96.936 790.718 96.252 789.638 96.252C788.534 96.252 787.778 96.96 787.778 98.376V102H786.686V95.424H787.778V96.372C788.21 95.676 788.99 95.304 789.854 95.304C790.934 95.304 791.834 95.784 792.266 96.768C792.65 95.82 793.586 95.304 794.594 95.304C796.094 95.304 797.258 96.24 797.258 98.124V102H796.178ZM801.845 96.24C800.777 96.24 799.889 96.948 799.769 98.232H803.921C803.933 96.948 802.973 96.24 801.845 96.24ZM804.917 99.972C804.581 101.172 803.525 102.108 801.893 102.108C800.021 102.108 798.641 100.788 798.641 98.7C798.641 96.624 799.973 95.316 801.893 95.316C803.801 95.316 805.049 96.66 805.049 98.46C805.049 98.7 805.037 98.892 805.013 99.12H799.757C799.841 100.452 800.777 101.184 801.893 101.184C802.877 101.184 803.501 100.68 803.741 99.972H804.917ZM813.638 104.232H812.498C810.974 102.732 810.062 100.308 810.062 97.608C810.062 94.896 810.974 92.364 812.678 90.792H813.818V90.9C811.97 92.64 811.118 95.16 811.118 97.608C811.118 100.044 811.97 102.408 813.638 104.124V104.232ZM814.827 101.904V101.124C817.107 99.288 819.267 97.56 819.267 95.784C819.267 94.824 818.847 94.104 817.671 94.104C816.543 94.104 815.967 94.884 815.919 95.976H814.863C814.935 94.128 816.099 93.168 817.659 93.168C819.291 93.168 820.347 94.128 820.347 95.736C820.347 97.896 818.019 99.732 816.471 100.992H820.599V101.904H814.827ZM826.037 102V100.068H821.597V99.24L825.809 93.408H827.117V99.12H828.317V100.068H827.117V102H826.037ZM822.857 99.12H826.085V94.548L822.857 99.12ZM829.588 102V93.12H830.68V96.372C831.112 95.676 831.928 95.304 832.852 95.304C834.316 95.304 835.48 96.24 835.48 98.124V102H834.4V98.28C834.4 96.936 833.668 96.252 832.564 96.252C831.448 96.252 830.68 96.948 830.68 98.364V102H829.588ZM836.916 104.232V104.124C838.584 102.408 839.436 100.044 839.436 97.608C839.436 95.16 838.584 92.64 836.736 90.9V90.792H837.876C839.58 92.364 840.492 94.896 840.492 97.608C840.492 100.308 839.58 102.732 838.056 104.232H836.916Z" fill="#23262F"/>
</g>
<defs>
<filter id="filter0_d_4_539" x="0" y="0" width="882" height="212" filterUnits="userSpaceOnUse" color-interpolation-filters="sRGB">
<feFlood flood-opacity="0" result="BackgroundImageFix"/>
<feColorMatrix in="SourceAlpha" type="matrix" values="0 0 0 0 0 0 0 0 0 0 0 0 0 0 0 0 0 0 127 0" result="hardAlpha"/>
<feMorphology radius="48" operator="erode" in="SourceAlpha" result="effect1_dropShadow_4_539"/>
<feOffset dy="64"/>
<feGaussianBlur stdDeviation="32"/>
<feColorMatrix type="matrix" values="0 0 0 0 0.0583333 0 0 0 0 0.0583333 0 0 0 0 0.0583333 0 0 0 0.1 0"/>
<feBlend mode="multiply" in2="BackgroundImageFix" result="effect1_dropShadow_4_539"/>
<feBlend mode="normal" in="SourceGraphic" in2="effect1_dropShadow_4_539" result="shape"/>
</filter>
<clipPath id="clip0_4_539">
<rect width="32" height="32" fill="white" transform="translate(44 28)"/>
</clipPath>
<clipPath id="clip1_4_539">
<rect width="32" height="32" fill="white" transform="translate(357 28)"/>
</clipPath>
<clipPath id="clip2_4_539">
<rect width="32" height="32" fill="white" transform="translate(659 24)"/>
</clipPath>
</defs>
</svg>
