<svg width="364" height="437" viewBox="0 0 364 437" fill="none" xmlns="http://www.w3.org/2000/svg">
<rect width="364" height="437" rx="20" fill="white"/>
<path d="M36.384 43.648H37.752V52H36.384L32.268 45.772V52H30.9V43.648H32.268L36.384 49.864V43.648ZM39.0924 48.664C39.0924 46.624 40.4724 45.28 42.2124 45.28C43.3284 45.28 44.0964 45.808 44.5044 46.348V45.388H45.8844V52H44.5044V51.016C44.0844 51.58 43.2924 52.108 42.1884 52.108C40.4724 52.108 39.0924 50.704 39.0924 48.664ZM44.5044 48.688C44.5044 47.272 43.5324 46.468 42.5004 46.468C41.4804 46.468 40.4964 47.236 40.4964 48.664C40.4964 50.092 41.4804 50.92 42.5004 50.92C43.5324 50.92 44.5044 50.116 44.5044 48.688ZM57.0533 52V48.304C57.0533 47.092 56.3933 46.468 55.3973 46.468C54.3893 46.468 53.7293 47.092 53.7293 48.304V52H52.3733V48.304C52.3733 47.092 51.7133 46.468 50.7173 46.468C49.7093 46.468 49.0493 47.092 49.0493 48.304V52H47.6813V45.388H49.0493V46.144C49.4933 45.604 50.2133 45.28 51.0053 45.28C52.0493 45.28 52.9253 45.724 53.3813 46.588C53.7893 45.784 54.7253 45.28 55.6853 45.28C57.2333 45.28 58.4093 46.252 58.4093 48.1V52H57.0533ZM62.934 46.432C62.01 46.432 61.266 47.056 61.122 48.1H64.782C64.758 47.08 63.954 46.432 62.934 46.432ZM66.03 50.032C65.658 51.184 64.614 52.108 62.994 52.108C61.098 52.108 59.694 50.764 59.694 48.688C59.694 46.612 61.038 45.28 62.994 45.28C64.878 45.28 66.21 46.588 66.21 48.532C66.21 48.76 66.198 48.976 66.162 49.204H61.11C61.206 50.296 61.986 50.956 62.994 50.956C63.834 50.956 64.302 50.548 64.554 50.032H66.03Z" fill="#777E91"/>
<path d="M192.268 47.5H193.78C194.848 47.5 195.328 46.984 195.328 46.144C195.328 45.28 194.848 44.776 193.78 44.776H192.268V47.5ZM196.732 46.144C196.732 47.332 195.952 48.616 193.78 48.616H192.268V52H190.9V43.66H193.78C195.76 43.66 196.732 44.788 196.732 46.144ZM199.405 48.52V52H198.037V45.388H199.405V46.348C199.789 45.688 200.449 45.28 201.385 45.28V46.696H201.037C200.029 46.696 199.405 47.116 199.405 48.52ZM202.642 52V45.388H204.01V52H202.642ZM203.338 44.512C202.846 44.512 202.462 44.128 202.462 43.636C202.462 43.144 202.846 42.76 203.338 42.76C203.818 42.76 204.202 43.144 204.202 43.636C204.202 44.128 203.818 44.512 203.338 44.512ZM205.35 48.688C205.35 46.624 206.694 45.28 208.59 45.28C210.21 45.28 211.266 46.084 211.638 47.476H210.162C209.934 46.84 209.406 46.432 208.59 46.432C207.486 46.432 206.754 47.248 206.754 48.688C206.754 50.14 207.486 50.956 208.59 50.956C209.406 50.956 209.91 50.596 210.162 49.912H211.638C211.266 51.208 210.21 52.108 208.59 52.108C206.694 52.108 205.35 50.764 205.35 48.688ZM215.786 46.432C214.862 46.432 214.118 47.056 213.974 48.1H217.634C217.61 47.08 216.806 46.432 215.786 46.432ZM218.882 50.032C218.51 51.184 217.466 52.108 215.846 52.108C213.95 52.108 212.546 50.764 212.546 48.688C212.546 46.612 213.89 45.28 215.846 45.28C217.73 45.28 219.062 46.588 219.062 48.532C219.062 48.76 219.05 48.976 219.014 49.204H213.962C214.058 50.296 214.838 50.956 215.846 50.956C216.686 50.956 217.154 50.548 217.406 50.032H218.882Z" fill="#777E91"/>
<path d="M254.612 51.88V50.884C256.676 49.072 258.848 47.488 258.848 45.772C258.848 44.86 258.452 44.236 257.432 44.236C256.472 44.236 255.956 44.908 255.92 45.892H254.6C254.648 43.996 255.872 43.072 257.42 43.072C259.196 43.072 260.204 44.14 260.204 45.712C260.204 47.836 258.044 49.456 256.64 50.74H260.444V51.88H254.612ZM265.822 52V50.176H261.478V49.144L265.51 43.36H267.166V48.988H268.282V50.176H267.166V52H265.822ZM263.05 48.988H265.882V44.752L263.05 48.988ZM269.595 52V43.12H270.963V46.156C271.419 45.604 272.163 45.28 273.015 45.28C274.491 45.28 275.643 46.252 275.643 48.1V52H274.287V48.304C274.287 47.092 273.627 46.468 272.631 46.468C271.623 46.468 270.963 47.092 270.963 48.304V52H269.595ZM280.049 48.688C280.049 46.624 281.393 45.28 283.289 45.28C284.909 45.28 285.965 46.084 286.337 47.476H284.861C284.633 46.84 284.105 46.432 283.289 46.432C282.185 46.432 281.453 47.248 281.453 48.688C281.453 50.14 282.185 50.956 283.289 50.956C284.105 50.956 284.609 50.596 284.861 49.912H286.337C285.965 51.208 284.909 52.108 283.289 52.108C281.393 52.108 280.049 50.764 280.049 48.688ZM287.701 52V43.12H289.069V46.156C289.525 45.604 290.269 45.28 291.121 45.28C292.597 45.28 293.749 46.252 293.749 48.1V52H292.393V48.304C292.393 47.092 291.733 46.468 290.737 46.468C289.729 46.468 289.069 47.092 289.069 48.304V52H287.701ZM295.038 48.664C295.038 46.624 296.418 45.28 298.158 45.28C299.274 45.28 300.042 45.808 300.45 46.348V45.388H301.83V52H300.45V51.016C300.03 51.58 299.238 52.108 298.134 52.108C296.418 52.108 295.038 50.704 295.038 48.664ZM300.45 48.688C300.45 47.272 299.478 46.468 298.446 46.468C297.426 46.468 296.442 47.236 296.442 48.664C296.442 50.092 297.426 50.92 298.446 50.92C299.478 50.92 300.45 50.116 300.45 48.688ZM308.319 52V48.304C308.319 47.092 307.659 46.468 306.663 46.468C305.655 46.468 304.995 47.092 304.995 48.304V52H303.627V45.388H304.995V46.144C305.439 45.604 306.171 45.28 306.963 45.28C308.511 45.28 309.675 46.252 309.675 48.1V52H308.319ZM310.964 48.664C310.964 46.624 312.344 45.28 314.084 45.28C315.164 45.28 315.968 45.784 316.376 46.348V45.388H317.756V52.108C317.756 53.908 316.592 55.264 314.528 55.264C312.764 55.264 311.456 54.388 311.288 52.924H312.644C312.848 53.608 313.58 54.076 314.528 54.076C315.584 54.076 316.376 53.428 316.376 52.108V51.004C315.956 51.568 315.164 52.108 314.084 52.108C312.344 52.108 310.964 50.704 310.964 48.664ZM316.376 48.688C316.376 47.272 315.404 46.468 314.372 46.468C313.352 46.468 312.368 47.236 312.368 48.664C312.368 50.092 313.352 50.92 314.372 50.92C315.404 50.92 316.376 50.116 316.376 48.688ZM322.336 46.432C321.412 46.432 320.668 47.056 320.524 48.1H324.184C324.16 47.08 323.356 46.432 322.336 46.432ZM325.432 50.032C325.06 51.184 324.016 52.108 322.396 52.108C320.5 52.108 319.096 50.764 319.096 48.688C319.096 46.612 320.44 45.28 322.396 45.28C324.28 45.28 325.612 46.588 325.612 48.532C325.612 48.76 325.6 48.976 325.564 49.204H320.512C320.608 50.296 321.388 50.956 322.396 50.956C323.236 50.956 323.704 50.548 323.956 50.032H325.432Z" fill="#777E91"/>
<rect x="30" y="66" width="304" height="1" rx="0.5" fill="#E6E8EC"/>
<g clip-path="url(#clip0_15_837)">
<path d="M50 115C58.8366 115 66 107.837 66 99C66 90.1634 58.8366 83 50 83C41.1634 83 34 90.1634 34 99C34 107.837 41.1634 115 50 115Z" fill="#F7931A"/>
<path d="M57.032 97.02C57.346 94.924 55.749 93.797 53.567 93.045L54.275 90.205L52.547 89.775L51.857 92.54C51.403 92.426 50.937 92.32 50.472 92.214L51.167 89.431L49.439 89L48.731 91.839C48.355 91.753 47.985 91.669 47.627 91.579L47.629 91.57L45.245 90.975L44.785 92.821C44.785 92.821 46.068 93.115 46.041 93.133C46.741 93.308 46.867 93.771 46.846 94.139L46.04 97.374C46.088 97.386 46.15 97.404 46.22 97.431L46.037 97.386L44.907 101.918C44.821 102.13 44.604 102.449 44.114 102.328C44.132 102.353 42.858 102.015 42.858 102.015L42 103.993L44.25 104.554C44.668 104.659 45.078 104.769 45.481 104.872L44.766 107.744L46.493 108.174L47.201 105.334C47.673 105.461 48.131 105.579 48.579 105.691L47.873 108.519L49.601 108.949L50.316 106.083C53.264 106.641 55.48 106.416 56.413 103.75C57.165 101.604 56.376 100.365 54.825 99.558C55.955 99.298 56.805 98.555 57.032 97.02V97.02ZM53.082 102.558C52.549 104.705 48.934 103.544 47.762 103.253L48.712 99.448C49.884 99.741 53.641 100.32 53.082 102.558ZM53.617 96.989C53.13 98.942 50.122 97.949 49.147 97.706L50.007 94.256C50.982 94.499 54.125 94.952 53.617 96.989Z" fill="white"/>
</g>
<path d="M91.604 100.612C91.604 99.784 90.98 99.28 90.068 99.28H88.268V101.884H90.116C91.04 101.884 91.604 101.416 91.604 100.612ZM91.388 96.976C91.388 96.22 90.848 95.776 89.96 95.776H88.268V98.164H89.96C90.848 98.164 91.388 97.744 91.388 96.976ZM92.972 100.756C92.972 102.028 91.94 103 90.236 103H86.9V94.66H90.08C91.844 94.66 92.78 95.632 92.78 96.808C92.78 97.816 92.168 98.428 91.364 98.716C92.252 98.872 92.972 99.76 92.972 100.756ZM94.4586 103V96.388H95.8266V103H94.4586ZM95.1546 95.512C94.6626 95.512 94.2786 95.128 94.2786 94.636C94.2786 94.144 94.6626 93.76 95.1546 93.76C95.6346 93.76 96.0186 94.144 96.0186 94.636C96.0186 95.128 95.6346 95.512 95.1546 95.512ZM97.8387 101.164V97.504H97.0587V96.388H97.8387V94.744H99.2187V96.388H100.827V97.504H99.2187V101.164C99.2187 101.656 99.4107 101.86 99.9867 101.86H100.827V103H99.7467C98.5707 103 97.8387 102.508 97.8387 101.164ZM101.632 99.688C101.632 97.624 102.976 96.28 104.872 96.28C106.492 96.28 107.548 97.084 107.92 98.476H106.444C106.216 97.84 105.688 97.432 104.872 97.432C103.768 97.432 103.036 98.248 103.036 99.688C103.036 101.14 103.768 101.956 104.872 101.956C105.688 101.956 106.192 101.596 106.444 100.912H107.92C107.548 102.208 106.492 103.108 104.872 103.108C102.976 103.108 101.632 101.764 101.632 99.688ZM115.583 99.688C115.583 101.764 114.047 103.108 112.151 103.108C110.267 103.108 108.839 101.764 108.839 99.688C108.839 97.612 110.327 96.28 112.211 96.28C114.095 96.28 115.583 97.612 115.583 99.688ZM110.231 99.688C110.231 101.188 111.119 101.92 112.151 101.92C113.171 101.92 114.179 101.188 114.179 99.688C114.179 98.188 113.207 97.468 112.187 97.468C111.155 97.468 110.231 98.188 110.231 99.688ZM116.935 103V96.388H118.303V103H116.935ZM117.631 95.512C117.139 95.512 116.755 95.128 116.755 94.636C116.755 94.144 117.139 93.76 117.631 93.76C118.111 93.76 118.495 94.144 118.495 94.636C118.495 95.128 118.111 95.512 117.631 95.512ZM124.791 103V99.304C124.791 98.092 124.131 97.468 123.135 97.468C122.127 97.468 121.467 98.092 121.467 99.304V103H120.099V96.388H121.467V97.144C121.911 96.604 122.643 96.28 123.435 96.28C124.983 96.28 126.147 97.252 126.147 99.1V103H124.791Z" fill="#23262F"/>
<path d="M193.24 104.044V103.072C191.776 102.94 190.72 102.136 190.72 100.78H192.184C192.232 101.38 192.568 101.824 193.24 101.944V99.304C192.04 99.004 190.72 98.668 190.72 96.976C190.72 95.632 191.752 94.708 193.24 94.576V93.592H194.02V94.564C195.4 94.684 196.336 95.44 196.444 96.796H194.98C194.932 96.316 194.596 95.872 194.02 95.728V98.32C195.22 98.608 196.528 98.932 196.528 100.624C196.528 101.788 195.64 102.916 194.02 103.06V104.044H193.24ZM195.148 100.696C195.148 100.012 194.668 99.712 194.02 99.508V101.944C194.74 101.824 195.148 101.32 195.148 100.696ZM192.112 96.904C192.112 97.6 192.592 97.912 193.24 98.116V95.692C192.58 95.776 192.112 96.172 192.112 96.904ZM204.489 96.28H203.229C203.061 95.572 202.641 95.176 201.777 95.176C200.541 95.176 199.905 96.016 199.869 98.308C200.301 97.588 201.165 97.204 202.077 97.204C203.649 97.204 204.765 98.26 204.765 100.084C204.765 101.74 203.769 103 201.897 103C199.353 103 198.693 101.212 198.693 98.428C198.693 95.692 199.605 94.036 201.789 94.036C203.493 94.036 204.345 95.116 204.489 96.28ZM201.777 98.356C200.877 98.356 200.025 98.896 200.025 100.06C200.025 101.14 200.661 101.86 201.825 101.86C202.833 101.86 203.457 101.176 203.457 100.144C203.457 99.1 202.929 98.356 201.777 98.356ZM206.668 100.624H207.928C208.084 101.404 208.6 101.848 209.512 101.848C210.604 101.848 211.156 101.116 211.156 98.884C210.76 99.436 210.004 99.736 209.212 99.736C207.676 99.736 206.428 98.788 206.428 96.94C206.428 95.2 207.496 94.048 209.332 94.048C211.588 94.048 212.344 95.596 212.344 98.464C212.344 101.416 211.72 102.988 209.428 102.988C207.616 102.988 206.776 101.872 206.668 100.624ZM209.452 98.584C210.424 98.584 211 97.924 211 96.94C211 95.824 210.364 95.188 209.368 95.188C208.348 95.188 207.736 95.896 207.736 96.904C207.736 97.804 208.24 98.584 209.452 98.584ZM213.181 104.668L214.033 101.356H215.521L214.069 104.668H213.181ZM220.712 103V101.176H216.368V100.144L220.4 94.36H222.056V99.988H223.172V101.176H222.056V103H220.712ZM217.94 99.988H220.772V95.752L217.94 99.988ZM225.782 98.428C225.038 98.056 224.534 97.432 224.534 96.46C224.534 95.188 225.482 94.096 227.414 94.096C229.346 94.096 230.294 95.2 230.294 96.46C230.294 97.396 229.754 98.08 229.046 98.428C229.934 98.764 230.522 99.544 230.522 100.588C230.522 102.184 229.226 103.216 227.414 103.216C225.614 103.216 224.318 102.184 224.318 100.588C224.318 99.532 224.906 98.752 225.782 98.428ZM227.414 97.996C228.326 97.996 228.986 97.42 228.986 96.628C228.986 95.728 228.374 95.236 227.414 95.236C226.478 95.236 225.854 95.716 225.854 96.64C225.854 97.432 226.502 97.996 227.414 97.996ZM227.414 99.028C226.406 99.028 225.626 99.52 225.626 100.54C225.626 101.428 226.298 102.076 227.414 102.076C228.518 102.076 229.178 101.416 229.178 100.54C229.178 99.556 228.446 99.028 227.414 99.028ZM232.894 103V95.5H231.778V94.252H234.274V103H232.894ZM237.75 102.208C237.75 102.7 237.366 103.084 236.886 103.084C236.394 103.084 236.01 102.7 236.01 102.208C236.01 101.716 236.394 101.332 236.886 101.332C237.366 101.332 237.75 101.716 237.75 102.208ZM238.94 102.88V101.884C241.004 100.072 243.176 98.488 243.176 96.772C243.176 95.86 242.78 95.236 241.76 95.236C240.8 95.236 240.284 95.908 240.248 96.892H238.928C238.976 94.996 240.2 94.072 241.748 94.072C243.524 94.072 244.532 95.14 244.532 96.712C244.532 98.836 242.372 100.456 240.968 101.74H244.772V102.88H238.94ZM245.95 96.412C246.046 94.9 247.222 94.048 248.818 94.048C250.558 94.048 251.506 95.056 251.506 96.328C251.506 97.372 250.846 98.08 250.162 98.308V98.356C251.074 98.632 251.662 99.388 251.662 100.6C251.662 101.992 250.678 103.048 248.854 103.048C247.198 103.048 245.914 102.184 245.83 100.468H247.15C247.21 101.284 247.81 101.908 248.842 101.908C249.862 101.908 250.366 101.284 250.366 100.468C250.366 99.316 249.622 98.92 248.194 98.92H247.882V97.792H248.206C249.442 97.78 250.198 97.42 250.198 96.484C250.198 95.728 249.706 95.224 248.77 95.224C247.81 95.224 247.366 95.8 247.282 96.412H245.95Z" fill="#23262F"/>
<path d="M274.648 95.608H275.92V98.092H278.344V99.244H275.92V101.728H274.648V99.244H272.224V98.092H274.648V95.608ZM280.262 96.412C280.358 94.9 281.534 94.048 283.13 94.048C284.87 94.048 285.818 95.056 285.818 96.328C285.818 97.372 285.158 98.08 284.474 98.308V98.356C285.386 98.632 285.974 99.388 285.974 100.6C285.974 101.992 284.99 103.048 283.166 103.048C281.51 103.048 280.226 102.184 280.142 100.468H281.462C281.522 101.284 282.122 101.908 283.154 101.908C284.174 101.908 284.678 101.284 284.678 100.468C284.678 99.316 283.934 98.92 282.506 98.92H282.194V97.792H282.518C283.754 97.78 284.51 97.42 284.51 96.484C284.51 95.728 284.018 95.224 283.082 95.224C282.122 95.224 281.678 95.8 281.594 96.412H280.262ZM289.007 102.208C289.007 102.7 288.623 103.084 288.143 103.084C287.651 103.084 287.267 102.7 287.267 102.208C287.267 101.716 287.651 101.332 288.143 101.332C288.623 101.332 289.007 101.716 289.007 102.208ZM291.782 98.428C291.038 98.056 290.534 97.432 290.534 96.46C290.534 95.188 291.482 94.096 293.414 94.096C295.346 94.096 296.294 95.2 296.294 96.46C296.294 97.396 295.754 98.08 295.046 98.428C295.934 98.764 296.522 99.544 296.522 100.588C296.522 102.184 295.226 103.216 293.414 103.216C291.614 103.216 290.318 102.184 290.318 100.588C290.318 99.532 290.906 98.752 291.782 98.428ZM293.414 97.996C294.326 97.996 294.986 97.42 294.986 96.628C294.986 95.728 294.374 95.236 293.414 95.236C292.478 95.236 291.854 95.716 291.854 96.64C291.854 97.432 292.502 97.996 293.414 97.996ZM293.414 99.028C292.406 99.028 291.626 99.52 291.626 100.54C291.626 101.428 292.298 102.076 293.414 102.076C294.518 102.076 295.178 101.416 295.178 100.54C295.178 99.556 294.446 99.028 293.414 99.028ZM298.318 94.228H303.598V95.428H299.578V97.816C299.902 97.384 300.61 97.024 301.39 97.024C303.538 97.024 304.198 98.62 304.198 99.94C304.198 101.68 303.202 103 301.174 103C299.374 103 298.33 102.004 298.126 100.636H299.458C299.638 101.38 300.262 101.86 301.186 101.86C302.362 101.86 302.89 101.056 302.89 99.976C302.89 98.836 302.326 98.188 301.186 98.188C300.382 98.188 299.842 98.632 299.614 99.28H298.318V94.228ZM305.406 96.364C305.406 95.176 306.186 94.492 307.23 94.492C308.274 94.492 309.054 95.176 309.054 96.364C309.054 97.564 308.274 98.248 307.23 98.248C306.186 98.248 305.406 97.564 305.406 96.364ZM307.23 95.32C306.762 95.32 306.474 95.62 306.474 96.364C306.474 97.108 306.762 97.42 307.23 97.42C307.686 97.42 307.986 97.108 307.986 96.364C307.986 95.62 307.686 95.32 307.23 95.32ZM306.594 103L311.382 94.648H312.726L307.938 103H306.594ZM310.29 101.272C310.29 100.072 311.07 99.4 312.114 99.4C313.146 99.4 313.926 100.072 313.926 101.272C313.926 102.472 313.146 103.156 312.114 103.156C311.07 103.156 310.29 102.472 310.29 101.272ZM312.102 100.228C311.646 100.228 311.346 100.528 311.346 101.272C311.346 102.016 311.646 102.316 312.102 102.316C312.558 102.316 312.858 102.016 312.858 101.272C312.858 100.528 312.558 100.228 312.102 100.228Z" fill="#58BD7D"/>
<g clip-path="url(#clip1_15_837)">
<path d="M50 167C58.8366 167 66 159.837 66 151C66 142.163 58.8366 135 50 135C41.1634 135 34 142.163 34 151C34 159.837 41.1634 167 50 167Z" fill="#627EEA"/>
<path d="M50 139V147.87L57.497 151.22L50 139Z" fill="white" fill-opacity="0.602"/>
<path d="M50.498 139L43 151.22L50.498 147.87V139Z" fill="white"/>
<path d="M50 157.352V163.379L57.502 153L50 157.352Z" fill="white" fill-opacity="0.602"/>
<path d="M50.498 163.379V157.351L43 153L50.498 163.379Z" fill="white"/>
<path d="M50 155.701L57.497 151.348L50 148V155.701Z" fill="white" fill-opacity="0.2"/>
<path d="M43 151.348L50.498 155.701V148L43 151.348Z" fill="white" fill-opacity="0.602"/>
</g>
<path d="M91.508 146.648V147.764H88.268V150.212H91.148V151.328H88.268V153.884H91.508V155H86.9V146.648H91.508ZM93.409 153.164V149.504H92.629V148.388H93.409V146.744H94.789V148.388H96.397V149.504H94.789V153.164C94.789 153.656 94.981 153.86 95.557 153.86H96.397V155H95.317C94.141 155 93.409 154.508 93.409 153.164ZM97.6578 155V146.12H99.0258V149.156C99.4818 148.604 100.226 148.28 101.078 148.28C102.554 148.28 103.706 149.252 103.706 151.1V155H102.35V151.304C102.35 150.092 101.69 149.468 100.694 149.468C99.6858 149.468 99.0258 150.092 99.0258 151.304V155H97.6578ZM108.235 149.432C107.311 149.432 106.567 150.056 106.423 151.1H110.083C110.059 150.08 109.255 149.432 108.235 149.432ZM111.331 153.032C110.959 154.184 109.915 155.108 108.295 155.108C106.399 155.108 104.995 153.764 104.995 151.688C104.995 149.612 106.339 148.28 108.295 148.28C110.179 148.28 111.511 149.588 111.511 151.532C111.511 151.76 111.499 151.976 111.463 152.204H106.411C106.507 153.296 107.287 153.956 108.295 153.956C109.135 153.956 109.603 153.548 109.855 153.032H111.331ZM114.225 151.52V155H112.857V148.388H114.225V149.348C114.609 148.688 115.269 148.28 116.205 148.28V149.696H115.857C114.849 149.696 114.225 150.116 114.225 151.52ZM120.247 149.432C119.323 149.432 118.579 150.056 118.435 151.1H122.095C122.071 150.08 121.267 149.432 120.247 149.432ZM123.342 153.032C122.971 154.184 121.927 155.108 120.307 155.108C118.411 155.108 117.007 153.764 117.007 151.688C117.007 149.612 118.351 148.28 120.307 148.28C122.191 148.28 123.523 149.588 123.523 151.532C123.523 151.76 123.511 151.976 123.475 152.204H118.423C118.519 153.296 119.299 153.956 120.307 153.956C121.147 153.956 121.615 153.548 121.867 153.032H123.342ZM130.857 148.388V155H129.489V154.208C129.057 154.772 128.313 155.096 127.533 155.096C125.985 155.096 124.809 154.124 124.809 152.276V148.388H126.165V152.072C126.165 153.284 126.825 153.908 127.821 153.908C128.829 153.908 129.489 153.284 129.489 152.072V148.388H130.857ZM142.034 155V151.304C142.034 150.092 141.374 149.468 140.378 149.468C139.37 149.468 138.71 150.092 138.71 151.304V155H137.354V151.304C137.354 150.092 136.694 149.468 135.698 149.468C134.69 149.468 134.03 150.092 134.03 151.304V155H132.662V148.388H134.03V149.144C134.474 148.604 135.194 148.28 135.986 148.28C137.03 148.28 137.906 148.724 138.362 149.588C138.77 148.784 139.706 148.28 140.666 148.28C142.214 148.28 143.39 149.252 143.39 151.1V155H142.034Z" fill="#23262F"/>
<path d="M193.24 156.044V155.072C191.776 154.94 190.72 154.136 190.72 152.78H192.184C192.232 153.38 192.568 153.824 193.24 153.944V151.304C192.04 151.004 190.72 150.668 190.72 148.976C190.72 147.632 191.752 146.708 193.24 146.576V145.592H194.02V146.564C195.4 146.684 196.336 147.44 196.444 148.796H194.98C194.932 148.316 194.596 147.872 194.02 147.728V150.32C195.22 150.608 196.528 150.932 196.528 152.624C196.528 153.788 195.64 154.916 194.02 155.06V156.044H193.24ZM195.148 152.696C195.148 152.012 194.668 151.712 194.02 151.508V153.944C194.74 153.824 195.148 153.32 195.148 152.696ZM192.112 148.904C192.112 149.6 192.592 149.912 193.24 150.116V147.692C192.58 147.776 192.112 148.172 192.112 148.904ZM198.417 154.88V153.884C200.481 152.072 202.653 150.488 202.653 148.772C202.653 147.86 202.257 147.236 201.237 147.236C200.277 147.236 199.761 147.908 199.725 148.892H198.405C198.453 146.996 199.677 146.072 201.225 146.072C203.001 146.072 204.009 147.14 204.009 148.712C204.009 150.836 201.849 152.456 200.445 153.74H204.249V154.88H198.417ZM204.79 156.668L205.642 153.356H207.13L205.678 156.668H204.79ZM209.082 155V147.5H207.966V146.252H210.462V155H209.082ZM216.517 155V153.176H212.173V152.144L216.205 146.36H217.861V151.988H218.977V153.176H217.861V155H216.517ZM213.745 151.988H216.577V147.752L213.745 151.988ZM220.555 152.624H221.815C221.971 153.404 222.487 153.848 223.399 153.848C224.491 153.848 225.043 153.116 225.043 150.884C224.647 151.436 223.891 151.736 223.099 151.736C221.563 151.736 220.315 150.788 220.315 148.94C220.315 147.2 221.383 146.048 223.219 146.048C225.475 146.048 226.231 147.596 226.231 150.464C226.231 153.416 225.607 154.988 223.315 154.988C221.503 154.988 220.663 153.872 220.555 152.624ZM223.339 150.584C224.311 150.584 224.887 149.924 224.887 148.94C224.887 147.824 224.251 147.188 223.255 147.188C222.235 147.188 221.623 147.896 221.623 148.904C221.623 149.804 222.127 150.584 223.339 150.584ZM229.324 154.208C229.324 154.7 228.94 155.084 228.46 155.084C227.968 155.084 227.584 154.7 227.584 154.208C227.584 153.716 227.968 153.332 228.46 153.332C228.94 153.332 229.324 153.716 229.324 154.208ZM231.558 155V147.5H230.442V146.252H232.938V155H231.558ZM234.818 150.512C234.818 148.016 235.49 146.096 237.938 146.096C240.386 146.096 241.058 148.016 241.058 150.512C241.058 153.056 240.386 154.976 237.938 154.976C235.49 154.976 234.818 153.056 234.818 150.512ZM239.714 150.512C239.714 148.88 239.534 147.344 237.938 147.344C236.342 147.344 236.162 148.88 236.162 150.512C236.162 152.228 236.342 153.728 237.938 153.728C239.534 153.728 239.714 152.228 239.714 150.512Z" fill="#23262F"/>
<path d="M276.648 147.608H277.92V150.092H280.344V151.244H277.92V153.728H276.648V151.244H274.224V150.092H276.648V147.608ZM282.646 146.228H287.926V147.428H283.906V149.816C284.23 149.384 284.938 149.024 285.718 149.024C287.866 149.024 288.526 150.62 288.526 151.94C288.526 153.68 287.53 155 285.502 155C283.702 155 282.658 154.004 282.454 152.636H283.786C283.966 153.38 284.59 153.86 285.514 153.86C286.69 153.86 287.218 153.056 287.218 151.976C287.218 150.836 286.654 150.188 285.514 150.188C284.71 150.188 284.17 150.632 283.942 151.28H282.646V146.228ZM291.546 154.208C291.546 154.7 291.162 155.084 290.682 155.084C290.19 155.084 289.806 154.7 289.806 154.208C289.806 153.716 290.19 153.332 290.682 153.332C291.162 153.332 291.546 153.716 291.546 154.208ZM297.021 155V153.176H292.677V152.144L296.709 146.36H298.365V151.988H299.481V153.176H298.365V155H297.021ZM294.249 151.988H297.081V147.752L294.249 151.988ZM304.791 155V153.176H300.447V152.144L304.479 146.36H306.135V151.988H307.251V153.176H306.135V155H304.791ZM302.019 151.988H304.851V147.752L302.019 151.988ZM308.168 148.364C308.168 147.176 308.948 146.492 309.992 146.492C311.036 146.492 311.816 147.176 311.816 148.364C311.816 149.564 311.036 150.248 309.992 150.248C308.948 150.248 308.168 149.564 308.168 148.364ZM309.992 147.32C309.524 147.32 309.236 147.62 309.236 148.364C309.236 149.108 309.524 149.42 309.992 149.42C310.448 149.42 310.748 149.108 310.748 148.364C310.748 147.62 310.448 147.32 309.992 147.32ZM309.356 155L314.144 146.648H315.488L310.7 155H309.356ZM313.052 153.272C313.052 152.072 313.832 151.4 314.876 151.4C315.908 151.4 316.688 152.072 316.688 153.272C316.688 154.472 315.908 155.156 314.876 155.156C313.832 155.156 313.052 154.472 313.052 153.272ZM314.864 152.228C314.408 152.228 314.108 152.528 314.108 153.272C314.108 154.016 314.408 154.316 314.864 154.316C315.32 154.316 315.62 154.016 315.62 153.272C315.62 152.528 315.32 152.228 314.864 152.228Z" fill="#58BD7D"/>
<circle cx="50" cy="203" r="16" fill="black"/>
<path d="M43.9187 206.791C44.0296 206.68 44.182 206.615 44.3437 206.615H59.007C59.275 206.615 59.409 206.938 59.2196 207.128L56.3229 210.024C56.212 210.135 56.0596 210.2 55.8979 210.2H41.2346C40.9666 210.2 40.8326 209.877 41.0221 209.687L43.9187 206.791Z" fill="url(#paint0_linear_15_837)"/>
<path d="M43.9187 195.976C44.0342 195.865 44.1866 195.8 44.3437 195.8H59.007C59.275 195.8 59.409 196.123 59.2196 196.313L56.3229 199.209C56.212 199.32 56.0596 199.385 55.8979 199.385H41.2346C40.9666 199.385 40.8326 199.062 41.0221 198.872L43.9187 195.976Z" fill="url(#paint1_linear_15_837)"/>
<path d="M56.3229 201.348C56.212 201.238 56.0596 201.173 55.8979 201.173H41.2346C40.9666 201.173 40.8326 201.496 41.0221 201.686L43.9187 204.582C44.0296 204.693 44.182 204.758 44.3437 204.758H59.007C59.275 204.758 59.409 204.434 59.2196 204.245L56.3229 201.348Z" fill="url(#paint2_linear_15_837)"/>
<path d="M92.528 204.636C92.528 205.884 91.508 207.084 89.648 207.084C87.98 207.084 86.696 206.172 86.696 204.696H88.16C88.22 205.38 88.7 205.932 89.648 205.932C90.608 205.932 91.148 205.416 91.148 204.708C91.148 202.692 86.72 204 86.72 200.928C86.72 199.464 87.884 198.552 89.588 198.552C91.184 198.552 92.312 199.392 92.432 200.82H90.92C90.872 200.256 90.38 199.74 89.516 199.716C88.724 199.692 88.112 200.076 88.112 200.88C88.112 202.764 92.528 201.588 92.528 204.636ZM100.442 203.688C100.442 205.764 98.9062 207.108 97.0102 207.108C95.1262 207.108 93.6982 205.764 93.6982 203.688C93.6982 201.612 95.1862 200.28 97.0702 200.28C98.9542 200.28 100.442 201.612 100.442 203.688ZM95.0902 203.688C95.0902 205.188 95.9782 205.92 97.0102 205.92C98.0302 205.92 99.0382 205.188 99.0382 203.688C99.0382 202.188 98.0662 201.468 97.0462 201.468C96.0142 201.468 95.0902 202.188 95.0902 203.688ZM101.795 207V198.12H103.163V207H101.795ZM104.503 203.664C104.503 201.624 105.883 200.28 107.623 200.28C108.739 200.28 109.507 200.808 109.915 201.348V200.388H111.295V207H109.915V206.016C109.495 206.58 108.703 207.108 107.599 207.108C105.883 207.108 104.503 205.704 104.503 203.664ZM109.915 203.688C109.915 202.272 108.943 201.468 107.911 201.468C106.891 201.468 105.907 202.236 105.907 203.664C105.907 205.092 106.891 205.92 107.911 205.92C108.943 205.92 109.915 205.116 109.915 203.688ZM117.783 207V203.304C117.783 202.092 117.123 201.468 116.127 201.468C115.119 201.468 114.459 202.092 114.459 203.304V207H113.091V200.388H114.459V201.144C114.903 200.604 115.635 200.28 116.427 200.28C117.975 200.28 119.139 201.252 119.139 203.1V207H117.783ZM120.428 203.664C120.428 201.624 121.808 200.28 123.548 200.28C124.664 200.28 125.432 200.808 125.84 201.348V200.388H127.22V207H125.84V206.016C125.42 206.58 124.628 207.108 123.524 207.108C121.808 207.108 120.428 205.704 120.428 203.664ZM125.84 203.688C125.84 202.272 124.868 201.468 123.836 201.468C122.816 201.468 121.832 202.236 121.832 203.664C121.832 205.092 122.816 205.92 123.836 205.92C124.868 205.92 125.84 205.116 125.84 203.688Z" fill="#23262F"/>
<path d="M193.24 208.044V207.072C191.776 206.94 190.72 206.136 190.72 204.78H192.184C192.232 205.38 192.568 205.824 193.24 205.944V203.304C192.04 203.004 190.72 202.668 190.72 200.976C190.72 199.632 191.752 198.708 193.24 198.576V197.592H194.02V198.564C195.4 198.684 196.336 199.44 196.444 200.796H194.98C194.932 200.316 194.596 199.872 194.02 199.728V202.32C195.22 202.608 196.528 202.932 196.528 204.624C196.528 205.788 195.64 206.916 194.02 207.06V208.044H193.24ZM195.148 204.696C195.148 204.012 194.668 203.712 194.02 203.508V205.944C194.74 205.824 195.148 205.32 195.148 204.696ZM192.112 200.904C192.112 201.6 192.592 201.912 193.24 202.116V199.692C192.58 199.776 192.112 200.172 192.112 200.904ZM200.001 202.428C199.257 202.056 198.753 201.432 198.753 200.46C198.753 199.188 199.701 198.096 201.633 198.096C203.565 198.096 204.513 199.2 204.513 200.46C204.513 201.396 203.973 202.08 203.265 202.428C204.153 202.764 204.741 203.544 204.741 204.588C204.741 206.184 203.445 207.216 201.633 207.216C199.833 207.216 198.537 206.184 198.537 204.588C198.537 203.532 199.125 202.752 200.001 202.428ZM201.633 201.996C202.545 201.996 203.205 201.42 203.205 200.628C203.205 199.728 202.593 199.236 201.633 199.236C200.697 199.236 200.073 199.716 200.073 200.64C200.073 201.432 200.721 201.996 201.633 201.996ZM201.633 203.028C200.625 203.028 199.845 203.52 199.845 204.54C199.845 205.428 200.517 206.076 201.633 206.076C202.737 206.076 203.397 205.416 203.397 204.54C203.397 203.556 202.665 203.028 201.633 203.028ZM206.069 206.88V205.884C208.133 204.072 210.305 202.488 210.305 200.772C210.305 199.86 209.909 199.236 208.889 199.236C207.929 199.236 207.413 199.908 207.377 200.892H206.057C206.105 198.996 207.329 198.072 208.877 198.072C210.653 198.072 211.661 199.14 211.661 200.712C211.661 202.836 209.501 204.456 208.097 205.74H211.901V206.88H206.069ZM214.699 206.208C214.699 206.7 214.315 207.084 213.835 207.084C213.343 207.084 212.959 206.7 212.959 206.208C212.959 205.716 213.343 205.332 213.835 205.332C214.315 205.332 214.699 205.716 214.699 206.208ZM215.889 206.88V205.884C217.953 204.072 220.125 202.488 220.125 200.772C220.125 199.86 219.729 199.236 218.709 199.236C217.749 199.236 217.233 199.908 217.197 200.892H215.877C215.925 198.996 217.149 198.072 218.697 198.072C220.473 198.072 221.481 199.14 221.481 200.712C221.481 202.836 219.321 204.456 217.917 205.74H221.721V206.88H215.889ZM223.367 204.624H224.627C224.783 205.404 225.299 205.848 226.211 205.848C227.303 205.848 227.855 205.116 227.855 202.884C227.459 203.436 226.703 203.736 225.911 203.736C224.375 203.736 223.127 202.788 223.127 200.94C223.127 199.2 224.195 198.048 226.031 198.048C228.287 198.048 229.043 199.596 229.043 202.464C229.043 205.416 228.419 206.988 226.127 206.988C224.315 206.988 223.475 205.872 223.367 204.624ZM226.151 202.584C227.123 202.584 227.699 201.924 227.699 200.94C227.699 199.824 227.063 199.188 226.067 199.188C225.047 199.188 224.435 199.896 224.435 200.904C224.435 201.804 224.939 202.584 226.151 202.584Z" fill="#23262F"/>
<path d="M278.648 199.608H279.92V202.092H282.344V203.244H279.92V205.728H278.648V203.244H276.224V202.092H278.648V199.608ZM284.262 200.412C284.358 198.9 285.534 198.048 287.13 198.048C288.87 198.048 289.818 199.056 289.818 200.328C289.818 201.372 289.158 202.08 288.474 202.308V202.356C289.386 202.632 289.974 203.388 289.974 204.6C289.974 205.992 288.99 207.048 287.166 207.048C285.51 207.048 284.226 206.184 284.142 204.468H285.462C285.522 205.284 286.122 205.908 287.154 205.908C288.174 205.908 288.678 205.284 288.678 204.468C288.678 203.316 287.934 202.92 286.506 202.92H286.194V201.792H286.518C287.754 201.78 288.51 201.42 288.51 200.484C288.51 199.728 288.018 199.224 287.082 199.224C286.122 199.224 285.678 199.8 285.594 200.412H284.262ZM293.007 206.208C293.007 206.7 292.623 207.084 292.143 207.084C291.651 207.084 291.267 206.7 291.267 206.208C291.267 205.716 291.651 205.332 292.143 205.332C292.623 205.332 293.007 205.716 293.007 206.208ZM294.198 206.88V205.884C296.262 204.072 298.434 202.488 298.434 200.772C298.434 199.86 298.038 199.236 297.018 199.236C296.058 199.236 295.542 199.908 295.506 200.892H294.186C294.234 198.996 295.458 198.072 297.006 198.072C298.782 198.072 299.79 199.14 299.79 200.712C299.79 202.836 297.63 204.456 296.226 205.74H300.03V206.88H294.198ZM301.208 200.412C301.304 198.9 302.48 198.048 304.076 198.048C305.816 198.048 306.764 199.056 306.764 200.328C306.764 201.372 306.104 202.08 305.42 202.308V202.356C306.332 202.632 306.92 203.388 306.92 204.6C306.92 205.992 305.936 207.048 304.112 207.048C302.456 207.048 301.172 206.184 301.088 204.468H302.408C302.468 205.284 303.068 205.908 304.1 205.908C305.12 205.908 305.624 205.284 305.624 204.468C305.624 203.316 304.88 202.92 303.452 202.92H303.14V201.792H303.464C304.7 201.78 305.456 201.42 305.456 200.484C305.456 199.728 304.964 199.224 304.028 199.224C303.068 199.224 302.624 199.8 302.54 200.412H301.208ZM308.141 200.364C308.141 199.176 308.921 198.492 309.965 198.492C311.009 198.492 311.789 199.176 311.789 200.364C311.789 201.564 311.009 202.248 309.965 202.248C308.921 202.248 308.141 201.564 308.141 200.364ZM309.965 199.32C309.497 199.32 309.209 199.62 309.209 200.364C309.209 201.108 309.497 201.42 309.965 201.42C310.421 201.42 310.721 201.108 310.721 200.364C310.721 199.62 310.421 199.32 309.965 199.32ZM309.329 207L314.117 198.648H315.461L310.673 207H309.329ZM313.025 205.272C313.025 204.072 313.805 203.4 314.849 203.4C315.881 203.4 316.661 204.072 316.661 205.272C316.661 206.472 315.881 207.156 314.849 207.156C313.805 207.156 313.025 206.472 313.025 205.272ZM314.837 204.228C314.381 204.228 314.081 204.528 314.081 205.272C314.081 206.016 314.381 206.316 314.837 206.316C315.293 206.316 315.593 206.016 315.593 205.272C315.593 204.528 315.293 204.228 314.837 204.228Z" fill="#58BD7D"/>
<g clip-path="url(#clip2_15_837)">
<path d="M50 271C58.8366 271 66 263.837 66 255C66 246.163 58.8366 239 50 239C41.1634 239 34 246.163 34 255C34 263.837 41.1634 271 50 271Z" fill="#23292F"/>
<path d="M57.07 247H59.96L53.945 252.957C52.8934 253.993 51.4763 254.574 50 254.574C48.5237 254.574 47.1066 253.993 46.055 252.957L40.035 247H42.93L47.5 251.523C48.1655 252.18 49.0629 252.548 49.998 252.548C50.9331 252.548 51.8305 252.18 52.496 251.523L57.07 247ZM42.895 263.563H40L46.055 257.57C47.1066 256.534 48.5237 255.953 50 255.953C51.4763 255.953 52.8934 256.534 53.945 257.57L60 263.562H57.105L52.5 259C51.8345 258.343 50.9371 257.975 50.002 257.975C49.0669 257.975 48.1695 258.343 47.504 259L42.894 263.563H42.895Z" fill="white"/>
</g>
<path d="M91.328 253.156C91.328 252.316 90.848 251.776 89.78 251.776H88.268V254.572H89.78C90.848 254.572 91.328 253.984 91.328 253.156ZM86.9 250.66H89.78C91.76 250.66 92.732 251.8 92.732 253.156C92.732 254.14 92.204 255.196 90.8 255.544L92.864 259H91.232L89.312 255.664H88.268V259H86.9V250.66ZM94.482 259V252.388H95.85V259H94.482ZM95.178 251.512C94.686 251.512 94.302 251.128 94.302 250.636C94.302 250.144 94.686 249.76 95.178 249.76C95.658 249.76 96.042 250.144 96.042 250.636C96.042 251.128 95.658 251.512 95.178 251.512ZM99.0141 253.36C99.4341 252.808 100.238 252.28 101.318 252.28C103.058 252.28 104.426 253.624 104.426 255.664C104.426 257.704 103.058 259.108 101.318 259.108C100.226 259.108 99.4461 258.556 99.0141 258.04V262.144H97.6461V252.388H99.0141V253.36ZM103.034 255.664C103.034 254.236 102.05 253.468 101.018 253.468C99.9981 253.468 99.0141 254.272 99.0141 255.688C99.0141 257.116 99.9981 257.92 101.018 257.92C102.05 257.92 103.034 257.092 103.034 255.664ZM107.147 253.36C107.567 252.808 108.371 252.28 109.451 252.28C111.191 252.28 112.559 253.624 112.559 255.664C112.559 257.704 111.191 259.108 109.451 259.108C108.359 259.108 107.579 258.556 107.147 258.04V262.144H105.779V252.388H107.147V253.36ZM111.167 255.664C111.167 254.236 110.183 253.468 109.151 253.468C108.131 253.468 107.147 254.272 107.147 255.688C107.147 257.116 108.131 257.92 109.151 257.92C110.183 257.92 111.167 257.092 111.167 255.664ZM113.912 259V250.12H115.28V259H113.912ZM119.86 253.432C118.936 253.432 118.192 254.056 118.048 255.1H121.708C121.684 254.08 120.88 253.432 119.86 253.432ZM122.956 257.032C122.584 258.184 121.54 259.108 119.92 259.108C118.024 259.108 116.62 257.764 116.62 255.688C116.62 253.612 117.964 252.28 119.92 252.28C121.804 252.28 123.136 253.588 123.136 255.532C123.136 255.76 123.124 255.976 123.088 256.204H118.036C118.132 257.296 118.912 257.956 119.92 257.956C120.76 257.956 121.228 257.548 121.48 257.032H122.956Z" fill="#23262F"/>
<path d="M193.24 260.044V259.072C191.776 258.94 190.72 258.136 190.72 256.78H192.184C192.232 257.38 192.568 257.824 193.24 257.944V255.304C192.04 255.004 190.72 254.668 190.72 252.976C190.72 251.632 191.752 250.708 193.24 250.576V249.592H194.02V250.564C195.4 250.684 196.336 251.44 196.444 252.796H194.98C194.932 252.316 194.596 251.872 194.02 251.728V254.32C195.22 254.608 196.528 254.932 196.528 256.624C196.528 257.788 195.64 258.916 194.02 259.06V260.044H193.24ZM195.148 256.696C195.148 256.012 194.668 255.712 194.02 255.508V257.944C194.74 257.824 195.148 257.32 195.148 256.696ZM192.112 252.904C192.112 253.6 192.592 253.912 193.24 254.116V251.692C192.58 251.776 192.112 252.172 192.112 252.904ZM199.461 259V251.5H198.345V250.252H200.841V259H199.461ZM204.316 258.208C204.316 258.7 203.932 259.084 203.452 259.084C202.96 259.084 202.576 258.7 202.576 258.208C202.576 257.716 202.96 257.332 203.452 257.332C203.932 257.332 204.316 257.716 204.316 258.208ZM205.591 252.412C205.687 250.9 206.863 250.048 208.459 250.048C210.199 250.048 211.147 251.056 211.147 252.328C211.147 253.372 210.487 254.08 209.803 254.308V254.356C210.715 254.632 211.303 255.388 211.303 256.6C211.303 257.992 210.319 259.048 208.495 259.048C206.839 259.048 205.555 258.184 205.471 256.468H206.791C206.851 257.284 207.451 257.908 208.483 257.908C209.503 257.908 210.007 257.284 210.007 256.468C210.007 255.316 209.263 254.92 207.835 254.92H207.523V253.792H207.847C209.083 253.78 209.839 253.42 209.839 252.484C209.839 251.728 209.347 251.224 208.411 251.224C207.451 251.224 207.007 251.8 206.923 252.412H205.591ZM216.916 259V257.176H212.572V256.144L216.604 250.36H218.26V255.988H219.376V257.176H218.26V259H216.916ZM214.144 255.988H216.976V251.752L214.144 255.988Z" fill="#23262F"/>
<path d="M273.044 255.232V254.08H277.976V255.232H273.044ZM283.916 259V257.176H279.572V256.144L283.604 250.36H285.26V255.988H286.376V257.176H285.26V259H283.916ZM281.144 255.988H283.976V251.752L281.144 255.988ZM289.105 258.208C289.105 258.7 288.721 259.084 288.241 259.084C287.749 259.084 287.365 258.7 287.365 258.208C287.365 257.716 287.749 257.332 288.241 257.332C288.721 257.332 289.105 257.716 289.105 258.208ZM290.404 254.512C290.404 252.016 291.076 250.096 293.524 250.096C295.972 250.096 296.644 252.016 296.644 254.512C296.644 257.056 295.972 258.976 293.524 258.976C291.076 258.976 290.404 257.056 290.404 254.512ZM295.3 254.512C295.3 252.88 295.12 251.344 293.524 251.344C291.928 251.344 291.748 252.88 291.748 254.512C291.748 256.228 291.928 257.728 293.524 257.728C295.12 257.728 295.3 256.228 295.3 254.512ZM304.055 252.28H302.795C302.627 251.572 302.207 251.176 301.343 251.176C300.107 251.176 299.471 252.016 299.435 254.308C299.867 253.588 300.731 253.204 301.643 253.204C303.215 253.204 304.331 254.26 304.331 256.084C304.331 257.74 303.335 259 301.463 259C298.919 259 298.259 257.212 298.259 254.428C298.259 251.692 299.171 250.036 301.355 250.036C303.059 250.036 303.911 251.116 304.055 252.28ZM301.343 254.356C300.443 254.356 299.591 254.896 299.591 256.06C299.591 257.14 300.227 257.86 301.391 257.86C302.399 257.86 303.023 257.176 303.023 256.144C303.023 255.1 302.495 254.356 301.343 254.356ZM305.574 252.364C305.574 251.176 306.354 250.492 307.398 250.492C308.442 250.492 309.222 251.176 309.222 252.364C309.222 253.564 308.442 254.248 307.398 254.248C306.354 254.248 305.574 253.564 305.574 252.364ZM307.398 251.32C306.93 251.32 306.642 251.62 306.642 252.364C306.642 253.108 306.93 253.42 307.398 253.42C307.854 253.42 308.154 253.108 308.154 252.364C308.154 251.62 307.854 251.32 307.398 251.32ZM306.762 259L311.55 250.648H312.894L308.106 259H306.762ZM310.458 257.272C310.458 256.072 311.238 255.4 312.282 255.4C313.314 255.4 314.094 256.072 314.094 257.272C314.094 258.472 313.314 259.156 312.282 259.156C311.238 259.156 310.458 258.472 310.458 257.272ZM312.27 256.228C311.814 256.228 311.514 256.528 311.514 257.272C311.514 258.016 311.814 258.316 312.27 258.316C312.726 258.316 313.026 258.016 313.026 257.272C313.026 256.528 312.726 256.228 312.27 256.228Z" fill="#FF6838"/>
<g clip-path="url(#clip3_15_837)">
<path d="M50 323C58.8366 323 66 315.837 66 307C66 298.163 58.8366 291 50 291C41.1634 291 34 298.163 34 307C34 315.837 41.1634 323 50 323Z" fill="#2A5ADA"/>
<path d="M49.5 297L47.701 298.055L42.8 300.945L41 302V312L42.799 313.055L47.746 315.945L49.545 317L51.344 315.945L56.201 313.055L58 312V302L56.201 300.945L51.299 298.055L49.5 297ZM44.598 309.89V304.11L49.5 301.22L54.402 304.11V309.89L49.5 312.78L44.598 309.89Z" fill="white"/>
</g>
<path d="M86.444 306.812C86.444 304.316 88.352 302.552 90.704 302.552C92.444 302.552 93.944 303.428 94.58 305.06H92.936C92.492 304.172 91.7 303.752 90.704 303.752C89.048 303.752 87.848 304.928 87.848 306.812C87.848 308.696 89.048 309.884 90.704 309.884C91.7 309.884 92.492 309.464 92.936 308.576H94.58C93.944 310.208 92.444 311.072 90.704 311.072C88.352 311.072 86.444 309.32 86.444 306.812ZM96.1813 311V302.12H97.5493V305.156C98.0053 304.604 98.7493 304.28 99.6013 304.28C101.077 304.28 102.229 305.252 102.229 307.1V311H100.873V307.304C100.873 306.092 100.213 305.468 99.2173 305.468C98.2093 305.468 97.5493 306.092 97.5493 307.304V311H96.1813ZM103.518 307.664C103.518 305.624 104.898 304.28 106.638 304.28C107.754 304.28 108.522 304.808 108.93 305.348V304.388H110.31V311H108.93V310.016C108.51 310.58 107.718 311.108 106.614 311.108C104.898 311.108 103.518 309.704 103.518 307.664ZM108.93 307.688C108.93 306.272 107.958 305.468 106.926 305.468C105.906 305.468 104.922 306.236 104.922 307.664C104.922 309.092 105.906 309.92 106.926 309.92C107.958 309.92 108.93 309.116 108.93 307.688ZM112.107 311V304.388H113.475V311H112.107ZM112.803 303.512C112.311 303.512 111.927 303.128 111.927 302.636C111.927 302.144 112.311 301.76 112.803 301.76C113.283 301.76 113.667 302.144 113.667 302.636C113.667 303.128 113.283 303.512 112.803 303.512ZM119.963 311V307.304C119.963 306.092 119.303 305.468 118.307 305.468C117.299 305.468 116.639 306.092 116.639 307.304V311H115.271V304.388H116.639V305.144C117.083 304.604 117.815 304.28 118.607 304.28C120.155 304.28 121.319 305.252 121.319 307.1V311H119.963ZM123.064 311V302.12H124.432V311H123.064ZM126.228 311V304.388H127.596V311H126.228ZM126.924 303.512C126.432 303.512 126.048 303.128 126.048 302.636C126.048 302.144 126.432 301.76 126.924 301.76C127.404 301.76 127.788 302.144 127.788 302.636C127.788 303.128 127.404 303.512 126.924 303.512ZM134.084 311V307.304C134.084 306.092 133.424 305.468 132.428 305.468C131.42 305.468 130.76 306.092 130.76 307.304V311H129.392V304.388H130.76V305.144C131.204 304.604 131.936 304.28 132.728 304.28C134.276 304.28 135.44 305.252 135.44 307.1V311H134.084ZM137.185 311V302.12H138.553V307.28L140.953 304.388H142.849L139.801 307.7L142.849 311H141.001L138.553 308.156V311H137.185Z" fill="#23262F"/>
<path d="M193.24 312.044V311.072C191.776 310.94 190.72 310.136 190.72 308.78H192.184C192.232 309.38 192.568 309.824 193.24 309.944V307.304C192.04 307.004 190.72 306.668 190.72 304.976C190.72 303.632 191.752 302.708 193.24 302.576V301.592H194.02V302.564C195.4 302.684 196.336 303.44 196.444 304.796H194.98C194.932 304.316 194.596 303.872 194.02 303.728V306.32C195.22 306.608 196.528 306.932 196.528 308.624C196.528 309.788 195.64 310.916 194.02 311.06V312.044H193.24ZM195.148 308.696C195.148 308.012 194.668 307.712 194.02 307.508V309.944C194.74 309.824 195.148 309.32 195.148 308.696ZM192.112 304.904C192.112 305.6 192.592 305.912 193.24 306.116V303.692C192.58 303.776 192.112 304.172 192.112 304.904ZM198.969 308.624H200.229C200.385 309.404 200.901 309.848 201.813 309.848C202.905 309.848 203.457 309.116 203.457 306.884C203.061 307.436 202.305 307.736 201.513 307.736C199.977 307.736 198.729 306.788 198.729 304.94C198.729 303.2 199.797 302.048 201.633 302.048C203.889 302.048 204.645 303.596 204.645 306.464C204.645 309.416 204.021 310.988 201.729 310.988C199.917 310.988 199.077 309.872 198.969 308.624ZM201.753 306.584C202.725 306.584 203.301 305.924 203.301 304.94C203.301 303.824 202.665 303.188 201.669 303.188C200.649 303.188 200.037 303.896 200.037 304.904C200.037 305.804 200.541 306.584 201.753 306.584ZM207.738 310.208C207.738 310.7 207.354 311.084 206.874 311.084C206.382 311.084 205.998 310.7 205.998 310.208C205.998 309.716 206.382 309.332 206.874 309.332C207.354 309.332 207.738 309.716 207.738 310.208ZM209.036 306.512C209.036 304.016 209.708 302.096 212.156 302.096C214.604 302.096 215.276 304.016 215.276 306.512C215.276 309.056 214.604 310.976 212.156 310.976C209.708 310.976 209.036 309.056 209.036 306.512ZM213.932 306.512C213.932 304.88 213.752 303.344 212.156 303.344C210.56 303.344 210.38 304.88 210.38 306.512C210.38 308.228 210.56 309.728 212.156 309.728C213.752 309.728 213.932 308.228 213.932 306.512ZM220.9 311V309.176H216.556V308.144L220.588 302.36H222.244V307.988H223.36V309.176H222.244V311H220.9ZM218.128 307.988H220.96V303.752L218.128 307.988Z" fill="#23262F"/>
<path d="M276.044 307.232V306.08H280.976V307.232H276.044ZM283.1 302.228H288.38V303.428H284.36V305.816C284.684 305.384 285.392 305.024 286.172 305.024C288.32 305.024 288.98 306.62 288.98 307.94C288.98 309.68 287.984 311 285.956 311C284.156 311 283.112 310.004 282.908 308.636H284.24C284.42 309.38 285.044 309.86 285.968 309.86C287.144 309.86 287.672 309.056 287.672 307.976C287.672 306.836 287.108 306.188 285.968 306.188C285.164 306.188 284.624 306.632 284.396 307.28H283.1V302.228ZM292 310.208C292 310.7 291.616 311.084 291.136 311.084C290.644 311.084 290.26 310.7 290.26 310.208C290.26 309.716 290.644 309.332 291.136 309.332C291.616 309.332 292 309.716 292 310.208ZM293.742 308.624H295.002C295.158 309.404 295.674 309.848 296.586 309.848C297.678 309.848 298.23 309.116 298.23 306.884C297.834 307.436 297.078 307.736 296.286 307.736C294.75 307.736 293.502 306.788 293.502 304.94C293.502 303.2 294.57 302.048 296.406 302.048C298.662 302.048 299.418 303.596 299.418 306.464C299.418 309.416 298.794 310.988 296.502 310.988C294.69 310.988 293.85 309.872 293.742 308.624ZM296.526 306.584C297.498 306.584 298.074 305.924 298.074 304.94C298.074 303.824 297.438 303.188 296.442 303.188C295.422 303.188 294.81 303.896 294.81 304.904C294.81 305.804 295.314 306.584 296.526 306.584ZM301.851 311V303.5H300.735V302.252H303.231V311H301.851ZM304.895 304.364C304.895 303.176 305.675 302.492 306.719 302.492C307.763 302.492 308.543 303.176 308.543 304.364C308.543 305.564 307.763 306.248 306.719 306.248C305.675 306.248 304.895 305.564 304.895 304.364ZM306.719 303.32C306.251 303.32 305.963 303.62 305.963 304.364C305.963 305.108 306.251 305.42 306.719 305.42C307.175 305.42 307.475 305.108 307.475 304.364C307.475 303.62 307.175 303.32 306.719 303.32ZM306.083 311L310.871 302.648H312.215L307.427 311H306.083ZM309.779 309.272C309.779 308.072 310.559 307.4 311.603 307.4C312.635 307.4 313.415 308.072 313.415 309.272C313.415 310.472 312.635 311.156 311.603 311.156C310.559 311.156 309.779 310.472 309.779 309.272ZM311.591 308.228C311.135 308.228 310.835 308.528 310.835 309.272C310.835 310.016 311.135 310.316 311.591 310.316C312.047 310.316 312.347 310.016 312.347 309.272C312.347 308.528 312.047 308.228 311.591 308.228Z" fill="#FF6838"/>
<rect x="31" y="360" width="302" height="46" rx="23" stroke="#E6E8EC" stroke-width="2"/>
<path d="M144.82 388L140.74 376.8H143.044L146.148 385.792L149.268 376.8H151.556L147.476 388H144.82ZM152.885 388V379.968H155.045V388H152.885ZM153.973 378.848C153.579 378.848 153.259 378.736 153.013 378.512C152.768 378.277 152.645 377.984 152.645 377.632C152.645 377.28 152.768 376.992 153.013 376.768C153.259 376.533 153.579 376.416 153.973 376.416C154.368 376.416 154.688 376.533 154.933 376.768C155.189 376.992 155.317 377.28 155.317 377.632C155.317 377.984 155.189 378.277 154.933 378.512C154.688 378.736 154.368 378.848 153.973 378.848ZM161.084 388.192C160.274 388.192 159.554 388.021 158.924 387.68C158.306 387.328 157.82 386.843 157.468 386.224C157.127 385.595 156.956 384.875 156.956 384.064C156.956 383.221 157.127 382.48 157.468 381.84C157.81 381.2 158.29 380.699 158.908 380.336C159.538 379.963 160.263 379.776 161.084 379.776C161.884 379.776 162.583 379.952 163.18 380.304C163.778 380.645 164.242 381.115 164.572 381.712C164.914 382.309 165.084 382.987 165.084 383.744C165.084 383.851 165.079 383.973 165.068 384.112C165.068 384.24 165.063 384.373 165.052 384.512H158.492V383.184H162.892C162.871 382.683 162.69 382.283 162.348 381.984C162.007 381.675 161.591 381.52 161.1 381.52C160.727 381.52 160.386 381.605 160.076 381.776C159.767 381.947 159.522 382.203 159.34 382.544C159.17 382.875 159.084 383.296 159.084 383.808V384.272C159.084 384.709 159.164 385.093 159.324 385.424C159.495 385.744 159.73 385.995 160.028 386.176C160.327 386.347 160.674 386.432 161.068 386.432C161.463 386.432 161.788 386.347 162.044 386.176C162.311 386.005 162.514 385.781 162.652 385.504H164.844C164.695 386.016 164.444 386.475 164.092 386.88C163.74 387.285 163.308 387.605 162.796 387.84C162.284 388.075 161.714 388.192 161.084 388.192ZM168.093 388L165.725 379.968H167.869L169.437 386.528L169.021 386.512L170.813 379.968H173.213L175.005 386.512L174.573 386.528L176.157 379.968H178.301L175.933 388H173.693L171.773 381.248H172.253L170.333 388H168.093ZM183.384 388V379.968H185.288L185.464 381.04C185.72 380.645 186.056 380.336 186.472 380.112C186.899 379.888 187.384 379.776 187.928 379.776C188.333 379.776 188.696 379.829 189.016 379.936C189.336 380.032 189.619 380.187 189.864 380.4C190.12 380.603 190.328 380.853 190.488 381.152C190.797 380.725 191.192 380.389 191.672 380.144C192.152 379.899 192.675 379.776 193.24 379.776C193.944 379.776 194.531 379.915 195 380.192C195.469 380.469 195.827 380.88 196.072 381.424C196.317 381.957 196.44 382.613 196.44 383.392V388H194.296V383.6C194.296 382.949 194.168 382.453 193.912 382.112C193.656 381.771 193.267 381.6 192.744 381.6C192.392 381.6 192.083 381.685 191.816 381.856C191.56 382.027 191.357 382.272 191.208 382.592C191.059 382.912 190.984 383.296 190.984 383.744V388H188.84V383.6C188.84 382.949 188.712 382.453 188.456 382.112C188.2 381.771 187.8 381.6 187.256 381.6C186.925 381.6 186.627 381.685 186.36 381.856C186.104 382.027 185.901 382.272 185.752 382.592C185.613 382.912 185.544 383.296 185.544 383.744V388H183.384ZM202.255 388.192C201.487 388.192 200.793 388.016 200.175 387.664C199.567 387.301 199.081 386.805 198.719 386.176C198.367 385.536 198.191 384.805 198.191 383.984C198.191 383.152 198.367 382.421 198.719 381.792C199.081 381.163 199.572 380.672 200.191 380.32C200.809 379.957 201.503 379.776 202.271 379.776C203.049 379.776 203.743 379.957 204.351 380.32C204.969 380.672 205.455 381.163 205.807 381.792C206.169 382.421 206.351 383.152 206.351 383.984C206.351 384.805 206.169 385.536 205.807 386.176C205.455 386.805 204.969 387.301 204.351 387.664C203.732 388.016 203.033 388.192 202.255 388.192ZM202.255 386.32C202.607 386.32 202.921 386.235 203.199 386.064C203.487 385.893 203.716 385.632 203.887 385.28C204.057 384.928 204.143 384.496 204.143 383.984C204.143 383.461 204.057 383.029 203.887 382.688C203.727 382.336 203.503 382.075 203.215 381.904C202.937 381.733 202.623 381.648 202.271 381.648C201.929 381.648 201.615 381.733 201.327 381.904C201.039 382.075 200.809 382.336 200.639 382.688C200.468 383.029 200.383 383.461 200.383 383.984C200.383 384.496 200.468 384.928 200.639 385.28C200.809 385.632 201.033 385.893 201.311 386.064C201.599 386.235 201.913 386.32 202.255 386.32ZM208.212 388V379.968H210.132L210.324 381.456C210.527 381.104 210.772 380.805 211.06 380.56C211.348 380.304 211.679 380.112 212.052 379.984C212.436 379.845 212.858 379.776 213.316 379.776V382.064H212.596C212.276 382.064 211.978 382.101 211.7 382.176C211.434 382.24 211.199 382.357 210.996 382.528C210.794 382.699 210.639 382.928 210.532 383.216C210.426 383.504 210.372 383.867 210.372 384.304V388H208.212ZM218.475 388.192C217.664 388.192 216.944 388.021 216.315 387.68C215.696 387.328 215.211 386.843 214.859 386.224C214.518 385.595 214.347 384.875 214.347 384.064C214.347 383.221 214.518 382.48 214.859 381.84C215.2 381.2 215.68 380.699 216.299 380.336C216.928 379.963 217.654 379.776 218.475 379.776C219.275 379.776 219.974 379.952 220.571 380.304C221.168 380.645 221.632 381.115 221.963 381.712C222.304 382.309 222.475 382.987 222.475 383.744C222.475 383.851 222.47 383.973 222.459 384.112C222.459 384.24 222.454 384.373 222.443 384.512H215.883V383.184H220.283C220.262 382.683 220.08 382.283 219.739 381.984C219.398 381.675 218.982 381.52 218.491 381.52C218.118 381.52 217.776 381.605 217.467 381.776C217.158 381.947 216.912 382.203 216.731 382.544C216.56 382.875 216.475 383.296 216.475 383.808V384.272C216.475 384.709 216.555 385.093 216.715 385.424C216.886 385.744 217.12 385.995 217.419 386.176C217.718 386.347 218.064 386.432 218.459 386.432C218.854 386.432 219.179 386.347 219.435 386.176C219.702 386.005 219.904 385.781 220.043 385.504H222.235C222.086 386.016 221.835 386.475 221.483 386.88C221.131 387.285 220.699 387.605 220.187 387.84C219.675 388.075 219.104 388.192 218.475 388.192Z" fill="#23262F"/>
<defs>
<linearGradient id="paint0_linear_15_837" x1="7.79168" y1="193.08" x2="7.40153" y2="212.711" gradientUnits="userSpaceOnUse">
<stop stop-color="#00FFA3"/>
<stop offset="1" stop-color="#DC1FFF"/>
</linearGradient>
<linearGradient id="paint1_linear_15_837" x1="3.35433" y1="190.763" x2="2.96419" y2="210.395" gradientUnits="userSpaceOnUse">
<stop stop-color="#00FFA3"/>
<stop offset="1" stop-color="#DC1FFF"/>
</linearGradient>
<linearGradient id="paint2_linear_15_837" x1="5.55887" y1="191.914" x2="5.16873" y2="211.546" gradientUnits="userSpaceOnUse">
<stop stop-color="#00FFA3"/>
<stop offset="1" stop-color="#DC1FFF"/>
</linearGradient>
<clipPath id="clip0_15_837">
<rect width="32" height="32" fill="white" transform="translate(34 83)"/>
</clipPath>
<clipPath id="clip1_15_837">
<rect width="32" height="32" fill="white" transform="translate(34 135)"/>
</clipPath>
<clipPath id="clip2_15_837">
<rect width="32" height="32" fill="white" transform="translate(34 239)"/>
</clipPath>
<clipPath id="clip3_15_837">
<rect width="32" height="32" fill="white" transform="translate(34 291)"/>
</clipPath>
</defs>
</svg>
