<svg width="120" height="120" viewBox="0 0 120 120" fill="none" xmlns="http://www.w3.org/2000/svg">
<path d="M118.205 74.5143C110.192 106.657 77.6358 126.219 45.4888 118.204C13.3553 110.19 -6.20637 77.6324 1.81058 45.4918C9.8205 13.3451 42.3763 -6.21803 74.5133 1.79541C106.658 9.80884 126.219 42.3702 118.204 74.5149L118.205 74.5143H118.205Z" fill="#F7931A"/>
<path fill-rule="evenodd" clip-rule="evenodd" d="M86.4645 51.4514C87.6587 43.4667 81.5797 39.1747 73.2671 36.3114L75.9638 25.4955L69.3798 23.8549L66.7547 34.3861C65.0238 33.9544 63.2462 33.5476 61.4795 33.1444L64.1237 22.5437L57.5438 20.9031L54.8457 31.7155C53.4133 31.3894 52.0065 31.0671 50.6416 30.7275L50.6492 30.6935L41.5697 28.4262L39.8183 35.4583C39.8183 35.4583 44.7031 36.578 44.6001 36.6469C47.2663 37.3124 47.7484 39.0773 47.6684 40.4762L44.5966 52.7981C44.7802 52.8448 45.0183 52.9122 45.2811 53.0178L45.0901 52.9701L45.0899 52.9701C44.9275 52.9294 44.7586 52.8872 44.5852 52.8457L40.2796 70.1069C39.9538 70.9169 39.1267 72.1326 37.2627 71.671C37.3287 71.7666 32.4773 70.4767 32.4773 70.4767L29.2085 78.0133L37.7765 80.1492C38.7147 80.3845 39.6419 80.6262 40.5596 80.8654L40.5614 80.8659C41.2022 81.033 41.8385 81.1988 42.4707 81.3604L39.7461 92.3005L46.3225 93.941L49.0207 83.1172C50.8173 83.6049 52.5608 84.0548 54.2676 84.4788L51.5786 95.2517L58.1629 96.8923L60.8871 85.9728C72.1143 88.0975 80.5562 87.2409 84.1095 77.086C86.9727 68.9101 83.967 64.1942 78.0604 61.1189C82.3625 60.1268 85.6028 57.2973 86.4668 51.4523L86.4648 51.4508L86.4645 51.4514ZM71.4216 72.5455C69.5547 80.0466 57.8134 76.9455 52.4413 75.5266C51.9581 75.399 51.5264 75.2849 51.158 75.1935L54.7735 60.6998C55.2224 60.8119 55.771 60.935 56.3924 61.0745L56.3925 61.0745C61.9492 62.3215 73.3342 64.8765 71.4218 72.5455H71.4216ZM57.5071 54.3477C61.9858 55.543 71.7562 58.1505 73.4578 51.3329H73.4583C75.1959 44.3603 65.7007 42.258 61.0633 41.2313C60.5416 41.1158 60.0814 41.0139 59.7055 40.9202L56.4276 54.0651C56.7371 54.1422 57.1003 54.2392 57.5071 54.3477Z" fill="white"/>
</svg>
