<svg width="120" height="120" viewBox="0 0 120 120" fill="none" xmlns="http://www.w3.org/2000/svg">
<circle cx="60" cy="60" r="60" fill="#EDF0F4"/>
<path d="M41.9316 59.6948C41.7609 62.66 44.0435 65.1985 47.0087 65.3692C47.1154 65.3692 47.222 65.3692 47.3287 65.3692C50.3152 65.3692 52.7258 62.9586 52.7044 59.9721C52.7044 56.9856 50.2939 54.575 47.3073 54.5963C44.4488 54.5963 42.0809 56.8362 41.9316 59.6948Z" fill="#0033AD"/>
<path d="M21.8364 58.3083C20.8764 58.2443 20.0445 58.9909 20.0018 59.9509C19.9591 60.9108 20.6844 61.7428 21.6444 61.7854C22.6043 61.8494 23.415 61.1028 23.479 60.1429C23.543 59.1829 22.7963 58.3723 21.8364 58.3083Z" fill="#0033AD"/>
<path d="M41.5901 28.4215C42.4433 27.9948 42.7847 26.9282 42.358 26.0749C41.9314 25.2216 40.8648 24.8803 40.0115 25.307C39.1582 25.7336 38.8168 26.7789 39.2435 27.6322C39.6701 28.5068 40.7154 28.8695 41.5901 28.4215C41.5901 28.4215 41.5687 28.4215 41.5901 28.4215Z" fill="#0033AD"/>
<path d="M47.0513 37.9571C48.374 37.2958 48.9073 35.6746 48.246 34.352C47.5847 33.0294 45.9634 32.4961 44.6408 33.1574C43.3182 33.8187 42.7849 35.4399 43.4462 36.7625C44.1075 38.0851 45.7287 38.6184 47.0513 37.9571Z" fill="#0033AD"/>
<path d="M28.6627 44.5062C29.6867 45.1675 31.052 44.8902 31.7346 43.8662C32.3959 42.8423 32.1186 41.477 31.0946 40.7944C30.0707 40.1331 28.7054 40.4104 28.0228 41.4343C27.3401 42.4583 27.6388 43.8449 28.6627 44.5062Z" fill="#0033AD"/>
<path d="M31.9267 57.3483C30.4334 57.2629 29.1748 58.3936 29.0895 59.8868C29.0042 61.3801 30.1348 62.6387 31.628 62.724C33.1213 62.8094 34.3799 61.6788 34.4652 60.1855C34.5506 58.7136 33.42 57.4336 31.9267 57.3483Z" fill="#0033AD"/>
<path d="M28.9614 75.4169C27.8735 75.9715 27.4255 77.2941 27.9801 78.4034C28.5348 79.4914 29.8574 79.9394 30.9667 79.3847C32.0546 78.8301 32.5026 77.5075 31.948 76.3982C31.3933 75.3102 30.0494 74.8623 28.9614 75.4169Z" fill="#0033AD"/>
<path d="M39.4144 51.7804C40.8863 52.7404 42.8489 52.3351 43.7875 50.8631C44.7475 49.3912 44.3421 47.4286 42.8702 46.49C41.3983 45.53 39.4357 45.9353 38.4971 47.4073C37.5371 48.8579 37.9424 50.8205 39.4144 51.7804Z" fill="#0033AD"/>
<path d="M72.5861 37.7438C73.8233 38.5544 75.5086 38.2131 76.3192 36.9758C77.1299 35.7386 76.7885 34.0533 75.5513 33.2427C74.314 32.432 72.6287 32.7734 71.8181 34.0106C70.9861 35.2692 71.3275 36.9332 72.5861 37.7438Z" fill="#0033AD"/>
<path d="M78.09 28.251C78.9006 28.7843 79.9672 28.5496 80.5005 27.739C81.0338 26.9284 80.7992 25.8617 79.9886 25.3284C79.1779 24.7951 78.1113 25.0298 77.578 25.8191C77.066 26.6297 77.3007 27.7177 78.09 28.251Z" fill="#0033AD"/>
<path d="M72.9915 54.5537C70.0263 54.383 67.4664 56.6656 67.3171 59.6308C67.1464 62.596 69.429 65.1559 72.3942 65.3052C72.5009 65.3052 72.6075 65.3052 72.6928 65.3052C75.658 65.3052 78.0686 62.8946 78.0686 59.9081C78.0899 57.0709 75.85 54.703 72.9915 54.5537Z" fill="#0033AD"/>
<path d="M48.8218 51.3966C49.7391 53.2099 51.5951 54.3618 53.643 54.3618C56.6082 54.3618 59.0187 51.9513 59.0187 48.9647C59.0187 48.1328 58.8267 47.3008 58.4428 46.5329C57.0988 43.8663 53.8563 42.7997 51.2111 44.1436C48.5445 45.5089 47.4779 48.7514 48.8218 51.3966Z" fill="#0033AD"/>
<path d="M91.0387 44.5063C92.1266 43.9516 92.5533 42.6077 91.9986 41.5197C91.444 40.4318 90.1001 40.0051 89.0121 40.5598C87.9242 41.1144 87.4975 42.437 88.0308 43.525C88.6068 44.6129 89.9294 45.0609 91.0387 44.5063Z" fill="#0033AD"/>
<path d="M77.3859 46.2128C75.8287 47.0021 75.1887 48.9006 75.978 50.4579C76.7673 52.0152 78.6659 52.6551 80.2231 51.8658C81.7804 51.0765 82.4204 49.178 81.6311 47.6207C80.8418 46.0634 78.9432 45.4448 77.3859 46.2128Z" fill="#0033AD"/>
<path d="M59.7868 27.4403C61.0027 27.5043 62.048 26.5657 62.1333 25.3497C62.2187 24.1338 61.2587 23.0885 60.0428 23.0032C58.8268 22.9392 57.7815 23.8564 57.6962 25.0724C57.6322 26.3097 58.5708 27.355 59.7868 27.4403Z" fill="#0033AD"/>
<path d="M59.7653 41.3704C61.5146 41.477 63.0079 40.1331 63.0932 38.3838C63.1999 36.6346 61.8559 35.1413 60.1067 35.056C58.3574 34.9493 56.8641 36.2933 56.7788 38.0425C56.6935 39.7918 58.0161 41.285 59.7653 41.3704Z" fill="#0033AD"/>
<path d="M42.614 73.7102C44.1713 72.9209 44.8112 71.0223 44.0219 69.465C43.2326 67.9078 41.3341 67.2678 39.7768 68.0571C38.2195 68.8464 37.5796 70.745 38.3689 72.3022C39.1581 73.8595 41.0567 74.4995 42.614 73.7102Z" fill="#0033AD"/>
<path d="M61.8132 45.9995C60.1919 48.4954 60.8745 51.8233 63.3704 53.4445C65.8663 55.0658 69.1942 54.3831 70.8154 51.8873C72.4367 49.3914 71.754 46.0635 69.2582 44.4423C68.3835 43.8663 67.3596 43.5676 66.3143 43.5676C64.501 43.5676 62.8158 44.4849 61.8132 45.9995Z" fill="#0033AD"/>
<path d="M71.1781 68.5265C69.8342 65.86 66.5916 64.7933 63.9464 66.1373C61.2799 67.4812 60.2133 70.7237 61.5572 73.369C62.9011 76.0355 66.1437 77.1021 68.7889 75.7582C71.4341 74.4356 72.522 71.2357 71.1994 68.5692C71.1994 68.5478 71.1994 68.5478 71.1781 68.5265Z" fill="#0033AD"/>
<path d="M80.5858 68.1426C79.1138 67.1826 77.1513 67.5879 76.2126 69.0599C75.2527 70.5318 75.658 72.4944 77.1299 73.433C78.6019 74.393 80.5644 73.9876 81.5031 72.5157C82.463 71.0651 82.0577 69.1025 80.5858 68.1426Z" fill="#0033AD"/>
<path d="M90.9106 60.0576C90.9959 58.5643 89.8653 57.3057 88.372 57.2203C86.8787 57.135 85.6201 58.2656 85.5348 59.7589C85.4495 61.2522 86.5801 62.5108 88.0734 62.5961C89.5453 62.6814 90.8252 61.5295 90.9106 60.0576Z" fill="#0033AD"/>
<path d="M98.3557 58.1376C97.3957 58.0736 96.5637 58.8203 96.5211 59.7802C96.4784 60.7402 97.2037 61.5721 98.1637 61.6148C99.1236 61.6788 99.9343 60.9322 99.9983 59.9722C100.041 59.0122 99.3156 58.2016 98.3557 58.1376Z" fill="#0033AD"/>
<path d="M91.3372 75.4169C90.3132 74.7556 88.9479 75.0329 88.2653 76.0569C87.604 77.0808 87.8813 78.4461 88.9053 79.1287C89.9292 79.7901 91.2945 79.5127 91.9771 78.4888C92.6598 77.4648 92.3611 76.0782 91.3372 75.4169Z" fill="#0033AD"/>
<path d="M41.8889 91.6722C41.0783 91.1389 40.0116 91.3735 39.4783 92.1628C38.945 92.9735 39.1797 94.0401 39.969 94.5734C40.7796 95.1067 41.8462 94.872 42.3795 94.0827C42.9342 93.2934 42.6995 92.2055 41.8889 91.6722Z" fill="#0033AD"/>
<path d="M78.4099 91.5014C77.5566 91.928 77.2153 92.9946 77.6419 93.8479C78.0686 94.7012 79.1352 95.0425 79.9885 94.6159C80.8418 94.1892 81.1831 93.1439 80.7565 92.2906C80.3298 91.416 79.2845 91.0534 78.4099 91.5014C78.4312 91.5014 78.4099 91.5014 78.4099 91.5014Z" fill="#0033AD"/>
<path d="M58.1867 73.9235C59.808 71.4276 59.1254 68.0998 56.6295 66.4572C54.1336 64.8359 50.8057 65.5186 49.1631 68.0145C47.5205 70.5103 48.2245 73.8382 50.7204 75.4808C51.595 76.0568 52.619 76.3554 53.6643 76.3554C55.4989 76.3768 57.1841 75.4595 58.1867 73.9235Z" fill="#0033AD"/>
<path d="M47.4138 82.1792C46.1765 81.3686 44.4913 81.7099 43.6807 82.9472C42.87 84.1844 43.2113 85.8697 44.4486 86.6803C45.6859 87.491 47.3712 87.1496 48.1818 85.9124C49.0138 84.6751 48.6724 82.9898 47.4138 82.1792Z" fill="#0033AD"/>
<path d="M59.9785 92.4828C58.7626 92.4188 57.7173 93.3575 57.632 94.5734C57.5467 95.7893 58.5066 96.8346 59.7226 96.92C60.9385 96.984 61.9838 96.0667 62.0691 94.8507C62.1331 93.6134 61.1945 92.5682 59.9785 92.4828Z" fill="#0033AD"/>
<path d="M60 78.5526C58.2508 78.4459 56.7575 79.7898 56.6722 81.5391C56.5655 83.2884 57.9095 84.7816 59.6587 84.867C61.408 84.9523 62.9012 83.6297 62.9866 81.8804C63.0932 80.1525 61.7493 78.6379 60 78.5526Z" fill="#0033AD"/>
<path d="M72.9487 81.9658C71.6261 82.6484 71.0928 84.2697 71.7754 85.5923C72.4581 86.9149 74.0793 87.4482 75.4019 86.7656C76.7245 86.1043 77.2578 84.483 76.5965 83.1604C75.9139 81.8378 74.2926 81.2832 72.9487 81.9658Z" fill="#0033AD"/>
</svg>
