<svg width="120" height="120" viewBox="0 0 120 120" fill="none" xmlns="http://www.w3.org/2000/svg">
<circle cx="60" cy="60" r="60" fill="#3C80F1"/>
<path d="M60 15C39.5772 15.0149 23.0224 31.546 23 51.9449C23.0187 53.9367 23.2427 55.921 23.6646 57.8681C23.7082 58.0552 23.8426 58.2081 24.0227 58.2755C24.2027 58.343 24.4046 58.316 24.5606 58.2037C25.9741 57.1926 27.6684 56.6476 29.4069 56.6446C29.577 56.6503 29.7407 56.5794 29.8528 56.4515C29.9649 56.3236 30.0137 56.1521 29.9856 55.9844C29.7397 54.6656 29.6123 53.3275 29.6047 51.986C29.6047 35.2177 43.2115 21.6244 59.9963 21.6244C76.781 21.6244 90.3878 35.2177 90.3878 51.986C90.3878 68.7333 68.942 90.1245 61.2657 97.6776C60.5628 98.3666 59.4372 98.3666 58.7343 97.6776C55.4845 94.5092 52.3307 91.244 49.2771 87.8865H49.1278C46.1909 87.5981 43.3078 86.9079 40.5591 85.835L40.0514 85.6299C39.8091 85.5183 39.5217 85.5904 39.361 85.8031C39.2002 86.0158 39.2094 86.3116 39.383 86.5139C44.1357 92.1877 49.1791 97.6121 54.4929 102.765C57.5513 105.745 62.4301 105.745 65.4884 102.765C79.004 89.427 97 69.6956 97 51.9449C96.9776 31.5422 80.4228 15.0149 60 15" fill="white"/>
<path fill-rule="evenodd" clip-rule="evenodd" d="M81.4868 49.9494C81.7667 51.2639 81.9279 52.6008 81.9684 53.9441H81.9759C81.9769 54.0344 81.9794 54.1282 81.9818 54.2227C81.9883 54.4719 81.9948 54.725 81.9759 54.9251V55.8613C81.9535 56.4954 81.9199 57.0959 81.8676 57.7599C81.6854 60.4083 81.0739 63.0096 80.0568 65.4622C78.9839 67.8705 77.5486 70.1007 75.8005 72.0753L75.7594 72.0417C72.591 75.7764 68.5755 78.701 64.0471 80.5721C59.5008 82.506 54.5445 83.2801 49.6242 82.825C47.1457 82.5811 44.7124 81.9987 42.3922 81.0943C40.0807 80.1887 37.9008 78.9781 35.9107 77.4949C32.0519 74.5578 28.8541 70.8433 26.5244 66.5923C25.7531 65.1741 26.1229 63.4064 27.3982 62.4155C28.6735 61.4245 30.4795 61.5016 31.6656 62.5976C33.6652 64.4343 36.2091 65.5708 38.9125 65.8351C39.6704 65.906 40.4284 65.8463 41.1639 65.6598C41.6564 65.5478 42.1039 65.2905 42.4482 64.9213C42.5892 64.751 42.7025 64.5597 42.7843 64.3544C42.8888 64.0784 42.9597 63.7949 42.9971 63.5039C43.0568 63.075 43.0867 62.6423 43.0867 62.2097V37.4802C43.2759 34.7331 44.8671 32.2767 47.2982 30.979C48.1681 30.5165 49.1165 30.2181 50.0909 30.1062C50.3336 30.054 50.58 30.054 50.819 30.054H58.2787C58.6521 30.0913 58.9806 30.0913 59.3204 30.0913C62.0189 30.2975 64.6564 30.998 67.1012 32.1576C71.8858 34.4065 75.887 38.0348 78.5895 42.5753C79.9529 44.8583 80.9317 47.3495 81.4868 49.9494ZM75.2927 57.2227C75.3413 56.7155 75.3824 56.2045 75.3824 55.6823L75.3786 55.686V54.1717C75.3525 53.2131 75.2405 52.2582 75.0426 51.3183C74.8447 50.3783 74.5684 49.4458 74.2212 48.5507C73.859 47.648 73.4259 46.7752 72.9331 45.9397C70.9074 42.5415 67.9138 39.8235 64.3346 38.133C62.6172 37.3124 60.7616 36.8163 58.8649 36.6671H50.8638C50.26 36.7473 49.7763 37.2064 49.6653 37.8047V37.9316C49.6636 37.9552 49.6636 37.9788 49.6653 38.0024V62.2097C49.6914 62.9258 49.6728 63.6457 49.5981 64.3544C49.4786 65.2048 49.2583 66.0328 48.9335 66.8273C48.2381 68.5669 46.9891 70.0297 45.3791 70.9899C44.6344 71.4345 43.8332 71.777 42.9971 72.0082C42.0711 72.2655 41.1191 72.411 40.1595 72.4408C43.1305 74.5875 46.6178 75.9092 50.2664 76.2715C54.0951 76.609 57.9478 75.9912 61.4784 74.4737C65.0437 72.9683 68.2312 70.6934 70.8124 67.812L70.7751 67.7784C72.0781 66.3126 73.1534 64.6602 73.9599 62.8699C74.7082 61.0723 75.1584 59.1649 75.2927 57.2227Z" fill="white"/>
</svg>
