<svg width="120" height="120" viewBox="0 0 120 120" fill="none" xmlns="http://www.w3.org/2000/svg">
<circle cx="60" cy="60" r="60" fill="#00EF8B"/>
<rect x="69.3601" y="50.64" width="16.92" height="16.92" fill="white"/>
<path d="M52.44 73.92C52.44 77.4 49.56 80.28 46.08 80.28C42.6 80.28 39.72 77.4 39.72 73.92C39.72 70.44 42.6 67.56 46.08 67.56H52.44V50.64H46.08C33.24 50.64 22.8 61.08 22.8 73.92C22.8 86.76 33.24 97.2 46.08 97.2C58.9201 97.2 69.3601 86.76 69.3601 73.92V67.56H52.44V73.92Z" fill="white"/>
<path d="M75.7199 42.12H94.7999V25.2H75.7199C62.8799 25.2 52.4399 35.64 52.4399 48.48V50.64H69.3599V48.48C69.3599 45 72.2399 42.12 75.7199 42.12Z" fill="white"/>
<path d="M69.3599 50.64H52.4399V67.56H69.3599V50.64Z" fill="#16FF99"/>
</svg>
