<svg width="120" height="120" viewBox="0 0 120 120" fill="none" xmlns="http://www.w3.org/2000/svg">
<circle cx="60" cy="60" r="60" fill="black"/>
<path d="M94.3386 39.0748C93.1667 38.1509 91.7696 36.8889 89.2231 36.5734C86.8344 36.2579 84.4005 37.8579 82.7555 38.9171C81.1104 39.9762 78.0006 43.0861 76.7161 44.0326C75.4315 44.979 72.1414 45.8579 66.8456 49.0354C61.5499 52.2128 40.7724 65.5537 40.7724 65.5537L46.1809 65.6213L22.0682 78.0382H24.4795L21.0091 80.6748C21.0091 80.6748 24.0739 81.486 26.6429 79.8635V80.6072C26.6429 80.6072 55.3527 69.2945 60.8964 72.2241L57.5161 73.2156C57.809 73.2156 63.2626 73.5762 63.2626 73.5762C63.5305 75.8625 64.8025 77.9109 66.733 79.1649C70.0231 81.3283 70.0907 82.5227 70.0907 82.5227C70.0907 82.5227 68.378 83.2212 68.378 84.1001C68.378 84.1001 70.902 83.3339 73.2456 83.4015C74.7331 83.4579 76.2084 83.6925 77.64 84.1001C77.64 84.1001 77.4597 83.1536 75.1837 82.5227C72.9076 81.8917 70.6541 79.4128 69.5499 78.0607C68.1739 76.3097 67.8227 73.9631 68.6259 71.886C69.4147 69.8353 72.1639 68.7086 77.8428 65.779C84.5358 62.3086 86.0681 59.7396 87.0146 57.734C87.9611 55.7283 89.3583 51.7396 90.147 49.8692C91.1386 47.4579 92.3555 46.1734 93.3695 45.4072C94.3836 44.641 98.8907 42.9509 98.8907 42.9509C98.8907 42.9509 95.4428 39.9537 94.3386 39.0748Z" fill="white"/>
</svg>
