<svg width="120" height="120" viewBox="0 0 120 120" fill="none" xmlns="http://www.w3.org/2000/svg">
<circle cx="60" cy="60" r="60" fill="white"/>
<path d="M120 59.9941C120 93.1268 93.1428 119.988 60.0078 119.988C26.8728 119.988 0.015625 93.1268 0.015625 59.9941C0.015625 26.8614 26.8735 0 60.0078 0C93.1421 0 120 26.8588 120 59.9941Z" fill="white"/>
<path d="M60.0078 0C26.8847 0 -0.0201449 26.8994 0.0220222 59.9922C0.0303278 66.613 1.0861 72.9819 3.06763 78.9392H21.0167V28.4707L60.0078 67.4615L98.997 28.4707V78.9402H116.95C118.934 72.9831 119.985 66.6143 119.996 59.9931C120.053 26.8658 93.1345 0.00798618 60.0078 0.00798618V0Z" fill="#F26822"/>
<path d="M51.041 76.4252L34.025 59.4082V91.1657H21.0155L8.7395 91.168C19.2694 108.444 38.2995 120 60.0079 120C81.7162 120 100.747 108.441 111.279 91.1654H85.9869V59.4082L68.97 76.4252L60.006 85.3892L51.0417 76.4252H51.041Z" fill="#4D4D4D"/>
</svg>
