<svg width="120" height="120" viewBox="0 0 120 120" fill="none" xmlns="http://www.w3.org/2000/svg">
<circle cx="60" cy="60" r="60" fill="#172852"/>
<path d="M48.33 26.8141C55.356 24.1861 63.264 24.1801 70.422 26.3401C79.74 29.2321 87.606 36.2641 91.716 45.0901C92.85 47.6041 93.936 50.2261 94.044 53.0221C88.806 49.9861 83.064 48.0181 77.31 46.2241C68.106 42.9061 58.47 40.6021 49.758 36.0421C47.73 34.8301 45.144 33.5881 44.592 31.0621C44.37 28.8781 46.68 27.6601 48.33 26.8141Z" fill="#FFD83D"/>
<path d="M27.12 48.0541C29.154 42.5341 32.49 37.4101 37.02 33.6121C38.172 43.0861 42.204 52.2421 48.864 59.1301C56.85 67.4281 68.226 72.5221 79.8 72.3301C84.396 72.4741 88.89 71.4121 93.372 70.5541C88.962 86.4901 71.496 97.0681 55.314 94.5241C45.546 93.2761 36.528 87.4921 31.086 79.3261C24.948 70.3021 23.4 58.3201 27.12 48.0541Z" fill="#FFD83D"/>
<path d="M77.3101 46.2241C83.0641 48.0181 88.8061 49.9861 94.0441 53.0221L94.3981 53.2081C94.8841 56.8621 95.2381 60.5881 94.5901 64.2481C91.9561 63.1321 89.8201 61.1701 87.5881 59.4361C83.2921 55.8601 78.9061 51.7681 77.3101 46.2241Z" fill="#FF6F03"/>
</svg>
