<svg width="120" height="120" viewBox="0 0 120 120" fill="none" xmlns="http://www.w3.org/2000/svg">
<path d="M3.7373 45.9756C11.4802 14.9007 42.9506 -4.00975 74.0156 3.73633C105.088 11.4825 123.997 42.9581 116.25 74.0312L116.225 74.1299C108.436 105.142 77.001 124.003 45.959 116.263C15.1401 108.577 -3.71609 77.5349 3.56055 46.7041L3.7373 45.9756Z" fill="url(#paint0_linear_1_256)" stroke="#FFD9EC" stroke-width="4"/>
<path d="M50.5303 37.0578C49.718 36.9418 49.6793 36.9031 50.0661 36.8644C50.801 36.7484 52.503 36.9031 53.702 37.1739C56.487 37.8314 59.0012 39.5333 61.6701 42.5117L62.3663 43.3239L63.372 43.1692C67.6654 42.473 72.0749 43.0145 75.7495 44.7164C76.7551 45.1806 78.341 46.1089 78.5344 46.341C78.6118 46.4183 78.7278 46.9212 78.8052 47.424C79.0759 49.2419 78.9599 50.5957 78.3797 51.6401C78.0703 52.2203 78.0703 52.375 78.2637 52.8778C78.4184 53.2646 78.8825 53.5354 79.308 53.5354C80.2363 53.5354 81.2033 52.0656 81.6675 50.0155L81.8609 49.2033L82.209 49.5901C84.1817 51.7948 85.7288 54.8505 85.9609 57.0166L86.0383 57.5968L85.6902 57.0939C85.11 56.2043 84.5685 55.6241 83.8335 55.1213C82.5184 54.2316 81.126 53.9609 77.4514 53.7675C74.1249 53.5741 72.2296 53.3033 70.373 52.6844C67.2013 51.6401 65.5767 50.2863 61.8248 45.2966C60.1615 43.0919 59.1172 41.8928 58.0728 40.8871C55.7907 38.6824 53.5086 37.522 50.5303 37.0578Z" fill="#FF007A"/>
<path d="M79.3467 41.9701C79.4241 40.5003 79.6175 39.5333 80.0429 38.6436C80.1977 38.2955 80.3524 37.9861 80.391 37.9861C80.4297 37.9861 80.3524 38.2568 80.2363 38.5663C79.9269 39.4172 79.8882 40.6163 80.0816 41.9701C80.3524 43.7107 80.4684 43.9428 82.325 45.8381C83.176 46.7277 84.1817 47.8494 84.5685 48.3136L85.226 49.1645L84.5685 48.5457C83.7562 47.7721 81.8996 46.3022 81.4741 46.1088C81.2033 45.9541 81.1646 45.9541 80.9712 46.1475C80.8165 46.3022 80.7778 46.5343 80.7778 47.656C80.7392 49.3966 80.5071 50.4796 79.9269 51.6013C79.6175 52.1815 79.5788 52.0655 79.8495 51.408C80.0429 50.9051 80.0816 50.673 80.0816 49.0098C80.0816 45.6447 79.6948 44.8324 77.3354 43.4786C76.7552 43.1305 75.7495 42.6277 75.1693 42.3569C74.5504 42.0861 74.0863 41.8541 74.1249 41.8541C74.2023 41.7767 76.4844 42.4343 77.374 42.8211C78.7278 43.3626 78.9599 43.4012 79.1146 43.3626C79.2307 43.2465 79.308 42.9371 79.3467 41.9701Z" fill="#FF007A"/>
<path d="M52.1162 47.7334C50.4917 45.49 49.4473 42.0088 49.6794 39.4173L49.7568 38.605L50.1436 38.6823C50.8398 38.7984 52.0389 39.2625 52.6191 39.6107C54.1663 40.539 54.8625 41.8154 55.52 44.9871C55.7134 45.9155 55.9842 46.9985 56.1002 47.3466C56.2936 47.9268 57.0286 49.2806 57.6474 50.1315C58.0729 50.7504 57.8022 51.0599 56.8352 50.9825C55.3653 50.8278 53.3927 49.474 52.1162 47.7334Z" fill="#FF007A"/>
<path d="M77.3741 64.5592C69.7155 61.4648 67.0079 58.7959 67.0079 54.2704C67.0079 53.6128 67.0466 53.0713 67.0466 53.0713C67.0853 53.0713 67.3561 53.3034 67.7042 53.5741C69.2514 54.8119 70.9919 55.3534 75.8269 56.0496C78.6505 56.4751 80.2751 56.7845 81.7449 57.2874C86.4252 58.8346 89.3261 62.0063 90.0224 66.2998C90.2158 67.5375 90.0997 69.897 89.7903 71.1347C89.5195 72.1017 88.7459 73.881 88.5525 73.9197C88.5139 73.9197 88.4365 73.7263 88.4365 73.4168C88.3591 71.7923 87.5469 70.2451 86.1931 69.046C84.5685 67.6535 82.4798 66.6092 77.3741 64.5592Z" fill="#FF007A"/>
<path d="M71.9589 65.8356C71.8816 65.2554 71.6882 64.5205 71.5721 64.2111L71.3787 63.6309L71.7268 64.0563C72.2297 64.6365 72.6165 65.3328 72.9646 66.2998C73.2354 67.0347 73.2354 67.2668 73.2354 68.4658C73.2354 69.6262 73.1967 69.897 72.9646 70.5545C72.5778 71.5989 72.1136 72.3338 71.34 73.1461C69.9476 74.5772 68.1296 75.3508 65.5381 75.6989C65.0739 75.7376 63.7588 75.8537 62.5984 75.931C59.6974 76.0857 57.7635 76.3952 56.0229 77.014C55.7908 77.0914 55.5587 77.1688 55.52 77.1301C55.4427 77.0527 56.6418 76.3565 57.6087 75.8923C58.9625 75.2348 60.355 74.8867 63.4107 74.3451C64.9192 74.1131 66.4664 73.8036 66.8532 73.6489C70.6825 72.4498 72.5778 69.4715 71.9589 65.8356Z" fill="#FF007A"/>
<path d="M75.4788 72.0628C74.4731 69.8581 74.2411 67.7694 74.7826 65.7967C74.8599 65.6033 74.9373 65.4099 75.0147 65.4099C75.092 65.4099 75.3241 65.526 75.5562 65.6807C76.0203 65.9901 76.9873 66.5316 79.4628 67.8854C82.5959 69.5873 84.3752 70.9024 85.6129 72.4109C86.6959 73.7261 87.3535 75.2346 87.6629 77.0912C87.8563 78.1355 87.7403 80.6497 87.4695 81.6941C86.6186 84.9819 84.6846 87.6121 81.861 89.1206C81.4355 89.3527 81.0874 89.5074 81.0487 89.5074C81.01 89.5074 81.1647 89.1206 81.3968 88.6564C82.3251 86.6838 82.4412 84.7885 81.7449 82.6611C81.3195 81.346 80.4298 79.7601 78.6506 77.0912C76.5232 73.9968 76.0203 73.1845 75.4788 72.0628Z" fill="#FF007A"/>
<path d="M46.6624 83.899C49.5247 81.5008 53.0445 79.7989 56.2936 79.2574C57.6861 79.0253 60.0069 79.1027 61.2833 79.4508C63.3333 79.9923 65.19 81.1527 66.157 82.5839C67.0853 83.9763 67.5107 85.1754 67.9362 87.8443C68.0909 88.8887 68.2843 89.9717 68.323 90.2038C68.6325 91.5962 69.2513 92.6793 70.0249 93.2595C71.224 94.1491 73.3127 94.1878 75.3627 93.4142C75.7109 93.2982 76.0203 93.1821 76.0203 93.2208C76.0976 93.2982 75.0533 93.9944 74.3571 94.3425C73.3901 94.8453 72.6165 95.0001 71.5721 95.0001C69.7155 95.0001 68.1296 94.0331 66.8532 92.0991C66.5824 91.7123 66.0409 90.5906 65.5768 89.5462C64.223 86.4132 63.5267 85.4849 61.9409 84.4405C60.5484 83.5509 58.7691 83.3575 57.4153 84.015C55.6361 84.866 55.1719 87.1481 56.4097 88.5406C56.9125 89.1207 57.8408 89.5849 58.6144 89.7009C60.0456 89.8943 61.2833 88.7726 61.2833 87.3415C61.2833 86.4132 60.9352 85.8716 60.0069 85.4462C58.7691 84.9047 57.4153 85.5235 57.454 86.7226C57.454 87.2254 57.6861 87.5349 58.1889 87.767C58.4984 87.9217 58.4984 87.9217 58.2663 87.883C57.1446 87.6509 56.8738 86.2584 57.7635 85.3688C58.8465 84.2858 61.1286 84.7499 61.9022 86.2584C62.2116 86.8773 62.2503 88.1151 61.9795 88.8887C61.322 90.5906 59.4654 91.4802 57.5701 90.9774C56.2936 90.6293 55.7521 90.2811 54.2049 88.6953C51.4973 85.9103 50.453 85.3688 46.585 84.7886L45.8501 84.6726L46.6624 83.899Z" fill="#FF007A"/>
<path fill-rule="evenodd" clip-rule="evenodd" d="M26.3168 21.6632C35.3292 32.6096 49.2152 49.6287 49.9115 50.557C50.4917 51.3306 50.2596 52.0655 49.2926 52.607C48.7511 52.9165 47.6294 53.2259 47.0878 53.2259C46.469 53.2259 45.7341 52.9165 45.2312 52.4136C44.8831 52.0655 43.3746 49.8608 39.9708 44.5616C37.3792 40.5003 35.1745 37.1351 35.1358 37.0964C34.9811 37.0191 34.9811 37.0191 39.7 45.4513C42.6784 50.7504 43.6454 52.6457 43.6454 52.8778C43.6454 53.3806 43.4906 53.6514 42.8718 54.3476C41.8274 55.508 41.3632 56.8231 41.0151 59.5694C40.6283 62.6251 39.584 64.7911 36.6056 68.4657C34.8651 70.6318 34.5943 71.0186 34.1688 71.9082C33.6273 72.9912 33.4726 73.6101 33.3952 75.0026C33.3179 76.4724 33.4726 77.4007 33.8981 78.7932C34.2849 80.0309 34.7103 80.8432 35.7547 82.4291C36.6443 83.8216 37.1858 84.8659 37.1858 85.2527C37.1858 85.5621 37.2632 85.5621 38.6557 85.2527C41.9821 84.4791 44.7284 83.164 46.2369 81.5395C47.1652 80.5338 47.3973 79.9923 47.3973 78.5998C47.3973 77.7102 47.3586 77.5168 47.1265 76.9752C46.7397 76.1243 46.0048 75.4281 44.4189 74.345C42.3302 72.9139 41.4406 71.7535 41.2085 70.2063C41.0151 68.8912 41.2472 68.0015 42.4076 65.5647C43.6067 63.0505 43.9161 62.0062 44.1095 59.4533C44.2255 57.8288 44.4189 57.1712 44.8831 56.6684C45.3859 56.1269 45.8114 55.9335 47.0105 55.7788C48.9832 55.508 50.2596 55.0052 51.2653 54.0382C52.1549 53.2259 52.5417 52.4136 52.5804 51.2145L52.619 50.3249L52.1162 49.7834C50.2983 47.6947 25.1178 20 25.0017 20C24.963 20 25.5819 20.7349 26.3168 21.6632ZM38.1915 76.6658C38.617 75.9309 38.3849 75.0026 37.6887 74.5384C37.0311 74.1129 36.0254 74.3063 36.0254 74.8865C36.0254 75.0413 36.1028 75.196 36.3349 75.2733C36.683 75.4667 36.7217 75.6601 36.4509 76.0856C36.1802 76.5111 36.1802 76.8979 36.5283 77.1686C37.0698 77.5941 37.8047 77.362 38.1915 76.6658Z" fill="#FF007A"/>
<path fill-rule="evenodd" clip-rule="evenodd" d="M53.8568 56.3204C52.9285 56.5911 52.0388 57.5968 51.7681 58.6025C51.6133 59.2214 51.6907 60.3431 51.9615 60.6912C52.3869 61.2327 52.7737 61.3874 53.8568 61.3874C55.9842 61.3874 57.8021 60.4591 57.9955 59.3374C58.1889 58.4091 57.3766 57.1327 56.2549 56.5525C55.6747 56.243 54.4756 56.127 53.8568 56.3204ZM56.3323 58.2544C56.6417 57.7902 56.5257 57.2874 55.9455 56.9393C54.9011 56.2817 53.3153 56.8232 53.3153 57.8289C53.3153 58.3317 54.1275 58.8732 54.9011 58.8732C55.404 58.8732 56.1002 58.5638 56.3323 58.2544Z" fill="#FF007A"/>
<defs>
<linearGradient id="paint0_linear_1_256" x1="0" y1="0" x2="0" y2="120" gradientUnits="userSpaceOnUse">
<stop stop-color="#FEF3F9"/>
<stop offset="1" stop-color="#FDE5F2"/>
</linearGradient>
</defs>
</svg>
