<svg width="120" height="120" viewBox="0 0 120 120" fill="none" xmlns="http://www.w3.org/2000/svg">
<path fill-rule="evenodd" clip-rule="evenodd" d="M60 0C93.132 0 120 26.868 120 60C120 93.132 93.132 120 60 120C26.868 120 0 93.132 0 60C0 26.868 26.868 0 60 0Z" fill="#0055D5"/>
<path fill-rule="evenodd" clip-rule="evenodd" d="M32.64 39.6961C32.64 39.6961 26.184 34.5361 25.74 47.2801C25.296 57.1561 25.308 76.3321 29.88 85.3921C31.812 88.8001 34.392 87.7561 39.192 84.3601C43.368 81.2761 58.476 67.3561 64.872 61.2481C71.268 55.1401 84.24 37.6201 86.94 49.5241C88.008 54.5281 89.328 58.7761 88.32 69.8761C88.008 73.2961 86.544 75.8881 79.872 71.2561C74.832 68.0161 70.044 64.5361 70.044 64.5361C70.044 64.5361 69.12 62.8801 66.936 65.5681C65.22 67.7161 64.356 68.2441 67.104 69.8761C69.864 71.5081 83.82 81.1321 89.172 82.6321C93.588 83.9161 96.108 83.8921 96.24 75.2161C96.216 68.3281 95.82 48.6121 93.312 40.2121C91.416 34.9801 88.632 32.6041 82.62 38.4841C76.608 44.3641 57.648 62.7481 47.28 71.0761C40.404 76.2361 37.464 80.8921 34.872 72.2881C33.048 65.7721 30.684 45.4921 38.148 49.3561C42.816 51.5881 45.144 51.5761 43.32 52.9801C41.496 54.3721 36.252 59.1841 36.252 59.1841C36.252 59.1841 34.632 60.4921 35.388 63.3241C36.144 65.3041 36.144 66.2881 40.212 62.4601C44.28 58.6321 47.28 55.7401 47.28 55.7401C47.28 55.7401 47.928 54.7201 49.86 56.6041C51.792 58.4881 52.104 59.0161 52.104 59.0161C52.104 59.0161 52.62 60.4201 54.684 57.9841C56.76 55.5481 58.092 54.0601 54.168 51.7801C50.256 49.4761 32.64 39.6961 32.64 39.6961Z" fill="white"/>
</svg>
