<svg width="120" height="120" viewBox="0 0 120 120" fill="none" xmlns="http://www.w3.org/2000/svg">
<circle cx="60" cy="60" r="60" fill="#EDF0F4"/>
<path fill-rule="evenodd" clip-rule="evenodd" d="M49.7435 29.929C49.2524 30.1745 49.2524 30.9112 49.498 31.4023C49.7435 31.8935 50.4802 31.8935 50.9713 31.8935L54.1636 29.6834C54.6548 29.1923 54.6548 28.7012 54.4092 27.9645C54.1636 27.4734 53.4269 27.4734 52.9358 27.7189L49.7435 29.929ZM78.9653 59.6419C78.9653 59.1507 78.2286 58.6596 77.7375 58.9052C77.0008 58.9052 76.7553 59.6419 77.0008 60.133L77.9831 63.8164C77.9831 64.3075 78.7197 64.7987 79.2109 64.5531C79.702 64.5531 80.1931 63.8164 79.9476 63.3253L78.9653 59.6419Z" fill="white"/>
<path fill-rule="evenodd" clip-rule="evenodd" d="M65.9506 44.4171C62.2672 43.6804 58.3382 44.1715 54.9004 46.3816C59.8116 44.6627 65.4595 45.8905 69.3885 49.8194C74.7908 55.4673 74.7908 64.5531 69.3885 69.9555C68.6518 70.6921 67.9151 71.1833 67.1784 71.6744C69.1429 70.9377 71.1074 69.9555 72.5808 68.2365C76.5098 64.3075 77.492 58.6596 76.0187 53.7484C71.8441 52.2751 68.1607 48.8372 65.9506 44.4171Z" fill="#FFAE54"/>
<path d="M89.2789 76.34C80.4387 92.7926 59.8116 98.9317 43.6045 89.8459C27.1519 81.0057 21.2585 60.133 30.0987 43.6804C35.9921 32.8757 46.7968 26.4911 58.3382 26C59.8116 26 61.0394 26.7367 61.7761 28.2101C62.5127 29.6834 63.0039 31.6479 62.7583 33.6124C62.7583 34.3491 62.7583 35.0858 62.7583 35.8224C62.7583 39.2603 63.7406 42.6982 65.2139 45.6449C58.0926 42.9437 49.9891 45.8905 46.3057 52.7662C42.1312 60.3786 45.0779 69.7099 52.4447 73.8844C59.8116 78.059 69.3885 75.1122 73.3174 67.7454C75.5275 63.5709 75.773 58.6596 74.0541 54.4851C77.0009 55.9585 80.1932 56.6951 83.631 56.6951C85.5955 56.6951 87.3144 56.4496 89.2789 55.9585C90.2612 55.7129 91.489 55.7129 92.2256 56.204C92.9623 56.6951 93.4535 57.1863 93.4535 57.923C93.699 64.062 92.2256 70.4466 89.2789 76.34Z" fill="url(#paint0_radial_1_1038)" stroke="#AC562A" stroke-width="1.0716"/>
<path fill-rule="evenodd" clip-rule="evenodd" d="M48.7612 44.1715C50.7257 45.1538 53.4269 45.6449 56.8648 44.6626C59.5659 44.1715 62.5127 44.4171 65.2138 45.6449C63.7405 42.6982 62.7582 39.2603 62.7582 35.8224C62.7582 34.5946 62.7582 33.3668 63.0038 32.3846C63.2493 30.9112 63.0038 29.1923 62.2671 27.9645C61.5304 26.7367 60.5482 26 59.3204 26C55.1458 26 50.7257 26.9822 46.5512 28.7012C45.0778 29.4379 44.0956 30.9112 43.6044 32.8757C43.1133 34.8402 43.3589 37.0503 44.3411 39.2603C45.0778 41.2248 46.7967 42.9437 48.7612 44.1715ZM80.4386 69.7099L81.6664 69.2188C82.5454 71.4162 81.6546 73.4171 80.9297 75.0453C80.8445 75.2365 80.7616 75.4227 80.6842 75.6034V75.8489C80.5817 76.0539 80.4792 76.2482 80.3811 76.4341C80.0095 77.1387 79.7019 77.7216 79.7019 78.3045C79.4564 79.5323 79.4564 80.7601 79.7019 81.4968C79.9475 82.2335 80.6842 82.9702 81.6664 83.2158C82.4031 83.4613 83.6309 83.2158 85.1043 82.2335C90.9978 75.3578 93.6989 66.5176 93.2078 58.1685C93.2078 57.4318 92.7167 56.6951 91.98 56.204C91.2433 55.7129 90.0155 55.7129 89.0333 55.9585C87.3143 56.4496 85.3498 56.6951 83.6309 56.6951C80.1931 56.6951 77.0008 55.9585 74.054 54.2395C75.773 58.4141 75.5274 63.0797 73.5629 67.2543C73.3906 67.7711 73.0975 68.1671 72.7683 68.6118C72.6282 68.8009 72.4817 68.9989 72.3351 69.2188C73.3174 68.9732 74.2996 68.4821 75.773 67.4998C77.4919 66.272 79.7019 67.4998 80.4386 69.7099ZM78.2754 77.8821C78.5331 76.9588 78.9947 76.0355 79.4564 75.1122C79.5436 74.9087 79.6343 74.7052 79.7251 74.5012C80.4016 72.9828 81.0881 71.4418 80.4386 69.7099L78.2754 77.8821ZM78.2754 77.8821C78.2589 77.941 78.2433 78 78.2286 78.059L78.2754 77.8821Z" fill="#AC562A"/>
<path d="M56.8648 44.6626L56.7689 44.1355L56.7429 44.1402L56.7176 44.1475L56.8648 44.6626ZM48.7612 44.1715L48.4773 44.6259L48.4988 44.6394L48.5216 44.6508L48.7612 44.1715ZM65.2138 45.6449L64.9921 46.1327L66.3699 46.7589L65.6931 45.4053L65.2138 45.6449ZM63.0038 32.3846L63.5236 32.5145L63.5288 32.4938L63.5323 32.4727L63.0038 32.3846ZM62.2671 27.9645L62.7265 27.6888V27.6888L62.2671 27.9645ZM46.5512 28.7012L46.3472 28.2057L46.3291 28.2132L46.3116 28.2219L46.5512 28.7012ZM43.6044 32.8757L44.1243 33.0057V33.0057L43.6044 32.8757ZM44.3411 39.2603L44.8428 39.0722L44.8372 39.0573L44.8308 39.0427L44.3411 39.2603ZM81.6664 69.2188L82.1639 69.0198L81.9649 68.5223L81.4674 68.7213L81.6664 69.2188ZM80.9297 75.0453L81.4191 75.2632V75.2632L80.9297 75.0453ZM80.6842 75.6034L80.1917 75.3923L80.1484 75.4934V75.6034H80.6842ZM80.6842 75.8489L81.1634 76.0885L81.22 75.9754V75.8489H80.6842ZM80.3811 76.4341L79.9072 76.1841L79.9072 76.1841L80.3811 76.4341ZM79.7019 78.3045L80.2273 78.4096L80.2377 78.3576V78.3045H79.7019ZM79.7019 81.4968L80.2102 81.3274V81.3274L79.7019 81.4968ZM81.6664 83.2158L81.8359 82.7075L81.8163 82.7009L81.7964 82.696L81.6664 83.2158ZM85.1043 82.2335L85.4015 82.6793L85.463 82.6383L85.5111 82.5822L85.1043 82.2335ZM93.2078 58.1685H92.672V58.1843L92.6729 58.2L93.2078 58.1685ZM91.98 56.204L92.2772 55.7582L92.2772 55.7582L91.98 56.204ZM89.0333 55.9585L88.9033 55.4387L88.8947 55.4408L88.8861 55.4433L89.0333 55.9585ZM74.054 54.2395L74.324 53.7767L72.9552 52.9783L73.5586 54.4435L74.054 54.2395ZM73.5629 67.2543L73.0781 67.0261L73.0646 67.0548L73.0546 67.0848L73.5629 67.2543ZM72.7683 68.6118L73.1989 68.9306H73.1989L72.7683 68.6118ZM72.3351 69.2188L71.8893 68.9216L71.1205 70.0747L72.4651 69.7386L72.3351 69.2188ZM75.773 67.4998L76.0702 67.9457L76.0774 67.9409L76.0844 67.9358L75.773 67.4998ZM79.4564 75.1122L79.9356 75.3519L79.9427 75.3378L79.9489 75.3233L79.4564 75.1122ZM79.7251 74.5012L80.2146 74.7193V74.7193L79.7251 74.5012ZM78.2286 78.059L77.7088 77.929L78.7465 78.1961L78.2286 78.059ZM56.7176 44.1475C53.4071 45.0933 50.8441 44.6139 49.0008 43.6923L48.5216 44.6508C50.6074 45.6936 53.4467 46.1965 57.0119 45.1778L56.7176 44.1475ZM65.4355 45.1571C62.625 43.8796 59.5661 43.6269 56.7689 44.1355L56.9606 45.1898C59.5658 44.7161 62.4004 44.9546 64.9921 46.1327L65.4355 45.1571ZM62.2224 35.8224C62.2224 39.3588 63.2315 42.8784 64.7346 45.8845L65.6931 45.4053C64.2494 42.5179 63.294 39.1618 63.294 35.8224H62.2224ZM62.484 32.2546C62.2191 33.3143 62.2224 34.6154 62.2224 35.8224H63.294C63.294 34.5739 63.2974 33.4194 63.5236 32.5145L62.484 32.2546ZM61.8077 28.2402C62.4679 29.3406 62.7037 30.9261 62.4753 32.2965L63.5323 32.4727C63.795 30.8963 63.5396 29.044 62.7265 27.6888L61.8077 28.2402ZM59.3204 26.5358C60.294 26.5358 61.1282 27.1078 61.8077 28.2402L62.7265 27.6888C61.9326 26.3656 60.8023 25.4642 59.3204 25.4642V26.5358ZM46.7552 29.1966C50.8761 27.4998 55.2268 26.5358 59.3204 26.5358V25.4642C55.0648 25.4642 50.5754 26.4647 46.3472 28.2057L46.7552 29.1966ZM44.1243 33.0057C44.5914 31.137 45.5017 29.8249 46.7908 29.1804L46.3116 28.2219C44.6539 29.0508 43.5997 30.6854 43.0846 32.7458L44.1243 33.0057ZM44.8308 39.0427C43.8884 36.9224 43.6669 34.835 44.1243 33.0057L43.0846 32.7458C42.5597 34.8454 42.8294 37.1781 43.8515 39.4779L44.8308 39.0427ZM49.0452 43.7172C47.1377 42.525 45.5234 40.887 44.8428 39.0722L43.8394 39.4484C44.6323 41.5626 46.4558 43.3625 48.4773 44.6259L49.0452 43.7172ZM81.4674 68.7213L80.2396 69.2124L80.6376 70.2074L81.8654 69.7162L81.4674 68.7213ZM81.4191 75.2632C82.1318 73.6626 83.1381 71.4553 82.1639 69.0198L81.169 69.4178C81.9527 71.3772 81.1774 73.1716 80.4402 74.8273L81.4191 75.2632ZM81.1767 75.8144C81.2524 75.6378 81.3337 75.4552 81.4191 75.2632L80.4402 74.8273C80.3553 75.0179 80.2709 75.2075 80.1917 75.3923L81.1767 75.8144ZM81.22 75.8489V75.6034H80.1484V75.8489H81.22ZM80.855 76.6841C80.9527 76.4989 81.0579 76.2996 81.1634 76.0885L80.205 75.6093C80.1055 75.8083 80.0056 75.9976 79.9072 76.1841L80.855 76.6841ZM80.2377 78.3045C80.2377 77.8822 80.4627 77.4278 80.855 76.6841L79.9072 76.1841C79.5562 76.8495 79.1661 77.561 79.1661 78.3045H80.2377ZM80.2102 81.3274C80.007 80.7176 79.99 79.5963 80.2273 78.4096L79.1765 78.1995C78.9228 79.4684 78.9058 80.8027 79.1936 81.6663L80.2102 81.3274ZM81.7964 82.696C80.9845 82.493 80.3955 81.8832 80.2102 81.3274L79.1936 81.6663C79.4995 82.5838 80.3838 83.4474 81.5365 83.7356L81.7964 82.696ZM84.8071 81.7877C83.3789 82.7398 82.3341 82.8735 81.8359 82.7075L81.497 83.7241C82.4721 84.0491 83.8829 83.6917 85.4015 82.6793L84.8071 81.7877ZM92.6729 58.2C93.1563 66.4165 90.4968 75.1189 84.6975 81.8848L85.5111 82.5822C91.4987 75.5967 94.2416 66.6187 93.7427 58.1371L92.6729 58.2ZM91.6828 56.6498C92.3247 57.0778 92.672 57.6677 92.672 58.1685H93.7436C93.7436 57.196 93.1086 56.3125 92.2772 55.7582L91.6828 56.6498ZM89.1632 56.4783C89.6074 56.3672 90.1053 56.3127 90.5673 56.3399C91.0359 56.3674 91.4223 56.4762 91.6828 56.6498L92.2772 55.7582C91.801 55.4408 91.2052 55.3039 90.6302 55.2701C90.0485 55.2359 89.4414 55.3041 88.9033 55.4387L89.1632 56.4783ZM83.6309 57.2309C85.3948 57.2309 87.4092 56.9797 89.1805 56.4736L88.8861 55.4433C87.2195 55.9194 85.3049 56.1593 83.6309 56.1593V57.2309ZM73.7841 54.7023C76.8245 56.4759 80.1128 57.2309 83.6309 57.2309V56.1593C80.2733 56.1593 77.177 55.441 74.324 53.7767L73.7841 54.7023ZM74.0477 67.4824C76.0705 63.184 76.3307 58.3613 74.5495 54.0355L73.5586 54.4435C75.2153 58.4669 74.9843 62.9755 73.0781 67.0261L74.0477 67.4824ZM73.1989 68.9306C73.5214 68.495 73.8679 68.0337 74.0712 67.4237L73.0546 67.0848C72.9134 67.5085 72.6736 67.8392 72.3377 68.293L73.1989 68.9306ZM72.7809 69.516C72.9191 69.3087 73.0581 69.1208 73.1989 68.9306L72.3377 68.293C72.1984 68.481 72.0442 68.6891 71.8893 68.9216L72.7809 69.516ZM75.4758 67.054C74.0212 68.0237 73.0992 68.4755 72.2052 68.699L72.4651 69.7386C73.5355 69.471 74.578 68.9404 76.0702 67.9457L75.4758 67.054ZM80.9469 69.5405C80.5391 68.3169 79.7148 67.337 78.7138 66.8364C77.6984 66.3288 76.5013 66.3212 75.4615 67.0638L76.0844 67.9358C76.7636 67.4507 77.5309 67.4431 78.2345 67.7949C78.9524 68.1538 79.6015 68.8929 79.9303 69.8793L80.9469 69.5405ZM78.9771 74.8726C78.5207 75.7855 78.0334 76.7561 77.7593 77.738L78.7915 78.0261C79.0328 77.1616 79.4688 76.2855 79.9356 75.3519L78.9771 74.8726ZM79.2357 74.2832C79.1451 74.4865 79.0529 74.6936 78.9639 74.9012L79.9489 75.3233C80.0343 75.1239 80.1234 74.9238 80.2146 74.7193L79.2357 74.2832ZM79.9369 69.898C80.4981 71.3944 79.9269 72.7317 79.2357 74.2832L80.2146 74.7193C80.8763 73.2339 81.6781 71.4892 80.9403 69.5218L79.9369 69.898ZM78.7934 78.0192L80.9566 69.847L79.9207 69.5728L77.7574 77.745L78.7934 78.0192ZM77.7593 77.738C77.7416 77.8015 77.7247 77.8652 77.7088 77.929L78.7484 78.1889C78.7619 78.1349 78.7763 78.0806 78.7915 78.0261L77.7593 77.738ZM78.7465 78.1961L78.7934 78.0192L77.7574 77.745L77.7106 77.9219L78.7465 78.1961Z" fill="#AC562A"/>
<circle cx="34.0278" cy="52.2751" r="1.71893" fill="#AC562A"/>
<circle cx="59.5661" cy="82.9701" r="1.71893" fill="#AC562A"/>
<circle cx="48.7614" cy="84.4436" r="2.94673" fill="#AC562A"/>
<defs>
<radialGradient id="paint0_radial_1_1038" cx="0" cy="0" r="1" gradientUnits="userSpaceOnUse" gradientTransform="translate(59.6549 60.0835) rotate(90) scale(35.3066 35.009)">
<stop offset="0.3335" stop-color="#F7B450"/>
<stop offset="0.6477" stop-color="#FFC977"/>
<stop offset="1" stop-color="#FF9900"/>
</radialGradient>
</defs>
</svg>
