<svg width="120" height="120" viewBox="0 0 120 120" fill="none" xmlns="http://www.w3.org/2000/svg">
<path fill-rule="evenodd" clip-rule="evenodd" d="M60 0C93.132 0 120 26.868 120 60C120 93.132 93.132 120 60 120C26.868 120 0 93.132 0 60C0 26.868 26.868 0 60 0Z" fill="#1E1E1E"/>
<path d="M60.8999 85.08C41.7119 85.08 26.1599 79.536 26.1599 72.108C26.1599 68.232 30.3959 64.74 37.1759 62.28C42.4679 65.676 51.3479 67.416 61.4159 67.416C71.2439 67.416 79.9319 65.292 85.2719 62.04C91.6679 64.476 95.6399 67.872 95.6399 71.616C95.6399 79.056 80.0879 85.08 60.8999 85.08Z" fill="white"/>
<path d="M61.1039 65.7481C46.5599 65.7481 34.7639 61.1881 34.7639 55.5601C34.7639 52.4401 38.3999 49.6441 44.0999 47.7841C48.1679 49.9081 54.2639 51.2641 61.1039 51.2641C67.9439 51.2641 74.0399 49.9081 78.1079 47.7841C83.8199 49.6561 87.4439 52.4401 87.4439 55.5601C87.4559 61.1881 75.6599 65.7481 61.1039 65.7481Z" fill="white"/>
<path d="M61.008 49.572C49.764 49.572 40.644 45.804 40.644 41.172C40.644 36.54 49.764 32.772 61.008 32.772C72.252 32.772 81.372 36.54 81.372 41.172C81.372 45.804 72.252 49.572 61.008 49.572Z" fill="white"/>
</svg>
