<svg width="120" height="120" viewBox="0 0 120 120" fill="none" xmlns="http://www.w3.org/2000/svg">
<path d="M118.191 74.5143C110.178 106.657 77.6222 126.219 45.4752 118.204C13.3417 110.19 -6.22004 77.6324 1.79691 45.4918C9.80683 13.3451 42.3626 -6.21803 74.4997 1.79541C106.644 9.80884 126.205 42.3702 118.191 74.5149L118.191 74.5143H118.191Z" fill="#F7931A"/>
<path fill-rule="evenodd" clip-rule="evenodd" d="M77.9022 38.1726C74.944 30.6605 67.5334 29.983 58.9029 31.6596L55.8303 20.9444L49.3081 22.8156L52.3003 33.2484C50.5854 33.74 48.8427 34.2765 47.111 34.8106L44.1006 24.3081L37.5819 26.1773L40.6515 36.8902C39.248 37.3239 37.8685 37.7482 36.5166 38.1365L36.5062 38.1033L27.5095 40.6795L29.5088 47.6452C29.5088 47.6452 34.299 46.1725 34.2443 46.2837C36.886 45.5269 38.186 46.8143 38.8161 48.0658L42.3169 60.2728C42.4992 60.2214 42.7392 60.1607 43.0195 60.1208L42.8303 60.175L42.8301 60.175C42.6691 60.2211 42.5017 60.2689 42.3307 60.3197L47.2326 77.4211C47.3555 78.2855 47.247 79.7518 45.4019 80.2841C45.5069 80.3339 40.6606 81.6425 40.6606 81.6425L41.598 89.8038L50.086 87.3696C51.0162 87.1042 51.94 86.85 52.8544 86.5983L52.8562 86.5978C53.4947 86.422 54.1286 86.2476 54.7569 86.0714L57.8674 96.908L64.383 95.0406L61.3077 84.3178C63.1075 83.8419 64.8424 83.3597 66.5326 82.8736L69.5902 93.5476L76.1127 91.6763L73.0122 80.8576C83.7976 77.0841 90.6802 72.1213 88.6799 61.5502C87.0716 53.0381 82.1106 50.4569 75.4578 50.7469C78.6874 47.7367 80.0789 43.666 77.9046 38.1722L77.9021 38.1719L77.9022 38.1726ZM75.4216 63.962C77.5555 71.3916 65.8366 74.5766 60.4748 76.0338C59.9925 76.1649 59.5616 76.282 59.1969 76.387L55.0812 62.0274C55.526 61.9 56.0626 61.7324 56.6705 61.5424L56.6706 61.5424C62.1064 59.844 73.2436 56.3642 75.4219 63.9619L75.4216 63.962ZM54.2725 55.1595C58.7488 53.9553 68.514 51.3283 66.5788 44.5733L66.5793 44.573C64.5977 37.6657 55.3235 40.5927 50.794 42.0223C50.2845 42.1831 49.835 42.325 49.4626 42.4318L53.1963 55.4545C53.5029 55.3666 53.8659 55.2689 54.2725 55.1595Z" fill="white"/>
</svg>
