<svg width="120" height="120" viewBox="0 0 120 120" fill="none" xmlns="http://www.w3.org/2000/svg">
<circle cx="60" cy="60" r="60" fill="#EDF0F4"/>
<circle cx="60" cy="60" r="50" fill="#FB2EA3"/>
<path fill-rule="evenodd" clip-rule="evenodd" d="M80.8836 53.4586C80.1781 58.2675 77.5335 60.5952 74.025 61.4098C78.8418 63.938 81.2969 67.8195 78.9599 74.5426C76.0605 82.8947 69.174 83.5965 60.0159 81.8515L57.7877 90.8333L52.4177 89.4831L54.6117 80.6234C53.1803 80.2652 51.7528 79.8913 50.3294 79.5019L48.1292 88.4054L42.7623 87.0583L44.9874 78.0576C44.4534 77.9204 43.9161 77.7792 43.3747 77.6369C42.6431 77.4446 41.904 77.2504 41.1557 77.0614L34.1666 75.307L36.833 69.104C36.833 69.104 40.7921 70.1692 40.7361 70.0877C42.2589 70.4668 42.9332 69.4674 43.2005 68.8032L46.7121 54.6052L47.2808 54.7462C47.0984 54.6744 46.9116 54.6147 46.7214 54.5676L49.2262 44.4329C49.2914 43.2801 48.8999 41.8327 46.7245 41.2813C46.8084 41.2249 42.8214 40.3039 42.8214 40.3039L44.2509 34.5207L51.6594 36.3847L51.6532 36.416C52.7658 36.6917 53.9156 36.958 55.0841 37.2274L57.2874 28.3333L62.6573 29.6804L60.5006 38.4022L60.8329 38.4789L60.833 38.4789C62.1626 38.7856 63.4993 39.0939 64.8016 39.4235L66.9459 30.7613L72.3158 32.1084L70.1156 41.0056C76.8996 43.3615 81.8594 46.8922 80.8836 53.4586ZM68.6084 70.8083C70.1732 64.5041 60.8894 62.4018 56.3533 61.3746L56.3532 61.3746C55.8444 61.2594 55.3954 61.1577 55.0281 61.0651L52.079 72.9856C52.38 73.0609 52.7328 73.1549 53.1278 73.2601L53.1284 73.2602L53.1287 73.2603L53.1287 73.2603L53.1288 73.2603C57.5135 74.428 67.0893 76.9781 68.6115 70.8083H68.6084ZM60.1689 45.0547C63.9559 45.9011 71.689 47.6295 70.271 53.3615C68.8824 58.9753 60.8986 56.8221 57.2507 55.8382C56.9228 55.7498 56.6299 55.6708 56.3799 55.6077L59.0525 44.7963C59.3612 44.8741 59.7396 44.9587 60.1687 45.0546L60.1689 45.0547ZM85.9024 77.2619C85.3764 77.1909 84.8441 77.3341 84.4231 77.6598C84.0193 78.0089 83.7453 78.4862 83.6462 79.0131C83.5825 79.3061 83.5616 79.6069 83.5841 79.906C83.6107 80.2468 83.7195 80.5759 83.9011 80.8646C84.0875 81.1779 84.3859 81.4724 84.7898 81.7481C85.1938 82.0207 85.7532 82.24 86.468 82.406C86.8533 82.5 87.2511 82.5438 87.6582 82.5407C88.0684 82.5407 88.4475 82.4749 88.7956 82.3433C89.5444 82.0769 90.0991 81.4332 90.2562 80.6485C90.4043 80.0929 90.3259 79.5008 90.0386 79.0037C89.7527 78.5213 89.2835 78.1516 88.6278 77.8947L89.1063 75.8083C90.2872 76.2876 91.1139 76.9737 91.5924 77.8603C92.071 78.75 92.1705 79.8057 91.8908 81.0275C91.7492 81.7051 91.4687 82.3454 91.0672 82.9072C90.3374 83.9101 89.2112 84.5435 87.9814 84.6428C87.3128 84.7038 86.6389 84.6541 85.9863 84.4956C85.3149 84.3446 84.6704 84.091 84.0751 83.7437C83.5263 83.4268 83.0473 83.0004 82.6673 82.4906C82.2978 81.9841 82.0451 81.4007 81.9277 80.7832C81.8023 80.0746 81.8288 79.3471 82.0054 78.6497C82.1244 78.1202 82.3158 77.6099 82.5741 77.1334C82.8258 76.6698 83.1335 76.2782 83.5033 75.9586C83.87 75.6391 84.2926 75.4072 84.7712 75.2631C85.2529 75.1159 85.7874 75.0877 86.3809 75.1723L85.9024 77.2619ZM93.4322 72.5814C93.8373 71.9983 94.1216 71.3387 94.2681 70.6422C94.4396 69.9518 94.4713 69.2337 94.3613 68.5307C94.2463 67.8822 94.0195 67.3026 93.6777 66.792C93.3358 66.2813 92.8883 65.849 92.3289 65.4918C91.7348 65.1236 91.0835 64.8589 90.4022 64.7086C89.6875 64.5426 89.0038 64.4956 88.3512 64.5676C87.7257 64.6306 87.1202 64.8249 86.5736 65.1378C86.0422 65.4448 85.5885 65.8678 85.2032 66.4004C84.798 66.9835 84.5137 67.6431 84.3672 68.3396C84.1961 69.0289 84.1644 69.746 84.274 70.448C84.3761 71.0711 84.6092 71.665 84.9577 72.1898C85.3126 72.7122 85.772 73.154 86.3064 73.4868C86.8939 73.8548 87.539 74.1197 88.2145 74.27C88.8924 74.4354 89.5932 74.4841 90.2872 74.4141C90.9127 74.3512 91.5182 74.1569 92.0648 73.844C92.5931 73.5338 93.0499 73.114 93.4322 72.5814ZM86.1137 61.8765L86.5643 59.9185L88.3792 60.3415L88.3885 60.3039C88.135 60.1723 87.91 59.9913 87.7266 59.7713C87.3048 59.2769 87.0254 58.6756 86.9186 58.0326C86.8665 57.7078 86.8771 57.3759 86.9496 57.0551C87.0059 56.7907 87.0849 56.5318 87.1858 56.2813L89.184 56.745C89.1258 56.8888 89.0709 57.034 89.0193 57.1804C88.9671 57.3249 88.9235 57.4724 88.8888 57.6222C88.7148 58.3186 88.8659 59.057 89.299 59.6272C89.5411 59.9425 89.8406 60.2083 90.1816 60.4104C90.5514 60.6391 90.9958 60.8145 91.5179 60.9367L95.9866 61.9768L95.508 64.0633L86.1137 61.8765ZM94.2867 55.1096C93.9232 55.1316 93.5596 55.1034 93.1991 55.0156L93.196 55.0188L94.7902 48.0576C94.1065 47.8101 93.4166 47.6973 92.7143 47.7224C92.0425 47.7377 91.3803 47.8867 90.7658 48.161C90.165 48.4383 89.6315 48.8446 89.2027 49.3515C88.745 49.8983 88.428 50.5503 88.2797 51.25C88.1212 51.9611 88.1057 52.6253 88.2455 53.2456C88.376 53.8558 88.631 54.4319 88.9945 54.9373C89.3677 55.4491 89.8338 55.8849 90.368 56.2218C91.5365 56.9344 92.8975 57.2588 94.2588 57.1491C95.5074 57.0666 96.6531 56.4224 97.3788 55.3947C97.7517 54.8778 98.0252 54.245 98.1961 53.4994C98.3111 52.9856 98.3546 52.4781 98.3235 51.9768C98.2587 50.4561 97.3518 49.101 95.9773 48.4712L95.5267 50.448C95.961 50.7027 96.3038 51.09 96.5056 51.5539C96.6842 52.0578 96.7027 52.6053 96.5584 53.1203C96.4794 53.5127 96.3137 53.8821 96.0736 54.2011C95.8609 54.4735 95.59 54.694 95.2812 54.8465C94.9698 54.9984 94.632 55.0878 94.2867 55.1096ZM92.6335 70.2631C92.8417 69.4473 92.6213 68.5808 92.0493 67.9668C91.7775 67.6679 91.4556 67.4198 91.0983 67.2337C90.3569 66.8404 89.5274 66.6462 88.6899 66.6698C88.2881 66.6775 87.891 66.7593 87.5183 66.911C86.7407 67.2133 86.1699 67.895 86.0049 68.7187C85.7946 69.5313 86.0102 70.3961 86.5767 71.0119C86.8347 71.3064 87.1516 71.5476 87.5277 71.745C88.2697 72.1367 89.0987 72.3308 89.9361 72.3089C90.3387 72.2989 90.7363 72.2172 91.1108 72.0676C91.8912 71.7685 92.4657 71.0877 92.6335 70.2631ZM91.956 49.8183C92.2862 49.7727 92.6212 49.7758 92.9505 49.8277L91.8348 54.7024C91.1818 54.5289 90.6119 54.1255 90.2282 53.5651C90.0542 53.2989 89.9392 53.0012 89.877 52.6723C89.7632 51.9839 89.9314 51.2784 90.3432 50.7174C90.7408 50.2134 91.3212 49.8899 91.956 49.8183Z" fill="white"/>
</svg>
