<svg width="120" height="120" viewBox="0 0 120 120" fill="none" xmlns="http://www.w3.org/2000/svg">
<circle cx="60" cy="60" r="60" fill="#13C2C2"/>
<mask id="mask0_1_6269" style="mask-type:luminance" maskUnits="userSpaceOnUse" x="33" y="26" width="53" height="36">
<path fill-rule="evenodd" clip-rule="evenodd" d="M33 54.2079L68.6432 54.4956C68.6432 54.4956 76.51 55.4951 83.2298 61.3971C83.6122 61.7302 85.1075 61.3971 85.1075 61.3971L84.9258 26L33 26.0606V54.2079Z" fill="white"/>
</mask>
<g mask="url(#mask0_1_6269)">
<path d="M77.5359 33.9729C73.2959 30.4824 67.462 28.7333 60.0343 28.7333C50.1041 28.7333 45.7013 28.7333 41.5293 28.7333V31.319C41.5293 31.319 51.573 31.319 59.6935 31.319C66.0082 31.319 71.7248 32.6213 75.2153 35.6348C78.7057 38.6521 81.352 43.142 81.352 48.6844C81.352 54.0337 79.0616 57.9975 75.431 60.9958C71.8005 63.9941 65.3268 65.3154 58.8455 65.3154C51.1112 65.3154 37.9783 65.3154 37.9783 65.3154V67.9011C37.9783 67.9011 55.745 67.8973 58.9894 67.8973C66.807 67.8973 72.9135 66.1975 77.3088 62.8054C81.7041 59.4096 83.8998 54.6357 83.8998 48.4762C83.8998 42.3016 81.7798 37.4671 77.5359 33.9729Z" fill="white"/>
</g>
<mask id="mask1_1_6269" style="mask-type:luminance" maskUnits="userSpaceOnUse" x="33" y="26" width="53" height="36">
<path fill-rule="evenodd" clip-rule="evenodd" d="M33 54.2079L68.6432 54.4956C68.6432 54.4956 76.51 55.4951 83.2298 61.3971C83.6122 61.7302 85.1075 61.3971 85.1075 61.3971L84.9258 26L33 26.0606V54.2079Z" fill="white"/>
</mask>
<g mask="url(#mask1_1_6269)">
<path d="M75.9686 37.7208C73.3299 35.7181 70.2975 34.1053 61.7189 34.1053C52.4665 34.1091 51.3345 34.1053 47.4465 34.1053V36.6267C47.4465 36.6267 53.8332 36.5434 61.4009 36.6267C68.7151 36.7024 71.3992 37.5277 73.86 39.3487C77.0097 41.6769 78.9632 44.5503 78.9632 48.5708C78.9632 52.4475 76.9794 55.1922 73.8145 57.5204C70.5777 59.9055 65.6297 59.932 63.6156 59.9774C62.8547 59.9963 53.0192 59.9774 53.0192 59.9774V62.4987C53.0192 62.4987 57.9142 62.5669 60.9391 62.4949C67.8822 62.3397 72.0011 61.9271 75.8361 59.0764C79.4364 56.4074 81.3407 52.8828 81.3407 48.4194C81.3407 42.5325 78.3953 39.5644 75.9686 37.7208Z" fill="white"/>
</g>
<mask id="mask2_1_6269" style="mask-type:luminance" maskUnits="userSpaceOnUse" x="33" y="26" width="53" height="36">
<path fill-rule="evenodd" clip-rule="evenodd" d="M33 54.2079L68.6432 54.4956C68.6432 54.4956 76.51 55.4951 83.2298 61.3971C83.6122 61.7302 85.1075 61.3971 85.1075 61.3971L84.9258 26L33 26.0606V54.2079Z" fill="white"/>
</mask>
<g mask="url(#mask2_1_6269)">
<path d="M74.6928 41.0485C72.7128 39.8068 70.9751 38.9701 62.7789 38.9701C54.4502 38.9701 56.0213 38.9701 52.5194 38.9701V40.6283C52.5194 40.6283 55.6844 40.6283 62.495 40.6283C69.7561 40.6283 72.5084 41.9192 73.3413 42.4303C74.9729 43.4297 77.1233 45.0576 77.1233 48.374C77.1233 50.494 75.8702 53.1554 74.0189 54.2003C72.3304 55.1505 69.245 56.0023 63.8086 56.0023C63.1234 56.0023 30.2969 56.0023 30.2969 56.0023V57.6605C30.2969 57.6605 61.2078 57.6605 63.9336 57.6605C70.4868 57.6605 72.7355 56.9336 75.0449 55.6578C77.3618 54.382 78.9064 51.7585 78.9064 48.3891C78.9064 44.6261 76.8052 42.3697 74.6928 41.0485Z" fill="white"/>
</g>
<path d="M81.2159 59.3414C76.9758 55.8471 71.1381 54.1019 63.7142 54.1019C53.7803 54.1019 55.5104 54.0981 51.3347 54.0981V56.6838C51.3347 56.6838 55.2492 56.6838 63.3697 56.6838C69.6844 56.6838 75.4047 57.9861 78.8952 60.9996C82.3857 64.0168 85.0282 68.5068 85.0282 74.053C85.0282 79.3985 82.7415 83.3622 79.111 86.3605C75.4804 89.3589 69.0029 90.6801 62.5217 90.6801C54.7911 90.6801 41.6582 90.6801 41.6582 90.6801V93.2658C41.6582 93.2658 59.4211 93.262 62.6693 93.262C70.487 93.262 76.5896 91.566 80.9849 88.1702C85.3802 84.7781 87.5798 80.0004 87.5798 73.8447C87.5798 67.6663 85.4597 62.8319 81.2159 59.3414Z" fill="white"/>
<path d="M79.6484 63.0856C77.0097 61.0867 73.9773 59.4702 65.3987 59.4702C56.1425 59.4739 49.8846 59.4702 45.9966 59.4702V61.9915C45.9966 61.9915 57.5092 61.9082 65.0807 61.9915C72.3949 62.0672 75.0752 62.8925 77.536 64.7135C80.6895 67.0455 82.643 69.9151 82.643 73.9356C82.643 77.8123 80.6592 80.557 77.4943 82.889C74.2575 85.2703 69.3094 85.3006 67.2916 85.346C66.5307 85.3611 56.6952 85.346 56.6952 85.346V87.8635C56.6952 87.8635 61.5902 87.9317 64.6189 87.8635C71.5582 87.7045 75.6809 87.2919 79.5159 84.445C83.1124 81.7722 85.0167 78.2476 85.0167 73.7842C85.0167 67.9011 82.0751 64.9293 79.6484 63.0856Z" fill="white"/>
<path d="M50.1497 71.6414H68.3328V70.2331H50.1497V71.6414Z" fill="white"/>
<path d="M57.6492 76.5667H68.2267V75.3553H57.6492V76.5667Z" fill="white"/>
<path fill-rule="evenodd" clip-rule="evenodd" d="M48.7073 40.5185H42.3321V39.3563H48.7073V40.5185ZM47.0454 71.6414H41.6582V70.2331H47.0454V71.6414Z" fill="white"/>
<path d="M38.3 76.6651H54.6622V75.2568H38.3V76.6651Z" fill="white"/>
<path d="M37.8911 49.9451H52.4929V48.5936H37.8911V49.9451Z" fill="white"/>
<path d="M38.3 87.6894H53.6968V86.0009H38.3V87.6894Z" fill="white"/>
<path d="M34.4614 93.1636H38.3116V90.718H34.4614V93.1636Z" fill="white"/>
<path d="M44.0847 45.8186H68.2607V44.467H44.0847V45.8186Z" fill="white"/>
<path d="M56.1729 49.9451H67.8028V48.5936H56.1729V49.9451Z" fill="white"/>
<path d="M78.3727 66.6669C76.389 65.4668 74.6513 64.6605 66.4588 64.6605C58.1301 64.6605 56.8846 64.6605 53.3865 64.6605V66.2618C53.3865 66.2618 59.3605 66.2618 66.1711 66.2618C73.4323 66.2618 76.1883 67.5074 77.0212 68.0033C78.6491 68.9687 80.8032 70.536 80.8032 73.7388C80.8032 75.7869 79.5501 78.3536 77.6951 79.3607C76.0066 80.2806 72.9212 81.1021 67.4848 81.1021C66.7996 81.1021 33.9768 81.1021 33.9768 81.1021V82.7035C33.9768 82.7035 64.8877 82.6997 67.6097 82.6997C74.1667 82.6997 76.4155 81.9994 78.7248 80.769C81.0379 79.5348 82.5825 77.0021 82.5825 73.7501C82.5825 70.1196 80.4852 67.9427 78.3727 66.6669Z" fill="white"/>
</svg>
