<svg width="120" height="120" viewBox="0 0 120 120" fill="none" xmlns="http://www.w3.org/2000/svg">
<circle cx="60" cy="60" r="60" fill="black"/>
<path fill-rule="evenodd" clip-rule="evenodd" d="M101.446 42.5081C102.599 45.2298 103.48 48.0591 104.076 50.9544C105.914 59.8622 104.996 69.1182 101.446 77.4919C100.292 80.1679 98.9052 82.7534 97.292 85.1505C95.68 87.5384 93.8409 89.765 91.8005 91.799C89.7664 93.8394 87.5398 95.6785 85.1519 97.2905C82.7057 98.9036 80.1692 100.336 77.4931 101.444C66.3136 106.185 53.6881 106.185 42.5086 101.444C39.8326 100.291 37.247 98.9036 34.8498 97.2905C32.4619 95.6785 30.2353 93.8394 28.2012 91.799C26.1611 89.7647 24.322 87.5382 22.7097 85.1505C21.0965 82.7045 19.6643 80.1679 18.5562 77.4919C13.8146 66.3126 13.8146 53.6874 18.5562 42.5081C19.7013 39.8313 21.0917 37.2662 22.7097 34.8457C24.3221 32.4604 26.1612 30.2364 28.2012 28.2047C32.2986 24.0901 37.1582 20.8128 42.5086 18.5561C53.6881 13.8146 66.3136 13.8146 77.4931 18.5561C80.1687 19.7014 82.7325 21.0918 85.1519 22.7095C87.5398 24.3215 89.7664 26.1606 91.8005 28.201C93.8408 30.2338 95.6798 32.4591 97.292 34.8457C98.918 37.2614 100.309 39.8272 101.446 42.5081ZM20.7234 60.0452C20.7234 81.7358 38.3061 99.3672 60.0423 99.3672C81.7371 99.3672 99.365 81.7358 99.365 60.0452C99.365 38.3546 81.7333 20.7233 60.0423 20.7233C38.3551 20.7233 20.7234 38.3546 20.7234 60.0452Z" fill="white"/>
<path d="M60.7396 95.9524H61.8025C61.9871 95.9524 62.168 95.9524 62.3527 95.9034H62.4017C62.5864 95.9034 62.7221 95.9034 62.9068 95.8582H63.0462C63.1857 95.8582 63.3252 95.8582 63.4608 95.813H63.6003C63.7397 95.813 63.8792 95.7677 64.0639 95.7677H64.1544C64.339 95.7677 64.5237 95.7187 64.7084 95.7187C64.8931 95.7187 65.0325 95.6735 65.2172 95.6283H65.3077C65.4471 95.6283 65.5866 95.583 65.7223 95.583H65.8165C66.0012 95.534 66.1407 95.534 66.3253 95.4888C66.6909 95.4436 67.0603 95.3494 67.3844 95.2589H67.4787C67.6144 95.2137 67.799 95.2137 67.9385 95.1647H67.9837C68.3531 95.0742 68.6772 94.98 69.0466 94.8895C65.5897 94.9992 62.1327 94.6737 58.757 93.9209C53.6763 92.8128 48.8331 90.8303 44.7248 87.4118C38.1662 81.9538 34.4054 73.8389 34.4805 65.3067C34.5137 59.0208 36.7504 52.9457 40.8012 48.1389C46.0628 41.9087 53.5406 38.6297 61.1994 38.445H62.2623V32.3091H61.0637C58.7338 32.3518 56.4141 32.6296 54.1399 33.1383C51.8514 33.6557 49.6241 34.4137 47.4951 35.3997C45.3241 36.4173 43.2925 37.6611 41.4005 39.0933C39.4453 40.5795 37.6649 42.2827 36.0936 44.1701C34.6141 45.917 33.33 47.8203 32.2642 49.8462C31.2098 51.7993 30.3586 53.8554 29.7239 55.9822C29.1013 58.0761 28.6847 60.2258 28.4801 62.4008L28.3406 64.4285V65.627C28.3859 67.9827 28.6648 70.2893 29.1698 72.5507C29.6787 74.8611 30.4626 77.0735 31.4313 79.1992C32.5884 81.7357 34.6651 85.4746 37.7558 88.29C44.0663 93.2647 51.871 95.9645 59.9066 95.9524H60.7396Z" fill="white"/>
<path d="M70.7993 90.0426C68.5229 89.9613 66.2555 89.7144 64.0149 89.3039C54.5093 87.5965 46.338 81.781 43.3416 73.0143C39.6931 62.3518 45.2789 50.8149 55.8926 47.3097C57.9153 46.6319 60.0349 46.2882 62.1681 46.2921C64.8931 46.2921 67.6144 46.8461 70.1095 47.86L72.6913 42.3685C71.9149 42.0573 71.1307 41.7657 70.3394 41.4941C67.6952 40.6642 64.9395 40.2435 62.1681 40.2466C59.3914 40.2518 56.6337 40.7036 54.0005 41.5846C50.6399 42.693 47.5448 44.4844 44.9095 46.8461C43.6386 47.9782 42.4799 49.2303 41.4495 50.585C40.4309 51.9241 39.5495 53.3623 38.8187 54.8779C37.3305 57.9247 36.4522 61.2331 36.2331 64.6169C36.0032 68.1221 36.463 71.6273 37.6164 74.9515C38.7915 78.3712 40.6801 81.5021 43.1569 84.1366C45.4183 86.5827 48.0492 88.4295 51.2303 90.1368C54.5546 91.8894 58.6629 92.8128 62.9521 93.4159C65.7223 93.7815 69.416 93.8757 71.5832 93.8757C73.4753 93.1822 74.2593 92.8581 75.2769 92.4435C76.1551 92.0289 77.0295 91.6143 77.9077 91.1055C78.7859 90.5967 78.9254 90.5024 80.3991 89.5376C80.5304 89.4559 80.654 89.3626 80.7685 89.2587C75.6915 90.1368 74.3987 90.0878 70.7993 90.0426Z" fill="white"/>
<path d="M82.1555 83.1679C80.7232 83.2584 78.6917 83.3941 76.385 83.3941C72.2767 83.3941 67.245 83.0285 62.9558 81.5963C56.3072 79.3839 50.0317 73.7077 50.0317 66.6899C50.0287 63.3353 51.36 60.1172 53.732 57.7452C56.1041 55.3731 59.3223 54.0419 62.6769 54.0449C67.4297 54.0449 71.538 56.6756 73.709 60.5049L79.2005 57.7837C78.3395 56.1626 77.2334 54.6841 75.9214 53.4004C72.4103 49.8833 67.6447 47.907 62.675 47.907C57.7053 47.907 52.9397 49.8833 49.4286 53.4004C45.9127 56.9112 43.9371 61.676 43.9371 66.6446C43.9494 69.223 44.5015 71.7702 45.5578 74.1223C46.5227 76.2443 47.8644 78.2305 49.5718 80.0773C52.572 83.3036 56.6765 85.8891 61.0637 87.3666C65.2625 88.7498 71.4475 89.2586 77.4479 88.844C79.1063 88.7046 80.3538 88.5651 82.4758 88.1053C84.5236 86.4893 86.3822 84.6472 88.0164 82.6139C86.5841 82.7533 83.9533 83.0285 82.1555 83.1679Z" fill="white"/>
</svg>
