<svg width="120" height="120" viewBox="0 0 120 120" fill="none" xmlns="http://www.w3.org/2000/svg">
<circle cx="60" cy="60" r="60" fill="#EDF0F4"/>
<path d="M36.5155 74.9833C38.8257 72.6852 42.5606 72.6925 44.8618 74.9997C47.1629 77.3068 47.1605 81.0418 44.8563 83.3459C42.5522 85.6501 38.8172 85.6525 36.5101 83.3514C34.2029 81.0502 34.1956 77.3153 36.4937 75.0051L36.5155 74.9833Z" fill="#FDBA4D"/>
<path d="M76.9459 36.6001C78.6365 34.9093 81.1791 34.4035 83.3881 35.3185C85.597 36.2334 87.0373 38.3889 87.0373 40.7799C87.0373 43.1709 85.597 45.3264 83.3881 46.2413C81.1791 47.1563 78.6365 46.6505 76.9459 44.9597C74.641 42.6561 74.6378 38.9208 76.9386 36.6131H76.9459" fill="#FDBA4D"/>
<path d="M44.0959 70.4357L50.333 76.6727L56.0466 70.959C53.1973 69.8151 50.939 67.5568 49.7951 64.7075L44.0959 70.4357Z" fill="#FDBA4D"/>
<path d="M72.1423 55.1745L77.856 49.4609L71.6189 43.2238L65.9053 48.9375C67.3155 49.5033 68.5964 50.349 69.6708 51.4236C70.7439 52.4905 71.5853 53.7675 72.1423 55.1745Z" fill="#FDBA4D"/>
<path d="M76.7466 83.0479C75.0559 81.3572 74.5501 78.8146 75.465 76.6056C76.38 74.3967 78.5355 72.9564 80.9264 72.9564C83.3174 72.9564 85.4729 74.3967 86.3879 76.6056C87.3028 78.8146 86.797 81.3572 85.1063 83.0479C83.9997 84.1565 82.498 84.7802 80.9316 84.7815C79.3652 84.7829 77.8624 84.1619 76.7539 83.0551L76.7466 83.0479Z" fill="#5DA9DD"/>
<path d="M37.1087 44.4334C35.4179 42.7428 34.9121 40.2002 35.8271 37.9912C36.742 35.7823 38.8975 34.3419 41.2885 34.3419C43.6795 34.3419 45.835 35.7823 46.7499 37.9912C47.6649 40.2002 47.1591 42.7428 45.4683 44.4334C44.3608 45.5412 42.8586 46.1635 41.2921 46.1635C39.7257 46.1635 38.2235 45.5412 37.1159 44.4334" fill="#5DA9DD"/>
<path d="M71.1479 76.4241L77.3849 70.187L71.6713 64.4734C70.5273 67.3227 68.269 69.581 65.4197 70.725" fill="#5DA9DD"/>
<path d="M56.5234 48.6133L50.8098 42.8996L44.5728 49.1367L50.2864 54.8503C50.8522 53.4401 51.6979 52.1591 52.7725 51.0848C53.8394 50.0117 55.1164 49.1703 56.5234 48.6133Z" fill="#5DA9DD"/>
<path d="M66.9695 31.9172C66.9671 35.1819 64.3192 37.8269 61.0545 37.8257C57.7897 37.8245 55.1438 35.1775 55.1438 31.9128C55.1438 28.6481 57.7897 26.0012 61.0545 26C64.3192 25.9988 66.9671 28.6438 66.9695 31.9085V31.9172Z" fill="#18568C"/>
<path d="M66.9695 88.4344C66.9671 91.6991 64.3192 94.3441 61.0545 94.3429C57.7897 94.3417 55.1438 91.6948 55.1438 88.43C55.1438 85.1653 57.7897 82.5184 61.0545 82.5172C64.3192 82.516 66.9671 85.161 66.9695 88.4257V88.4344Z" fill="#18568C"/>
<path d="M63.2011 40.9311H59.4792V48.2585C60.7107 48.0448 61.9697 48.0448 63.2011 48.2585" fill="#18568C"/>
<path d="M63.2011 72.4158C61.9697 72.6295 60.7107 72.6295 59.4792 72.4158V79.7432H63.2011" fill="#18568C"/>
<path d="M87.2332 64.4734C83.9685 64.471 81.3235 61.8231 81.3247 58.5584C81.3259 55.2937 83.9728 52.6477 87.2375 52.6477C90.5023 52.6477 93.1492 55.2937 93.1504 58.5584C93.1516 61.8231 90.5066 64.471 87.2419 64.4734H87.2332Z" fill="#18578C"/>
<path d="M32.9172 65.478C29.6494 65.478 27.0003 62.8291 27 59.5613C26.9997 56.2935 29.6484 53.6442 32.9162 53.6436C36.184 53.6431 38.8336 56.2916 38.8344 59.5594C38.8348 61.1289 38.2115 62.6344 37.1018 63.7444C35.9921 64.8544 34.4868 65.478 32.9172 65.478Z" fill="#18578C"/>
<path d="M72.1873 61.4217H79.5147V57.6941H72.1873C72.401 58.9255 72.401 60.1845 72.1873 61.4159V61.4217Z" fill="#18578C"/>
<path d="M49.42 61.4217C49.2063 60.1903 49.2063 58.9313 49.42 57.6999H42.0925V61.4217" fill="#18578C"/>
<path d="M69.2636 59.997C69.2636 64.6299 65.5078 68.3857 60.8748 68.3857C56.2419 68.3857 52.4861 64.6299 52.4861 59.997C52.4861 55.364 56.2419 51.6082 60.8748 51.6082C65.5071 51.6098 69.262 55.3647 69.2636 59.997Z" fill="#18568B"/>
</svg>
