<svg width="120" height="120" viewBox="0 0 120 120" fill="none" xmlns="http://www.w3.org/2000/svg">
<circle cx="60" cy="60" r="60" fill="#EDF0F4"/>
<path d="M68.9946 23.1453C65.2414 22.2469 61.2725 22.0578 59.124 22.0105C58.134 21.9869 57.5429 22.0105 57.5429 22.0105H35.4139C28.0465 22.0105 22 28.0481 22 35.4629V58.6942C22 58.907 22 59.0961 22.0236 59.3118C22.0236 59.5246 22 59.7137 22 59.9265C22 80.8616 38.91 97.8189 59.786 97.8189C80.662 97.8189 97.572 80.8616 97.572 59.9265C97.5956 42.1654 85.4081 27.2679 68.9946 23.1453Z" fill="#4C66FF"/>
<path fill-rule="evenodd" clip-rule="evenodd" d="M46.041 38.1847C46.041 35.9121 44.1999 34.065 41.9332 34.065H41.9303C39.6636 34.065 37.8224 35.9091 37.8224 38.1847V51.0933C37.8232 52.1947 38.2619 53.2507 39.0419 54.0284C39.8219 54.8061 40.879 55.2418 41.9805 55.2395C43.6954 55.2399 45.2339 54.1853 45.8519 52.5857C48.9938 46.1564 56.1562 42.7451 63.1281 44.3576C70.1 45.97 75.0374 52.1796 75.0374 59.3355C75.0374 66.4914 70.1 72.701 63.1281 74.3134C56.1562 75.9258 48.9938 72.5146 45.8519 66.0853C45.8375 66.0511 45.8231 66.016 45.8085 65.9805C45.7512 65.841 45.6908 65.6941 45.6155 65.5622C44.9062 64.2855 43.5379 63.4315 41.9805 63.4315C39.6872 63.4315 37.8224 65.2785 37.8224 67.5777C37.8404 68.4233 38.1032 69.2456 38.579 69.9449C43.015 78.7646 52.4697 83.8935 62.2818 82.8031C72.0938 81.7126 80.1917 74.6329 82.583 65.0544C84.9743 55.476 81.1542 45.4209 73.006 39.8466C64.8579 34.2723 54.1019 34.3555 46.041 40.0554V38.1847ZM66.0452 59.3325C66.0452 55.8305 63.2111 53.0083 59.7387 53.0083C56.2426 53.0083 53.4321 55.8542 53.4321 59.3325C53.4434 62.8137 56.2575 65.6357 59.7387 65.6568C63.2348 65.6568 66.0452 62.8168 66.0452 59.3325Z" fill="white"/>
</svg>
