<svg width="120" height="120" viewBox="0 0 120 120" fill="none" xmlns="http://www.w3.org/2000/svg">
<circle cx="60" cy="60" r="60" fill="#1B2B57"/>
<path d="M69.4418 65.7948L60.384 71.0648L69.4418 54.1021V65.7948Z" fill="#DF3121"/>
<path d="M59.5605 74.688V53.7727L83.6048 37.7981L70.5946 21L96.1211 39.939L70.5946 63.8186V55.749L59.5605 74.688Z" fill="#EFBF43"/>
<path d="M59.5605 98.5675V79.1344L95.1329 44.3855L59.5605 98.5675Z" fill="#EFBF43"/>
<path d="M49.6792 65.7948L58.737 71.0648L49.6792 54.1021V65.7948Z" fill="#DF3121"/>
<path d="M59.5605 74.688V53.7727L35.5162 37.7981L48.5265 21L23 39.939L48.5265 63.8186V55.749L59.5605 74.688Z" fill="#F8D749"/>
<path d="M59.5604 98.5675V79.1344L23.988 44.3855L59.5604 98.5675Z" fill="#F8D749"/>
<path fill-rule="evenodd" clip-rule="evenodd" d="M63.3871 47.4762C65.4829 46.4035 65.6605 46.0389 64.8472 44.474C64.0281 42.8979 61.3954 39.864 60.3714 39.3159C59.6326 38.9206 59.5522 38.9574 58.1471 40.3336C56.4815 41.9656 54.4124 44.9139 54.4124 45.6558C54.4124 45.9313 54.6518 46.3731 54.944 46.6379C56.9676 48.469 60.7195 48.8417 63.3871 47.4762ZM53.5507 44.1485C53.5599 43.1939 54.5236 41.2248 56.1475 38.8419L57.5786 36.7423L56.5931 35.8774C54.6356 34.1586 53.8186 34.4083 52.6568 37.0797C51.8289 38.9829 51.7597 41.5405 52.4846 43.4251C53.0474 44.8878 53.5403 45.2223 53.5507 44.1485ZM67.1529 43.5698C68.0234 41.6522 67.9246 38.7042 66.9233 36.7267C65.6825 34.2758 65.0985 34.1688 62.9892 36.0045L62.1612 36.7253L63.3506 38.4203C64.6802 40.3162 66.2764 43.5195 66.2767 44.2932C66.277 45.113 66.5573 44.8818 67.1529 43.5698ZM61.1088 34.0996C61.8025 33.7848 62.6961 33.5191 63.094 33.5093C63.8114 33.4913 63.8104 33.4873 62.9491 33.0099C62.3555 32.6805 61.3944 32.5281 59.9106 32.5281C58.4271 32.5281 57.4656 32.6805 56.8721 33.0099C56.0075 33.4893 56.0068 33.4913 56.7275 33.5243C57.2815 33.5498 58.7054 34.0704 59.8068 34.6505C59.8289 34.6624 60.4152 34.4144 61.1088 34.0996Z" fill="#F5BB43"/>
</svg>
