<svg width="120" height="120" viewBox="0 0 120 120" fill="none" xmlns="http://www.w3.org/2000/svg">
<path d="M60 120C93.138 120 120 93.138 120 60C120 26.862 93.138 0 60 0C26.862 0 0 26.862 0 60C0 93.138 26.862 120 60 120Z" fill="#EDF0F4"/>
<path d="M60.5 15C85.5459 15 106 35.2711 106 60.124C106 84.9769 85.5459 105.248 60.5 105.248C35.315 105.248 15 85.1157 15 60.124C15 35.1322 35.315 15 60.5 15Z" fill="#32407B"/>
<path d="M60.5 21.7686C81.8931 21.7686 99.2314 38.8927 99.2314 60.0543C99.2314 81.2159 81.7533 98.4793 60.5 98.4793C39.1068 98.4793 21.7686 81.2159 21.7686 60.0543C21.7686 38.8927 39.1068 21.7686 60.5 21.7686Z" fill="#32407B"/>
<path fill-rule="evenodd" clip-rule="evenodd" d="M21.0165 60.1239C21.0165 81.6956 38.7352 99.2314 60.5 99.2314C82.1252 99.2314 99.9834 81.6956 99.9834 60.1239C99.9834 38.5522 82.2647 21.0165 60.5 21.0165C38.7352 21.0165 21.0165 38.5522 21.0165 60.1239ZM22.8302 60.1239C22.8302 39.5264 39.7118 22.6865 60.5 22.6865C81.2881 22.6865 98.1697 39.5264 98.1697 60.1239C98.1697 80.7214 81.2881 97.5613 60.5 97.5613C39.7118 97.5613 22.8302 80.7214 22.8302 60.1239Z" fill="white"/>
<path fill-rule="evenodd" clip-rule="evenodd" d="M43.6647 75.1653H77.1955C77.7544 75.1653 78.0338 74.7529 78.1735 74.3405V45.4708C78.1735 40.6592 74.1219 36.8099 69.232 36.8099H51.768C46.7383 36.8099 42.8264 40.6592 42.8264 45.4708V74.3405C42.8264 74.7529 43.2456 75.1653 43.6647 75.1653ZM76.3573 73.5156H44.6427V45.6083C44.6427 41.759 47.856 38.5971 51.768 38.5971H69.232C73.1439 38.5971 76.3573 41.759 76.3573 45.6083V73.5156Z" fill="white"/>
<path fill-rule="evenodd" clip-rule="evenodd" d="M55.5096 43.7071H65.5672C66.1183 43.7071 66.3938 43.2989 66.3938 42.8907C66.3938 42.4825 65.9805 42.0743 65.5672 42.0743H55.5096C55.0963 42.0743 54.6829 42.4825 54.6829 42.8907C54.6829 43.2989 55.0963 43.7071 55.5096 43.7071ZM51.7896 70.5118C49.8608 70.5118 48.3453 69.0151 48.3453 67.1102C48.3453 65.2053 49.8608 63.7086 51.7896 63.7086C53.7185 63.7086 55.234 65.2053 55.234 67.1102C55.234 69.0151 53.5807 70.5118 51.7896 70.5118ZM51.7896 65.3414C50.8252 65.3414 49.9986 66.1578 49.9986 67.1102C49.9986 68.0627 50.8252 68.8791 51.7896 68.8791C52.7541 68.8791 53.5807 68.0627 53.5807 67.1102C53.443 66.0217 52.7541 65.3414 51.7896 65.3414ZM65.9805 67.1102C65.9805 69.0151 67.496 70.5118 69.4249 70.5118C71.3538 70.5118 72.8693 69.0151 72.8693 67.1102C72.8693 65.2053 71.3538 63.7086 69.4249 63.7086C67.496 63.7086 65.9805 65.2053 65.9805 67.1102ZM69.4249 65.3414C68.4605 65.3414 67.6338 66.1578 67.6338 67.1102C67.6338 68.0627 68.4605 68.8791 69.4249 68.8791C70.3893 68.8791 71.216 68.0627 71.216 67.1102C71.216 66.0217 70.3893 65.3414 69.4249 65.3414ZM76.5892 83.438C76.3137 83.438 76.0381 83.3019 75.9004 83.1658L70.5271 75.6823C70.2516 75.2741 70.3893 74.8659 70.8027 74.5938C71.216 74.3217 71.6293 74.4577 71.9049 74.8659L77.2781 82.3495C77.5537 82.7577 77.4159 83.1658 77.0026 83.438H76.5892ZM43.9364 83.3019C44.212 83.438 44.3498 83.438 44.4875 83.438C44.7631 83.438 45.0386 83.3019 45.0386 83.0298L50.4119 75.5462C50.6874 75.2741 50.4119 74.7298 50.1363 74.4577C49.8608 74.1856 49.3097 74.3216 49.0341 74.7298L43.6609 82.2134C43.5231 82.4855 43.5231 83.0298 43.9364 83.3019Z" fill="white"/>
<path fill-rule="evenodd" clip-rule="evenodd" d="M77.3498 50.5006H44.4022C43.9903 50.5006 43.5785 50.0862 43.5785 49.6718C43.5785 49.2574 43.9903 48.843 44.4022 48.843H77.3498C77.7617 48.843 78.1735 49.2574 78.1735 49.6718C78.1735 50.0862 77.899 50.5006 77.3498 50.5006ZM46.3241 82.686C46.1868 82.686 46.0496 82.686 45.775 82.5479C45.3632 82.2716 45.3632 81.7191 45.5004 81.4428L49.4816 75.7793C49.7562 75.3649 50.3053 75.2267 50.5799 75.503C50.8544 75.7793 51.129 76.3318 50.8544 76.6081L46.8733 82.2716C46.8733 82.5479 46.5987 82.686 46.3241 82.686ZM44.4022 61.137H77.3498C77.899 61.137 78.1735 60.7226 78.1735 60.3082C78.1735 59.8938 77.7617 59.4794 77.3498 59.4794H44.4022C43.9903 59.4794 43.5785 59.8938 43.5785 60.3082C43.5785 60.7226 43.9903 61.137 44.4022 61.137Z" fill="white"/>
<path fill-rule="evenodd" clip-rule="evenodd" d="M56.1736 60.3192C56.3105 60.5928 56.4474 60.5928 56.7213 60.5928C56.9951 60.5928 57.1321 60.456 57.269 60.3192L64.9368 51.7006C65.3476 51.427 65.2106 50.8798 64.9368 50.6062C64.6629 50.1958 64.1152 50.3326 63.8414 50.6062L56.1736 59.2247C55.7628 59.4983 55.8997 60.0456 56.1736 60.3192ZM51.2443 60.3192C51.3812 60.5928 51.5181 60.5928 51.792 60.5928C51.9289 60.5928 52.2028 60.456 52.2028 60.3192L56.0367 56.0783C56.4474 55.8047 56.3105 55.2575 56.0367 54.9839C55.7628 54.5735 55.2151 54.7103 54.9413 54.9839L51.1074 59.2247C50.8335 59.4983 50.8335 60.0456 51.2443 60.3192ZM72.4677 78.3771H48.5058C48.095 78.3771 47.6842 77.9667 47.6842 77.5563C47.6842 77.1459 48.095 76.7355 48.5058 76.7355H72.4677C72.8785 76.7355 73.2892 77.1459 73.2892 77.5563C73.2892 77.9667 73.0154 78.3771 72.4677 78.3771ZM45.9042 81.9339H75.0693C75.617 81.9339 76.0277 81.5235 75.8908 81.1131C75.8908 80.7027 75.48 80.2923 75.0693 80.2923H45.9042C45.4934 80.2923 45.0826 80.7027 45.0826 81.1131C45.0826 81.5235 45.4934 81.9339 45.9042 81.9339Z" fill="white"/>
<path fill-rule="evenodd" clip-rule="evenodd" d="M26.281 60.124C26.281 78.8486 41.4758 93.967 60.2621 93.967C78.9103 93.967 93.967 78.8486 93.967 60.124C93.967 41.3994 78.7722 26.281 60.124 26.281C41.4758 26.281 26.281 41.5381 26.281 60.124ZM28.0768 60.124C28.0768 42.3703 42.4428 27.9454 60.2621 27.9454C77.9433 27.9454 92.4475 42.3703 92.4475 60.124C92.4475 77.8777 77.9433 92.3025 60.2621 92.3025C42.5809 92.3025 28.0768 77.8777 28.0768 60.124Z" fill="white"/>
</svg>
