<svg width="120" height="120" viewBox="0 0 120 120" fill="none" xmlns="http://www.w3.org/2000/svg">
<path d="M60 120C93.138 120 120 93.138 120 60C120 26.862 93.138 0 60 0C26.862 0 0 26.862 0 60C0 93.138 26.862 120 60 120Z" fill="#070A0E"/>
<path fill-rule="evenodd" clip-rule="evenodd" d="M34.662 80.1179C32.868 79.0199 31.77 77.0699 31.77 74.9699V63.2459C31.77 61.8539 32.904 60.7259 34.296 60.7319C34.74 60.7319 35.178 60.8519 35.562 61.0739L62.016 76.4999C63.564 77.3999 64.518 79.0559 64.518 80.8499V92.9939C64.524 94.6619 63.174 96.0179 61.506 96.0179C60.948 96.0179 60.396 95.8619 59.922 95.5739L34.662 80.1179ZM74.094 57.8639C75.642 58.7639 76.59 60.4259 76.596 62.2139V86.8619C76.596 87.5879 76.206 88.2599 75.57 88.6139L69.78 91.8719C69.708 91.9139 69.63 91.9439 69.546 91.9679V78.2819C69.546 76.5119 68.616 74.8679 67.092 73.9559L43.86 60.0599V44.6099C43.86 43.2179 44.994 42.0899 46.386 42.0959C46.83 42.0959 47.268 42.2159 47.652 42.4379L74.094 57.8639ZM85.674 39.6599C87.228 40.5599 88.182 42.2219 88.182 44.0159V80.0159C88.176 80.7539 87.768 81.4319 87.12 81.7859L81.63 84.7499V59.6879C81.63 57.9179 80.7 56.2799 79.188 55.3679L55.44 41.1239V26.4719C55.44 26.0279 55.56 25.5899 55.776 25.2059C56.478 24.0059 58.02 23.5979 59.22 24.2939L85.674 39.6599Z" fill="#00D395"/>
</svg>
