<svg width="120" height="120" viewBox="0 0 120 120" fill="none" xmlns="http://www.w3.org/2000/svg">
<circle cx="60" cy="60" r="60" fill="#0648B3"/>
<path fill-rule="evenodd" clip-rule="evenodd" d="M74.2429 12.3982C70.1008 11.0974 65.7253 10.3253 61.196 10.1539L60.8919 12.0582C65.302 12.2055 69.695 12.9557 73.937 14.3127L74.2429 12.3982ZM35.1027 16.3602C34.6865 16.0454 34.1682 15.8585 33.606 15.8585H33.6059C32.2349 15.8585 31.1236 16.9698 31.1236 18.3409C31.1236 18.4953 31.1378 18.6464 31.1648 18.7931C18.025 27.7751 9.40015 42.8757 9.40015 59.9939C9.40015 78.7171 19.7183 95.0281 34.9765 103.558L35.2981 101.544C31.747 99.4913 28.4008 96.949 25.3628 93.911C6.63177 75.18 6.63177 44.8073 25.3628 26.0762C27.503 23.936 29.7954 22.0408 32.2049 20.3899C32.6038 20.6631 33.086 20.8231 33.6059 20.8231C34.9771 20.8231 36.0885 19.7117 36.0885 18.3407C36.0885 18.2273 36.0808 18.1159 36.066 18.0066C40.6098 15.4924 45.4751 13.7713 50.4591 12.8442L50.7796 10.8381C45.1792 11.8 39.899 13.6972 35.1027 16.3602ZM26.2518 86.9664C27.6227 86.9664 28.734 88.0777 28.734 89.4486C28.734 89.8091 28.6571 90.1515 28.519 90.4605C28.5417 90.4834 28.5641 90.5066 28.5864 90.5297C28.6122 90.5565 28.6381 90.5833 28.6645 90.6097C30.9639 92.909 33.4584 94.8926 36.0931 96.5666L35.766 98.6154C32.6102 96.6901 29.7099 94.3877 27.1252 91.7729C26.8537 91.875 26.5593 91.931 26.2519 91.931C24.8807 91.931 23.7694 90.8197 23.7694 89.4486C23.7694 89.0417 23.8675 88.6576 24.041 88.3187C17.8028 80.5683 14.0694 70.7173 14.0694 59.9939C14.0694 38.2062 29.481 20.0203 49.9972 15.7383L49.6722 17.7732C41.9733 19.5169 34.6584 23.384 28.6645 29.3777C12.8873 45.1548 11.8346 70.081 25.5018 87.0816C25.7384 87.0069 25.9903 86.9662 26.2518 86.9662V86.9664ZM82.3845 96.6214C81.9712 96.314 81.4589 96.1319 80.9041 96.1319H80.904C79.5332 96.1319 78.4218 97.2433 78.4218 98.6144C78.4218 98.689 78.4253 98.763 78.4317 98.8362C75.4725 100.295 72.3813 101.395 69.2228 102.137L68.897 104.176C72.5565 103.383 76.05 102.146 79.3201 100.526C79.75 100.882 80.302 101.096 80.904 101.096C82.2752 101.096 83.3865 99.9852 83.3865 98.6142C83.3865 98.4935 83.3777 98.3747 83.3611 98.2586C96.0559 90.2542 104.491 76.111 104.491 59.9938C104.491 51.7772 102.298 44.074 98.4673 37.4347C98.7645 37.0254 98.9398 36.5221 98.9398 35.9776C98.9398 34.6065 97.8286 33.4952 96.4576 33.4952C96.284 33.4952 96.1144 33.513 95.9511 33.5469C92.4923 28.7599 88.1191 24.6772 83.0876 21.5546L82.7595 23.6086C85.287 25.2421 87.6823 27.1638 89.8963 29.3778C91.5518 31.0333 93.0437 32.7903 94.3739 34.6278C94.1216 35.0163 93.9751 35.4799 93.9751 35.9777C93.9751 37.3486 95.0864 38.4601 96.4576 38.4601C96.586 38.4601 96.7121 38.4503 96.8353 38.4315C106.348 54.9782 104.037 76.4689 89.8963 90.6097C87.5728 92.9332 85.0506 94.9369 82.3845 96.6214ZM67.5262 80.2997C67.4232 81.5759 66.3552 82.5797 65.0522 82.5797C64.2354 82.5797 63.511 82.1852 63.0586 81.5765C50.6425 83.6763 37.4131 74.5357 37.4131 59.994C37.4131 47.9175 47.2039 38.1266 59.2805 38.1266C78.6985 38.1266 88.4852 61.7145 74.7429 75.4562C72.544 77.6551 70.0924 79.2486 67.5263 80.2998L67.5262 80.2997ZM66.9293 78.4725C66.4742 77.9471 65.8021 77.6148 65.0522 77.6148L65.0524 77.6147C63.8142 77.6147 62.7878 78.5212 62.6006 79.7066C51.309 81.5384 39.3275 73.2154 39.3275 59.9939C39.3275 42.2721 60.8527 33.3476 73.3897 45.8846C81.1815 53.676 81.1815 66.3115 73.3897 74.1029C71.4188 76.0737 69.2257 77.5133 66.9293 78.4725ZM64.8388 65.5522C69.78 60.611 66.2595 52.1328 59.2805 52.1328C54.9393 52.1328 51.4194 55.6527 51.4194 59.9939C51.4194 66.9726 59.8976 70.4934 64.8388 65.5522ZM29.541 39.2054C29.7016 39.2054 29.8585 39.2208 30.0106 39.2499C34.4682 32.9723 40.8944 28.1903 48.3897 25.8049L48.0492 27.9367C43.3811 29.568 38.9978 32.2496 35.267 35.9802C33.9058 37.3415 32.6866 38.7907 31.6048 40.3078C31.8692 40.7024 32.0236 41.1771 32.0236 41.6878C32.0236 43.0586 30.9123 44.17 29.5412 44.17C29.4369 44.17 29.3341 44.1636 29.233 44.151C22.4671 56.9739 24.4784 73.218 35.267 84.0068C36.063 84.8026 36.8893 85.5495 37.7409 86.2499L37.3949 88.4169C28.8883 81.8574 23.4068 71.5663 23.4068 59.9938C23.4068 53.926 24.9142 48.211 27.5736 43.2013C27.2508 42.7824 27.0589 42.2577 27.0589 41.6879C27.0589 40.3167 28.1702 39.2053 29.5412 39.2053L29.541 39.2054ZM22.3721 71.4086C23.6633 71.4966 24.6832 72.5715 24.6832 73.8851C24.6832 74.5714 24.4046 75.1927 23.9545 75.642C25.8273 79.8746 28.4969 83.8398 31.9657 87.3085C33.5189 88.8617 35.1732 90.2525 36.9047 91.4859L36.5698 93.5825C30.2959 89.3322 25.2769 83.3699 22.1814 76.3671C20.8193 76.3565 19.7187 75.2494 19.7187 73.8851C19.7187 73.1458 20.0418 72.4823 20.5545 72.0275C19.374 68.2257 18.7379 64.1842 18.7379 59.994C18.7379 41.0817 31.6873 25.195 49.2027 20.7143L48.8712 22.7897C42.6799 24.5154 36.8343 27.8106 31.9657 32.6791C21.4854 43.1593 18.2893 58.1652 22.3721 71.4086ZM108.882 54.7058C109.879 55.0285 110.599 55.9639 110.599 57.0678C110.599 58.0684 110.007 58.9306 109.154 59.3236C109.157 59.5467 109.16 59.7698 109.16 59.9939C109.16 84.5282 91.4472 104.925 68.1118 109.094L68.433 107.083C77.5065 105.329 86.1712 100.938 93.1976 93.9113C102.717 84.3923 107.395 71.8667 107.239 59.3903C106.301 59.0354 105.635 58.1297 105.635 57.0678C105.635 56.1109 106.176 55.2806 106.969 54.8662C105.846 44.351 101.257 34.1359 93.1974 26.0764C90.2433 23.1222 86.999 20.635 83.557 18.6128L83.8794 16.5942C97.526 24.3454 107.158 38.3464 108.882 54.7057L108.882 54.7058ZM86.0038 68.1801C86.0038 67.3976 85.6415 66.6999 85.0758 66.2449H85.0759C85.56 64.2401 85.8168 62.1469 85.8168 59.9937C85.8168 57.6857 85.5215 55.4465 84.9676 53.3114L83.3352 54.7249C84.1241 58.3446 84.0893 62.1078 83.2308 65.7148C81.9966 65.8587 81.039 66.9074 81.039 68.1801C81.039 68.8814 81.3299 69.5147 81.7975 69.9661C81.2228 71.2643 80.5308 72.5232 79.7207 73.7262L80.8781 75.4133C81.9352 73.9353 82.8443 72.3442 83.5841 70.6617C84.9262 70.6285 86.0038 69.5303 86.0038 68.1801ZM52.1048 48.4311C52.6275 48.4311 53.1123 48.5927 53.5122 48.8685C55.2389 47.9715 57.2003 47.4638 59.2805 47.4638C70.4058 47.4638 76.0152 60.9787 68.1404 68.8535C60.2655 76.7284 46.7505 71.1192 46.7505 59.9939C46.7505 56.8671 47.8962 54.0077 49.7905 51.8126C49.6821 51.5339 49.6224 51.2307 49.6224 50.9136C49.6224 49.5424 50.7337 48.4313 52.1048 48.4313V48.4311ZM54.5871 50.9135C54.5871 50.7753 54.5756 50.6401 54.5541 50.5081L54.5542 50.5083C58.3612 48.6238 63.2477 48.9479 66.787 52.4872C70.9323 56.6326 70.9323 63.3552 66.787 67.5004C60.1179 74.1696 48.6649 69.4233 48.6649 59.9939C48.6649 57.2861 49.6101 54.9659 51.1142 53.1901C51.4176 53.3223 51.7526 53.3957 52.1048 53.3957C53.4759 53.3957 54.5871 52.2846 54.5871 50.9135ZM59.2805 42.7951C65.836 42.7951 70.9942 46.2145 73.8934 50.9715C73.9763 50.963 74.0606 50.9586 74.1459 50.9586C75.517 50.9586 76.6284 52.0699 76.6284 53.441C76.6284 54.1784 76.3065 54.8407 75.7961 55.2953C77.4145 60.8896 76.2941 67.3023 71.4416 72.1548C60.6337 82.9624 42.082 75.2661 42.082 59.9938C42.082 50.4952 49.782 42.7951 59.2805 42.7951ZM90.4853 59.9938C90.4853 56.4837 89.9058 53.1095 88.8371 49.9609L87.2626 51.3243C90.0061 60.2081 88.4286 70.1395 82.5273 77.8172L83.6605 79.4691C87.9304 74.1307 90.4853 67.3612 90.4853 59.9938ZM59.2805 24.1199C63.7599 24.1199 68.0461 24.9431 72 26.443L71.6912 28.3765C67.515 26.7401 63.0807 25.9615 58.6587 26.0418L58.965 24.1243C58.9937 24.124 59.0224 24.1236 59.0511 24.1231L59.0911 24.1223C59.1541 24.1212 59.2171 24.1201 59.2803 24.1201L59.2805 24.1199ZM72.75 21.7455C68.6638 20.3067 64.2776 19.5043 59.7104 19.4567H59.7103L59.4053 21.367C63.8229 21.3816 68.2378 22.1499 72.4425 23.6701L72.75 21.7455ZM60.4545 14.7974C65.0012 14.9135 69.3798 15.7028 73.4974 17.066L73.1907 18.9851C68.965 17.5555 64.5631 16.7955 60.1496 16.7071L60.4545 14.7974ZM74.0139 55.9199C72.704 55.8514 71.6634 54.7679 71.6634 53.4411C71.6634 52.8427 71.8751 52.2937 72.2277 51.865C71.6295 50.9136 70.9164 50.014 70.0882 49.1856C60.4857 39.5834 43.9962 46.4171 43.9962 59.9939C43.9962 73.5704 60.4859 80.4038 70.0882 70.8019C74.1187 66.7712 75.4268 61.0492 74.0139 55.9199ZM44.6248 107.684C48.7733 108.958 53.1531 109.703 57.6848 109.846H57.6849L57.989 107.941C53.578 107.822 49.1804 107.098 44.9305 105.77L44.6248 107.684ZM58.4276 105.194C53.8791 105.11 49.4944 104.354 45.3695 103.021L45.6755 101.105C49.9104 102.503 54.3178 103.228 58.7327 103.284L58.4276 105.194ZM99.8229 59.9939C99.8229 46.1443 92.8778 33.9188 82.2811 26.6059L81.945 28.7084C83.5719 29.8896 85.1282 31.2122 86.5951 32.679C101.68 47.7637 101.68 72.2239 86.5951 87.3085C81.8151 92.0886 76.0933 95.352 70.0271 97.1022L69.6946 99.1837C87.0386 94.5866 99.8229 78.7842 99.8229 59.9939ZM59.1719 100.535C54.6025 100.523 50.2111 99.7549 46.1158 98.3492L46.4226 96.4283C50.6379 97.9124 55.0595 98.6419 59.4779 98.6198L59.1721 100.535L59.1719 100.535ZM95.154 59.9939C95.154 48.551 89.7966 38.3591 81.453 31.791V31.7911L81.1041 33.9752C81.8554 34.6065 82.5869 35.2737 83.2936 35.9806C96.5551 49.242 96.5551 70.7459 83.2936 84.0072C79.6543 87.6466 75.3935 90.2852 70.8535 91.9266L70.5112 94.0719C84.8225 89.3586 95.154 75.8835 95.154 59.9939ZM59.8493 95.8606C59.66 95.8641 59.4708 95.8676 59.2805 95.8676C54.9159 95.8676 50.7334 95.0878 46.8647 93.6598L47.1728 91.7297C51.3621 93.3252 55.8033 94.0608 60.2253 93.9388L59.9185 95.8594H59.9184L59.8493 95.8606ZM53.3337 59.994C53.3337 54.7108 59.7499 52.053 63.4857 55.7888V55.7887C65.8078 58.1108 65.8078 61.8769 63.4857 64.199C59.75 67.9348 53.3337 65.2769 53.3337 59.994Z" fill="white"/>
</svg>
