<svg width="120" height="120" viewBox="0 0 120 120" fill="none" xmlns="http://www.w3.org/2000/svg">
<path d="M60 0C93.132 0 120 26.868 120 60C120 93.132 93.132 120 60 120C26.868 120 0 93.132 0 60C0 26.868 26.868 0 60 0Z" fill="#1E0B49"/>
<path d="M38.952 48C41.604 43.488 45.852 40.812 49.584 40.884L51.096 38.328C53.7 33.9 52.8 28.5 49.08 26.316C45.36 24.132 40.212 25.98 37.596 30.384L36.096 32.94C37.968 36.168 37.68 41.16 35.028 45.696C32.376 50.232 28.128 52.884 24.396 52.812L22.884 55.368C20.28 59.796 21.18 65.196 24.9 67.38C28.608 69.564 33.768 67.728 36.384 63.312L37.884 60.756C36.012 57.528 36.3 52.512 38.952 48Z" fill="#1E90FF"/>
<path d="M35.04 73.908C32.388 69.396 28.14 66.72 24.408 66.792L22.896 64.236C20.292 59.808 21.192 54.408 24.912 52.224C28.632 50.04 33.78 51.864 36.396 56.292L37.896 58.848C36.024 62.076 36.312 67.068 38.964 71.604C41.628 76.14 45.864 78.792 49.596 78.72L51.108 81.276C53.712 85.704 52.812 91.104 49.092 93.288C45.384 95.472 40.224 93.648 37.608 89.22L36.108 86.664C37.968 83.436 37.68 78.42 35.04 73.908Z" fill="url(#paint0_linear_1_7489)"/>
<path d="M65.2441 73.908C62.5921 69.396 58.3441 66.72 54.6121 66.792L53.1001 64.236C50.4961 59.808 51.3961 54.408 55.1161 52.224C58.8361 50.04 63.9841 51.864 66.5881 56.292L68.1001 58.848C66.2281 62.076 66.5161 67.068 69.1681 71.604C71.8321 76.14 76.0681 78.792 79.8001 78.72L81.3121 81.276C83.9161 85.704 83.0161 91.104 79.2961 93.288C75.5881 95.472 70.4281 93.648 67.8121 89.22L66.3121 86.664C68.1961 83.436 67.9201 78.42 65.2441 73.908Z" fill="url(#paint1_linear_1_7489)"/>
<path d="M84.1322 74.3519C86.7842 69.8519 91.0322 67.1639 94.7642 67.2359L96.2762 64.6799C98.8802 60.2519 97.9802 54.8519 94.2602 52.6679C90.5402 50.4839 85.3922 52.3199 82.7762 56.7359L81.2762 59.2919C83.1482 62.5199 82.8602 67.5119 80.2082 72.0479C77.5442 76.5839 73.3082 79.2359 69.5762 79.1639L68.0642 81.7199C65.4602 86.1479 66.3602 91.5479 70.0802 93.7319C73.8002 95.9159 78.9482 94.0799 81.5642 89.6639L83.0642 87.1079C81.1682 83.8679 81.4802 78.8519 84.1322 74.3519Z" fill="url(#paint2_linear_1_7489)"/>
<path d="M44.628 24.6C39.6 24.6 35.532 28.74 35.652 33.792C35.76 38.556 39.648 42.432 44.412 42.552C49.464 42.672 53.604 38.604 53.604 33.576C53.604 28.62 49.584 24.6 44.628 24.6Z" fill="#1E90FF"/>
<path d="M44.6282 77.28C39.6002 77.28 35.5442 81.42 35.6642 86.484C35.7842 91.344 39.8162 95.256 44.6762 95.232C49.6082 95.208 53.6042 91.212 53.6162 86.268C53.6162 81.312 49.5962 77.28 44.6282 77.28Z" fill="#4B0082"/>
<path d="M74.7122 24.6C69.6842 24.6 65.6162 28.74 65.7362 33.792C65.8442 38.556 69.7322 42.432 74.4962 42.552C79.5482 42.672 83.6882 38.604 83.6882 33.576C83.6882 28.62 79.6682 24.6 74.7122 24.6Z" fill="#1E90FF"/>
<path d="M74.7122 77.28C69.6842 77.28 65.6162 81.42 65.7362 86.472C65.8442 91.332 69.8882 95.256 74.7482 95.232C79.6802 95.208 83.6762 91.212 83.6882 86.268C83.6882 81.312 79.6802 77.292 74.7122 77.28Z" fill="#4B0082"/>
<path d="M59.46 50.9399C54.432 50.9399 50.364 55.0799 50.484 60.1319C50.592 64.8959 54.48 68.7719 59.244 68.8919C64.296 69.0119 68.436 64.9439 68.436 59.9159C68.436 54.9599 64.416 50.9399 59.46 50.9399Z" fill="#8B008B"/>
<path d="M89.8802 50.9399C84.8522 50.9399 80.7842 55.0679 80.9042 60.1319C81.0122 64.8959 84.9002 68.7839 89.6522 68.8919C94.7042 69.0119 98.8442 64.9559 98.8442 59.9279C98.8442 54.9599 94.8362 50.9519 89.8802 50.9399Z" fill="#8B008B"/>
<path d="M29.0401 50.9399C24.0121 50.9399 19.9441 55.0799 20.0641 60.1319C20.1721 64.8959 24.0601 68.7719 28.8241 68.8919C33.8761 69.0119 38.0161 64.9439 38.0161 59.9159C38.0161 54.9599 33.9961 50.9399 29.0401 50.9399Z" fill="#1E90FF"/>
<defs>
<linearGradient id="paint0_linear_1_7489" x1="29.5987" y1="71.7812" x2="38.9528" y2="80.2374" gradientUnits="userSpaceOnUse">
<stop offset="0.21" stop-color="#1E90FF"/>
<stop offset="1" stop-color="#4B0082"/>
</linearGradient>
<linearGradient id="paint1_linear_1_7489" x1="60.0605" y1="71.4828" x2="68.8296" y2="79.437" gradientUnits="userSpaceOnUse">
<stop stop-color="#8B008B"/>
<stop offset="1" stop-color="#4B0082"/>
</linearGradient>
<linearGradient id="paint2_linear_1_7489" x1="81.9892" y1="63.3357" x2="72.6439" y2="70.4219" gradientUnits="userSpaceOnUse">
<stop stop-color="#8B008B"/>
<stop offset="1" stop-color="#4B0082"/>
</linearGradient>
</defs>
</svg>
