<svg width="120" height="120" viewBox="0 0 120 120" fill="none" xmlns="http://www.w3.org/2000/svg">
<path d="M60 0C93.1401 0 120 26.8653 120 60C120 93.1401 93.1401 120 60 120C26.8653 120 0 93.1374 0 60C0 26.8653 26.8653 0 60 0Z" fill="#F5AC37"/>
<path fill-rule="evenodd" clip-rule="evenodd" d="M31.4256 93.0753V93.2994L31.4148 93.3075V93.3453H57.4404C60.3861 93.3858 63.321 93.1509 66.2155 92.6325C69.2638 92.0358 72.2338 91.0962 75.0661 89.8218C76.2943 89.253 77.4725 88.5655 78.6613 87.872C78.9622 87.6964 79.2638 87.5204 79.5671 87.3459C80.9657 86.3496 82.3049 85.2696 83.5793 84.122C87.0678 80.9684 89.7678 77.0345 91.4553 72.6469C91.5687 72.1555 92.0493 71.8396 92.5434 71.9341H99.631C100.195 71.9341 100.382 71.7451 100.382 71.1079V66.5692C100.419 66.1345 100.419 65.6944 100.382 65.2597C100.382 65.1461 100.411 65.0328 100.44 64.9197C100.498 64.6941 100.556 64.4692 100.382 64.2444H94.4604C93.7449 64.2444 93.7449 64.1688 93.7449 63.5316C93.9501 61.2474 93.9501 58.9551 93.7449 56.6709C93.7071 55.9959 93.8583 55.9959 94.3821 55.9959H99.5581C100.16 55.9959 100.384 55.8447 100.384 55.2453V49.0946C100.366 48.6872 100.356 48.4806 100.248 48.376C100.137 48.2684 99.9218 48.2684 99.4852 48.2684H92.7729C92.2491 48.3575 91.7469 48.0038 91.6524 47.48C90.8829 45.4685 89.9028 43.5433 88.7229 41.7424C87.5349 39.9658 86.1957 38.2972 84.7106 36.7555C82.7369 34.7845 80.5202 33.0726 78.1118 31.6551C74.4802 29.5464 70.5085 28.0695 66.3748 27.3054C64.3686 26.9355 62.3409 26.7114 60.2997 26.6304H32.1762C31.4256 26.6304 31.4256 26.7816 31.4256 27.381V47.5934C31.4256 48.3062 31.2744 48.3062 30.7128 48.3062H22.6505C22.0511 48.3062 22.0511 48.4169 22.0511 48.83V55.4289C22.0511 56.0283 22.2374 56.0283 22.6883 56.0283H30.8262C31.4256 56.0283 31.4256 56.139 31.4256 56.5899V63.6396C31.4256 64.2768 31.2366 64.2768 30.7506 64.2768H22.0511V71.4022C22.0511 72.0016 22.2374 72.0016 22.6883 72.0016H30.8262C31.4256 72.0016 31.4256 72.0745 31.4256 72.5632V81.3761V84.338V93.0753ZM83.2148 47.6636C83.2796 47.831 83.2796 48.0173 83.2148 48.1874H83.3957C83.3201 48.4115 82.9448 48.4871 82.9448 48.4871H39.6715C38.9587 48.4871 38.9587 48.3359 38.9587 47.7743V34.4631C38.9587 33.9744 39.0343 33.7503 39.5959 33.7503H59.7327C61.8765 33.7314 64.0149 33.9555 66.1075 34.4253C70.2547 35.4082 74.113 37.363 77.3585 40.1251C78.0065 40.6084 78.5843 41.1781 79.0838 41.8126C80.1422 42.8629 81.071 44.032 81.8594 45.3011C82.3832 46.0436 82.8341 46.8347 83.2148 47.6636ZM85.0103 64.2363H62.2113H39.8605C39.4045 64.2363 39.1798 64.2363 39.069 64.124C38.9614 64.0148 38.9614 63.7995 38.9614 63.375V56.7006C38.9614 56.1741 39.1126 55.9878 39.6742 55.9878H85.0481C85.5369 55.9878 85.761 56.1741 85.761 56.625C85.9473 58.947 85.9473 61.2798 85.761 63.5991C85.7259 64.2363 85.4964 64.2363 85.0103 64.2363ZM83.2148 72.0367C82.5776 71.9665 81.935 71.9665 81.2978 72.0367H39.712C39.1504 72.0367 38.9614 72.0367 38.9614 72.7873V85.8015C38.9614 86.4009 38.9614 86.5521 39.712 86.5521H58.9119C59.8299 86.6223 60.7479 86.5575 61.647 86.3658C64.4334 86.166 67.174 85.5612 69.7876 84.5648C70.738 84.2354 71.656 83.8061 72.5227 83.2904H72.7846C77.2856 80.9495 80.9414 77.2721 83.2472 72.7576C83.2472 72.7576 83.5091 72.1906 83.2148 72.0421V72.0367Z" fill="#FEFEFD"/>
</svg>
