<svg width="120" height="120" viewBox="0 0 120 120" fill="none" xmlns="http://www.w3.org/2000/svg">
<g clip-path="url(#clip0_1_688)">
<circle cx="60" cy="60" r="60" fill="#EDF0F4"/>
<path fill-rule="evenodd" clip-rule="evenodd" d="M80.8821 38.8749C80.6089 38.6018 80.4451 38.3287 80.4451 37.9463C80.4451 37.5639 80.6089 37.2908 80.8821 37.0176C81.4283 36.526 82.3023 36.526 82.9032 37.0176C83.1764 37.2908 83.3402 37.5639 83.3402 37.9463C83.3402 38.3287 83.1764 38.6018 82.9032 38.8749C82.6301 39.0934 82.2477 39.2573 81.92 39.2573C81.5376 39.3119 81.1552 39.2027 80.8821 38.8749Z" fill="#0D022B"/>
<path fill-rule="evenodd" clip-rule="evenodd" d="M77.386 42.644C77.1675 42.3708 77.0037 42.0977 77.0037 41.7153C77.0037 41.3329 77.1675 41.0598 77.386 40.7867C77.8777 40.2951 78.7517 40.2951 79.2433 40.7867C79.4618 41.0598 79.6257 41.3329 79.6257 41.7153C79.6257 42.0977 79.4618 42.3708 79.2433 42.644C78.9702 42.8625 78.6971 43.0263 78.3147 43.0263C77.9323 43.0263 77.6592 42.8625 77.386 42.644Z" fill="#0D022B"/>
<path fill-rule="evenodd" clip-rule="evenodd" d="M73.5622 46.2494C73.3437 46.0309 73.1798 45.7032 73.1798 45.3208C73.1798 44.9384 73.3437 44.6653 73.5622 44.3922C74.0538 43.9005 74.9278 43.9005 75.4195 44.3922C75.638 44.6107 75.8018 44.9384 75.8018 45.3208C75.8018 45.7032 75.638 45.9763 75.4195 46.2494C75.1463 46.5226 74.8732 46.6318 74.4908 46.6318C74.1084 46.6318 73.7807 46.4679 73.5622 46.2494Z" fill="#0D022B"/>
<path fill-rule="evenodd" clip-rule="evenodd" d="M69.9023 49.9093C69.6292 49.6908 69.4653 49.3631 69.4653 48.9807C69.4653 48.5983 69.6292 48.3252 69.9023 48.0521C70.4486 47.5604 71.3226 47.5604 71.9235 48.0521C72.1966 48.2706 72.3605 48.5983 72.3605 48.9807C72.3605 49.3631 72.1966 49.6908 71.9235 49.9093C71.6504 50.1825 71.268 50.2917 70.9402 50.2917C70.5578 50.2917 70.2301 50.2371 69.9023 49.9093Z" fill="#0D022B"/>
<path fill-rule="evenodd" clip-rule="evenodd" d="M66.4062 53.5693C66.1331 53.3508 66.0238 53.023 66.0238 52.6406C66.0238 52.2582 66.1877 51.9851 66.4062 51.712C66.8978 51.2204 67.7718 51.2204 68.2635 51.712C68.5366 51.9305 68.6458 52.2582 68.6458 52.6406C68.6458 53.023 68.482 53.3508 68.2635 53.5693C68.045 53.8424 67.7172 53.9516 67.3348 53.9516C67.0071 54.0063 66.6247 53.897 66.4062 53.5693Z" fill="#0D022B"/>
<path fill-rule="evenodd" clip-rule="evenodd" d="M62.2001 56.3005C62.2001 55.9182 62.364 55.645 62.5825 55.3719C63.0741 54.8803 63.9481 54.8803 64.4397 55.3719C64.7129 55.645 64.8221 55.9182 64.8221 56.3005C64.8221 56.6829 64.6582 56.956 64.4397 57.2292C64.2212 57.4477 63.8935 57.6115 63.5111 57.6115C63.1287 57.6115 62.8556 57.4477 62.5825 57.2292C62.3093 57.0107 62.2001 56.6829 62.2001 56.3005Z" fill="#0D022B"/>
<path fill-rule="evenodd" clip-rule="evenodd" d="M55.3719 64.3852C55.1534 64.1667 54.9895 63.8389 54.9895 63.4565C54.9895 63.0742 55.1534 62.801 55.3719 62.5279C55.8635 62.0363 56.7375 62.0363 57.2292 62.5279C57.5023 62.801 57.6115 63.0742 57.6115 63.4565C57.6115 63.8389 57.4477 64.112 57.2292 64.3852C57.0107 64.6583 56.6829 64.7676 56.3005 64.7676C55.9728 64.8222 55.645 64.7129 55.3719 64.3852Z" fill="#0D022B"/>
<path fill-rule="evenodd" clip-rule="evenodd" d="M51.6027 68.0451C51.3295 67.8266 51.1656 67.4988 51.1656 67.1165C51.1656 66.7341 51.3295 66.4609 51.6027 66.1878C52.1489 65.6962 53.0229 65.6962 53.6238 66.1878C53.8969 66.4609 54.0608 66.7341 54.0608 67.1165C54.0608 67.4988 53.8969 67.772 53.6238 68.0451C53.3507 68.3182 52.9683 68.4275 52.6405 68.4275C52.2035 68.4821 51.8758 68.3182 51.6027 68.0451Z" fill="#0D022B"/>
<path fill-rule="evenodd" clip-rule="evenodd" d="M48.0521 71.7594C47.8336 71.5409 47.6697 71.2132 47.6697 70.8308C47.6697 70.4484 47.8336 70.1207 48.0521 69.9022C48.5437 69.4105 49.4177 69.4105 49.9093 69.9022C50.1278 70.1207 50.2917 70.4484 50.2917 70.8308C50.2917 71.2132 50.1278 71.4863 49.9093 71.7594C49.6362 72.0326 49.3631 72.1418 48.9807 72.1418C48.5983 72.1418 48.3798 71.9779 48.0521 71.7594Z" fill="#0D022B"/>
<path fill-rule="evenodd" clip-rule="evenodd" d="M44.3921 75.4194C44.119 75.2009 44.0098 74.8731 44.0098 74.4907C44.0098 74.1083 44.1736 73.8352 44.3921 73.5621C44.8838 73.0705 45.7578 73.0705 46.2494 73.5621C46.4679 73.8352 46.6318 74.1083 46.6318 74.4907C46.6318 74.8731 46.4679 75.2009 46.2494 75.4194C45.9763 75.6925 45.7032 75.8017 45.3208 75.8017C44.993 75.8017 44.6106 75.6925 44.3921 75.4194Z" fill="#0D022B"/>
<path fill-rule="evenodd" clip-rule="evenodd" d="M40.6229 79.0793C40.3498 78.8608 40.1859 78.533 40.1859 78.1506C40.1859 77.7683 40.3498 77.4951 40.6229 77.222C41.1692 76.7304 42.0432 76.7304 42.5348 77.222C42.8079 77.4951 42.9718 77.7683 42.9718 78.1506C42.9718 78.533 42.8079 78.8608 42.5348 79.0793C42.2617 79.2978 41.8793 79.4616 41.5516 79.4616C41.1692 79.4616 40.8414 79.3524 40.6229 79.0793Z" fill="#0D022B"/>
<path fill-rule="evenodd" clip-rule="evenodd" d="M37.0176 82.7394C36.7445 82.4663 36.6353 82.1932 36.6353 81.8108C36.6353 81.4284 36.7991 81.1553 37.0176 80.8822C37.5093 80.3905 38.3833 80.3905 38.8749 80.8822C39.148 81.1553 39.2573 81.4284 39.2573 81.8108C39.2573 82.1932 39.0934 82.4663 38.8749 82.7394C38.6564 82.9579 38.3286 83.1218 37.9463 83.1218C37.6731 83.1764 37.3454 83.0126 37.0176 82.7394Z" fill="#0D022B"/>
<path fill-rule="evenodd" clip-rule="evenodd" d="M38.8749 38.8749C39.0934 38.6018 39.2573 38.3287 39.2573 37.9463C39.2573 37.5639 39.0934 37.2908 38.8749 37.0176C38.3833 36.526 37.5093 36.526 37.0176 37.0176C36.7445 37.2908 36.6353 37.5639 36.6353 37.9463C36.6353 38.3287 36.7991 38.6018 37.0176 38.8749C37.2361 39.0934 37.5639 39.2573 37.9463 39.2573C38.3286 39.3119 38.6564 39.2027 38.8749 38.8749Z" fill="#0D022B"/>
<path fill-rule="evenodd" clip-rule="evenodd" d="M42.5348 42.644C42.8079 42.3708 42.9718 42.0977 42.9718 41.7153C42.9718 41.3329 42.8079 41.0598 42.5348 40.7867C41.9886 40.2951 41.1145 40.2951 40.5137 40.7867C40.2405 41.0598 40.0767 41.3329 40.0767 41.7153C40.0767 42.0977 40.2405 42.3708 40.5137 42.644C40.7868 42.8625 41.1692 43.0263 41.4969 43.0263C41.8793 42.9717 42.2617 42.8625 42.5348 42.644Z" fill="#0D022B"/>
<path fill-rule="evenodd" clip-rule="evenodd" d="M46.2494 46.2494C46.4679 46.0309 46.6318 45.7032 46.6318 45.3208C46.6318 44.9384 46.4679 44.6653 46.2494 44.3922C45.7578 43.9005 44.8838 43.9005 44.3921 44.3922C44.1736 44.6107 44.0098 44.9384 44.0098 45.3208C44.0098 45.7032 44.1736 45.9763 44.3921 46.2494C44.6653 46.5226 44.9384 46.6318 45.3208 46.6318C45.6485 46.6318 45.9763 46.4679 46.2494 46.2494Z" fill="#0D022B"/>
<path fill-rule="evenodd" clip-rule="evenodd" d="M49.9093 49.9093C50.1278 49.6908 50.2917 49.3631 50.2917 48.9807C50.2917 48.5983 50.1278 48.3252 49.9093 48.0521C49.4177 47.5604 48.5437 47.5604 48.0521 48.0521C47.8336 48.2706 47.6697 48.5983 47.6697 48.9807C47.6697 49.3631 47.8336 49.6908 48.0521 49.9093C48.3252 50.1825 48.5983 50.2917 48.9807 50.2917C49.3084 50.2917 49.6362 50.2371 49.9093 49.9093Z" fill="#0D022B"/>
<path fill-rule="evenodd" clip-rule="evenodd" d="M53.5146 53.5693C53.7877 53.3508 53.9516 53.023 53.9516 52.6406C53.9516 52.2582 53.7877 51.9851 53.5146 51.712C53.0229 51.2204 52.0943 51.2204 51.6027 51.712C51.3295 51.9305 51.1656 52.2582 51.1656 52.6406C51.1656 53.023 51.3295 53.3508 51.6027 53.5693C51.8758 53.8424 52.2582 53.9516 52.5859 53.9516C52.9137 54.0063 53.296 53.897 53.5146 53.5693Z" fill="#0D022B"/>
<path fill-rule="evenodd" clip-rule="evenodd" d="M57.6115 56.3005C57.6115 55.9182 57.4477 55.645 57.2292 55.3719C56.7375 54.8803 55.8635 54.8803 55.3719 55.3719C55.0988 55.645 54.9895 55.9182 54.9895 56.3005C54.9895 56.6829 55.1534 56.956 55.3719 57.2292C55.5904 57.4477 55.9181 57.6115 56.3005 57.6115C56.6829 57.6115 56.956 57.4477 57.2292 57.2292C57.5023 57.0107 57.6115 56.6829 57.6115 56.3005Z" fill="#0D022B"/>
<path fill-rule="evenodd" clip-rule="evenodd" d="M60.8891 60.9438C61.1622 60.6706 61.2714 60.3975 61.2714 60.0151C61.2714 59.6328 61.1076 59.3596 60.8891 59.0865C60.3974 58.5949 59.5234 58.5949 59.0318 59.0865C58.7587 59.3596 58.6494 59.6328 58.6494 60.0151C58.6494 60.3975 58.8133 60.6706 59.0318 60.9438C59.2503 61.1623 59.578 61.3261 59.9604 61.3261C60.3428 61.3261 60.6706 61.1623 60.8891 60.9438Z" fill="#0D022B"/>
<path fill-rule="evenodd" clip-rule="evenodd" d="M64.549 64.3852C64.8221 64.1667 64.986 63.8389 64.986 63.4565C64.986 63.0742 64.8221 62.801 64.549 62.5279C64.0027 62.0363 63.1287 62.0363 62.6371 62.5279C62.364 62.801 62.2001 63.0742 62.2001 63.4565C62.2001 63.8389 62.364 64.112 62.6371 64.3852C62.9102 64.6583 63.2926 64.7676 63.6203 64.7676C63.8935 64.8222 64.2758 64.7129 64.549 64.3852Z" fill="#0D022B"/>
<path fill-rule="evenodd" clip-rule="evenodd" d="M68.2635 68.0451C68.482 67.8266 68.6458 67.4988 68.6458 67.1165C68.6458 66.7341 68.482 66.4609 68.2635 66.1878C67.7718 65.6962 66.8978 65.6962 66.4062 66.1878C66.1877 66.4609 66.0238 66.7341 66.0238 67.1165C66.0238 67.4988 66.1877 67.772 66.4062 68.0451C66.6793 68.3182 66.9524 68.4275 67.3348 68.4275C67.6079 68.4821 67.9903 68.3182 68.2635 68.0451Z" fill="#0D022B"/>
<path fill-rule="evenodd" clip-rule="evenodd" d="M71.9235 71.7594C72.142 71.5409 72.3059 71.2132 72.3059 70.8308C72.3059 70.4484 72.142 70.1207 71.9235 69.9022C71.4319 69.4105 70.5578 69.4105 70.0662 69.9022C69.8477 70.1207 69.6838 70.4484 69.6838 70.8308C69.6838 71.2132 69.8477 71.4863 70.0662 71.7594C70.3393 72.0326 70.6125 72.1418 70.9949 72.1418C71.3772 72.1418 71.6504 71.9779 71.9235 71.7594Z" fill="#0D022B"/>
<path fill-rule="evenodd" clip-rule="evenodd" d="M75.3649 75.4194C75.638 75.2009 75.7473 74.8731 75.7473 74.4907C75.7473 74.1083 75.5834 73.8352 75.3649 73.5621C74.8733 73.0705 73.9993 73.0705 73.5076 73.5621C73.2891 73.8352 73.1252 74.1083 73.1252 74.4907C73.1252 74.8731 73.2891 75.2009 73.5076 75.4194C73.7808 75.6925 74.0539 75.8017 74.4363 75.8017C74.764 75.8017 75.1464 75.6925 75.3649 75.4194Z" fill="#0D022B"/>
<path fill-rule="evenodd" clip-rule="evenodd" d="M79.2433 79.0793C79.5164 78.8608 79.6257 78.533 79.6257 78.1506C79.6257 77.7683 79.4618 77.4951 79.2433 77.222C78.7517 76.7304 77.8777 76.7304 77.386 77.222C77.1129 77.4951 77.0037 77.7683 77.0037 78.1506C77.0037 78.533 77.1675 78.8608 77.386 79.0793C77.6045 79.2978 77.9323 79.4616 78.3147 79.4616C78.6971 79.4616 79.0248 79.3524 79.2433 79.0793Z" fill="#0D022B"/>
<path fill-rule="evenodd" clip-rule="evenodd" d="M82.9032 82.7394C83.1764 82.4663 83.3402 82.1932 83.3402 81.8108C83.3402 81.4284 83.1764 81.1553 82.9032 80.8822C82.357 80.3905 81.483 80.3905 80.9913 80.8822C80.7182 81.1553 80.5543 81.4284 80.5543 81.8108C80.5543 82.1932 80.7182 82.4663 80.9913 82.7394C81.2645 82.9579 81.6468 83.1218 81.9746 83.1218C82.2477 83.1764 82.5755 83.0126 82.9032 82.7394Z" fill="#0D022B"/>
<path fill-rule="evenodd" clip-rule="evenodd" d="M47.5604 39.9128C51.2749 37.4546 55.3718 36.3075 59.9058 36.2529C64.3304 36.2529 68.4274 37.4546 72.2512 39.9128L80.1173 32.0467C73.9446 27.3489 67.2802 25 59.9058 25C52.5313 25 45.7577 27.3489 39.7489 32.0467L47.5604 39.9128Z" fill="#0D022B"/>
<path fill-rule="evenodd" clip-rule="evenodd" d="M39.6943 72.1966C37.1815 68.3728 35.9798 64.3305 35.9798 59.9605C35.9798 55.5358 37.1815 51.4389 39.6943 47.7243L31.8828 39.9128C27.2943 45.9217 25 52.586 25 60.0151C25 67.3349 27.2943 74.0539 31.9375 80.1719L39.6943 72.1966Z" fill="#0D022B"/>
<path fill-rule="evenodd" clip-rule="evenodd" d="M72.1966 80.0081C68.482 82.5208 64.3851 83.8319 59.9604 83.8865C55.4265 83.8865 51.275 82.6847 47.5604 80.0627L39.6943 87.8741C45.7578 92.6266 52.5314 94.9755 59.9604 94.9209C67.3349 94.8662 73.9992 92.4627 80.0081 87.8741L72.1966 80.0081Z" fill="#0D022B"/>
<path fill-rule="evenodd" clip-rule="evenodd" d="M79.8988 47.615C82.4116 51.4388 83.7226 55.5903 83.6133 60.0696C83.5587 64.4397 82.3023 68.4274 79.8988 72.0873L87.7649 79.8987C92.4081 73.8899 94.8116 67.2256 94.8116 59.9058C94.8662 52.4767 92.5173 45.7031 87.7649 39.6396L79.8988 47.615Z" fill="#0D022B"/>
<path fill-rule="evenodd" clip-rule="evenodd" d="M88.0926 82.4661C91.097 82.4661 93.6098 84.9242 93.6098 87.9833C93.6098 90.9877 91.1517 93.5004 88.0926 93.5004C85.0882 93.5004 82.5754 91.0423 82.5754 87.9833C82.5754 84.9242 85.0336 82.4661 88.0926 82.4661Z" fill="#0D022B"/>
<path fill-rule="evenodd" clip-rule="evenodd" d="M31.8282 82.4661C34.8326 82.4661 37.2907 84.9242 37.2907 87.9833C37.2907 90.9877 34.8326 93.5004 31.8282 93.5004C28.8238 93.5004 26.3656 91.0423 26.3656 87.9833C26.3656 84.9242 28.8238 82.4661 31.8282 82.4661Z" fill="#0D022B"/>
<path fill-rule="evenodd" clip-rule="evenodd" d="M88.2018 26.2017C91.2062 26.2017 93.6644 28.6598 93.6644 31.7189C93.6644 34.7779 91.2062 37.236 88.2018 37.236C85.1974 37.236 82.7393 34.7779 82.7393 31.7189C82.7393 28.6598 85.1974 26.2017 88.2018 26.2017Z" fill="#0D022B"/>
<path fill-rule="evenodd" clip-rule="evenodd" d="M31.719 26.2017C34.7234 26.2017 37.2362 28.6598 37.2362 31.6642C37.2362 34.6686 34.778 37.1268 31.719 37.1268C28.7146 37.1268 26.2018 34.6686 26.2018 31.6642C26.2018 28.6598 28.6599 26.2017 31.719 26.2017Z" fill="#0D022B"/>
</g>
<defs>
<clipPath id="clip0_1_688">
<rect width="120" height="120" fill="white"/>
</clipPath>
</defs>
</svg>
