<svg width="120" height="120" viewBox="0 0 120 120" fill="none" xmlns="http://www.w3.org/2000/svg">
<circle cx="60" cy="60" r="60" fill="url(#paint0_linear_1_3535)"/>
<path fill-rule="evenodd" clip-rule="evenodd" d="M72.1081 28.7504C74.7966 29.1587 77.119 30.8908 78.2986 33.3669C78.4597 33.7047 78.661 34.2236 78.7463 34.52C79.093 35.7216 79.078 35.0932 79.0786 48.2975V60.4507H70.9063H62.7341V48.2975C62.7347 37.913 62.7473 36.0653 62.8224 35.6016C63.3963 32.0657 66.143 29.309 69.6444 28.7554C70.3313 28.6468 71.4117 28.6446 72.1081 28.7504ZM95.7236 38.7899C96.259 38.917 97.1195 39.3492 97.5695 39.7174C98.0905 40.1427 98.5093 40.6771 98.82 41.312C99.3338 42.363 99.2929 41.5118 99.3133 51.5423L99.332 60.4507H94.6131H89.8948V51.7129C89.8948 42.2541 89.8846 42.5691 90.2199 41.6804C90.6321 40.5875 91.4686 39.6805 92.5688 39.134C93.5291 38.6571 94.6491 38.5349 95.7236 38.7899ZM41.3295 39.3931C42.336 39.5978 43.1994 40.075 43.9858 40.8613C44.8895 41.7648 45.3943 42.776 45.5449 43.9844C45.5866 44.3189 45.6084 47.2312 45.6084 52.4722V60.4507H40.2589H34.9095L34.9259 52.0831L34.9424 43.7156L35.1082 43.187C35.7266 41.2155 37.2312 39.8046 39.1487 39.3979C39.7125 39.2784 40.7539 39.2761 41.3295 39.3931ZM16.5588 50.1783C18.396 50.5037 19.8856 51.7139 20.5755 53.4416C20.913 54.2868 20.9247 54.4145 20.9549 57.5814L20.9829 60.5108H15.7493H10.5157V57.654C10.5157 55.2811 10.5319 54.7187 10.611 54.334C11.0372 52.2618 12.6273 50.6568 14.692 50.215C15.1932 50.1077 16.0637 50.0907 16.5588 50.1783ZM34.8519 64.7321C34.8515 69.3699 34.8345 69.6523 34.4946 70.6672C34.1451 71.7104 33.6801 72.4861 32.9351 73.2697C30.4275 75.9071 26.4497 76.1829 23.5985 73.9175C22.4934 73.039 21.6163 71.6893 21.2256 70.2658L21.0634 69.6745L21.0453 65.0927L21.0273 60.5108H27.9397H34.8523L34.8519 64.7321ZM62.6584 72.9945L62.6397 85.4782L62.5027 86.0791C62.1386 87.6763 61.5347 88.8919 60.5324 90.0445C59.2952 91.4674 57.5249 92.4721 55.6434 92.8194C54.7982 92.9751 53.347 92.9594 52.5255 92.7858C50.7447 92.4084 49.3005 91.6116 48.0568 90.3203C46.8985 89.1179 46.2267 87.859 45.8097 86.1092C45.7086 85.6849 45.7012 84.9152 45.6844 73.0846L45.6666 60.5108H54.1718H62.677L62.6584 72.9945ZM89.8209 70.4407L89.8047 80.3706L89.6388 80.8982C88.8883 83.2921 86.8927 84.8052 84.4867 84.8052C82.0416 84.8052 80.019 83.2369 79.3087 80.7894L79.1699 80.3105L79.1525 70.4106L79.1357 60.5108H84.4867H89.8371L89.8209 70.4407ZM109.588 63.4402C109.556 66.6394 109.547 66.7331 109.184 67.6399C108.826 68.5364 108.091 69.4552 107.294 70.0032C105.99 70.9004 104.2 71.1485 102.704 70.639C100.931 70.0363 99.6276 68.5472 99.2442 66.6874C99.1649 66.3023 99.1487 65.7428 99.1487 63.3675V60.5108H104.383H109.616L109.588 63.4402Z" fill="white"/>
<defs>
<linearGradient id="paint0_linear_1_3535" x1="39.0886" y1="-27.4011" x2="-24.8473" y2="83.6455" gradientUnits="userSpaceOnUse">
<stop stop-color="#6B6EEC"/>
<stop offset="1" stop-color="#7CEECA"/>
</linearGradient>
</defs>
</svg>
