<svg width="120" height="120" viewBox="0 0 120 120" fill="none" xmlns="http://www.w3.org/2000/svg">
<circle cx="60" cy="60" r="60" fill="#154284"/>
<path fill-rule="evenodd" clip-rule="evenodd" d="M36.648 115.288C44.04 118.416 51.904 120 60 120C68.096 120 75.96 118.416 83.352 115.272C90.496 112.248 96.912 107.928 102.424 102.416C107.928 96.904 112.256 90.488 115.28 83.344C118.408 75.952 119.992 68.088 119.992 59.992C119.992 51.896 118.408 44.04 115.28 36.64C112.256 29.496 107.936 23.08 102.424 17.568C96.912 12.064 90.496 7.736 83.352 4.712C75.96 1.584 68.096 0 60 0C51.904 0 44.04 1.584 36.64 4.72C29.496 7.744 23.08 12.064 17.568 17.576C12.064 23.088 7.736 29.504 4.712 36.648C1.584 44.04 0 51.904 0 60C0 68.096 1.584 75.96 4.72 83.36C7.744 90.504 12.064 96.92 17.576 102.432C23.088 107.936 29.504 112.264 36.648 115.288ZM19.56 19.568C30.368 8.768 44.728 2.816 60 2.816C75.272 2.816 89.648 8.752 100.448 19.56C111.248 30.368 117.2 44.728 117.2 60C117.2 75.28 111.248 89.64 100.448 100.44C89.64 111.24 75.28 117.192 60.008 117.192C44.728 117.192 30.368 111.24 19.568 100.44C8.768 89.632 2.816 75.272 2.816 60C2.816 44.728 8.76 30.368 19.56 19.568Z" fill="#FAC32C"/>
<path d="M73.256 22.784L73.688 23.072C78.464 26.232 82.312 26.816 88.16 26.816C90.224 26.816 92.44 26.424 94.56 25.696L95.112 25.504L97.888 29.392L97.6 29.776C87.288 43.472 95.328 58.264 101.016 64.168L101.544 64.712L101.008 65.248C100.264 65.992 98.968 67.336 98.008 68.344L97.68 68.688L97.704 69.16L97.712 69.32C97.72 69.44 97.72 69.56 97.744 69.776L97.752 69.864C98.232 79 95.864 86.504 90.712 92.168C85.24 98.184 76.608 101.808 66.4 102.368L66.008 102.392L65.72 102.656C63.12 105.024 60.488 106.984 60.456 107.008L60 107.352L59.544 107.008C59.432 106.928 56.832 104.992 54.264 102.656L53.976 102.392L53.584 102.368C43.384 101.808 34.744 98.184 29.272 92.168C24.12 86.504 21.752 79 22.24 69.864L22.248 69.776C22.272 69.576 22.28 69.464 22.28 69.336V69.304L22.288 69.16L22.312 68.688L21.984 68.344C21.08 67.392 19.752 66.008 18.984 65.248L18.448 64.712L18.976 64.168C24.664 58.264 32.704 43.472 22.4 29.776L22.112 29.392L24.888 25.504L25.44 25.696C27.56 26.432 29.776 26.816 31.84 26.816C37.696 26.816 41.536 26.24 46.312 23.072L46.752 22.784L47.184 23.08C51.4 26.008 55.472 27.368 60.008 27.368C64.544 27.368 68.616 26.008 72.832 23.08L73.256 22.784Z" fill="#E8B909"/>
<path d="M28.6079 56.608C31.8399 49.2 33.0399 39.688 27.6079 30.392C28.9679 30.632 30.3919 30.784 31.8319 30.784C37.3919 30.784 41.7679 30.28 46.6879 27.504C50.5599 29.848 54.9039 31.336 59.9919 31.344C65.0959 31.336 69.4399 29.848 73.3119 27.504C78.2319 30.28 82.6079 30.784 88.1679 30.784C89.6079 30.784 91.0399 30.632 92.4079 30.368C86.9599 39.688 88.1679 49.2 91.3919 56.608H28.6079Z" fill="white"/>
<path d="M91.3919 56.608C88.1599 49.2 86.9599 39.688 92.4079 30.368C91.0399 30.632 89.6159 30.784 88.1679 30.784C82.6079 30.784 78.2319 30.28 73.3119 27.504C69.4319 29.848 65.0959 31.336 59.9919 31.344C59.9439 31.344 59.8959 31.344 59.8479 31.344V56.616L91.3919 56.608Z" fill="#FFDD00"/>
<path d="M84.48 92.4C90.664 87.88 94.32 80.656 93.784 70.12C93.72 69.52 93.68 69.488 93.632 68.88H84.48L84.48 92.4Z" fill="#0054A4"/>
<path d="M74.688 96.928C78.368 95.936 81.688 94.44 84.48 92.392V68.88H74.688V96.928Z" fill="#A30046"/>
<path d="M35.52 92.392C38.32 94.44 41.632 95.928 45.312 96.928V68.88L35.52 68.88V92.392Z" fill="#A30046"/>
<path d="M26.2159 70.12C25.6799 80.656 29.3359 87.872 35.5199 92.4V68.888H26.3679C26.3279 69.488 26.2799 69.52 26.2159 70.12Z" fill="#0054A4"/>
<path d="M60.024 74.08C61.816 74.08 63.48 74.6 64.896 75.48V68.88H55.104V75.512C56.528 74.616 58.216 74.08 60.024 74.08Z" fill="#A30046"/>
<path d="M60.024 92.536C58.216 92.536 56.528 92.008 55.104 91.104V98.408C55.28 98.416 55.448 98.432 55.624 98.44C58.88 98.456 61.824 98.472 64.384 98.44C64.56 98.432 64.728 98.416 64.904 98.408V91.136C63.48 92.016 61.816 92.536 60.024 92.536Z" fill="#A30046"/>
<path d="M64.896 68.88V75.48C67.504 77.112 69.248 80 69.248 83.304C69.248 86.608 67.504 89.496 64.896 91.128V98.4C68.352 98.224 71.648 97.744 74.688 96.92V68.872L64.896 68.88Z" fill="#0054A4"/>
<path d="M50.8 83.312C50.8 80.024 52.52 77.152 55.104 75.512V68.88H45.312V96.928C48.352 97.744 51.648 98.232 55.104 98.408V91.104C52.52 89.472 50.8 86.592 50.8 83.312Z" fill="#0054A4"/>
<path d="M30.8159 38.696C31.4719 41.904 31.4959 45.048 31.0719 48.04H40.5839V56.608H49.9279V48.04H59.8799V38.696H49.9279V29.192C48.8079 28.696 47.7279 28.128 46.6879 27.496C44.5999 28.672 42.6079 29.44 40.5839 29.936V38.688L30.8159 38.696Z" fill="#E31837"/>
<path d="M79.9918 56.608V30.072C78.8638 29.824 77.7518 29.496 76.6318 29.072V56.608H79.9918Z" fill="#E31837"/>
<path d="M66.56 56.608V30.456C65.48 30.752 64.36 30.984 63.2 31.136V56.616L66.56 56.608Z" fill="#E31837"/>
<path d="M86.704 56.608V30.768C85.544 30.744 84.432 30.696 83.344 30.592V56.608H86.704Z" fill="#E31837"/>
<path d="M73.2719 56.608V27.52C72.1919 28.176 71.0719 28.752 69.9119 29.256V56.6L73.2719 56.608Z" fill="#E31837"/>
<path fill-rule="evenodd" clip-rule="evenodd" d="M101.824 63.368L103.104 64.696L101.792 66.008C101.096 66.712 99.848 68.008 98.816 69.088C98.816 69.1223 98.8183 69.1543 98.8204 69.184C98.8223 69.2097 98.824 69.2337 98.824 69.256C98.824 69.368 98.824 69.464 98.848 69.648L98.856 69.768C99.36 79.224 96.896 87 91.536 92.896C85.848 99.144 76.968 102.88 66.464 103.456C63.864 105.832 61.24 107.792 61.12 107.88L60 108.712L58.88 107.88C58.8708 107.873 58.8443 107.853 58.8019 107.821C58.3314 107.465 55.9055 105.629 53.52 103.456C43.016 102.88 34.128 99.144 28.448 92.896C23.088 87 20.624 79.216 21.128 69.768L21.136 69.648C21.1535 69.5138 21.1582 69.4264 21.1626 69.3454C21.1643 69.3154 21.1658 69.2863 21.168 69.256C21.168 69.2289 21.1699 69.2037 21.1718 69.1777C21.1739 69.1499 21.176 69.1211 21.176 69.088C20.152 68 18.904 66.712 18.2 66.008L16.896 64.704L18.176 63.376C23.632 57.704 31.36 43.52 21.504 30.416L20.728 29.384L24.456 24.16L25.792 24.624C27.8 25.312 29.888 25.68 31.832 25.68C37.464 25.68 41.16 25.136 45.696 22.128L46.76 21.424L47.808 22.152C51.824 24.944 55.704 26.24 60 26.24C64.296 26.24 68.168 24.936 72.184 22.136L73.232 21.408L74.296 22.112C78.84 25.12 82.528 25.672 88.16 25.672C90.104 25.672 92.192 25.312 94.2 24.616L95.536 24.152L99.264 29.376L98.488 30.408C88.632 43.512 96.36 57.696 101.824 63.368ZM96.9455 69.319C96.9394 69.1334 96.9321 68.909 96.88 68.392L96.9882 68.2787C98.0189 67.1997 99.6143 65.5294 100.464 64.672C94.104 58.072 86.68 42.968 96.984 29.28L94.808 26.392C92.752 27.104 90.464 27.552 88.16 27.552C82.248 27.552 78.216 26.968 73.256 23.68C69.336 26.4 65.08 28.104 59.992 28.104C54.896 28.104 50.648 26.4 46.728 23.68C41.768 26.968 37.728 27.552 31.824 27.552C29.528 27.552 27.232 27.104 25.176 26.392L23 29.28C33.304 42.968 25.88 58.072 19.52 64.672C20.408 65.56 22.088 67.32 23.104 68.392C23.0518 68.9052 23.0445 69.1299 23.0385 69.3168C23.0334 69.4738 23.0292 69.6041 23 69.856C21.88 90.92 36.552 100.864 54.288 101.6C57 104.136 60 106.36 60 106.36C60 106.36 62.984 104.136 65.696 101.6C83.432 100.864 98.104 90.92 96.984 69.856C96.9548 69.6037 96.9506 69.4751 96.9455 69.319Z" fill="#231F20"/>
<path fill-rule="evenodd" clip-rule="evenodd" d="M26.016 69.512C26.048 69.336 26.072 69.184 26.096 68.864V68.6H93.872L93.896 68.864C93.9223 69.127 93.9432 69.2765 93.9632 69.4192C93.9675 69.4501 93.9718 69.4806 93.976 69.512C94 69.664 94.024 69.824 94.056 70.096C94.472 78.208 92.448 84.76 88.048 89.592C83 95.136 74.816 98.288 64.392 98.72C63.312 98.736 62.16 98.744 60.952 98.744C59.4872 98.744 57.9288 98.7368 56.2905 98.7292L56.024 98.728H55.624C45.184 98.296 37 95.136 31.952 89.6C27.544 84.768 25.52 78.216 25.936 70.112C25.968 69.816 25.992 69.656 26.016 69.512ZM26.576 69.6C26.552 69.736 26.528 69.888 26.504 70.152C26.096 78.08 28.072 84.496 32.376 89.208C37.32 94.632 45.368 97.728 55.64 98.152H56.024L56.2992 98.1534C59.2795 98.1689 62.0009 98.183 64.376 98.152C74.64 97.728 82.688 94.632 87.632 89.208C91.928 84.496 93.904 78.08 93.496 70.136C93.472 69.888 93.448 69.736 93.424 69.6C93.4185 69.556 93.4121 69.513 93.4054 69.468C93.3925 69.382 93.3785 69.2888 93.368 69.168H26.632C26.616 69.352 26.6 69.472 26.576 69.6Z" fill="#231F20"/>
<path fill-rule="evenodd" clip-rule="evenodd" d="M28.3519 56.496L28.1759 56.888H91.8159L91.6479 56.496C88.8879 50.16 86.8079 40.504 92.6479 30.512L92.9599 29.976L92.3519 30.096C90.9439 30.368 89.5359 30.504 88.1679 30.504C82.4879 30.504 78.2639 29.976 73.4559 27.256L73.3119 27.176L73.1679 27.264C68.9519 29.816 64.6399 31.056 59.9919 31.064C55.3599 31.064 51.0559 29.816 46.8319 27.264L46.6879 27.176L46.5439 27.256C41.7359 29.968 37.5119 30.504 31.8319 30.504C30.5039 30.504 29.1039 30.376 27.6559 30.12L27.0559 30.016L27.3599 30.544C33.1919 40.504 31.1199 50.152 28.3519 56.496ZM60.1599 31.616C64.7919 31.584 69.1039 30.344 73.3119 27.824C78.1679 30.528 82.4399 31.064 88.1599 31.064C89.3679 31.064 90.6079 30.96 91.8559 30.752C86.3919 40.552 88.2719 49.976 90.9599 56.328H60.1599V31.616ZM31.8399 31.064C30.6639 31.064 29.4239 30.968 28.1519 30.768C33.6079 40.552 31.7199 49.976 29.0479 56.328H59.6079V31.616C55.0639 31.544 50.8319 30.304 46.6879 27.824C41.8319 30.528 37.5599 31.064 31.8399 31.064Z" fill="#231F20"/>
<path d="M51.9679 60.264V58.408H45.6719V67.136H47.5599V63.536H50.1359V61.688H47.5599V60.264H51.9679Z" fill="#231F20"/>
<path d="M59.344 60.152C60.032 60.152 60.52 60.44 60.824 61.032L60.864 61.112L62.616 60.304L62.576 60.216C61.96 58.944 60.848 58.272 59.368 58.272C57.08 58.272 55.48 60.12 55.48 62.768C55.48 65.504 56.984 67.264 59.304 67.264C60.816 67.264 61.912 66.6 62.552 65.28L62.592 65.2L61 64.256L60.952 64.336C60.496 65.096 60.064 65.376 59.36 65.376C58.2 65.376 57.424 64.32 57.424 62.76C57.424 61.16 58.16 60.152 59.344 60.152Z" fill="#231F20"/>
<path fill-rule="evenodd" clip-rule="evenodd" d="M73.976 60.76C73.976 59.288 72.928 58.408 71.176 58.408H67.168V67.136H71.144C73.104 67.136 74.28 66.072 74.28 64.288C74.28 63.456 73.88 62.784 73.176 62.408C73.68 62.032 73.976 61.44 73.976 60.76ZM69.016 60.168H71.096C71.944 60.168 72.056 60.56 72.056 60.896C72.056 61.376 71.768 61.608 71.184 61.608H69.016V60.168ZM69.016 65.328H71.192C71.936 65.328 72.32 64.976 72.32 64.312C72.32 63.624 71.96 63.304 71.192 63.304H69.016V65.328Z" fill="#231F20"/>
<path fill-rule="evenodd" clip-rule="evenodd" d="M59.968 92.688C65.168 92.688 69.392 88.456 69.392 83.264C69.392 78.064 65.16 73.84 59.968 73.84C54.768 73.84 50.544 78.072 50.544 83.264C50.536 88.456 54.768 92.688 59.968 92.688ZM59.968 92.12C58.136 92.12 56.44 91.56 55.024 90.608C56.896 90.52 59.384 90.048 60.928 89.128C62.424 88.24 64.008 87.128 64.304 85.64C65.392 85.096 67.472 85.352 67.736 87.544C66.216 90.272 63.304 92.12 59.968 92.12ZM57.168 85.848C56.544 85.768 56.024 85.576 55.592 85.288C54.904 86.472 53.664 87.136 52.208 87.152C52.172 87.152 52.136 87.15 52.1 87.148L52.0999 87.148C52.0639 87.146 52.0279 87.144 51.992 87.144C52.552 88.296 53.352 89.304 54.328 90.112C56.176 90.12 59.016 89.656 60.648 88.688C62.752 87.432 64.384 86.088 63.608 84.232C63.216 83.288 61.912 82.2 60.216 83.4C60.112 84.784 58.4 86.008 57.168 85.848ZM54.184 80.816C54.1645 79.4084 54.4816 78.1428 54.8113 76.8273L54.8113 76.8273L54.8113 76.8272L54.8113 76.8271C54.8882 76.5203 54.9658 76.2107 55.04 75.896C56.248 75.088 57.664 74.568 59.192 74.432C58.168 75.544 58.384 77.184 59.432 78.024C59.184 78.208 58.96 78.448 58.768 78.752C57.984 79.992 57.88 82.072 59.688 83.392C59.576 84.432 58.192 85.448 57.232 85.328C55.184 85.064 54.216 83.16 54.184 80.816ZM64.096 84.016C64.248 84.376 64.32 84.72 64.336 85.048C65.544 84.624 67.496 84.904 68.096 86.776C68.456 85.936 68.696 85.024 68.784 84.072C68.28 82.24 66.464 80.208 64.728 79.24C62.584 78.04 60.248 77.392 59.216 79.024C58.552 80.072 58.464 81.8 59.96 82.928C62 81.52 63.624 82.888 64.096 84.016ZM64.984 78.784C63.44 77.92 61.408 77.128 59.944 77.736C58.84 77.048 58.648 75.312 60.04 74.4C64.72 74.44 68.536 78.104 68.808 82.72C67.976 81.128 66.448 79.6 64.984 78.784ZM54.2692 76.7919C54.3042 76.6588 54.3399 76.523 54.376 76.384C52.384 78.008 51.104 80.488 51.104 83.256C51.104 84.432 51.328 85.552 51.744 86.576C51.896 86.6 52.048 86.608 52.208 86.608C53.52 86.608 54.592 86 55.176 84.96C53.48 83.416 53.472 80.272 53.928 78.184C54.0222 77.7316 54.1411 77.2792 54.2692 76.7919Z" fill="#231F20"/>
</svg>
