<svg width="121" height="121" viewBox="0 0 121 121" fill="none" xmlns="http://www.w3.org/2000/svg">
<circle cx="60.2183" cy="60.2182" r="60" fill="black" stroke="black" stroke-width="0.436504"/>
<path d="M33.6264 26.0256L29.6038 30.0483L34.6932 35.1377L39.7938 40.2272L39.3715 41.4718C38.827 43.1053 38.6048 44.4721 38.6048 46.2834C38.6048 52.184 41.694 57.2068 47.1613 60.196C49.3615 61.3962 53.1397 62.7519 57.329 63.8298C65.5077 65.93 66.7634 66.2967 68.3747 67.0523C70.5749 68.0969 71.6639 69.2304 72.1196 70.9417C72.3196 71.6862 72.3085 73.353 72.1084 74.1531C71.5973 76.0978 69.9415 78.0536 67.8857 79.1203C65.1077 80.5761 60.2738 80.9761 56.629 80.0427C55.2733 79.7093 53.3508 78.7647 52.3841 77.9758C50.4172 76.3534 48.8837 73.5531 48.2058 70.3194C48.0947 69.8082 48.0058 69.3748 47.9947 69.3526C47.9613 69.3081 36.5823 70.4194 36.5267 70.4861C36.4823 70.5194 36.5156 70.9861 36.5934 71.5195C36.949 74.0864 37.8491 77.1423 38.8826 79.2648L39.4826 80.4983L34.5376 85.4433L29.6038 90.3882L33.6375 94.422L37.6602 98.4447L42.7608 93.3441L47.8502 88.2547L48.7281 88.6214C53.373 90.5771 60.3405 91.1883 67.0968 90.2104C68.7192 89.9771 71.0639 89.4215 72.2973 88.9659L73.0308 88.6992L77.9091 93.5775L82.7763 98.4447L86.7989 94.422L90.8327 90.3882L86.31 85.8655L81.7984 81.3539L82.3651 80.1982C83.543 77.8313 84.032 75.82 84.132 73.053C84.3098 67.7746 82.943 63.7964 79.8315 60.5183C76.5867 57.1068 72.9308 55.4844 62.6074 52.8841C55.3288 51.0617 52.1951 49.806 50.9506 48.2281C49.7171 46.6723 49.606 44.4943 50.6839 42.9052C51.3061 41.9829 52.8397 40.9939 54.5065 40.4383C56.3845 39.8049 59.5404 39.516 61.8851 39.7605C66.8301 40.2827 69.3192 42.3941 70.4082 47.0168C70.5416 47.5835 70.6638 48.0614 70.6749 48.0836C70.6972 48.1169 78.7425 47.828 81.1539 47.7058L82.5318 47.6391L82.454 46.6723C82.2984 44.7054 81.9095 42.9497 81.1983 41.1162L80.8094 40.0827L85.8211 35.0599L90.8327 30.0483L86.8101 26.0145L82.7763 21.9918L77.709 27.0591L72.6307 32.1374L71.3972 31.6707C68.3636 30.5372 65.4299 30.0372 61.1072 29.9149C56.3845 29.7927 52.2396 30.4039 49.0615 31.6929L47.8836 32.1707L42.7719 27.0813L37.6602 21.9918L33.6264 26.0256Z" fill="white"/>
</svg>
