<svg width="120" height="120" viewBox="0 0 120 120" fill="none" xmlns="http://www.w3.org/2000/svg">
<circle cx="60" cy="60" r="60" fill="#00A6C4"/>
<path d="M70.5578 52.7872L69.559 53.786C70.3913 55.0662 70.5761 56.6623 70.0584 58.0989C69.1379 60.6515 66.3277 61.9805 63.7706 61.0725C63.4185 60.9476 63.0831 60.7799 62.7718 60.5731L59.5712 63.7738L56.7792 60.959C55.4462 61.8473 53.7733 62.0575 52.262 61.5265C51.0017 61.0778 49.9721 60.1453 49.4013 58.9354C48.8304 57.7255 48.7653 56.3379 49.2203 55.0799C49.3587 54.6854 49.5496 54.3113 49.7877 53.9676L48.5847 52.7645L48.3577 53.1504C45.8799 57.2035 45.7821 62.2783 48.1019 66.4238C50.4217 70.5694 54.798 73.1405 59.5485 73.1487H59.5712C64.3172 73.1512 68.6956 70.5936 71.0244 66.4582C73.3532 62.3228 73.2703 57.2528 70.8075 53.1958L70.5578 52.7872Z" fill="white"/>
<path d="M51.2633 55.4431C50.9097 55.9146 50.7185 56.4881 50.7185 57.0775C50.721 58.5558 51.9188 59.7535 53.397 59.756C53.9907 59.759 54.5674 59.5588 55.0314 59.1885L51.2633 55.4431Z" fill="white"/>
<path d="M64.4062 58.9615C64.8471 59.2633 65.3702 59.4219 65.9044 59.4155C67.3827 59.413 68.5805 58.2152 68.583 56.7369C68.586 56.2032 68.4278 55.681 68.129 55.2388L64.4062 58.9615Z" fill="white"/>
<path fill-rule="evenodd" clip-rule="evenodd" d="M48.7664 50.8805L59.6167 61.7762L70.3309 51.1074L69.9223 50.6535C67.2558 47.6963 63.4623 46.0058 59.4805 46.0001H59.4578C55.5718 45.9885 51.8557 47.5917 49.1976 50.4265L48.7664 50.8805ZM59.6167 59.9829L50.5369 50.8805C52.9283 48.5493 56.141 47.2528 59.4805 47.2712H59.5032C62.9123 47.2829 66.1776 48.6462 68.583 51.062L59.6167 59.9829Z" fill="white"/>
<path d="M47.6541 68.7905L46.3829 68.6997C40.9804 68.3592 33.535 67.0199 28.7227 62.6843C25.7491 60.0285 25.1816 57.5088 25.1589 57.3953L25 56.6235H44.6578L44.5443 57.3499C44.4537 58.0119 44.4082 58.6793 44.4081 59.3475C44.3976 62.3278 45.2747 65.2437 46.9277 67.7236L47.6541 68.7905Z" fill="white"/>
<path d="M71.4431 68.7905L72.1468 67.7236C73.7963 65.259 74.6736 62.3585 74.6664 59.3929C74.667 58.7096 74.6215 58.0271 74.5302 57.3499L74.4394 56.6235H94.0972L93.9383 57.3953C93.9156 57.5088 93.3481 60.0285 90.3972 62.6843C85.5849 67.0199 78.1168 68.3592 72.7143 68.6997L71.4431 68.7905Z" fill="white"/>
</svg>
