<svg width="120" height="120" viewBox="0 0 120 120" fill="none" xmlns="http://www.w3.org/2000/svg">
<circle cx="60" cy="60" r="60" fill="black"/>
<circle cx="59.8743" cy="59.9999" r="53.5916" fill="#FEF102"/>
<path fill-rule="evenodd" clip-rule="evenodd" d="M85.2565 39.8953C84.9763 39.2508 84.6992 38.4687 84.4015 37.6287C83.3644 34.7019 82.0777 31.0706 79.5393 30.0942C75.3298 28.4607 72.6911 39.0785 72.0628 41.7801H71.4345L71.3839 41.5624C70.3202 36.9896 68.8425 30.637 63.8953 29.2147C61.5707 39.0157 66.3455 49.6335 70.8063 58.1152C75.5811 55.8534 77.9057 48.6911 78.3455 43.6649H78.9738L84 58.7435C87.8661 57.6561 89.3508 53.897 90.7439 50.3701C90.7997 50.2288 90.8553 50.088 90.911 49.9476C94.0523 42.1571 96.6911 32.5445 94.6806 24.1885C89.2521 25.7153 87.2335 32.8914 85.739 38.2044C85.573 38.7944 85.4135 39.3615 85.2565 39.8953ZM24.9424 60C30.3455 57.4241 32.9215 49.2565 33.7382 43.6649H34.3665C34.9948 46.3665 36.6911 53.3403 40.0838 53.7801C44.356 54.3455 46.6178 44.7958 46.9319 41.7801H47.5602C47.6634 42.1319 47.767 42.4918 47.8722 42.8576L47.8725 42.8586C49.1766 47.391 50.7396 52.8229 55.0995 54.9738C56.8586 47.623 54.7853 39.8325 52.0838 32.9843C51.9964 32.762 51.898 32.4915 51.7879 32.1886C51.0262 30.0945 49.7008 26.4503 47.5602 26.4503C43.7636 26.4503 41.5277 36.1036 40.7417 39.4974L40.7417 39.4974L40.7414 39.4983C40.7081 39.6423 40.6773 39.775 40.6492 39.8953H40.0209L34.9948 24.8167C26.1361 29.0262 21.3612 51.5183 24.9424 60ZM79.6021 100.272C52.3351 112.398 22.0523 96.1885 15.5183 67.5393C18.2199 66.7853 21.2356 67.288 23.2461 68.7958C24.9289 70.1217 25.9908 72.3167 26.9695 74.3395C27.1966 74.8089 27.4191 75.269 27.644 75.7068C30.1571 80.5445 33.9267 84.5654 38.1361 87.9581C56.9215 103.225 83.5602 94.8063 93.4241 75.7068L87.9581 75.267H87.7696C86.3874 75.0785 85.445 73.7592 85.6335 72.377C85.7591 71.8743 86.0733 71.4346 86.5131 71.2461C89.7173 69.8639 102.722 64.3979 104.042 67.7277C105.338 70.9993 103.178 75.5445 101.969 78.086C101.948 78.1313 101.927 78.1759 101.906 78.2199C97.3822 88.0209 89.5288 95.8743 79.6021 100.272Z" fill="black"/>
</svg>
