<svg width="120" height="120" viewBox="0 0 120 120" fill="none" xmlns="http://www.w3.org/2000/svg">
<circle cx="60" cy="60" r="60" fill="#EDF0F4"/>
<circle cx="84.9138" cy="36.0862" r="5.08621" fill="#18A0B1"/>
<path d="M45.811 69.2279C41.8709 62.5395 42.953 54.0329 48.4421 48.5439C53.9311 43.0548 62.4377 41.9728 69.1261 45.9128L73.1951 41.8438L72.9916 41.681C63.9671 35.7325 51.9977 36.9845 44.3994 44.6718C36.8012 52.3591 35.6887 64.3423 41.742 73.2969L45.811 69.2279Z" fill="#18A0B1"/>
<path d="M75.1891 51.9958C79.1291 58.6843 78.047 67.1909 72.558 72.6799C67.0689 78.169 58.5624 79.251 51.8739 75.311L47.8049 79.38C56.7946 85.4831 68.8522 84.3405 76.5354 76.6573C84.2185 68.9741 85.3612 56.9165 79.258 47.9269L75.1891 51.9958Z" fill="#18A0B1"/>
<circle cx="36.0862" cy="84.9138" r="5.08621" fill="#18A0B1"/>
</svg>
