<svg width="120" height="120" viewBox="0 0 120 120" fill="none" xmlns="http://www.w3.org/2000/svg">
<circle cx="60" cy="60" r="60" fill="#EDF0F4"/>
<circle cx="59.9997" cy="60.0001" r="43.771" fill="white"/>
<path fill-rule="evenodd" clip-rule="evenodd" d="M105 60C105 35.1472 84.8525 15.0002 59.9998 15.0002C35.2961 14.9367 15.2423 34.9847 15 59.5211V60C15 84.8527 35.1471 105 59.9998 105C84.8525 105 105 84.8527 105 60ZM18.2942 59.7403C18.3923 36.9267 37.0556 18.2771 60.9462 18.2655C71.498 18.4156 81.3979 22.5002 89.5381 30.577C96.5383 37.3738 100.809 46.4976 101.544 56.2269C102.594 69.1038 98.5669 80.3479 89.3766 89.5152C81.2997 97.5748 71.4286 101.619 59.9998 101.659C36.923 101.74 18.1904 82.7825 18.2942 59.7403ZM60.9462 18.2655C60.95 18.2655 60.9537 18.2655 60.9575 18.2655H60.9459C60.946 18.2655 60.9461 18.2655 60.9462 18.2655Z" fill="#333333"/>
<path fill-rule="evenodd" clip-rule="evenodd" d="M88.8919 31.379C95.4806 37.8268 99.5691 46.4024 100.43 55.5808C101.728 68.4865 97.7822 79.6615 88.638 88.8115C80.6765 96.7845 70.8977 100.731 59.6247 100.65C37.5371 100.055 19.9617 81.9401 20.0354 59.8446C20.109 37.7491 37.8047 19.7515 59.8958 19.3041C71.215 19.3214 80.9246 23.3829 88.8919 31.379ZM78.7838 29.6077C78.7966 28.9229 78.2518 28.3573 77.5669 28.3444C76.8831 28.3347 76.3192 28.878 76.3034 29.5617C76.2908 30.2466 76.8357 30.812 77.5206 30.8247C78.2055 30.8375 78.771 30.2926 78.7838 29.6077ZM71.9996 25.754C72.7015 25.7572 73.2689 26.3271 73.2688 27.029C73.2598 27.3565 73.121 27.667 72.8829 27.8921C72.6448 28.1171 72.3271 28.2383 71.9996 28.229C71.6814 28.2337 71.3743 28.1116 71.146 27.8898C70.9177 27.668 70.7869 27.3646 70.7823 27.0464V26.9887C70.7884 26.316 71.3271 25.7696 71.9996 25.754ZM67.4016 25.3848C67.3182 24.7319 66.7934 24.2239 66.1381 24.1617C65.446 24.1517 64.8711 24.6933 64.84 25.3848C64.8365 26.0577 65.3676 26.6118 66.04 26.6367C66.7556 26.6506 67.3554 26.099 67.4016 25.3848ZM59.9997 23.6541C60.6808 23.6509 61.2357 24.1999 61.24 24.881C61.2442 25.5621 60.6961 26.1179 60.015 26.1232C59.3339 26.1285 58.7772 25.5813 58.7708 24.9002C58.7708 24.2187 59.3182 23.6635 59.9997 23.6541ZM55.1535 25.3848C55.119 24.7274 54.5937 24.202 53.9362 24.1675L53.9132 24.1617C53.2367 24.1733 52.6859 24.7089 52.6555 25.3848C52.6524 25.7092 52.7783 26.0215 53.0055 26.2531C53.2327 26.4846 53.5426 26.6164 53.867 26.6194H53.9132C54.2416 26.621 54.5571 26.4916 54.7899 26.2599C55.0227 26.0282 55.1535 25.7133 55.1535 25.3848ZM48.0055 25.754C48.686 25.7635 49.2318 26.3196 49.2286 27.0002C49.2448 27.6565 48.7307 28.204 48.0747 28.229H48.017C47.6861 28.2415 47.3639 28.121 47.1222 27.8946C46.8806 27.6681 46.7395 27.3544 46.7305 27.0233C46.7277 27.0061 46.7277 26.9885 46.7305 26.9714C46.7642 26.2911 47.3244 25.7563 48.0055 25.754ZM43.5474 28.8882C43.2996 28.5208 42.8746 28.3135 42.4324 28.3444C41.7817 28.3889 41.2766 28.9297 41.2766 29.5819C41.2766 30.2341 41.7817 30.775 42.4324 30.8194H42.6055C43.0476 30.7885 43.4397 30.5241 43.634 30.1257C43.8282 29.7274 43.7952 29.2556 43.5474 28.8882ZM37.4536 31.8463C38.1334 31.8618 38.6791 32.4125 38.6882 33.0925C38.6851 33.773 38.1342 34.3239 37.4536 34.3271C37.1359 34.3396 36.8263 34.2248 36.5934 34.0082C36.3606 33.7916 36.2237 33.4911 36.2132 33.1732C36.2101 33.1522 36.2101 33.1308 36.2132 33.1098C36.1905 32.4321 36.7185 31.8629 37.3959 31.8348L37.4536 31.8463ZM34.3498 37.4425C34.366 36.7607 33.8313 36.1925 33.1498 36.1675H33.144C32.4523 36.17 31.8853 36.7167 31.8575 37.4078C31.8755 38.0862 32.4196 38.6328 33.0979 38.654C33.7775 38.6636 34.3371 38.1221 34.3498 37.4425ZM29.6133 41.1982C30.2673 41.1852 30.8113 41.6984 30.8363 42.3521C30.8421 42.3689 30.8421 42.3871 30.8363 42.404C30.846 43.0868 30.3018 43.649 29.619 43.6617C28.921 43.6493 28.3591 43.0847 28.3498 42.3867C28.3747 41.7102 28.9305 41.1747 29.6075 41.1751L29.6133 41.1982ZM28.269 47.9943C28.2723 47.3042 27.7188 46.7404 27.0287 46.7309C26.3519 46.7365 25.7986 47.272 25.771 47.9482C25.7914 48.6097 26.3232 49.141 26.9847 49.1609C27.6462 49.1807 28.209 48.6823 28.269 48.0232V47.9943ZM25.4133 52.6328C26.1117 52.6359 26.6789 53.1979 26.6883 53.8962C26.6694 54.5754 26.11 55.1143 25.4306 55.1078C25.1139 55.1093 24.8095 54.9849 24.5845 54.7621C24.3594 54.5392 24.2321 54.236 24.2306 53.9193C24.2238 53.2496 24.7499 52.6954 25.4191 52.6674L25.4133 52.6328ZM24.8883 58.7424C24.2104 58.7724 23.6712 59.3217 23.6537 60C23.6732 60.6614 24.1933 61.199 24.8537 61.2404H24.9806C25.6509 61.2062 26.1671 60.6359 26.1344 59.9654C26.1314 59.638 25.9984 59.3252 25.7647 59.0958C25.531 58.8664 25.2157 58.7393 24.8883 58.7424ZM24.2306 66.0866C24.2305 65.4072 24.7745 64.853 25.4537 64.8404C26.1507 64.8529 26.711 65.4183 26.7171 66.1154C26.7081 66.4429 26.5692 66.7533 26.3312 66.9784C26.0931 67.2035 25.7754 67.3247 25.4479 67.3154C24.7937 67.3316 24.2495 66.8157 24.2306 66.1616V66.0923V66.0866ZM25.7883 72.0231C25.8103 72.7045 26.3758 73.2418 27.0575 73.2288L27.0344 73.2173C27.715 73.2141 28.2659 72.6632 28.269 71.9827C28.2516 71.3139 27.7201 70.7724 27.0517 70.7423C26.3538 70.7579 25.7943 71.325 25.7883 72.0231ZM29.6363 78.7846C28.9587 78.7759 28.4062 78.2387 28.3787 77.5615C28.3786 76.8746 28.9321 76.3159 29.619 76.3096H29.6479C30.3019 76.2965 30.8459 76.8097 30.871 77.4634C30.8738 77.4845 30.8738 77.5058 30.871 77.5269C30.8725 77.8523 30.7443 78.1648 30.5148 78.3955C30.2852 78.6261 29.9733 78.7557 29.6479 78.7557H29.6133L29.6363 78.7846ZM29.6366 69.0915L29.6363 69.0923L29.6133 69.0808L29.6366 69.0915ZM29.6366 69.0915L29.6998 68.8673H42.8536C44.5536 68.8673 45.4075 68.8673 45.8363 68.4404C46.269 68.0097 46.269 67.1443 46.269 65.4058V56.752C46.269 55.8116 46.3959 55.3731 47.5209 55.4193C49.9959 55.5231 52.4824 55.4885 54.9574 55.4193C55.8228 55.4193 56.1112 55.6847 56.1112 56.5328C56.0882 61.3712 56.0882 66.2154 56.1112 71.0654C56.1112 71.9885 55.8228 72.4558 54.8478 72.3635C54.5639 72.3346 54.2778 72.3346 53.9939 72.3635C52.8805 72.4846 52.4997 72.0519 52.4997 70.9615C52.5343 68.6277 52.5228 66.2963 52.5112 63.9641V63.9641V63.964V63.9639V63.9639V63.9638V63.9637V63.9637V63.9636V63.9635V63.9635V63.9634V63.9633V63.9633V63.9632V63.9631V63.9631V63.963V63.9629V63.9628V63.9628V63.9627V63.9626C52.5055 62.796 52.4997 61.6291 52.4997 60.4616C52.4997 59.4981 52.1997 59.0539 51.167 59.0539C50.1343 59.0539 49.7939 59.377 49.8113 60.4039C49.8351 62.2113 49.8343 64.0188 49.8335 65.8254V65.8255V65.8256V65.8257V65.8257V65.8258V65.8259V65.8259V65.826V65.8261V65.8261V65.8262V65.8263V65.8263V65.8264V65.8265V65.8265V65.8266V65.8267V65.8268V65.8268V65.8269V65.827C49.8328 67.5202 49.8321 69.2127 49.8516 70.9039C49.8516 72.0577 49.4997 72.3808 48.3863 72.3635C47.088 72.3423 45.7882 72.3584 44.4892 72.3744C42.2437 72.4021 40.0004 72.4298 37.7709 72.2654C36.548 72.1762 35.3532 71.6464 34.1658 71.1198C33.74 70.9309 33.3151 70.7425 32.8902 70.575C32.1353 70.2794 31.3831 69.9203 30.6261 69.5587L30.6261 69.5587C30.2974 69.4018 29.9677 69.2444 29.6366 69.0915ZM33.2767 83.8153C32.9415 83.8542 32.6046 83.7581 32.3404 83.548C32.0763 83.338 31.9067 83.0315 31.869 82.6961C31.8635 82.6308 31.8635 82.5652 31.869 82.5C31.9106 81.8046 32.4765 81.2562 33.1729 81.2365C33.8677 81.3279 34.3974 81.9037 34.4306 82.6038C34.3347 83.2069 33.875 83.6873 33.2767 83.8096V83.8153ZM36.2363 86.9076C36.2363 87.5672 36.771 88.1019 37.4305 88.1019L37.4536 88.0961H37.4998C37.8257 88.0976 38.1389 87.9696 38.3704 87.7402C38.6019 87.5109 38.7329 87.1989 38.7344 86.873C38.7224 86.1933 38.1793 85.6425 37.4998 85.6211C37.1693 85.6165 36.8505 85.7433 36.6135 85.9738C36.3766 86.2043 36.2409 86.5194 36.2363 86.8499V86.9076ZM42.4959 91.6153C42.1776 91.6278 41.8674 91.5132 41.6336 91.2967C41.3999 91.0803 41.2618 90.7798 41.2498 90.4615C41.2469 90.4462 41.2469 90.4306 41.2498 90.4153C41.2303 89.7281 41.7685 89.1538 42.4555 89.1288H42.4901C43.17 89.1442 43.7156 89.695 43.7247 90.3749C43.7294 90.7013 43.6033 91.016 43.3747 91.2489C43.1461 91.4819 42.8338 91.6138 42.5074 91.6153H42.4959ZM46.7363 93.0403C46.7826 93.7189 47.3668 94.2337 48.0459 94.1941L48.0747 94.1884C48.7298 94.1664 49.2448 93.6205 49.2286 92.9653C49.2223 92.2838 48.6697 91.7338 47.9882 91.7307C47.3111 91.7541 46.766 92.2943 46.7363 92.9711V93.0403ZM41.1373 74.4391L41.1373 74.439L41.1371 74.439L41.137 74.4389L41.1369 74.4388L41.1367 74.4388L41.1366 74.4387L41.1365 74.4386L41.1363 74.4386L41.1362 74.4385L41.136 74.4384L41.1359 74.4383L41.1358 74.4383L41.1356 74.4382L41.1355 74.4381L41.1354 74.4381L41.1352 74.438L41.1351 74.4379L41.1349 74.4379C40.801 74.2755 40.4669 74.1131 40.1305 73.9558L40.2632 73.6038H57.1151C57.3342 73.6038 57.5326 73.6055 57.7122 73.607H57.7125H57.7128H57.7131H57.7134C58.5959 73.6142 59.0235 73.6177 59.2301 73.4058C59.4242 73.2065 59.4229 72.8168 59.4204 72.0605V72.0604V72.0602V72.0601V72.0599V72.0597V72.0596V72.0594V72.0592V72.059V72.0588V72.0586V72.0584V72.0582V72.058V72.0577V72.0575C59.4197 71.8364 59.4188 71.5841 59.4228 71.2962V48.7039C59.4228 47.4636 59.7631 47.0886 61.0035 47.1347C63.4035 47.227 65.8035 47.1924 68.2093 47.1347C69.0746 47.1347 69.4612 47.3597 69.4612 48.2886V76.2519C69.4612 77.2557 69.0342 77.5673 68.1112 77.4057C67.7982 77.3227 67.477 77.2743 67.1535 77.2615L67.1215 77.2626C65.6246 77.3135 65.6189 77.3137 65.6189 75.7211V52.6443C65.6189 52.5458 65.6247 52.4428 65.6306 52.3384C65.6628 51.771 65.6972 51.1645 64.8054 51.0232C63.5708 50.827 63.2016 51.1155 63.2016 52.4078V75.8538C63.2016 77.4461 63.2016 77.4519 61.5631 77.4519C60.2052 77.4519 58.848 77.4455 57.4909 77.4391H57.4903H57.4902H57.4902H57.4902H57.4901H57.4901H57.4901H57.49H57.49H57.49H57.4899H57.4899H57.4899H57.4898H57.4898H57.4898H57.4897C54.7767 77.4263 52.0645 77.4134 49.3497 77.4519C47.6853 77.5185 46.321 76.8497 44.958 76.1817C44.4313 75.9235 43.9048 75.6655 43.3613 75.45H43.3497C42.598 75.1493 41.868 74.7943 41.1373 74.4391ZM52.6612 94.5807C52.6863 95.2604 53.2564 95.7918 53.9362 95.7691C54.6267 95.7563 55.1765 95.1868 55.1648 94.4963C55.1531 93.8057 54.5845 93.2551 53.8939 93.2656C53.2034 93.2762 52.6518 93.8439 52.6612 94.5345C52.6584 94.5498 52.6584 94.5654 52.6612 94.5807ZM59.9997 96.346C59.3009 96.3334 58.7439 95.7583 58.7535 95.0595C58.7725 94.3722 59.3424 93.8288 60.0298 93.8425C60.7173 93.8561 61.2651 94.4217 61.2568 95.1092C61.2485 95.7968 60.6873 96.349 59.9997 96.346ZM64.8458 94.5057C64.8319 95.1671 65.3396 95.7231 65.9996 95.7691L66.0631 95.7518C66.7345 95.7815 67.3063 95.2686 67.3496 94.598C67.3661 94.1507 67.1428 93.7286 66.7637 93.4907C66.3846 93.2528 65.9073 93.2352 65.5117 93.4445C65.1161 93.6539 64.8623 94.0584 64.8458 94.5057ZM71.9939 94.1884C71.341 94.1983 70.7988 93.6868 70.7708 93.0345V92.9768C70.7737 92.2988 71.316 91.7463 71.9939 91.7307C72.6909 91.7432 73.2512 92.3085 73.2573 93.0057C73.2262 93.6771 72.6659 94.2016 71.9939 94.1884ZM76.6877 91.266C76.9225 91.49 77.2367 91.6115 77.5611 91.6038L77.5784 91.6268H77.6304C78.2873 91.5987 78.8005 91.0495 78.7842 90.3922C78.7938 89.7094 78.2497 89.1472 77.5669 89.1345C76.8682 89.1409 76.306 89.7108 76.3092 90.4095C76.3168 90.7339 76.4529 91.042 76.6877 91.266ZM78.5918 57.0892V57.089C78.5588 51.8223 78.5284 46.9707 78.5304 44.2674C78.5304 44.2209 78.5307 44.1745 78.531 44.1285C78.5356 43.4277 78.5397 42.8089 77.4515 42.8251C76.5169 42.8251 76.2977 43.1655 76.2977 44.0482C76.3323 48.0866 76.2342 78.4788 76.2342 78.4788V82.298C76.0989 82.3125 75.9715 82.3286 75.849 82.3441L75.8486 82.3442L75.8482 82.3442L75.848 82.3442L75.8475 82.3443L75.8469 82.3444L75.8465 82.3444L75.8463 82.3445H75.8462H75.8462H75.8461C75.578 82.3784 75.3332 82.4095 75.0804 82.4134C73.5949 82.4134 72.109 82.4216 70.623 82.4298H70.6228H70.6226H70.6224H70.6222H70.622H70.6218H70.6216H70.6214H70.6212H70.621H70.6208H70.6207H70.6206H70.6205H70.6203H70.6202H70.6201H70.62H70.6199H70.6198H70.6197H70.6196C66.8203 82.4508 63.0205 82.4718 59.2266 82.3557C58.2478 82.3259 57.2722 81.8598 56.309 81.3996L56.3089 81.3996L56.3089 81.3996L56.3088 81.3996L56.3087 81.3995L56.3087 81.3995L56.3086 81.3995L56.3085 81.3994L56.3085 81.3994L56.3084 81.3993L56.3083 81.3993L56.3083 81.3993L56.3082 81.3992C55.9658 81.2357 55.625 81.0729 55.2862 80.9307C53.7859 80.3311 52.3482 79.5852 50.9939 78.7038C51.167 78.7038 51.3401 78.6879 51.5132 78.6721C51.6862 78.6562 51.8593 78.6404 52.0324 78.6404L69.7323 78.7153H69.7324C71.0988 78.7153 71.7663 78.7153 72.0924 78.3816C72.4039 78.0629 72.4038 77.4396 72.4035 76.2208L72.4035 76.1077V40.4482C72.4035 39.4501 72.6285 38.9886 73.7592 39.0232C76.3208 39.104 78.8881 39.0751 81.4496 39.0232C82.3092 39.0232 82.6034 39.3174 82.6034 40.1771V80.7692C82.6034 81.5828 82.6034 81.9938 82.3979 82.2021C82.1881 82.4148 81.7641 82.4163 80.9073 82.4192C78.3232 82.4192 78.3278 82.3743 78.5888 79.8192L78.5996 79.7134L78.6054 79.7019C78.7261 78.5018 78.6543 67.0543 78.5918 57.0914V57.0908V57.0905V57.0903V57.0896V57.0892ZM81.3111 86.873C81.3237 87.5513 81.8789 88.0936 82.5573 88.0903L82.5515 88.0961H82.638C82.9564 88.0966 83.2609 87.9656 83.4794 87.734C83.6979 87.5024 83.811 87.1908 83.7919 86.873C83.7996 86.5455 83.6769 86.2284 83.4508 85.9915C83.2246 85.7545 82.9136 85.6171 82.5861 85.6096C81.889 85.6157 81.3236 86.176 81.3111 86.873ZM82.5976 34.3213C81.9258 34.328 81.3707 33.7985 81.3457 33.1271C81.3429 33.1138 81.3429 33.1 81.3457 33.0867C81.3607 32.4092 81.903 31.8619 82.5803 31.8406C82.9072 31.8375 83.2219 31.9648 83.4547 32.1943C83.6875 32.4239 83.8192 32.7367 83.8207 33.0636C83.8602 33.7215 83.3593 34.2869 82.7015 34.3271H82.6323L82.5976 34.3213ZM85.711 82.5375C85.711 83.1897 86.2161 83.7305 86.8669 83.7749C87.3291 83.8065 87.7705 83.5778 88.0112 83.1819C88.252 82.786 88.252 82.2889 88.0112 81.893C87.7705 81.4971 87.3291 81.2684 86.8669 81.3C86.2161 81.3444 85.711 81.8852 85.711 82.5375ZM86.8669 38.6713C86.1754 38.6713 85.6149 38.1108 85.6149 37.4194C85.6149 36.728 86.1754 36.1675 86.8669 36.1675C87.5583 36.1675 88.1188 36.728 88.1188 37.4194C88.1093 38.104 87.5516 38.6541 86.8669 38.654V38.6713ZM94.6149 55.1193C95.2691 55.1004 95.7849 54.5562 95.7687 53.902C95.7858 53.2383 95.2772 52.6789 94.6149 52.6328C94.2721 52.625 93.9403 52.7538 93.6926 52.9908C93.4448 53.2277 93.3013 53.5535 93.2938 53.8962C93.3064 54.5777 93.8641 55.1226 94.5457 55.1193H94.6149ZM90.3803 41.2097C91.0606 41.2128 91.6139 41.7584 91.6264 42.4386C91.6108 43.1356 91.0429 43.6933 90.3457 43.6963C89.6665 43.6712 89.1326 43.1066 89.1457 42.427C89.1326 41.772 89.6449 41.2263 90.2995 41.1982H90.3861L90.3803 41.2097ZM89.1515 77.5557C89.1515 78.2344 89.7016 78.7846 90.3803 78.7846L90.3976 78.7788C91.071 78.77 91.6192 78.2346 91.6438 77.5615V77.5327C91.6377 77.2016 91.4996 76.8867 91.2601 76.6581C91.0207 76.4295 90.6997 76.3061 90.3688 76.3154H90.3053C89.6447 76.3404 89.1287 76.895 89.1515 77.5557ZM92.9649 46.7309C93.4658 46.7309 93.9171 47.0336 94.1071 47.4971C94.2971 47.9606 94.1883 48.4929 93.8316 48.8446C93.4749 49.1963 92.9411 49.2976 92.4803 49.1011C92.0196 48.9045 91.7233 48.449 91.7303 47.9482C91.7546 47.2795 92.296 46.7457 92.9649 46.7309ZM91.7303 72.0231C91.7584 72.7023 92.3257 73.2336 93.0053 73.2173C93.6845 73.2047 94.2285 72.6505 94.2284 71.9711C94.2341 71.9175 94.2341 71.8633 94.2284 71.8096C94.1694 71.1198 93.5624 70.6084 92.8726 70.6673C92.1828 70.7263 91.6714 71.3333 91.7303 72.0231ZM94.5341 67.3039C93.8575 67.2884 93.3144 66.7402 93.3053 66.0635C93.3334 65.3643 93.9152 64.8158 94.6149 64.8289C95.2818 64.8751 95.7921 65.4415 95.7687 66.1096C95.7703 66.4258 95.6457 66.7296 95.4227 66.9537C95.1997 67.1779 94.8965 67.3039 94.5803 67.3039H94.5341ZM94.2509 60.8927C94.4837 61.1093 94.7933 61.224 95.1111 61.2116H95.1168H95.1918C95.5131 61.2131 95.8216 61.0858 96.0482 60.8581C96.2748 60.6304 96.4007 60.3213 96.3976 60V59.9481C96.3725 59.5984 96.2094 59.2731 95.9443 59.0437C95.6792 58.8143 95.3338 58.6997 94.9841 58.7251H94.9034C94.5989 58.7557 94.319 58.906 94.1254 59.1429C93.9317 59.3798 93.8401 59.684 93.8707 59.9885C93.8678 60.0115 93.8678 60.0348 93.8707 60.0577C93.8812 60.3756 94.018 60.6761 94.2509 60.8927Z" fill="#004B6A"/>
</svg>
