<svg width="120" height="120" viewBox="0 0 120 120" fill="none" xmlns="http://www.w3.org/2000/svg">
<path fill-rule="evenodd" clip-rule="evenodd" d="M60 0C93.132 0 120 26.868 120 60C120 93.132 93.132 120 60 120C26.868 120 0 93.132 0 60C0 26.868 26.868 0 60 0Z" fill="#B41514"/>
<path d="M59.52 99C55.0796 99 51.48 95.4004 51.48 90.96C51.48 86.5196 55.0796 82.92 59.52 82.92C63.9604 82.92 67.56 86.5196 67.56 90.96C67.56 95.4004 63.9604 99 59.52 99Z" fill="white"/>
<path d="M59.52 43.56C55.0796 43.56 51.48 39.9604 51.48 35.52C51.48 31.0796 55.0796 27.48 59.52 27.48C63.9604 27.48 67.56 31.0796 67.56 35.52C67.56 39.9604 63.9604 43.56 59.52 43.56Z" fill="white"/>
<path d="M26.6401 77.52V66.36H92.4001V77.52H26.6401Z" fill="white"/>
<path d="M59.5198 60.84C40.7638 60.84 25.4998 45.96 24.8638 27.36H36.7558C37.3798 39.396 47.3398 48.96 59.5198 48.96C71.6998 48.96 81.6598 39.396 82.2838 27.36H94.1758C93.5398 45.96 78.2758 60.84 59.5198 60.84Z" fill="white"/>
</svg>
