<svg width="120" height="120" viewBox="0 0 120 120" fill="none" xmlns="http://www.w3.org/2000/svg">
<circle cx="60" cy="60" r="60" fill="#EDF0F4"/>
<path d="M25.1065 61.5041H25.0534H25V58.2396C25.0365 58.2396 25.073 58.2396 25.1094 58.2396C25.2314 58.3483 25.2988 58.506 25.2929 58.6694C25.3254 59.4714 25.3254 60.2738 25.2929 61.0767C25.2988 61.2401 25.2303 61.3971 25.1065 61.5041Z" fill="#FEF5F6"/>
<path d="M53.5138 47.8875C54.9273 48.3993 56.397 48.7099 57.8442 49.0977C65.4037 51.1231 72.9646 53.1425 80.5272 55.1559C85.1686 56.3936 89.8116 57.6258 94.4559 58.8521C94.8563 58.9575 95.011 59.1305 94.9832 59.5566C94.9394 60.2186 94.9744 60.8854 94.9526 61.5494C94.9381 61.9879 94.7879 62.1734 94.2717 62.0186C92.9507 61.6223 91.6061 61.3051 90.2746 60.943C89.9529 60.8555 89.8083 60.8992 89.9161 61.2638C89.9332 61.3213 89.9365 61.383 89.9527 61.4407C90.2486 62.5041 90.0537 62.3046 91.0799 62.3414C92.2008 62.3814 93.321 62.4429 94.4421 62.4656C94.81 62.473 94.8902 62.6371 94.8541 62.9507C94.7667 63.7074 94.6892 64.4653 94.5945 65.2211C94.558 65.5122 94.4034 65.5964 94.0873 65.5514C93.1749 65.4217 92.2441 65.5514 91.3301 65.3869C90.9583 65.3213 90.897 65.4781 90.9856 65.8243C91.179 66.5821 91.3391 67.3489 91.4981 68.1153C91.5637 68.4326 91.7399 68.5217 92.0483 68.5258C92.5476 68.5324 93.0459 68.6015 93.5456 68.6207C93.8216 68.6312 93.8892 68.7113 93.8002 68.9866C93.5471 69.7692 93.321 70.5613 93.0822 71.3487C93.0421 71.4799 93.0152 71.6656 92.8376 71.6442C92.2117 71.5687 92.4083 71.9626 92.4722 72.2721C92.5085 72.447 92.608 72.6192 92.5378 72.8007C91.977 74.3124 91.2826 75.7712 90.4629 77.1598C90.1504 75.8497 89.8628 74.6759 89.5909 73.4984C88.8053 70.0959 88.0228 66.6926 87.2435 63.2884C87.0228 62.3302 86.7672 61.3793 86.5791 60.4148C86.5404 60.0902 86.2847 59.8341 85.9601 59.7947C85.1835 59.601 84.4044 59.4115 83.6403 59.1749C83.1469 59.0218 83.1396 59.1968 83.235 59.5992C83.766 61.8451 84.2796 64.0954 84.7999 66.344C85.8814 71.0171 86.9655 75.6894 88.0521 80.3613C88.1312 80.5916 88.0923 80.8459 87.948 81.0421C87.3308 81.8338 86.7232 82.6336 86.0367 83.3685C85.7246 83.702 85.6391 83.627 85.5441 83.2132C84.7277 79.6529 83.8903 76.0975 83.0653 72.5391C82.2812 69.1564 81.5011 65.7729 80.7251 62.3888C80.4272 61.0985 80.1127 59.8116 79.8363 58.5177C79.8131 58.2767 79.6316 58.0811 79.3929 58.04C78.559 57.8279 77.7227 57.6223 76.8966 57.3817C76.4325 57.2465 76.4036 57.3817 76.5029 57.7999C77.1549 60.5337 77.7852 63.2715 78.4199 66.0089C79.7483 71.7376 81.0753 77.4666 82.4004 83.1962C82.4308 83.374 82.4503 83.5535 82.4586 83.7337C82.3984 83.8162 82.2965 83.8569 82.1961 83.8385C81.1286 83.5564 80.0309 83.3689 79.0485 82.8193C78.9227 82.5932 78.844 82.3441 78.8166 82.0869C78.6272 81.1967 78.6126 81.1869 77.7071 81.413C77.2072 81.5379 76.7103 81.6755 76.2048 81.7781C75.2075 81.6188 74.3583 81.069 73.4364 80.7103C72.9596 80.5089 72.4962 80.2777 72.0485 80.0179C71.8516 79.9112 71.5811 79.8501 71.5982 79.5332C71.7771 79.3062 72.0507 79.2894 72.298 79.2255C73.8509 78.8244 75.4201 78.4904 76.9714 78.0821C77.128 78.0471 77.2826 78.0038 77.4346 77.9526C77.5877 77.8949 77.7441 77.8306 77.7222 77.6226C77.7106 77.4548 77.5827 77.3184 77.416 77.2963C77.1245 77.221 76.8257 77.1775 76.525 77.1664C75.4415 77.1836 74.3653 77.0583 73.2848 77.0288C72.7643 77.0266 72.244 76.996 71.7268 76.9374C70.6949 76.797 69.6928 76.9833 68.7027 77.2753C68.3982 77.3772 68.0835 77.445 67.7642 77.478C67.4816 77.4686 67.2091 77.3711 66.9849 77.1989C65.3719 76.1439 63.7754 75.0654 62.2608 73.8691C62.0817 73.7396 61.9201 73.5876 61.7796 73.417C61.6541 73.2506 61.7462 73.1651 61.9019 73.1054C63.1448 72.9426 64.3818 73.1587 65.6169 73.2119C66.7131 73.2589 67.8173 73.3282 68.9133 73.3731C70.9534 73.4566 72.9889 73.6504 75.0325 73.6539C75.4542 73.6539 75.8656 73.7689 76.2892 73.7652C76.6766 73.7619 76.8452 73.6143 76.7453 73.2075C76.6062 72.6413 76.4541 72.0779 76.3385 71.5062C76.2982 71.1928 76.0163 70.9681 75.7018 70.9988C74.0013 70.9401 72.3024 70.838 70.6043 70.7394C68.5863 70.6219 66.5646 70.5913 64.5485 70.422C63.5728 70.3402 62.5889 70.3199 61.6101 70.2908C60.5083 70.2576 59.4132 70.1246 58.3122 70.123C58.1707 70.1187 58.0345 70.0686 57.924 69.98C56.93 69.0494 55.9196 68.1337 55.0896 67.0441C54.9629 66.8776 54.8555 66.6863 55.1652 66.5756C56.3091 66.4802 57.4494 66.6211 58.585 66.6849C59.6037 66.7425 60.6284 66.8028 61.6458 66.8479C63.7286 66.9402 65.8111 67.039 67.8937 67.1447C69.8749 67.2431 71.8613 67.2739 73.8382 67.4675C74.1986 67.4948 74.5606 67.4966 74.9212 67.4727C75.2292 67.4592 75.3519 67.3039 75.2948 66.9994C75.1784 66.386 75.0304 65.779 74.851 65.1809C74.7379 64.8001 74.4241 64.7238 74.0886 64.7216C73.3054 64.7179 72.5255 64.624 71.7462 64.6076C68.8188 64.5462 65.8988 64.3308 62.976 64.1995C60.2139 64.0755 57.4492 63.9624 54.6904 63.758C53.8659 63.6969 53.8195 63.7361 53.7211 64.5429C53.7305 64.7262 53.6592 64.9042 53.5264 65.0306C53.2299 64.9243 53.2461 64.6549 53.2461 64.4255C53.2461 60.4848 53.1925 56.5438 53.2679 52.6051C53.3497 52.1707 53.8086 52.1259 54.0481 51.8521C54.1323 51.7559 54.3271 51.7209 54.2668 51.5459C54.2254 51.4267 54.0741 51.4306 53.9652 51.3915C53.7222 51.304 53.3838 51.3915 53.2926 51.0214C53.2489 49.9891 53.1559 48.957 53.3443 47.9295C53.3637 47.8751 53.4236 47.8467 53.4781 47.8661C53.4912 47.8707 53.5035 47.8781 53.5138 47.8875Z" fill="#ABACAC"/>
<path d="M54.9966 66.7258C55.9469 67.8806 56.9805 68.9639 58.0891 69.9675C58.7164 70.2346 59.0923 70.8082 59.5807 71.2387C60.3215 71.8917 61.1611 72.4416 61.7724 73.2385C63.5883 74.782 65.5392 76.159 67.6019 77.3529C68.2834 77.5416 68.8266 77.9935 69.4342 78.3248C70.0086 78.6385 70.5741 78.9674 71.1646 79.2509C71.356 79.3117 71.5168 79.4438 71.6132 79.6198C73.0803 80.4218 74.6067 81.1103 76.179 81.6792C77.1971 81.911 78.1983 82.189 79.0926 82.7576C80.189 83.1647 81.3138 83.4907 82.4579 83.7337C83.2595 84.0651 84.1269 84.1445 85.0759 84.4277C84.5947 84.8883 84.1632 85.3174 83.7148 85.7281C82.3418 86.9864 82.3392 86.9838 80.5906 86.4801C59.7117 80.4669 44.0194 63.6877 39.3711 42.396C38.7391 39.3822 38.3257 36.3264 38.1348 33.2528C38.0718 32.8548 38.2526 32.4576 38.5941 32.2435C39.421 31.6501 40.2237 31.0229 41.1606 30.4466C41.175 36.4515 42.2218 42.4093 44.2551 48.0594V47.4514C44.2551 41.3886 44.2514 35.3255 44.2442 29.2627C44.2431 28.8183 44.3562 28.565 44.7719 28.3925C45.6002 28.0489 46.4107 27.6624 47.2291 27.2932C47.3289 27.5122 47.3606 27.756 47.3203 27.9931C47.3236 37.0168 47.3249 46.0408 47.3247 55.0647C47.3039 55.244 47.3219 55.4258 47.3774 55.5975C48.2334 57.3377 49.2445 58.9973 50.3987 60.5558V59.9294C50.3987 48.9317 50.3947 37.9339 50.3871 26.9361C50.3871 26.4123 50.4831 26.1573 51.0489 26.049C51.85 25.8959 52.6352 25.652 53.4455 25.5287C53.6456 25.7647 53.5997 26.0536 53.6135 26.3285C53.6686 27.4221 53.5535 28.511 53.4982 29.6015C53.6358 30.8249 53.7042 32.0473 53.4455 33.2651C53.4444 34.3643 53.4435 35.4635 53.4426 36.5628C53.5312 36.696 53.5811 36.851 53.5866 37.0109C53.6012 37.9844 53.6012 38.9581 53.5866 39.9316C53.5706 40.1301 53.5214 40.3246 53.4411 40.5068L53.4461 43.9265C53.531 44.0625 53.5793 44.218 53.5866 44.3781C53.6012 45.3551 53.6012 46.3319 53.5866 47.3088C53.5723 47.5083 53.5229 47.7036 53.4409 47.886L53.4825 51.1813C53.6729 51.5531 53.6703 51.9945 53.4755 52.3641C53.4652 56.4905 53.4556 60.6166 53.4468 64.743C53.4573 64.8204 53.4779 64.8961 53.5083 64.9681C54.129 65.4359 54.6375 66.0365 54.9966 66.7258Z" fill="#EE1D55"/>
<path d="M25.1065 61.5042L25.1094 58.239C25.0247 56.7048 25.935 55.5809 26.6841 54.3898C26.8641 54.103 27.034 53.8091 27.207 53.5184C27.4476 52.7589 27.9662 52.1655 28.4241 51.5459C28.696 51.222 28.7664 50.7745 28.607 50.3828C28.4624 49.9552 28.2258 49.5366 28.3423 49.0533C28.3087 48.8352 28.2548 48.6209 28.182 48.4127C27.6009 47.1262 27.8382 45.9367 28.521 44.7602C28.9917 43.9488 29.3534 43.0744 29.9426 42.1827C32.1041 53.7181 36.8018 63.9747 44.1408 72.9798C51.4883 81.9952 60.5855 88.6554 71.4138 93.0987C69.9246 93.6209 68.4013 94.0402 66.8546 94.3538C66.6538 94.375 66.452 94.325 66.2846 94.2121C65.4527 93.8171 64.6216 93.4197 63.7914 93.0199C63.17 92.9086 62.6707 92.5296 62.1353 92.2385C60.5387 91.3706 59.0104 90.3886 57.4781 89.4136C56.4025 88.639 55.2834 87.9264 54.2371 87.1089C54.0046 86.8858 53.6903 86.7537 53.5219 86.4635C53.5018 86.4335 53.4825 86.3677 53.4674 86.3679C53.4145 86.3679 53.4329 86.3852 53.4703 86.4291C53.5308 86.5089 53.5687 86.6039 53.5796 86.7034C53.6069 88.7765 53.6056 90.8479 53.5759 92.9178C53.5612 93.3954 53.5129 93.8714 53.4311 94.342C52.4924 94.2556 51.599 93.9599 50.6865 93.7515C50.3082 93.664 50.4002 93.372 50.4 93.1264C50.397 90.2274 50.3889 87.3282 50.4081 84.4295C50.4302 84.0518 50.2638 83.6874 49.9635 83.4571C49.0994 82.7135 48.2689 81.9309 47.4149 81.1545C47.2504 81.3594 47.3274 81.5661 47.3274 81.7533C47.3215 85.1558 47.3199 88.558 47.3228 91.9603C47.3228 92.623 47.3178 92.6306 46.6885 92.3566C46.028 92.0692 45.3811 91.7494 44.7156 91.4747C44.3416 91.3203 44.2447 91.085 44.2462 90.6891C44.2617 86.6023 44.2512 82.5155 44.263 78.4287C44.2799 78.0712 44.1513 77.7219 43.9063 77.4605C43.0282 76.4779 42.1825 75.4661 41.2422 74.3695C41.2271 74.6879 41.209 74.8961 41.2088 75.1046C41.2072 79.6946 41.2026 84.2849 41.1954 88.8749C41.1954 89.011 41.4378 89.3524 40.9931 89.3185C40.9509 89.0197 40.9411 88.7173 40.9636 88.4163C40.9623 84.0325 40.954 79.6489 40.9719 75.2653C40.9964 74.6407 40.7799 74.0305 40.3674 73.5609C39.5645 72.5835 38.8178 71.5613 38.1311 70.499C37.8643 69.9621 37.5541 69.4479 37.2042 68.961C37.1917 68.946 37.1823 68.9278 37.1697 68.9131C37.008 68.7303 36.9702 68.3511 36.6804 68.395C36.454 68.4294 36.4341 68.7701 36.3405 68.9855C35.9114 69.926 35.4908 70.8691 35.0993 71.8257C34.7057 72.8744 34.2936 73.9157 33.9533 74.9836C33.8103 75.4228 33.6489 75.8556 33.5343 76.304C33.1281 77.679 32.7653 79.0652 32.4309 80.4595C32.3832 80.6587 32.4044 80.915 32.1267 80.9881C31.2798 79.9916 30.6213 78.8666 29.9299 77.7634C29.7716 77.5108 29.8709 77.3041 29.9321 77.0782C31.0397 72.9903 32.5967 69.0376 34.5747 65.2926C34.7748 64.9934 34.7768 64.6037 34.5799 64.3023C34.0839 63.4325 33.6456 62.5292 33.1841 61.6395C33.0527 61.4558 32.9637 61.2454 32.9234 61.0232C32.8665 61.2566 33.1581 61.4062 33.0765 61.6389C30.931 65.3712 29.1745 69.314 27.8345 73.4052C27.4524 72.8191 27.2989 72.2165 27.092 71.6439C26.0859 68.86 26.0982 68.8596 27.317 66.1543C28.4709 63.5675 29.7959 61.0602 31.2831 58.6493C31.4972 58.3589 31.5278 57.9722 31.3623 57.6518C30.9526 56.7184 30.5874 55.7652 30.1646 54.7222C28.3371 57.4436 26.7066 60.2925 25.2861 63.247L25.1065 61.5042Z" fill="#EE1D55"/>
<path d="M35.2078 35.2816C37.5176 61.1026 55.2462 82.1615 79.0927 89.2573C78.7646 89.6433 78.3226 89.8327 77.9252 90.0704C75.6181 91.45 75.6014 91.4796 73.1136 90.4512C53.4427 82.3172 40.5183 68.0316 34.3404 47.5941C33.5078 44.7148 32.8963 41.776 32.5107 38.8035C32.4534 38.6091 32.4869 38.3993 32.6015 38.2322C33.4173 37.203 34.2873 36.2181 35.2078 35.2816Z" fill="#EE1D55"/>
<path d="M86.3536 36.8668C86.9253 37.6368 86.9264 37.6384 86.1699 38.2267C85.7747 38.5329 85.3751 38.8354 84.9772 39.1394C84.6085 39.1531 84.846 39.3655 84.8589 39.5039C85.061 40.3418 85.2852 41.1751 85.4573 42.0191C85.5594 42.5197 85.6876 42.5692 86.0824 42.2288C86.8417 41.574 87.6571 40.985 88.4202 40.3346C88.7264 40.0732 88.881 40.131 89.0678 40.4394C89.4317 41.0406 89.8041 41.637 90.1926 42.2225C90.4098 42.5506 90.4038 42.7693 90.05 43.0114C89.5542 43.3497 89.096 43.7445 88.6303 44.1255C88.5328 44.2053 88.358 44.2747 88.4228 44.4483C88.4702 44.5756 88.6209 44.5577 88.7353 44.5889C89.6045 44.8236 90.4677 45.0819 91.3428 45.2914C91.6833 45.3459 91.965 45.586 92.0724 45.9137C92.388 46.7605 92.7285 47.5977 93.0537 48.4411C93.1025 48.5677 93.2202 48.7142 93.1301 48.8391C93.005 49.0123 92.8366 48.8689 92.6926 48.8304C88.6489 47.7589 84.6054 46.6857 80.5624 45.611C75.6495 44.3022 70.7375 42.9906 65.826 41.6762C65.478 41.5832 65.1298 41.4907 64.7814 41.3986C64.7611 41.2427 64.8827 41.1884 64.9861 41.1434C66.5276 40.4405 68.1259 39.8698 69.7641 39.4375C70.1101 39.4945 70.383 39.7697 70.7349 39.7603C70.6037 39.6133 70.0912 39.839 70.2855 39.3255C70.8464 39.0127 71.4227 38.761 72.0881 38.8327C72.3601 38.9992 72.3916 39.2944 72.4487 39.5623C72.4984 39.9309 72.7877 40.2213 73.156 40.2723C73.9355 40.4306 74.6811 40.7303 75.5224 40.8687C75.4787 40.2005 75.2766 39.6002 75.1454 38.9878C75.0844 38.7035 74.9214 38.4174 75.0999 38.1167C76.0915 37.716 77.1523 37.5144 78.2218 37.5235C78.5262 38.12 78.5686 38.789 78.7285 39.4248C78.8851 40.047 79.0511 40.669 79.1602 41.3024C79.2055 41.6937 79.5019 42.0088 79.8896 42.0777C80.53 42.2387 81.1745 42.3839 81.8088 42.5687C82.1902 42.6794 82.2878 42.5383 82.1979 42.1818C81.844 40.7803 81.5334 39.3686 81.2137 37.9592C81.1413 37.6397 80.8111 37.5268 80.7614 37.2208C80.853 37.1124 80.9878 37.0496 81.1297 37.0487C82.6935 36.9348 84.2607 36.8834 85.8256 36.7843C86.0041 36.792 86.1812 36.8197 86.3536 36.8668Z" fill="#ABACAC"/>
<path d="M60.5221 43.4193C63.614 44.2504 66.7061 45.0815 69.7982 45.9126C77.7445 48.0397 85.6918 50.1625 93.6399 52.2807C94.0235 52.3826 94.2122 52.527 94.2741 52.9401C94.3883 53.6925 94.5309 54.4411 94.6532 55.1928C94.7328 55.6816 94.6698 55.7575 94.1969 55.6263C92.4228 55.1336 90.6392 54.6749 88.8604 54.1999C78.2839 51.3748 67.7073 48.5489 57.1308 45.7221C56.9954 45.686 56.8585 45.6565 56.7222 45.6239C56.6835 45.4391 56.8375 45.3846 56.9451 45.3105C57.9678 44.6053 59.0703 44.036 60.1501 43.4296C60.2603 43.3668 60.3948 43.2662 60.5221 43.4193Z" fill="#ABACAC"/>
<path d="M60.5221 43.4193C59.212 44.0771 57.9429 44.8135 56.7216 45.6243L53.7034 47.6274C53.5433 47.6522 53.486 47.5577 53.4895 47.4221C53.519 46.2763 53.4117 45.128 53.5466 43.984C60.7192 39.1035 68.893 35.8902 77.469 34.5795C79.3519 34.2858 81.2489 34.1145 83.1497 33.9824C83.4098 33.9693 83.6615 34.076 83.8328 34.272C84.7201 35.0906 85.54 35.9744 86.3523 36.8665C85.727 37.1071 85.0669 37.0021 84.4246 37.0402C83.2186 37.1119 82.0098 37.1355 80.8096 37.2915C80.5366 37.6136 80.1386 37.5275 79.7978 37.5644C79.2703 37.6215 78.7388 37.8461 78.2012 37.6121C77.1646 37.7409 76.1366 37.9327 75.1231 38.186C74.1647 38.6007 73.1414 38.8447 72.099 38.9077C71.4796 39.011 70.8725 39.1767 70.2868 39.4029C70.17 39.5389 69.9839 39.5927 69.8124 39.5402C68.0949 40.0461 66.4133 40.6672 64.7793 41.3993C63.3148 41.9721 61.8921 42.6472 60.5221 43.4193Z" fill="#EE1D55"/>
<path d="M53.781 36.5907C57.1861 34.5535 60.7856 32.8602 64.526 31.5357C68.0511 30.2674 71.6804 29.3104 75.3726 28.6757C75.566 28.6241 75.7716 28.6415 75.9533 28.7253C77.3362 29.4333 78.6673 30.2381 79.9367 31.1337C78.7534 31.307 77.6581 31.4557 76.5666 31.6289C68.6274 32.8834 61.017 35.7052 54.1791 39.9298C54.0091 40.0341 53.8322 40.1266 53.6583 40.2244C53.3959 40.201 53.4925 39.9928 53.4912 39.8609C53.4823 38.9397 53.4965 38.018 53.4801 37.0971C53.4422 36.8773 53.5697 36.6625 53.781 36.5907Z" fill="#EE1D55"/>
<path d="M53.6655 29.6087C56.972 27.8424 60.428 26.3713 63.9934 25.2128C64.6042 25.012 65.2164 25.2758 65.8196 25.3709C67.4328 25.622 69.0224 26.0067 70.5719 26.5211C68.5522 27.032 66.6444 27.5655 64.7663 28.2004C61.0424 29.4571 57.4352 31.0359 53.9855 32.919C53.8457 32.9954 53.6972 33.0551 53.5529 33.1226C53.407 32.0291 53.5161 30.9312 53.4965 29.8355C53.5026 29.7329 53.5691 29.6439 53.6655 29.6087Z" fill="#EE1D55"/>
<path d="M57.5273 89.3032C59.5831 90.5975 61.6773 91.8242 63.7909 93.019C63.7447 93.5061 63.6984 93.9934 63.652 94.4804C63.5315 94.6429 63.5138 94.873 63.2032 94.8761C62.4447 94.884 61.6867 94.9417 60.9286 94.9887C60.573 95.0106 60.3749 94.9909 60.4862 94.5058C60.6644 93.7274 60.7309 92.9239 60.8604 92.1337C60.9142 91.8056 60.8309 91.6744 60.4858 91.7619C59.6724 91.9694 58.8579 92.172 58.0421 92.369C57.7976 92.3972 57.6161 92.6094 57.6266 92.8554C57.5852 93.3932 57.4623 93.9243 57.4017 94.4612C57.3674 94.7639 57.2344 94.8986 56.9365 94.8662C56.1435 94.7788 55.35 94.6941 54.5581 94.5983C54.3785 94.5765 54.2611 94.4748 54.3284 94.2639C54.3361 94.2453 54.3418 94.2259 54.3453 94.2062C54.4341 93.2631 54.4341 93.2631 53.5678 93.4188C53.3906 92.6315 53.5312 91.8328 53.4895 91.0404C53.4779 90.8217 53.4873 90.5999 53.4882 90.3803C53.5083 90.2371 53.6189 90.1233 53.7615 90.0993C54.8999 89.7504 56.06 89.4766 57.2342 89.2798C57.3324 89.2649 57.4328 89.2728 57.5273 89.3032Z" fill="#ABACAC"/>
<path d="M53.4372 29.5638C53.4394 28.219 53.4418 26.8739 53.4444 25.5291C55.3561 25.1304 57.3081 24.9559 59.2603 25.0094C58.1007 25.7778 56.9411 26.5461 55.7813 27.3144C55.2639 27.6567 54.7626 28.0292 54.2206 28.3262C53.713 28.6044 53.4228 28.9565 53.507 29.5553C53.4925 29.6325 53.4689 29.6316 53.4372 29.5638Z" fill="#ABABAC"/>
<path d="M28.3419 49.053C28.9842 50.3434 28.9689 51.5371 27.8679 52.6053C27.6206 52.8891 27.3992 53.1947 27.2063 53.5181L25.5411 54.5358C25.7237 53.1507 26.0159 51.7822 26.4146 50.4433C26.492 50.1809 26.7427 50.1004 26.9345 49.9685C27.3955 49.6516 27.8719 49.3568 28.3419 49.053Z" fill="#ABACAC"/>
<path d="M53.781 36.5907C53.6949 36.7381 53.537 36.8313 53.5405 37.0452C53.5545 38.037 53.547 39.0293 53.5553 40.0214C53.5553 40.0894 53.6227 40.1567 53.6588 40.2243L53.4412 40.5071C53.4412 39.1927 53.4416 37.878 53.4427 36.5634C53.5488 36.6535 53.666 36.6084 53.781 36.5907Z" fill="#EF4464"/>
<path d="M53.5472 43.9839C53.5472 44.9985 53.542 46.0131 53.5472 47.0277C53.5483 47.2364 53.4742 47.4748 53.7038 47.6274L53.5138 47.887L53.477 47.88L53.4401 47.8864C53.442 46.5667 53.4438 45.2472 53.4455 43.9277C53.4853 43.9328 53.5219 43.9529 53.5472 43.9839Z" fill="#EF4263"/>
<path d="M53.4372 29.5639C53.4604 29.5733 53.4866 29.5702 53.5072 29.5558L53.6655 29.6089C53.4269 30.1047 53.57 30.6321 53.5511 31.1441C53.5269 31.8028 53.55 32.4631 53.5527 33.1227L53.4451 33.2655C53.4424 32.0322 53.4398 30.7985 53.4372 29.5639Z" fill="#EF4263"/>
<path d="M84.8587 39.504C84.6536 39.3264 84.7804 39.0716 84.691 38.854C84.9283 38.8299 84.8222 39.1108 84.9771 39.1383L84.8587 39.504Z" fill="#B1B2B2"/>
<path d="M38.1366 70.3306C38.8935 71.3312 39.603 72.3733 40.4234 73.3186C41.0102 73.9946 41.1519 74.7045 41.1451 75.5641C41.1123 79.9231 41.1316 84.2825 41.1257 88.6418C41.1257 88.8694 41.223 89.1301 40.992 89.3174C40.0772 88.7568 39.2002 88.137 38.3664 87.4618C38.1762 87.3164 38.0777 87.0804 38.1084 86.8429C38.1097 86.0848 38.0961 85.3268 38.0882 84.5683C37.9754 84.4025 37.9242 84.2022 37.9437 84.0025C37.9338 83.0489 37.9369 82.0954 37.941 81.1418C37.9491 80.9229 37.9994 80.7074 38.0891 80.5075C38.088 79.2069 38.0867 77.9064 38.0856 76.6058C37.9658 76.4172 37.9148 76.1933 37.941 75.9715C37.941 74.6623 37.9192 73.3529 37.9509 72.0437C37.9964 71.4714 37.7816 70.8708 38.1366 70.3306Z" fill="#ED1A47"/>
<path d="M38.0862 72.0286C38.0862 73.5549 38.0862 75.0813 38.0862 76.6075C36.3309 77.9987 34.5812 79.3973 32.8112 80.7699C32.6406 80.9012 32.4809 81.3386 32.1271 80.9858C32.5468 79.4098 32.8552 77.8036 33.403 76.2617C33.8872 75.7923 34.3507 75.2952 34.9979 75.0404C35.2505 74.9796 35.5112 74.9599 35.7699 74.9827C35.4792 74.958 35.1864 74.9803 34.9027 75.0483C34.5298 75.0942 34.1508 75.1905 33.8264 74.8967C34.1547 73.8469 34.5394 72.8157 34.9793 71.8077C36.0177 71.6314 37.0832 71.7073 38.0862 72.0286Z" fill="#ABACAC"/>
<path d="M38.0893 80.509C38.0893 81.8626 38.0893 83.216 38.0893 84.5691C37.4071 84.6284 36.7628 84.8607 36.1019 85.0153C35.8762 85.1078 35.617 85.0494 35.4525 84.8694C34.8159 84.1735 34.1731 83.4833 33.524 82.7989C33.2969 82.5583 33.3989 82.4709 33.6672 82.4175C33.9804 82.3547 34.2859 82.2425 34.6013 82.2029C35.9195 82.0402 37.1462 81.4442 38.0893 80.509Z" fill="#ABACAC"/>
<path d="M53.5623 90.2788C53.5637 91.3257 53.565 92.3729 53.5665 93.4201C53.4497 93.7167 53.6518 94.0607 53.4313 94.3417C53.4386 91.7008 53.4458 89.0603 53.4532 86.4201C53.4733 86.3558 53.5044 86.3464 53.5481 86.4013L54.2668 86.9763C53.7887 87.2787 53.7117 87.726 53.7095 88.2621C53.7054 88.9335 53.8755 89.6275 53.5623 90.2788Z" fill="#C1A0A4"/>
<path d="M33.0758 61.6366C33.0056 61.4345 32.8294 61.2716 32.8571 60.9429C33.0382 61.1331 33.1533 61.3766 33.1852 61.6373L33.131 61.6318L33.0758 61.6366Z" fill="#EF3C60"/>
<path d="M54.9966 66.7258C54.4524 66.1825 53.9544 65.5948 53.5081 64.9689C53.5146 64.8481 53.5266 64.7283 53.5277 64.6073C53.5378 63.5346 53.5378 63.5201 54.6344 63.5713C57.9745 63.7273 61.3151 63.8795 64.6537 64.0639C67.0527 64.1964 69.4513 64.3322 71.8521 64.433C72.6716 64.4674 73.4924 64.5205 74.3121 64.5402C74.7388 64.5507 75.0013 64.7023 75.0776 65.1812C75.1869 65.8533 75.3556 66.5173 75.5305 67.1765C75.6281 67.5442 75.5625 67.7036 75.1528 67.6815C72.8741 67.5588 70.5949 67.442 68.3153 67.3316C67.3952 67.2859 66.4749 67.2592 65.5546 67.2078C62.5952 67.0425 59.6321 66.9453 56.6717 66.7977C56.1142 66.7704 55.5591 66.6698 54.9966 66.7258Z" fill="white"/>
<path d="M61.7722 73.2388C60.4591 72.2484 59.2273 71.1545 58.0889 69.9675C61.1896 70.0653 64.2871 70.2252 67.3841 70.4224C68.3429 70.4835 69.3037 70.48 70.2645 70.5471C72.1611 70.6783 74.0632 70.7389 75.9638 70.8058C76.2114 70.773 76.4388 70.9473 76.4714 71.1949C76.4734 71.2098 76.4747 71.2249 76.4751 71.24C76.6304 71.986 76.8198 72.725 77.0038 73.4649C77.0965 73.838 76.9725 73.9773 76.5852 73.9537C74.6281 73.8345 72.6703 73.735 70.7128 73.616C69.8734 73.5651 69.0333 73.5697 68.1924 73.5146C66.0548 73.3744 63.9123 73.3247 61.7722 73.2388Z" fill="white"/>
<path d="M60.1653 55.08C58.9727 55.8907 57.8951 56.8515 56.7603 57.7364C55.7078 58.5574 54.6687 59.3955 53.5306 60.3001C53.5306 58.9878 53.5317 57.7904 53.5306 56.5923C53.5306 56.3579 53.6872 56.236 53.846 56.1112C55.2916 54.9667 56.7414 53.8272 58.1775 52.6704C58.3273 52.5066 58.565 52.4568 58.768 52.5464C58.845 52.5683 58.9235 52.5845 59.0029 52.5948C60.6104 53.014 60.6098 53.0142 60.3071 54.6609C60.2937 54.7606 60.2854 54.8608 60.2826 54.9614C60.2618 55.0154 60.2191 55.0585 60.1653 55.08Z" fill="white"/>
<path d="M64.6539 61.0146C64.0549 60.9774 63.4563 60.9271 62.8568 60.9085C62.5635 60.8993 62.4973 60.8239 62.5465 60.5148C62.8336 58.7133 63.0683 56.9033 63.3671 55.1038C63.5818 53.8103 63.6203 53.7937 64.8814 54.1714C65.4137 54.3308 66.139 54.2687 66.4316 54.6963C66.7054 55.0965 66.3583 55.7295 66.2914 56.259C66.1165 57.6508 65.8481 59.0318 65.6915 60.4254C65.6047 61.1992 65.0995 60.9999 64.6539 61.0146Z" fill="white"/>
<path d="M71.6133 79.6192C70.2133 78.9806 68.8711 78.2221 67.6019 77.3521C68.1671 77.2208 68.7425 77.1239 69.295 76.9525C70.2205 76.6651 71.1457 76.7338 72.0894 76.8099C73.3067 76.9083 74.5309 76.9216 75.7515 76.9792C76.2676 77.0404 76.7873 77.0697 77.3071 77.0666C77.834 77.0253 77.8977 77.3444 77.9703 77.7048C78.0667 78.1873 77.6332 78.0926 77.4196 78.1471C75.5776 78.6164 73.728 79.056 71.8814 79.5074C71.7891 79.5376 71.6997 79.575 71.6133 79.6192Z" fill="white"/>
<path d="M72.4614 56.5843C72.2265 58.0704 71.985 59.5554 71.7615 61.0433C71.7156 61.3495 71.5463 61.4096 71.3022 61.3556C70.6483 61.2473 69.9838 61.2169 69.3227 61.2655C68.812 61.2749 68.6386 61.1102 68.7225 60.6054C68.9135 59.4579 69.0832 58.3066 69.2593 57.1564C69.326 56.7201 69.3944 56.284 69.4465 55.8459C69.4828 55.5397 69.5996 55.4218 69.9239 55.515C70.6551 55.7243 71.3941 55.906 72.1298 56.0987C72.3411 56.1204 72.4951 56.3091 72.4734 56.5206C72.4712 56.542 72.4671 56.5635 72.4614 56.5843Z" fill="white"/>
<path d="M79.0927 82.7578C78.0962 82.4704 77.1223 82.11 76.179 81.6793C76.8813 81.3933 77.6334 81.2944 78.3595 81.0969C78.5332 81.0241 78.7329 81.1059 78.8055 81.2795C78.8226 81.3202 78.8315 81.3638 78.832 81.4077C78.9118 81.8589 79.0052 82.3079 79.0927 82.7578Z" fill="#FDFCFC"/>
<path d="M59.5035 59.5071C59.6164 60.7469 59.5473 60.8036 58.1628 60.6131C58.5729 60.2019 59.0219 59.8314 59.5035 59.5071Z" fill="#F6F6F5"/>
<path d="M53.476 52.3647C53.4781 51.971 53.4803 51.5769 53.4827 51.1824C53.8696 51.2099 54.4129 51.185 54.529 51.5157C54.6323 51.8096 54.0551 51.9507 53.8292 52.2127C53.7364 52.3175 53.6352 52.4141 53.476 52.3647Z" fill="#FBF1F0"/>
<path d="M60.1654 55.08L60.2821 54.9608C60.2732 55.6137 60.1721 56.2621 59.9819 56.8868C59.906 56.2713 60.0709 55.6786 60.1654 55.08Z" fill="#B0B1B1"/>
<path d="M60.9284 60.7473C60.6399 60.9612 60.3348 60.8694 59.9254 60.9092C60.2977 60.5105 60.6277 60.7226 60.9284 60.7473Z" fill="#B0B1B1"/>
<path d="M74.3121 62.1478C74.2434 61.4963 73.8047 61.4176 73.2733 61.4825C74.2461 61.289 74.3825 61.3789 74.3121 62.1478Z" fill="#B2B3B3"/>
<path d="M73.6215 58.9492C73.3993 58.538 73.2897 58.0752 73.3037 57.608C73.5125 58.0242 73.6215 58.4835 73.6215 58.9492Z" fill="#B1B2B2"/>
<path d="M55.6265 60.5195C55.3658 60.6827 55.0395 60.6991 54.7637 60.5633C55.0834 60.3135 55.3592 60.4508 55.6265 60.5195Z" fill="#B0B1B1"/>
<path d="M80.0998 58.2844C80.4976 58.2494 80.8968 58.3361 81.2443 58.5327C80.8906 58.5771 80.5698 58.4763 80.0998 58.2844Z" fill="#B1B2B2"/>
<path d="M75.964 57.1324C75.5248 57.1366 75.0911 57.0331 74.7012 56.8308C75.1432 56.7969 75.585 56.9023 75.964 57.1324Z" fill="#B1B2B2"/>
<path d="M91.951 69.7162L92.2264 70.7844C91.916 70.4915 91.9412 70.1053 91.951 69.7162Z" fill="#B1B2B2"/>
<path d="M67.6139 76.5918H66.8158L66.8141 76.5312H67.6124L67.6139 76.5918Z" fill="#B5B6B6"/>
<path d="M68.8317 76.7007H68.1237L68.1248 76.6447H68.8328L68.8317 76.7007Z" fill="#B3B4B4"/>
<path d="M66.8143 61.0816C67.0639 61.002 67.332 61.0007 67.5822 61.0781C67.3329 61.1597 67.0643 61.1608 66.8143 61.0816Z" fill="#B4B4B5"/>
<path d="M62.1878 60.8768H61.5098L61.5082 60.8162H62.1976L62.1878 60.8768Z" fill="#B5B6B6"/>
<path d="M56.8845 60.6317H56.2021C56.4152 60.5174 56.6715 60.5174 56.8845 60.6317Z" fill="#B5B6B6"/>
<path d="M54.246 60.4602C54.0592 60.5504 53.8442 60.5622 53.6487 60.4931C53.8615 60.3411 54.0616 60.4602 54.246 60.4602Z" fill="#B5B6B7"/>
<path d="M50.9352 61.6141C51.2595 61.7141 51.2926 62.0225 51.4555 62.2381C51.1325 62.1371 51.0988 61.8291 50.9352 61.6141Z" fill="#EE365D"/>
<path d="M45.6941 51.9197L45.9806 52.5213C45.7441 52.4247 45.6199 52.1642 45.6941 51.9197Z" fill="#EE375E"/>
<path d="M46.7688 54.4425C46.6102 54.2927 46.5206 54.084 46.521 53.866C46.7091 53.9933 46.8058 54.2185 46.7688 54.4425Z" fill="#EE365E"/>
<path d="M52.8972 64.1704C52.6807 64.117 52.5118 63.9473 52.4598 63.7303C52.6665 63.8006 52.8283 63.9635 52.8972 64.1704Z" fill="#EE355D"/>
<path d="M52.058 63.0723C51.8693 63.0743 51.7956 62.9697 51.7641 62.8007C51.9712 62.8033 51.9957 62.9535 52.058 63.0723Z" fill="#EF385E"/>
<path d="M45.004 50.4722C44.8638 50.2071 44.7129 50.0864 44.8011 49.8749C44.9913 50.0059 44.9861 50.197 45.004 50.4722Z" fill="#EF395E"/>
<path d="M44.9819 50.2914C45.1226 50.5584 45.275 50.6783 45.1862 50.8898C44.9935 50.7596 45.0016 50.568 44.9819 50.2914Z" fill="#EE375D"/>
<path d="M53.5623 90.2788C53.5536 89.362 53.5575 88.4449 53.531 87.5286C53.5148 86.9639 53.9372 87.0474 54.2659 86.9763L57.5273 89.3032L53.5623 90.2788Z" fill="#FFFDFD"/>
<path d="M37.277 68.8711C36.9371 68.8652 36.5975 68.8589 36.2578 68.8525C36.3803 68.5835 36.5025 68.3152 36.6515 67.9875C36.9209 68.2338 37.1344 68.5352 37.277 68.8711Z" fill="#B4A9AA"/>
<path d="M47.2313 80.856L45.8272 79.4429L45.78 79.4888L47.1242 80.9616L47.2313 80.856Z" fill="#EE355C"/>
<path d="M29.6983 53.5546L29.3265 52.4663L29.4455 52.4226L29.8304 53.4943L29.6983 53.5546Z" fill="#EE375E"/>
<path d="M50.6279 84.051C50.8586 84.0729 50.9524 84.2371 51.1552 84.4666C50.9194 84.4283 50.7202 84.2713 50.6279 84.051Z" fill="#EE365D"/>
<path d="M51.8588 85.0737C52.1317 85.0866 52.2542 85.2835 52.4653 85.5674C52.205 85.491 51.9863 85.3134 51.8583 85.0744L51.8588 85.0737Z" fill="#EE345C"/>
<path d="M31.9854 59.086C31.701 58.966 31.7505 58.6876 31.6879 58.4623C31.9014 58.6154 31.9285 58.8579 31.9858 59.0856L31.9854 59.086Z" fill="#EE365E"/>
<path d="M51.8575 85.0743C51.6595 85.0654 51.4874 84.9363 51.4231 84.7489C51.6191 84.7627 51.789 84.8895 51.8579 85.0737L51.8575 85.0743Z" fill="#EE375E"/>
<path d="M53.547 86.4011C53.5177 86.4162 53.4849 86.4225 53.4521 86.4199C53.3241 86.3409 53.1662 86.2887 53.1518 86.0868C53.3777 86.0874 53.4514 86.258 53.547 86.4011Z" fill="#EF395E"/>
<path d="M31.9858 59.0857C32.1503 59.2001 32.2286 59.4028 32.1837 59.5981C32.0304 59.4754 31.9548 59.2799 31.9854 59.0859L31.9858 59.0857Z" fill="#EF385E"/>
<path d="M78.2018 37.6121L80.8099 37.2915C81.0457 37.2526 81.2684 37.4118 81.3075 37.6476C81.309 37.6565 81.3101 37.6655 81.311 37.6745C81.6743 39.273 82.0607 40.8663 82.431 42.4642C82.4966 42.7472 82.4649 42.9388 82.0717 42.8235C81.2491 42.5829 80.4158 42.3789 79.5887 42.153C79.3783 42.0954 79.1513 42.0397 79.0992 41.7729C78.8313 40.3786 78.3943 39.0219 78.2018 37.6121Z" fill="white"/>
<path d="M72.0999 38.907C73.0832 38.5726 74.0954 38.331 75.1237 38.1853C75.3173 39.0203 75.5056 39.8567 75.7064 40.69C75.7836 41.0108 75.7361 41.1379 75.3678 41.0298C74.5853 40.8006 73.8001 40.5747 73.0047 40.4C72.5946 40.3098 72.3748 40.1375 72.3223 39.7101C72.2689 39.4372 72.1946 39.1686 72.0999 38.907Z" fill="#FFFEFE"/>
<path d="M69.8135 39.5396C69.9718 39.4958 70.0998 39.3427 70.2879 39.4022C70.3375 39.7686 70.7747 39.5286 70.9057 39.8361C70.5193 39.8563 70.1367 39.7524 69.8135 39.5396Z" fill="#B1B2B1"/>
<path d="M83.8984 43.3613C84.2372 43.2767 84.5956 43.3701 84.85 43.6091L83.8984 43.3613Z" fill="#B1B1B1"/>
<path d="M84.5294 37.9918C84.6949 38.12 84.7662 38.3359 84.7094 38.5375C84.4865 38.4362 84.4955 38.2569 84.5294 37.9918Z" fill="#B1B2B2"/>
<path d="M84.3795 37.4606C84.5061 37.5371 84.565 37.6303 84.5131 37.7449C84.5103 37.751 84.4307 37.7392 84.427 37.7252C84.4038 37.6382 84.3931 37.5489 84.3795 37.4606Z" fill="#B1B2B2"/>
<path d="M56.5483 92.7334C56.2596 93.0206 55.8485 92.8917 55.5075 93.0372C55.8076 92.7933 56.1722 92.7649 56.5483 92.7334Z" fill="#B1B2B2"/>
<path d="M34.9773 75.1553C34.9806 75.0785 34.9841 75.0019 34.9874 74.9252H35.8099C35.5438 75.0654 35.2336 75.0002 34.9773 75.1553Z" fill="#B6B6B7"/>
<path d="M37.2873 75.0919C36.9717 75.1789 36.6395 75.1866 36.3204 75.1137C36.636 75.0269 36.9682 75.0193 37.2873 75.0919Z" fill="#B2B4B3"/>
</svg>
