<svg width="120" height="120" viewBox="0 0 120 120" fill="none" xmlns="http://www.w3.org/2000/svg">
<circle cx="60" cy="60" r="60" fill="#E7EFF3"/>
<path fill-rule="evenodd" clip-rule="evenodd" d="M42.7121 49.0908H47.8801V43.924C47.8801 42.0904 46.3937 40.604 44.5601 40.604H42.7121C41.8314 40.6034 40.9866 40.9529 40.3638 41.5757C39.741 42.1985 39.3915 43.0433 39.3921 43.924V45.7708C39.3921 47.6044 40.8785 49.0908 42.7121 49.0908ZM72.1201 49.0908H77.2877C79.1208 49.0908 80.607 47.6051 80.6077 45.772V43.924C80.6077 42.0904 79.1213 40.604 77.2877 40.604H75.4401C73.6065 40.604 72.1201 42.0904 72.1201 43.924V49.0908ZM44.5601 80.606H42.7125C41.832 80.606 40.9875 80.2562 40.3649 79.6336C39.7423 79.011 39.3925 78.1665 39.3925 77.286V75.44C39.3925 74.5595 39.7423 73.715 40.3649 73.0924C40.9875 72.4698 41.832 72.12 42.7125 72.12H47.8801V77.286C47.8801 79.1196 46.3937 80.606 44.5601 80.606ZM75.4401 80.606H77.2877L77.2865 80.608C79.1201 80.608 80.6065 79.1216 80.6065 77.288V75.44C80.6065 73.6064 79.1201 72.12 77.2865 72.12H72.1201V77.286C72.1201 79.1196 73.6065 80.606 75.4401 80.606Z" fill="#005FFF"/>
<path fill-rule="evenodd" clip-rule="evenodd" d="M59.6821 40.606H61.5301L61.5297 40.608C63.3633 40.608 64.8497 39.1216 64.8497 37.288V35.44C64.8497 33.6064 63.3633 32.12 61.5297 32.12H59.6821C57.8485 32.12 56.3621 33.6064 56.3621 35.44V37.286C56.3621 39.1196 57.8485 40.606 59.6821 40.606ZM59.6821 89.0908H61.5297C63.3633 89.0908 64.8497 87.6044 64.8497 85.7708V83.9228C64.8497 82.0892 63.3633 80.6028 61.5297 80.6028H59.6821C57.8485 80.6028 56.3621 82.0892 56.3621 83.9228V85.7708C56.3621 87.6044 57.8485 89.0908 59.6821 89.0908ZM85.7725 64.8484H83.9249C82.0913 64.8484 80.6049 63.362 80.6049 61.5284V59.68C80.6049 57.8464 82.0913 56.36 83.9249 56.36H85.7725C87.6061 56.36 89.0925 57.8464 89.0925 59.68V61.528C89.0925 63.3616 87.6061 64.848 85.7725 64.848V64.8484ZM35.4401 64.8484H37.2877V64.848C39.1213 64.848 40.6077 63.3616 40.6077 61.528V59.68C40.6077 58.7995 40.2579 57.955 39.6353 57.3324C39.0127 56.7098 38.1682 56.36 37.2877 56.36H35.4401C33.6065 56.36 32.1201 57.8464 32.1201 59.68V61.5284C32.1201 63.362 33.6065 64.8484 35.4401 64.8484Z" fill="#00CCEE"/>
<path fill-rule="evenodd" clip-rule="evenodd" d="M45.7389 27.4576C44.5023 27.97 43.9153 29.3878 44.4277 30.6244C44.9404 31.8606 46.3579 32.4475 47.5945 31.9356C48.831 31.4232 49.418 30.0054 48.9056 28.7688C48.3932 27.5323 46.9754 26.9452 45.7389 27.4576ZM71.1913 89.276C69.9547 89.7884 69.3677 91.2062 69.8801 92.4428C70.3928 93.679 71.8103 94.2659 73.0469 93.754C74.2834 93.2416 74.8704 91.8238 74.358 90.5872C73.8456 89.3507 72.4278 88.7636 71.1913 89.276ZM91.2305 50.12C89.9939 50.6324 88.5761 50.0453 88.0637 48.8088C87.5513 47.5722 88.1383 46.1544 89.3749 45.642C90.6114 45.1296 92.0293 45.7167 92.5417 46.9532C93.0536 48.1898 92.4667 49.6073 91.2305 50.12ZM27.4577 74.2612C27.9701 75.4977 29.3879 76.0848 30.6245 75.5724C31.8607 75.0597 32.4476 73.6422 31.9357 72.4056C31.4233 71.1691 30.0054 70.582 28.7689 71.0944C27.5323 71.6068 26.9453 73.0246 27.4577 74.2612Z" fill="#005FFF"/>
<path fill-rule="evenodd" clip-rule="evenodd" d="M74.3599 30.6244C73.8476 31.861 72.4299 32.4481 71.1933 31.9358C69.9567 31.4235 69.3695 30.0058 69.8818 28.7692C70.394 27.5326 71.8117 26.9454 73.0483 27.4576C73.6423 27.7035 74.1142 28.1753 74.3602 28.7693C74.6062 29.3632 74.6061 30.0305 74.3599 30.6244ZM27.4581 46.9534C26.9458 48.19 27.533 49.6077 28.7695 50.12C29.3634 50.3662 30.0307 50.3663 30.6246 50.1203C31.2186 49.8743 31.6904 49.4024 31.9363 48.8084C32.4485 47.5718 31.8613 46.1541 30.6247 45.6419C29.3881 45.1296 27.9704 45.7168 27.4581 46.9534ZM88.0641 72.4058C87.5518 73.6424 88.139 75.0601 89.3755 75.5724C89.9694 75.8186 90.6367 75.8187 91.2306 75.5727C91.8246 75.3267 92.2964 74.8548 92.5423 74.2608C93.0545 73.0242 92.4673 71.6065 91.2307 71.0943C89.9941 70.582 88.5764 71.1692 88.0641 72.4058ZM45.7393 93.7542C46.9759 94.2665 48.3936 93.6794 48.9059 92.4428C49.1521 91.8489 49.1522 91.1816 48.9062 90.5877C48.6602 89.9937 48.1883 89.5219 47.5943 89.276C46.3577 88.7638 44.94 89.351 44.4278 90.5876C43.9155 91.8242 44.5027 93.2419 45.7393 93.7542Z" fill="#002DAE"/>
<path fill-rule="evenodd" clip-rule="evenodd" d="M87.5237 34.1904C87.177 34.537 86.6557 34.6407 86.2028 34.4531C85.7499 34.2656 85.4546 33.8236 85.4546 33.3334C85.4546 32.8432 85.7499 32.4013 86.2028 32.2137C86.6557 32.0261 87.177 32.1298 87.5237 32.4764C87.751 32.7036 87.8788 33.0119 87.8788 33.3334C87.8788 33.6549 87.751 33.9632 87.5237 34.1904ZM31.0017 32.8696C30.8141 33.3225 30.9178 33.8438 31.2645 34.1904C31.4917 34.4178 31.8 34.5455 32.1215 34.5455C32.4429 34.5455 32.7512 34.4178 32.9785 34.1904C33.3251 33.8438 33.4288 33.3225 33.2412 32.8696C33.0536 32.4167 32.6117 32.1214 32.1215 32.1214C31.6312 32.1214 31.1893 32.4167 31.0017 32.8696ZM85.5469 87.4148C85.3593 87.8677 85.463 88.389 85.8097 88.7356C86.0369 88.963 86.3452 89.0907 86.6667 89.0907C86.9881 89.0907 87.2964 88.963 87.5237 88.7356C87.8703 88.389 87.974 87.8677 87.7864 87.4148C87.5988 86.9619 87.1569 86.6666 86.6667 86.6666C86.1764 86.6666 85.7345 86.9619 85.5469 87.4148ZM31.6576 88.9983C32.1105 89.1859 32.6318 89.0822 32.9785 88.7356C33.2058 88.5084 33.3336 88.2001 33.3336 87.8786C33.3336 87.5571 33.2058 87.2488 32.9785 87.0216C32.6318 86.675 32.1105 86.5713 31.6576 86.7589C31.2047 86.9464 30.9094 87.3884 30.9094 87.8786C30.9094 88.3688 31.2047 88.8108 31.6576 88.9983Z" fill="#0099C0"/>
<path d="M98.7879 61.212C98.1186 61.212 97.5759 60.6694 97.5759 60C97.5759 59.3306 98.1186 58.788 98.7879 58.788C99.4573 58.788 99.9999 59.3306 99.9999 60C99.9997 60.6693 99.4572 61.2118 98.7879 61.212Z" fill="#0029C0"/>
<mask id="mask0_1_4727" style="mask-type:luminance" maskUnits="userSpaceOnUse" x="20" y="58" width="3" height="4">
<path fill-rule="evenodd" clip-rule="evenodd" d="M20 61.212V58.788H22.4244V61.212H20Z" fill="white"/>
</mask>
<g mask="url(#mask0_1_4727)">
<path d="M21.212 61.212C20.5426 61.212 20 60.6694 20 60C20 59.3306 20.5426 58.788 21.212 58.788C21.8814 58.788 22.424 59.3306 22.424 60C22.4238 60.6693 21.8813 61.2118 21.212 61.212Z" fill="#0029C0"/>
</g>
<path d="M61.2121 21.212C61.2121 21.8814 60.6695 22.424 60.0001 22.424C59.3307 22.424 58.7881 21.8814 58.7881 21.212C58.7881 20.5426 59.3307 20 60.0001 20C60.6694 20.0002 61.2119 20.5427 61.2121 21.212Z" fill="#0029C0"/>
<mask id="mask1_1_4727" style="mask-type:luminance" maskUnits="userSpaceOnUse" x="58" y="97" width="4" height="3">
<path fill-rule="evenodd" clip-rule="evenodd" d="M61.2121 100H58.7881V97.5756H61.2121V100Z" fill="white"/>
</mask>
<g mask="url(#mask1_1_4727)">
<path d="M61.2121 98.788C61.2121 99.4574 60.6695 100 60.0001 100C59.3307 100 58.7881 99.4574 58.7881 98.788C58.7881 98.1186 59.3307 97.576 60.0001 97.576C60.6694 97.5762 61.2119 98.1187 61.2121 98.788Z" fill="#0029C0"/>
</g>
<path d="M68.0887 55.96H69.8983C71.1255 55.9591 72.1199 54.964 72.1199 53.7368V47.88H66.2635C65.0359 47.88 64.0405 48.8748 64.0399 50.1024V51.92C64.0399 54.1512 62.2311 55.96 59.9999 55.96C57.7687 55.96 55.9599 54.1512 55.9599 51.92V50.022C55.959 48.8387 54.9995 47.88 53.8163 47.88H47.8799V72.12H53.7719C54.9801 72.1196 55.9594 71.1402 55.9599 69.932V68.08C55.9599 65.8488 57.7687 64.04 59.9999 64.04V64.048C62.2311 64.048 64.0399 65.8568 64.0399 68.088V69.9148C64.0399 71.1329 65.0274 72.1204 66.2455 72.1204H72.1199V66.246C72.1199 65.661 71.8875 65.1 71.4739 64.6864C71.0602 64.2728 70.4992 64.0404 69.9143 64.0404H68.0799C65.8487 64.0404 64.0399 62.2316 64.0399 60.0004H64.0479C64.0479 57.7692 65.8567 55.9604 68.0879 55.9604" fill="#003EC5"/>
</svg>
