<svg width="120" height="120" viewBox="0 0 120 120" fill="none" xmlns="http://www.w3.org/2000/svg">
<circle cx="60" cy="60" r="60" fill="#EDF0F4"/>
<path d="M96.4867 70.6528C92.4712 84.4973 80.9586 94.8715 66.7722 97.4291V86.6143C69.3369 85.6374 71.6448 84.0882 73.5204 82.0846C74.5624 80.9668 75.453 79.717 76.1695 78.3672C77.5333 75.7959 78.2392 72.9268 78.2241 70.0162C78.2241 60.4556 71.3221 56.6332 64.8511 53.7982L61.5744 52.3499C58.0708 50.7786 55.3909 49.3808 55.3909 46.9882C55.3909 43.6812 58.2769 41.9039 60.999 41.9039C63.8957 41.9039 65.5388 42.9728 67.2745 45.9817L68.6201 48.3131L77.2787 42.7566L76.1505 40.6616C74.1648 36.8754 70.8116 33.9876 66.7728 32.5855V22.6663C67.6148 22.81 68.4467 22.9946 69.2894 23.2108C69.3713 23.2316 69.464 23.2518 69.5566 23.2702C69.6505 23.288 69.7432 23.312 69.8339 23.342C69.862 23.3453 69.8896 23.3523 69.9159 23.3628C70.1421 23.4222 70.3779 23.4756 70.6142 23.5475C80.2919 26.3627 88.4548 32.9074 93.3069 41.7415C98.159 50.5755 99.3028 60.9754 96.4867 70.6528Z" fill="#745DDF"/>
<path d="M67.5934 70.5406C67.5934 74.8957 63.6593 77.5863 60.0233 77.5863C55.6581 77.5863 53.1623 73.9812 52.6795 70.6326L52.2685 67.7258L41.7923 70.676L42.2673 73.018C43.7667 80.4029 48.8101 85.7135 55.6611 87.3156V97.7818C53.8025 97.5642 51.9625 97.2105 50.1557 96.7236C49.8992 96.6642 49.6521 96.59 49.3956 96.5181C33.1754 91.7951 22.016 76.9373 22 60.0435V23.5291C22.001 22.7014 22.6717 22.0306 23.4994 22.0297H55.6587V32.4858C51.8955 33.5754 48.689 36.0582 46.6919 39.4288C45.4111 41.6704 44.745 44.2106 44.7608 46.7922V46.9977C44.8623 55.5239 51.129 59.088 57.0453 61.7686L60.0049 63.0524L60.2514 63.1652C64.9438 65.3125 67.5934 66.7193 67.5934 70.5406Z" fill="#2EB6EA"/>
<path d="M78.2241 70.0162C78.2393 72.9266 77.5336 75.7954 76.1701 78.3666C75.4533 79.7167 74.5623 80.9667 73.5198 82.0846C71.6441 84.0877 69.3362 85.6365 66.7716 86.6131L66.7763 97.4801L63.7389 97.7485C63.7389 97.7485 57.2252 97.9439 55.6741 97.7485L55.6581 87.3132C48.8077 85.7105 43.7643 80.4005 42.2649 73.0144L41.7899 70.6724L52.2662 67.7246L52.6771 70.6314C53.1622 73.9812 55.6581 77.5869 60.0233 77.5869C63.6593 77.5869 67.5934 74.8957 67.5934 70.5412C67.5934 66.7205 64.9432 65.3155 60.2496 63.1664L60.0031 63.0536L57.0453 61.7697C51.129 59.088 44.8635 55.5239 44.7608 46.9989V46.7934C44.7449 44.2117 45.4111 41.6716 46.6919 39.43C48.6886 36.0591 51.8949 33.5758 55.6581 32.4858V22.019C62.5085 21.9608 63.0328 22.0011 66.7716 22.6579V32.5885C70.8104 33.9906 74.1636 36.8783 76.1493 40.6645L77.2775 42.7596L68.6207 48.3112L67.2751 45.9799C65.5394 42.9704 63.8957 41.9021 60.9996 41.9021C58.2775 41.9021 55.3915 43.6788 55.3915 46.9864C55.3915 49.3795 58.072 50.7762 61.575 52.3481L64.8505 53.7982C71.3232 56.6331 78.2241 60.4538 78.2241 70.0162Z" fill="white"/>
</svg>
