<svg width="120" height="120" viewBox="0 0 120 120" fill="none" xmlns="http://www.w3.org/2000/svg">
<circle cx="60" cy="60" r="60" fill="#0FD297"/>
<path d="M63.8187 67.321C64.8183 68.6813 65.7871 70.0215 66.8993 71.2946C68.9032 73.5888 71.1947 75.47 74.1727 76.3697C75.8079 76.8638 77.4893 77.085 79.1821 77.2412C79.3155 77.2533 79.4154 77.2674 79.4919 77.4135C80.3761 79.1023 80.8656 80.8722 80.6356 82.7963C80.6175 82.9465 80.5934 83.0953 80.5652 83.281C80.5592 83.3193 80.5122 83.3347 80.4848 83.3079C80.0832 82.9123 79.7004 82.557 79.2827 82.2426C77.8862 81.1907 76.3496 80.4753 74.5783 80.4043C72.2211 80.3097 70.1978 81.7103 69.3692 83.9649C68.6947 85.8005 68.7229 87.6629 69.1727 89.5388C69.1949 89.6299 69.2176 89.7211 69.2344 89.8136C69.2425 89.8565 69.2364 89.9115 69.2016 89.9021C68.5063 89.699 67.8835 89.3484 67.2942 88.9421C66.2075 88.1932 65.3667 87.2137 64.6662 86.1022C64.5508 85.9185 64.6239 85.7938 64.691 85.6476C65.2662 84.3926 65.7757 83.1141 66.1632 81.786C66.9463 79.1016 66.8276 76.426 66.1263 73.7497C65.5773 71.6546 64.7265 69.6728 63.8576 67.6971C63.81 67.5898 63.7685 67.4799 63.7242 67.3713C63.694 67.2942 63.7819 67.26 63.8187 67.321Z" fill="white"/>
<path d="M59.7908 91.9423C59.7493 92.0596 59.583 92.0609 59.5408 91.9443C58.6263 89.4242 57.3813 87.1581 56.3469 84.7989C55.6644 83.2435 55.0235 81.6721 54.7861 79.9719C54.7861 79.9712 54.7861 79.9712 54.7861 79.9705C54.772 79.8673 54.8773 79.7902 54.9732 79.8324C58.0953 81.2108 61.196 81.2102 64.3142 79.8163C64.4094 79.7734 64.5139 79.8539 64.4999 79.9578C64.3282 81.2148 63.9501 82.3351 63.5184 83.4406C62.7072 85.5176 61.674 87.494 60.7663 89.5274C60.421 90.2991 60.0979 91.0808 59.7908 91.9423Z" fill="white"/>
<path d="M59.4623 63.1651C59.5193 63.027 59.7157 63.029 59.7701 63.1678C59.8968 63.4916 60.0195 63.8087 60.1542 64.1205C61.0506 66.1954 61.9603 68.265 62.8486 70.344C63.1168 70.9708 63.3219 71.6245 63.5754 72.2587C63.6652 72.4847 63.6243 72.5785 63.395 72.6663C60.8856 73.6217 58.3789 73.627 55.8662 72.6784C55.6289 72.5886 55.6161 72.49 55.6912 72.2681C56.4602 70.0001 57.4906 67.8413 58.4319 65.6443C58.7845 64.8217 59.1184 63.9911 59.4623 63.1651Z" fill="white"/>
<path d="M81.9007 77.4839C81.8745 77.4175 81.9262 77.3465 81.9972 77.3512C83.6739 77.4638 85.2997 77.6301 86.9087 77.9512C87.1253 77.9941 87.1192 78.1315 87.1434 78.2777C87.5235 80.6228 87.4571 82.9566 86.949 85.2749C86.3389 88.0571 85.1831 90.5813 83.2469 92.6944C80.289 95.9225 76.5601 97.3123 72.2332 97.0857C68.2764 96.8785 64.7868 95.411 61.7062 92.9391C61.5541 92.8171 61.5205 92.7166 61.5842 92.5262C62.1051 90.9782 62.7829 89.4985 63.4969 88.0343C63.4969 88.0337 63.4976 88.0337 63.4976 88.033C63.5278 87.9713 63.6149 87.968 63.6578 88.0223C67.2573 92.5972 73.2127 93.8281 77.8869 90.9017C82.1568 88.2268 84.0219 82.8694 81.9007 77.4839Z" fill="white"/>
<path d="M55.5109 67.4103C54.8324 68.9562 54.1566 70.4654 53.6102 72.065C52.6254 74.9478 52.142 77.8722 52.852 80.9018C53.2415 82.5651 53.8904 84.1312 54.6018 85.6759C54.6581 85.7972 54.6956 85.8911 54.6071 86.0305C53.5867 87.6409 52.2989 88.9496 50.5176 89.7125C50.3788 89.7722 50.2373 89.8258 50.0623 89.8942C50.0261 89.9083 49.9893 89.8754 49.9993 89.8379C50.1408 89.2921 50.2574 88.7833 50.3211 88.2644C50.5336 86.5293 50.3848 84.8405 49.5609 83.2711C48.4641 81.1827 46.2396 80.1302 43.8723 80.5405C41.9455 80.8743 40.3466 81.8297 38.9468 83.1571C38.8784 83.2215 38.8107 83.2872 38.7396 83.3482C38.7061 83.3763 38.6558 83.3991 38.6464 83.3643C38.4748 82.6603 38.4667 81.9463 38.5244 81.2323C38.6296 79.917 39.0574 78.6988 39.6695 77.5363C39.7707 77.3446 39.9155 77.3459 40.0757 77.3305C41.4501 77.2018 42.8124 77.0033 44.1559 76.6748C46.8718 76.0104 49.1305 74.5697 51.0968 72.6248C52.6368 71.1016 53.928 69.3739 55.2038 67.6342C55.2735 67.5396 55.3473 67.4485 55.4197 67.356C55.472 67.2889 55.5457 67.3486 55.5109 67.4103Z" fill="white"/>
<path d="M32.1742 76.2329C32.0515 76.2557 31.9677 76.1122 32.0475 76.017C33.7731 73.9649 35.1126 71.7538 36.6385 69.6782C37.6442 68.3092 38.6846 66.9684 40.0389 65.9124C40.0396 65.9124 40.0396 65.9118 40.0402 65.9118C40.1227 65.8481 40.242 65.901 40.2534 66.0043C40.6208 69.3973 42.1715 72.0823 44.9383 74.0856C45.0228 74.1466 45.0054 74.2773 44.9088 74.3168C43.7343 74.7969 42.5751 75.0295 41.4019 75.2085C39.1975 75.5451 36.969 75.6382 34.7546 75.8689C33.9126 75.9567 33.0739 76.068 32.1742 76.2329Z" fill="white"/>
<path d="M56.9322 61.5601C57.0804 61.5407 57.1769 61.7116 57.0837 61.8283C56.8665 62.0998 56.6533 62.3646 56.4508 62.6375C55.1019 64.4516 53.7645 66.2739 52.4089 68.0826C51.9999 68.6284 51.5366 69.1332 51.1143 69.6695C50.9641 69.8606 50.8615 69.872 50.6711 69.7171C48.5888 68.021 47.3311 65.8535 46.8967 63.2026C46.8558 62.9526 46.9349 62.8922 47.1648 62.846C49.5133 62.378 51.8987 62.191 54.2713 61.9074C55.1589 61.8008 56.0446 61.6748 56.9322 61.5601Z" fill="white"/>
<path d="M55.7509 88.1511C55.7951 88.0954 55.8823 88.1041 55.9138 88.1685C56.6546 89.6769 57.3237 91.168 57.85 92.722C57.921 92.9312 57.799 92.9949 57.6844 93.088C55.8441 94.5898 53.7892 95.6993 51.5272 96.418C48.8127 97.2809 46.0492 97.5417 43.2509 96.9215C38.9763 95.9742 35.9084 93.4393 33.9414 89.5791C32.1427 86.0493 31.6687 82.2929 32.2694 78.3891C32.2989 78.196 32.3693 78.1169 32.5664 78.0773C34.1673 77.7542 35.7878 77.602 37.4129 77.488C37.4135 77.488 37.4135 77.488 37.4142 77.488C37.4826 77.4833 37.5295 77.5571 37.5034 77.6207C35.3412 83.0257 37.2533 88.7987 42.1239 91.3832C46.5748 93.7444 52.1474 92.6818 55.7509 88.1511Z" fill="white"/>
<path d="M55.4425 52.9412C54.4429 51.5809 53.4741 50.2407 52.3619 48.9676C50.358 46.6734 48.0665 44.7922 45.0885 43.8925C43.4533 43.3984 41.7719 43.1772 40.0791 43.021C39.9457 43.0089 39.8458 42.9948 39.7694 42.8487C38.8851 41.1599 38.3957 39.39 38.6256 37.4659C38.6437 37.3157 38.6679 37.1669 38.696 36.9812C38.7021 36.9429 38.749 36.9275 38.7765 36.9543C39.1781 37.3499 39.5609 37.7052 39.9785 38.0196C41.375 39.0715 42.9116 39.7869 44.6829 39.8579C47.0401 39.9525 49.0634 38.5519 49.8921 36.2973C50.5665 34.4617 50.5383 32.5993 50.0885 30.7234C50.0664 30.6323 50.0436 30.5411 50.0268 30.4486C50.0188 30.4057 50.0248 30.3507 50.0597 30.3601C50.7549 30.5632 51.3777 30.9138 51.967 31.3201C53.0538 32.069 53.8945 33.0485 54.5951 34.16C54.7104 34.3437 54.6373 34.4684 54.5703 34.6146C53.995 35.8696 53.4855 37.1481 53.098 38.4762C52.315 41.1606 52.4336 43.8362 53.1349 46.5125C53.684 48.6076 54.5347 50.5894 55.4036 52.5651C55.4512 52.6724 55.4928 52.7823 55.537 52.8909C55.5672 52.968 55.4787 53.0022 55.4425 52.9412Z" fill="white"/>
<path d="M59.4697 28.3192C59.5113 28.2019 59.6776 28.2006 59.7198 28.3172C60.6342 30.8373 61.8792 33.1033 62.9137 35.4626C63.5962 37.0179 64.2371 38.5894 64.4744 40.2896C64.4744 40.2903 64.4744 40.2903 64.4744 40.2909C64.4885 40.3942 64.3832 40.4713 64.2874 40.429C61.1652 39.0507 58.0645 39.0513 54.9464 40.4451C54.8512 40.488 54.7466 40.4076 54.7607 40.3037C54.9323 39.0466 55.3104 37.9264 55.7422 36.8208C56.5534 34.7439 57.5865 32.7675 58.4943 30.7341C58.8402 29.9631 59.1627 29.1814 59.4697 28.3192Z" fill="white"/>
<path d="M59.7982 57.0965C59.7412 57.2346 59.5448 57.2326 59.4905 57.0938C59.3638 56.77 59.2411 56.4529 59.1063 56.1412C58.21 54.0662 57.3002 51.9966 56.4119 49.9176C56.1438 49.2908 55.9386 48.6371 55.6852 48.0029C55.5953 47.777 55.6362 47.6831 55.8655 47.5953C58.3749 46.6399 60.8816 46.6346 63.3944 47.5832C63.6317 47.6731 63.6444 47.7716 63.5693 47.9935C62.8004 50.2616 61.7699 52.4203 60.8287 54.6173C60.476 55.4406 60.1428 56.2712 59.7982 57.0965Z" fill="white"/>
<path d="M37.3605 42.7782C37.3867 42.8446 37.3351 42.9157 37.264 42.911C35.5873 42.7984 33.9615 42.6321 32.3525 42.311C32.1359 42.2681 32.142 42.1306 32.1178 41.9845C31.7377 39.6393 31.8041 37.3056 32.3123 34.9873C32.9223 32.205 34.0781 29.6809 36.0143 27.5677C38.9722 24.3396 42.7011 22.9499 47.028 23.1765C50.9848 23.3836 54.4744 24.8512 57.555 27.323C57.7072 27.445 57.7407 27.5456 57.677 27.736C57.1561 29.284 56.4783 30.7636 55.7643 32.2278C55.7643 32.2285 55.7636 32.2285 55.7636 32.2292C55.7334 32.2908 55.6463 32.2942 55.6034 32.2399C52.0039 27.6649 46.0485 26.434 41.3743 29.3604C37.1038 32.0354 35.2386 37.3927 37.3605 42.7782Z" fill="white"/>
<path d="M63.7497 52.852C64.4282 51.306 65.1039 49.7969 65.6503 48.1973C66.6352 45.3145 67.1186 42.3901 66.4086 39.3604C66.0191 37.6971 65.3701 36.131 64.6588 34.5864C64.6025 34.465 64.5649 34.3712 64.6534 34.2317C65.6738 32.6214 66.9617 31.3127 68.743 30.5498C68.8818 30.4901 69.0232 30.4365 69.1982 30.3681C69.2344 30.354 69.2713 30.3868 69.2612 30.4244C69.1198 30.9701 69.0031 31.479 68.9394 31.9979C68.7269 33.7329 68.8757 35.4217 69.6997 36.9912C70.7965 39.0795 73.021 40.1321 75.3882 39.7218C77.315 39.3879 78.914 38.4326 80.3138 37.1051C80.3822 37.0408 80.4499 36.9751 80.521 36.9141C80.5545 36.8859 80.6048 36.8631 80.6141 36.898C80.7858 37.6019 80.7938 38.3159 80.7362 39.0299C80.6309 40.3453 80.2032 41.5634 79.5911 42.726C79.4898 42.9177 79.345 42.9164 79.1848 42.9318C77.8104 43.0605 76.4481 43.2589 75.1046 43.5874C72.3887 44.2518 70.1301 45.6926 68.1637 47.6375C66.6238 49.1607 65.3326 50.8883 64.0567 52.6281C63.987 52.7226 63.9133 52.8138 63.8409 52.9063C63.7886 52.9733 63.7155 52.9137 63.7497 52.852Z" fill="white"/>
<path d="M87.0864 44.0285C87.2091 44.0057 87.2929 44.1492 87.2131 44.2444C85.4874 46.2966 84.1479 48.5076 82.622 50.5833C81.6164 51.9523 80.5759 53.2931 79.2217 54.349C79.221 54.349 79.221 54.3497 79.2203 54.3497C79.1378 54.4134 79.0185 54.3604 79.0071 54.2572C78.6397 50.8642 77.089 48.1791 74.3222 46.1759C74.2377 46.1149 74.2552 45.9842 74.3517 45.9446C75.5263 45.4646 76.6854 45.2319 77.8587 45.0529C80.063 44.7164 82.2915 44.6232 84.5059 44.3926C85.348 44.3054 86.1867 44.1941 87.0864 44.0285Z" fill="white"/>
<path d="M62.3291 58.7021C62.1809 58.7216 62.0844 58.5506 62.1776 58.434C62.3948 58.1624 62.608 57.8976 62.8105 57.6248C64.1593 55.8106 65.4968 53.9884 66.8524 52.1796C67.2614 51.6339 67.7246 51.129 68.147 50.5927C68.2972 50.4016 68.3998 50.3902 68.5902 50.5451C70.6725 52.2413 71.9302 54.4087 72.3646 57.0596C72.4055 57.3097 72.3264 57.37 72.0965 57.4163C69.748 57.8842 67.3626 58.0713 64.99 58.3548C64.1024 58.4608 63.2161 58.5875 62.3291 58.7021Z" fill="white"/>
<path d="M63.5097 32.1112C63.4655 32.1668 63.3783 32.1581 63.3468 32.0937C62.606 30.5853 61.9369 29.0943 61.4106 27.5402C61.3396 27.3311 61.4616 27.2674 61.5762 27.1742C63.4165 25.6724 65.4714 24.5629 67.7334 23.8442C70.4479 22.9814 73.2114 22.7206 76.0097 23.3407C80.2843 24.288 83.3522 26.8229 85.3192 30.6832C87.1179 34.2129 87.5919 37.9693 86.9912 41.8732C86.9617 42.0663 86.8913 42.1454 86.6942 42.1849C85.0933 42.5081 83.4728 42.6603 81.8477 42.7742C81.8471 42.7742 81.8471 42.7742 81.8464 42.7742C81.778 42.7789 81.7311 42.7052 81.7572 42.6415C83.9193 37.2366 82.0073 31.4636 77.1367 28.8791C72.6858 26.5172 67.1132 27.5805 63.5097 32.1112Z" fill="white"/>
<path d="M68.0116 60.0416C69.6896 59.8559 71.3342 59.6869 72.9928 59.3604C75.9815 58.7718 78.7564 57.728 81.0251 55.5987C82.2708 54.4295 83.3025 53.0846 84.2847 51.6962C84.3618 51.5869 84.4241 51.5071 84.5891 51.5138C86.4937 51.5923 88.271 52.0535 89.8224 53.2147C89.9431 53.3052 90.0604 53.4011 90.2072 53.5177C90.2374 53.5418 90.2273 53.5908 90.1898 53.6008C89.6467 53.751 89.1473 53.9045 88.6659 54.109C87.0569 54.7929 85.6691 55.7656 84.7218 57.264C83.4614 59.2579 83.6625 61.7109 85.2012 63.5559C86.4535 65.0577 88.0806 65.9648 89.9303 66.5132C90.0202 66.54 90.1107 66.5655 90.1992 66.597C90.2407 66.6117 90.285 66.6439 90.2595 66.6694C89.7359 67.1695 89.1211 67.5342 88.4742 67.8413C87.2822 68.4078 86.0137 68.6464 84.701 68.6974C84.4845 68.7061 84.4128 68.5801 84.3196 68.4487C83.5204 67.323 82.6676 66.2423 81.7116 65.2427C79.7781 63.2227 77.4015 61.9871 74.7339 61.2564C72.6448 60.6838 70.5035 60.4298 68.3582 60.1951C68.2415 60.1824 68.1255 60.1636 68.0089 60.1475C67.9257 60.1361 67.9405 60.0429 68.0116 60.0416Z" fill="white"/>
<path d="M87.3203 75.8401C87.4008 75.9346 87.3197 76.0794 87.197 76.0579C84.5569 75.59 81.9724 75.535 79.412 75.2514C77.7239 75.0644 76.0425 74.8344 74.4509 74.1895C74.4503 74.1895 74.4503 74.1888 74.4496 74.1888C74.353 74.1493 74.339 74.0192 74.4234 73.9582C77.1782 71.9436 78.7275 69.2579 79.0795 65.8602C79.0902 65.7562 79.2116 65.706 79.2947 65.7703C80.2977 66.548 81.0787 67.435 81.8202 68.3615C83.2133 70.1026 84.4087 71.9858 85.716 73.7886C86.2121 74.4731 86.7277 75.1435 87.3203 75.8401Z" fill="white"/>
<path d="M62.2345 61.7365C62.1434 61.6178 62.2433 61.4488 62.3908 61.471C62.734 61.5233 63.0706 61.5756 63.4078 61.6144C65.653 61.8752 67.9003 62.1226 70.1449 62.3921C70.822 62.4732 71.4904 62.6227 72.1662 62.72C72.4069 62.7548 72.4679 62.838 72.429 63.08C72.0012 65.7308 70.7529 67.9043 68.6746 69.6059C68.4782 69.7668 68.3863 69.7279 68.2321 69.5522C66.6526 67.7521 65.2984 65.7804 63.8664 63.8671C63.33 63.1517 62.7776 62.4478 62.2345 61.7365Z" fill="white"/>
<path d="M85.8535 49.4637C85.7831 49.453 85.7469 49.3732 85.7865 49.3142C86.7224 47.9184 87.6797 46.5937 88.7618 45.3607C88.9073 45.1952 89.0233 45.2682 89.162 45.3212C91.3831 46.1646 93.3709 47.3888 95.1248 48.9884C97.2292 50.9078 98.8369 53.1705 99.6991 55.9038C101.016 60.0792 100.355 64.0038 97.9948 67.6368C95.8374 70.9595 92.8212 73.2483 89.1399 74.6803C88.9582 74.7507 88.8543 74.7299 88.7216 74.5791C87.6415 73.3542 86.6989 72.0274 85.7878 70.6765C85.7878 70.6759 85.7871 70.6759 85.7871 70.6752C85.7489 70.6182 85.7898 70.5411 85.8575 70.5311C91.6191 69.7011 95.6631 65.159 95.466 59.6481C95.2857 54.6132 91.5789 50.3192 85.8535 49.4637Z" fill="white"/>
<path d="M51.3556 60.171C49.6775 60.3567 48.033 60.5257 46.3744 60.8522C43.3856 61.4408 40.6108 62.4846 38.342 64.6139C37.0964 65.7831 36.0646 67.128 35.0825 68.5164C35.0054 68.6257 34.943 68.7055 34.7781 68.6988C32.8734 68.6203 31.0961 68.1591 29.5448 66.9979C29.4241 66.9074 29.3068 66.8115 29.16 66.6949C29.1298 66.6707 29.1398 66.6218 29.1774 66.6118C29.7204 66.4616 30.2199 66.308 30.7013 66.1036C32.3103 65.4197 33.698 64.447 34.6453 62.9486C35.9057 60.9547 35.7046 58.5017 34.166 56.6567C32.9136 55.1549 31.2865 54.2478 29.4368 53.6994C29.347 53.6726 29.2565 53.6471 29.168 53.6156C29.1264 53.6009 29.0822 53.5687 29.1077 53.5432C29.6313 53.0431 30.246 52.6784 30.893 52.3713C32.085 51.8048 33.3534 51.5661 34.6661 51.5152C34.8827 51.5065 34.9544 51.6325 35.0476 51.7639C35.8467 52.8896 36.6995 53.9703 37.6555 54.9699C39.589 56.9899 41.9657 58.2254 44.6333 58.9562C46.7223 59.5287 48.8636 59.7828 51.009 60.0175C51.1256 60.0302 51.2416 60.049 51.3583 60.0651C51.4414 60.0765 51.4267 60.1697 51.3556 60.171Z" fill="white"/>
<path d="M32.0468 44.3725C31.9664 44.278 32.0475 44.1332 32.1702 44.1546C34.8103 44.6226 37.3948 44.6775 39.9551 44.9611C41.6432 45.1482 43.3246 45.3781 44.9162 46.0231C44.9169 46.0231 44.9169 46.0237 44.9176 46.0237C45.0141 46.0633 45.0282 46.1934 44.9437 46.2544C42.1889 48.269 40.6389 50.9547 40.2876 54.3524C40.2769 54.4563 40.1556 54.5066 40.0724 54.4422C39.0695 53.6645 38.2884 52.7776 37.5469 51.851C36.1538 50.11 34.9584 48.2267 33.6511 46.424C33.155 45.7395 32.6395 45.0691 32.0468 44.3725Z" fill="white"/>
<path d="M57.1326 58.4762C57.2238 58.5948 57.1239 58.7638 56.9764 58.7417C56.6332 58.6894 56.2966 58.6371 55.9594 58.5982C53.7141 58.3374 51.4669 58.09 49.2223 57.8205C48.5452 57.7394 47.8768 57.5899 47.201 57.4927C46.9603 57.4578 46.8993 57.3747 46.9382 57.1326C47.3659 54.4818 48.6142 52.3083 50.6926 50.6068C50.889 50.4459 50.9808 50.4847 51.135 50.6604C52.7145 52.4605 54.0688 54.4322 55.5008 56.3456C56.0372 57.0609 56.5896 57.7655 57.1326 58.4762Z" fill="white"/>
<path d="M33.5137 70.7489C33.5841 70.7596 33.6203 70.8394 33.5807 70.8984C32.6448 72.2942 31.6874 73.6189 30.6054 74.8518C30.4599 75.0174 30.3439 74.9444 30.2051 74.8914C27.984 74.048 25.9962 72.8238 24.2424 71.2242C22.138 69.3048 20.5303 67.0421 19.6681 64.3088C18.3514 60.1334 19.0125 56.2088 21.3723 52.5757C23.5298 49.2531 26.546 46.9643 30.2273 45.5323C30.409 45.4619 30.5129 45.4827 30.6456 45.6335C31.7257 46.8584 32.6683 48.1852 33.5794 49.5361C33.5794 49.5367 33.58 49.5367 33.58 49.5374C33.6183 49.5944 33.5774 49.6715 33.5097 49.6815C27.748 50.5115 23.7041 55.0536 23.9012 60.5645C24.0815 65.5993 27.7883 69.8934 33.5137 70.7489Z" fill="white"/>
</svg>
