<svg width="120" height="120" viewBox="0 0 120 120" fill="none" xmlns="http://www.w3.org/2000/svg">
<path d="M60 0C93.132 0 120 26.868 120 60C120 93.132 93.132 120 60 120C26.868 120 0 93.132 0 60C0 26.868 26.868 0 60 0Z" fill="black"/>
<path d="M85.74 51.876C88.476 38.892 82.44 32.28 71.052 32.28C64.212 32.28 58.524 34.788 53.388 39.456L54.528 34.212C54.528 34.212 52.704 33.42 49.056 33.42C45.072 33.42 43.128 34.212 43.128 34.212L32.16 85.728C32.16 85.728 33.756 86.52 37.74 86.52C41.388 86.52 43.548 85.728 43.548 85.728L51.444 48.804C55.428 44.244 60.9 41.508 65.916 41.508C73.212 41.508 75.708 45.156 74.352 51.54L67.02 85.728C67.02 85.728 68.724 86.52 72.6 86.52C76.356 86.52 78.408 85.728 78.408 85.728L85.74 51.876Z" fill="white"/>
</svg>
