<svg width="120" height="120" viewBox="0 0 120 120" fill="none" xmlns="http://www.w3.org/2000/svg">
<circle cx="60" cy="60" r="60" fill="#EDF0F4"/>
<path d="M39.9852 73.313L54.2317 81.5652V88.409L34.8279 77.1756V44.9401L38.673 42.7159L37.2601 40.2632L32 43.3073V78.8098L57.0526 93.3158V79.931L41.3988 70.8603L39.9852 73.313Z" fill="url(#paint0_linear_1_4543)"/>
<path d="M60.0041 30.4236L76.2685 40.2632L77.6841 37.6973L60.0041 27L42.3157 37.6937L43.7313 40.2595L60.0041 30.4236Z" fill="url(#paint1_linear_1_4543)"/>
<path d="M60.0041 40.7372L76.2685 50.579L77.6841 48.0126L60.0041 37.3158L42.3157 48.0089L43.7313 50.5753L60.0041 40.7372Z" fill="url(#paint2_linear_1_4543)"/>
<path d="M82.7454 40.2632L81.3325 42.7159L85.1776 44.9402V77.1766L65.7717 88.4089V81.5649L80.1734 73.2255L78.7605 70.7728L62.9473 79.9307V93.3158L87.9999 78.8094V43.306L82.7454 40.2632Z" fill="url(#paint3_linear_1_4543)"/>
<path fill-rule="evenodd" clip-rule="evenodd" d="M67.924 65.6022C68.3223 64.0846 68.0578 62.4704 67.1957 61.1567C67.1777 61.1296 67.1603 61.1022 67.1431 61.0752C67.1306 61.0557 67.1183 61.0363 67.1059 61.0173L66.6594 60.4704C66.5955 60.4035 66.5378 60.331 66.4869 60.2538C66.4684 60.2227 66.4656 60.1848 66.4792 60.1514C66.5493 60.0197 66.6264 59.8922 66.7049 59.7661C67.014 59.2751 67.23 58.732 67.3422 58.1637C67.4798 57.4876 67.4969 56.7926 67.3926 56.1106C67.0636 53.9028 65.3356 52.1599 63.1192 51.8002C63.1021 51.7973 63.0857 51.7945 63.0698 51.7918C62.8711 51.7579 62.7685 51.7405 62.7154 51.6797C62.6588 51.615 62.6586 51.501 62.658 51.2655C62.658 51.255 62.658 51.2442 62.658 51.2331V50.1721C62.6575 50.0978 62.6481 50.0239 62.6299 49.9519C62.6171 49.9173 62.5897 49.8901 62.5549 49.8774C62.483 49.8557 62.4085 49.8439 62.3334 49.8425H59.5251C59.4502 49.8399 59.3754 49.8493 59.3036 49.8704C59.2535 49.8899 59.2139 49.9293 59.1942 49.9791C59.1751 50.0707 59.1671 50.1642 59.1704 50.2578V50.2579C59.1704 50.6111 59.1704 50.9642 59.1662 51.3174C59.1686 51.4112 59.1587 51.5049 59.1367 51.5961C59.1248 51.64 59.0701 51.6797 59.026 51.7089C58.9929 51.7268 58.9555 51.735 58.918 51.7326C58.8312 51.7326 58.7442 51.7333 58.657 51.7339C58.4823 51.7351 58.3071 51.7364 58.1322 51.7326C57.9815 51.7326 57.9022 51.6435 57.9008 51.479C57.8975 51.2815 57.8967 51.0847 57.8958 50.8877V50.8876V50.8875C57.8952 50.7497 57.8946 50.6119 57.8931 50.4737C57.8931 50.3545 57.8872 50.2349 57.8812 50.1145V50.1145L57.877 50.0278C57.866 49.9323 57.7866 49.8589 57.6898 49.8551L57.6649 49.8532C57.5985 49.8482 57.5328 49.8432 57.4655 49.8432H54.7694C54.7113 49.8432 54.654 49.8478 54.5959 49.8525L54.5451 49.8565C54.4482 49.8675 54.3755 49.9497 54.3768 50.0467C54.3721 50.3089 54.3699 50.5727 54.3677 50.8363L54.3663 50.9948C54.3663 51.1809 54.3621 51.3669 54.3544 51.5522C54.3418 51.6473 54.2622 51.7196 54.1658 51.7236C54.0172 51.7312 53.8665 51.7368 53.7172 51.7368H52.3691C52.2573 51.7352 52.1457 51.7455 52.0361 51.7675C51.9842 51.7844 51.9413 51.8213 51.9169 51.8699C51.898 51.9225 51.8911 51.9787 51.8966 52.0343V54.9367C51.8956 54.9929 51.9036 55.0488 51.9204 55.1025C51.9339 55.1375 51.9609 55.1656 51.9955 55.1805C52.0671 55.1995 52.1408 55.2098 52.2149 55.2112C52.374 55.2133 52.5333 55.2133 52.6926 55.2133C52.8519 55.2133 53.0112 55.2133 53.1704 55.2154C53.2646 55.2133 53.3588 55.2226 53.4508 55.2432C53.5008 55.2637 53.5381 55.3066 53.551 55.3589C53.5687 55.5061 53.5776 55.6543 53.5777 55.8027V58.3706V62.9479V63.4509L53.5657 64.1691C53.5673 64.1947 53.5691 64.2203 53.5709 64.246C53.5757 64.3133 53.5805 64.3807 53.5805 64.4478V65.7318C53.5805 65.8063 53.5805 65.8816 53.5748 65.9547C53.5789 66.0106 53.5595 66.0656 53.5212 66.1066C53.483 66.1477 53.4293 66.1712 53.373 66.1714C53.2118 66.1748 53.0504 66.1762 52.8894 66.1775L52.8891 66.1775C52.7882 66.1783 52.6875 66.1791 52.5871 66.1805C52.4189 66.1805 52.2492 66.1846 52.081 66.1923C51.984 66.1982 51.908 66.2776 51.9071 66.3741L51.9056 66.4077L51.9056 66.4077C51.9018 66.4893 51.898 66.5713 51.898 66.6528V69.1651C51.898 69.2672 51.9045 69.3694 51.911 69.4716L51.9127 69.4995C51.9328 69.5713 51.9924 69.6255 52.0663 69.6388L52.0879 69.6406L52.088 69.6406C52.1917 69.6491 52.2965 69.6577 52.4013 69.659H53.6933C53.844 69.659 53.9927 69.659 54.142 69.6695C54.1987 69.6648 54.2548 69.684 54.2965 69.7224C54.3382 69.7608 54.3618 69.8149 54.3614 69.8715C54.3643 69.9894 54.3654 70.107 54.3664 70.2242V70.2242C54.3673 70.33 54.3682 70.4356 54.3705 70.541C54.3705 70.6772 54.3766 70.8135 54.3826 70.9493L54.3826 70.9493L54.3866 71.0419C54.3995 71.116 54.4601 71.1728 54.5352 71.1813C54.6285 71.1903 54.7224 71.1987 54.8157 71.1987H57.4557C57.5407 71.1987 57.6251 71.1912 57.711 71.1835L57.7111 71.1835L57.7361 71.1813C57.8094 71.1638 57.8647 71.1041 57.8763 71.0301C57.8854 70.9374 57.8924 70.8455 57.8938 70.7514V70.0262C57.8921 69.9519 57.9011 69.8778 57.9205 69.806C57.9425 69.7623 57.9781 69.7268 58.0221 69.705C58.0738 69.6827 58.1299 69.6722 58.1862 69.6743C58.3733 69.6702 58.5605 69.6702 58.747 69.6702C59.1381 69.6702 59.1613 69.7398 59.1627 70.0882V70.8691C59.1669 71.1743 59.2012 71.2036 59.5314 71.2105H59.6436H62.1714C62.2451 71.2105 62.3201 71.2105 62.3958 71.205C62.5696 71.1973 62.6418 71.1353 62.6467 70.9778C62.6487 70.8749 62.6488 70.7718 62.649 70.6686C62.6492 70.5483 62.6493 70.428 62.6523 70.3083C62.6523 70.1585 62.6566 70.0108 62.6629 69.861C62.6738 69.7663 62.7479 69.6909 62.843 69.6778L62.8568 69.6763L62.8569 69.6763C62.9833 69.6622 63.1084 69.6482 63.2342 69.6381C65.5109 69.4417 67.4029 67.8135 67.924 65.6022ZM57.0933 55.6884C57.0932 55.5769 57.1021 55.4655 57.1199 55.3554C57.1265 55.2975 57.1713 55.2513 57.2293 55.2425C57.3222 55.2294 57.4158 55.2215 57.5097 55.2188H62.2233C62.6976 55.2006 63.157 55.3853 63.4852 55.726C63.7548 55.9909 63.9129 56.3478 63.9275 56.7244C63.9331 56.909 63.9331 57.095 63.9275 57.2817C63.87 58.0114 63.3171 58.6069 62.59 58.7225C62.4582 58.7393 62.3257 58.7442 62.1928 58.7491L62.1926 58.7491C62.1382 58.7511 62.0837 58.7531 62.0291 58.7559H61.917H59.835H57.5342C57.4229 58.7538 57.3119 58.7421 57.2026 58.7211C57.1669 58.7091 57.139 58.6809 57.1276 58.6451C57.107 58.5536 57.0962 58.4602 57.0954 58.3665C57.0926 58.0442 57.0935 57.7226 57.0944 57.4006C57.0949 57.2394 57.0954 57.0782 57.0954 56.9167C57.0919 56.5063 57.0905 56.0974 57.0933 55.6884ZM61.9814 66.184C62.2624 66.1842 62.5425 66.1844 62.8241 66.1798C63.5948 66.1454 64.2602 65.6325 64.4855 64.8993C64.5743 64.595 64.6007 64.2761 64.5633 63.9615C64.5277 63.2337 64.0517 62.6 63.3597 62.3592C63.1125 62.272 62.8505 62.2341 62.5886 62.2477H57.5903C57.4893 62.2477 57.3884 62.2528 57.2874 62.2578C57.2762 62.2584 57.265 62.259 57.2538 62.2595C57.1815 62.2783 57.1255 62.335 57.108 62.4072C57.1067 62.4209 57.1053 62.4345 57.104 62.4482C57.0979 62.5086 57.0919 62.5691 57.0919 62.6288V64.1357C57.0919 64.3163 57.0914 64.4967 57.0909 64.6769C57.09 65.0368 57.0891 65.3962 57.0919 65.7555C57.0956 65.8656 57.1104 65.9751 57.136 66.0822C57.1482 66.1157 57.1754 66.1415 57.2096 66.1519C57.3191 66.1713 57.43 66.182 57.5412 66.1839H60.1252H61.8125C61.8689 66.1839 61.9251 66.184 61.9814 66.184Z" fill="url(#paint4_linear_1_4543)"/>
<defs>
<linearGradient id="paint0_linear_1_4543" x1="0.833073" y1="355.32" x2="233.78" y2="315.766" gradientUnits="userSpaceOnUse">
<stop offset="0.13" stop-color="#13AAE6"/>
<stop offset="1" stop-color="#023B90"/>
</linearGradient>
<linearGradient id="paint1_linear_1_4543" x1="1787.89" y1="848.713" x2="1794.59" y2="-468.422" gradientUnits="userSpaceOnUse">
<stop offset="0.13" stop-color="#13AAE6"/>
<stop offset="1" stop-color="#023B90"/>
</linearGradient>
<linearGradient id="paint2_linear_1_4543" x1="1791.56" y1="783.307" x2="1798.26" y2="-534.513" gradientUnits="userSpaceOnUse">
<stop offset="0.13" stop-color="#13AAE6"/>
<stop offset="1" stop-color="#023B90"/>
</linearGradient>
<linearGradient id="paint3_linear_1_4543" x1="34.1201" y1="364.474" x2="266.943" y2="324.931" gradientUnits="userSpaceOnUse">
<stop offset="0.13" stop-color="#13AAE6"/>
<stop offset="1" stop-color="#023B90"/>
</linearGradient>
<linearGradient id="paint4_linear_1_4543" x1="81.7705" y1="188.778" x2="199.607" y2="58.9505" gradientUnits="userSpaceOnUse">
<stop offset="0.13" stop-color="#13AAE6"/>
<stop offset="1" stop-color="#023B90"/>
</linearGradient>
</defs>
</svg>
