<svg width="120" height="120" viewBox="0 0 120 120" fill="none" xmlns="http://www.w3.org/2000/svg">
<circle cx="60" cy="60" r="60" fill="#EDF0F4"/>
<path d="M96.6852 68.017L82.8188 81.8754V80.7428C82.8274 80.1582 82.596 79.5956 82.1786 79.1861L80.5338 77.5854L93.3757 64.7435C95.9796 62.1308 95.9796 57.904 93.3757 55.2912L64.6906 26.5981C62.0787 23.9919 57.8501 23.9919 55.2382 26.5981L26.5732 55.2792C23.9692 57.892 23.9692 62.1188 26.5732 64.7315L55.2623 93.4206C57.8718 96.0286 62.101 96.0286 64.7106 93.4206L75.4035 82.7278L75.9557 83.1279L75.8917 88.9946L68.1041 96.6781C63.65 101.103 56.4589 101.103 52.0048 96.6781L23.3077 68.017C18.8974 63.5926 18.8974 56.4342 23.3077 52.0097L51.9808 23.3126C56.4025 18.8958 63.5663 18.8958 67.9881 23.3126L96.6852 52.0097C101.093 56.4351 101.093 63.5917 96.6852 68.017Z" fill="#1EB3DE"/>
<path d="M82.2066 79.186L80.5618 77.5853L65.2108 62.5304C66.4215 60.0168 65.6748 56.9974 63.4319 55.3379C61.1891 53.6784 58.0833 53.8472 56.0336 55.7401C53.9839 57.6329 53.5688 60.7155 55.0449 63.0831C56.521 65.4507 59.4715 66.4349 62.0734 65.4278L70.3291 73.5275L77.7725 80.3586L78.4929 81.0229C78.7175 81.2267 78.8393 81.5203 78.825 81.8232L78.817 85.9891V94.6251L78.697 96.3739C78.6165 97.5647 79.5082 98.5991 80.6979 98.695H80.7339C81.9266 98.6213 82.8586 97.6368 82.8669 96.4419V81.9593V80.7908C82.8735 80.1885 82.6352 79.6093 82.2066 79.186Z" fill="#1EB3DE"/>
<path d="M59.8323 63.2149C58.0884 63.1254 56.7379 61.6549 56.7968 59.9096C56.8557 58.1644 58.3023 56.7883 60.0483 56.8166C61.7943 56.8449 63.1956 58.2672 63.1979 60.0134C63.1983 60.1782 63.1862 60.3427 63.1619 60.5057C62.9198 62.0612 61.5827 63.21 60.0084 63.2149H59.8323Z" fill="#1EB3DE"/>
</svg>
