<svg width="120" height="120" viewBox="0 0 120 120" fill="none" xmlns="http://www.w3.org/2000/svg">
<circle cx="60" cy="60" r="60" fill="#E7EFF3"/>
<circle cx="60" cy="38.1132" r="18.1132" fill="#88BDF3"/>
<circle cx="60" cy="81.8868" r="18.1132" fill="#3075EE"/>
<circle cx="81.8868" cy="60" r="18.1132" fill="#5795F1"/>
<circle cx="38.1132" cy="60" r="18.1132" fill="#205FEC"/>
<path d="M55.7358 55.7358C49.1542 54.1354 44.0154 48.9967 42.415 42.415C48.9832 44.0393 54.1115 49.1676 55.7358 55.7358Z" fill="#134BEF"/>
<path d="M42.3773 77.6226C43.9777 71.041 49.1165 65.9022 55.6981 64.3019C54.0738 70.87 48.9455 75.9984 42.3773 77.6226Z" fill="#0932E8"/>
<path d="M64.2642 64.2642C70.8458 65.8645 75.9846 71.0033 77.5849 77.5849C71.0168 75.9607 65.8884 70.8323 64.2642 64.2642V64.2642Z" fill="#164BEA"/>
<path d="M77.6226 42.3773C76.0223 48.9589 70.8835 54.0977 64.3019 55.6981C65.9261 49.1299 71.0545 44.0016 77.6226 42.3773Z" fill="#3170F1"/>
</svg>
