<svg width="120" height="120" viewBox="0 0 120 120" fill="none" xmlns="http://www.w3.org/2000/svg">
<circle cx="60" cy="60" r="60" fill="#E7EFF3"/>
<path fill-rule="evenodd" clip-rule="evenodd" d="M20.7152 52.3156C23.8903 35.542 37.7775 22.5529 55.0322 20.2117C58.0149 19.7947 64.333 20.0192 67.6364 20.6607C75.5261 22.168 83.48 26.5619 88.9643 32.3348C98.2972 42.2451 101.985 55.7473 98.9707 69.0251C97.2388 76.6903 93.326 83.4895 87.4248 89.1021C81.8443 94.3619 75.5261 97.6333 67.7006 99.301C63.9161 100.103 56.0905 100.103 52.3061 99.301C46.8218 98.1143 42.0751 96.1259 37.4247 93.079C34.3779 91.0585 29.086 85.7346 26.9692 82.5915C20.9077 73.5152 18.7268 62.8994 20.7152 52.3156ZM88.419 36.6004C82.5499 29.3521 73.5377 24.4772 64.0123 23.3868C56.1226 22.5208 48.6178 24.1244 41.4016 28.2617C34.7948 32.0141 28.8294 38.9096 25.975 46.0616C20.3624 59.9488 23.4734 75.3433 34.0251 85.927C52.723 104.753 84.6345 98.0502 94.2882 73.2586C96.1163 68.6402 96.6936 65.2085 96.6936 59.628C96.6615 55.7153 96.5332 54.4324 95.8276 51.6101C94.3844 45.6768 92.2035 41.315 88.419 36.6004Z" fill="black"/>
<path fill-rule="evenodd" clip-rule="evenodd" d="M28.252 62.0014C27.2899 57.1906 29.9518 52.027 34.1212 50.5196C35.6927 49.9744 38.8358 49.8782 40.4714 50.3272C44.6728 51.5139 47.5272 56.1322 47.0782 61.0713C46.7254 64.6634 45.1539 67.197 42.2995 68.8006C40.7601 69.6345 40.3431 69.7307 37.5529 69.7307C34.057 69.7307 32.7742 69.2496 30.7857 67.1008C29.2783 65.5293 28.7331 64.4068 28.252 62.0014ZM43.3258 61.8731C43.9993 59.0828 43.0372 55.9077 41.1449 54.5286C39.2206 53.1816 35.9172 53.1495 34.057 54.4966C31.812 56.0681 31.0423 60.5902 32.5176 63.4767C34.955 68.3195 42.0429 67.2612 43.3258 61.8731Z" fill="black"/>
<path d="M77.5146 50.6478C71.4851 53.0532 69.7853 61.9372 74.3395 67.3252C76.809 70.2759 82.6461 70.8211 85.2439 68.3195L85.9495 67.646L86.0457 68.544C86.142 69.3458 86.2382 69.4099 87.7455 69.4099H89.3491L89.4454 64.3426L89.5416 59.3073H85.0194H80.5294V60.9109V62.5145H83.2555C86.2061 62.5145 86.3023 62.5786 85.4684 64.3105C84.8911 65.4971 82.8385 66.6838 81.2991 66.6838C77.6108 66.6838 75.3979 64.086 75.3979 59.8846C75.4299 55.2341 78.4126 52.5722 82.4858 53.5343C84.0573 53.9192 85.6609 55.2983 85.6609 56.2925C85.6609 56.6132 86.142 56.7415 87.5852 56.7415H89.4774L89.0284 55.2983C88.0342 51.9307 85.5647 50.2309 81.4915 50.1026C79.6955 50.0385 78.7013 50.1668 77.5146 50.6478Z" fill="black"/>
<path d="M49.7402 59.9488V69.5703H51.3438H52.9474L53.0116 63.0918L53.1078 56.5812L55.4811 63.0918L57.8544 69.6024L59.458 69.5062L61.0616 69.41L63.4029 62.9956L65.7441 56.5812L65.8403 62.9956L65.9366 69.41L67.6364 69.5062L69.3041 69.6024L69.24 60.045L69.1437 50.4876H66.9308H64.6857L62.12 57.6075C60.7088 61.5524 59.458 64.6633 59.3618 64.503C59.2335 64.3747 58.0789 61.3279 56.7961 57.7037C55.5132 54.0796 54.2944 50.9366 54.1341 50.7121C53.9417 50.4876 53.0436 50.3272 51.7928 50.3272H49.7402V59.9488Z" fill="black"/>
</svg>
