<svg width="120" height="120" viewBox="0 0 120 120" fill="none" xmlns="http://www.w3.org/2000/svg">
<circle cx="60" cy="60" r="60" fill="#EDF0F4"/>
<path d="M45.1225 69.5066C45.0973 69.8344 44.8716 70.1122 44.556 70.204C44.2403 70.2959 43.9008 70.1824 43.7037 69.9193L32.3532 59.3479C32.0637 59.1611 31.9154 58.8181 31.9775 58.4791C32.0396 58.1402 32.3 57.8721 32.637 57.8001L48.5277 51.4645C49.2654 51.1704 49.7091 51.5574 49.5131 52.3313L45.1225 69.5066Z" fill="#404A72"/>
<path d="M35.7326 79.5517C35.1289 80.0677 34.5201 79.8561 34.3808 79.0719L31.2853 61.8914C31.1408 61.1072 31.5019 60.9112 32.0849 61.4529L42.8679 71.5136C43.1458 71.7609 43.3017 72.1173 43.2947 72.4892C43.2878 72.8612 43.1187 73.2115 42.8318 73.4483L35.7326 79.5517Z" fill="#556195"/>
<path d="M48.7341 48.0439C48.9862 48.2838 49.0906 48.6404 49.0074 48.9784C48.9242 49.3164 48.6663 49.5839 48.3316 49.6794L32.539 55.9995C31.7961 56.2936 31.4194 55.9273 31.698 55.1792L38.1884 37.7356C38.2443 37.4109 38.4971 37.1557 38.8213 37.0969C39.1455 37.038 39.4718 37.1881 39.6382 37.4725L48.7341 48.0439Z" fill="#556195"/>
<path d="M32.183 76.6317C32.3275 77.4159 32.085 77.5088 31.6671 76.8432L25.5172 67.3759C25.0862 66.6329 25.1183 65.7088 25.5997 64.9974L28.3342 61.3292C28.814 60.6894 29.3196 60.8132 29.4589 61.5923L32.183 76.6317Z" fill="#556195"/>
<path d="M30.2533 54.1061C29.9747 54.8542 29.5414 54.8491 29.2885 54.1061L27.199 47.8066C26.9693 46.9706 27.2034 46.0756 27.813 45.4591L35.2785 38.6953C35.8667 38.1793 36.1246 38.3341 35.846 39.0822L30.2533 54.1061Z" fill="#556195"/>
<path d="M28.2825 56.531C28.5164 57.3914 28.3678 58.3109 27.875 59.0539L25.7338 61.938C25.254 62.5777 24.9341 62.4539 25.0115 61.6594L26.0331 51.6864C26.1105 50.8919 26.3891 50.8609 26.6367 51.6193L28.2825 56.531Z" fill="#556195"/>
<path d="M36.7077 34.0725C36.976 34.3769 36.7077 35.0683 36.1144 35.6203L32.7402 38.6488C32.1469 39.1647 32.054 39.0977 32.5287 38.4579L35.3198 34.6762C35.8358 34.0364 36.4446 33.7733 36.7077 34.0725Z" fill="#556195"/>
<path d="M57.897 87.1514C57.7698 87.4595 57.4744 87.665 57.1413 87.6772C56.8082 87.6894 56.4986 87.5061 56.3492 87.2082L47.5784 74.4337C47.3477 74.1997 47.2862 73.8472 47.4239 73.5488C47.5616 73.2505 47.8697 73.0686 48.1975 73.0923L65.8372 71.2711C66.6265 71.1885 66.9464 71.6838 66.544 72.3752L57.897 87.1514Z" fill="#556195"/>
<path d="M54.2184 87.1618C54.6724 87.8222 54.4247 88.1472 53.6663 87.8944L37.1565 82.2708C36.4033 82.0128 36.2795 81.3782 36.8831 80.8571L43.9462 74.7588C44.2225 74.5097 44.5938 74.3937 44.9628 74.4413C45.3317 74.4889 45.6615 74.6953 45.8655 75.0065L54.2184 87.1618Z" fill="#556195"/>
<path d="M66.1931 68.3045C66.7091 68.9081 66.4872 69.4653 65.6772 69.5479L47.7744 71.3949C47.4378 71.4654 47.0894 71.3473 46.8651 71.0865C46.6408 70.8257 46.5761 70.4635 46.6961 70.1412L51.1744 52.7131C51.3756 51.9443 51.9638 51.805 52.4797 52.4087L66.1931 68.3045Z" fill="#6ECCE0"/>
<path d="M79.0553 83.2356C79.3146 83.4415 79.4166 83.7882 79.3101 84.1017C79.2037 84.4153 78.9117 84.6282 78.5807 84.6337L60.3683 88.4619C59.5893 88.627 59.2797 88.1988 59.6821 87.5075L68.2724 72.8189C68.4189 72.5049 68.7212 72.2922 69.0663 72.2604C69.4114 72.2285 69.7475 72.3822 69.9491 72.6641L79.0553 83.2356Z" fill="#556195"/>
<path d="M49.7659 93.0382C48.9907 93.4063 48.0735 93.3002 47.4029 92.7648L38.9313 85.2993C38.338 84.7834 38.467 84.5512 39.2203 84.7834L53.6663 89.7002C54.4247 89.9581 54.466 90.4792 53.7643 90.8559L49.7659 93.0382Z" fill="#556195"/>
<path d="M69.4022 93.7502C68.7031 94.2611 67.7842 94.3594 66.9928 94.0081L61.1163 91.0106C60.4044 90.6443 60.4611 90.216 61.2402 90.0509L76.9296 86.749C77.7087 86.5839 77.8428 86.8625 77.2288 87.3681L69.4022 93.7502Z" fill="#556195"/>
<path d="M52.9698 94.1372C52.1701 94.101 52.0979 93.7605 52.7995 93.3839L55.957 91.671C56.7714 91.2858 57.7133 91.2745 58.5367 91.6401L63.1491 93.9875C63.8611 94.3487 63.7889 94.6118 62.9943 94.5757L52.9698 94.1372Z" fill="#556195"/>
<path d="M81.9857 86.6407C82.2488 86.9451 81.8929 87.5075 81.1912 87.8841L77.0328 90.1026C76.326 90.4793 76.2537 90.3709 76.8728 89.8653L80.3812 86.9967C81.0003 86.4911 81.7226 86.3312 81.9857 86.6407Z" fill="#556195"/>
<path d="M71.4762 68.1188C70.7332 68.4129 70.2895 68.026 70.4907 67.2521L74.902 50.0819C74.9283 49.7538 75.1543 49.4759 75.4702 49.3831C75.7861 49.2904 76.1264 49.4021 76.3259 49.664L87.6764 60.2406C87.9709 60.4244 88.1232 60.7695 88.0606 61.1109C87.998 61.4524 87.7332 61.721 87.3926 61.7884L71.4762 68.1188Z" fill="#404A72"/>
<path d="M88.729 57.6918C88.8683 58.476 88.5123 58.6772 87.9293 58.1304L77.1412 48.0697C76.8639 47.8216 76.7089 47.4648 76.7168 47.0928C76.7248 46.7209 76.8949 46.371 77.1824 46.135L84.2662 40.0315C84.8698 39.5156 85.4838 39.7271 85.6231 40.5113L88.729 57.6918Z" fill="#556195"/>
<path d="M81.8154 81.8529C81.7552 82.1761 81.5009 82.428 81.1773 82.4854C80.8536 82.5428 80.5282 82.3936 80.3605 82.1109L71.2595 71.5395C70.9989 71.3012 70.8884 70.9401 70.971 70.5968C71.0536 70.2534 71.3163 69.9822 71.6568 69.8885L87.4649 63.5683C88.2027 63.2742 88.5844 63.6406 88.3058 64.3887L81.8154 81.8529Z" fill="#556195"/>
<path d="M94.4764 52.2075C94.9064 52.9501 94.8764 53.8728 94.399 54.5859L91.6594 58.2542C91.1848 58.8939 90.6792 58.7701 90.5347 57.991L87.8157 42.9517C87.6764 42.1675 87.9138 42.0746 88.3317 42.7401L94.4764 52.2075Z" fill="#556195"/>
<path d="M92.8048 71.7767C93.0345 72.6127 92.8004 73.5078 92.1908 74.1242L84.7253 80.8881C84.132 81.404 83.8792 81.2492 84.1578 80.5063L89.7505 65.4772C90.0239 64.7291 90.4573 64.7343 90.7101 65.4772L92.8048 71.7767Z" fill="#556195"/>
<path d="M93.9605 67.897C93.8779 68.6915 93.6045 68.7173 93.3517 67.964L91.7162 63.0524C91.4792 62.1888 91.6279 61.2649 92.1238 60.5192L94.27 57.6454C94.7447 57.0057 95.0697 57.1295 94.9872 57.924L93.9605 67.897Z" fill="#556195"/>
<path d="M84.6428 84.9072C84.163 85.5521 83.5594 85.8204 83.2911 85.5108C83.0228 85.2012 83.2911 84.515 83.8844 83.963L87.2431 80.919C87.8313 80.4031 87.9293 80.4702 87.4546 81.1099L84.6428 84.9072Z" fill="#556195"/>
<path d="M72.4358 45.1496C72.6665 45.3836 72.728 45.7361 72.5903 46.0345C72.4526 46.3329 72.1445 46.5147 71.8167 46.491L54.1771 48.3123C53.3825 48.3948 53.0626 47.8995 53.4651 47.2133L62.1069 32.4319C62.2341 32.1238 62.5295 31.9183 62.8626 31.9061C63.1957 31.8939 63.5053 32.0772 63.6547 32.3752L72.4358 45.1496Z" fill="#404A72"/>
<path d="M76.0783 44.8245C75.802 45.0737 75.4307 45.1897 75.0617 45.1421C74.6927 45.0945 74.363 44.888 74.159 44.5769L65.7597 32.4216C65.3108 31.7612 65.5585 31.4361 66.3117 31.6941L82.8215 37.3074C83.5748 37.5654 83.6986 38.2 83.095 38.7211L76.0783 44.8245Z" fill="#556195"/>
<path d="M68.8037 66.8702C68.6076 67.6441 68.0195 67.7783 67.4984 67.1746L53.8108 51.284C53.2948 50.6803 53.5115 50.118 54.3267 50.0354L72.2243 48.1884C72.5618 48.1156 72.9121 48.2327 73.1378 48.4939C73.3636 48.7552 73.4287 49.1187 73.3078 49.4421L68.8037 66.8702Z" fill="#556195"/>
<path d="M51.7264 46.7645C51.5821 47.0811 51.2793 47.2962 50.9329 47.3282C50.5864 47.3601 50.2494 47.2041 50.0496 46.9192L40.9486 36.353C40.69 36.1476 40.5877 35.8023 40.6928 35.4892C40.7979 35.1761 41.0879 34.9625 41.4181 34.9548L59.6304 31.1215C60.4147 30.9564 60.7242 31.3846 60.3218 32.0759L51.7264 46.7645Z" fill="#556195"/>
<path d="M66.3066 29.8625C65.5533 29.6045 65.512 29.0886 66.2137 28.7068L70.2483 26.5502C71.0234 26.1821 71.9406 26.2883 72.6112 26.8237L81.0622 34.2892C81.6607 34.8051 81.5317 35.0373 80.7784 34.8051L66.3066 29.8625Z" fill="#556195"/>
<path d="M43.0949 32.8343C42.3158 32.9994 42.1817 32.7415 42.8008 32.2255L50.5965 25.8332C51.2976 25.3224 52.2178 25.2241 53.011 25.5752L58.9133 28.5779C59.6253 28.9391 59.5685 29.3673 58.7895 29.5324L43.0949 32.8343Z" fill="#556195"/>
<path d="M64.0468 27.9123C63.2324 28.2975 62.2905 28.3088 61.4671 27.9433L56.8238 25.5958C56.153 25.2346 56.2201 24.9715 57.0198 25.0025L67.034 25.4668C67.8234 25.5184 67.9059 25.8434 67.2043 26.2201L64.0468 27.9123Z" fill="#556195"/>
<path d="M39.6226 32.5867C39.0035 33.1026 38.2812 33.2522 38.0181 32.9478C37.755 32.6434 38.111 32.0759 38.8126 31.7044L42.971 29.4808C43.6727 29.1041 43.7449 29.2125 43.131 29.7181L39.6226 32.5867Z" fill="#556195"/>
<path d="M34.2879 83.086C34.5923 82.8177 35.2837 83.086 35.8357 83.6741L38.8797 87.0328C39.3957 87.6262 39.3286 87.719 38.6888 87.2444L34.9019 84.4325C34.2415 83.9579 33.9732 83.3491 34.2879 83.086Z" fill="#556195"/>
<path d="M86.8458 37.8079C87.1553 37.5396 87.7177 37.9008 88.0892 38.6024L90.3128 42.7608C90.6843 43.4677 90.5811 43.5347 90.0755 42.9208L87.2069 39.4124C86.7013 38.7933 86.5414 38.071 86.8458 37.8079Z" fill="#556195"/>
<path d="M85.1175 35.1508C85.7572 35.6254 86.0307 36.2342 85.7211 36.4974C85.4116 36.7605 84.7254 36.4974 84.1733 35.9092L81.1293 32.5505C80.6134 31.9572 80.6805 31.8643 81.3202 32.339L85.1175 35.1508Z" fill="#556195"/>
<path d="M32.7969 80.171C33.3128 80.7901 33.4624 81.5124 33.1529 81.7755C32.8433 82.0386 32.2861 81.6826 31.9095 80.981L29.691 76.8226C29.3143 76.1157 29.4227 76.0487 29.9283 76.6626L32.7969 80.171Z" fill="#556195"/>
</svg>
