<svg width="120" height="120" viewBox="0 0 120 120" fill="none" xmlns="http://www.w3.org/2000/svg">
<circle cx="60" cy="60" r="60" fill="#E7EFF3"/>
<path d="M44.0428 34.8279C45.4128 33.2679 46.6728 31.9479 47.8728 30.8279C27.6128 30.1779 33.5128 44.8279 26.8728 59.6979C19.2728 76.8379 27.7728 83.3679 40.4328 85.4079C38.6649 83.3012 37.2223 80.9417 36.1528 78.4079C27.9828 68.0779 31.2928 49.2479 44.0428 34.8279Z" fill="#EFE812"/>
<path d="M92.7929 53.088C90.4004 59.3472 86.9389 65.1433 82.5629 70.218C79.0547 74.4814 74.8524 78.1225 70.1329 80.988C64.6518 84.4611 58.2814 86.2708 51.7929 86.198C48.0047 86.232 44.2197 85.9679 40.4729 85.408C42.5531 87.8929 45.1322 89.9132 48.0429 91.338C66.3629 100.198 67.5129 83.748 86.8929 75.398C97.7729 70.708 97.8129 61.548 92.7829 53.088" fill="#EDE70A"/>
<path d="M70.1328 35.9879C72.785 36.4521 75.3404 37.358 77.6928 38.6679C83.8553 42.1328 89.0478 47.0915 92.7928 53.0879C96.0928 43.7879 94.5528 36.4879 87.3428 35.1679C79.4028 33.7179 73.2028 33.2479 67.2428 29.0879C59.9028 23.9879 53.4628 25.6479 47.8828 30.8379L49.0928 30.8879C56.8328 31.3479 64.2328 32.8879 70.0928 35.9679" fill="#EDE70A"/>
<path d="M44.0428 34.8279C31.2928 49.2479 27.9828 68.0779 36.1928 78.4079C32.3422 69.3163 32.998 58.9422 37.9628 50.4079C44.8728 38.8879 58.7428 33.8879 70.1328 35.9879C64.2328 32.8679 56.8328 31.3679 49.1328 30.9079L47.9228 30.8479C46.6828 31.9879 45.4228 33.2679 44.0428 34.8279Z" fill="#DEC21C"/>
<path d="M77.6928 38.6479C75.3392 37.345 72.7838 36.4459 70.1328 35.9879C77.8928 40.0679 83.0428 46.9879 83.0428 57.9279C82.9515 67.3126 78.0855 76.0043 70.1328 80.9879C74.8546 78.1256 79.0574 74.4841 82.5628 70.2179C86.9389 65.1433 90.4003 59.3471 92.7928 53.0879C89.0504 47.0842 83.8577 42.1184 77.6928 38.6479Z" fill="#E5CB22"/>
<path fill-rule="evenodd" clip-rule="evenodd" d="M37.963 50.3579C44.873 38.8879 58.743 33.8879 70.133 35.9879C77.893 40.0679 83.043 46.9879 83.043 57.9279C82.9535 67.3131 78.087 76.0056 70.133 80.9879C64.6519 84.4611 58.2814 86.2708 51.793 86.1979C48.0047 86.232 44.2197 85.9678 40.473 85.4079C38.7016 83.3037 37.2586 80.9437 36.193 78.4079C32.3207 69.303 32.9769 58.9039 37.963 50.3579ZM42.733 70.1679C48.41 78.9093 60.0831 81.4209 68.853 75.7879C77.623 70.1779 78.813 59.2479 74.483 49.7879C70.043 40.0779 57.863 37.4179 48.363 44.1679C39.873 50.1679 37.073 61.4379 42.733 70.1679Z" fill="#CCA727"/>
</svg>
