<svg width="120" height="120" viewBox="0 0 120 120" fill="none" xmlns="http://www.w3.org/2000/svg">
<circle cx="60" cy="60" r="60" fill="#EDF0F4"/>
<path d="M36.5362 46.3137H66.5429C71.0335 46.3137 74.6869 49.9671 74.6869 54.4577C74.6869 58.9484 71.0335 62.6018 66.5429 62.6018H50.3065C49.0259 62.6018 47.9878 63.6399 47.9878 64.9205C47.9878 66.2011 49.0259 67.2392 50.3065 67.2392H66.5423C73.5898 67.2392 79.3237 61.5062 79.3237 54.4577C79.3237 47.4093 73.5898 41.6763 66.5423 41.6763H36.5362C35.2556 41.6763 34.2175 42.7144 34.2175 43.995C34.2175 45.2756 35.2556 46.3137 36.5362 46.3137Z" fill="#8500FF"/>
<path d="M66.5429 31H54.9042C53.6236 31 52.5855 32.0381 52.5855 33.3187C52.5855 34.5993 53.6236 35.6374 54.9042 35.6374H66.5429C76.9205 35.6374 85.3626 44.0801 85.3626 54.4577C85.3626 64.8354 76.9199 73.2783 66.5423 73.2783H36.9795C36.145 73.2688 35.3698 73.7086 34.9497 74.4298C34.5297 75.151 34.5297 76.0422 34.9497 76.7634C35.3698 77.4846 36.145 77.9244 36.9795 77.9149H66.5423C79.4768 77.9149 90 67.392 90 54.4571C90 41.5223 79.4777 31 66.5429 31Z" fill="#8500FF"/>
<path fill-rule="evenodd" clip-rule="evenodd" d="M50.7811 52.1389C52.0611 52.1404 53.0983 53.1777 53.0998 54.4576C53.0998 55.8227 51.9636 56.7763 50.336 56.7763H44.6857C43.837 56.7763 42.8115 55.7421 42.8115 54.4576C42.813 53.1777 43.8502 52.1404 45.1302 52.1389H50.7811ZM32.3451 83.9551H45.7602C46.5949 83.9456 47.3702 84.3854 47.7903 85.1067C48.2104 85.828 48.2104 86.7194 47.7903 87.4406C47.3702 88.1619 46.5949 88.6017 45.7602 88.5922H32.3451C31.5105 88.6017 30.7351 88.1619 30.3151 87.4406C29.895 86.7194 29.895 85.828 30.3151 85.1067C30.7351 84.3854 31.5105 83.9456 32.3451 83.9551Z" fill="#8500FF"/>
</svg>
