<svg width="120" height="120" viewBox="0 0 120 120" fill="none" xmlns="http://www.w3.org/2000/svg">
<circle cx="60" cy="60" r="60" fill="#EDF0F4"/>
<path d="M99.0829 59.1487C96.852 56.9977 94.7426 54.7285 92.5117 52.5775C91.8566 52.0726 91.6264 51.1873 91.9556 50.4266C92.8729 47.32 93.6687 44.2134 94.5444 41.1068C94.7842 40.3494 94.6627 40.033 93.8285 39.8316C90.642 39.0358 87.4971 38.0802 84.2691 37.2812C83.3518 37.083 82.9938 36.6036 82.7957 35.7662C81.9999 32.6596 81.1241 29.633 80.3667 26.5264C80.127 25.6091 79.8489 25.4109 78.9316 25.689C75.8251 26.5647 72.6801 27.3605 69.5736 28.1596C69.0558 28.3194 68.5764 28.4376 68.1002 27.9614C65.5497 25.3374 62.881 22.8285 60.4136 20.0799C60.1324 20.0863 59.8511 20.0607 59.5762 20C59.5922 20.2109 59.4836 20.4155 59.2982 20.5178C56.9075 22.8669 54.5201 25.216 52.1678 27.6066C51.7171 28.1596 50.9564 28.3545 50.2949 28.0861C47.1883 27.2103 44.0817 26.4145 40.9751 25.5356C40.0994 25.2959 39.7414 25.4557 39.5017 26.373C38.7059 29.4795 37.7886 32.5861 36.9928 35.6927C36.9097 36.3447 36.4079 36.8657 35.7591 36.9679C32.6142 37.7638 29.546 38.6395 26.401 39.3969C25.3655 39.6367 25.0875 39.9946 25.4039 41.0685C26.3211 44.1367 27.0371 47.2817 27.9128 50.3882C28.194 51.0498 27.9991 51.8137 27.4334 52.2611C25.0843 54.5303 22.8119 56.8826 20.4627 59.1519C19.8267 59.7495 19.8651 60.1075 20.4627 60.7051C22.7735 62.9744 25.0044 65.2851 27.3119 67.5543C27.8808 67.9762 28.095 68.7305 27.8297 69.3857C26.954 72.4539 26.1965 75.5189 25.2792 78.5872C24.9596 79.661 25.1194 80.1021 26.2764 80.3802C29.383 81.1376 32.4097 82.0517 35.5162 82.8092C36.4335 83.0073 36.7915 83.4867 36.9896 84.3241C37.7854 87.469 38.6612 90.5373 39.4602 93.6822C39.6583 94.478 39.9396 94.6794 40.7354 94.4397C43.8036 93.5639 46.907 92.848 49.9753 91.9691C50.7903 91.6623 51.7107 91.9212 52.2445 92.6051C54.4338 94.8743 56.6646 97.0668 58.8571 99.336C59.5347 100.052 59.931 100.094 60.6501 99.3744C62.8394 97.0636 65.1502 94.8743 67.3811 92.5636C67.8828 91.902 68.7618 91.6591 69.532 91.9659C72.6002 92.8832 75.6653 93.6375 78.7335 94.5164C79.6092 94.7561 79.9672 94.5963 80.2069 93.679C80.9643 90.6108 81.92 87.5457 82.6774 84.4775C82.8756 83.5602 83.3135 83.2023 84.1924 83.0041C87.299 82.2467 90.3256 81.3709 93.4322 80.6135C94.3495 80.4153 94.6275 80.0574 94.3495 79.0985C93.4738 75.992 92.6779 72.8055 91.799 69.6605C91.5178 68.9989 91.7127 68.2351 92.2784 67.7876C94.5476 65.5983 96.7785 63.2876 99.0893 61.0983C99.9202 60.3056 99.8403 59.9061 99.0829 59.1487Z" fill="#05BCA9"/>
<path d="M40.0194 57.3589C40.0194 57.3621 40.0194 57.3653 40.0194 57.3684C40.0067 58.7204 38.9008 59.8039 37.5489 59.7911H35.0783C34.0428 59.7911 33.0073 59.7911 31.9334 59.8294C31.3773 59.8294 31.2175 59.6313 31.3357 59.072C31.6138 57.9182 31.8918 57.0009 33.4068 56.7612C35.3596 56.4831 37.2293 55.8056 39.1405 55.2463C39.8181 55.0865 40.0962 55.1664 40.0163 55.8823C39.9811 56.3617 40.0194 56.8794 40.0194 57.3589Z" fill="#EDF0F4"/>
<path d="M39.9013 79.0889C38.2585 77.542 36.7883 76.1134 35.2798 74.6848C36.555 73.9688 37.7887 73.2913 38.984 72.5754C39.6616 72.1758 39.9013 72.2557 39.9013 73.0931C39.8629 75.0363 39.9013 77.0243 39.9013 79.0889Z" fill="#EDF0F4"/>
<path d="M35.4811 73.8474C35.0017 74.1254 34.8834 74.0072 34.7651 73.5278C34.4072 72.0927 33.9693 70.6609 33.6114 69.2259C33.5315 68.9063 33.4931 68.51 33.8095 68.3086C34.1291 68.1104 34.3656 68.3885 34.6053 68.5068C36.2385 69.424 37.8717 70.3797 39.7446 71.4152C38.2297 72.2525 36.833 73.01 35.4811 73.8474Z" fill="#EDF0F4"/>
<path d="M32.4544 52.4976C32.0549 53.4948 30.6614 53.6514 29.7473 54.2906C28.83 51.9415 28.83 51.9415 30.4249 50.3083C31.5403 49.1929 32.6557 48.119 33.7712 47.0036C33.8734 46.9397 33.9789 46.8885 34.0908 46.8438C33.5283 48.8349 33.1703 50.7462 32.4544 52.4976Z" fill="#EDF0F4"/>
<path d="M34.8419 46.4059C34.9218 46.048 35.1999 46.1279 35.398 46.2461C36.7532 47.0419 38.0667 47.8378 39.5785 48.7167C37.4275 49.9504 35.4747 51.0658 33.2471 52.2611C33.8064 50.1485 34.3241 48.2756 34.8419 46.4059Z" fill="#EDF0F4"/>
<path d="M30.6615 56.8794C30.2236 56.8794 30.2236 56.4416 30.1437 56.1635C29.7059 54.8499 29.7858 54.77 32.1764 53.7729C31.9527 54.6901 31.7386 55.4444 31.5564 56.1635C31.4957 56.6014 31.1025 56.9178 30.6615 56.8794Z" fill="#EDF0F4"/>
<path d="M28.2707 57.557C26.7558 57.9565 25.244 58.3145 23.7291 58.6724L23.6108 58.5126L29.1081 55.2878C30.0254 57.0009 29.9838 57.1192 28.2707 57.557Z" fill="#EDF0F4"/>
<path d="M29.4277 57.8766C30.4632 57.6369 30.1436 58.714 30.345 59.1519C30.5431 59.5897 30.2651 59.7879 29.7889 59.7879H23.2945C23.2945 59.708 23.2561 59.5897 23.2561 59.5098C25.2856 58.9921 27.3151 58.3944 29.4277 57.8766Z" fill="#EDF0F4"/>
<path d="M30.9873 61.6448C31.3836 63.1501 31.78 64.6555 32.2306 66.2791C29.2103 64.8089 29.6002 65.6367 30.9873 61.6448Z" fill="#EDF0F4"/>
<path d="M29.9614 65.9211C30.9586 65.8828 32.7484 67.5543 32.7484 68.4716C32.4927 69.1492 31.9525 69.7852 31.4348 70.5043C31.3964 70.5043 31.3549 70.5427 31.3165 70.5427C30.917 70.6226 28.9674 68.2319 29.0473 67.794C29.0857 67.7141 29.0857 67.6342 29.1272 67.5543C29.4021 66.995 29.0857 65.9595 29.9614 65.9211Z" fill="#EDF0F4"/>
<path d="M30.8371 72.4923C31.2366 71.8946 31.5147 71.6549 32.0708 72.3324C32.5854 72.9205 33.1287 73.4766 33.704 74.004C33.9021 74.2437 34.3016 74.4419 33.7839 74.7615C31.5147 76.0367 29.2039 77.3503 26.9347 78.6255C26.8708 78.568 26.8196 78.5009 26.7749 78.4274C28.1109 76.4362 29.466 74.4834 30.8371 72.4923Z" fill="#EDF0F4"/>
<path d="M33.0521 69.4656C33.4101 70.7408 33.7297 72.016 34.0876 73.368C31.4988 71.5366 31.4189 71.2969 33.0521 69.4656Z" fill="#EDF0F4"/>
<path d="M34.0077 66.717C33.5698 67.3945 33.0904 67.1165 32.9338 66.5571C32.3777 64.6459 31.8599 62.7346 31.3805 60.8234C31.1824 60.1874 31.7385 60.344 32.0581 60.344H38.3895C36.833 62.6164 35.4395 64.6874 34.0077 66.717Z" fill="#EDF0F4"/>
<path d="M39.6614 54.5303C37.2324 55.1664 34.8034 55.8056 32.2529 56.4831C32.4127 54.1724 33.2086 52.6606 35.3212 51.8233C36.9128 51.1872 38.3478 50.1517 40.0609 49.1961V53.9742C40.0961 54.2331 39.9235 54.4792 39.6614 54.5303Z" fill="#EDF0F4"/>
<path d="M40.0196 42.3022V48.2373C38.5462 47.3999 37.2326 46.6041 35.9574 45.8466C35.5195 45.6069 35.4013 45.3672 35.8392 44.9293C36.913 43.8938 37.9486 42.8583 38.9841 41.7844C39.179 41.5 39.5498 41.4009 39.8598 41.5447C40.1794 41.6662 40.0196 42.0241 40.0196 42.3022Z" fill="#EDF0F4"/>
<path d="M35.5994 43.9354C35.9989 41.1068 36.197 40.9087 38.2681 41.5447C37.3508 42.3821 36.4367 43.1779 35.5994 43.9354Z" fill="#EDF0F4"/>
<path d="M39.7032 28.6038C39.7831 28.6422 39.9014 28.6422 39.9813 28.6837V33.9796C39.9813 36.1689 39.9813 36.1689 37.5522 36.4885C38.2682 33.8198 38.9841 31.1926 39.7032 28.6038Z" fill="#EDF0F4"/>
<path d="M37.0727 38.1217C37.2325 37.0862 38.0283 37.2044 38.7059 36.9264C39.8596 36.447 40.0994 36.9647 39.9811 37.9619V38.4413C39.9811 40.5923 38.9072 41.3881 36.9129 40.6722C36.6732 40.5923 36.5134 40.5124 36.5549 40.2727C36.7147 39.5536 36.9544 38.8376 37.0727 38.1217Z" fill="#EDF0F4"/>
<path d="M27.9128 39.7549C30.7573 39.039 33.6082 38.2815 36.5966 37.524C36.3569 38.4797 36.1587 39.2371 35.9605 40.033C35.8007 40.669 35.3245 40.5507 34.8867 40.5124C32.5759 40.3142 30.2268 40.1544 27.8777 39.9563C27.9065 39.8923 27.9192 39.822 27.9128 39.7549Z" fill="#EDF0F4"/>
<path d="M34.9218 41.1068C35.4779 41.1452 35.5994 41.3466 35.4779 41.9027C34.762 45.1691 34.8004 45.1691 31.9719 43.4943C30.4985 42.6186 28.9835 41.7429 27.3503 40.7872C30.0255 40.5507 32.4928 40.9886 34.9218 41.1068Z" fill="#EDF0F4"/>
<path d="M26.2796 41.3082C26.2413 41.1899 26.2413 41.11 26.1997 40.9886C26.318 40.9886 26.3979 41.0269 26.5193 41.0269C28.91 42.4204 31.339 43.8555 33.8064 45.2489C34.0461 45.4088 34.404 45.4887 34.0045 45.9265C32.3713 47.5981 30.7797 49.3112 29.1848 51.0242C29.0314 50.9731 28.8844 50.9092 28.747 50.8261C27.9128 47.6396 27.117 44.4947 26.2796 41.3082Z" fill="#EDF0F4"/>
<path d="M28.3506 52.3794C28.4688 52.4976 28.5903 52.5392 28.5903 52.5775C29.1464 54.6102 29.1464 54.6102 27.315 55.6458C25.9599 56.4416 24.5664 57.1991 23.0547 58.0364C24.886 56.0421 26.5991 54.2107 28.3506 52.3794Z" fill="#EDF0F4"/>
<path d="M21.9009 60.344C24.4514 60.344 26.9603 60.344 29.5075 60.3056C30.1851 60.3056 30.4632 60.4239 30.1851 61.2229C29.7856 62.2968 29.8272 64.0099 29.1112 64.3678C28.2739 64.8057 27.1201 63.4921 26.1229 62.9744C24.6879 62.2169 23.2944 61.3412 21.8625 60.5453C21.8753 60.4782 21.8913 60.4111 21.9009 60.344Z" fill="#EDF0F4"/>
<path d="M22.895 62.0986L22.9334 62.0603C24.9661 62.8177 26.7175 64.093 28.5872 65.1285C29.105 65.4066 28.9867 66.1257 28.2293 67.6374C26.4011 65.7997 24.5666 64.0482 22.895 62.0986Z" fill="#EDF0F4"/>
<path d="M28.6287 69.146C28.747 69.1843 28.8684 69.1843 28.9068 69.2259C30.9778 71.217 30.9778 71.217 29.3447 73.5661C28.4689 74.8414 27.5517 76.075 26.6759 77.3087L26.4778 77.1489L28.6287 69.146Z" fill="#EDF0F4"/>
<path d="M26.1997 79.7793C28.9867 78.1876 31.4956 76.7526 34.0461 75.3176C34.3657 75.1194 34.5255 75.1578 34.6437 75.5573C35.2414 77.8265 35.8391 80.0573 36.5166 82.5663C32.9722 81.5723 29.7441 80.6966 26.1997 79.7793Z" fill="#EDF0F4"/>
<path d="M39.7989 91.4098C39.719 91.4098 39.6391 91.4481 39.5592 91.4481C38.8433 88.8593 38.1657 86.2705 37.4498 83.6018H37.4338C37.7119 83.5634 37.7918 83.5219 37.8877 83.5634C39.7989 84.0013 39.7989 84.0013 39.7989 85.9924V91.4098Z" fill="#EDF0F4"/>
<path d="M39.8628 83.2854C39.5848 83.3237 39.5432 83.3653 39.5432 83.3653C37.7918 83.247 36.8361 82.3681 36.5964 80.5783C36.3567 79.0634 35.8805 77.6315 35.7207 76.0367C36.9959 77.3119 38.3479 78.5073 39.5048 79.9007C40.339 80.8947 39.5432 82.1316 39.8628 83.2854Z" fill="#EDF0F4"/>
<path d="M40.0194 64.1697L39.9011 69.7468C39.9011 70.4627 39.7829 70.7824 39.0254 70.3029C37.6703 69.5071 36.3183 68.7113 34.9217 67.9922C34.324 67.6726 34.324 67.3945 34.6819 66.8768C36.0754 64.8856 37.4689 62.8945 38.8241 60.8618C38.9807 60.5102 39.361 60.312 39.7413 60.3823C40.2974 60.4622 40.0194 60.9001 40.0194 61.1782C40.0609 62.1753 40.0194 63.1725 40.0194 64.1697Z" fill="#EDF0F4"/>
<path d="M74.2718 45.3704C73.0765 44.5746 71.6031 44.255 71.0854 42.7017C70.8776 42.2574 70.8936 41.7397 71.1237 41.3082C72.1592 39.5951 73.1564 37.882 74.112 36.1689C74.5115 35.4914 74.748 35.6128 75.2658 36.0507C76.1415 36.8081 76.4611 37.5656 76.0616 38.7194C75.3873 40.9087 74.8695 43.1395 74.2718 45.3704Z" fill="#EDF0F4"/>
<path d="M79.2511 75.4007C79.2511 78.7054 79.2511 78.7054 75.9464 78.4274C74.3548 78.3091 72.7216 78.1493 71.1267 78.0278C70.7272 77.9895 70.4108 77.9479 70.2894 77.4717C70.1711 76.9923 70.609 76.954 70.887 76.7942C73.3959 75.4007 75.8665 74.0072 78.3339 72.5722C79.0913 72.1343 79.331 72.3325 79.2511 73.1698C79.2096 73.9273 79.2511 74.6432 79.2511 75.4007Z" fill="#EDF0F4"/>
<path d="M64.8721 85.4747C63.517 84.4775 61.9637 83.7232 60.4104 82.806C61.8454 82.0102 63.159 81.2527 64.5142 80.4569C64.7475 80.2779 65.0799 80.313 65.2716 80.5368C67.0231 82.2882 68.8161 84.0429 70.6474 85.8742C70.4077 86.0724 70.3694 86.1139 70.3694 86.1139C68.4166 86.9896 66.6268 86.8298 64.8721 85.4747Z" fill="#EDF0F4"/>
<path d="M66.5052 87.1494C64.4342 87.6672 62.6028 88.185 60.7715 88.6644C60.3336 88.7826 60.1738 88.6644 60.1738 88.185V83.4068C62.3631 84.6789 64.3159 85.8326 66.5052 87.1494Z" fill="#EDF0F4"/>
<path d="M46.2742 85.1966C45.718 85.0368 45.9961 84.7172 46.1559 84.4392C47.1914 82.6462 48.2653 80.8532 49.3807 78.9036C50.5345 81.3326 51.6116 83.5634 52.6471 85.7943C53.0466 86.5901 52.6471 86.8682 52.0111 86.7116C50.0967 86.2737 48.1854 85.7144 46.2742 85.1966Z" fill="#EDF0F4"/>
<path d="M51.5317 87.2293C48.9046 88.9808 48.8247 88.9424 46.5139 85.8742C48.2238 86.3504 49.8187 86.7499 51.5317 87.2293Z" fill="#EDF0F4"/>
<path d="M45.4945 75.2792C45.5328 75.0811 45.6543 74.8797 45.894 75.0395C46.7313 75.5573 47.7253 75.797 48.323 76.6727C48.9207 77.5484 49.1604 78.4242 48.4029 79.4597C47.4952 80.7924 46.6834 82.1923 45.9739 83.6401C45.3762 84.7939 44.9 84.714 44.2224 83.7999C43.9444 83.4004 43.3851 83.2023 43.5065 82.5663C44.1617 80.1404 44.8009 77.7082 45.4945 75.2792Z" fill="#EDF0F4"/>
<path d="M40.5788 37.2044C40.5724 37.1725 40.5661 37.1373 40.5661 37.1054C40.5309 36.6675 40.8601 36.284 41.298 36.2488C42.1737 36.089 43.0494 35.8493 43.9251 35.6128C44.0306 35.5936 44.1393 35.5936 44.2447 35.6128C44.1712 35.6607 44.1137 35.7311 44.0849 35.811C42.9695 36.8848 41.8541 38.0003 40.5788 39.2371C40.5788 38.4797 40.6172 37.8437 40.5788 37.2044Z" fill="#EDF0F4"/>
<path d="M40.8569 39.9946C42.2919 38.4797 43.7653 37.0063 45.357 35.3731C46.5906 37.524 47.6677 39.4353 48.9429 41.5863C46.1144 41.3881 43.5256 41.2283 40.9783 40.9502C40.2209 40.8703 40.5373 40.311 40.8569 39.9946Z" fill="#EDF0F4"/>
<path d="M54.437 34.3791C55.9104 35.5329 57.6618 36.3703 59.4548 37.4058C58.0198 38.2432 56.7477 38.9591 55.4725 39.7166C55.1529 39.9147 54.9164 40.0362 54.5968 39.7166C52.8453 37.9236 51.0523 36.1721 49.1794 34.2992C51.0939 33.5418 52.6855 33.024 54.437 34.3791Z" fill="#EDF0F4"/>
<path d="M53.363 33.1039C55.3957 32.5478 57.1855 32.0684 59.0169 31.589C59.4547 31.4707 59.6945 31.5091 59.6945 32.0684V36.8081C57.5435 35.5713 55.5523 34.3791 53.363 33.1039Z" fill="#EDF0F4"/>
<path d="M58.1988 49.7906C57.7993 49.3112 57.1632 49.8289 56.6838 49.9504C54.6927 50.4298 54.731 50.4681 53.6955 48.6751C52.8198 47.0835 51.9441 45.4887 50.9884 43.9354C50.6305 43.2994 50.6688 42.9797 51.3464 42.7017C51.7459 42.5419 52.1039 42.3437 52.4618 42.1839C53.2992 41.826 54.0535 40.8703 54.8525 41.0301C55.7698 41.2283 56.3259 42.3054 57.0418 42.9829C59.2567 45.2138 61.446 47.483 63.7184 49.634C64.5749 50.4202 65.1023 51.5005 65.1918 52.6606C62.6189 52.2228 60.094 51.8233 57.6011 51.3471C57.6011 51.2672 57.5627 51.1873 57.6011 51.1074C57.7194 50.6279 58.6366 50.3467 58.1988 49.7906Z" fill="#EDF0F4"/>
<path d="M40.617 44.7312L40.633 44.3317C40.633 41.5032 40.633 41.5032 43.3816 41.7045C45.1331 41.8228 46.9261 42.0241 48.6775 42.1424C49.077 42.1807 49.419 42.1807 49.5373 42.6601C49.6555 43.1395 49.2177 43.1779 48.9812 43.3377L41.4544 47.6396C40.6586 48.119 40.5787 47.7579 40.617 47.0835C40.6586 46.2845 40.617 45.5302 40.617 44.7312Z" fill="#EDF0F4"/>
<path d="M43.1262 47.3999C45.2356 46.3644 47.1884 45.1691 49.1796 43.9737C49.937 43.4943 50.2151 43.734 50.573 44.4116C51.5287 46.2429 52.5642 48.0359 53.6413 49.7874C54.0791 50.5033 53.9609 50.7046 53.1619 50.9028C49.3777 51.8584 45.5936 52.894 41.8126 53.9295C40.9752 54.1692 40.6588 54.0893 40.7771 53.172C40.8154 52.6159 40.7771 52.0182 40.7771 51.101C40.0995 49.2345 41.3364 48.2373 43.1262 47.3999Z" fill="#EDF0F4"/>
<path d="M40.6587 58.9505C40.697 58.4327 40.7769 57.8766 40.7769 57.3589C40.8153 54.8499 40.8153 54.8499 43.1676 54.2139C46.2358 53.4181 49.3008 52.6223 52.3691 51.7434C53.6027 51.3854 54.7981 51.2256 56.1117 51.8616C54.4401 53.8528 52.8069 55.8439 51.2121 57.8351C50.656 57.4356 50.8925 56.4 50.2149 56.4799C49.6172 56.5598 49.777 57.4356 49.5789 57.9533C49.4351 58.3401 49.3296 58.7396 49.2593 59.1487C49.2593 59.1582 49.2561 59.171 49.2561 59.1806C49.1826 59.6313 48.7575 59.9381 48.3037 59.8646C46.0344 59.8262 43.762 59.7847 41.4928 59.8262C40.7769 59.8262 40.5788 59.5482 40.6587 58.9505Z" fill="#EDF0F4"/>
<path d="M49.141 33.5801C48.7351 33.7271 48.2845 33.5354 48.1055 33.1422C47.8274 32.7044 48.2653 32.5446 48.4635 32.3464C49.4191 31.3109 49.4606 31.3109 51.6499 32.9025C50.7327 33.1422 49.8985 33.302 49.141 33.5801Z" fill="#EDF0F4"/>
<path d="M48.2399 31.6305C47.7221 32.388 47.2427 32.4263 46.5683 31.6688C45.5711 30.5534 44.4589 29.5179 43.3818 28.444C43.4202 28.3641 43.4617 28.2459 43.5001 28.166C45.357 28.8819 46.9103 30.1571 48.5978 30.9945C48.6394 31.3492 48.3613 31.4291 48.2399 31.6305Z" fill="#EDF0F4"/>
<path d="M49.7387 35.7311C51.2537 37.2044 52.7271 38.6778 54.3603 40.2727C53.6156 40.7649 52.8453 41.2187 52.0495 41.6278C50.9373 42.1296 49.6269 41.6757 49.0612 40.5923C48.0256 38.7609 46.9901 36.9679 45.9546 35.1366C48.2238 34.2193 48.2238 34.2577 49.7387 35.7311Z" fill="#EDF0F4"/>
<path d="M40.5374 61.3795C40.5374 60.622 40.6556 60.3056 41.5346 60.344C43.6855 60.4239 45.8365 60.3823 47.9874 60.3823C48.5435 60.3823 48.8631 60.4622 48.665 61.1398C47.5112 65.3203 46.3958 69.5039 45.2388 73.8058C44.5229 73.368 43.9252 73.0484 43.3659 72.732C40.4191 71.0604 40.4191 71.0604 40.499 67.7141C40.5789 65.6015 40.5789 63.4921 40.5374 61.3795Z" fill="#EDF0F4"/>
<path d="M50.0584 78.7853C49.8603 78.4274 49.7388 78.1077 50.0968 77.7881C50.3748 77.5101 50.6145 77.7881 50.8543 77.9064C53.6029 79.498 56.3099 81.1312 59.1768 82.806C57.4637 83.8031 55.9104 84.7172 54.3987 85.6345C53.8809 85.9924 53.523 86.1139 53.2034 85.3564C52.2094 83.1671 51.1323 80.9746 50.0584 78.7853Z" fill="#EDF0F4"/>
<path d="M49.3008 76.1965C48.9812 75.9983 48.7032 75.7586 48.3836 75.5605C47.5462 74.9628 46.1527 74.8446 45.9545 73.8889C45.7564 73.0132 46.354 71.9361 46.6321 70.9422C47.4279 68.0753 48.2653 65.2468 48.9429 62.3383C49.1762 61.1142 49.8761 60.0308 50.8957 59.3117C51.6915 61.501 52.449 63.6519 53.3247 65.6846C53.5644 66.4005 53.5228 66.6818 52.6887 66.522C52.4106 66.4836 52.0526 66.3622 51.8928 66.6818C51.733 67.0014 52.091 67.1612 52.2508 67.3977C52.8069 68.1552 54.0821 68.593 54.0022 69.587C53.9223 70.4244 53.1649 71.2202 52.6887 72.0576C51.9312 73.3328 51.1737 74.6081 50.4578 75.9216C50.1382 76.5161 49.8186 76.5928 49.3008 76.1965Z" fill="#EDF0F4"/>
<path d="M53.999 66.1608C53.1617 63.8916 52.3275 61.5809 51.4901 59.3117C51.2696 58.9026 51.3527 58.3976 51.6883 58.078C53.3215 56.2051 54.9131 54.2938 56.4664 52.3826C56.6997 52.0278 57.1344 51.8648 57.5403 51.9831C59.931 52.4209 62.36 52.8588 64.7474 53.2583C65.2844 53.3094 65.7318 53.693 65.8629 54.2139C66.6587 56.4032 67.4545 58.6341 68.2919 60.8266C68.538 61.306 68.4389 61.8877 68.0522 62.2616C66.4989 64.0546 64.9839 65.9243 63.4306 67.7589C63.1526 68.0785 62.9512 68.4748 62.5134 68.2766C59.8862 67.8388 57.3741 67.4009 54.8268 66.9631C54.3187 66.8768 54.1588 66.5571 53.999 66.1608Z" fill="#EDF0F4"/>
<path d="M62.2834 68.8679C62.2834 69.5455 61.2095 69.8651 61.6473 70.3828C62.0852 70.9006 62.8427 70.4212 63.3604 70.1847C64.7539 69.5487 65.4698 70.0664 66.1091 71.3385C66.9049 73.01 67.9021 74.6049 68.8577 76.1965C69.2572 76.8741 69.1773 77.232 68.4582 77.5101C67.9947 77.6986 67.5441 77.9096 67.103 78.1461C64.9137 79.3414 64.9137 79.3414 63.2006 77.6283C60.9314 75.3591 58.7006 73.0867 56.4314 70.8591C55.5556 69.9833 54.7183 69.1076 54.7183 67.5543C57.2655 67.9922 59.7744 68.43 62.2834 68.8679Z" fill="#EDF0F4"/>
<path d="M70.6891 86.67C71.0982 86.5166 71.5552 86.686 71.7629 87.0695C72.0027 87.469 71.5648 87.6256 71.3634 87.8653C70.4078 88.9009 70.4078 88.9009 68.2185 87.3092C69.1358 87.0695 69.9316 86.9097 70.6891 86.67Z" fill="#EDF0F4"/>
<path d="M70.1711 84.7204C68.8959 83.247 67.4641 81.9334 66.0674 80.5783C65.5113 80.0222 65.5496 79.7825 66.2655 79.4629C67.1412 79.0634 67.8188 78.2676 68.9342 78.5073C69.8899 78.2676 70.3693 78.8269 70.8071 79.661C71.6829 81.2942 72.6001 82.8859 73.5558 84.4807C73.8338 84.9985 73.7955 85.1966 73.1978 85.4363C72.0025 85.9125 71.0852 85.7943 70.1711 84.7204Z" fill="#EDF0F4"/>
<path d="M76.7167 72.8119C74.6456 73.8474 72.6545 75.0811 70.6633 76.238C70.0273 76.596 69.7077 76.6376 69.3082 75.9184C68.311 74.0072 67.2371 72.1343 66.1217 70.3029C65.7222 69.6669 65.9619 69.4656 66.5595 69.3058C70.462 68.3086 74.326 67.3146 78.19 66.2375C78.9475 66.0394 79.1872 66.1576 79.1073 66.9151C79.069 67.5128 79.1073 68.1488 79.1073 69.1044H79.0913C79.7689 70.9773 78.548 71.9745 76.7167 72.8119Z" fill="#EDF0F4"/>
<path d="M79.2096 61.4211C79.1712 61.9005 79.0913 62.4182 79.0913 62.8945C79.053 65.4034 79.053 65.365 76.5824 66.0394C73.5941 66.8352 70.609 67.631 67.6206 68.4684C66.3454 68.8264 65.0702 69.1044 63.7566 68.3501L68.6945 62.4566C69.2506 62.8146 68.9726 63.8916 69.6501 63.7702C70.3277 63.6519 70.2063 62.7347 70.3661 62.1785C70.8838 60.3855 70.8838 60.3855 72.7152 60.3855C74.5465 60.3855 76.4194 60.4239 78.2923 60.3855C79.0913 60.3855 79.2895 60.702 79.2096 61.4211Z" fill="#EDF0F4"/>
<path d="M70.8456 58.3528C70.5675 59.4683 69.9699 60.1842 69.0142 60.9417C68.097 58.4711 67.2628 56.122 66.3871 53.7729C66.9432 53.3734 67.7965 54.0925 67.9787 53.4149C68.1769 52.8971 67.381 52.5392 66.9815 52.1397C65.668 50.7845 65.668 50.8261 66.6236 49.1514C67.5409 47.5981 68.4965 46.1247 69.2923 44.5298C69.7717 43.5742 70.2479 43.6541 70.9638 44.2102C71.194 44.3956 71.4337 44.5682 71.6798 44.728C72.3957 45.2841 73.7125 45.4439 73.9106 46.2813C74.1088 47.1187 73.5527 48.1126 73.313 49.0299C72.5203 52.1397 71.6031 55.2463 70.8456 58.3528Z" fill="#EDF0F4"/>
<path d="M73.5941 35.0535C74.1119 35.1717 73.8722 35.5329 73.7124 35.811C72.6769 37.604 71.6413 39.3969 70.4876 41.3466C69.2922 38.9175 68.2567 36.6483 67.2212 34.4558C66.8632 33.6984 67.1828 33.3819 67.8572 33.5386C69.7716 33.9796 71.6829 34.5357 73.5941 35.0535Z" fill="#EDF0F4"/>
<path d="M68.3782 32.9824C71.245 31.231 70.1296 30.8315 73.4759 34.3759C71.603 33.8997 70.0497 33.4618 68.3782 32.9824Z" fill="#EDF0F4"/>
<path d="M69.8101 41.3466C69.9699 41.6662 70.168 42.0241 69.8484 42.3821C69.4489 42.8199 69.1708 42.3821 68.8928 42.2223C66.1857 40.669 63.517 39.0773 60.6885 37.4026C62.4815 36.3671 64.153 35.4114 65.7479 34.4558C66.2656 34.1362 66.4638 34.3376 66.6651 34.7754C67.7007 36.9647 68.7745 39.1572 69.8101 41.3466Z" fill="#EDF0F4"/>
<path d="M75.5054 34.9352C74.9493 34.9352 75.1858 34.4974 75.3456 34.2193C76.3427 32.5062 77.3367 30.8347 78.3339 29.1216C78.4426 29.128 78.5512 29.1567 78.6535 29.2015C78.1517 31.0744 77.6979 33.024 77.0619 34.8969C76.7806 35.811 76.0647 34.9352 75.5054 34.9352Z" fill="#EDF0F4"/>
<path d="M77.4967 29.3197C76.541 30.9913 75.5439 32.666 74.5882 34.3376C73.5144 33.2221 72.5555 32.1866 71.52 31.1127C73.7892 29.7991 76.1 28.2459 78.5705 27.0505C78.5322 27.9646 77.8962 28.6038 77.4967 29.3197Z" fill="#EDF0F4"/>
<path d="M70.3854 28.6837C72.4949 28.0861 74.6075 27.5683 76.7584 27.0122L76.8767 27.2519H76.8607C74.9654 28.3258 73.0765 29.5626 71.1429 30.5566C70.3471 30.9561 69.8293 29.9206 69.5097 29.2814C69.1901 28.6422 70.0658 28.7604 70.3854 28.6837Z" fill="#EDF0F4"/>
<path d="M68.1386 29.2015C69.0143 29.4795 69.4522 30.3169 70.0914 30.8347C70.1234 30.9465 70.0914 31.068 70.0115 31.1543C69.1677 31.7232 68.2728 32.2154 67.3428 32.6277C66.6652 32.8674 65.032 30.8762 65.2334 30.1571C65.2334 30.0389 65.4315 29.9174 65.553 29.8791C66.3872 29.6393 67.2213 29.438 68.1386 29.2015Z" fill="#EDF0F4"/>
<path d="M67.6208 28.6038C67.5985 28.623 67.5825 28.6518 67.5825 28.6837C64.9553 29.601 64.9138 29.601 63.7184 27.0921C63.0824 25.7369 62.4432 24.4234 61.7656 22.95C62.7628 23.3463 66.9848 27.4884 67.6208 28.6038Z" fill="#EDF0F4"/>
<path d="M60.3337 22.2309C60.452 22.2309 60.5319 22.1925 60.6533 22.1925C61.7272 24.4617 62.8043 26.7341 63.8782 28.9234C64.0763 29.3229 64.1179 29.5594 63.6001 29.7608C60.4935 30.9945 60.3337 30.9146 60.3337 27.6514V22.2309Z" fill="#EDF0F4"/>
<path d="M61.0495 31.6305C62.443 32.0684 63.8365 32.4263 65.23 32.7843C65.5496 32.8642 65.866 32.9441 65.9459 33.3404C65.9843 33.5801 65.8277 33.6984 65.6263 33.8198C63.8749 34.817 62.1618 35.8525 60.2505 36.9647V32.2282C60.2122 31.589 60.4519 31.4291 61.0495 31.6305Z" fill="#EDF0F4"/>
<path d="M60.9474 38.24C63.4979 39.7933 66.0451 41.3082 68.634 42.7816C69.27 43.1396 69.3115 43.4176 68.9536 44.0153C67.7998 45.8466 66.7643 47.7195 65.6872 49.5924C65.4091 50.1102 65.2078 50.3499 64.6517 49.7906C61.5834 46.7639 58.5184 43.7756 55.2936 40.6306H55.2776C56.8692 39.7134 58.186 38.9974 59.474 38.2016C59.9215 37.8948 60.5159 37.9108 60.9474 38.24Z" fill="#EDF0F4"/>
<path d="M52.6631 28.166C54.9163 25.8552 57.1472 23.5444 59.3781 21.2369C59.4963 21.3168 59.5762 21.3967 59.6977 21.4766L59.7136 29.8791C59.7136 30.4767 59.4739 30.6365 58.9562 30.4767C56.8052 29.8791 54.6159 29.2814 52.3435 28.6454C52.4362 28.4728 52.5417 28.313 52.6631 28.166Z" fill="#EDF0F4"/>
<path d="M52.1678 29.3197C54.1589 29.8375 56.1916 30.3553 58.1828 30.9114V31.1894C56.5911 31.6273 54.9579 32.0652 53.3248 32.5446C51.9696 32.8642 51.1738 31.7072 50.1383 31.231C50.0584 31.1926 50.02 30.9913 50.02 30.9114C50.0584 30.4735 51.7299 29.2015 52.1678 29.3197Z" fill="#EDF0F4"/>
<path d="M50.7743 28.8403C49.579 30.7931 49.4607 30.8315 47.7476 29.796C46.2742 28.8787 44.641 28.1244 43.2859 27.009C45.8907 27.3286 48.2813 28.3641 50.7743 28.8403Z" fill="#EDF0F4"/>
<path d="M42.6082 28.444C43.9633 29.7991 45.3568 31.1511 46.6321 32.5861C47.3096 33.3819 46.1942 33.5417 45.9545 33.9796C45.7563 34.3376 45.4751 34.3791 45.2386 33.9413C44.2414 32.1898 43.2474 30.4767 42.2502 28.7253C42.3717 28.6422 42.4899 28.5239 42.6082 28.444Z" fill="#EDF0F4"/>
<path d="M40.5789 32.4263C40.499 30.7548 40.5405 29.1216 40.5405 27.4468C40.6236 27.4373 40.7067 27.4117 40.7802 27.3669C42.0555 29.5978 43.3307 31.8287 44.6027 34.0979C44.8808 34.5357 44.8009 34.7754 44.2831 34.8553C44.2448 34.8553 44.2032 34.8937 44.1649 34.8937C43.0494 35.1717 41.656 36.0091 40.8985 35.6096C40.0196 35.1334 40.6172 33.5418 40.5789 32.4263Z" fill="#EDF0F4"/>
<path d="M40.4191 78.3858C40.6172 76.3148 40.4574 74.2054 40.4574 71.853C42.0107 72.7703 43.3243 73.5246 44.6379 74.2821C45.0758 74.5601 44.9575 74.8797 44.8361 75.2377C44.2 77.5484 43.6024 79.8592 42.9248 82.4065C41.7742 81.1344 40.2209 80.4569 40.4191 78.3858Z" fill="#EDF0F4"/>
<path d="M40.5788 81.0162C41.2148 81.6522 41.8124 82.2499 42.4101 82.8092C42.7681 83.1288 42.6498 83.4452 42.5284 83.8063C42.3686 84.3625 41.9723 83.9661 41.7325 83.9246C40.2208 83.605 40.061 83.2854 40.5788 81.0162Z" fill="#EDF0F4"/>
<path d="M40.4574 91.4513C40.419 91.4513 40.3775 91.413 40.3391 91.413C40.3391 89.0639 40.3391 86.7531 40.3008 84.4424C40.419 84.404 40.4989 84.3241 40.5405 84.3241C42.2919 84.6821 42.2536 84.7236 41.8157 86.3952C41.3747 88.0635 40.8984 89.7766 40.4574 91.4513Z" fill="#EDF0F4"/>
<path d="M41.1765 91.1317C41.6943 89.2588 42.1737 87.3476 42.7298 85.4779C43.0494 84.3241 43.8452 85.2797 44.3214 85.3181C45.1173 85.4363 44.5612 85.9541 44.4013 86.2354C43.564 87.7087 42.7298 89.1438 41.8509 90.6172C41.6943 90.8537 41.6527 91.1701 41.1765 91.1317Z" fill="#EDF0F4"/>
<path d="M41.2148 93.0813C42.57 90.6907 43.9219 88.2617 45.277 85.8326C46.5107 86.8298 47.428 87.9421 48.5019 89.0575C46.0313 90.451 43.7621 91.9659 41.2947 93.1612L41.2148 93.0813Z" fill="#EDF0F4"/>
<path d="M43.0078 93.1612C44.7209 91.7677 46.6705 90.7706 48.585 89.7766C49.6205 89.2972 49.8602 90.6939 50.8957 91.25C47.9873 91.9276 45.5966 92.8448 43.0078 93.1612Z" fill="#EDF0F4"/>
<path d="M51.8099 91.0103C51.4104 90.9719 49.7772 89.5752 49.7772 89.2972C49.7516 89.2173 49.7644 89.1278 49.8155 89.0575C49.9753 88.7379 52.4843 87.5425 52.8422 87.5841C54.1558 87.7439 54.0759 89.0575 54.6352 89.8533C54.795 90.093 54.5969 90.2912 54.3955 90.3327C53.523 90.5724 52.6473 90.8121 51.8099 91.0103Z" fill="#EDF0F4"/>
<path d="M54.5967 88.0635C55.9518 88.4215 57.1056 88.7411 58.3808 89.0607C55.792 90.3743 55.3158 90.256 54.5967 88.0635Z" fill="#EDF0F4"/>
<path d="M52.6056 92.2472C52.0495 91.7677 52.0878 91.5696 52.8453 91.3714C55.0346 90.7738 55.0346 90.7354 55.9902 92.7649C56.7477 94.3981 57.5435 96.0313 58.301 97.6645C56.3897 95.7916 54.4785 93.9986 52.6056 92.2472Z" fill="#EDF0F4"/>
<path d="M59.4548 95.3537V98.0608C59.3749 98.0608 59.3365 98.0992 59.2566 98.0992C58.1827 95.8683 57.1057 93.5991 55.9902 91.3682C55.7122 90.7706 55.7921 90.5724 56.4696 90.3711C59.4963 89.4953 59.4963 89.4538 59.4963 92.6403C59.4963 93.5607 59.4548 94.4365 59.4548 95.3537Z" fill="#EDF0F4"/>
<path d="M59.6145 85.9925C59.6145 88.821 59.6145 88.821 56.9074 88.1019C56.1116 87.9037 55.3158 87.664 54.5168 87.4658C54.1972 87.3859 53.9607 87.2261 53.9191 86.9097C53.8808 86.5901 54.1588 86.5102 54.357 86.392C55.8304 85.5162 57.3453 84.6789 58.8187 83.7648C59.5762 83.2854 59.6561 83.6465 59.6145 84.2826V85.9925Z" fill="#EDF0F4"/>
<path d="M58.9946 81.9718C56.4058 80.4185 53.817 78.9036 51.1898 77.3918C50.7104 77.1138 50.5538 76.8741 50.8702 76.3563C52.1454 74.2469 53.3407 72.1343 54.6543 69.9034C57.8408 73.0899 60.8899 76.1549 64.0124 79.2232C64.3704 79.5811 64.4119 79.7409 63.9325 80.019C62.7372 80.655 61.5834 81.3741 60.3881 82.0517C59.9502 82.3042 59.4005 82.2754 58.9946 81.9718Z" fill="#EDF0F4"/>
<path d="M67.023 92.2056C64.8721 94.4748 62.6828 96.7057 60.5318 98.9749L60.1739 98.7352C60.1739 95.9067 60.1739 93.0813 60.1355 90.2113C60.1355 89.6551 60.4136 89.6136 60.8514 89.7318C62.8841 90.288 64.9136 90.8856 66.9463 91.4034C67.7805 91.6079 67.3011 91.9275 67.023 92.2056Z" fill="#EDF0F4"/>
<path d="M67.5408 90.9336C65.588 90.4158 63.5968 89.8597 61.6472 89.3419C61.6792 89.2524 61.692 89.1566 61.6856 89.0639C63.3188 88.626 65.0063 88.1082 66.665 87.7503C67.9403 87.4722 68.6977 88.5877 69.7333 89.0639C69.7844 89.163 69.81 89.2716 69.8132 89.3835C69.7301 89.898 68.0585 91.0518 67.5408 90.9336Z" fill="#EDF0F4"/>
<path d="M76.1831 93.2411C73.834 92.6051 71.4849 92.0075 69.1326 91.3682C69.9699 89.5752 70.4462 89.4154 72.041 90.3711L76.3429 92.88C76.2726 92.995 76.2215 93.1165 76.1831 93.2411Z" fill="#EDF0F4"/>
<path d="M76.5185 92.3271C74.7255 91.2532 72.9741 90.1761 70.9829 89.0223C71.3249 88.7443 71.5646 88.6228 71.6988 88.4247C72.2166 87.7087 72.6161 87.7886 73.2138 88.4247C74.0895 89.4218 75.0867 90.2976 76.0007 91.2532C76.2788 91.528 76.7167 91.7294 76.5185 92.3271Z" fill="#EDF0F4"/>
<path d="M77.2186 91.6878C75.8634 90.3743 74.5914 89.0607 73.3545 87.7439C72.5971 86.8682 73.6741 86.67 73.9905 86.2705C74.4284 85.5929 74.6266 86.3089 74.7864 86.5901L77.0556 90.5341C77.3464 90.8505 77.4103 91.3075 77.2186 91.6878Z" fill="#EDF0F4"/>
<path d="M79.2896 92.7649C79.2096 92.8033 79.1713 92.8033 79.0914 92.8448C77.8162 90.6555 76.5569 88.4247 75.2689 86.1938C74.9908 85.7144 75.0292 85.4779 75.6269 85.3564C76.8222 85.0784 78.0175 84.7204 79.2896 84.4008V92.7649Z" fill="#EDF0F4"/>
<path d="M76.2629 84.4392C77.2601 83.4835 78.334 82.448 79.2896 81.4924C79.4111 84.1228 79.1298 84.4008 76.2629 84.4392Z" fill="#EDF0F4"/>
<path d="M78.97 80.3386C77.5766 81.8535 76.1415 83.4068 74.5882 85.0784C73.2746 82.7676 72.1976 80.818 70.9255 78.6671C73.7125 78.9068 76.263 79.0666 78.7719 79.3031C79.6476 79.383 79.3312 79.9391 78.97 80.3386Z" fill="#EDF0F4"/>
<path d="M79.3472 50.1485C79.3088 53.0154 79.3088 55.8439 79.3088 58.7108C79.3472 59.5482 79.149 59.9445 78.155 59.9061C76.0456 59.7879 73.933 59.8678 71.8236 59.8678C71.3059 59.8678 71.0278 59.8294 71.1876 59.1902C72.3414 54.9714 73.4952 50.7526 74.6489 46.4539C76.0776 47.2465 77.388 48.0008 78.6728 48.8349C79.1426 49.0938 79.4111 49.6148 79.3472 50.1485Z" fill="#EDF0F4"/>
<path d="M79.4494 42.4236C79.2097 44.2965 79.4111 46.2078 79.4111 48.3587C77.8578 47.483 76.5602 46.6872 75.2306 45.9681C75.2306 45.9681 75.2274 45.9681 75.2274 45.9649C74.9526 45.8434 74.8311 45.5238 74.9526 45.249C75.6301 42.8583 76.2662 40.4293 76.9437 37.882C78.4523 39.1157 79.7275 40.2311 79.4494 42.4236Z" fill="#EDF0F4"/>
<path d="M79.2096 39.5152C78.5481 38.7194 78.0559 38.0802 77.4965 37.4825C77.2313 37.2204 77.1674 36.8177 77.3367 36.4853C77.5349 36.0059 77.8929 36.2456 78.1741 36.2872C79.6475 36.5684 79.769 36.9264 79.2096 39.5152Z" fill="#EDF0F4"/>
<path d="M78.9476 35.8525C78.5098 35.6544 77.4742 36.0507 77.7523 34.9352C78.2701 32.9441 78.8262 30.9913 79.3439 29.0001H79.5261C79.5261 31.0712 79.5261 33.1039 79.5037 35.1717C79.5037 35.5329 79.6635 36.2105 78.9476 35.8525Z" fill="#EDF0F4"/>
<path d="M96.7338 58.0364C96.6954 58.0748 96.6954 58.1547 96.6539 58.1962C94.8225 57.1607 92.9497 56.2434 91.2366 55.0897C90.3608 54.4536 91.4347 53.5364 91.4347 52.7789C93.2309 54.5303 94.9824 56.2818 96.7338 58.0364Z" fill="#EDF0F4"/>
<path d="M80.0472 61.9772C80.6033 60.8234 81.4023 59.986 82.9939 60.5038C84.5249 60.5038 86.1389 60.5421 87.8136 60.5038C88.4496 60.5038 88.5711 60.7435 88.4496 61.3412C88.2099 62.4566 87.852 63.2141 86.4968 63.4506C84.5856 63.8085 82.6743 64.4062 80.7631 64.9655C80.0855 65.1637 79.7276 65.0454 79.8458 64.2879C79.9673 63.5305 79.6477 62.7347 80.0472 61.9772Z" fill="#EDF0F4"/>
<path d="M79.9673 41.1068C81.6005 42.6985 83.0739 44.0952 84.5888 45.5686C83.2752 46.326 82 47.0419 80.7248 47.7579C80.207 48.0359 79.9673 47.9976 79.9673 47.3584V41.1068H79.9673Z" fill="#EDF0F4"/>
<path d="M84.3873 46.4059C84.8667 46.1279 84.985 46.2877 85.1032 46.7639C85.4612 48.1989 85.8991 49.6308 86.257 51.0658C86.3976 51.3822 86.3145 51.753 86.0589 51.9831C85.7393 52.1812 85.5411 51.8648 85.3014 51.7434C83.6298 50.8261 81.9551 49.8705 80.1621 48.8349C81.6802 47.9592 83.0354 47.2017 84.3873 46.4059Z" fill="#EDF0F4"/>
<path d="M88.4656 44.1367C89.8591 43.3409 91.2526 42.5834 92.6461 41.7876C92.726 41.7493 92.8059 41.7876 93.1639 41.7876H93.1479C91.6329 43.9769 90.2395 46.0096 88.9035 48.0008C88.6254 48.4386 88.4656 48.4386 88.0661 48.0807C85.5604 45.7667 85.5189 45.8083 88.4656 44.1367Z" fill="#EDF0F4"/>
<path d="M86.8963 53.693C87.4525 55.5659 87.9319 57.4356 88.4113 59.3085C88.6094 59.9445 88.1332 59.8646 87.7753 59.8646H81.4438C83.0355 57.5954 84.4322 55.5627 85.7458 53.4916C86.2603 52.7789 86.6982 53.057 86.8963 53.693Z" fill="#EDF0F4"/>
<path d="M87.8136 66.3973C87.7753 65.4801 88.1716 64.6843 88.3697 63.8884C88.4496 63.5305 88.7693 63.409 89.1272 63.3707C89.6066 63.3323 89.6066 63.7286 89.6833 64.0067C90.1627 65.3618 89.923 65.6814 87.8136 66.3973Z" fill="#EDF0F4"/>
<path d="M79.9671 66.1608C80.6446 64.9272 82.754 65.1637 84.2274 64.6874C85.3429 64.3295 86.4583 64.0898 87.7335 63.7702C87.4555 64.8057 87.2158 65.6431 87.0176 66.5188C86.9217 66.9247 86.6405 67.2635 86.2601 67.4361C85.3429 67.9155 84.4671 68.4332 83.5531 68.951C82.3993 69.6286 81.2039 70.2646 79.9287 70.9837L79.9671 66.1608Z" fill="#EDF0F4"/>
<path d="M86.6183 67.9506C86.0622 70.06 85.5444 71.9329 85.0266 73.8058C84.8668 74.362 84.5089 74.0455 84.2692 73.8857C82.9939 73.1698 81.7603 72.4124 80.2869 71.5366C82.4378 70.3029 84.3874 69.1875 86.6183 67.9506Z" fill="#EDF0F4"/>
<path d="M87.1776 68.2702C87.3374 67.6342 89.4085 66.0394 89.9646 66.0809C90.0733 66.1033 90.1691 66.1576 90.2427 66.2407C90.8403 66.9183 90.7604 68.6314 90.1244 69.2674C89.009 70.3828 87.8935 71.4983 86.7781 72.5722C86.5384 72.7703 86.3403 73.0899 85.8608 72.9717C86.2987 71.3385 86.7366 69.7852 87.1776 68.2702Z" fill="#EDF0F4"/>
<path d="M90.4184 64.3678C90.38 63.93 89.8207 63.2524 90.5366 63.0127C92.3648 62.4566 94.1898 61.9005 96.1745 61.8174C94.4231 62.773 92.71 63.767 90.9745 64.7226C90.5782 64.9655 90.4567 64.6459 90.4184 64.3678Z" fill="#EDF0F4"/>
<path d="M90.4406 62.3351C89.4435 62.5748 89.7247 61.5393 89.5649 61.0599C89.3252 60.3823 89.9644 60.5038 90.3224 60.5038H96.7337C96.7433 60.5645 96.772 60.6189 96.8136 60.6636C94.7042 61.2197 92.5916 61.8174 90.4406 62.3351Z" fill="#EDF0F4"/>
<path d="M88.9672 58.9505C88.4878 57.1192 88.0915 55.6042 87.6121 53.8528C90.3223 55.2463 90.3223 55.2463 88.9672 58.9505Z" fill="#EDF0F4"/>
<path d="M89.8429 54.3705C89.0631 53.9934 88.3184 53.5555 87.6121 53.057C87.5801 53.0346 87.5514 53.0122 87.5226 52.9866C87.0176 52.5616 86.9505 51.8105 87.3756 51.3023C87.6153 50.9444 87.855 50.6247 88.0531 50.2668C88.4111 49.5093 88.7691 49.6691 89.2069 50.1869C89.763 50.8644 90.5205 51.3822 90.9584 52.0598C90.7602 52.8172 90.6004 53.4533 90.4023 54.1692C90.3224 54.4504 90.1242 54.5303 89.8429 54.3705Z" fill="#EDF0F4"/>
<path d="M91.1982 51.1042C91.08 51.0658 90.9585 51.0658 90.9202 51.0243C88.8108 49.113 88.8108 49.113 90.4024 46.8022C91.2781 45.5686 92.1155 44.3317 92.9912 43.098C93.1095 43.1364 93.2309 43.2163 93.3492 43.2578C92.6333 45.8466 91.9557 48.477 91.1982 51.1042Z" fill="#EDF0F4"/>
<path d="M93.6687 40.4708C90.7603 42.104 88.0916 43.6158 85.3461 45.169C84.6686 42.6985 84.0325 40.2695 83.355 37.6807C86.8163 38.5979 90.0827 39.5152 93.6687 40.4708Z" fill="#EDF0F4"/>
<path d="M82.914 38.5596C83.3934 40.3526 83.8696 42.1839 84.349 44.0153C84.2883 44.0632 84.2212 44.1048 84.1508 44.1335C82.8756 42.8583 81.6004 41.5831 80.3283 40.3494C80.0503 40.0298 79.8905 37.441 80.1302 37.1245C80.1909 37.0287 80.2964 36.9679 80.4082 36.9647C81.3223 36.7666 82.6743 37.6423 82.914 38.5596Z" fill="#EDF0F4"/>
<path d="M80.0214 34.6156C80.1812 32.6245 80.0597 30.6333 80.0597 28.6422H80.2835C80.961 31.1127 81.5971 33.5801 82.2523 36.0507C82.4121 36.6483 82.2139 36.7282 81.6162 36.6068C80.4625 36.4086 79.9031 35.9708 80.0214 34.6156Z" fill="#EDF0F4"/>
<path d="M79.8489 58.9505V55.8439L79.9288 50.3882C79.9288 49.7107 80.0886 49.471 80.7662 49.8705C82.1213 50.7078 83.5148 51.5037 84.9467 52.2611C85.5028 52.5392 85.5028 52.8172 85.1864 53.2967C83.7929 55.2878 82.3994 57.279 81.0443 59.3117C80.8046 59.7112 80.4881 59.9477 80.0471 59.7911C79.6092 59.6281 79.8489 59.2286 79.8489 58.9505Z" fill="#EDF0F4"/>
<path d="M79.8075 77.9096V71.9745C81.3384 72.8502 82.5945 73.646 83.9112 74.4035C84.3906 74.6816 84.429 74.9213 84.0295 75.3208C82.994 76.3179 81.9584 77.3535 80.9613 78.389C80.7535 78.6575 80.4211 78.7949 80.0855 78.747C79.6093 78.5872 79.8075 78.1876 79.8075 77.9096Z" fill="#EDF0F4"/>
<path d="M84.3074 75.8769C83.5915 79.5811 83.828 79.1433 81.6003 78.7438C82.3578 77.6699 83.3134 76.9124 84.3074 75.8769Z" fill="#EDF0F4"/>
<path d="M80.1653 91.6079C80.0854 91.6079 79.9671 91.5696 79.8872 91.5696C79.8872 89.5369 79.9256 87.4658 79.8488 85.4363C79.8105 84.5191 80.047 84.0428 81.0026 83.9629C81.4469 83.8862 81.8879 83.7808 82.3162 83.6433C81.5587 86.392 80.8844 89.0191 80.1653 91.6079Z" fill="#EDF0F4"/>
<path d="M81.6803 83.1671C79.5709 83.6849 79.9289 83.7648 79.8873 81.812C79.8873 79.9391 80.2069 79.383 81.4406 79.5012C82.0766 79.5396 82.9939 79.1433 83.3135 79.9391C83.6299 80.7349 82.3963 82.9658 81.6803 83.1671Z" fill="#EDF0F4"/>
<path d="M91.994 80.4569C89.1272 81.2143 86.2987 81.9718 83.272 82.806C83.5117 81.8503 83.7098 81.013 83.908 80.2172C84.0678 79.5811 84.5856 79.7377 85.0234 79.7793C87.3342 79.9391 89.6034 80.0989 91.9141 80.2971C91.9557 80.3386 91.9557 80.4185 91.994 80.4569Z" fill="#EDF0F4"/>
<path d="M85.1832 79.1816C84.5472 79.1433 84.2659 78.9835 84.4673 78.1845C85.2631 75.1578 85.2248 75.1578 87.9318 76.7494L92.71 79.7377C90.0828 79.5428 87.6154 79.3414 85.1832 79.1816Z" fill="#EDF0F4"/>
<path d="M93.8284 79.5428C90.9615 77.8297 88.3312 76.2764 85.8223 74.803C87.6153 73.01 89.3284 71.2586 91.1597 69.5071C91.9939 72.732 92.8696 75.9983 93.8284 79.5428Z" fill="#EDF0F4"/>
<path d="M91.3962 67.6726C91.3483 67.6246 91.3099 67.5703 91.278 67.5128C90.6803 65.56 90.642 65.56 92.4733 64.566C93.8668 63.8085 95.3018 63.0511 96.6953 62.2968L96.8551 62.415C95.0206 64.1697 93.2308 65.9211 91.3962 67.6726Z" fill="#EDF0F4"/>
<path d="M97.8109 59.8678H90.3225C89.7664 59.8678 89.4468 59.8294 89.6865 59.1103C90.0061 58.1131 90.2426 57.1192 90.4823 56.122C90.6006 55.6426 90.7604 55.486 91.2398 55.764C93.4707 57.0776 95.7015 58.3145 97.9292 59.5865C97.8972 59.6824 97.8557 59.7783 97.8109 59.8678Z" fill="#EDF0F4"/>
</svg>
