<svg width="120" height="120" viewBox="0 0 120 120" fill="none" xmlns="http://www.w3.org/2000/svg">
<circle cx="60" cy="60" r="60" fill="#EDF0F4"/>
<circle cx="46.4824" cy="27.0451" r="6.06515" fill="#8352A1"/>
<circle cx="73.6711" cy="93.1342" r="6.06515" fill="#3E99D3"/>
<path d="M41.8609 52.0518C39.9598 49.5912 40.4134 46.0553 42.874 44.1542L70.9761 22.4423C73.4367 20.5412 76.9726 20.9948 78.8737 23.4554C80.7747 25.916 80.3212 29.4519 77.8606 31.3529L49.7585 53.0649C47.2979 54.966 43.762 54.5124 41.8609 52.0518Z" fill="#E53C54"/>
<path d="M41.8581 74.221C39.957 71.7603 40.4106 68.2245 42.8712 66.3234L70.9733 44.6115C73.4339 42.7104 76.9698 43.164 78.8708 45.6246C80.7719 48.0852 80.3184 51.621 77.8577 53.5221L49.7557 75.2341C47.2951 77.1351 43.7592 76.6816 41.8581 74.221Z" fill="#F49352"/>
<path d="M41.4422 97.2288C39.5411 94.7682 39.9947 91.2323 42.4553 89.3312L70.5574 67.6193C73.018 65.7182 76.5539 66.1718 78.455 68.6324C80.356 71.093 79.9025 74.6289 77.4419 76.5299L49.3398 98.2419C46.8792 100.143 43.3433 99.6894 41.4422 97.2288Z" fill="#3EBB90"/>
</svg>
