<svg width="120" height="120" viewBox="0 0 120 120" fill="none" xmlns="http://www.w3.org/2000/svg">
<circle cx="60" cy="60" r="60" fill="#EDF0F4"/>
<path d="M60 22L94 40.8889V78.6667L60 97.5556L26 78.6667V40.8889L60 22Z" fill="#303642"/>
<path d="M70.0073 41.1304C71.6016 41.1304 72.8941 39.8327 72.8941 38.2319C72.8941 36.631 71.6016 35.3333 70.0073 35.3333V41.1304Z" fill="white"/>
<path d="M61.1546 69.0531V38.8116H55.3811V69.0531H61.1546Z" fill="white"/>
<path d="M58.8452 41.1304H70.0073V35.3333H58.8452V41.1304Z" fill="white"/>
<path d="M61.1546 38.8116C61.1546 40.0922 60.1206 41.1304 58.8452 41.1304V35.3333C56.9321 35.3333 55.3811 36.8906 55.3811 38.8116H61.1546Z" fill="white"/>
<path fill-rule="evenodd" clip-rule="evenodd" d="M66.1585 50.0193H58.2681V44.2222H66.1585C67.7528 44.2222 69.0453 45.52 69.0453 47.1208C69.0453 48.7216 67.7528 50.0193 66.1585 50.0193Z" fill="white"/>
<path fill-rule="evenodd" clip-rule="evenodd" d="M49.4153 74.7536C49.4153 69.9512 53.2926 66.058 58.0755 66.058C62.8585 66.058 66.7358 69.9512 66.7358 74.7536C66.7358 79.5561 62.8585 83.4493 58.0755 83.4493C53.2926 83.4493 49.4153 79.5561 49.4153 74.7536ZM60.9623 74.7536C60.9623 73.1528 59.6699 71.8551 58.0755 71.8551C56.4812 71.8551 55.1888 73.1528 55.1888 74.7536C55.1888 76.3545 56.4812 77.6522 58.0755 77.6522C59.6699 77.6522 60.9623 76.3545 60.9623 74.7536Z" fill="white"/>
</svg>
