<svg width="120" height="120" viewBox="0 0 120 120" fill="none" xmlns="http://www.w3.org/2000/svg">
<circle cx="60" cy="60" r="60" fill="#EDF0F4"/>
<path fill-rule="evenodd" clip-rule="evenodd" d="M55.6905 26.5592C53.5699 27.0706 51.5489 27.8794 51.1303 28.384C50.9232 28.6334 50.9109 28.5209 51.5764 32.4511C52.074 35.3901 52.3187 35.9512 53.6626 37.2382C54.738 38.2682 54.6662 38.4431 53.2861 38.1559C52.4435 37.9805 51.868 37.7374 51.227 37.2865C51.0058 37.1307 50.8066 37.1853 49.9886 37.6258C44.9747 40.3255 39.2663 46.7544 35.7592 53.6515C33.9376 57.234 32.8297 60.4846 32.1218 64.3243C31.7403 66.3929 31.7403 71.2047 32.1218 73.2487C33.5629 80.9718 37.9903 87.1501 44.5911 90.6489C48.4263 92.6819 53.5756 93.8742 58.509 93.8713C61.6372 93.8695 65.312 93.36 68.0647 92.5463C78.2992 89.5211 84.8882 83.1544 86.803 74.4401C87.7998 69.903 87.3694 64.1444 85.6739 59.3374C84.4984 56.0047 83.245 53.5684 80.9475 50.1501C77.2342 44.6255 72.1553 39.9763 66.7442 37.1484C66.1417 36.8336 65.5158 36.5759 65.3532 36.5759C65.1906 36.5759 64.7252 36.8046 64.3187 37.0842C63.6957 37.5129 62.3445 37.9258 61.5653 37.9258C61.2794 37.9258 61.5473 37.4848 62.2271 36.8366C62.6622 36.4214 63.1608 35.7434 63.3895 35.2554C63.7774 34.428 63.7915 34.302 63.836 31.2725C63.8768 28.5025 63.853 28.1117 63.6282 27.8633C63.331 27.5349 62.1839 27.0949 61.0152 26.8611C60.5614 26.7704 59.8307 26.6241 59.3914 26.5362C58.4379 26.3456 56.5267 26.3574 55.6905 26.5592Z" fill="#81B797"/>
<path d="M57.4234 38.6399C54.4236 38.8199 52.6736 37.515 52.1737 36.84C51.8737 36.3151 51.2287 35.0702 51.0488 34.2902C50.8688 33.5102 50.3738 30.1155 50.1488 28.5155C50.9738 27.6906 53.5836 25.9957 57.4234 25.8157C61.2631 25.6357 63.6731 27.0406 64.398 27.7656C64.4479 29.7655 64.473 34.0202 64.173 35.0402C63.798 36.3151 63.348 36.6151 62.8981 37.065C62.4481 37.515 61.1732 38.415 57.4234 38.6399Z" fill="#D28B52"/>
<path d="M57.1234 29.8964C51.9637 30.3764 50.3238 28.4465 50.1488 27.4215C50.7488 26.6966 52.9536 25.1567 56.9734 24.7967C60.9932 24.4367 63.648 26.2466 64.473 27.1966C64.173 27.8965 62.2831 29.4164 57.1234 29.8964Z" fill="#E4B85D"/>
<path d="M53.5985 44.0239C52.9986 43.5439 52.3487 39.6741 52.0986 37.7992C52.6986 37.9242 54.6935 38.1592 57.8733 38.0992C61.0531 38.0392 62.898 37.2743 63.423 36.8993C63.3979 38.4992 63.318 41.924 63.198 42.8239C63.048 43.9489 61.6231 44.3988 58.7732 44.8488C55.9234 45.2988 54.3485 44.6238 53.5985 44.0239Z" fill="#95B77A"/>
<path fill-rule="evenodd" clip-rule="evenodd" d="M59.9204 24.1113C60.3162 24.1852 61.1127 24.3259 61.6901 24.4239C63.8771 24.7945 65.9773 25.6119 66.4507 26.2768C66.8506 26.8384 66.8699 27.6634 66.568 31.2937C66.4453 32.7706 66.4193 33.7876 66.5024 33.8662C66.578 33.9378 67.3485 34.3618 68.2147 34.8086C73.0097 37.2818 77.3853 40.9617 81.1045 45.6488C85.3329 50.9776 88.3822 57.3882 89.6668 63.6493C91.3071 71.6448 89.2961 79.6419 84.085 85.848C80.6499 89.9388 76.5374 92.4228 69.1972 94.8405C67.8969 95.2687 66.1216 95.7454 64.7511 96.0343C60.3429 96.963 54.4331 96.6928 49.5408 95.3386C41.4055 93.0867 35.472 88.3069 31.9032 81.1306C30.4851 78.2788 29.7762 76.2979 29.2674 73.7659C28.9079 71.9768 28.9115 67.5508 29.2743 65.2242C30.7107 56.012 34.8665 47.7154 41.4359 40.9444C43.7476 38.5616 45.9234 36.8361 48.9227 35.0071C49.3384 34.7536 49.3511 34.7117 49.261 33.8973C49.2095 33.4319 49.1024 32.7136 49.0232 32.3011C48.6949 30.5928 48.5413 29.696 48.4075 28.7076C48.3298 28.1336 48.2313 27.5534 48.1884 27.4183C47.9266 26.5938 51.7658 24.7804 55.0905 24.1582C56.0893 23.9713 59.0198 23.9428 59.9204 24.1113ZM55.6905 26.5591C53.5699 27.0706 51.5489 27.8793 51.1303 28.3839C50.9232 28.6333 50.9109 28.5209 51.5764 32.4511C52.074 35.39 52.3187 35.9511 53.6626 37.2382C54.738 38.2682 54.6662 38.4431 53.2861 38.1558C52.4435 37.9805 51.868 37.7374 51.227 37.2865C51.0058 37.1306 50.8066 37.1853 49.9886 37.6258C44.9747 40.3255 39.2663 46.7544 35.7592 53.6515C33.9376 57.234 32.8297 60.4846 32.1218 64.3242C31.7404 66.3929 31.7404 71.2046 32.1218 73.2487C33.5629 80.9717 37.9903 87.15 44.5911 90.6489C48.4263 92.6819 53.5756 93.8741 58.509 93.8713C61.6372 93.8695 65.312 93.36 68.0647 92.5463C78.2992 89.5211 84.8882 83.1544 86.803 74.4401C87.7998 69.903 87.3694 64.1444 85.6739 59.3373C84.4984 56.0047 83.245 53.5684 80.9475 50.1501C77.2342 44.6254 72.1553 39.9763 66.7442 37.1484C66.1417 36.8335 65.5158 36.5758 65.3532 36.5758C65.1906 36.5758 64.7252 36.8046 64.3187 37.0841C63.6957 37.5128 62.3445 37.9257 61.5653 37.9257C61.2794 37.9257 61.5473 37.4848 62.2271 36.8365C62.6622 36.4214 63.1608 35.7434 63.3895 35.2553C63.7774 34.428 63.7915 34.302 63.836 31.2724C63.8768 28.5024 63.853 28.1117 63.6282 27.8633C63.331 27.5348 62.1839 27.0949 61.0152 26.8611C60.5614 26.7703 59.8307 26.6241 59.3914 26.5362C58.4379 26.3455 56.5267 26.3574 55.6905 26.5591Z" fill="#1A4432"/>
<mask id="mask0_1_3427" style="mask-type:luminance" maskUnits="userSpaceOnUse" x="36" y="54" width="47" height="36">
<path fill-rule="evenodd" clip-rule="evenodd" d="M80.372 78.7468C75.0473 88.1212 64.2479 89.6961 59.2982 89.9961C57.7733 89.9961 53.5836 89.5611 49.0238 87.8212C43.3242 85.6464 40.8493 82.2716 37.9245 76.4969C34.9997 70.7222 37.9995 59.5479 39.3494 58.198C40.6994 56.8481 47.5989 54.5232 59.2982 54.0732C68.6577 53.7132 76.8973 55.2232 79.847 56.0231C81.7969 60.4729 84.6317 71.2472 80.372 78.7468Z" fill="white"/>
</mask>
<g mask="url(#mask0_1_3427)">
<path d="M80.372 78.7468C75.0473 88.1212 64.2479 89.6961 59.2982 89.9961C57.7733 89.9961 53.5836 89.5611 49.0238 87.8212C43.3242 85.6464 40.8493 82.2716 37.9245 76.4969C34.9997 70.7222 37.9995 59.5479 39.3494 58.198C40.6994 56.8481 47.5989 54.5232 59.2982 54.0732C68.6577 53.7132 76.8973 55.2232 79.847 56.0231C81.7969 60.4729 84.6317 71.2472 80.372 78.7468Z" fill="#F3B3BD"/>
<path d="M58.9983 60.9728C41.8393 61.0928 38.0995 58.4729 38.3745 57.148C41.6243 55.473 50.6288 52.1233 60.6482 52.1233C73.1724 52.1233 81.5719 54.8231 81.6469 55.3481C81.7219 55.8731 80.447 60.8228 58.9983 60.9728Z" fill="#F8D5DA"/>
</g>
<path d="M44.3741 66.3726C44.4491 67.7225 43.3242 69.2974 40.9993 71.2473C40.6243 70.9222 39.8444 70.0323 39.7244 69.0724C39.5744 67.8725 40.4743 65.9976 41.6742 64.5727C42.8742 63.1477 44.2991 65.0226 44.3741 66.3726Z" fill="#F098A2"/>
<path d="M50.7488 82.7216C50.3738 79.3468 56.6734 71.3972 61.8481 68.6974C68.0727 65.1726 76.8472 63.8977 79.0221 68.3224C81.197 72.7472 79.5471 78.2218 76.3223 81.0717C73.0974 83.9215 69.1227 86.6963 62.5231 87.8963C55.9235 89.0962 51.1237 86.0964 50.7488 82.7216Z" fill="#F098A2"/>
<path d="M50.7487 50.4735C50.2237 52.8733 49.0988 54.9732 45.274 57.973C39.7993 61.7978 39.3494 56.4731 40.2493 54.1483C41.1493 51.8234 42.2742 48.5236 46.6989 46.1237C51.1237 43.7239 51.2737 48.0736 50.7487 50.4735Z" fill="white"/>
<path d="M79.3971 80.4717C80.222 81.8966 79.3971 83.8465 76.3972 85.6464C75.4973 86.3963 74.9723 86.9213 73.5474 86.1713C72.1225 85.4214 72.9475 83.8465 74.1474 82.0466C75.3473 80.2467 78.5721 79.0468 79.3971 80.4717Z" fill="white"/>
<path d="M34.8496 73.7971L33.7997 64.8726L35.3746 69.6723C36.9745 68.4225 40.4443 65.7126 41.5242 64.8726C42.8741 63.8227 42.4242 63.2227 44.599 64.8726C46.7739 66.5225 52.9986 72.0722 53.9735 71.8472C54.9484 71.6222 64.6229 62.1728 65.3728 62.7727C65.9728 63.2527 72.7723 66.6725 76.0972 68.3224L82.6218 60.2229L86.5216 66.3725L82.6218 62.7727C80.847 65.3725 77.1921 70.6473 76.7721 70.9473C76.2472 71.3222 67.3977 64.8726 65.7478 64.8726C64.4279 64.8726 57.6483 72.2721 54.4235 75.972L43.2491 66.3725L34.8496 73.7971Z" fill="#BDF5E8"/>
</svg>
