<svg width="120" height="120" viewBox="0 0 120 120" fill="none" xmlns="http://www.w3.org/2000/svg">
<circle cx="60" cy="60" r="60" fill="black"/>
<path d="M90.6099 33.3609L80.4302 38.5473L31.2737 63.5852C31.1074 62.3174 31.0238 61.0402 31.0233 59.7615C31.037 49.3809 36.5452 39.7834 45.5013 34.535C54.4574 29.2867 65.5227 29.172 74.5856 34.2336L80.4123 31.2648L81.2815 30.8213C70.3981 22.922 56.0038 21.7947 44.0234 27.9034C32.043 34.0121 24.5013 46.3243 24.5027 59.7723C24.5027 60.6832 24.5373 61.5905 24.6064 62.4942C24.8045 65.1112 23.4109 67.5909 21.0725 68.7823L18 70.349V77.6565L27.0458 73.0459L29.9753 71.5508L32.8618 70.0807L84.6831 43.6765L90.5062 40.7113L102.542 34.577V27.2731L90.6099 33.3609Z" fill="white"/>
<path d="M102.542 41.8879L35.8055 75.8679L29.9824 78.8403L18 84.946V92.2463L29.9002 86.1836L40.0798 80.9971L89.2865 55.9235C89.4528 57.1996 89.5364 58.4852 89.5368 59.7722C89.5304 70.1652 84.0158 79.7761 75.0464 85.0264C66.077 90.2766 54.9968 90.3794 45.9316 85.2965L45.5739 85.4861L39.2572 88.7052C50.138 96.6047 64.5297 97.7347 76.5101 91.6302C88.4904 85.5257 96.0352 73.2181 96.0395 59.7722C96.0395 58.8529 96.0038 57.9337 95.9358 57.0251C95.7381 54.4092 97.1299 51.9303 99.4662 50.737L102.542 49.1704V41.8879Z" fill="white"/>
</svg>
