<svg width="120" height="120" viewBox="0 0 120 120" fill="none" xmlns="http://www.w3.org/2000/svg">
<circle cx="60" cy="60" r="60" fill="#EDF0F4"/>
<path d="M48.4677 89.3481H87.721L93.4 79.176H54.209L48.4677 89.3481Z" fill="#5569FF"/>
<path d="M86.4729 66.882H75.0526L69.3737 76.9917H80.7316L86.4729 66.882Z" fill="#5569FF"/>
<path d="M86.4729 64.6977L66.8775 30H55.4572L75.115 64.6977H86.4729Z" fill="#5C00E9"/>
<path d="M27 78.115L32.6789 88.1624L52.3368 53.4647L46.5955 43.4173L27 78.115Z" fill="#00BFE9"/>
<path d="M46.5955 88.1624L52.3368 78.115L46.5955 68.0052L40.9165 78.115L46.5955 88.1624Z" fill="#00BFE9"/>
<path d="M48.53 42.294L54.209 52.4038H65.6293L59.8879 42.294H48.53Z" fill="#5C00E9"/>
<path d="M93.4001 76.9917L88.3452 68.0677L83.2903 76.9917H93.4001Z" fill="#243269"/>
<path d="M67.5015 75.8684L73.1804 65.8211L67.5015 55.7113L61.7601 65.8211L67.5015 75.8684Z" fill="#243269"/>
<path d="M48.4677 66.882L54.209 76.9917H55.4571H65.6293L59.888 66.882H48.4677Z" fill="#243269"/>
<path d="M54.209 54.588L48.4677 64.6977H59.888L65.5669 54.588H54.209Z" fill="#243269"/>
<path d="M34.5511 89.3481H44.7233L39.6684 80.3616L34.5511 89.3481Z" fill="#243269"/>
<path d="M53.5849 31.1233L48.4677 40.1098H58.6398L53.5849 31.1233Z" fill="#243269"/>
</svg>
