<svg width="120" height="120" viewBox="0 0 120 120" fill="none" xmlns="http://www.w3.org/2000/svg">
<circle cx="60" cy="60" r="60" fill="#2B2E7F"/>
<path d="M64.1263 71.135V49.1285H67.1097C76.4328 49.1285 79.0432 40.1768 79.0432 40.1768H54.0574C42.1239 40.1768 40.2593 49.1285 40.2593 49.1285H54.8033V82.3247C54.4303 82.3247 64.1263 79.3407 64.1263 71.135Z" fill="white"/>
<path d="M91.3496 88.2927C99.5539 79.7139 102.91 67.4052 99.9269 55.8425C98.4352 49.8747 95.0789 44.2798 90.6038 39.8039C90.2309 39.4309 89.858 39.0579 89.485 38.6849L89.1121 38.312C88.7392 37.939 88.3663 37.939 88.3663 37.566L87.9933 37.193L87.2475 36.447H86.1287C85.7558 36.074 85.3829 36.074 85.01 35.701L84.2641 35.328C83.8912 35.328 83.8912 34.955 83.5183 34.955L82.7724 34.582C83.1453 34.2091 82.7724 33.8361 82.3995 33.8361L81.6537 33.4631C81.2807 33.4631 81.2807 33.0901 80.9078 33.0901H80.5349C81.6537 33.8361 82.3995 34.2091 83.1454 34.955C95.8247 47.6367 96.1976 68.1512 83.5183 81.2058C83.5183 81.2058 83.5183 81.2058 83.1454 81.5788C66.7368 97.9904 40.2593 97.9904 23.8507 81.5788C23.1048 80.8329 22.7319 80.4599 21.9861 79.7139L21.6132 79.3409C21.2402 78.9679 20.8673 78.5949 20.4944 78.2219C22.7319 82.3248 25.3424 86.0547 28.6987 89.4116C45.8531 106.196 73.4494 106.196 90.6038 89.4116C90.9767 88.6657 90.9767 88.6656 91.3496 88.2927Z" fill="white"/>
<path d="M39.1404 83.8167C38.3946 83.0707 37.6487 82.6977 36.9029 81.9518C24.2235 69.2701 23.8506 48.3826 36.5299 35.701C36.5299 35.701 36.5299 35.701 36.9029 35.328C53.3115 18.9164 79.7889 18.9164 96.1975 35.328C97.3163 36.4469 98.4351 37.5659 99.5538 39.0579C97.3163 34.955 94.7058 31.2251 91.3495 27.8682C74.1951 10.7106 46.5989 10.7106 29.4444 27.8682C29.0715 28.2412 29.0715 28.2412 28.6986 28.6141C17.5109 40.5498 15.6463 58.0804 24.9694 71.508C28.3257 76.7299 33.5466 81.2058 39.1404 83.8167Z" fill="white"/>
</svg>
