<svg width="120" height="120" viewBox="0 0 120 120" fill="none" xmlns="http://www.w3.org/2000/svg">
<circle cx="60" cy="60" r="60" fill="#EDF0F4"/>
<path d="M71.2539 70H67.8683C67.2414 70 66.7084 69.4984 66.7084 68.8401V59.9373L60.7837 63.6363C60.2821 63.9498 59.6551 63.9498 59.1536 63.6363L53.2602 59.9373V68.8401C53.2602 69.4671 52.7586 70 52.1003 70H48.7461C48.1191 70 47.5862 69.4984 47.5862 68.8401V51.6614C47.5862 50.815 48.2758 50.1254 49.1222 50.1254C49.4357 50.1254 49.7178 50.2194 49.9686 50.4075L59.3103 56.8338C59.6865 57.116 60.2194 57.116 60.5956 56.8338L69.9373 50.4075C70.6269 49.9373 71.5987 50.1254 72.0689 50.815C72.257 51.0658 72.3197 51.3793 72.3511 51.6614V68.8401C72.3824 69.4671 71.8809 70 71.2539 70Z" fill="#FF4A4A"/>
<path d="M42.5392 69.9687H21.5361C20.6897 69.9687 20 69.279 20 68.4326V51.1599C20.0313 50.5016 20.5329 50 21.1912 50H24.5768C25.2038 50 25.7367 50.5016 25.7367 51.1599V64.2947H38.4639V51.1599C38.4639 50.5329 38.9655 50 39.6238 50H42.9154C43.5423 50 44.0752 50.5016 44.0752 51.1599V68.4326C44.0752 69.279 43.3856 69.9687 42.5392 69.9687Z" fill="#FF4A4A"/>
<path d="M77.4609 50H98.464C99.3104 50 100 50.6897 100 51.5361V68.8088C100 69.4357 99.4985 69.9687 98.8715 69.9687H95.4859C94.859 69.9687 94.3261 69.4671 94.3261 68.8088V56.4263C94.3261 56.0188 93.9812 55.674 93.5737 55.674H82.3825C81.975 55.674 81.6301 56.0188 81.6301 56.4263V68.8088C81.6301 69.4357 81.1286 69.9687 80.4703 69.9687H77.0847C76.4577 69.9687 75.9248 69.4671 75.9248 68.8088V51.5361C75.9248 50.6897 76.6145 50 77.4609 50Z" fill="#FF4A4A"/>
<path d="M86.2695 59.3103H89.6237C90.2507 59.3103 90.7836 59.8119 90.7836 60.4702V63.8871C90.7836 64.5141 90.282 65.047 89.6237 65.047H86.2695C85.6425 65.047 85.1096 64.5454 85.1096 63.8871V60.4388C85.1096 59.8119 85.6425 59.3103 86.2695 59.3103Z" fill="#FF4A4A"/>
</svg>
