<svg width="120" height="120" viewBox="0 0 120 120" fill="none" xmlns="http://www.w3.org/2000/svg">
<path fill-rule="evenodd" clip-rule="evenodd" d="M60 120C27 120 0 93.0006 0 59.7012C0.3 26.7019 27 -0.297518 60.3 0.00247602C93.3 0.30247 120 27.0019 120 60.6012C119.7 93.3006 93 120 60 120Z" fill="black"/>
<path d="M40.5977 54.2755H40.6337L41.2457 54.4915L41.8218 54.7075L42.4338 54.8875L43.0099 55.1396L43.622 55.3556L44.198 55.5716L44.8101 55.7876L45.3861 56.0037L45.9622 56.2197L46.5383 56.4357L47.1503 56.6517L47.7264 56.9037L48.3384 57.0838L48.9145 57.2998L49.5266 57.5158L50.1026 57.7678L50.7147 57.9839L51.2907 58.1639L51.8668 58.3799L52.4788 58.6319L53.0909 58.8479V57.9118V57.7678V57.0118V56.4717V56.0757V55.1396V54.2395V53.3034V52.4033V51.4312V50.5311V50.4231H52.3708H51.6868H51.6148H50.8587H50.2826H50.0666H49.3105H48.9145H48.5185H47.7264H47.5104H46.9703H46.2142H46.1782H46.1422H45.4221H44.7741H44.6661H43.874H43.3699H42.0018H40.6337H40.5977H39.8056L39.2295 50.7111L37.8614 51.4312L36.4572 52.1873L35.0531 52.8713L33.721 53.5914L32.3168 54.3475L30.9127 55.0316L29.5446 55.7876L28.1404 56.5077L26.7723 57.1918L25.4041 57.9478L24.144 58.5959L24 79.226L25.4041 80.1981L26.7723 81.1702L28.1404 82.1063L29.5446 83.1144L30.9127 84.0865L32.3168 85.0586L32.9289 85.5266L33.721 84.5185L35.0531 82.7183L35.1971 82.5383L35.0531 82.4303L33.721 81.4582L32.3168 80.4861L30.9127 79.514L29.5446 78.5419L28.1404 77.5338L27.7804 77.3178L27.8884 60.6121L28.1404 60.4681L29.5446 59.784L30.9127 59.1L32.3168 58.4159L33.721 57.7318L35.0531 57.0118L36.4572 56.3277L37.8614 55.6796L39.2295 54.9595L40.5977 54.2755Z" fill="url(#paint0_linear_1_427)"/>
<path d="M64.4319 93.6274L63.2798 94.0955L61.9837 94.6355L60.6876 95.1396L59.3914 95.6796L58.8154 95.8957L58.1313 95.5716L56.8352 94.8876L55.539 94.2755L54.2789 93.5914L52.9828 92.9434L51.6867 92.3313L50.3905 91.6472L49.0944 90.9992L47.7983 90.3511L46.5021 89.703L45.206 89.019L43.9819 88.4069L42.6858 87.7589L42.5417 87.6868V70.8372H41.3896H40.0935H38.7974V89.9911L40.0935 90.6031L41.3896 91.2512L42.6858 91.9353L43.9819 92.5473L45.206 93.2314L46.5021 93.8795L47.7983 94.5275L49.0944 95.1756L50.3905 95.8237L51.6867 96.4717L52.9828 97.1198L54.2789 97.8039L55.539 98.4159L56.8352 99.1L58.1313 99.712L58.6353 100L59.3914 99.64L60.6876 99.172L61.9837 98.6319L63.2798 98.0919L64.5399 97.5878L65.8361 97.0838L64.5399 93.8435L64.4319 93.6274Z" fill="url(#paint1_linear_1_427)"/>
<path d="M87.4382 70.2251L87.5102 78.1459L87.1862 78.4339L84.99 79.9461L82.7938 81.5303L80.5975 83.1144L78.4013 84.6626L76.2051 86.2107L74.0449 87.7949L71.8487 89.343L70.5525 90.2791L69.6525 89.5951L67.4922 87.9029L65.296 86.2467L63.0998 84.5546L60.9396 82.8984L60.5435 82.6104V74.0775L60.9396 73.7175L63.0998 71.4132L65.296 69.145L67.4922 66.8408L69.6525 64.5726L71.7767 62.3403H69.6525H67.4922H65.296H63.0998H60.9396H58.7074H56.5111H54.3509H52.1547H49.9585H47.7983H45.6021L47.7983 64.6446L49.9585 66.9128L52.1547 69.181L54.3509 71.4852L56.5111 73.7535L56.8352 74.0775V84.4105L58.7074 85.8867L60.9396 87.5789L63.0998 89.235L65.296 90.9272L67.4922 92.5834L69.6525 94.2755L70.4445 94.8876L71.8487 93.8795L74.0449 92.3673L76.2051 90.7832L78.4013 89.199L80.5975 87.6869L82.7938 86.1027L84.99 84.5185L87.1862 83.0064L89.3824 81.4222L91.1826 80.0901L91.5426 70.3691L89.3824 70.2971L87.4382 70.2251Z" fill="url(#paint2_linear_1_427)"/>
<path d="M27.5644 51.7911H27.8164L27.8524 41.2061L29.2565 40.306L31.0207 39.2619L32.7489 38.2178L34.4771 37.1376L36.2052 36.0935L37.9694 35.0134L39.6616 33.9693L41.4258 32.9252L43.1539 31.8451L44.9181 30.765H44.9541L46.6103 31.7371L48.3745 32.7092L50.1026 33.7173L51.8308 34.6894L53.559 35.6615L55.2871 36.6336L57.0153 37.6417L58.7075 38.6138L58.7795 38.4698L60.5077 35.3375L58.7795 34.3294L57.0153 33.3573L55.2871 32.3852L53.559 31.4131L51.8308 30.405L50.1026 29.4329L48.3745 28.4608L46.6103 27.4527L44.9181 26.4806L44.8461 26.4446L43.1539 27.4527L41.4258 28.5328L39.6616 29.6129L37.9694 30.693L36.2052 31.7371L34.4771 32.7812L32.7489 33.8613L31.0207 34.9054L29.2565 35.9855L27.5644 37.0296L25.8002 38.0737L24.144 39.1178L24.072 51.7551H25.8002L27.5644 51.7911Z" fill="url(#paint3_linear_1_427)"/>
<path d="M95.2511 42.1063L94.351 41.3862L93.4509 40.6661L92.5508 39.91L91.6507 39.19L90.7506 38.4699L89.8146 37.7498L88.9145 37.0298L88.0144 36.3097L87.0783 35.5536L86.3942 35.0496L86.1422 35.3376L85.2421 36.4537L84.342 37.6058L84.09 37.8938L84.342 38.1459L85.2421 38.9019L86.1422 39.658L87.0783 40.4141L88.0144 41.1702L88.9145 41.9623L89.8146 42.7183L90.7506 43.4744L91.1827 43.8344L91.2187 60.8641L90.7506 61.1882L89.8146 61.7642L88.9145 62.3403L88.0144 62.9163L87.0783 63.4924L86.1422 64.0685L85.2421 64.6445L84.342 65.2206L83.4419 65.7966L82.5418 66.3727L81.6417 66.9487L80.7056 67.5248L79.8056 68.1009L78.9055 68.6769L78.0054 69.253L77.0693 69.829L76.1692 70.4051L77.0693 71.8452L78.0054 73.2854L78.1494 73.5374L78.9055 73.0694L79.8056 72.5293L80.7056 71.9533L81.6417 71.4132L82.5418 70.8011L83.4419 70.2611L84.342 69.685L85.2421 69.145L86.1422 68.5689L87.0783 68.0289L88.0144 67.4168L88.9145 66.8767L89.8146 66.3007L90.7506 65.7606L91.6507 65.1846L92.5508 64.6445L93.4509 64.0325L94.351 63.4924L95.2511 62.9163V42.1063Z" fill="url(#paint4_linear_1_427)"/>
<path d="M65.5481 52.2592V53.1953V54.1314V55.0675V56.0396V57.0117V57.9478V58.8839V59.604L65.8361 59.4959L67.0602 59.0279L68.2843 58.5239L69.4724 58.0558L70.6966 57.5518L71.9207 57.0477L73.1088 56.5797L74.3329 56.0756L75.5571 55.6076L76.7452 55.1035L77.9693 54.6355L79.1574 54.1314V53.1953V52.8353V50.351V31.8452L77.7893 30.9811L76.3851 30.189L74.981 29.3969L73.6129 28.5329L72.2087 27.7408L70.8046 26.9487L69.4364 26.1206L68.0323 25.2925L66.6642 24.4644L65.26 23.6724L63.8559 22.8443L62.4877 22.0162L61.1196 21.2241L59.7155 20.432L58.9594 20L58.3113 20.36L56.9072 21.1161L55.5031 21.8362L54.1709 22.6283L52.7668 23.3843L51.3626 24.1044L49.9585 24.8965L51.3626 25.6886L52.7668 26.4806L53.6309 27.0207L54.1709 26.7327L55.5031 26.0126L56.9072 25.2565L58.3113 24.5365L58.8514 24.2484L59.7155 24.7525L61.1196 25.5446L62.4877 26.3366L63.8559 27.1647L65.26 27.9928L66.6642 28.7849L68.0323 29.613L69.4364 30.441L70.8046 31.2331L72.2087 32.0252L73.6129 32.8893L74.981 33.6814L75.449 33.9334V50.351H75.125H74.981H74.3329H73.6129H73.5409H72.7128H72.2087H71.9207H71.1286H70.8046H70.3365H69.5445H69.4364H68.7524H68.0323H67.9603H67.1322H66.6642H66.3401H65.7281H65.6201" fill="url(#paint5_linear_1_427)"/>
<path d="M65.5481 59.604L79.1575 54.1315L65.5481 50.3511" fill="url(#paint6_linear_1_427)"/>
<path d="M53.0908 59.604V50.4951L40.6335 54.2035L53.0908 59.568" fill="url(#paint7_linear_1_427)"/>
<defs>
<linearGradient id="paint0_linear_1_427" x1="24.0014" y1="50.4339" x2="24.0014" y2="85.5122" gradientUnits="userSpaceOnUse">
<stop stop-color="#F6E93D"/>
<stop offset="0.13" stop-color="#F8E330"/>
<stop offset="0.35" stop-color="#F7C730"/>
<stop offset="0.64" stop-color="#F59C2E"/>
<stop offset="0.98" stop-color="#EB5E2C"/>
<stop offset="1" stop-color="#EB5C2C"/>
</linearGradient>
<linearGradient id="paint1_linear_1_427" x1="38.8111" y1="70.8516" x2="38.8111" y2="99.9965" gradientUnits="userSpaceOnUse">
<stop stop-color="#F6E93D"/>
<stop offset="0.13" stop-color="#F8E330"/>
<stop offset="0.35" stop-color="#F7C730"/>
<stop offset="0.64" stop-color="#F59C2E"/>
<stop offset="0.98" stop-color="#EB5E2C"/>
<stop offset="1" stop-color="#EB5C2C"/>
</linearGradient>
<linearGradient id="paint2_linear_1_427" x1="45.5901" y1="62.3367" x2="45.5901" y2="94.8984" gradientUnits="userSpaceOnUse">
<stop stop-color="#F6E93D"/>
<stop offset="0.13" stop-color="#F8E330"/>
<stop offset="0.35" stop-color="#F7C730"/>
<stop offset="0.64" stop-color="#F59C2E"/>
<stop offset="0.98" stop-color="#EB5E2C"/>
<stop offset="1" stop-color="#EB5C2C"/>
</linearGradient>
<linearGradient id="paint3_linear_1_427" x1="24.0754" y1="26.4554" x2="24.0754" y2="51.7947" gradientUnits="userSpaceOnUse">
<stop stop-color="#F6E93D"/>
<stop offset="0.13" stop-color="#F8E330"/>
<stop offset="0.35" stop-color="#F7C730"/>
<stop offset="0.64" stop-color="#F59C2E"/>
<stop offset="0.98" stop-color="#EB5E2C"/>
<stop offset="1" stop-color="#EB5C2C"/>
</linearGradient>
<linearGradient id="paint4_linear_1_427" x1="76.1809" y1="35.0424" x2="76.1809" y2="73.541" gradientUnits="userSpaceOnUse">
<stop stop-color="#F6E93D"/>
<stop offset="0.13" stop-color="#F8E330"/>
<stop offset="0.35" stop-color="#F7C730"/>
<stop offset="0.64" stop-color="#F59C2E"/>
<stop offset="0.98" stop-color="#EB5E2C"/>
<stop offset="1" stop-color="#EB5C2C"/>
</linearGradient>
<linearGradient id="paint5_linear_1_427" x1="49.9509" y1="20" x2="49.9509" y2="59.6148" gradientUnits="userSpaceOnUse">
<stop stop-color="#F6E93D"/>
<stop offset="0.13" stop-color="#F8E330"/>
<stop offset="0.35" stop-color="#F7C730"/>
<stop offset="0.64" stop-color="#F59C2E"/>
<stop offset="0.98" stop-color="#EB5E2C"/>
<stop offset="1" stop-color="#EB5C2C"/>
</linearGradient>
<linearGradient id="paint6_linear_1_427" x1="65.5363" y1="50.3763" x2="65.5363" y2="59.6256" gradientUnits="userSpaceOnUse">
<stop stop-color="#F6E93D"/>
<stop offset="0.13" stop-color="#F8E330"/>
<stop offset="0.35" stop-color="#F7C730"/>
<stop offset="0.64" stop-color="#F59C2E"/>
<stop offset="0.98" stop-color="#EB5E2C"/>
<stop offset="1" stop-color="#EB5C2C"/>
</linearGradient>
<linearGradient id="paint7_linear_1_427" x1="52.2316" y1="58.391" x2="53.8523" y2="50.0626" gradientUnits="userSpaceOnUse">
<stop stop-color="#F6E93D"/>
<stop offset="0.13" stop-color="#F8E330"/>
<stop offset="0.35" stop-color="#F7C730"/>
<stop offset="0.64" stop-color="#F59C2E"/>
<stop offset="0.98" stop-color="#EB5E2C"/>
<stop offset="1" stop-color="#EB5C2C"/>
</linearGradient>
</defs>
</svg>
