<svg width="120" height="120" viewBox="0 0 120 120" fill="none" xmlns="http://www.w3.org/2000/svg">
<circle cx="60" cy="60" r="60" fill="#EDF0F4"/>
<path d="M73.3714 54.3428V58.8H85.7143C85.5429 57.6 85.5429 55.5428 85.0286 54.3428H73.3714Z" fill="#40506B"/>
<path d="M85.7143 61.7142H71.1429V66.1714H85.0286C85.5429 64.7999 85.5429 62.9142 85.7143 61.7142Z" fill="#40506B"/>
<path d="M33.9429 66H47.8286V61.5428H33.2571C33.4286 62.9143 33.4286 64.8 33.9429 66Z" fill="#40506B"/>
<path d="M33.9429 54.3428C33.7714 55.5428 33.4286 57.4285 33.2571 58.8H45.6V54.3428H33.9429Z" fill="#40506B"/>
<path d="M59.3143 59.4857C58.6286 62.0571 57.7714 64.6286 57.0857 67.2C56.4 69.7714 55.5429 72.3429 54.6857 74.9143H48.6857C48 73.3714 47.3143 71.8286 46.6286 69.7714C45.9429 67.8857 45.0857 65.6571 44.4 63.2571C43.7143 61.0286 42.8571 58.4571 42 55.7143C41.1429 52.9714 40.4571 50.5714 39.7714 47.6571H47.8286C48 48.8571 48.5143 50.2286 48.6857 51.6C49.0286 53.1429 49.3714 54.5143 49.7143 56.0571C50.0571 57.6 50.4 59.1429 50.7429 60.6857C51.0857 62.2286 51.6 63.7714 51.9429 65.1429C52.4571 63.6 52.8 62.0571 53.3143 60.5143C53.8286 58.9714 54.1714 57.4286 54.5143 55.8857C54.8571 54.3429 55.2 52.8 55.5429 51.4286C55.8857 49.8857 56.2286 48.6857 56.5714 47.4857H62.2286C62.4 48.6857 62.9143 50.0571 63.2571 51.4286C63.6 52.9714 63.9429 54.3429 64.2857 55.8857C64.6286 57.4286 64.9714 58.9714 65.4857 60.5143C65.8286 62.0571 66.3429 63.6 66.8571 65.1429C67.2 63.6 67.7143 62.2286 68.0571 60.6857C68.4 59.1429 68.9143 57.6 69.2571 56.0571C69.6 54.5143 69.9429 52.9714 70.2857 51.6C70.6286 50.0571 70.9714 48.8571 71.1429 47.6571H79.2C78.5143 50.4 77.6571 52.9714 76.9714 55.7143C76.1143 58.4571 75.4286 60.8571 74.5714 63.2571C73.8857 65.4857 73.0286 67.7143 72.3429 69.7714C71.6571 71.6571 70.9714 73.5429 70.2857 74.9143H64.2857C63.4286 72.3429 62.5714 69.7714 61.7143 67.2C60.8571 64.6286 60.1714 62.2286 59.3143 59.4857Z" fill="#40506B"/>
<path fill-rule="evenodd" clip-rule="evenodd" d="M24 60C24 79.8857 40.1143 96 60 96C79.8857 96 96 79.8857 96 60C96 40.1143 79.8857 24 60 24C40.1143 24 24 40.1143 24 60ZM29.1429 60C29.1429 43.0286 43.0286 29.1429 60 29.1429C76.9714 29.1429 90.8571 43.0286 90.8571 60C90.8571 76.9714 76.9714 90.8571 60 90.8571C43.0286 90.8571 29.1429 76.9714 29.1429 60Z" fill="#40506B"/>
</svg>
