<svg width="120" height="120" viewBox="0 0 120 120" fill="none" xmlns="http://www.w3.org/2000/svg">
<path fill-rule="evenodd" clip-rule="evenodd" d="M60 0C93.132 0 120 26.868 120 60C120 93.132 93.132 120 60 120C26.868 120 0 93.132 0 60C0 26.868 26.868 0 60 0Z" fill="#383B4A"/>
<path fill-rule="evenodd" clip-rule="evenodd" d="M93.636 63.6599L91.188 66.1079C63.372 38.4119 32.52 53.8079 25.152 58.1399C25.4128 57.3247 25.8655 56.5839 26.472 55.9799L56.208 26.2439C57.2257 25.2242 58.6073 24.6511 60.048 24.6511C61.4887 24.6511 62.8702 25.2242 63.888 26.2439L93.624 55.9799C94.648 56.9946 95.225 58.3758 95.2273 59.8174C95.2295 61.259 94.6568 62.642 93.636 63.6599Z" fill="white"/>
<path fill-rule="evenodd" clip-rule="evenodd" d="M70.632 86.6641L63.9 93.3961C62.8822 94.4159 61.5007 94.9889 60.06 94.9889C58.6192 94.9889 57.2377 94.4159 56.22 93.3961L49.788 86.9641C60.132 79.6441 68.976 85.4281 70.632 86.6641Z" fill="white"/>
<path fill-rule="evenodd" clip-rule="evenodd" d="M89.676 67.6201L81.996 75.3001C59.172 54.1321 36.276 67.7641 32.844 70.0201L31.152 68.3281C31.1747 68.3159 31.1951 68.2997 31.212 68.2801C61.116 44.3041 87.144 65.4481 89.676 67.6201Z" fill="white"/>
<path fill-rule="evenodd" clip-rule="evenodd" d="M42.852 80.04L41.004 78.192C58.752 62.016 78.252 75.78 80.136 77.172L72.288 85.02C58.236 71.496 45.204 78.564 42.852 80.04Z" fill="white"/>
</svg>
