<svg width="120" height="120" viewBox="0 0 120 120" fill="none" xmlns="http://www.w3.org/2000/svg">
<g clip-path="url(#clip0_1_821)">
<circle cx="60" cy="60" r="60" fill="#EDF0F4"/>
<path fill-rule="evenodd" clip-rule="evenodd" d="M20.0292 56.1805C21.2704 13.2299 90.8084 2.92421 100 56.1805C95.3046 58.5388 93.2723 59.5067 93.2723 59.5067C93.2723 59.5067 95.6413 60.9128 99.9865 63.5763C96.3534 108.265 28.0138 115.847 20 63.6366C24.4364 60.8022 26.5636 59.5287 26.5636 59.5287C26.5636 59.5287 24.0431 58.2632 20.0292 56.1805ZM59.263 63.5619L65.7857 74.7757L71.3756 74.6606L62.6403 58.4129L70.5606 44.9111L65.7852 44.7969L59.7278 54.5226L53.6713 44.3388L48.5466 44.7969L57.049 58.5276L47.6152 74.4322L52.6234 74.7757L59.263 63.5619Z" fill="#B7B5B1"/>
<path fill-rule="evenodd" clip-rule="evenodd" d="M23.3602 54.1353C27.2625 19.6985 84.2352 6.92713 96.6666 54.1353C95.1558 54.9335 86.7909 59.6091 86.7909 59.6091C86.7909 59.6091 90.4502 61.8751 96.654 65.7636C93.2853 102.481 31.8138 111.203 23.3333 65.8187C30.0039 61.5818 33.0591 59.6288 33.0591 59.6288C33.0591 59.6288 31.2653 58.583 23.3602 54.1353ZM59.2645 63.6164L65.7705 74.8003L71.3465 74.6855L62.6332 58.4808L70.5334 45.0148L65.7705 44.9009L59.7286 54.6008L53.6876 44.4439L48.5762 44.9009L57.0563 58.5947L47.6466 74.4576L52.6423 74.8003L59.2645 63.6164Z" fill="#244B81"/>
</g>
<defs>
<clipPath id="clip0_1_821">
<rect width="120" height="120" fill="white"/>
</clipPath>
</defs>
</svg>
